0
SECTION
2
ENTITIES
0
LINE
8
медь верх
10
-5.888
20
-18.487
11
-6.113
21
-18.712
0
LINE
8
медь верх
10
-6.113
20
-18.712
11
-6.433
21
-18.712
0
LINE
8
медь верх
10
-6.433
20
-18.712
11
-6.433
21
-18.466
0
LINE
8
медь верх
10
-6.433
20
-18.466
11
-6.242
21
-18.466
0
LINE
8
медь верх
10
-6.242
20
-18.466
11
-6.134
21
-18.358
0
LINE
8
медь верх
10
-6.134
20
-18.358
11
-6.134
21
-18.218
0
LINE
8
медь верх
10
-6.134
20
-18.218
11
-5.888
21
-18.218
0
LINE
8
медь верх
10
-5.888
20
-18.218
11
-5.888
21
-18.487
0
LINE
8
медь верх
10
-6.081
20
-18.680
11
-6.433
21
-18.680
0
LINE
8
медь верх
10
-6.040
20
-18.640
11
-6.433
21
-18.640
0
LINE
8
медь верх
10
-5.999
20
-18.599
11
-6.433
21
-18.599
0
LINE
8
медь верх
10
-5.960
20
-18.560
11
-6.433
21
-18.560
0
LINE
8
медь верх
10
-5.919
20
-18.519
11
-6.433
21
-18.519
0
LINE
8
медь верх
10
-6.433
20
-18.479
11
-5.888
21
-18.479
0
LINE
8
медь верх
10
-6.214
20
-18.438
11
-5.888
21
-18.438
0
LINE
8
медь верх
10
-6.173
20
-18.398
11
-5.888
21
-18.398
0
LINE
8
медь верх
10
-6.134
20
-18.358
11
-5.888
21
-18.358
0
LINE
8
медь верх
10
-6.133
20
-18.317
11
-5.888
21
-18.317
0
LINE
8
медь верх
10
-6.133
20
-18.278
11
-5.888
21
-18.278
0
LINE
8
медь верх
10
-6.133
20
-18.237
11
-5.888
21
-18.237
0
LINE
8
медь верх
10
-7.187
20
-18.358
11
-7.078
21
-18.466
0
LINE
8
медь верх
10
-7.078
20
-18.466
11
-6.888
21
-18.466
0
LINE
8
медь верх
10
-6.888
20
-18.466
11
-6.888
21
-18.712
0
LINE
8
медь верх
10
-6.888
20
-18.712
11
-7.207
21
-18.712
0
LINE
8
медь верх
10
-7.207
20
-18.712
11
-7.433
21
-18.487
0
LINE
8
медь верх
10
-7.433
20
-18.487
11
-7.433
21
-18.218
0
LINE
8
медь верх
10
-7.433
20
-18.218
11
-7.187
21
-18.218
0
LINE
8
медь верх
10
-7.187
20
-18.218
11
-7.187
21
-18.358
0
LINE
8
медь верх
10
-6.887
20
-18.680
11
-7.239
21
-18.680
0
LINE
8
медь верх
10
-6.887
20
-18.640
11
-7.278
21
-18.640
0
LINE
8
медь верх
10
-6.887
20
-18.599
11
-7.319
21
-18.599
0
LINE
8
медь верх
10
-6.887
20
-18.560
11
-7.360
21
-18.560
0
LINE
8
медь верх
10
-6.887
20
-18.519
11
-7.399
21
-18.519
0
LINE
8
медь верх
10
-6.887
20
-18.479
11
-7.432
21
-18.479
0
LINE
8
медь верх
10
-7.104
20
-18.439
11
-7.432
21
-18.439
0
LINE
8
медь верх
10
-7.145
20
-18.398
11
-7.432
21
-18.398
0
LINE
8
медь верх
10
-7.186
20
-18.358
11
-7.432
21
-18.358
0
LINE
8
медь верх
10
-7.432
20
-18.317
11
-7.186
21
-18.317
0
LINE
8
медь верх
10
-7.432
20
-18.278
11
-7.186
21
-18.278
0
LINE
8
медь верх
10
-7.432
20
-18.237
11
-7.186
21
-18.237
0
LINE
8
медь верх
10
-1.528
20
-19.282
11
-1.858
21
-19.612
0
LINE
8
медь верх
10
-1.858
20
-19.612
11
-2.672
21
-19.612
0
LINE
8
медь верх
10
-2.672
20
-19.612
11
-2.672
21
-19.367
0
LINE
8
медь верх
10
-2.672
20
-19.367
11
-1.981
21
-19.367
0
LINE
8
медь верх
10
-1.981
20
-19.367
11
-1.831
21
-19.218
0
LINE
8
медь верх
10
-1.831
20
-19.218
11
-1.528
21
-19.218
0
LINE
8
медь верх
10
-1.528
20
-19.218
11
-1.528
21
-19.282
0
LINE
8
медь верх
10
-1.845
20
-19.600
11
-2.672
21
-19.600
0
LINE
8
медь верх
10
-1.805
20
-19.559
11
-2.672
21
-19.559
0
LINE
8
медь верх
10
-1.764
20
-19.519
11
-2.672
21
-19.519
0
LINE
8
медь верх
10
-1.725
20
-19.479
11
-2.672
21
-19.479
0
LINE
8
медь верх
10
-1.684
20
-19.439
11
-2.672
21
-19.439
0
LINE
8
медь верх
10
-1.643
20
-19.398
11
-2.672
21
-19.398
0
LINE
8
медь верх
10
-1.604
20
-19.359
11
-1.972
21
-19.359
0
LINE
8
медь верх
10
-1.563
20
-19.318
11
-1.932
21
-19.318
0
LINE
8
медь верх
10
-1.891
20
-19.277
11
-1.527
21
-19.277
0
LINE
8
медь верх
10
-1.850
20
-19.237
11
-1.527
21
-19.237
0
LINE
8
медь верх
10
-3.819
20
-19.367
11
-3.128
21
-19.367
0
LINE
8
медь верх
10
-3.128
20
-19.367
11
-3.128
21
-19.612
0
LINE
8
медь верх
10
-3.128
20
-19.612
11
-3.942
21
-19.612
0
LINE
8
медь верх
10
-3.942
20
-19.612
11
-4.272
21
-19.282
0
LINE
8
медь верх
10
-4.272
20
-19.282
11
-4.272
21
-19.218
0
LINE
8
медь верх
10
-4.272
20
-19.218
11
-3.969
21
-19.218
0
LINE
8
медь верх
10
-3.969
20
-19.218
11
-3.819
21
-19.367
0
LINE
8
медь верх
10
-3.127
20
-19.600
11
-3.954
21
-19.600
0
LINE
8
медь верх
10
-3.127
20
-19.559
11
-3.994
21
-19.559
0
LINE
8
медь верх
10
-3.127
20
-19.519
11
-4.034
21
-19.519
0
LINE
8
медь верх
10
-3.127
20
-19.479
11
-4.074
21
-19.479
0
LINE
8
медь верх
10
-3.127
20
-19.439
11
-4.115
21
-19.439
0
LINE
8
медь верх
10
-3.127
20
-19.398
11
-4.154
21
-19.398
0
LINE
8
медь верх
10
-4.195
20
-19.359
11
-3.827
21
-19.359
0
LINE
8
медь верх
10
-4.235
20
-19.318
11
-3.867
21
-19.318
0
LINE
8
медь верх
10
-4.272
20
-19.277
11
-3.908
21
-19.277
0
LINE
8
медь верх
10
-4.272
20
-19.238
11
-3.947
21
-19.238
0
LINE
8
медь верх
10
-9.128
20
-22.461
11
-9.839
21
-23.172
0
LINE
8
медь верх
10
-9.839
20
-23.172
11
-10.172
21
-23.172
0
LINE
8
медь верх
10
-10.172
20
-23.172
11
-10.172
21
-22.931
0
LINE
8
медь верх
10
-10.172
20
-22.931
11
-9.941
21
-22.931
0
LINE
8
медь верх
10
-9.941
20
-22.931
11
-9.369
21
-22.359
0
LINE
8
медь верх
10
-9.369
20
-22.359
11
-9.369
21
-22.130
0
LINE
8
медь верх
10
-9.369
20
-22.130
11
-9.128
21
-22.130
0
LINE
8
медь верх
10
-9.128
20
-22.130
11
-9.128
21
-22.461
0
LINE
8
медь верх
10
-9.827
20
-23.160
11
-10.171
21
-23.161
0
LINE
8
медь верх
10
-9.787
20
-23.120
11
-10.171
21
-23.120
0
LINE
8
медь верх
10
-9.746
20
-23.080
11
-10.171
21
-23.080
0
LINE
8
медь верх
10
-9.705
20
-23.039
11
-10.171
21
-23.039
0
LINE
8
медь верх
10
-9.666
20
-23.000
11
-10.171
21
-23.000
0
LINE
8
медь верх
10
-9.625
20
-22.959
11
-10.171
21
-22.959
0
LINE
8
медь верх
10
-9.585
20
-22.918
11
-9.929
21
-22.918
0
LINE
8
медь верх
10
-9.545
20
-22.879
11
-9.888
21
-22.879
0
LINE
8
медь верх
10
-9.505
20
-22.838
11
-9.848
21
-22.838
0
LINE
8
медь верх
10
-9.464
20
-22.798
11
-9.808
21
-22.798
0
LINE
8
медь верх
10
-9.425
20
-22.758
11
-9.768
21
-22.758
0
LINE
8
медь верх
10
-9.384
20
-22.718
11
-9.727
21
-22.718
0
LINE
8
медь верх
10
-9.343
20
-22.677
11
-9.688
21
-22.677
0
LINE
8
медь верх
10
-9.303
20
-22.636
11
-9.647
21
-22.636
0
LINE
8
медь верх
10
-9.263
20
-22.597
11
-9.606
21
-22.597
0
LINE
8
медь верх
10
-9.223
20
-22.556
11
-9.566
21
-22.556
0
LINE
8
медь верх
10
-9.182
20
-22.516
11
-9.526
21
-22.516
0
LINE
8
медь верх
10
-9.143
20
-22.476
11
-9.486
21
-22.476
0
LINE
8
медь верх
10
-9.445
20
-22.436
11
-9.127
21
-22.436
0
LINE
8
медь верх
10
-9.406
20
-22.395
11
-9.127
21
-22.395
0
LINE
8
медь верх
10
-9.369
20
-22.356
11
-9.127
21
-22.356
0
LINE
8
медь верх
10
-9.369
20
-22.315
11
-9.127
21
-22.315
0
LINE
8
медь верх
10
-9.369
20
-22.275
11
-9.127
21
-22.275
0
LINE
8
медь верх
10
-9.369
20
-22.234
11
-9.127
21
-22.234
0
LINE
8
медь верх
10
-9.369
20
-22.195
11
-9.127
21
-22.195
0
LINE
8
медь верх
10
-9.369
20
-22.154
11
-9.127
21
-22.154
0
LINE
8
медь верх
10
-11.431
20
-22.359
11
-10.859
21
-22.931
0
LINE
8
медь верх
10
-10.859
20
-22.931
11
-10.628
21
-22.931
0
LINE
8
медь верх
10
-10.628
20
-22.931
11
-10.628
21
-23.172
0
LINE
8
медь верх
10
-10.628
20
-23.172
11
-10.961
21
-23.172
0
LINE
8
медь верх
10
-10.961
20
-23.172
11
-11.672
21
-22.461
0
LINE
8
медь верх
10
-11.672
20
-22.461
11
-11.672
21
-22.128
0
LINE
8
медь верх
10
-11.672
20
-22.128
11
-11.431
21
-22.128
0
LINE
8
медь верх
10
-11.431
20
-22.128
11
-11.431
21
-22.359
0
LINE
8
медь верх
10
-10.627
20
-23.161
11
-10.972
21
-23.161
0
LINE
8
медь верх
10
-10.627
20
-23.120
11
-11.012
21
-23.120
0
LINE
8
медь верх
10
-10.627
20
-23.080
11
-11.053
21
-23.080
0
LINE
8
медь верх
10
-10.627
20
-23.039
11
-11.092
21
-23.040
0
LINE
8
медь верх
10
-10.627
20
-23.000
11
-11.133
21
-23.000
0
LINE
8
медь верх
10
-10.627
20
-22.959
11
-11.173
21
-22.959
0
LINE
8
медь верх
10
-10.870
20
-22.918
11
-11.214
21
-22.918
0
LINE
8
медь верх
10
-10.911
20
-22.879
11
-11.253
21
-22.879
0
LINE
8
медь верх
10
-10.951
20
-22.838
11
-11.294
21
-22.838
0
LINE
8
медь верх
10
-10.991
20
-22.798
11
-11.335
21
-22.798
0
LINE
8
медь верх
10
-11.031
20
-22.758
11
-11.374
21
-22.758
0
LINE
8
медь верх
10
-11.072
20
-22.718
11
-11.415
21
-22.718
0
LINE
8
медь верх
10
-11.111
20
-22.677
11
-11.455
21
-22.677
0
LINE
8
медь верх
10
-11.152
20
-22.638
11
-11.495
21
-22.638
0
LINE
8
медь верх
10
-11.193
20
-22.597
11
-11.535
21
-22.597
0
LINE
8
медь верх
10
-11.232
20
-22.556
11
-11.576
21
-22.556
0
LINE
8
медь верх
10
-11.273
20
-22.516
11
-11.615
21
-22.516
0
LINE
8
медь верх
10
-11.313
20
-22.476
11
-11.656
21
-22.476
0
LINE
8
медь верх
10
-11.353
20
-22.436
11
-11.671
21
-22.436
0
LINE
8
медь верх
10
-11.393
20
-22.395
11
-11.671
21
-22.395
0
LINE
8
медь верх
10
-11.671
20
-22.356
11
-11.430
21
-22.356
0
LINE
8
медь верх
10
-11.671
20
-22.315
11
-11.430
21
-22.315
0
LINE
8
медь верх
10
-11.671
20
-22.275
11
-11.430
21
-22.275
0
LINE
8
медь верх
10
-11.671
20
-22.235
11
-11.430
21
-22.235
0
LINE
8
медь верх
10
-11.671
20
-22.195
11
-11.430
21
-22.195
0
LINE
8
медь верх
10
-11.671
20
-22.154
11
-11.430
21
-22.154
0
LINE
8
медь верх
10
5.894
20
-13.293
11
5.967
21
-13.308
0
LINE
8
медь верх
10
5.967
20
-13.308
11
5.967
21
-13.308
0
LINE
8
медь верх
10
5.967
20
-13.308
11
6.091
21
-13.332
0
LINE
8
медь верх
10
6.091
20
-13.332
11
6.258
21
-13.444
0
LINE
8
медь верх
10
6.258
20
-13.444
11
6.672
21
-13.858
0
LINE
8
медь верх
10
6.672
20
-13.858
11
6.731
21
-13.946
0
LINE
8
медь верх
10
6.731
20
-13.946
11
6.731
21
-13.946
0
LINE
8
медь верх
10
6.731
20
-13.946
11
6.731
21
-13.947
0
LINE
8
медь верх
10
6.731
20
-13.947
11
6.787
21
-14.030
0
LINE
8
медь верх
10
6.787
20
-14.030
11
6.788
21
-14.034
0
LINE
8
медь верх
10
6.788
20
-14.034
11
6.795
21
-14.044
0
LINE
8
медь верх
10
6.795
20
-14.044
11
6.800
21
-14.056
0
LINE
8
медь верх
10
6.800
20
-14.056
11
6.809
21
-14.065
0
LINE
8
медь верх
10
6.809
20
-14.065
11
6.816
21
-14.075
0
LINE
8
медь верх
10
6.816
20
-14.075
11
6.826
21
-14.082
0
LINE
8
медь верх
10
6.826
20
-14.082
11
6.835
21
-14.091
0
LINE
8
медь верх
10
6.835
20
-14.091
11
6.847
21
-14.096
0
LINE
8
медь верх
10
6.847
20
-14.096
11
6.857
21
-14.103
0
LINE
8
медь верх
10
6.857
20
-14.103
11
6.869
21
-14.105
0
LINE
8
медь верх
10
6.869
20
-14.105
11
6.881
21
-14.110
0
LINE
8
медь верх
10
6.881
20
-14.110
11
6.892
21
-14.110
0
LINE
8
медь верх
10
6.892
20
-14.110
11
7.117
21
-14.335
0
LINE
8
медь верх
10
7.117
20
-14.335
11
7.117
21
-15.293
0
LINE
8
медь верх
10
7.117
20
-15.293
11
7.116
21
-15.299
0
LINE
8
медь верх
10
7.116
20
-15.299
11
7.119
21
-15.311
0
LINE
8
медь верх
10
7.119
20
-15.311
11
7.119
21
-15.323
0
LINE
8
медь верх
10
7.119
20
-15.323
11
7.119
21
-15.327
0
LINE
8
медь верх
10
7.119
20
-15.327
11
7.119
21
-15.828
0
LINE
8
медь верх
10
7.119
20
-15.828
11
7.129
21
-15.877
0
LINE
8
медь верх
10
7.129
20
-15.877
11
7.157
21
-15.918
0
LINE
8
медь верх
10
7.157
20
-15.918
11
7.198
21
-15.946
0
LINE
8
медь верх
10
7.198
20
-15.946
11
7.247
21
-15.956
0
LINE
8
медь верх
10
7.247
20
-15.956
11
7.527
21
-15.956
0
LINE
8
медь верх
10
7.527
20
-15.956
11
7.724
21
-15.995
0
LINE
8
медь верх
10
7.724
20
-15.995
11
7.862
21
-16.087
0
LINE
8
медь верх
10
7.862
20
-16.087
11
7.891
21
-16.106
0
LINE
8
медь верх
10
7.891
20
-16.106
11
9.865
21
-18.080
0
LINE
8
медь верх
10
9.865
20
-18.080
11
9.907
21
-18.108
0
LINE
8
медь верх
10
9.907
20
-18.108
11
9.956
21
-18.118
0
LINE
8
медь верх
10
9.956
20
-18.118
11
11.096
21
-18.118
0
LINE
8
медь верх
10
11.096
20
-18.118
11
11.782
21
-18.804
0
LINE
8
медь верх
10
11.782
20
-18.804
11
11.782
21
-19.996
0
LINE
8
медь верх
10
11.782
20
-19.996
11
11.218
21
-20.560
0
LINE
8
медь верх
10
11.218
20
-20.560
11
11.190
21
-20.601
0
LINE
8
медь верх
10
11.190
20
-20.601
11
11.181
21
-20.650
0
LINE
8
медь верх
10
11.181
20
-20.650
11
11.190
21
-20.699
0
LINE
8
медь верх
10
11.190
20
-20.699
11
11.218
21
-20.740
0
LINE
8
медь верх
10
11.218
20
-20.740
11
11.782
21
-21.304
0
LINE
8
медь верх
10
11.782
20
-21.304
11
11.782
21
-22.496
0
LINE
8
медь верх
10
11.782
20
-22.496
11
11.096
21
-23.182
0
LINE
8
медь верх
10
11.096
20
-23.182
11
9.904
21
-23.182
0
LINE
8
медь верх
10
9.904
20
-23.182
11
9.218
21
-22.496
0
LINE
8
медь верх
10
9.218
20
-22.496
11
9.218
21
-21.356
0
LINE
8
медь верх
10
9.218
20
-21.356
11
9.208
21
-21.307
0
LINE
8
медь верх
10
9.208
20
-21.307
11
9.180
21
-21.265
0
LINE
8
медь верх
10
9.180
20
-21.265
11
7.697
21
-19.782
0
LINE
8
медь верх
10
7.697
20
-19.782
11
7.585
21
-19.615
0
LINE
8
медь верх
10
7.585
20
-19.615
11
7.562
21
-19.499
0
LINE
8
медь верх
10
7.562
20
-19.499
11
7.562
21
-19.499
0
LINE
8
медь верх
10
7.562
20
-19.499
11
7.546
21
-19.418
0
LINE
8
медь верх
10
7.546
20
-19.418
11
7.546
21
-18.656
0
LINE
8
медь верх
10
7.546
20
-18.656
11
7.536
21
-18.607
0
LINE
8
медь верх
10
7.536
20
-18.607
11
7.509
21
-18.566
0
LINE
8
медь верх
10
7.509
20
-18.566
11
7.337
21
-18.394
0
LINE
8
медь верх
10
7.337
20
-18.394
11
7.296
21
-18.366
0
LINE
8
медь верх
10
7.296
20
-18.366
11
7.247
21
-18.357
0
LINE
8
медь верх
10
7.247
20
-18.357
11
7.247
21
-18.357
0
LINE
8
медь верх
10
7.247
20
-18.357
11
7.198
21
-18.366
0
LINE
8
медь верх
10
7.198
20
-18.366
11
7.157
21
-18.394
0
LINE
8
медь верх
10
7.157
20
-18.394
11
7.129
21
-18.436
0
LINE
8
медь верх
10
7.129
20
-18.436
11
7.119
21
-18.484
0
LINE
8
медь верх
10
7.119
20
-18.484
11
7.119
21
-18.852
0
LINE
8
медь верх
10
7.119
20
-18.852
11
7.118
21
-18.856
0
LINE
8
медь верх
10
7.118
20
-18.856
11
7.118
21
-18.869
0
LINE
8
медь верх
10
7.118
20
-18.869
11
7.116
21
-18.881
0
LINE
8
медь верх
10
7.116
20
-18.881
11
7.117
21
-18.887
0
LINE
8
медь верх
10
7.117
20
-18.887
11
7.117
21
-19.845
0
LINE
8
медь верх
10
7.117
20
-19.845
11
6.892
21
-20.070
0
LINE
8
медь верх
10
6.892
20
-20.070
11
6.891
21
-20.070
0
LINE
8
медь верх
10
6.891
20
-20.070
11
6.879
21
-20.075
0
LINE
8
медь верх
10
6.879
20
-20.075
11
6.867
21
-20.077
0
LINE
8
медь верх
10
6.867
20
-20.077
11
6.856
21
-20.084
0
LINE
8
медь верх
10
6.856
20
-20.084
11
6.845
21
-20.089
0
LINE
8
медь верх
10
6.845
20
-20.089
11
6.836
21
-20.098
0
LINE
8
медь верх
10
6.836
20
-20.098
11
6.826
21
-20.105
0
LINE
8
медь верх
10
6.826
20
-20.105
11
6.819
21
-20.115
0
LINE
8
медь верх
10
6.819
20
-20.115
11
6.810
21
-20.124
0
LINE
8
медь верх
10
6.810
20
-20.124
11
6.805
21
-20.136
0
LINE
8
медь верх
10
6.805
20
-20.136
11
6.798
21
-20.146
0
LINE
8
медь верх
10
6.798
20
-20.146
11
6.795
21
-20.159
0
LINE
8
медь верх
10
6.795
20
-20.159
11
6.791
21
-20.170
0
LINE
8
медь верх
10
6.791
20
-20.170
11
6.784
21
-20.204
0
LINE
8
медь верх
10
6.784
20
-20.204
11
6.732
21
-20.282
0
LINE
8
медь верх
10
6.732
20
-20.282
11
6.732
21
-20.282
0
LINE
8
медь верх
10
6.732
20
-20.282
11
6.731
21
-20.283
0
LINE
8
медь верх
10
6.731
20
-20.283
11
6.673
21
-20.371
0
LINE
8
медь верх
10
6.673
20
-20.371
11
6.266
21
-20.779
0
LINE
8
медь верх
10
6.266
20
-20.779
11
6.177
21
-20.838
0
LINE
8
медь верх
10
6.177
20
-20.838
11
6.177
21
-20.838
0
LINE
8
медь верх
10
6.177
20
-20.838
11
6.177
21
-20.838
0
LINE
8
медь верх
10
6.177
20
-20.838
11
6.099
21
-20.890
0
LINE
8
медь верх
10
6.099
20
-20.890
11
6.007
21
-20.909
0
LINE
8
медь верх
10
6.007
20
-20.909
11
6.007
21
-20.909
0
LINE
8
медь верх
10
6.007
20
-20.909
11
6.007
21
-20.909
0
LINE
8
медь верх
10
6.007
20
-20.909
11
5.903
21
-20.930
0
LINE
8
медь верх
10
5.903
20
-20.930
11
1.764
21
-20.930
0
LINE
8
медь верх
10
1.764
20
-20.930
11
1.752
21
-20.932
0
LINE
8
медь верх
10
1.752
20
-20.932
11
1.739
21
-20.932
0
LINE
8
медь верх
10
1.739
20
-20.932
11
1.728
21
-20.937
0
LINE
8
медь верх
10
1.728
20
-20.937
11
1.716
21
-20.939
0
LINE
8
медь верх
10
1.716
20
-20.939
11
1.705
21
-20.946
0
LINE
8
медь верх
10
1.705
20
-20.946
11
1.693
21
-20.951
0
LINE
8
медь верх
10
1.693
20
-20.951
11
1.685
21
-20.960
0
LINE
8
медь верх
10
1.685
20
-20.960
11
1.674
21
-20.967
0
LINE
8
медь верх
10
1.674
20
-20.967
11
1.667
21
-20.977
0
LINE
8
медь верх
10
1.667
20
-20.977
11
1.658
21
-20.986
0
LINE
8
медь верх
10
1.658
20
-20.986
11
1.584
21
-21.097
0
LINE
8
медь верх
10
1.584
20
-21.097
11
1.152
21
-21.529
0
LINE
8
медь верх
10
1.152
20
-21.529
11
1.030
21
-21.611
0
LINE
8
медь верх
10
1.030
20
-21.611
11
0.887
21
-21.639
0
LINE
8
медь верх
10
0.887
20
-21.639
11
-0.636
21
-21.639
0
LINE
8
медь верх
10
-0.636
20
-21.639
11
-0.780
21
-21.611
0
LINE
8
медь верх
10
-0.780
20
-21.611
11
-0.891
21
-21.536
0
LINE
8
медь верх
10
-0.891
20
-21.536
11
-0.966
21
-21.425
0
LINE
8
медь верх
10
-0.966
20
-21.425
11
-0.992
21
-21.294
0
LINE
8
медь верх
10
-0.992
20
-21.294
11
-0.966
21
-21.163
0
LINE
8
медь верх
10
-0.966
20
-21.163
11
-0.891
21
-21.052
0
LINE
8
медь верх
10
-0.891
20
-21.052
11
-0.780
21
-20.978
0
LINE
8
медь верх
10
-0.780
20
-20.978
11
-0.636
21
-20.949
0
LINE
8
медь верх
10
-0.636
20
-20.949
11
0.246
21
-20.949
0
LINE
8
медь верх
10
0.246
20
-20.949
11
0.295
21
-20.939
0
LINE
8
медь верх
10
0.295
20
-20.939
11
0.336
21
-20.912
0
LINE
8
медь верх
10
0.336
20
-20.912
11
0.364
21
-20.870
0
LINE
8
медь верх
10
0.364
20
-20.870
11
0.374
21
-20.821
0
LINE
8
медь верх
10
0.374
20
-20.821
11
0.364
21
-20.772
0
LINE
8
медь верх
10
0.364
20
-20.772
11
0.336
21
-20.731
0
LINE
8
медь верх
10
0.336
20
-20.731
11
-0.301
21
-20.094
0
LINE
8
медь верх
10
-0.301
20
-20.094
11
-0.361
21
-20.004
0
LINE
8
медь верх
10
-0.361
20
-20.004
11
-0.361
21
-20.004
0
LINE
8
медь верх
10
-0.361
20
-20.004
11
-0.361
21
-20.004
0
LINE
8
медь верх
10
-0.361
20
-20.004
11
-0.412
21
-19.927
0
LINE
8
медь верх
10
-0.412
20
-19.927
11
-0.431
21
-19.834
0
LINE
8
медь верх
10
-0.431
20
-19.834
11
-0.431
21
-19.834
0
LINE
8
медь верх
10
-0.431
20
-19.834
11
-0.431
21
-19.834
0
LINE
8
медь верх
10
-0.431
20
-19.834
11
-0.451
21
-19.730
0
LINE
8
медь верх
10
-0.451
20
-19.730
11
-0.451
21
-14.390
0
LINE
8
медь верх
10
-0.451
20
-14.390
11
-0.451
21
-14.390
0
LINE
8
медь верх
10
-0.451
20
-14.390
11
-0.451
21
-14.390
0
LINE
8
медь верх
10
-0.451
20
-14.390
11
-0.456
21
-14.363
0
LINE
8
медь верх
10
-0.456
20
-14.363
11
-0.460
21
-14.341
0
LINE
8
медь верх
10
-0.460
20
-14.341
11
-0.460
21
-14.341
0
LINE
8
медь верх
10
-0.460
20
-14.341
11
-0.460
21
-14.341
0
LINE
8
медь верх
10
-0.460
20
-14.341
11
-0.474
21
-14.320
0
LINE
8
медь верх
10
-0.474
20
-14.320
11
-0.488
21
-14.299
0
LINE
8
медь верх
10
-0.488
20
-14.299
11
-0.488
21
-14.299
0
LINE
8
медь верх
10
-0.488
20
-14.299
11
-0.488
21
-14.299
0
LINE
8
медь верх
10
-0.488
20
-14.299
11
-0.506
21
-14.287
0
LINE
8
медь верх
10
-0.506
20
-14.287
11
-0.529
21
-14.272
0
LINE
8
медь верх
10
-0.529
20
-14.272
11
-0.529
21
-14.272
0
LINE
8
медь верх
10
-0.529
20
-14.272
11
-0.529
21
-14.272
0
LINE
8
медь верх
10
-0.529
20
-14.272
11
-0.552
21
-14.267
0
LINE
8
медь верх
10
-0.552
20
-14.267
11
-0.578
21
-14.262
0
LINE
8
медь верх
10
-0.578
20
-14.262
11
-0.578
21
-14.262
0
LINE
8
медь верх
10
-0.578
20
-14.262
11
-0.578
21
-14.262
0
LINE
8
медь верх
10
-0.578
20
-14.262
11
-5.535
21
-14.262
0
LINE
8
медь верх
10
-5.535
20
-14.262
11
-5.584
21
-14.272
0
LINE
8
медь верх
10
-5.584
20
-14.272
11
-5.605
21
-14.286
0
LINE
8
медь верх
10
-5.605
20
-14.286
11
-5.625
21
-14.299
0
LINE
8
медь верх
10
-5.625
20
-14.299
11
-6.138
21
-14.812
0
LINE
8
медь верх
10
-6.138
20
-14.812
11
-6.151
21
-14.831
0
LINE
8
медь верх
10
-6.151
20
-14.831
11
-6.166
21
-14.854
0
LINE
8
медь верх
10
-6.166
20
-14.854
11
-6.166
21
-14.854
0
LINE
8
медь верх
10
-6.166
20
-14.854
11
-6.166
21
-14.854
0
LINE
8
медь верх
10
-6.166
20
-14.854
11
-6.170
21
-14.875
0
LINE
8
медь верх
10
-6.170
20
-14.875
11
-6.175
21
-14.902
0
LINE
8
медь верх
10
-6.175
20
-14.902
11
-6.176
21
-15.590
0
LINE
8
медь верх
10
-6.176
20
-15.590
11
-6.176
21
-15.590
0
LINE
8
медь верх
10
-6.176
20
-15.590
11
-6.176
21
-15.590
0
LINE
8
медь верх
10
-6.176
20
-15.590
11
-6.171
21
-15.610
0
LINE
8
медь верх
10
-6.171
20
-15.610
11
-6.166
21
-15.638
0
LINE
8
медь верх
10
-6.166
20
-15.638
11
-6.166
21
-15.638
0
LINE
8
медь верх
10
-6.166
20
-15.638
11
-6.166
21
-15.638
0
LINE
8
медь верх
10
-6.166
20
-15.638
11
-6.155
21
-15.655
0
LINE
8
медь верх
10
-6.155
20
-15.655
11
-6.138
21
-15.680
0
LINE
8
медь верх
10
-6.138
20
-15.680
11
-6.138
21
-15.680
0
LINE
8
медь верх
10
-6.138
20
-15.680
11
-6.138
21
-15.680
0
LINE
8
медь верх
10
-6.138
20
-15.680
11
-5.900
21
-15.918
0
LINE
8
медь верх
10
-5.900
20
-15.918
11
-5.858
21
-15.946
0
LINE
8
медь верх
10
-5.858
20
-15.946
11
-5.809
21
-15.956
0
LINE
8
медь верх
10
-5.809
20
-15.956
11
-4.318
21
-15.956
0
LINE
8
медь верх
10
-4.318
20
-15.956
11
-4.269
21
-15.946
0
LINE
8
медь верх
10
-4.269
20
-15.946
11
-4.228
21
-15.918
0
LINE
8
медь верх
10
-4.228
20
-15.918
11
-4.209
21
-15.891
0
LINE
8
медь верх
10
-4.209
20
-15.891
11
-4.200
21
-15.877
0
LINE
8
медь верх
10
-4.200
20
-15.877
11
-4.190
21
-15.828
0
LINE
8
медь верх
10
-4.190
20
-15.828
11
-4.200
21
-15.779
0
LINE
8
медь верх
10
-4.200
20
-15.779
11
-4.228
21
-15.738
0
LINE
8
медь верх
10
-4.228
20
-15.738
11
-4.228
21
-15.738
0
LINE
8
медь верх
10
-4.228
20
-15.738
11
-4.276
21
-15.689
0
LINE
8
медь верх
10
-4.276
20
-15.689
11
-4.276
21
-14.691
0
LINE
8
медь верх
10
-4.276
20
-14.691
11
-4.149
21
-14.564
0
LINE
8
медь верх
10
-4.149
20
-14.564
11
-1.651
21
-14.564
0
LINE
8
медь верх
10
-1.651
20
-14.564
11
-1.524
21
-14.691
0
LINE
8
медь верх
10
-1.524
20
-14.691
11
-1.524
21
-15.689
0
LINE
8
медь верх
10
-1.524
20
-15.689
11
-1.655
21
-15.821
0
LINE
8
медь верх
10
-1.655
20
-15.821
11
-1.683
21
-15.862
0
LINE
8
медь верх
10
-1.683
20
-15.862
11
-1.692
21
-15.911
0
LINE
8
медь верх
10
-1.692
20
-15.911
11
-1.683
21
-15.960
0
LINE
8
медь верх
10
-1.683
20
-15.960
11
-1.655
21
-16.001
0
LINE
8
медь верх
10
-1.655
20
-16.001
11
-1.522
21
-16.135
0
LINE
8
медь верх
10
-1.522
20
-16.135
11
-1.522
21
-16.745
0
LINE
8
медь верх
10
-1.522
20
-16.745
11
-1.776
21
-17.000
0
LINE
8
медь верх
10
-1.776
20
-17.000
11
-1.804
21
-17.041
0
LINE
8
медь верх
10
-1.804
20
-17.041
11
-1.813
21
-17.090
0
LINE
8
медь верх
10
-1.813
20
-17.090
11
-1.804
21
-17.139
0
LINE
8
медь верх
10
-1.804
20
-17.139
11
-1.776
21
-17.180
0
LINE
8
медь верх
10
-1.776
20
-17.180
11
-1.522
21
-17.435
0
LINE
8
медь верх
10
-1.522
20
-17.435
11
-1.522
21
-18.045
0
LINE
8
медь верх
10
-1.522
20
-18.045
11
-1.761
21
-18.284
0
LINE
8
медь верх
10
-1.761
20
-18.284
11
-1.788
21
-18.326
0
LINE
8
медь верх
10
-1.788
20
-18.326
11
-1.798
21
-18.375
0
LINE
8
медь верх
10
-1.798
20
-18.375
11
-1.788
21
-18.423
0
LINE
8
медь верх
10
-1.788
20
-18.423
11
-1.761
21
-18.465
0
LINE
8
медь верх
10
-1.761
20
-18.465
11
-1.528
21
-18.698
0
LINE
8
медь верх
10
-1.528
20
-18.698
11
-1.528
21
-18.762
0
LINE
8
медь верх
10
-1.528
20
-18.762
11
-1.831
21
-18.762
0
LINE
8
медь верх
10
-1.831
20
-18.762
11
-1.981
21
-18.613
0
LINE
8
медь верх
10
-1.981
20
-18.613
11
-3.819
21
-18.613
0
LINE
8
медь верх
10
-3.819
20
-18.613
11
-3.969
21
-18.762
0
LINE
8
медь верх
10
-3.969
20
-18.762
11
-4.272
21
-18.762
0
LINE
8
медь верх
10
-4.272
20
-18.762
11
-4.272
21
-18.698
0
LINE
8
медь верх
10
-4.272
20
-18.698
11
-4.039
21
-18.465
0
LINE
8
медь верх
10
-4.039
20
-18.465
11
-4.039
21
-18.465
0
LINE
8
медь верх
10
-4.039
20
-18.465
11
-4.012
21
-18.423
0
LINE
8
медь верх
10
-4.012
20
-18.423
11
-4.002
21
-18.375
0
LINE
8
медь верх
10
-4.002
20
-18.375
11
-4.002
21
-18.375
0
LINE
8
медь верх
10
-4.002
20
-18.375
11
-4.004
21
-18.365
0
LINE
8
медь верх
10
-4.004
20
-18.365
11
-4.012
21
-18.326
0
LINE
8
медь верх
10
-4.012
20
-18.326
11
-4.021
21
-18.312
0
LINE
8
медь верх
10
-4.021
20
-18.312
11
-4.039
21
-18.284
0
LINE
8
медь верх
10
-4.039
20
-18.284
11
-4.278
21
-18.045
0
LINE
8
медь верх
10
-4.278
20
-18.045
11
-4.278
21
-17.435
0
LINE
8
медь верх
10
-4.278
20
-17.435
11
-4.024
21
-17.180
0
LINE
8
медь верх
10
-4.024
20
-17.180
11
-3.996
21
-17.139
0
LINE
8
медь верх
10
-3.996
20
-17.139
11
-3.987
21
-17.090
0
LINE
8
медь верх
10
-3.987
20
-17.090
11
-3.987
21
-17.090
0
LINE
8
медь верх
10
-3.987
20
-17.090
11
-3.996
21
-17.041
0
LINE
8
медь верх
10
-3.996
20
-17.041
11
-4.024
21
-17.000
0
LINE
8
медь верх
10
-4.024
20
-17.000
11
-4.062
21
-16.962
0
LINE
8
медь верх
10
-4.062
20
-16.962
11
-4.103
21
-16.934
0
LINE
8
медь верх
10
-4.103
20
-16.934
11
-4.152
21
-16.924
0
LINE
8
медь верх
10
-4.152
20
-16.924
11
-5.809
21
-16.924
0
LINE
8
медь верх
10
-5.809
20
-16.924
11
-5.858
21
-16.934
0
LINE
8
медь верх
10
-5.858
20
-16.934
11
-5.900
21
-16.962
0
LINE
8
медь верх
10
-5.900
20
-16.962
11
-6.069
21
-17.131
0
LINE
8
медь верх
10
-6.069
20
-17.131
11
-6.097
21
-17.173
0
LINE
8
медь верх
10
-6.097
20
-17.173
11
-6.106
21
-17.221
0
LINE
8
медь верх
10
-6.106
20
-17.221
11
-6.097
21
-17.270
0
LINE
8
медь верх
10
-6.097
20
-17.270
11
-6.088
21
-17.284
0
LINE
8
медь верх
10
-6.088
20
-17.284
11
-6.069
21
-17.312
0
LINE
8
медь верх
10
-6.069
20
-17.312
11
-6.069
21
-17.312
0
LINE
8
медь верх
10
-6.069
20
-17.312
11
-5.888
21
-17.493
0
LINE
8
медь верх
10
-5.888
20
-17.493
11
-5.888
21
-17.762
0
LINE
8
медь верх
10
-5.888
20
-17.762
11
-6.134
21
-17.762
0
LINE
8
медь верх
10
-6.134
20
-17.762
11
-6.134
21
-17.622
0
LINE
8
медь верх
10
-6.134
20
-17.622
11
-6.242
21
-17.514
0
LINE
8
медь верх
10
-6.242
20
-17.514
11
-7.078
21
-17.514
0
LINE
8
медь верх
10
-7.078
20
-17.514
11
-7.187
21
-17.622
0
LINE
8
медь верх
10
-7.187
20
-17.622
11
-7.187
21
-17.762
0
LINE
8
медь верх
10
-7.187
20
-17.762
11
-7.433
21
-17.762
0
LINE
8
медь верх
10
-7.433
20
-17.762
11
-7.433
21
-17.493
0
LINE
8
медь верх
10
-7.433
20
-17.493
11
-7.251
21
-17.311
0
LINE
8
медь верх
10
-7.251
20
-17.311
11
-7.223
21
-17.270
0
LINE
8
медь верх
10
-7.223
20
-17.270
11
-7.214
21
-17.221
0
LINE
8
медь верх
10
-7.214
20
-17.221
11
-7.214
21
-17.221
0
LINE
8
медь верх
10
-7.214
20
-17.221
11
-7.223
21
-17.172
0
LINE
8
медь верх
10
-7.223
20
-17.172
11
-7.251
21
-17.131
0
LINE
8
медь верх
10
-7.251
20
-17.131
11
-7.420
21
-16.962
0
LINE
8
медь верх
10
-7.420
20
-16.962
11
-7.462
21
-16.934
0
LINE
8
медь верх
10
-7.462
20
-16.934
11
-7.510
21
-16.924
0
LINE
8
медь верх
10
-7.510
20
-16.924
11
-9.231
21
-16.924
0
LINE
8
медь верх
10
-9.231
20
-16.924
11
-9.280
21
-16.934
0
LINE
8
медь верх
10
-9.280
20
-16.934
11
-9.321
21
-16.962
0
LINE
8
медь верх
10
-9.321
20
-16.962
11
-9.878
21
-17.519
0
LINE
8
медь верх
10
-9.878
20
-17.519
11
-9.906
21
-17.560
0
LINE
8
медь верх
10
-9.906
20
-17.560
11
-9.916
21
-17.609
0
LINE
8
медь верх
10
-9.916
20
-17.609
11
-9.916
21
-17.990
0
LINE
8
медь верх
10
-9.916
20
-17.990
11
-9.906
21
-18.039
0
LINE
8
медь верх
10
-9.906
20
-18.039
11
-9.878
21
-18.080
0
LINE
8
медь верх
10
-9.878
20
-18.080
11
-9.837
21
-18.108
0
LINE
8
медь верх
10
-9.837
20
-18.108
11
-9.809
21
-18.114
0
LINE
8
медь верх
10
-9.809
20
-18.114
11
-9.118
21
-18.804
0
LINE
8
медь верх
10
-9.118
20
-18.804
11
-9.118
21
-19.996
0
LINE
8
медь верх
10
-9.118
20
-19.996
11
-9.704
21
-20.582
0
LINE
8
медь верх
10
-9.704
20
-20.582
11
-9.732
21
-20.623
0
LINE
8
медь верх
10
-9.732
20
-20.623
11
-9.741
21
-20.672
0
LINE
8
медь верх
10
-9.741
20
-20.672
11
-9.732
21
-20.721
0
LINE
8
медь верх
10
-9.732
20
-20.721
11
-9.704
21
-20.762
0
LINE
8
медь верх
10
-9.704
20
-20.762
11
-9.128
21
-21.339
0
LINE
8
медь верх
10
-9.128
20
-21.339
11
-9.128
21
-21.670
0
LINE
8
медь верх
10
-9.128
20
-21.670
11
-9.369
21
-21.670
0
LINE
8
медь верх
10
-9.369
20
-21.670
11
-9.369
21
-21.441
0
LINE
8
медь верх
10
-9.369
20
-21.441
11
-9.941
21
-20.869
0
LINE
8
медь верх
10
-9.941
20
-20.869
11
-10.859
21
-20.869
0
LINE
8
медь верх
10
-10.859
20
-20.869
11
-11.431
21
-21.441
0
LINE
8
медь верх
10
-11.431
20
-21.441
11
-11.431
21
-21.672
0
LINE
8
медь верх
10
-11.431
20
-21.672
11
-11.672
21
-21.672
0
LINE
8
медь верх
10
-11.672
20
-21.672
11
-11.672
21
-21.339
0
LINE
8
медь верх
10
-11.672
20
-21.339
11
-11.096
21
-20.762
0
LINE
8
медь верх
10
-11.096
20
-20.762
11
-11.068
21
-20.721
0
LINE
8
медь верх
10
-11.068
20
-20.721
11
-11.059
21
-20.672
0
LINE
8
медь верх
10
-11.059
20
-20.672
11
-11.068
21
-20.623
0
LINE
8
медь верх
10
-11.068
20
-20.623
11
-11.096
21
-20.582
0
LINE
8
медь верх
10
-11.096
20
-20.582
11
-11.682
21
-19.996
0
LINE
8
медь верх
10
-11.682
20
-19.996
11
-11.682
21
-18.804
0
LINE
8
медь верх
10
-11.682
20
-18.804
11
-10.991
21
-18.114
0
LINE
8
медь верх
10
-10.991
20
-18.114
11
-10.963
21
-18.108
0
LINE
8
медь верх
10
-10.963
20
-18.108
11
-10.922
21
-18.080
0
LINE
8
медь верх
10
-10.922
20
-18.080
11
-10.894
21
-18.039
0
LINE
8
медь верх
10
-10.894
20
-18.039
11
-10.884
21
-17.990
0
LINE
8
медь верх
10
-10.884
20
-17.990
11
-10.884
21
-17.368
0
LINE
8
медь верх
10
-10.884
20
-17.368
11
-10.864
21
-17.264
0
LINE
8
медь верх
10
-10.864
20
-17.264
11
-10.864
21
-17.264
0
LINE
8
медь верх
10
-10.864
20
-17.264
11
-10.845
21
-17.171
0
LINE
8
медь верх
10
-10.845
20
-17.171
11
-10.815
21
-17.126
0
LINE
8
медь верх
10
-10.815
20
-17.126
11
-10.815
21
-17.126
0
LINE
8
медь верх
10
-10.815
20
-17.126
11
-10.734
21
-17.004
0
LINE
8
медь верх
10
-10.734
20
-17.004
11
-9.836
21
-16.106
0
LINE
8
медь верх
10
-9.836
20
-16.106
11
-9.780
21
-16.069
0
LINE
8
медь верх
10
-9.780
20
-16.069
11
-9.780
21
-16.069
0
LINE
8
медь верх
10
-9.780
20
-16.069
11
-9.669
21
-15.995
0
LINE
8
медь верх
10
-9.669
20
-15.995
11
-9.472
21
-15.956
0
LINE
8
медь верх
10
-9.472
20
-15.956
11
-7.510
21
-15.956
0
LINE
8
медь верх
10
-7.510
20
-15.956
11
-7.462
21
-15.946
0
LINE
8
медь верх
10
-7.462
20
-15.946
11
-7.420
21
-15.918
0
LINE
8
медь верх
10
-7.420
20
-15.918
11
-7.182
21
-15.680
0
LINE
8
медь верх
10
-7.182
20
-15.680
11
-7.182
21
-15.680
0
LINE
8
медь верх
10
-7.182
20
-15.680
11
-7.182
21
-15.680
0
LINE
8
медь верх
10
-7.182
20
-15.680
11
-7.167
21
-15.657
0
LINE
8
медь верх
10
-7.167
20
-15.657
11
-7.154
21
-15.638
0
LINE
8
медь верх
10
-7.154
20
-15.638
11
-7.154
21
-15.638
0
LINE
8
медь верх
10
-7.154
20
-15.638
11
-7.154
21
-15.638
0
LINE
8
медь верх
10
-7.154
20
-15.638
11
-7.149
21
-15.614
0
LINE
8
медь верх
10
-7.149
20
-15.614
11
-7.144
21
-15.589
0
LINE
8
медь верх
10
-7.144
20
-15.589
11
-7.144
21
-14.661
0
LINE
8
медь верх
10
-7.144
20
-14.661
11
-7.124
21
-14.559
0
LINE
8
медь верх
10
-7.124
20
-14.559
11
-7.124
21
-14.559
0
LINE
8
медь верх
10
-7.124
20
-14.559
11
-7.124
21
-14.559
0
LINE
8
медь верх
10
-7.124
20
-14.559
11
-7.105
21
-14.464
0
LINE
8
медь верх
10
-7.105
20
-14.464
11
-7.054
21
-14.387
0
LINE
8
медь верх
10
-7.054
20
-14.387
11
-7.054
21
-14.387
0
LINE
8
медь верх
10
-7.054
20
-14.387
11
-7.054
21
-14.387
0
LINE
8
медь верх
10
-7.054
20
-14.387
11
-6.994
21
-14.297
0
LINE
8
медь верх
10
-6.994
20
-14.297
11
-6.140
21
-13.444
0
LINE
8
медь верх
10
-6.140
20
-13.444
11
-6.044
21
-13.380
0
LINE
8
медь верх
10
-6.044
20
-13.380
11
-6.044
21
-13.380
0
LINE
8
медь верх
10
-6.044
20
-13.380
11
-5.973
21
-13.332
0
LINE
8
медь верх
10
-5.973
20
-13.332
11
-5.869
21
-13.312
0
LINE
8
медь верх
10
-5.869
20
-13.312
11
-5.869
21
-13.312
0
LINE
8
медь верх
10
-5.869
20
-13.312
11
-5.776
21
-13.293
0
LINE
8
медь верх
10
-5.776
20
-13.293
11
0.034
21
-13.293
0
LINE
8
медь верх
10
0.034
20
-13.293
11
0.034
21
-13.293
0
LINE
8
медь верх
10
0.034
20
-13.293
11
5.894
21
-13.293
0
LINE
8
медь верх
10
6.758
20
-17.314
11
5.922
21
-17.314
0
LINE
8
медь верх
10
5.922
20
-17.314
11
5.814
21
-17.422
0
LINE
8
медь верх
10
5.814
20
-17.422
11
5.814
21
-17.510
0
LINE
8
медь верх
10
5.814
20
-17.510
11
3.967
21
-17.510
0
LINE
8
медь верх
10
3.967
20
-17.510
11
3.819
21
-17.363
0
LINE
8
медь верх
10
3.819
20
-17.363
11
1.981
21
-17.363
0
LINE
8
медь верх
10
1.981
20
-17.363
11
1.773
21
-17.571
0
LINE
8
медь верх
10
1.773
20
-17.571
11
1.773
21
-17.909
0
LINE
8
медь верх
10
1.773
20
-17.909
11
1.981
21
-18.117
0
LINE
8
медь верх
10
1.981
20
-18.117
11
3.819
21
-18.117
0
LINE
8
медь верх
10
3.819
20
-18.117
11
3.967
21
-17.970
0
LINE
8
медь верх
10
3.967
20
-17.970
11
5.814
21
-17.970
0
LINE
8
медь верх
10
5.814
20
-17.970
11
5.814
21
-18.058
0
LINE
8
медь верх
10
5.814
20
-18.058
11
5.922
21
-18.166
0
LINE
8
медь верх
10
5.922
20
-18.166
11
6.758
21
-18.166
0
LINE
8
медь верх
10
6.758
20
-18.166
11
6.866
21
-18.058
0
LINE
8
медь верх
10
6.866
20
-18.058
11
6.866
21
-17.970
0
LINE
8
медь верх
10
6.866
20
-17.970
11
7.273
21
-17.970
0
LINE
8
медь верх
10
7.273
20
-17.970
11
7.801
21
-18.497
0
LINE
8
медь верх
10
7.801
20
-18.497
11
7.801
21
-19.430
0
LINE
8
медь верх
10
7.801
20
-19.430
11
7.801
21
-19.430
0
LINE
8
медь верх
10
7.801
20
-19.430
11
7.818
21
-19.518
0
LINE
8
медь верх
10
7.818
20
-19.518
11
7.852
21
-19.568
0
LINE
8
медь верх
10
7.852
20
-19.568
11
7.868
21
-19.593
0
LINE
8
медь верх
10
7.868
20
-19.593
11
7.868
21
-19.593
0
LINE
8
медь верх
10
7.868
20
-19.593
11
9.593
21
-21.317
0
LINE
8
медь верх
10
9.593
20
-21.317
11
9.469
21
-21.441
0
LINE
8
медь верх
10
9.469
20
-21.441
11
9.469
21
-22.359
0
LINE
8
медь верх
10
9.469
20
-22.359
11
10.041
21
-22.931
0
LINE
8
медь верх
10
10.041
20
-22.931
11
10.959
21
-22.931
0
LINE
8
медь верх
10
10.959
20
-22.931
11
11.531
21
-22.359
0
LINE
8
медь верх
10
11.531
20
-22.359
11
11.531
21
-21.441
0
LINE
8
медь верх
10
11.531
20
-21.441
11
10.959
21
-20.869
0
LINE
8
медь верх
10
10.959
20
-20.869
11
10.041
21
-20.869
0
LINE
8
медь верх
10
10.041
20
-20.869
11
9.917
21
-20.993
0
LINE
8
медь верх
10
9.917
20
-20.993
11
8.260
21
-19.335
0
LINE
8
медь верх
10
8.260
20
-19.335
11
8.260
21
-18.402
0
LINE
8
медь верх
10
8.260
20
-18.402
11
8.260
21
-18.402
0
LINE
8
медь верх
10
8.260
20
-18.402
11
8.260
21
-18.402
0
LINE
8
медь верх
10
8.260
20
-18.402
11
8.242
21
-18.314
0
LINE
8
медь верх
10
8.242
20
-18.314
11
8.223
21
-18.285
0
LINE
8
медь верх
10
8.223
20
-18.285
11
8.193
21
-18.240
0
LINE
8
медь верх
10
8.193
20
-18.240
11
8.193
21
-18.240
0
LINE
8
медь верх
10
8.193
20
-18.240
11
7.530
21
-17.578
0
LINE
8
медь верх
10
7.530
20
-17.578
11
7.493
21
-17.553
0
LINE
8
медь верх
10
7.493
20
-17.553
11
7.456
21
-17.528
0
LINE
8
медь верх
10
7.456
20
-17.528
11
7.456
21
-17.528
0
LINE
8
медь верх
10
7.456
20
-17.528
11
7.456
21
-17.528
0
LINE
8
медь верх
10
7.456
20
-17.528
11
7.412
21
-17.519
0
LINE
8
медь верх
10
7.412
20
-17.519
11
7.368
21
-17.510
0
LINE
8
медь верх
10
7.368
20
-17.510
11
6.866
21
-17.510
0
LINE
8
медь верх
10
6.866
20
-17.510
11
6.866
21
-17.422
0
LINE
8
медь верх
10
6.866
20
-17.422
11
6.758
21
-17.314
0
LINE
8
медь верх
10
6.866
20
-16.122
11
6.866
21
-16.210
0
LINE
8
медь верх
10
6.866
20
-16.210
11
7.540
21
-16.210
0
LINE
8
медь верх
10
7.540
20
-16.210
11
7.628
21
-16.228
0
LINE
8
медь верх
10
7.628
20
-16.228
11
7.702
21
-16.278
0
LINE
8
медь верх
10
7.702
20
-16.278
11
9.917
21
-18.493
0
LINE
8
медь верх
10
9.917
20
-18.493
11
10.041
21
-18.369
0
LINE
8
медь верх
10
10.041
20
-18.369
11
10.959
21
-18.369
0
LINE
8
медь верх
10
10.959
20
-18.369
11
11.531
21
-18.941
0
LINE
8
медь верх
10
11.531
20
-18.941
11
11.531
21
-19.859
0
LINE
8
медь верх
10
11.531
20
-19.859
11
10.959
21
-20.431
0
LINE
8
медь верх
10
10.959
20
-20.431
11
10.041
21
-20.431
0
LINE
8
медь верх
10
10.041
20
-20.431
11
9.469
21
-19.859
0
LINE
8
медь верх
10
9.469
20
-19.859
11
9.469
21
-18.941
0
LINE
8
медь верх
10
9.469
20
-18.941
11
9.593
21
-18.817
0
LINE
8
медь верх
10
9.593
20
-18.817
11
7.445
21
-16.670
0
LINE
8
медь верх
10
7.445
20
-16.670
11
6.866
21
-16.670
0
LINE
8
медь верх
10
6.866
20
-16.670
11
6.866
21
-16.758
0
LINE
8
медь верх
10
6.866
20
-16.758
11
6.758
21
-16.866
0
LINE
8
медь верх
10
6.758
20
-16.866
11
5.921
21
-16.866
0
LINE
8
медь верх
10
5.921
20
-16.866
11
5.813
21
-16.758
0
LINE
8
медь верх
10
5.813
20
-16.758
11
5.813
21
-16.670
0
LINE
8
медь верх
10
5.813
20
-16.670
11
3.967
21
-16.670
0
LINE
8
медь верх
10
3.967
20
-16.670
11
3.819
21
-16.817
0
LINE
8
медь верх
10
3.819
20
-16.817
11
1.981
21
-16.817
0
LINE
8
медь верх
10
1.981
20
-16.817
11
1.773
21
-16.609
0
LINE
8
медь верх
10
1.773
20
-16.609
11
1.773
21
-16.271
0
LINE
8
медь верх
10
1.773
20
-16.271
11
1.981
21
-16.063
0
LINE
8
медь верх
10
1.981
20
-16.063
11
3.819
21
-16.063
0
LINE
8
медь верх
10
3.819
20
-16.063
11
3.967
21
-16.210
0
LINE
8
медь верх
10
3.967
20
-16.210
11
5.813
21
-16.210
0
LINE
8
медь верх
10
5.813
20
-16.210
11
5.813
21
-16.122
0
LINE
8
медь верх
10
5.813
20
-16.122
11
5.921
21
-16.014
0
LINE
8
медь верх
10
5.921
20
-16.014
11
6.758
21
-16.014
0
LINE
8
медь верх
10
6.758
20
-16.014
11
6.866
21
-16.122
0
LINE
8
медь верх
10
0.034
20
-13.548
11
5.907
21
-13.548
0
LINE
8
медь верх
10
5.907
20
-13.548
11
5.924
21
-13.551
0
LINE
8
медь верх
10
5.924
20
-13.551
11
5.995
21
-13.565
0
LINE
8
медь верх
10
5.995
20
-13.565
11
6.032
21
-13.590
0
LINE
8
медь верх
10
6.032
20
-13.590
11
6.069
21
-13.615
0
LINE
8
медь верх
10
6.069
20
-13.615
11
6.069
21
-13.615
0
LINE
8
медь верх
10
6.069
20
-13.615
11
6.501
21
-14.047
0
LINE
8
медь верх
10
6.501
20
-14.047
11
6.526
21
-14.084
0
LINE
8
медь верх
10
6.526
20
-14.084
11
6.551
21
-14.121
0
LINE
8
медь верх
10
6.551
20
-14.121
11
6.551
21
-14.121
0
LINE
8
медь верх
10
6.551
20
-14.121
11
6.551
21
-14.122
0
LINE
8
медь верх
10
6.551
20
-14.122
11
6.559
21
-14.165
0
LINE
8
медь верх
10
6.559
20
-14.165
11
6.568
21
-14.209
0
LINE
8
медь верх
10
6.568
20
-14.209
11
6.568
21
-14.364
0
LINE
8
медь верх
10
6.568
20
-14.364
11
6.758
21
-14.364
0
LINE
8
медь верх
10
6.758
20
-14.364
11
6.866
21
-14.472
0
LINE
8
медь верх
10
6.866
20
-14.472
11
6.866
21
-15.108
0
LINE
8
медь верх
10
6.866
20
-15.108
11
6.758
21
-15.216
0
LINE
8
медь верх
10
6.758
20
-15.216
11
5.922
21
-15.216
0
LINE
8
медь верх
10
5.922
20
-15.216
11
5.813
21
-15.108
0
LINE
8
медь верх
10
5.813
20
-15.108
11
5.813
21
-14.472
0
LINE
8
медь верх
10
5.813
20
-14.472
11
5.922
21
-14.364
0
LINE
8
медь верх
10
5.922
20
-14.364
11
6.109
21
-14.364
0
LINE
8
медь верх
10
6.109
20
-14.364
11
6.109
21
-14.305
0
LINE
8
медь верх
10
6.109
20
-14.305
11
5.812
21
-14.007
0
LINE
8
медь верх
10
5.812
20
-14.007
11
0.264
21
-14.007
0
LINE
8
медь верх
10
0.264
20
-14.007
11
0.263
21
-19.648
0
LINE
8
медь верх
10
0.263
20
-19.648
11
0.830
21
-20.216
0
LINE
8
медь верх
10
0.830
20
-20.216
11
5.819
21
-20.216
0
LINE
8
медь верх
10
5.819
20
-20.216
11
6.109
21
-19.925
0
LINE
8
медь верх
10
6.109
20
-19.925
11
6.109
21
-19.816
0
LINE
8
медь верх
10
6.109
20
-19.816
11
5.922
21
-19.816
0
LINE
8
медь верх
10
5.922
20
-19.816
11
5.813
21
-19.708
0
LINE
8
медь верх
10
5.813
20
-19.708
11
5.813
21
-19.072
0
LINE
8
медь верх
10
5.813
20
-19.072
11
5.922
21
-18.964
0
LINE
8
медь верх
10
5.922
20
-18.964
11
6.758
21
-18.964
0
LINE
8
медь верх
10
6.758
20
-18.964
11
6.866
21
-19.072
0
LINE
8
медь верх
10
6.866
20
-19.072
11
6.866
21
-19.708
0
LINE
8
медь верх
10
6.866
20
-19.708
11
6.758
21
-19.816
0
LINE
8
медь верх
10
6.758
20
-19.816
11
6.569
21
-19.816
0
LINE
8
медь верх
10
6.569
20
-19.816
11
6.568
21
-20.020
0
LINE
8
медь верх
10
6.568
20
-20.020
11
6.559
21
-20.064
0
LINE
8
медь верх
10
6.559
20
-20.064
11
6.551
21
-20.107
0
LINE
8
медь верх
10
6.551
20
-20.107
11
6.551
21
-20.108
0
LINE
8
медь верх
10
6.551
20
-20.108
11
6.551
21
-20.108
0
LINE
8
медь верх
10
6.551
20
-20.108
11
6.526
21
-20.145
0
LINE
8
медь верх
10
6.526
20
-20.145
11
6.501
21
-20.182
0
LINE
8
медь верх
10
6.501
20
-20.182
11
6.077
21
-20.607
0
LINE
8
медь верх
10
6.077
20
-20.607
11
6.077
21
-20.607
0
LINE
8
медь верх
10
6.077
20
-20.607
11
6.077
21
-20.607
0
LINE
8
медь верх
10
6.077
20
-20.607
11
6.040
21
-20.632
0
LINE
8
медь верх
10
6.040
20
-20.632
11
6.003
21
-20.657
0
LINE
8
медь верх
10
6.003
20
-20.657
11
6.002
21
-20.657
0
LINE
8
медь верх
10
6.002
20
-20.657
11
6.002
21
-20.657
0
LINE
8
медь верх
10
6.002
20
-20.657
11
5.958
21
-20.666
0
LINE
8
медь верх
10
5.958
20
-20.666
11
5.915
21
-20.675
0
LINE
8
медь верх
10
5.915
20
-20.675
11
5.915
21
-20.675
0
LINE
8
медь верх
10
5.915
20
-20.675
11
5.914
21
-20.675
0
LINE
8
медь верх
10
5.914
20
-20.675
11
0.735
21
-20.675
0
LINE
8
медь верх
10
0.735
20
-20.675
11
0.647
21
-20.657
0
LINE
8
медь верх
10
0.647
20
-20.657
11
0.573
21
-20.607
0
LINE
8
медь верх
10
0.573
20
-20.607
11
0.573
21
-20.607
0
LINE
8
медь верх
10
0.573
20
-20.607
11
-0.129
21
-19.905
0
LINE
8
медь верх
10
-0.129
20
-19.905
11
-0.129
21
-19.905
0
LINE
8
медь верх
10
-0.129
20
-19.905
11
-0.129
21
-19.905
0
LINE
8
медь верх
10
-0.129
20
-19.905
11
-0.154
21
-19.868
0
LINE
8
медь верх
10
-0.154
20
-19.868
11
-0.179
21
-19.831
0
LINE
8
медь верх
10
-0.179
20
-19.831
11
-0.179
21
-19.831
0
LINE
8
медь верх
10
-0.179
20
-19.831
11
-0.179
21
-19.831
0
LINE
8
медь верх
10
-0.179
20
-19.831
11
-0.188
21
-19.787
0
LINE
8
медь верх
10
-0.188
20
-19.787
11
-0.197
21
-19.743
0
LINE
8
медь верх
10
-0.197
20
-19.743
11
-0.197
21
-19.743
0
LINE
8
медь верх
10
-0.197
20
-19.743
11
-0.197
21
-19.743
0
LINE
8
медь верх
10
-0.197
20
-19.743
11
-0.196
21
-14.007
0
LINE
8
медь верх
10
-0.196
20
-14.007
11
-5.694
21
-14.007
0
LINE
8
медь верх
10
-5.694
20
-14.007
11
-6.430
21
-14.744
0
LINE
8
медь верх
10
-6.430
20
-14.744
11
-6.430
21
-15.964
0
LINE
8
медь верх
10
-6.430
20
-15.964
11
-6.242
21
-15.964
0
LINE
8
медь верх
10
-6.242
20
-15.964
11
-6.134
21
-16.072
0
LINE
8
медь верх
10
-6.134
20
-16.072
11
-6.134
21
-16.210
0
LINE
8
медь верх
10
-6.134
20
-16.210
11
-3.967
21
-16.210
0
LINE
8
медь верх
10
-3.967
20
-16.210
11
-3.819
21
-16.063
0
LINE
8
медь верх
10
-3.819
20
-16.063
11
-1.981
21
-16.063
0
LINE
8
медь верх
10
-1.981
20
-16.063
11
-1.773
21
-16.271
0
LINE
8
медь верх
10
-1.773
20
-16.271
11
-1.773
21
-16.609
0
LINE
8
медь верх
10
-1.773
20
-16.609
11
-1.981
21
-16.817
0
LINE
8
медь верх
10
-1.981
20
-16.817
11
-3.819
21
-16.817
0
LINE
8
медь верх
10
-3.819
20
-16.817
11
-3.967
21
-16.670
0
LINE
8
медь верх
10
-3.967
20
-16.670
11
-6.134
21
-16.670
0
LINE
8
медь верх
10
-6.134
20
-16.670
11
-6.134
21
-16.808
0
LINE
8
медь верх
10
-6.134
20
-16.808
11
-6.242
21
-16.916
0
LINE
8
медь верх
10
-6.242
20
-16.916
11
-7.078
21
-16.916
0
LINE
8
медь верх
10
-7.078
20
-16.916
11
-7.186
21
-16.808
0
LINE
8
медь верх
10
-7.186
20
-16.808
11
-7.186
21
-16.670
0
LINE
8
медь верх
10
-7.186
20
-16.670
11
-9.389
21
-16.670
0
LINE
8
медь верх
10
-9.389
20
-16.670
11
-10.170
21
-17.451
0
LINE
8
медь верх
10
-10.170
20
-17.451
11
-10.170
21
-18.369
0
LINE
8
медь верх
10
-10.170
20
-18.369
11
-9.941
21
-18.369
0
LINE
8
медь верх
10
-9.941
20
-18.369
11
-9.369
21
-18.941
0
LINE
8
медь верх
10
-9.369
20
-18.941
11
-9.369
21
-19.859
0
LINE
8
медь верх
10
-9.369
20
-19.859
11
-9.941
21
-20.431
0
LINE
8
медь верх
10
-9.941
20
-20.431
11
-10.859
21
-20.431
0
LINE
8
медь верх
10
-10.859
20
-20.431
11
-11.431
21
-19.859
0
LINE
8
медь верх
10
-11.431
20
-19.859
11
-11.431
21
-18.941
0
LINE
8
медь верх
10
-11.431
20
-18.941
11
-10.859
21
-18.369
0
LINE
8
медь верх
10
-10.859
20
-18.369
11
-10.630
21
-18.369
0
LINE
8
медь верх
10
-10.630
20
-18.369
11
-10.630
21
-17.356
0
LINE
8
медь верх
10
-10.630
20
-17.356
11
-10.630
21
-17.356
0
LINE
8
медь верх
10
-10.630
20
-17.356
11
-10.630
21
-17.356
0
LINE
8
медь верх
10
-10.630
20
-17.356
11
-10.612
21
-17.268
0
LINE
8
медь верх
10
-10.612
20
-17.268
11
-10.579
21
-17.218
0
LINE
8
медь верх
10
-10.579
20
-17.218
11
-10.562
21
-17.193
0
LINE
8
медь верх
10
-10.562
20
-17.193
11
-10.562
21
-17.193
0
LINE
8
медь верх
10
-10.562
20
-17.193
11
-10.562
21
-17.193
0
LINE
8
медь верх
10
-10.562
20
-17.193
11
-9.647
21
-16.278
0
LINE
8
медь верх
10
-9.647
20
-16.278
11
-9.622
21
-16.261
0
LINE
8
медь верх
10
-9.622
20
-16.261
11
-9.572
21
-16.228
0
LINE
8
медь верх
10
-9.572
20
-16.228
11
-9.484
21
-16.210
0
LINE
8
медь верх
10
-9.484
20
-16.210
11
-7.186
21
-16.210
0
LINE
8
медь верх
10
-7.186
20
-16.210
11
-7.186
21
-16.072
0
LINE
8
медь верх
10
-7.186
20
-16.072
11
-7.078
21
-15.964
0
LINE
8
медь верх
10
-7.078
20
-15.964
11
-6.890
21
-15.964
0
LINE
8
медь верх
10
-6.890
20
-15.964
11
-6.889
21
-14.649
0
LINE
8
медь верх
10
-6.889
20
-14.649
11
-6.881
21
-14.605
0
LINE
8
медь верх
10
-6.881
20
-14.605
11
-6.872
21
-14.561
0
LINE
8
медь верх
10
-6.872
20
-14.561
11
-6.872
21
-14.561
0
LINE
8
медь верх
10
-6.872
20
-14.561
11
-6.872
21
-14.561
0
LINE
8
медь верх
10
-6.872
20
-14.561
11
-6.850
21
-14.528
0
LINE
8
медь верх
10
-6.850
20
-14.528
11
-6.822
21
-14.486
0
LINE
8
медь верх
10
-6.822
20
-14.486
11
-5.951
21
-13.615
0
LINE
8
медь верх
10
-5.951
20
-13.615
11
-5.905
21
-13.584
0
LINE
8
медь верх
10
-5.905
20
-13.584
11
-5.877
21
-13.566
0
LINE
8
медь верх
10
-5.877
20
-13.566
11
-5.877
21
-13.566
0
LINE
8
медь верх
10
-5.877
20
-13.566
11
-5.877
21
-13.566
0
LINE
8
медь верх
10
-5.877
20
-13.566
11
-5.841
21
-13.558
0
LINE
8
медь верх
10
-5.841
20
-13.558
11
-5.789
21
-13.548
0
LINE
8
медь верх
10
-5.789
20
-13.548
11
0.034
21
-13.548
0
LINE
8
медь верх
10
0.034
20
-13.548
11
0.034
21
-13.548
0
LINE
8
медь верх
10
0.034
20
-13.548
11
0.034
21
-13.548
0
LINE
8
медь верх
10
0.034
20
-13.548
11
0.034
21
-13.548
0
LINE
8
медь верх
10
0.034
20
-13.548
11
0.034
21
-13.548
0
LINE
8
медь верх
10
0.034
20
-13.548
11
0.034
21
-13.548
0
LINE
8
медь верх
10
-1.775
20
-15.565
11
-1.775
21
-14.815
0
LINE
8
медь верх
10
-1.775
20
-14.815
11
-4.025
21
-14.815
0
LINE
8
медь верх
10
-4.025
20
-14.815
11
-4.025
21
-15.565
0
LINE
8
медь верх
10
-4.025
20
-15.565
11
-1.775
21
-15.565
0
LINE
8
медь верх
10
-1.981
20
-18.117
11
-1.773
21
-17.909
0
LINE
8
медь верх
10
-1.773
20
-17.909
11
-1.773
21
-17.571
0
LINE
8
медь верх
10
-1.773
20
-17.571
11
-1.981
21
-17.363
0
LINE
8
медь верх
10
-1.981
20
-17.363
11
-3.819
21
-17.363
0
LINE
8
медь верх
10
-3.819
20
-17.363
11
-4.027
21
-17.571
0
LINE
8
медь верх
10
-4.027
20
-17.571
11
-4.027
21
-17.909
0
LINE
8
медь верх
10
-4.027
20
-17.909
11
-3.819
21
-18.117
0
LINE
8
медь верх
10
-3.819
20
-18.117
11
-1.981
21
-18.117
0
LINE
8
медь верх
10
3.819
20
-19.367
11
4.027
21
-19.159
0
LINE
8
медь верх
10
4.027
20
-19.159
11
4.027
21
-18.821
0
LINE
8
медь верх
10
4.027
20
-18.821
11
3.819
21
-18.613
0
LINE
8
медь верх
10
3.819
20
-18.613
11
1.981
21
-18.613
0
LINE
8
медь верх
10
1.981
20
-18.613
11
1.773
21
-18.821
0
LINE
8
медь верх
10
1.773
20
-18.821
11
1.773
21
-19.159
0
LINE
8
медь верх
10
1.773
20
-19.159
11
1.981
21
-19.367
0
LINE
8
медь верх
10
1.981
20
-19.367
11
3.819
21
-19.367
0
LINE
8
медь верх
10
3.819
20
-15.567
11
4.027
21
-15.359
0
LINE
8
медь верх
10
4.027
20
-15.359
11
4.027
21
-15.021
0
LINE
8
медь верх
10
4.027
20
-15.021
11
3.819
21
-14.813
0
LINE
8
медь верх
10
3.819
20
-14.813
11
1.981
21
-14.813
0
LINE
8
медь верх
10
1.981
20
-14.813
11
1.773
21
-15.021
0
LINE
8
медь верх
10
1.773
20
-15.021
11
1.773
21
-15.359
0
LINE
8
медь верх
10
1.773
20
-15.359
11
1.981
21
-15.567
0
LINE
8
медь верх
10
1.981
20
-15.567
11
3.819
21
-15.567
0
LINE
8
медь верх
10
1.383
20
-20.761
11
1.413
21
-20.781
0
LINE
8
медь верх
10
1.413
20
-20.781
11
1.432
21
-20.810
0
LINE
8
медь верх
10
1.432
20
-20.810
11
1.439
21
-20.845
0
LINE
8
медь верх
10
1.439
20
-20.845
11
1.432
21
-20.879
0
LINE
8
медь верх
10
1.432
20
-20.879
11
1.413
21
-20.908
0
LINE
8
медь верх
10
1.413
20
-20.908
11
0.963
21
-21.358
0
LINE
8
медь верх
10
0.963
20
-21.358
11
0.963
21
-21.358
0
LINE
8
медь верх
10
0.963
20
-21.358
11
0.934
21
-21.378
0
LINE
8
медь верх
10
0.934
20
-21.378
11
0.899
21
-21.384
0
LINE
8
медь верх
10
0.899
20
-21.384
11
-0.649
21
-21.384
0
LINE
8
медь верх
10
-0.649
20
-21.384
11
-0.684
21
-21.378
0
LINE
8
медь верх
10
-0.684
20
-21.378
11
-0.713
21
-21.358
0
LINE
8
медь верх
10
-0.713
20
-21.358
11
-0.732
21
-21.329
0
LINE
8
медь верх
10
-0.732
20
-21.329
11
-0.739
21
-21.294
0
LINE
8
медь верх
10
-0.739
20
-21.294
11
-0.732
21
-21.260
0
LINE
8
медь верх
10
-0.732
20
-21.260
11
-0.713
21
-21.230
0
LINE
8
медь верх
10
-0.713
20
-21.230
11
-0.684
21
-21.211
0
LINE
8
медь верх
10
-0.684
20
-21.211
11
-0.649
21
-21.204
0
LINE
8
медь верх
10
-0.649
20
-21.204
11
0.862
21
-21.204
0
LINE
8
медь верх
10
0.862
20
-21.204
11
1.285
21
-20.781
0
LINE
8
медь верх
10
1.285
20
-20.781
11
1.314
21
-20.761
0
LINE
8
медь верх
10
1.314
20
-20.761
11
1.349
21
-20.754
0
LINE
8
медь верх
10
1.349
20
-20.754
11
1.383
21
-20.761
0
LINE
8
медь верх
10
11.119
20
-23.158
11
9.881
21
-23.158
0
LINE
8
медь верх
10
11.158
20
-23.118
11
9.840
21
-23.118
0
LINE
8
медь верх
10
11.199
20
-23.077
11
9.801
21
-23.078
0
LINE
8
медь верх
10
11.240
20
-23.038
11
9.760
21
-23.038
0
LINE
8
медь верх
10
11.279
20
-22.997
11
9.719
21
-22.997
0
LINE
8
медь верх
10
11.320
20
-22.957
11
9.680
21
-22.957
0
LINE
8
медь верх
10
11.360
20
-22.917
11
10.973
21
-22.917
0
LINE
8
медь верх
10
10.027
20
-22.917
11
9.639
21
-22.917
0
LINE
8
медь верх
10
11.400
20
-22.877
11
11.012
21
-22.877
0
LINE
8
медь верх
10
9.986
20
-22.877
11
9.599
21
-22.877
0
LINE
8
медь верх
10
11.440
20
-22.836
11
11.053
21
-22.836
0
LINE
8
медь верх
10
9.947
20
-22.836
11
9.558
21
-22.836
0
LINE
8
медь верх
10
11.481
20
-22.797
11
11.093
21
-22.797
0
LINE
8
медь верх
10
9.906
20
-22.797
11
9.519
21
-22.797
0
LINE
8
медь верх
10
11.521
20
-22.756
11
11.133
21
-22.756
0
LINE
8
медь верх
10
9.865
20
-22.756
11
9.478
21
-22.756
0
LINE
8
медь верх
10
11.561
20
-22.715
11
11.173
21
-22.715
0
LINE
8
медь верх
10
9.825
20
-22.715
11
9.437
21
-22.715
0
LINE
8
медь верх
10
11.601
20
-22.675
11
11.214
21
-22.675
0
LINE
8
медь верх
10
9.785
20
-22.676
11
9.398
21
-22.676
0
LINE
8
медь верх
10
11.642
20
-22.635
11
11.253
21
-22.635
0
LINE
8
медь верх
10
9.745
20
-22.635
11
9.357
21
-22.635
0
LINE
8
медь верх
10
11.681
20
-22.595
11
11.294
21
-22.595
0
LINE
8
медь верх
10
9.704
20
-22.595
11
9.317
21
-22.595
0
LINE
8
медь верх
10
11.722
20
-22.554
11
11.335
21
-22.554
0
LINE
8
медь верх
10
9.665
20
-22.555
11
9.277
21
-22.555
0
LINE
8
медь верх
10
11.763
20
-22.515
11
11.375
21
-22.515
0
LINE
8
медь верх
10
9.624
20
-22.515
11
9.237
21
-22.515
0
LINE
8
медь верх
10
11.782
20
-22.474
11
11.415
21
-22.474
0
LINE
8
медь верх
10
9.583
20
-22.474
11
9.218
21
-22.474
0
LINE
8
медь верх
10
11.782
20
-22.433
11
11.455
21
-22.433
0
LINE
8
медь верх
10
9.544
20
-22.433
11
9.218
21
-22.433
0
LINE
8
медь верх
10
11.782
20
-22.394
11
11.496
21
-22.394
0
LINE
8
медь верх
10
9.503
20
-22.394
11
9.218
21
-22.394
0
LINE
8
медь верх
10
11.782
20
-22.353
11
11.530
21
-22.353
0
LINE
8
медь верх
10
9.468
20
-22.353
11
9.218
21
-22.353
0
LINE
8
медь верх
10
11.782
20
-22.313
11
11.530
21
-22.313
0
LINE
8
медь верх
10
9.468
20
-22.313
11
9.218
21
-22.313
0
LINE
8
медь верх
10
11.782
20
-22.272
11
11.530
21
-22.272
0
LINE
8
медь верх
10
9.468
20
-22.273
11
9.218
21
-22.273
0
LINE
8
медь верх
10
11.782
20
-22.233
11
11.530
21
-22.233
0
LINE
8
медь верх
10
9.468
20
-22.233
11
9.218
21
-22.233
0
LINE
8
медь верх
10
11.782
20
-22.192
11
11.530
21
-22.192
0
LINE
8
медь верх
10
9.468
20
-22.192
11
9.218
21
-22.192
0
LINE
8
медь верх
10
11.782
20
-22.151
11
11.530
21
-22.151
0
LINE
8
медь верх
10
9.468
20
-22.153
11
9.218
21
-22.153
0
LINE
8
медь верх
10
11.782
20
-22.112
11
11.530
21
-22.112
0
LINE
8
медь верх
10
9.468
20
-22.112
11
9.218
21
-22.112
0
LINE
8
медь верх
10
11.782
20
-22.071
11
11.530
21
-22.071
0
LINE
8
медь верх
10
9.468
20
-22.071
11
9.218
21
-22.071
0
LINE
8
медь верх
10
11.782
20
-22.031
11
11.530
21
-22.031
0
LINE
8
медь верх
10
9.468
20
-22.031
11
9.218
21
-22.032
0
LINE
8
медь верх
10
11.782
20
-21.991
11
11.530
21
-21.991
0
LINE
8
медь верх
10
9.468
20
-21.991
11
9.218
21
-21.991
0
LINE
8
медь верх
10
11.782
20
-21.951
11
11.530
21
-21.951
0
LINE
8
медь верх
10
9.468
20
-21.951
11
9.218
21
-21.951
0
LINE
8
медь верх
10
11.782
20
-21.910
11
11.530
21
-21.910
0
LINE
8
медь верх
10
9.468
20
-21.910
11
9.218
21
-21.910
0
LINE
8
медь верх
10
11.782
20
-21.871
11
11.530
21
-21.871
0
LINE
8
медь верх
10
9.468
20
-21.871
11
9.218
21
-21.871
0
LINE
8
медь верх
10
11.782
20
-21.830
11
11.530
21
-21.830
0
LINE
8
медь верх
10
9.468
20
-21.830
11
9.218
21
-21.830
0
LINE
8
медь верх
10
11.782
20
-21.789
11
11.530
21
-21.789
0
LINE
8
медь верх
10
9.468
20
-21.789
11
9.218
21
-21.789
0
LINE
8
медь верх
10
11.782
20
-21.749
11
11.530
21
-21.749
0
LINE
8
медь верх
10
9.468
20
-21.750
11
9.218
21
-21.750
0
LINE
8
медь верх
10
11.782
20
-21.709
11
11.530
21
-21.709
0
LINE
8
медь верх
10
9.468
20
-21.709
11
9.218
21
-21.709
0
LINE
8
медь верх
10
11.782
20
-21.669
11
11.530
21
-21.669
0
LINE
8
медь верх
10
9.468
20
-21.669
11
9.218
21
-21.669
0
LINE
8
медь верх
10
-11.430
20
-21.671
11
-11.671
21
-21.671
0
LINE
8
медь верх
10
11.782
20
-21.628
11
11.530
21
-21.628
0
LINE
8
медь верх
10
9.468
20
-21.629
11
9.218
21
-21.629
0
LINE
8
медь верх
10
0.931
20
-21.629
11
-0.681
21
-21.629
0
LINE
8
медь верх
10
-9.127
20
-21.631
11
-9.369
21
-21.631
0
LINE
8
медь верх
10
-11.430
20
-21.631
11
-11.671
21
-21.631
0
LINE
8
медь верх
10
11.782
20
-21.589
11
11.530
21
-21.589
0
LINE
8
медь верх
10
9.468
20
-21.589
11
9.218
21
-21.589
0
LINE
8
медь верх
10
1.060
20
-21.589
11
-0.810
21
-21.590
0
LINE
8
медь верх
10
-9.127
20
-21.590
11
-9.369
21
-21.590
0
LINE
8
медь верх
10
-11.430
20
-21.590
11
-11.671
21
-21.590
0
LINE
8
медь верх
10
11.782
20
-21.548
11
11.530
21
-21.548
0
LINE
8
медь верх
10
9.468
20
-21.548
11
9.218
21
-21.548
0
LINE
8
медь верх
10
1.121
20
-21.549
11
-0.870
21
-21.549
0
LINE
8
медь верх
10
-9.127
20
-21.551
11
-9.369
21
-21.551
0
LINE
8
медь верх
10
-11.430
20
-21.551
11
-11.671
21
-21.551
0
LINE
8
медь верх
10
11.782
20
-21.507
11
11.530
21
-21.507
0
LINE
8
медь верх
10
9.468
20
-21.507
11
9.218
21
-21.507
0
LINE
8
медь верх
10
1.171
20
-21.509
11
-0.908
21
-21.509
0
LINE
8
медь верх
10
-9.127
20
-21.510
11
-9.369
21
-21.510
0
LINE
8
медь верх
10
-11.430
20
-21.510
11
-11.671
21
-21.510
0
LINE
8
медь верх
10
11.782
20
-21.468
11
11.530
21
-21.468
0
LINE
8
медь верх
10
9.468
20
-21.468
11
9.218
21
-21.468
0
LINE
8
медь верх
10
1.212
20
-21.468
11
-0.936
21
-21.469
0
LINE
8
медь верх
10
-9.127
20
-21.469
11
-9.369
21
-21.469
0
LINE
8
медь верх
10
-11.430
20
-21.469
11
-11.671
21
-21.469
0
LINE
8
медь верх
10
11.782
20
-21.427
11
11.518
21
-21.427
0
LINE
8
медь верх
10
9.481
20
-21.427
11
9.218
21
-21.427
0
LINE
8
медь верх
10
1.252
20
-21.429
11
-0.963
21
-21.429
0
LINE
8
медь верх
10
-9.127
20
-21.430
11
-9.379
21
-21.430
0
LINE
8
медь верх
10
-11.420
20
-21.430
11
-11.671
21
-21.430
0
LINE
8
медь верх
10
11.782
20
-21.387
11
11.477
21
-21.387
0
LINE
8
медь верх
10
9.521
20
-21.387
11
9.218
21
-21.387
0
LINE
8
медь верх
10
1.292
20
-21.388
11
-0.972
21
-21.388
0
LINE
8
медь верх
10
-9.127
20
-21.389
11
-9.420
21
-21.389
0
LINE
8
медь верх
10
-11.379
20
-21.389
11
-11.671
21
-21.389
0
LINE
8
медь верх
10
11.782
20
-21.346
11
11.438
21
-21.346
0
LINE
8
медь верх
10
9.562
20
-21.347
11
9.215
21
-21.347
0
LINE
8
медь верх
10
1.332
20
-21.347
11
0.972
21
-21.347
0
LINE
8
медь верх
10
-0.719
20
-21.347
11
-0.980
21
-21.347
0
LINE
8
медь верх
10
-9.127
20
-21.349
11
-9.459
21
-21.349
0
LINE
8
медь верх
10
-11.340
20
-21.349
11
-11.671
21
-21.349
0
LINE
8
медь верх
10
11.782
20
-21.307
11
11.397
21
-21.307
0
LINE
8
медь верх
10
9.582
20
-21.307
11
9.207
21
-21.307
0
LINE
8
медь верх
10
1.373
20
-21.308
11
1.012
21
-21.308
0
LINE
8
медь верх
10
-0.735
20
-21.308
11
-0.988
21
-21.308
0
LINE
8
медь верх
10
-9.157
20
-21.308
11
-9.500
21
-21.308
0
LINE
8
медь верх
10
-11.299
20
-21.309
11
-11.642
21
-21.309
0
LINE
8
медь верх
10
11.744
20
-21.266
11
11.356
21
-21.266
0
LINE
8
медь верх
10
9.542
20
-21.266
11
9.181
21
-21.266
0
LINE
8
медь верх
10
1.412
20
-21.267
11
1.053
21
-21.267
0
LINE
8
медь верх
10
-0.734
20
-21.267
11
-0.986
21
-21.267
0
LINE
8
медь верх
10
-9.196
20
-21.269
11
-9.540
21
-21.269
0
LINE
8
медь верх
10
-11.259
20
-21.269
11
-11.603
21
-21.269
0
LINE
8
медь верх
10
11.704
20
-21.226
11
11.316
21
-21.226
0
LINE
8
медь верх
10
9.502
20
-21.227
11
9.141
21
-21.227
0
LINE
8
медь верх
10
1.453
20
-21.227
11
1.092
21
-21.227
0
LINE
8
медь верх
10
-0.709
20
-21.227
11
-0.978
21
-21.227
0
LINE
8
медь верх
10
-9.237
20
-21.228
11
-9.581
21
-21.228
0
LINE
8
медь верх
10
-11.219
20
-21.228
11
-11.562
21
-21.228
0
LINE
8
медь верх
10
11.664
20
-21.186
11
11.276
21
-21.186
0
LINE
8
медь верх
10
9.461
20
-21.186
11
9.101
21
-21.186
0
LINE
8
медь верх
10
1.494
20
-21.186
11
1.133
21
-21.187
0
LINE
8
медь верх
10
0.878
20
-21.187
11
-0.970
21
-21.187
0
LINE
8
медь верх
10
-9.277
20
-21.187
11
-9.620
21
-21.187
0
LINE
8
медь верх
10
-11.179
20
-21.187
11
-11.521
21
-21.189
0
LINE
8
медь верх
10
11.623
20
-21.145
11
11.236
21
-21.145
0
LINE
8
медь верх
10
9.421
20
-21.145
11
9.060
21
-21.145
0
LINE
8
медь верх
10
1.534
20
-21.147
11
1.173
21
-21.147
0
LINE
8
медь верх
10
0.918
20
-21.147
11
-0.955
21
-21.147
0
LINE
8
медь верх
10
-9.318
20
-21.148
11
-9.661
21
-21.148
0
LINE
8
медь верх
10
-11.138
20
-21.148
11
-11.482
21
-21.148
0
LINE
8
медь верх
10
11.584
20
-21.105
11
11.195
21
-21.105
0
LINE
8
медь верх
10
9.380
20
-21.105
11
9.021
21
-21.106
0
LINE
8
медь верх
10
1.574
20
-21.106
11
1.214
21
-21.106
0
LINE
8
медь верх
10
0.958
20
-21.106
11
-0.927
21
-21.106
0
LINE
8
медь верх
10
-9.357
20
-21.107
11
-9.702
21
-21.107
0
LINE
8
медь верх
10
-11.097
20
-21.107
11
-11.441
21
-21.107
0
LINE
8
медь верх
10
11.543
20
-21.065
11
11.156
21
-21.065
0
LINE
8
медь верх
10
9.341
20
-21.065
11
8.980
21
-21.065
0
LINE
8
медь верх
10
1.604
20
-21.065
11
1.253
21
-21.065
0
LINE
8
медь верх
10
0.998
20
-21.065
11
-0.900
21
-21.067
0
LINE
8
медь верх
10
-9.398
20
-21.067
11
-9.741
21
-21.067
0
LINE
8
медь верх
10
-11.058
20
-21.067
11
-11.401
21
-21.067
0
LINE
8
медь верх
10
11.502
20
-21.025
11
11.115
21
-21.025
0
LINE
8
медь верх
10
9.300
20
-21.025
11
8.940
21
-21.025
0
LINE
8
медь верх
10
1.631
20
-21.026
11
1.294
21
-21.026
0
LINE
8
медь верх
10
1.039
20
-21.026
11
-0.853
21
-21.026
0
LINE
8
медь верх
10
-9.439
20
-21.027
11
-9.782
21
-21.027
0
LINE
8
медь верх
10
-11.017
20
-21.027
11
-11.360
21
-21.027
0
LINE
8
медь верх
10
11.462
20
-20.984
11
11.074
21
-20.984
0
LINE
8
медь верх
10
9.260
20
-20.984
11
8.900
21
-20.984
0
LINE
8
медь верх
10
1.657
20
-20.985
11
1.335
21
-20.985
0
LINE
8
медь верх
10
1.078
20
-20.985
11
-0.792
21
-20.985
0
LINE
8
медь верх
10
-9.478
20
-20.987
11
-9.822
21
-20.987
0
LINE
8
медь верх
10
-10.977
20
-20.987
11
-11.321
21
-20.987
0
LINE
8
медь верх
10
11.422
20
-20.945
11
11.035
21
-20.945
0
LINE
8
медь верх
10
9.964
20
-20.945
11
9.869
21
-20.945
0
LINE
8
медь верх
10
9.220
20
-20.945
11
8.860
21
-20.945
0
LINE
8
медь верх
10
1.704
20
-20.945
11
1.374
21
-20.945
0
LINE
8
медь верх
10
1.119
20
-20.945
11
0.260
21
-20.945
0
LINE
8
медь верх
10
-9.519
20
-20.946
11
-9.862
21
-20.946
0
LINE
8
медь верх
10
-10.937
20
-20.946
11
-11.280
21
-20.946
0
LINE
8
медь верх
10
11.382
20
-20.904
11
10.994
21
-20.904
0
LINE
8
медь верх
10
10.004
20
-20.904
11
9.829
21
-20.904
0
LINE
8
медь верх
10
9.180
20
-20.904
11
8.819
21
-20.904
0
LINE
8
медь верх
10
6.024
20
-20.904
11
1.414
21
-20.905
0
LINE
8
медь верх
10
1.160
20
-20.905
11
0.339
21
-20.905
0
LINE
8
медь верх
10
-9.559
20
-20.905
11
-9.902
21
-20.907
0
LINE
8
медь верх
10
-10.897
20
-20.907
11
-11.240
21
-20.907
0
LINE
8
медь верх
10
11.341
20
-20.864
11
9.789
21
-20.864
0
LINE
8
медь верх
10
9.139
20
-20.864
11
8.780
21
-20.864
0
LINE
8
медь верх
10
6.137
20
-20.865
11
1.434
21
-20.865
0
LINE
8
медь верх
10
1.199
20
-20.865
11
0.364
21
-20.865
0
LINE
8
медь верх
10
-9.599
20
-20.866
11
-11.200
21
-20.866
0
LINE
8
медь верх
10
11.302
20
-20.823
11
9.749
21
-20.824
0
LINE
8
медь верх
10
9.100
20
-20.824
11
8.739
21
-20.824
0
LINE
8
медь верх
10
6.196
20
-20.824
11
1.435
21
-20.824
0
LINE
8
медь верх
10
1.240
20
-20.824
11
0.372
21
-20.824
0
LINE
8
медь верх
10
-9.639
20
-20.825
11
-11.159
21
-20.825
0
LINE
8
медь верх
10
11.261
20
-20.784
11
9.708
21
-20.784
0
LINE
8
медь верх
10
9.059
20
-20.784
11
8.698
21
-20.784
0
LINE
8
медь верх
10
6.257
20
-20.784
11
1.415
21
-20.785
0
LINE
8
медь верх
10
1.280
20
-20.785
11
0.366
21
-20.785
0
LINE
8
медь верх
10
-9.680
20
-20.785
11
-11.119
21
-20.786
0
LINE
8
медь верх
10
11.220
20
-20.743
11
9.667
21
-20.743
0
LINE
8
медь верх
10
9.018
20
-20.743
11
8.658
21
-20.743
0
LINE
8
медь верх
10
6.299
20
-20.743
11
0.344
21
-20.744
0
LINE
8
медь верх
10
-9.714
20
-20.745
11
-11.085
21
-20.745
0
LINE
8
медь верх
10
11.193
20
-20.702
11
9.628
21
-20.704
0
LINE
8
медь верх
10
8.979
20
-20.704
11
8.618
21
-20.704
0
LINE
8
медь верх
10
6.340
20
-20.704
11
0.309
21
-20.704
0
LINE
8
медь верх
10
-9.735
20
-20.705
11
-11.064
21
-20.705
0
LINE
8
медь верх
10
11.182
20
-20.663
11
9.587
21
-20.663
0
LINE
8
медь верх
10
8.938
20
-20.663
11
8.578
21
-20.663
0
LINE
8
медь верх
10
6.380
20
-20.663
11
5.969
21
-20.663
0
LINE
8
медь верх
10
0.682
20
-20.664
11
0.269
21
-20.664
0
LINE
8
медь верх
10
-9.740
20
-20.664
11
-11.059
21
-20.664
0
LINE
8
медь верх
10
11.185
20
-20.622
11
9.547
21
-20.622
0
LINE
8
медь верх
10
8.898
20
-20.622
11
8.537
21
-20.622
0
LINE
8
медь верх
10
6.420
20
-20.622
11
6.053
21
-20.622
0
LINE
8
медь верх
10
0.597
20
-20.624
11
0.229
21
-20.624
0
LINE
8
медь верх
10
-9.732
20
-20.625
11
-11.067
21
-20.625
0
LINE
8
медь верх
10
11.203
20
-20.582
11
9.507
21
-20.582
0
LINE
8
медь верх
10
8.857
20
-20.582
11
8.498
21
-20.583
0
LINE
8
медь верх
10
6.460
20
-20.583
11
6.100
21
-20.583
0
LINE
8
медь верх
10
0.549
20
-20.583
11
0.188
21
-20.583
0
LINE
8
медь верх
10
-9.705
20
-20.584
11
-11.093
21
-20.584
0
LINE
8
медь верх
10
11.234
20
-20.542
11
9.467
21
-20.542
0
LINE
8
медь верх
10
8.818
20
-20.542
11
8.457
21
-20.542
0
LINE
8
медь верх
10
6.500
20
-20.542
11
6.140
21
-20.542
0
LINE
8
медь верх
10
0.508
20
-20.542
11
0.149
21
-20.542
0
LINE
8
медь верх
10
-9.666
20
-20.544
11
-11.133
21
-20.544
0
LINE
8
медь верх
10
11.275
20
-20.502
11
9.426
21
-20.502
0
LINE
8
медь верх
10
8.777
20
-20.502
11
8.416
21
-20.502
0
LINE
8
медь верх
10
6.540
20
-20.502
11
6.181
21
-20.502
0
LINE
8
медь верх
10
0.469
20
-20.503
11
0.108
21
-20.503
0
LINE
8
медь верх
10
-9.625
20
-20.504
11
-11.172
21
-20.504
0
LINE
8
медь верх
10
11.316
20
-20.461
11
9.387
21
-20.461
0
LINE
8
медь верх
10
8.736
20
-20.461
11
8.377
21
-20.461
0
LINE
8
медь верх
10
6.581
20
-20.462
11
6.220
21
-20.462
0
LINE
8
медь верх
10
0.428
20
-20.462
11
0.067
21
-20.462
0
LINE
8
медь верх
10
-9.586
20
-20.464
11
-11.213
21
-20.464
0
LINE
8
медь верх
10
11.355
20
-20.420
11
10.968
21
-20.422
0
LINE
8
медь верх
10
10.030
20
-20.422
11
9.346
21
-20.422
0
LINE
8
медь верх
10
8.697
20
-20.422
11
8.336
21
-20.422
0
LINE
8
медь верх
10
6.621
20
-20.422
11
6.261
21
-20.422
0
LINE
8
медь верх
10
0.387
20
-20.422
11
0.027
21
-20.422
0
LINE
8
медь верх
10
-9.545
20
-20.423
11
-9.933
21
-20.423
0
LINE
8
медь верх
10
-10.866
20
-20.423
11
-11.253
21
-20.423
0
LINE
8
медь верх
10
11.396
20
-20.381
11
11.008
21
-20.381
0
LINE
8
медь верх
10
9.991
20
-20.381
11
9.305
21
-20.381
0
LINE
8
медь верх
10
8.656
20
-20.381
11
8.296
21
-20.381
0
LINE
8
медь верх
10
6.661
20
-20.381
11
6.300
21
-20.381
0
LINE
8
медь верх
10
0.347
20
-20.382
11
-0.011
21
-20.382
0
LINE
8
медь верх
10
-9.505
20
-20.382
11
-9.892
21
-20.382
0
LINE
8
медь верх
10
-10.905
20
-20.384
11
-11.294
21
-20.384
0
LINE
8
медь верх
10
11.436
20
-20.340
11
11.049
21
-20.340
0
LINE
8
медь верх
10
9.950
20
-20.340
11
9.266
21
-20.340
0
LINE
8
медь верх
10
8.616
20
-20.340
11
8.256
21
-20.340
0
LINE
8
медь верх
10
6.692
20
-20.340
11
6.341
21
-20.340
0
LINE
8
медь верх
10
0.307
20
-20.342
11
-0.052
21
-20.342
0
LINE
8
медь верх
10
-9.465
20
-20.343
11
-9.853
21
-20.343
0
LINE
8
медь верх
10
-10.946
20
-20.343
11
-11.333
21
-20.343
0
LINE
8
медь верх
10
11.476
20
-20.300
11
11.088
21
-20.300
0
LINE
8
медь верх
10
9.910
20
-20.301
11
9.225
21
-20.301
0
LINE
8
медь верх
10
8.576
20
-20.301
11
8.216
21
-20.301
0
LINE
8
медь верх
10
6.718
20
-20.301
11
6.382
21
-20.301
0
LINE
8
медь верх
10
0.267
20
-20.301
11
-0.093
21
-20.301
0
LINE
8
медь верх
10
-9.425
20
-20.302
11
-9.812
21
-20.302
0
LINE
8
медь верх
10
-10.987
20
-20.302
11
-11.374
21
-20.302
0
LINE
8
медь верх
10
11.516
20
-20.260
11
11.129
21
-20.260
0
LINE
8
медь верх
10
9.870
20
-20.260
11
9.185
21
-20.260
0
LINE
8
медь верх
10
8.536
20
-20.260
11
8.175
21
-20.260
0
LINE
8
медь верх
10
6.745
20
-20.260
11
6.421
21
-20.260
0
LINE
8
медь верх
10
0.226
20
-20.262
11
-0.132
21
-20.262
0
LINE
8
медь верх
10
-9.384
20
-20.262
11
-9.771
21
-20.262
0
LINE
8
медь верх
10
-11.027
20
-20.262
11
-11.415
21
-20.263
0
LINE
8
медь верх
10
11.557
20
-20.220
11
11.170
21
-20.220
0
LINE
8
медь верх
10
9.830
20
-20.220
11
9.144
21
-20.220
0
LINE
8
медь верх
10
8.495
20
-20.220
11
8.134
21
-20.220
0
LINE
8
медь верх
10
6.772
20
-20.220
11
6.462
21
-20.220
0
LINE
8
медь верх
10
0.187
20
-20.221
11
-0.173
21
-20.221
0
LINE
8
медь верх
10
-9.343
20
-20.222
11
-9.732
21
-20.222
0
LINE
8
медь верх
10
-11.067
20
-20.222
11
-11.454
21
-20.222
0
LINE
8
медь верх
10
11.598
20
-20.179
11
11.209
21
-20.179
0
LINE
8
медь верх
10
9.789
20
-20.179
11
9.105
21
-20.179
0
LINE
8
медь верх
10
8.454
20
-20.180
11
8.095
21
-20.180
0
LINE
8
медь верх
10
6.788
20
-20.180
11
6.501
21
-20.180
0
LINE
8
медь верх
10
5.853
20
-20.180
11
0.795
21
-20.180
0
LINE
8
медь верх
10
0.146
20
-20.180
11
-0.213
21
-20.180
0
LINE
8
медь верх
10
-9.304
20
-20.182
11
-9.691
21
-20.182
0
LINE
8
медь верх
10
-11.107
20
-20.182
11
-11.495
21
-20.182
0
LINE
8
медь верх
10
11.637
20
-20.140
11
11.250
21
-20.140
0
LINE
8
медь верх
10
9.749
20
-20.140
11
9.064
21
-20.140
0
LINE
8
медь верх
10
8.415
20
-20.140
11
8.054
21
-20.140
0
LINE
8
медь верх
10
6.801
20
-20.140
11
6.528
21
-20.140
0
LINE
8
медь верх
10
5.893
20
-20.140
11
0.756
21
-20.140
0
LINE
8
медь верх
10
0.105
20
-20.141
11
-0.253
21
-20.141
0
LINE
8
медь верх
10
-9.263
20
-20.141
11
-9.651
21
-20.141
0
LINE
8
медь верх
10
-11.148
20
-20.141
11
-11.535
21
-20.141
0
LINE
8
медь верх
10
11.678
20
-20.099
11
11.290
21
-20.099
0
LINE
8
медь верх
10
9.709
20
-20.099
11
9.023
21
-20.099
0
LINE
8
медь верх
10
8.374
20
-20.099
11
8.014
21
-20.099
0
LINE
8
медь верх
10
6.833
20
-20.099
11
6.552
21
-20.099
0
LINE
8
медь верх
10
5.933
20
-20.099
11
0.715
21
-20.100
0
LINE
8
медь верх
10
0.066
20
-20.100
11
-0.293
21
-20.100
0
LINE
8
медь верх
10
-9.223
20
-20.102
11
-9.611
21
-20.102
0
LINE
8
медь верх
10
-11.187
20
-20.102
11
-11.575
21
-20.102
0
LINE
8
медь верх
10
11.718
20
-20.058
11
11.331
21
-20.058
0
LINE
8
медь верх
10
9.669
20
-20.058
11
8.984
21
-20.058
0
LINE
8
медь верх
10
8.334
20
-20.058
11
7.974
21
-20.058
0
LINE
8
медь верх
10
6.901
20
-20.060
11
6.560
21
-20.060
0
LINE
8
медь верх
10
5.974
20
-20.060
11
0.674
21
-20.060
0
LINE
8
медь верх
10
0.025
20
-20.060
11
-0.323
21
-20.060
0
LINE
8
медь верх
10
-9.183
20
-20.061
11
-9.571
21
-20.061
0
LINE
8
медь верх
10
-11.228
20
-20.061
11
-11.615
21
-20.061
0
LINE
8
медь верх
10
11.758
20
-20.019
11
11.370
21
-20.019
0
LINE
8
медь верх
10
9.628
20
-20.019
11
8.943
21
-20.019
0
LINE
8
медь верх
10
8.294
20
-20.019
11
7.934
21
-20.019
0
LINE
8
медь верх
10
6.942
20
-20.019
11
6.567
21
-20.019
0
LINE
8
медь верх
10
6.013
20
-20.019
11
0.635
21
-20.019
0
LINE
8
медь верх
10
-0.014
20
-20.019
11
-0.349
21
-20.019
0
LINE
8
медь верх
10
-9.143
20
-20.020
11
-9.530
21
-20.020
0
LINE
8
медь верх
10
-11.269
20
-20.020
11
-11.656
21
-20.020
0
LINE
8
медь верх
10
11.782
20
-19.978
11
11.411
21
-19.978
0
LINE
8
медь верх
10
9.588
20
-19.978
11
8.903
21
-19.978
0
LINE
8
медь верх
10
8.254
20
-19.978
11
7.893
21
-19.978
0
LINE
8
медь верх
10
6.982
20
-19.978
11
6.567
21
-19.978
0
LINE
8
медь верх
10
6.054
20
-19.978
11
0.594
21
-19.980
0
LINE
8
медь верх
10
-0.053
20
-19.980
11
-0.376
21
-19.980
0
LINE
8
медь верх
10
-9.117
20
-19.980
11
-9.489
21
-19.980
0
LINE
8
медь верх
10
-11.308
20
-19.981
11
-11.681
21
-19.981
0
LINE
8
медь верх
10
11.782
20
-19.938
11
11.452
21
-19.938
0
LINE
8
медь верх
10
9.548
20
-19.938
11
8.863
21
-19.938
0
LINE
8
медь верх
10
8.213
20
-19.938
11
7.854
21
-19.938
0
LINE
8
медь верх
10
7.022
20
-19.938
11
6.567
21
-19.939
0
LINE
8
медь верх
10
6.093
20
-19.939
11
0.554
21
-19.939
0
LINE
8
медь верх
10
-0.094
20
-19.939
11
-0.403
21
-19.939
0
LINE
8
медь верх
10
-9.117
20
-19.940
11
-9.450
21
-19.940
0
LINE
8
медь верх
10
-11.349
20
-19.940
11
-11.681
21
-19.940
0
LINE
8
медь верх
10
11.782
20
-19.897
11
11.491
21
-19.897
0
LINE
8
медь верх
10
9.507
20
-19.898
11
8.823
21
-19.898
0
LINE
8
медь верх
10
8.174
20
-19.898
11
7.813
21
-19.898
0
LINE
8
медь верх
10
7.062
20
-19.898
11
6.567
21
-19.898
0
LINE
8
медь верх
10
6.109
20
-19.898
11
0.513
21
-19.898
0
LINE
8
медь верх
10
-0.132
20
-19.898
11
-0.417
21
-19.898
0
LINE
8
медь верх
10
-9.117
20
-19.900
11
-9.409
21
-19.900
0
LINE
8
медь верх
10
-11.389
20
-19.900
11
-11.681
21
-19.900
0
LINE
8
медь верх
10
11.782
20
-19.858
11
11.530
21
-19.858
0
LINE
8
медь верх
10
9.468
20
-19.858
11
8.782
21
-19.858
0
LINE
8
медь верх
10
8.133
20
-19.858
11
7.772
21
-19.858
0
LINE
8
медь верх
10
7.103
20
-19.858
11
6.568
21
-19.858
0
LINE
8
медь верх
10
6.109
20
-19.858
11
0.474
21
-19.859
0
LINE
8
медь верх
10
-0.160
20
-19.859
11
-0.425
21
-19.859
0
LINE
8
медь верх
10
-9.117
20
-19.859
11
-9.369
21
-19.859
0
LINE
8
медь верх
10
-11.429
20
-19.860
11
-11.681
21
-19.860
0
LINE
8
медь верх
10
11.782
20
-19.817
11
11.530
21
-19.817
0
LINE
8
медь верх
10
9.468
20
-19.817
11
8.743
21
-19.817
0
LINE
8
медь верх
10
8.092
20
-19.817
11
7.733
21
-19.817
0
LINE
8
медь верх
10
7.117
20
-19.817
11
6.568
21
-19.817
0
LINE
8
медь верх
10
6.109
20
-19.817
11
0.433
21
-19.818
0
LINE
8
медь верх
10
-0.180
20
-19.818
11
-0.433
21
-19.818
0
LINE
8
медь верх
10
-9.117
20
-19.820
11
-9.369
21
-19.820
0
LINE
8
медь верх
10
-11.430
20
-19.820
11
-11.681
21
-19.820
0
LINE
8
медь верх
10
11.782
20
-19.776
11
11.530
21
-19.776
0
LINE
8
медь верх
10
9.468
20
-19.778
11
8.702
21
-19.778
0
LINE
8
медь верх
10
8.053
20
-19.778
11
7.694
21
-19.778
0
LINE
8
медь верх
10
7.117
20
-19.778
11
6.796
21
-19.778
0
LINE
8
медь верх
10
5.883
20
-19.778
11
0.392
21
-19.778
0
LINE
8
медь верх
10
-0.189
20
-19.778
11
-0.441
21
-19.778
0
LINE
8
медь верх
10
-9.117
20
-19.779
11
-9.369
21
-19.779
0
LINE
8
медь верх
10
-11.430
20
-19.779
11
-11.681
21
-19.779
0
LINE
8
медь верх
10
11.782
20
-19.737
11
11.530
21
-19.737
0
LINE
8
медь верх
10
9.468
20
-19.737
11
8.661
21
-19.737
0
LINE
8
медь верх
10
8.012
20
-19.737
11
7.667
21
-19.737
0
LINE
8
медь верх
10
7.117
20
-19.737
11
6.836
21
-19.737
0
LINE
8
медь верх
10
5.842
20
-19.737
11
0.353
21
-19.738
0
LINE
8
медь верх
10
-0.196
20
-19.738
11
-0.450
21
-19.738
0
LINE
8
медь верх
10
-9.117
20
-19.738
11
-9.369
21
-19.738
0
LINE
8
медь верх
10
-11.430
20
-19.738
11
-11.681
21
-19.738
0
LINE
8
медь верх
10
11.782
20
-19.696
11
11.530
21
-19.696
0
LINE
8
медь верх
10
9.468
20
-19.696
11
8.621
21
-19.696
0
LINE
8
медь верх
10
7.972
20
-19.696
11
7.640
21
-19.696
0
LINE
8
медь верх
10
7.117
20
-19.696
11
6.866
21
-19.696
0
LINE
8
медь верх
10
5.813
20
-19.696
11
0.312
21
-19.698
0
LINE
8
медь верх
10
-0.196
20
-19.698
11
-0.451
21
-19.698
0
LINE
8
медь верх
10
-9.117
20
-19.699
11
-9.369
21
-19.699
0
LINE
8
медь верх
10
-11.430
20
-19.699
11
-11.681
21
-19.699
0
LINE
8
медь верх
10
11.782
20
-19.656
11
11.530
21
-19.656
0
LINE
8
медь верх
10
9.468
20
-19.656
11
8.581
21
-19.656
0
LINE
8
медь верх
10
7.931
20
-19.657
11
7.612
21
-19.657
0
LINE
8
медь верх
10
7.117
20
-19.657
11
6.866
21
-19.657
0
LINE
8
медь верх
10
5.813
20
-19.657
11
0.272
21
-19.657
0
LINE
8
медь верх
10
-0.196
20
-19.657
11
-0.451
21
-19.657
0
LINE
8
медь верх
10
-9.117
20
-19.658
11
-9.369
21
-19.658
0
LINE
8
медь верх
10
-11.430
20
-19.658
11
-11.681
21
-19.658
0
LINE
8
медь верх
10
11.782
20
-19.616
11
11.530
21
-19.616
0
LINE
8
медь верх
10
9.468
20
-19.616
11
8.541
21
-19.616
0
LINE
8
медь верх
10
7.892
20
-19.616
11
7.586
21
-19.616
0
LINE
8
медь верх
10
7.117
20
-19.616
11
6.866
21
-19.616
0
LINE
8
медь верх
10
5.813
20
-19.616
11
0.262
21
-19.616
0
LINE
8
медь верх
10
-0.196
20
-19.616
11
-0.451
21
-19.618
0
LINE
8
медь верх
10
-9.117
20
-19.618
11
-9.369
21
-19.618
0
LINE
8
медь верх
10
-11.430
20
-19.618
11
-11.681
21
-19.618
0
LINE
8
медь верх
10
11.782
20
-19.576
11
11.530
21
-19.576
0
LINE
8
медь верх
10
9.468
20
-19.576
11
8.500
21
-19.576
0
LINE
8
медь верх
10
7.856
20
-19.576
11
7.577
21
-19.576
0
LINE
8
медь верх
10
7.117
20
-19.576
11
6.866
21
-19.576
0
LINE
8
медь верх
10
5.813
20
-19.576
11
0.262
21
-19.577
0
LINE
8
медь верх
10
-0.196
20
-19.577
11
-0.451
21
-19.577
0
LINE
8
медь верх
10
-9.117
20
-19.577
11
-9.369
21
-19.578
0
LINE
8
медь верх
10
-11.430
20
-19.578
11
-11.681
21
-19.578
0
LINE
8
медь верх
10
11.782
20
-19.535
11
11.530
21
-19.535
0
LINE
8
медь верх
10
9.468
20
-19.535
11
8.461
21
-19.535
0
LINE
8
медь верх
10
7.830
20
-19.535
11
7.569
21
-19.535
0
LINE
8
медь верх
10
7.117
20
-19.536
11
6.866
21
-19.536
0
LINE
8
медь верх
10
5.813
20
-19.536
11
0.262
21
-19.536
0
LINE
8
медь верх
10
-0.196
20
-19.536
11
-0.451
21
-19.536
0
LINE
8
медь верх
10
-9.117
20
-19.538
11
-9.369
21
-19.538
0
LINE
8
медь верх
10
-11.430
20
-19.538
11
-11.681
21
-19.538
0
LINE
8
медь верх
10
11.782
20
-19.494
11
11.530
21
-19.494
0
LINE
8
медь верх
10
9.468
20
-19.496
11
8.420
21
-19.496
0
LINE
8
медь верх
10
7.813
20
-19.496
11
7.560
21
-19.496
0
LINE
8
медь верх
10
7.117
20
-19.496
11
6.866
21
-19.496
0
LINE
8
медь верх
10
5.813
20
-19.496
11
0.262
21
-19.496
0
LINE
8
медь верх
10
-0.196
20
-19.496
11
-0.451
21
-19.496
0
LINE
8
медь верх
10
-9.117
20
-19.497
11
-9.369
21
-19.497
0
LINE
8
медь верх
10
-11.430
20
-19.497
11
-11.681
21
-19.497
0
LINE
8
медь верх
10
11.782
20
-19.455
11
11.530
21
-19.455
0
LINE
8
медь верх
10
9.468
20
-19.455
11
8.379
21
-19.455
0
LINE
8
медь верх
10
7.805
20
-19.455
11
7.553
21
-19.455
0
LINE
8
медь верх
10
7.117
20
-19.455
11
6.866
21
-19.455
0
LINE
8
медь верх
10
5.813
20
-19.455
11
0.262
21
-19.456
0
LINE
8
медь верх
10
-0.196
20
-19.456
11
-0.451
21
-19.456
0
LINE
8
медь верх
10
-9.117
20
-19.456
11
-9.369
21
-19.456
0
LINE
8
медь верх
10
-11.430
20
-19.458
11
-11.681
21
-19.458
0
LINE
8
медь верх
10
11.782
20
-19.414
11
11.530
21
-19.414
0
LINE
8
медь верх
10
9.468
20
-19.414
11
8.340
21
-19.414
0
LINE
8
медь верх
10
7.800
20
-19.414
11
7.545
21
-19.414
0
LINE
8
медь верх
10
7.117
20
-19.414
11
6.866
21
-19.414
0
LINE
8
медь верх
10
5.813
20
-19.416
11
0.262
21
-19.416
0
LINE
8
медь верх
10
-0.196
20
-19.416
11
-0.451
21
-19.416
0
LINE
8
медь верх
10
-9.117
20
-19.417
11
-9.369
21
-19.417
0
LINE
8
медь верх
10
-11.430
20
-19.417
11
-11.681
21
-19.417
0
LINE
8
медь верх
10
11.782
20
-19.374
11
11.530
21
-19.374
0
LINE
8
медь верх
10
9.468
20
-19.375
11
8.299
21
-19.375
0
LINE
8
медь верх
10
7.800
20
-19.375
11
7.545
21
-19.375
0
LINE
8
медь верх
10
7.117
20
-19.375
11
6.866
21
-19.375
0
LINE
8
медь верх
10
5.813
20
-19.375
11
0.262
21
-19.375
0
LINE
8
медь верх
10
-0.196
20
-19.375
11
-0.451
21
-19.375
0
LINE
8
медь верх
10
-9.117
20
-19.376
11
-9.369
21
-19.376
0
LINE
8
медь верх
10
-11.430
20
-19.376
11
-11.681
21
-19.376
0
LINE
8
медь верх
10
11.782
20
-19.334
11
11.530
21
-19.334
0
LINE
8
медь верх
10
9.468
20
-19.334
11
8.259
21
-19.334
0
LINE
8
медь верх
10
7.800
20
-19.334
11
7.545
21
-19.334
0
LINE
8
медь верх
10
7.117
20
-19.334
11
6.866
21
-19.334
0
LINE
8
медь верх
10
5.813
20
-19.334
11
3.851
21
-19.334
0
LINE
8
медь верх
10
1.948
20
-19.334
11
0.262
21
-19.336
0
LINE
8
медь верх
10
-0.196
20
-19.336
11
-0.451
21
-19.336
0
LINE
8
медь верх
10
-9.117
20
-19.336
11
-9.369
21
-19.336
0
LINE
8
медь верх
10
-11.430
20
-19.336
11
-11.681
21
-19.337
0
LINE
8
медь верх
10
11.782
20
-19.294
11
11.530
21
-19.294
0
LINE
8
медь верх
10
9.468
20
-19.294
11
8.259
21
-19.294
0
LINE
8
медь верх
10
7.800
20
-19.294
11
7.545
21
-19.294
0
LINE
8
медь верх
10
7.117
20
-19.294
11
6.866
21
-19.294
0
LINE
8
медь верх
10
5.813
20
-19.294
11
3.890
21
-19.295
0
LINE
8
медь верх
10
1.909
20
-19.295
11
0.262
21
-19.295
0
LINE
8
медь верх
10
-0.196
20
-19.295
11
-0.451
21
-19.295
0
LINE
8
медь верх
10
-9.117
20
-19.296
11
-9.369
21
-19.296
0
LINE
8
медь верх
10
-11.430
20
-19.296
11
-11.681
21
-19.296
0
LINE
8
медь верх
10
11.782
20
-19.253
11
11.530
21
-19.253
0
LINE
8
медь верх
10
9.468
20
-19.253
11
8.259
21
-19.254
0
LINE
8
медь верх
10
7.800
20
-19.254
11
7.545
21
-19.254
0
LINE
8
медь верх
10
7.117
20
-19.254
11
6.866
21
-19.254
0
LINE
8
медь верх
10
5.813
20
-19.254
11
3.931
21
-19.254
0
LINE
8
медь верх
10
1.868
20
-19.254
11
0.262
21
-19.254
0
LINE
8
медь верх
10
-0.196
20
-19.254
11
-0.451
21
-19.254
0
LINE
8
медь верх
10
-9.117
20
-19.256
11
-9.369
21
-19.256
0
LINE
8
медь верх
10
-11.430
20
-19.256
11
-11.681
21
-19.256
0
LINE
8
медь верх
10
11.782
20
-19.214
11
11.530
21
-19.214
0
LINE
8
медь верх
10
9.468
20
-19.214
11
8.259
21
-19.214
0
LINE
8
медь верх
10
7.800
20
-19.214
11
7.545
21
-19.214
0
LINE
8
медь верх
10
7.117
20
-19.214
11
6.866
21
-19.214
0
LINE
8
медь верх
10
5.813
20
-19.214
11
3.971
21
-19.214
0
LINE
8
медь верх
10
1.828
20
-19.214
11
0.262
21
-19.214
0
LINE
8
медь верх
10
-0.196
20
-19.215
11
-0.451
21
-19.215
0
LINE
8
медь верх
10
-9.117
20
-19.215
11
-9.369
21
-19.215
0
LINE
8
медь верх
10
-11.430
20
-19.215
11
-11.681
21
-19.215
0
LINE
8
медь верх
10
11.782
20
-19.173
11
11.530
21
-19.173
0
LINE
8
медь верх
10
9.468
20
-19.173
11
8.259
21
-19.173
0
LINE
8
медь верх
10
7.800
20
-19.173
11
7.545
21
-19.173
0
LINE
8
медь верх
10
7.117
20
-19.173
11
6.866
21
-19.173
0
LINE
8
медь верх
10
5.813
20
-19.173
11
4.011
21
-19.173
0
LINE
8
медь верх
10
1.788
20
-19.174
11
0.262
21
-19.174
0
LINE
8
медь верх
10
-0.196
20
-19.174
11
-0.451
21
-19.174
0
LINE
8
медь верх
10
-9.117
20
-19.176
11
-9.369
21
-19.176
0
LINE
8
медь верх
10
-11.430
20
-19.176
11
-11.681
21
-19.176
0
LINE
8
медь верх
10
11.782
20
-19.133
11
11.530
21
-19.133
0
LINE
8
медь верх
10
9.468
20
-19.133
11
8.259
21
-19.133
0
LINE
8
медь верх
10
7.800
20
-19.133
11
7.545
21
-19.134
0
LINE
8
медь верх
10
7.117
20
-19.134
11
6.866
21
-19.134
0
LINE
8
медь верх
10
5.813
20
-19.134
11
4.027
21
-19.134
0
LINE
8
медь верх
10
1.772
20
-19.134
11
0.262
21
-19.134
0
LINE
8
медь верх
10
-0.196
20
-19.134
11
-0.451
21
-19.134
0
LINE
8
медь верх
10
-9.117
20
-19.135
11
-9.369
21
-19.135
0
LINE
8
медь верх
10
-11.430
20
-19.135
11
-11.681
21
-19.135
0
LINE
8
медь верх
10
11.782
20
-19.092
11
11.530
21
-19.093
0
LINE
8
медь верх
10
9.468
20
-19.093
11
8.259
21
-19.093
0
LINE
8
медь верх
10
7.800
20
-19.093
11
7.545
21
-19.093
0
LINE
8
медь верх
10
7.117
20
-19.093
11
6.866
21
-19.093
0
LINE
8
медь верх
10
5.813
20
-19.093
11
4.027
21
-19.093
0
LINE
8
медь верх
10
1.772
20
-19.093
11
0.262
21
-19.093
0
LINE
8
медь верх
10
-0.196
20
-19.093
11
-0.451
21
-19.093
0
LINE
8
медь верх
10
-9.117
20
-19.094
11
-9.369
21
-19.094
0
LINE
8
медь верх
10
-11.430
20
-19.094
11
-11.681
21
-19.094
0
LINE
8
медь верх
10
11.782
20
-19.053
11
11.530
21
-19.053
0
LINE
8
медь верх
10
9.468
20
-19.053
11
8.259
21
-19.053
0
LINE
8
медь верх
10
7.800
20
-19.053
11
7.545
21
-19.053
0
LINE
8
медь верх
10
7.117
20
-19.053
11
6.847
21
-19.053
0
LINE
8
медь верх
10
5.831
20
-19.053
11
4.027
21
-19.053
0
LINE
8
медь верх
10
1.772
20
-19.054
11
0.262
21
-19.054
0
LINE
8
медь верх
10
-0.196
20
-19.054
11
-0.451
21
-19.054
0
LINE
8
медь верх
10
-9.117
20
-19.054
11
-9.369
21
-19.054
0
LINE
8
медь верх
10
-11.430
20
-19.055
11
-11.681
21
-19.055
0
LINE
8
медь верх
10
11.782
20
-19.012
11
11.530
21
-19.012
0
LINE
8
медь верх
10
9.468
20
-19.012
11
8.259
21
-19.012
0
LINE
8
медь верх
10
7.800
20
-19.012
11
7.545
21
-19.012
0
LINE
8
медь верх
10
7.117
20
-19.012
11
6.807
21
-19.012
0
LINE
8
медь верх
10
5.871
20
-19.013
11
4.027
21
-19.013
0
LINE
8
медь верх
10
1.772
20
-19.013
11
0.262
21
-19.013
0
LINE
8
медь верх
10
-0.196
20
-19.013
11
-0.451
21
-19.013
0
LINE
8
медь верх
10
-9.117
20
-19.014
11
-9.369
21
-19.014
0
LINE
8
медь верх
10
-11.430
20
-19.014
11
-11.681
21
-19.014
0
LINE
8
медь верх
10
11.782
20
-18.971
11
11.530
21
-18.971
0
LINE
8
медь верх
10
9.468
20
-18.973
11
8.259
21
-18.973
0
LINE
8
медь верх
10
7.800
20
-18.973
11
7.545
21
-18.973
0
LINE
8
медь верх
10
7.117
20
-18.973
11
6.767
21
-18.973
0
LINE
8
медь верх
10
5.912
20
-18.973
11
4.027
21
-18.973
0
LINE
8
медь верх
10
1.772
20
-18.973
11
0.262
21
-18.973
0
LINE
8
медь верх
10
-0.196
20
-18.973
11
-0.451
21
-18.973
0
LINE
8
медь верх
10
-9.117
20
-18.974
11
-9.369
21
-18.974
0
LINE
8
медь верх
10
-11.430
20
-18.974
11
-11.681
21
-18.974
0
LINE
8
медь верх
10
11.782
20
-18.932
11
11.521
21
-18.932
0
LINE
8
медь верх
10
9.477
20
-18.932
11
8.259
21
-18.932
0
LINE
8
медь верх
10
7.800
20
-18.932
11
7.545
21
-18.932
0
LINE
8
медь верх
10
7.117
20
-18.932
11
4.027
21
-18.932
0
LINE
8
медь верх
10
1.772
20
-18.932
11
0.262
21
-18.933
0
LINE
8
медь верх
10
-0.196
20
-18.933
11
-0.451
21
-18.933
0
LINE
8
медь верх
10
-9.117
20
-18.933
11
-9.375
21
-18.933
0
LINE
8
медь верх
10
-11.424
20
-18.934
11
-11.681
21
-18.934
0
LINE
8
медь верх
10
11.782
20
-18.891
11
11.482
21
-18.891
0
LINE
8
медь верх
10
9.517
20
-18.891
11
8.259
21
-18.891
0
LINE
8
медь верх
10
7.800
20
-18.891
11
7.545
21
-18.891
0
LINE
8
медь верх
10
7.117
20
-18.891
11
4.027
21
-18.893
0
LINE
8
медь верх
10
1.772
20
-18.893
11
0.262
21
-18.893
0
LINE
8
медь верх
10
-0.196
20
-18.893
11
-0.451
21
-18.893
0
LINE
8
медь верх
10
-9.117
20
-18.894
11
-9.415
21
-18.894
0
LINE
8
медь верх
10
-11.384
20
-18.894
11
-11.681
21
-18.894
0
LINE
8
медь верх
10
11.782
20
-18.851
11
11.441
21
-18.851
0
LINE
8
медь верх
10
9.557
20
-18.851
11
8.259
21
-18.852
0
LINE
8
медь верх
10
7.800
20
-18.852
11
7.545
21
-18.852
0
LINE
8
медь верх
10
7.118
20
-18.852
11
4.027
21
-18.852
0
LINE
8
медь верх
10
1.772
20
-18.852
11
0.262
21
-18.852
0
LINE
8
медь верх
10
-0.196
20
-18.852
11
-0.451
21
-18.852
0
LINE
8
медь верх
10
-9.117
20
-18.853
11
-9.455
21
-18.853
0
LINE
8
медь верх
10
-11.344
20
-18.853
11
-11.681
21
-18.853
0
LINE
8
медь верх
10
11.782
20
-18.811
11
11.401
21
-18.811
0
LINE
8
медь верх
10
9.586
20
-18.811
11
8.259
21
-18.811
0
LINE
8
медь верх
10
7.800
20
-18.811
11
7.545
21
-18.811
0
LINE
8
медь верх
10
7.118
20
-18.811
11
4.018
21
-18.811
0
LINE
8
медь верх
10
1.781
20
-18.811
11
0.262
21
-18.813
0
LINE
8
медь верх
10
-0.196
20
-18.813
11
-0.451
21
-18.813
0
LINE
8
медь верх
10
-9.117
20
-18.813
11
-9.496
21
-18.813
0
LINE
8
медь верх
10
-11.303
20
-18.813
11
-11.681
21
-18.813
0
LINE
8
медь верх
10
11.749
20
-18.771
11
11.361
21
-18.771
0
LINE
8
медь верх
10
9.547
20
-18.771
11
8.259
21
-18.771
0
LINE
8
медь верх
10
7.800
20
-18.771
11
7.545
21
-18.771
0
LINE
8
медь верх
10
7.118
20
-18.771
11
3.978
21
-18.772
0
LINE
8
медь верх
10
1.821
20
-18.772
11
0.262
21
-18.772
0
LINE
8
медь верх
10
-0.196
20
-18.772
11
-0.451
21
-18.772
0
LINE
8
медь верх
10
-9.148
20
-18.773
11
-9.536
21
-18.773
0
LINE
8
медь верх
10
-11.264
20
-18.773
11
-11.651
21
-18.773
0
LINE
8
медь верх
10
11.708
20
-18.730
11
11.321
21
-18.730
0
LINE
8
медь верх
10
9.506
20
-18.730
11
8.259
21
-18.731
0
LINE
8
медь верх
10
7.800
20
-18.731
11
7.545
21
-18.731
0
LINE
8
медь верх
10
7.118
20
-18.731
11
3.937
21
-18.731
0
LINE
8
медь верх
10
1.861
20
-18.731
11
0.262
21
-18.731
0
LINE
8
медь верх
10
-0.196
20
-18.731
11
-0.451
21
-18.731
0
LINE
8
медь верх
10
-1.527
20
-18.731
11
-1.861
21
-18.731
0
LINE
8
медь верх
10
-3.938
20
-18.731
11
-4.272
21
-18.731
0
LINE
8
медь верх
10
-9.188
20
-18.733
11
-9.576
21
-18.733
0
LINE
8
медь верх
10
-11.223
20
-18.733
11
-11.610
21
-18.733
0
LINE
8
медь верх
10
11.667
20
-18.691
11
11.280
21
-18.691
0
LINE
8
медь верх
10
9.465
20
-18.691
11
8.259
21
-18.691
0
LINE
8
медь верх
10
7.800
20
-18.691
11
7.545
21
-18.691
0
LINE
8
медь верх
10
7.118
20
-18.691
11
3.898
21
-18.691
0
LINE
8
медь верх
10
1.901
20
-18.691
11
0.262
21
-18.691
0
LINE
8
медь верх
10
-0.196
20
-18.691
11
-0.451
21
-18.691
0
LINE
8
медь верх
10
-1.533
20
-18.692
11
-1.901
21
-18.692
0
LINE
8
медь верх
10
-3.898
20
-18.692
11
-4.266
21
-18.692
0
LINE
8
медь верх
10
-9.229
20
-18.692
11
-9.616
21
-18.692
0
LINE
8
медь верх
10
-11.182
20
-18.692
11
-11.570
21
-18.692
0
LINE
8
медь верх
10
11.628
20
-18.650
11
11.240
21
-18.650
0
LINE
8
медь верх
10
9.425
20
-18.650
11
8.259
21
-18.650
0
LINE
8
медь верх
10
7.800
20
-18.650
11
7.544
21
-18.650
0
LINE
8
медь верх
10
7.118
20
-18.650
11
3.857
21
-18.650
0
LINE
8
медь верх
10
1.942
20
-18.651
11
0.262
21
-18.651
0
LINE
8
медь верх
10
-0.196
20
-18.651
11
-0.451
21
-18.651
0
LINE
8
медь верх
10
-1.574
20
-18.651
11
-1.942
21
-18.651
0
LINE
8
медь верх
10
-3.857
20
-18.651
11
-4.225
21
-18.651
0
LINE
8
медь верх
10
-9.268
20
-18.651
11
-9.657
21
-18.652
0
LINE
8
медь верх
10
-11.142
20
-18.652
11
-11.530
21
-18.652
0
LINE
8
медь верх
10
11.587
20
-18.609
11
11.200
21
-18.609
0
LINE
8
медь верх
10
9.385
20
-18.609
11
8.259
21
-18.609
0
LINE
8
медь верх
10
7.800
20
-18.609
11
7.536
21
-18.609
0
LINE
8
медь верх
10
7.118
20
-18.611
11
0.262
21
-18.611
0
LINE
8
медь верх
10
-0.196
20
-18.611
11
-0.451
21
-18.611
0
LINE
8
медь верх
10
-1.613
20
-18.611
11
-4.186
21
-18.611
0
LINE
8
медь верх
10
-9.309
20
-18.612
11
-9.696
21
-18.612
0
LINE
8
медь верх
10
-11.102
20
-18.612
11
-11.490
21
-18.612
0
LINE
8
медь верх
10
11.547
20
-18.569
11
11.159
21
-18.569
0
LINE
8
медь верх
10
9.345
20
-18.570
11
8.259
21
-18.570
0
LINE
8
медь верх
10
7.800
20
-18.570
11
7.511
21
-18.570
0
LINE
8
медь верх
10
7.118
20
-18.570
11
0.262
21
-18.570
0
LINE
8
медь верх
10
-0.196
20
-18.570
11
-0.451
21
-18.570
0
LINE
8
медь верх
10
-1.654
20
-18.570
11
-4.145
21
-18.571
0
LINE
8
медь верх
10
-9.350
20
-18.571
11
-9.737
21
-18.571
0
LINE
8
медь верх
10
-11.062
20
-18.571
11
-11.449
21
-18.571
0
LINE
8
медь верх
10
11.506
20
-18.529
11
11.119
21
-18.529
0
LINE
8
медь верх
10
9.304
20
-18.529
11
8.259
21
-18.529
0
LINE
8
медь верх
10
7.800
20
-18.529
11
7.473
21
-18.529
0
LINE
8
медь верх
10
7.118
20
-18.529
11
0.262
21
-18.531
0
LINE
8
медь верх
10
-0.196
20
-18.531
11
-0.451
21
-18.531
0
LINE
8
медь верх
10
-1.694
20
-18.531
11
-4.105
21
-18.531
0
LINE
8
медь верх
10
-9.390
20
-18.531
11
-9.778
21
-18.531
0
LINE
8
медь верх
10
-11.021
20
-18.532
11
-11.410
21
-18.532
0
LINE
8
медь верх
10
11.467
20
-18.489
11
11.079
21
-18.489
0
LINE
8
медь верх
10
9.265
20
-18.489
11
8.259
21
-18.489
0
LINE
8
медь верх
10
7.793
20
-18.489
11
7.432
21
-18.489
0
LINE
8
медь верх
10
7.118
20
-18.489
11
0.262
21
-18.490
0
LINE
8
медь верх
10
-0.196
20
-18.490
11
-0.451
21
-18.490
0
LINE
8
медь верх
10
-1.734
20
-18.490
11
-4.065
21
-18.490
0
LINE
8
медь верх
10
-9.430
20
-18.491
11
-9.817
21
-18.491
0
LINE
8
медь верх
10
-10.982
20
-18.491
11
-11.369
21
-18.491
0
LINE
8
медь верх
10
11.426
20
-18.448
11
11.039
21
-18.448
0
LINE
8
медь верх
10
9.959
20
-18.448
11
9.873
21
-18.449
0
LINE
8
медь верх
10
9.224
20
-18.449
11
8.259
21
-18.449
0
LINE
8
медь верх
10
7.752
20
-18.449
11
7.391
21
-18.449
0
LINE
8
медь верх
10
7.126
20
-18.449
11
0.262
21
-18.449
0
LINE
8
медь верх
10
-0.196
20
-18.449
11
-0.451
21
-18.449
0
LINE
8
медь верх
10
-1.769
20
-18.449
11
-4.030
21
-18.451
0
LINE
8
медь верх
10
-9.470
20
-18.451
11
-9.858
21
-18.451
0
LINE
8
медь верх
10
-10.941
20
-18.451
11
-11.328
21
-18.451
0
LINE
8
медь верх
10
11.386
20
-18.409
11
10.998
21
-18.409
0
LINE
8
медь верх
10
10.000
20
-18.409
11
9.834
21
-18.409
0
LINE
8
медь верх
10
9.183
20
-18.409
11
8.259
21
-18.409
0
LINE
8
медь верх
10
7.711
20
-18.409
11
7.352
21
-18.409
0
LINE
8
медь верх
10
7.146
20
-18.409
11
0.262
21
-18.410
0
LINE
8
медь верх
10
-0.196
20
-18.410
11
-0.451
21
-18.410
0
LINE
8
медь верх
10
-1.791
20
-18.410
11
-4.008
21
-18.410
0
LINE
8
медь верх
10
-9.511
20
-18.410
11
-9.898
21
-18.410
0
LINE
8
медь верх
10
-10.900
20
-18.410
11
-11.288
21
-18.410
0
LINE
8
медь верх
10
11.346
20
-18.368
11
9.793
21
-18.368
0
LINE
8
медь верх
10
9.144
20
-18.368
11
8.252
21
-18.368
0
LINE
8
медь верх
10
7.672
20
-18.368
11
7.299
21
-18.368
0
LINE
8
медь верх
10
7.193
20
-18.368
11
0.262
21
-18.369
0
LINE
8
медь верх
10
-0.196
20
-18.369
11
-0.451
21
-18.369
0
LINE
8
медь верх
10
-1.796
20
-18.369
11
-4.002
21
-18.369
0
LINE
8
медь верх
10
-9.550
20
-18.371
11
-9.938
21
-18.371
0
LINE
8
медь верх
10
-10.861
20
-18.371
11
-11.248
21
-18.371
0
LINE
8
медь верх
10
11.306
20
-18.327
11
9.752
21
-18.327
0
LINE
8
медь верх
10
9.103
20
-18.327
11
8.245
21
-18.329
0
LINE
8
медь верх
10
7.631
20
-18.329
11
0.262
21
-18.329
0
LINE
8
медь верх
10
-0.196
20
-18.329
11
-0.451
21
-18.329
0
LINE
8
медь верх
10
-1.788
20
-18.329
11
-4.011
21
-18.330
0
LINE
8
медь верх
10
-9.591
20
-18.330
11
-10.170
21
-18.330
0
LINE
8
медь верх
10
-10.629
20
-18.330
11
-11.208
21
-18.330
0
LINE
8
медь верх
10
11.265
20
-18.288
11
9.713
21
-18.288
0
LINE
8
медь верх
10
9.063
20
-18.288
11
8.225
21
-18.288
0
LINE
8
медь верх
10
7.591
20
-18.288
11
0.262
21
-18.288
0
LINE
8
медь верх
10
-0.196
20
-18.289
11
-0.451
21
-18.289
0
LINE
8
медь верх
10
-1.763
20
-18.289
11
-4.035
21
-18.289
0
LINE
8
медь верх
10
-9.632
20
-18.289
11
-10.170
21
-18.289
0
LINE
8
медь верх
10
-10.629
20
-18.289
11
-11.167
21
-18.289
0
LINE
8
медь верх
10
11.226
20
-18.247
11
9.672
21
-18.247
0
LINE
8
медь верх
10
9.023
20
-18.247
11
8.198
21
-18.247
0
LINE
8
медь верх
10
7.551
20
-18.247
11
0.262
21
-18.249
0
LINE
8
медь верх
10
-0.196
20
-18.249
11
-0.451
21
-18.249
0
LINE
8
медь верх
10
-1.725
20
-18.249
11
-4.074
21
-18.249
0
LINE
8
медь верх
10
-9.671
20
-18.250
11
-10.170
21
-18.250
0
LINE
8
медь верх
10
-10.629
20
-18.250
11
-11.128
21
-18.250
0
LINE
8
медь верх
10
11.185
20
-18.207
11
9.632
21
-18.207
0
LINE
8
медь верх
10
8.983
20
-18.207
11
8.160
21
-18.207
0
LINE
8
медь верх
10
7.511
20
-18.208
11
0.262
21
-18.208
0
LINE
8
медь верх
10
-0.196
20
-18.208
11
-0.451
21
-18.208
0
LINE
8
медь верх
10
-1.684
20
-18.208
11
-4.114
21
-18.208
0
LINE
8
медь верх
10
-9.712
20
-18.209
11
-10.170
21
-18.209
0
LINE
8
медь верх
10
-10.629
20
-18.209
11
-11.087
21
-18.209
0
LINE
8
медь верх
10
11.144
20
-18.167
11
9.591
21
-18.167
0
LINE
8
медь верх
10
8.942
20
-18.167
11
8.120
21
-18.167
0
LINE
8
медь верх
10
7.470
20
-18.167
11
0.262
21
-18.167
0
LINE
8
медь верх
10
-0.196
20
-18.167
11
-0.451
21
-18.167
0
LINE
8
медь верх
10
-1.645
20
-18.169
11
-4.154
21
-18.169
0
LINE
8
медь верх
10
-9.752
20
-18.169
11
-10.170
21
-18.169
0
LINE
8
медь верх
10
-10.629
20
-18.169
11
-11.046
21
-18.169
0
LINE
8
медь верх
10
11.105
20
-18.127
11
9.552
21
-18.127
0
LINE
8
медь верх
10
8.901
20
-18.127
11
8.080
21
-18.127
0
LINE
8
медь верх
10
7.431
20
-18.127
11
6.796
21
-18.127
0
LINE
8
медь верх
10
5.883
20
-18.127
11
0.262
21
-18.128
0
LINE
8
медь верх
10
-0.196
20
-18.128
11
-0.451
21
-18.128
0
LINE
8
медь верх
10
-1.604
20
-18.128
11
-4.195
21
-18.128
0
LINE
8
медь верх
10
-9.793
20
-18.128
11
-10.170
21
-18.129
0
LINE
8
медь верх
10
-10.629
20
-18.129
11
-11.007
21
-18.129
0
LINE
8
медь верх
10
9.874
20
-18.086
11
9.511
21
-18.086
0
LINE
8
медь верх
10
8.862
20
-18.086
11
8.039
21
-18.086
0
LINE
8
медь верх
10
7.390
20
-18.086
11
6.836
21
-18.086
0
LINE
8
медь верх
10
5.842
20
-18.087
11
3.848
21
-18.087
0
LINE
8
медь верх
10
1.951
20
-18.087
11
0.262
21
-18.087
0
LINE
8
медь верх
10
-0.196
20
-18.087
11
-0.451
21
-18.087
0
LINE
8
медь верх
10
-1.563
20
-18.087
11
-1.951
21
-18.087
0
LINE
8
медь верх
10
-3.847
20
-18.087
11
-4.234
21
-18.087
0
LINE
8
медь верх
10
-9.864
20
-18.089
11
-10.170
21
-18.089
0
LINE
8
медь верх
10
-10.629
20
-18.089
11
-10.935
21
-18.089
0
LINE
8
медь верх
10
9.831
20
-18.047
11
9.470
21
-18.047
0
LINE
8
медь верх
10
8.821
20
-18.047
11
8.000
21
-18.047
0
LINE
8
медь верх
10
7.349
20
-18.047
11
6.866
21
-18.047
0
LINE
8
медь верх
10
5.813
20
-18.047
11
3.889
21
-18.047
0
LINE
8
медь верх
10
1.910
20
-18.047
11
0.262
21
-18.047
0
LINE
8
медь верх
10
-0.196
20
-18.047
11
-0.451
21
-18.047
0
LINE
8
медь верх
10
-1.524
20
-18.047
11
-1.911
21
-18.047
0
LINE
8
медь верх
10
-3.887
20
-18.048
11
-4.275
21
-18.048
0
LINE
8
медь верх
10
-9.898
20
-18.048
11
-10.170
21
-18.048
0
LINE
8
медь верх
10
-10.629
20
-18.048
11
-10.900
21
-18.048
0
LINE
8
медь верх
10
9.790
20
-18.006
11
9.431
21
-18.006
0
LINE
8
медь верх
10
8.781
20
-18.006
11
7.959
21
-18.006
0
LINE
8
медь верх
10
7.310
20
-18.006
11
6.866
21
-18.006
0
LINE
8
медь верх
10
5.813
20
-18.006
11
3.928
21
-18.006
0
LINE
8
медь верх
10
1.871
20
-18.006
11
0.263
21
-18.007
0
LINE
8
медь верх
10
-0.196
20
-18.007
11
-0.451
21
-18.007
0
LINE
8
медь верх
10
-1.521
20
-18.007
11
-1.871
21
-18.007
0
LINE
8
медь верх
10
-3.928
20
-18.007
11
-4.277
21
-18.007
0
LINE
8
медь верх
10
-9.911
20
-18.007
11
-10.170
21
-18.007
0
LINE
8
медь верх
10
-10.629
20
-18.007
11
-10.888
21
-18.007
0
LINE
8
медь верх
10
9.751
20
-17.965
11
9.390
21
-17.965
0
LINE
8
медь верх
10
8.741
20
-17.965
11
7.918
21
-17.965
0
LINE
8
медь верх
10
1.830
20
-17.967
11
0.263
21
-17.967
0
LINE
8
медь верх
10
-0.196
20
-17.967
11
-0.451
21
-17.967
0
LINE
8
медь верх
10
-1.521
20
-17.967
11
-1.830
21
-17.967
0
LINE
8
медь верх
10
-3.967
20
-17.967
11
-4.277
21
-17.967
0
LINE
8
медь верх
10
-9.915
20
-17.968
11
-10.170
21
-17.968
0
LINE
8
медь верх
10
-10.629
20
-17.968
11
-10.884
21
-17.968
0
LINE
8
медь верх
10
9.710
20
-17.925
11
9.350
21
-17.925
0
LINE
8
медь верх
10
8.701
20
-17.926
11
7.878
21
-17.926
0
LINE
8
медь верх
10
1.789
20
-17.926
11
0.263
21
-17.926
0
LINE
8
медь верх
10
-0.196
20
-17.926
11
-0.451
21
-17.926
0
LINE
8
медь верх
10
-1.521
20
-17.926
11
-1.791
21
-17.926
0
LINE
8
медь верх
10
-4.008
20
-17.927
11
-4.277
21
-17.927
0
LINE
8
медь верх
10
-9.915
20
-17.927
11
-10.170
21
-17.927
0
LINE
8
медь верх
10
-10.629
20
-17.927
11
-10.884
21
-17.927
0
LINE
8
медь верх
10
9.670
20
-17.885
11
9.310
21
-17.885
0
LINE
8
медь верх
10
8.660
20
-17.885
11
7.838
21
-17.885
0
LINE
8
медь верх
10
1.772
20
-17.885
11
0.263
21
-17.887
0
LINE
8
медь верх
10
-0.196
20
-17.887
11
-0.451
21
-17.887
0
LINE
8
медь верх
10
-1.521
20
-17.887
11
-1.772
21
-17.887
0
LINE
8
медь верх
10
-4.027
20
-17.887
11
-4.277
21
-17.887
0
LINE
8
медь верх
10
-9.915
20
-17.887
11
-10.170
21
-17.887
0
LINE
8
медь верх
10
-10.629
20
-17.887
11
-10.884
21
-17.887
0
LINE
8
медь верх
10
9.630
20
-17.845
11
9.270
21
-17.845
0
LINE
8
медь верх
10
8.621
20
-17.845
11
7.798
21
-17.845
0
LINE
8
медь верх
10
1.772
20
-17.846
11
0.263
21
-17.846
0
LINE
8
медь верх
10
-0.196
20
-17.846
11
-0.451
21
-17.846
0
LINE
8
медь верх
10
-1.521
20
-17.846
11
-1.772
21
-17.846
0
LINE
8
медь верх
10
-4.027
20
-17.846
11
-4.277
21
-17.846
0
LINE
8
медь верх
10
-9.915
20
-17.847
11
-10.170
21
-17.847
0
LINE
8
медь верх
10
-10.629
20
-17.847
11
-10.884
21
-17.847
0
LINE
8
медь верх
10
9.590
20
-17.804
11
9.229
21
-17.804
0
LINE
8
медь верх
10
8.580
20
-17.804
11
7.757
21
-17.805
0
LINE
8
медь верх
10
1.772
20
-17.805
11
0.263
21
-17.805
0
LINE
8
медь верх
10
-0.196
20
-17.805
11
-0.451
21
-17.805
0
LINE
8
медь верх
10
-1.521
20
-17.805
11
-1.772
21
-17.805
0
LINE
8
медь верх
10
-4.027
20
-17.805
11
-4.277
21
-17.805
0
LINE
8
медь верх
10
-9.915
20
-17.807
11
-10.170
21
-17.807
0
LINE
8
медь верх
10
-10.629
20
-17.807
11
-10.884
21
-17.807
0
LINE
8
медь верх
10
9.549
20
-17.765
11
9.190
21
-17.765
0
LINE
8
медь верх
10
8.539
20
-17.765
11
7.718
21
-17.765
0
LINE
8
медь верх
10
1.772
20
-17.765
11
0.263
21
-17.765
0
LINE
8
медь верх
10
-0.196
20
-17.765
11
-0.451
21
-17.765
0
LINE
8
медь верх
10
-1.521
20
-17.766
11
-1.772
21
-17.766
0
LINE
8
медь верх
10
-4.027
20
-17.766
11
-4.277
21
-17.766
0
LINE
8
медь верх
10
-9.915
20
-17.766
11
-10.170
21
-17.766
0
LINE
8
медь верх
10
-10.629
20
-17.766
11
-10.884
21
-17.766
0
LINE
8
медь верх
10
9.510
20
-17.724
11
9.149
21
-17.724
0
LINE
8
медь верх
10
8.500
20
-17.724
11
7.677
21
-17.724
0
LINE
8
медь верх
10
1.772
20
-17.725
11
0.263
21
-17.725
0
LINE
8
медь верх
10
-0.196
20
-17.725
11
-0.451
21
-17.725
0
LINE
8
медь верх
10
-1.521
20
-17.725
11
-1.772
21
-17.725
0
LINE
8
медь верх
10
-4.027
20
-17.725
11
-4.277
21
-17.725
0
LINE
8
медь верх
10
-5.888
20
-17.725
11
-6.133
21
-17.725
0
LINE
8
медь верх
10
-7.186
20
-17.725
11
-7.432
21
-17.725
0
LINE
8
медь верх
10
-9.915
20
-17.727
11
-10.170
21
-17.727
0
LINE
8
медь верх
10
-10.629
20
-17.727
11
-10.884
21
-17.727
0
LINE
8
медь верх
10
9.469
20
-17.683
11
9.108
21
-17.683
0
LINE
8
медь верх
10
8.459
20
-17.683
11
7.637
21
-17.683
0
LINE
8
медь верх
10
1.772
20
-17.685
11
0.263
21
-17.685
0
LINE
8
медь верх
10
-0.196
20
-17.685
11
-0.451
21
-17.685
0
LINE
8
медь верх
10
-1.521
20
-17.685
11
-1.772
21
-17.685
0
LINE
8
медь верх
10
-4.027
20
-17.685
11
-4.277
21
-17.685
0
LINE
8
медь верх
10
-5.888
20
-17.686
11
-6.133
21
-17.686
0
LINE
8
медь верх
10
-7.186
20
-17.686
11
-7.432
21
-17.686
0
LINE
8
медь верх
10
-9.915
20
-17.686
11
-10.170
21
-17.686
0
LINE
8
медь верх
10
-10.629
20
-17.686
11
-10.884
21
-17.686
0
LINE
8
медь верх
10
9.428
20
-17.644
11
9.068
21
-17.644
0
LINE
8
медь верх
10
8.419
20
-17.644
11
7.597
21
-17.644
0
LINE
8
медь верх
10
1.772
20
-17.644
11
0.263
21
-17.644
0
LINE
8
медь верх
10
-0.196
20
-17.644
11
-0.451
21
-17.644
0
LINE
8
медь верх
10
-1.521
20
-17.644
11
-1.772
21
-17.644
0
LINE
8
медь верх
10
-4.027
20
-17.645
11
-4.277
21
-17.645
0
LINE
8
медь верх
10
-5.888
20
-17.645
11
-6.133
21
-17.645
0
LINE
8
медь верх
10
-7.186
20
-17.645
11
-7.432
21
-17.645
0
LINE
8
медь верх
10
-9.915
20
-17.645
11
-10.170
21
-17.645
0
LINE
8
медь верх
10
-10.629
20
-17.645
11
-10.884
21
-17.645
0
LINE
8
медь верх
10
9.388
20
-17.603
11
9.028
21
-17.603
0
LINE
8
медь верх
10
8.378
20
-17.603
11
7.556
21
-17.603
0
LINE
8
медь верх
10
1.772
20
-17.605
11
0.263
21
-17.605
0
LINE
8
медь верх
10
-0.196
20
-17.605
11
-0.451
21
-17.605
0
LINE
8
медь верх
10
-1.521
20
-17.605
11
-1.772
21
-17.605
0
LINE
8
медь верх
10
-4.027
20
-17.605
11
-4.277
21
-17.605
0
LINE
8
медь верх
10
-5.888
20
-17.605
11
-6.149
21
-17.605
0
LINE
8
медь верх
10
-7.169
20
-17.605
11
-7.432
21
-17.605
0
LINE
8
медь верх
10
-9.915
20
-17.605
11
-10.170
21
-17.605
0
LINE
8
медь верх
10
-10.629
20
-17.606
11
-10.884
21
-17.606
0
LINE
8
медь верх
10
9.348
20
-17.563
11
8.988
21
-17.563
0
LINE
8
медь верх
10
8.339
20
-17.563
11
7.510
21
-17.563
0
LINE
8
медь верх
10
1.778
20
-17.564
11
0.263
21
-17.564
0
LINE
8
медь верх
10
-0.196
20
-17.564
11
-0.451
21
-17.564
0
LINE
8
медь верх
10
-1.521
20
-17.564
11
-1.778
21
-17.564
0
LINE
8
медь верх
10
-4.021
20
-17.564
11
-4.277
21
-17.564
0
LINE
8
медь верх
10
-5.888
20
-17.564
11
-6.190
21
-17.564
0
LINE
8
медь верх
10
-7.130
20
-17.565
11
-7.432
21
-17.565
0
LINE
8
медь верх
10
-9.906
20
-17.565
11
-10.170
21
-17.565
0
LINE
8
медь верх
10
-10.629
20
-17.565
11
-10.884
21
-17.565
0
LINE
8
медь верх
10
9.308
20
-17.523
11
8.947
21
-17.523
0
LINE
8
медь верх
10
8.298
20
-17.523
11
7.435
21
-17.523
0
LINE
8
медь верх
10
1.819
20
-17.523
11
0.263
21
-17.523
0
LINE
8
медь верх
10
-0.196
20
-17.523
11
-0.451
21
-17.523
0
LINE
8
медь верх
10
-1.521
20
-17.523
11
-1.819
21
-17.523
0
LINE
8
медь верх
10
-3.980
20
-17.525
11
-4.277
21
-17.525
0
LINE
8
медь верх
10
-5.888
20
-17.525
11
-6.229
21
-17.525
0
LINE
8
медь верх
10
-7.089
20
-17.525
11
-7.432
21
-17.525
0
LINE
8
медь верх
10
-9.882
20
-17.525
11
-10.170
21
-17.525
0
LINE
8
медь верх
10
-10.629
20
-17.525
11
-10.884
21
-17.525
0
LINE
8
медь верх
10
9.267
20
-17.483
11
8.908
21
-17.483
0
LINE
8
медь верх
10
8.258
20
-17.483
11
6.866
21
-17.483
0
LINE
8
медь верх
10
5.813
20
-17.483
11
3.940
21
-17.483
0
LINE
8
медь верх
10
1.859
20
-17.483
11
0.263
21
-17.484
0
LINE
8
медь верх
10
-0.196
20
-17.484
11
-0.451
21
-17.484
0
LINE
8
медь верх
10
-1.521
20
-17.484
11
-1.859
21
-17.484
0
LINE
8
медь верх
10
-3.941
20
-17.484
11
-4.277
21
-17.484
0
LINE
8
медь верх
10
-5.895
20
-17.484
11
-7.424
21
-17.484
0
LINE
8
медь верх
10
-9.844
20
-17.484
11
-10.170
21
-17.484
0
LINE
8
медь верх
10
-10.629
20
-17.484
11
-10.884
21
-17.484
0
LINE
8
медь верх
10
9.228
20
-17.442
11
8.867
21
-17.442
0
LINE
8
медь верх
10
8.218
20
-17.442
11
6.866
21
-17.442
0
LINE
8
медь верх
10
5.813
20
-17.442
11
3.899
21
-17.443
0
LINE
8
медь верх
10
1.900
20
-17.443
11
0.263
21
-17.443
0
LINE
8
медь верх
10
-0.196
20
-17.443
11
-0.451
21
-17.443
0
LINE
8
медь верх
10
-1.521
20
-17.443
11
-1.899
21
-17.443
0
LINE
8
медь верх
10
-3.900
20
-17.443
11
-4.277
21
-17.443
0
LINE
8
медь верх
10
-5.936
20
-17.443
11
-7.384
21
-17.443
0
LINE
8
медь верх
10
-9.803
20
-17.445
11
-10.164
21
-17.445
0
LINE
8
медь верх
10
-10.629
20
-17.445
11
-10.884
21
-17.445
0
LINE
8
медь верх
10
9.187
20
-17.402
11
8.826
21
-17.402
0
LINE
8
медь верх
10
8.178
20
-17.403
11
6.847
21
-17.403
0
LINE
8
медь верх
10
5.832
20
-17.403
11
3.860
21
-17.403
0
LINE
8
медь верх
10
1.939
20
-17.403
11
0.263
21
-17.403
0
LINE
8
медь верх
10
-0.196
20
-17.403
11
-0.451
21
-17.403
0
LINE
8
медь верх
10
-1.552
20
-17.403
11
-1.939
21
-17.403
0
LINE
8
медь верх
10
-3.860
20
-17.403
11
-4.247
21
-17.404
0
LINE
8
медь верх
10
-5.975
20
-17.404
11
-7.343
21
-17.404
0
LINE
8
медь верх
10
-9.764
20
-17.404
11
-10.123
21
-17.404
0
LINE
8
медь верх
10
-10.629
20
-17.404
11
-10.884
21
-17.404
0
LINE
8
медь верх
10
9.147
20
-17.362
11
8.787
21
-17.362
0
LINE
8
медь верх
10
8.137
20
-17.362
11
6.807
21
-17.362
0
LINE
8
медь верх
10
5.872
20
-17.362
11
3.819
21
-17.362
0
LINE
8
медь верх
10
1.980
20
-17.362
11
0.263
21
-17.362
0
LINE
8
медь верх
10
-0.196
20
-17.363
11
-0.451
21
-17.363
0
LINE
8
медь верх
10
-1.593
20
-17.363
11
-1.980
21
-17.363
0
LINE
8
медь верх
10
-3.819
20
-17.363
11
-4.208
21
-17.363
0
LINE
8
медь верх
10
-6.016
20
-17.363
11
-7.304
21
-17.363
0
LINE
8
медь верх
10
-9.723
20
-17.363
11
-10.084
21
-17.363
0
LINE
8
медь верх
10
-10.629
20
-17.363
11
-10.883
21
-17.363
0
LINE
8
медь верх
10
9.107
20
-17.322
11
8.746
21
-17.322
0
LINE
8
медь верх
10
8.098
20
-17.322
11
6.767
21
-17.322
0
LINE
8
медь верх
10
5.912
20
-17.322
11
0.263
21
-17.323
0
LINE
8
медь верх
10
-0.196
20
-17.323
11
-0.451
21
-17.323
0
LINE
8
медь верх
10
-1.632
20
-17.323
11
-4.167
21
-17.323
0
LINE
8
медь верх
10
-6.057
20
-17.323
11
-7.263
21
-17.323
0
LINE
8
медь верх
10
-9.682
20
-17.324
11
-10.043
21
-17.324
0
LINE
8
медь верх
10
-10.622
20
-17.324
11
-10.875
21
-17.324
0
LINE
8
медь верх
10
9.067
20
-17.281
11
8.706
21
-17.281
0
LINE
8
медь верх
10
8.057
20
-17.281
11
0.263
21
-17.282
0
LINE
8
медь верх
10
-0.196
20
-17.282
11
-0.451
21
-17.282
0
LINE
8
медь верх
10
-1.673
20
-17.282
11
-4.126
21
-17.282
0
LINE
8
медь верх
10
-6.087
20
-17.283
11
-7.231
21
-17.283
0
LINE
8
медь верх
10
-9.643
20
-17.283
11
-10.003
21
-17.283
0
LINE
8
медь верх
10
-10.615
20
-17.283
11
-10.867
21
-17.283
0
LINE
8
медь верх
10
9.026
20
-17.242
11
8.666
21
-17.242
0
LINE
8
медь верх
10
8.016
20
-17.242
11
0.263
21
-17.242
0
LINE
8
медь верх
10
-0.196
20
-17.242
11
-0.451
21
-17.242
0
LINE
8
медь верх
10
-1.713
20
-17.243
11
-4.087
21
-17.243
0
LINE
8
медь верх
10
-6.101
20
-17.243
11
-7.217
21
-17.243
0
LINE
8
медь верх
10
-9.602
20
-17.243
11
-9.963
21
-17.243
0
LINE
8
медь верх
10
-10.596
20
-17.243
11
-10.858
21
-17.243
0
LINE
8
медь верх
10
8.987
20
-17.201
11
8.626
21
-17.201
0
LINE
8
медь верх
10
7.977
20
-17.201
11
0.263
21
-17.202
0
LINE
8
медь верх
10
-0.196
20
-17.202
11
-0.451
21
-17.202
0
LINE
8
медь верх
10
-1.753
20
-17.202
11
-4.046
21
-17.202
0
LINE
8
медь верх
10
-6.102
20
-17.202
11
-7.216
21
-17.202
0
LINE
8
медь верх
10
-9.562
20
-17.202
11
-9.923
21
-17.202
0
LINE
8
медь верх
10
-10.569
20
-17.203
11
-10.851
21
-17.203
0
LINE
8
медь верх
10
8.946
20
-17.160
11
8.585
21
-17.160
0
LINE
8
медь верх
10
7.936
20
-17.160
11
0.263
21
-17.162
0
LINE
8
медь верх
10
-0.196
20
-17.162
11
-0.451
21
-17.162
0
LINE
8
медь верх
10
-1.787
20
-17.162
11
-4.012
21
-17.162
0
LINE
8
медь верх
10
-6.090
20
-17.162
11
-7.229
21
-17.163
0
LINE
8
медь верх
10
-9.521
20
-17.163
11
-9.882
21
-17.163
0
LINE
8
медь верх
10
-10.532
20
-17.163
11
-10.839
21
-17.163
0
LINE
8
медь верх
10
8.905
20
-17.121
11
8.545
21
-17.121
0
LINE
8
медь верх
10
7.896
20
-17.121
11
0.263
21
-17.121
0
LINE
8
медь верх
10
-0.196
20
-17.121
11
-0.451
21
-17.121
0
LINE
8
медь верх
10
-1.806
20
-17.121
11
-3.993
21
-17.122
0
LINE
8
медь верх
10
-6.060
20
-17.122
11
-7.259
21
-17.122
0
LINE
8
медь верх
10
-9.482
20
-17.122
11
-9.842
21
-17.122
0
LINE
8
медь верх
10
-10.491
20
-17.122
11
-10.813
21
-17.122
0
LINE
8
медь верх
10
8.865
20
-17.080
11
8.505
21
-17.080
0
LINE
8
медь верх
10
7.855
20
-17.080
11
0.263
21
-17.081
0
LINE
8
медь верх
10
-0.196
20
-17.081
11
-0.451
21
-17.081
0
LINE
8
медь верх
10
-1.811
20
-17.081
11
-3.988
21
-17.081
0
LINE
8
медь верх
10
-6.020
20
-17.081
11
-7.299
21
-17.081
0
LINE
8
медь верх
10
-9.441
20
-17.081
11
-9.802
21
-17.081
0
LINE
8
медь верх
10
-10.451
20
-17.081
11
-10.785
21
-17.081
0
LINE
8
медь верх
10
8.825
20
-17.040
11
8.465
21
-17.040
0
LINE
8
медь верх
10
7.816
20
-17.040
11
0.263
21
-17.041
0
LINE
8
медь верх
10
-0.196
20
-17.041
11
-0.451
21
-17.041
0
LINE
8
медь верх
10
-1.803
20
-17.041
11
-3.995
21
-17.041
0
LINE
8
медь верх
10
-5.979
20
-17.041
11
-7.339
21
-17.041
0
LINE
8
медь верх
10
-9.401
20
-17.042
11
-9.761
21
-17.042
0
LINE
8
медь верх
10
-10.411
20
-17.042
11
-10.758
21
-17.042
0
LINE
8
медь верх
10
8.785
20
-17.000
11
8.424
21
-17.000
0
LINE
8
медь верх
10
7.775
20
-17.000
11
0.263
21
-17.000
0
LINE
8
медь верх
10
-0.196
20
-17.000
11
-0.451
21
-17.000
0
LINE
8
медь верх
10
-1.777
20
-17.000
11
-4.022
21
-17.001
0
LINE
8
медь верх
10
-5.939
20
-17.001
11
-7.380
21
-17.001
0
LINE
8
медь верх
10
-9.361
20
-17.001
11
-9.721
21
-17.001
0
LINE
8
медь верх
10
-10.371
20
-17.001
11
-10.732
21
-17.001
0
LINE
8
медь верх
10
8.744
20
-16.960
11
8.385
21
-16.960
0
LINE
8
медь верх
10
7.734
20
-16.960
11
0.263
21
-16.961
0
LINE
8
медь верх
10
-0.196
20
-16.961
11
-0.451
21
-16.961
0
LINE
8
медь верх
10
-1.736
20
-16.961
11
-4.063
21
-16.961
0
LINE
8
медь верх
10
-5.899
20
-16.961
11
-7.419
21
-16.961
0
LINE
8
медь верх
10
-9.321
20
-16.961
11
-9.681
21
-16.961
0
LINE
8
медь верх
10
-10.330
20
-16.961
11
-10.691
21
-16.961
0
LINE
8
медь верх
10
8.705
20
-16.919
11
8.344
21
-16.919
0
LINE
8
медь верх
10
7.695
20
-16.919
11
0.263
21
-16.920
0
LINE
8
медь верх
10
-0.196
20
-16.920
11
-0.451
21
-16.920
0
LINE
8
медь верх
10
-1.697
20
-16.920
11
-9.641
21
-16.921
0
LINE
8
медь верх
10
-10.290
20
-16.921
11
-10.650
21
-16.921
0
LINE
8
медь верх
10
8.664
20
-16.878
11
8.303
21
-16.878
0
LINE
8
медь верх
10
7.654
20
-16.880
11
0.263
21
-16.880
0
LINE
8
медь верх
10
-0.196
20
-16.880
11
-0.451
21
-16.880
0
LINE
8
медь верх
10
-1.656
20
-16.880
11
-6.205
21
-16.881
0
LINE
8
медь верх
10
-7.113
20
-16.881
11
-9.600
21
-16.881
0
LINE
8
медь верх
10
-10.250
20
-16.881
11
-10.611
21
-16.881
0
LINE
8
медь верх
10
8.623
20
-16.839
11
8.264
21
-16.839
0
LINE
8
медь верх
10
7.614
20
-16.839
11
6.784
21
-16.839
0
LINE
8
медь верх
10
5.894
20
-16.839
11
0.263
21
-16.839
0
LINE
8
медь верх
10
-0.196
20
-16.839
11
-0.451
21
-16.839
0
LINE
8
медь верх
10
-1.615
20
-16.840
11
-6.166
21
-16.840
0
LINE
8
медь верх
10
-7.153
20
-16.840
11
-9.561
21
-16.840
0
LINE
8
медь верх
10
-10.210
20
-16.840
11
-10.570
21
-16.840
0
LINE
8
медь верх
10
8.584
20
-16.798
11
8.223
21
-16.798
0
LINE
8
медь верх
10
7.574
20
-16.798
11
6.824
21
-16.798
0
LINE
8
медь верх
10
5.853
20
-16.798
11
3.837
21
-16.798
0
LINE
8
медь верх
10
1.962
20
-16.800
11
0.263
21
-16.800
0
LINE
8
медь верх
10
-0.196
20
-16.800
11
-0.451
21
-16.800
0
LINE
8
медь верх
10
-1.576
20
-16.800
11
-1.963
21
-16.800
0
LINE
8
медь верх
10
-3.835
20
-16.800
11
-6.133
21
-16.800
0
LINE
8
медь верх
10
-7.186
20
-16.800
11
-9.520
21
-16.800
0
LINE
8
медь верх
10
-10.169
20
-16.801
11
-10.530
21
-16.801
0
LINE
8
медь верх
10
8.543
20
-16.758
11
8.183
21
-16.758
0
LINE
8
медь верх
10
7.534
20
-16.758
11
6.864
21
-16.759
0
LINE
8
медь верх
10
5.814
20
-16.759
11
3.876
21
-16.759
0
LINE
8
медь верх
10
1.923
20
-16.759
11
0.263
21
-16.759
0
LINE
8
медь верх
10
-0.196
20
-16.759
11
-0.451
21
-16.759
0
LINE
8
медь верх
10
-1.535
20
-16.759
11
-1.923
21
-16.759
0
LINE
8
медь верх
10
-3.876
20
-16.759
11
-6.133
21
-16.760
0
LINE
8
медь верх
10
-7.186
20
-16.760
11
-9.479
21
-16.760
0
LINE
8
медь верх
10
-10.130
20
-16.760
11
-10.489
21
-16.760
0
LINE
8
медь верх
10
8.503
20
-16.718
11
8.143
21
-16.718
0
LINE
8
медь верх
10
7.493
20
-16.718
11
6.866
21
-16.718
0
LINE
8
медь верх
10
5.813
20
-16.718
11
3.917
21
-16.718
0
LINE
8
медь верх
10
1.882
20
-16.718
11
0.263
21
-16.718
0
LINE
8
медь верх
10
-0.196
20
-16.718
11
-0.451
21
-16.718
0
LINE
8
медь верх
10
-1.521
20
-16.718
11
-1.882
21
-16.718
0
LINE
8
медь верх
10
-3.915
20
-16.720
11
-6.133
21
-16.720
0
LINE
8
медь верх
10
-7.186
20
-16.720
11
-9.440
21
-16.720
0
LINE
8
медь верх
10
-10.089
20
-16.720
11
-10.450
21
-16.720
0
LINE
8
медь верх
10
8.463
20
-16.678
11
8.103
21
-16.678
0
LINE
8
медь верх
10
7.454
20
-16.678
11
6.866
21
-16.678
0
LINE
8
медь верх
10
5.813
20
-16.678
11
3.957
21
-16.678
0
LINE
8
медь верх
10
1.841
20
-16.679
11
0.263
21
-16.679
0
LINE
8
медь верх
10
-0.196
20
-16.679
11
-0.451
21
-16.679
0
LINE
8
медь верх
10
-1.521
20
-16.679
11
-1.843
21
-16.679
0
LINE
8
медь верх
10
-3.956
20
-16.679
11
-6.133
21
-16.679
0
LINE
8
медь верх
10
-7.186
20
-16.679
11
-9.399
21
-16.679
0
LINE
8
медь верх
10
-10.048
20
-16.679
11
-10.409
21
-16.679
0
LINE
8
медь верх
10
8.423
20
-16.637
11
8.062
21
-16.637
0
LINE
8
медь верх
10
1.802
20
-16.638
11
0.263
21
-16.638
0
LINE
8
медь верх
10
-0.196
20
-16.638
11
-0.451
21
-16.638
0
LINE
8
медь верх
10
-1.521
20
-16.638
11
-1.802
21
-16.638
0
LINE
8
медь верх
10
-10.009
20
-16.640
11
-10.368
21
-16.640
0
LINE
8
медь верх
10
8.382
20
-16.598
11
8.021
21
-16.598
0
LINE
8
медь верх
10
1.772
20
-16.598
11
0.263
21
-16.598
0
LINE
8
медь верх
10
-0.196
20
-16.598
11
-0.451
21
-16.598
0
LINE
8
медь верх
10
-1.521
20
-16.598
11
-1.772
21
-16.598
0
LINE
8
медь верх
10
-9.968
20
-16.599
11
-10.329
21
-16.599
0
LINE
8
медь верх
10
8.341
20
-16.557
11
7.982
21
-16.557
0
LINE
8
медь верх
10
1.772
20
-16.557
11
0.263
21
-16.558
0
LINE
8
медь верх
10
-0.196
20
-16.558
11
-0.451
21
-16.558
0
LINE
8
медь верх
10
-1.521
20
-16.558
11
-1.772
21
-16.558
0
LINE
8
медь верх
10
-9.928
20
-16.558
11
-10.288
21
-16.558
0
LINE
8
медь верх
10
8.302
20
-16.516
11
7.941
21
-16.516
0
LINE
8
медь верх
10
1.772
20
-16.518
11
0.263
21
-16.518
0
LINE
8
медь верх
10
-0.196
20
-16.518
11
-0.451
21
-16.518
0
LINE
8
медь верх
10
-1.521
20
-16.518
11
-1.772
21
-16.518
0
LINE
8
медь верх
10
-9.887
20
-16.519
11
-10.248
21
-16.519
0
LINE
8
медь верх
10
8.261
20
-16.477
11
7.901
21
-16.477
0
LINE
8
медь верх
10
1.772
20
-16.477
11
0.263
21
-16.477
0
LINE
8
медь верх
10
-0.196
20
-16.477
11
-0.451
21
-16.477
0
LINE
8
медь верх
10
-1.521
20
-16.477
11
-1.772
21
-16.477
0
LINE
8
медь верх
10
-9.848
20
-16.478
11
-10.208
21
-16.478
0
LINE
8
медь верх
10
8.221
20
-16.436
11
7.861
21
-16.436
0
LINE
8
медь верх
10
1.772
20
-16.436
11
0.263
21
-16.436
0
LINE
8
медь верх
10
-0.196
20
-16.436
11
-0.451
21
-16.438
0
LINE
8
медь верх
10
-1.521
20
-16.438
11
-1.772
21
-16.438
0
LINE
8
медь верх
10
-9.807
20
-16.438
11
-10.168
21
-16.438
0
LINE
8
медь верх
10
8.181
20
-16.396
11
7.821
21
-16.396
0
LINE
8
медь верх
10
1.772
20
-16.397
11
0.263
21
-16.397
0
LINE
8
медь верх
10
-0.196
20
-16.397
11
-0.450
21
-16.397
0
LINE
8
медь верх
10
-1.521
20
-16.397
11
-1.772
21
-16.397
0
LINE
8
медь верх
10
-9.766
20
-16.398
11
-10.127
21
-16.398
0
LINE
8
медь верх
10
8.141
20
-16.355
11
7.780
21
-16.355
0
LINE
8
медь верх
10
1.772
20
-16.356
11
0.263
21
-16.356
0
LINE
8
медь верх
10
-0.196
20
-16.356
11
-0.450
21
-16.356
0
LINE
8
медь верх
10
-1.521
20
-16.356
11
-1.772
21
-16.356
0
LINE
8
медь верх
10
-9.727
20
-16.358
11
-10.086
21
-16.358
0
LINE
8
медь верх
10
8.100
20
-16.316
11
7.741
21
-16.316
0
LINE
8
медь верх
10
1.772
20
-16.316
11
0.263
21
-16.316
0
LINE
8
медь верх
10
-0.196
20
-16.316
11
-0.450
21
-16.316
0
LINE
8
медь верх
10
-1.521
20
-16.317
11
-1.772
21
-16.317
0
LINE
8
медь верх
10
-9.686
20
-16.317
11
-10.047
21
-16.317
0
LINE
8
медь верх
10
8.061
20
-16.275
11
7.699
21
-16.275
0
LINE
8
медь верх
10
1.772
20
-16.276
11
0.263
21
-16.276
0
LINE
8
медь верх
10
-0.196
20
-16.276
11
-0.450
21
-16.276
0
LINE
8
медь верх
10
-1.521
20
-16.276
11
-1.772
21
-16.276
0
LINE
8
медь верх
10
-9.646
20
-16.276
11
-10.006
21
-16.276
0
LINE
8
медь верх
10
8.020
20
-16.234
11
7.639
21
-16.234
0
LINE
8
медь верх
10
1.807
20
-16.236
11
0.263
21
-16.236
0
LINE
8
медь верх
10
-0.196
20
-16.236
11
-0.450
21
-16.236
0
LINE
8
медь верх
10
-1.521
20
-16.236
11
-1.806
21
-16.236
0
LINE
8
медь верх
10
-9.586
20
-16.237
11
-9.966
21
-16.237
0
LINE
8
медь верх
10
7.979
20
-16.195
11
6.866
21
-16.195
0
LINE
8
медь верх
10
5.813
20
-16.195
11
3.951
21
-16.195
0
LINE
8
медь верх
10
1.847
20
-16.195
11
0.263
21
-16.195
0
LINE
8
медь верх
10
-0.196
20
-16.195
11
-0.450
21
-16.195
0
LINE
8
медь верх
10
-1.521
20
-16.195
11
-1.847
21
-16.195
0
LINE
8
медь верх
10
-3.952
20
-16.196
11
-6.133
21
-16.196
0
LINE
8
медь верх
10
-7.186
20
-16.196
11
-9.926
21
-16.196
0
LINE
8
медь верх
10
7.940
20
-16.154
11
6.866
21
-16.154
0
LINE
8
медь верх
10
5.813
20
-16.154
11
3.912
21
-16.154
0
LINE
8
медь верх
10
1.887
20
-16.154
11
0.263
21
-16.156
0
LINE
8
медь верх
10
-0.196
20
-16.156
11
-0.450
21
-16.156
0
LINE
8
медь верх
10
-1.521
20
-16.156
11
-1.887
21
-16.156
0
LINE
8
медь верх
10
-3.912
20
-16.156
11
-6.133
21
-16.156
0
LINE
8
медь верх
10
-7.186
20
-16.156
11
-9.886
21
-16.156
0
LINE
8
медь верх
10
7.899
20
-16.114
11
6.858
21
-16.114
0
LINE
8
медь верх
10
5.819
20
-16.114
11
3.871
21
-16.115
0
LINE
8
медь верх
10
1.928
20
-16.115
11
0.263
21
-16.115
0
LINE
8
медь верх
10
-0.196
20
-16.115
11
-0.450
21
-16.115
0
LINE
8
медь верх
10
-1.539
20
-16.115
11
-1.928
21
-16.115
0
LINE
8
медь верх
10
-3.872
20
-16.115
11
-6.133
21
-16.115
0
LINE
8
медь верх
10
-7.186
20
-16.115
11
-9.845
21
-16.116
0
LINE
8
медь верх
10
7.844
20
-16.074
11
6.819
21
-16.074
0
LINE
8
медь верх
10
5.860
20
-16.074
11
3.830
21
-16.074
0
LINE
8
медь верх
10
1.968
20
-16.074
11
0.263
21
-16.074
0
LINE
8
медь верх
10
-0.196
20
-16.074
11
-0.450
21
-16.074
0
LINE
8
медь верх
10
-1.580
20
-16.074
11
-1.967
21
-16.074
0
LINE
8
медь верх
10
-3.832
20
-16.076
11
-6.133
21
-16.076
0
LINE
8
медь верх
10
-7.186
20
-16.076
11
-9.790
21
-16.076
0
LINE
8
медь верх
10
7.783
20
-16.034
11
6.778
21
-16.034
0
LINE
8
медь верх
10
5.900
20
-16.034
11
0.263
21
-16.034
0
LINE
8
медь верх
10
-0.196
20
-16.035
11
-0.450
21
-16.035
0
LINE
8
медь верх
10
-1.621
20
-16.035
11
-6.170
21
-16.035
0
LINE
8
медь верх
10
-7.150
20
-16.035
11
-9.729
21
-16.035
0
LINE
8
медь верх
10
7.720
20
-15.993
11
0.263
21
-15.994
0
LINE
8
медь верх
10
-0.196
20
-15.994
11
-0.450
21
-15.994
0
LINE
8
медь верх
10
-1.659
20
-15.994
11
-6.209
21
-15.994
0
LINE
8
медь верх
10
-7.109
20
-15.994
11
-9.670
21
-15.996
0
LINE
8
медь верх
10
7.238
20
-15.954
11
0.263
21
-15.954
0
LINE
8
медь верх
10
-0.196
20
-15.954
11
-0.450
21
-15.954
0
LINE
8
медь верх
10
-1.683
20
-15.954
11
-4.314
21
-15.954
0
LINE
8
медь верх
10
-5.812
20
-15.955
11
-6.430
21
-15.955
0
LINE
8
медь верх
10
-6.888
20
-15.955
11
-7.508
21
-15.955
0
LINE
8
медь верх
10
7.153
20
-15.913
11
0.263
21
-15.913
0
LINE
8
медь верх
10
-0.196
20
-15.913
11
-0.450
21
-15.913
0
LINE
8
медь верх
10
-1.692
20
-15.914
11
-4.225
21
-15.914
0
LINE
8
медь верх
10
-5.903
20
-15.914
11
-6.430
21
-15.914
0
LINE
8
медь верх
10
-6.888
20
-15.914
11
-7.417
21
-15.914
0
LINE
8
медь верх
10
7.127
20
-15.872
11
0.263
21
-15.874
0
LINE
8
медь верх
10
-0.196
20
-15.874
11
-0.450
21
-15.874
0
LINE
8
медь верх
10
-1.684
20
-15.874
11
-4.199
21
-15.874
0
LINE
8
медь верх
10
-5.942
20
-15.874
11
-6.430
21
-15.874
0
LINE
8
медь верх
10
-6.888
20
-15.874
11
-7.376
21
-15.874
0
LINE
8
медь верх
10
7.120
20
-15.832
11
0.263
21
-15.833
0
LINE
8
медь верх
10
-0.196
20
-15.833
11
-0.450
21
-15.833
0
LINE
8
медь верх
10
-1.664
20
-15.833
11
-4.191
21
-15.833
0
LINE
8
медь верх
10
-5.983
20
-15.834
11
-6.430
21
-15.834
0
LINE
8
медь верх
10
-6.888
20
-15.834
11
-7.336
21
-15.834
0
LINE
8
медь верх
10
7.118
20
-15.792
11
0.263
21
-15.792
0
LINE
8
медь верх
10
-0.196
20
-15.792
11
-0.450
21
-15.792
0
LINE
8
медь верх
10
-1.627
20
-15.792
11
-4.196
21
-15.794
0
LINE
8
медь верх
10
-6.024
20
-15.794
11
-6.430
21
-15.794
0
LINE
8
медь верх
10
-6.888
20
-15.794
11
-7.296
21
-15.794
0
LINE
8
медь верх
10
7.118
20
-15.752
11
0.263
21
-15.753
0
LINE
8
медь верх
10
-0.196
20
-15.753
11
-0.450
21
-15.753
0
LINE
8
медь верх
10
-1.587
20
-15.753
11
-4.216
21
-15.753
0
LINE
8
медь верх
10
-6.063
20
-15.753
11
-6.430
21
-15.753
0
LINE
8
медь верх
10
-6.888
20
-15.753
11
-7.256
21
-15.753
0
LINE
8
медь верх
10
7.118
20
-15.711
11
0.263
21
-15.712
0
LINE
8
медь верх
10
-0.196
20
-15.712
11
-0.450
21
-15.712
0
LINE
8
медь верх
10
-1.547
20
-15.712
11
-4.252
21
-15.712
0
LINE
8
медь верх
10
-6.104
20
-15.712
11
-6.430
21
-15.712
0
LINE
8
медь верх
10
-6.888
20
-15.712
11
-7.215
21
-15.714
0
LINE
8
медь верх
10
7.118
20
-15.672
11
0.263
21
-15.672
0
LINE
8
медь верх
10
-0.196
20
-15.672
11
-0.450
21
-15.672
0
LINE
8
медь верх
10
-1.523
20
-15.672
11
-4.276
21
-15.673
0
LINE
8
медь верх
10
-6.142
20
-15.673
11
-6.430
21
-15.673
0
LINE
8
медь верх
10
-6.888
20
-15.673
11
-7.177
21
-15.673
0
LINE
8
медь верх
10
7.118
20
-15.631
11
0.263
21
-15.632
0
LINE
8
медь верх
10
-0.196
20
-15.632
11
-0.450
21
-15.632
0
LINE
8
медь верх
10
-1.523
20
-15.632
11
-4.276
21
-15.632
0
LINE
8
медь верх
10
-6.166
20
-15.632
11
-6.430
21
-15.632
0
LINE
8
медь верх
10
-6.888
20
-15.632
11
-7.153
21
-15.632
0
LINE
8
медь верх
10
7.118
20
-15.591
11
0.263
21
-15.592
0
LINE
8
медь верх
10
-0.196
20
-15.592
11
-0.450
21
-15.592
0
LINE
8
медь верх
10
-1.523
20
-15.592
11
-4.276
21
-15.592
0
LINE
8
медь верх
10
-6.175
20
-15.592
11
-6.430
21
-15.592
0
LINE
8
медь верх
10
-6.888
20
-15.592
11
-7.145
21
-15.592
0
LINE
8
медь верх
10
7.118
20
-15.551
11
3.834
21
-15.551
0
LINE
8
медь верх
10
1.965
20
-15.551
11
0.263
21
-15.551
0
LINE
8
медь верх
10
-0.196
20
-15.551
11
-0.450
21
-15.551
0
LINE
8
медь верх
10
-1.523
20
-15.551
11
-1.774
21
-15.551
0
LINE
8
медь верх
10
-4.025
20
-15.551
11
-4.276
21
-15.552
0
LINE
8
медь верх
10
-6.175
20
-15.552
11
-6.430
21
-15.552
0
LINE
8
медь верх
10
-6.888
20
-15.552
11
-7.144
21
-15.552
0
LINE
8
медь верх
10
7.118
20
-15.511
11
3.875
21
-15.511
0
LINE
8
медь верх
10
1.924
20
-15.511
11
0.263
21
-15.511
0
LINE
8
медь верх
10
-0.196
20
-15.511
11
-0.450
21
-15.512
0
LINE
8
медь верх
10
-1.523
20
-15.512
11
-1.774
21
-15.512
0
LINE
8
медь верх
10
-4.025
20
-15.512
11
-4.276
21
-15.512
0
LINE
8
медь верх
10
-6.175
20
-15.512
11
-6.430
21
-15.512
0
LINE
8
медь верх
10
-6.888
20
-15.512
11
-7.144
21
-15.512
0
LINE
8
медь верх
10
7.118
20
-15.470
11
3.914
21
-15.470
0
LINE
8
медь верх
10
1.885
20
-15.471
11
0.263
21
-15.471
0
LINE
8
медь верх
10
-0.196
20
-15.471
11
-0.450
21
-15.471
0
LINE
8
медь верх
10
-1.523
20
-15.471
11
-1.774
21
-15.471
0
LINE
8
медь верх
10
-4.025
20
-15.471
11
-4.276
21
-15.471
0
LINE
8
медь верх
10
-6.175
20
-15.471
11
-6.430
21
-15.471
0
LINE
8
медь верх
10
-6.888
20
-15.471
11
-7.144
21
-15.471
0
LINE
8
медь верх
10
7.118
20
-15.431
11
3.955
21
-15.431
0
LINE
8
медь верх
10
1.844
20
-15.431
11
0.263
21
-15.431
0
LINE
8
медь верх
10
-0.196
20
-15.431
11
-0.450
21
-15.431
0
LINE
8
медь верх
10
-1.523
20
-15.431
11
-1.774
21
-15.431
0
LINE
8
медь верх
10
-4.025
20
-15.431
11
-4.276
21
-15.431
0
LINE
8
медь верх
10
-6.175
20
-15.432
11
-6.430
21
-15.432
0
LINE
8
медь верх
10
-6.888
20
-15.432
11
-7.144
21
-15.432
0
LINE
8
медь верх
10
7.118
20
-15.390
11
3.995
21
-15.390
0
LINE
8
медь верх
10
1.803
20
-15.390
11
0.263
21
-15.390
0
LINE
8
медь верх
10
-0.196
20
-15.390
11
-0.450
21
-15.390
0
LINE
8
медь верх
10
-1.523
20
-15.391
11
-1.774
21
-15.391
0
LINE
8
медь верх
10
-4.025
20
-15.391
11
-4.276
21
-15.391
0
LINE
8
медь верх
10
-6.175
20
-15.391
11
-6.430
21
-15.391
0
LINE
8
медь верх
10
-6.888
20
-15.391
11
-7.144
21
-15.391
0
LINE
8
медь верх
10
7.118
20
-15.349
11
4.027
21
-15.349
0
LINE
8
медь верх
10
1.772
20
-15.350
11
0.263
21
-15.350
0
LINE
8
медь верх
10
-0.196
20
-15.350
11
-0.450
21
-15.350
0
LINE
8
медь верх
10
-1.523
20
-15.350
11
-1.774
21
-15.350
0
LINE
8
медь верх
10
-4.025
20
-15.350
11
-4.276
21
-15.350
0
LINE
8
медь верх
10
-6.175
20
-15.350
11
-6.430
21
-15.350
0
LINE
8
медь верх
10
-6.888
20
-15.350
11
-7.144
21
-15.350
0
LINE
8
медь верх
10
7.117
20
-15.309
11
4.027
21
-15.310
0
LINE
8
медь верх
10
1.772
20
-15.310
11
0.263
21
-15.310
0
LINE
8
медь верх
10
-0.196
20
-15.310
11
-0.450
21
-15.310
0
LINE
8
медь верх
10
-1.523
20
-15.310
11
-1.774
21
-15.310
0
LINE
8
медь верх
10
-4.025
20
-15.310
11
-4.276
21
-15.310
0
LINE
8
медь верх
10
-6.175
20
-15.310
11
-6.430
21
-15.310
0
LINE
8
медь верх
10
-6.888
20
-15.311
11
-7.144
21
-15.311
0
LINE
8
медь верх
10
7.117
20
-15.269
11
4.027
21
-15.269
0
LINE
8
медь верх
10
1.772
20
-15.269
11
0.263
21
-15.269
0
LINE
8
медь верх
10
-0.196
20
-15.269
11
-0.450
21
-15.269
0
LINE
8
медь верх
10
-1.523
20
-15.269
11
-1.774
21
-15.269
0
LINE
8
медь верх
10
-4.025
20
-15.270
11
-4.276
21
-15.270
0
LINE
8
медь верх
10
-6.175
20
-15.270
11
-6.430
21
-15.270
0
LINE
8
медь верх
10
-6.888
20
-15.270
11
-7.144
21
-15.270
0
LINE
8
медь верх
10
7.117
20
-15.229
11
4.027
21
-15.229
0
LINE
8
медь верх
10
1.772
20
-15.229
11
0.263
21
-15.230
0
LINE
8
медь верх
10
-0.196
20
-15.230
11
-0.450
21
-15.230
0
LINE
8
медь верх
10
-1.523
20
-15.230
11
-1.774
21
-15.230
0
LINE
8
медь верх
10
-4.025
20
-15.230
11
-4.276
21
-15.230
0
LINE
8
медь верх
10
-6.175
20
-15.230
11
-6.430
21
-15.230
0
LINE
8
медь верх
10
-6.888
20
-15.230
11
-7.144
21
-15.230
0
LINE
8
медь верх
10
7.117
20
-15.188
11
6.784
21
-15.188
0
LINE
8
медь верх
10
5.894
20
-15.188
11
4.027
21
-15.189
0
LINE
8
медь верх
10
1.772
20
-15.189
11
0.263
21
-15.189
0
LINE
8
медь верх
10
-0.196
20
-15.189
11
-0.450
21
-15.189
0
LINE
8
медь верх
10
-1.523
20
-15.189
11
-1.774
21
-15.189
0
LINE
8
медь верх
10
-4.025
20
-15.189
11
-4.276
21
-15.189
0
LINE
8
медь верх
10
-6.175
20
-15.189
11
-6.430
21
-15.189
0
LINE
8
медь верх
10
-6.888
20
-15.189
11
-7.144
21
-15.189
0
LINE
8
медь верх
10
7.117
20
-15.149
11
6.825
21
-15.149
0
LINE
8
медь верх
10
5.853
20
-15.149
11
4.027
21
-15.149
0
LINE
8
медь верх
10
1.772
20
-15.149
11
0.263
21
-15.149
0
LINE
8
медь верх
10
-0.196
20
-15.149
11
-0.450
21
-15.149
0
LINE
8
медь верх
10
-1.523
20
-15.149
11
-1.774
21
-15.149
0
LINE
8
медь верх
10
-4.025
20
-15.150
11
-4.276
21
-15.150
0
LINE
8
медь верх
10
-6.175
20
-15.150
11
-6.430
21
-15.150
0
LINE
8
медь верх
10
-6.888
20
-15.150
11
-7.144
21
-15.150
0
LINE
8
медь верх
10
7.117
20
-15.108
11
6.866
21
-15.108
0
LINE
8
медь верх
10
5.813
20
-15.108
11
4.027
21
-15.108
0
LINE
8
медь верх
10
1.772
20
-15.108
11
0.263
21
-15.108
0
LINE
8
медь верх
10
-0.196
20
-15.109
11
-0.450
21
-15.109
0
LINE
8
медь верх
10
-1.523
20
-15.109
11
-1.774
21
-15.109
0
LINE
8
медь верх
10
-4.025
20
-15.109
11
-4.276
21
-15.109
0
LINE
8
медь верх
10
-6.175
20
-15.109
11
-6.430
21
-15.109
0
LINE
8
медь верх
10
-6.888
20
-15.109
11
-7.144
21
-15.109
0
LINE
8
медь верх
10
7.117
20
-15.067
11
6.866
21
-15.067
0
LINE
8
медь верх
10
5.813
20
-15.067
11
4.027
21
-15.067
0
LINE
8
медь верх
10
1.772
20
-15.069
11
0.263
21
-15.069
0
LINE
8
медь верх
10
-0.196
20
-15.069
11
-0.450
21
-15.069
0
LINE
8
медь верх
10
-1.523
20
-15.069
11
-1.774
21
-15.069
0
LINE
8
медь верх
10
-4.025
20
-15.069
11
-4.276
21
-15.069
0
LINE
8
медь верх
10
-6.175
20
-15.069
11
-6.430
21
-15.069
0
LINE
8
медь верх
10
-6.888
20
-15.069
11
-7.144
21
-15.069
0
LINE
8
медь верх
10
7.117
20
-15.028
11
6.866
21
-15.028
0
LINE
8
медь верх
10
5.813
20
-15.028
11
4.027
21
-15.028
0
LINE
8
медь верх
10
1.772
20
-15.028
11
0.263
21
-15.028
0
LINE
8
медь верх
10
-0.196
20
-15.028
11
-0.450
21
-15.028
0
LINE
8
медь верх
10
-1.523
20
-15.028
11
-1.774
21
-15.028
0
LINE
8
медь верх
10
-4.025
20
-15.028
11
-4.276
21
-15.028
0
LINE
8
медь верх
10
-6.175
20
-15.029
11
-6.430
21
-15.029
0
LINE
8
медь верх
10
-6.888
20
-15.029
11
-7.144
21
-15.029
0
LINE
8
медь верх
10
7.117
20
-14.987
11
6.866
21
-14.987
0
LINE
8
медь верх
10
5.813
20
-14.987
11
3.994
21
-14.987
0
LINE
8
медь верх
10
1.805
20
-14.987
11
0.263
21
-14.987
0
LINE
8
медь верх
10
-0.196
20
-14.987
11
-0.450
21
-14.987
0
LINE
8
медь верх
10
-1.523
20
-14.989
11
-1.774
21
-14.989
0
LINE
8
медь верх
10
-4.025
20
-14.989
11
-4.276
21
-14.989
0
LINE
8
медь верх
10
-6.175
20
-14.989
11
-6.430
21
-14.989
0
LINE
8
медь верх
10
-6.888
20
-14.989
11
-7.144
21
-14.989
0
LINE
8
медь верх
10
7.117
20
-14.947
11
6.866
21
-14.947
0
LINE
8
медь верх
10
5.813
20
-14.947
11
3.954
21
-14.947
0
LINE
8
медь верх
10
1.845
20
-14.948
11
0.263
21
-14.948
0
LINE
8
медь верх
10
-0.196
20
-14.948
11
-0.450
21
-14.948
0
LINE
8
медь верх
10
-1.523
20
-14.948
11
-1.774
21
-14.948
0
LINE
8
медь верх
10
-4.025
20
-14.948
11
-4.276
21
-14.948
0
LINE
8
медь верх
10
-6.175
20
-14.948
11
-6.430
21
-14.948
0
LINE
8
медь верх
10
-6.888
20
-14.948
11
-7.144
21
-14.948
0
LINE
8
медь верх
10
7.117
20
-14.906
11
6.866
21
-14.906
0
LINE
8
медь верх
10
5.813
20
-14.907
11
3.913
21
-14.907
0
LINE
8
медь верх
10
1.885
20
-14.907
11
0.263
21
-14.907
0
LINE
8
медь верх
10
-0.196
20
-14.907
11
-0.450
21
-14.907
0
LINE
8
медь верх
10
-1.523
20
-14.907
11
-1.774
21
-14.907
0
LINE
8
медь верх
10
-4.025
20
-14.907
11
-4.276
21
-14.907
0
LINE
8
медь верх
10
-6.175
20
-14.909
11
-6.430
21
-14.909
0
LINE
8
медь верх
10
-6.888
20
-14.909
11
-7.144
21
-14.909
0
LINE
8
медь верх
10
7.117
20
-14.867
11
6.866
21
-14.867
0
LINE
8
медь верх
10
5.813
20
-14.867
11
3.873
21
-14.867
0
LINE
8
медь верх
10
1.925
20
-14.867
11
0.263
21
-14.867
0
LINE
8
медь верх
10
-0.196
20
-14.867
11
-0.450
21
-14.867
0
LINE
8
медь верх
10
-1.523
20
-14.867
11
-1.774
21
-14.867
0
LINE
8
медь верх
10
-4.025
20
-14.868
11
-4.276
21
-14.868
0
LINE
8
медь верх
10
-6.168
20
-14.868
11
-6.430
21
-14.868
0
LINE
8
медь верх
10
-6.888
20
-14.868
11
-7.144
21
-14.868
0
LINE
8
медь верх
10
7.117
20
-14.826
11
6.866
21
-14.826
0
LINE
8
медь верх
10
5.813
20
-14.826
11
3.833
21
-14.826
0
LINE
8
медь верх
10
1.966
20
-14.826
11
0.263
21
-14.827
0
LINE
8
медь верх
10
-0.196
20
-14.827
11
-0.450
21
-14.827
0
LINE
8
медь верх
10
-1.523
20
-14.827
11
-1.774
21
-14.827
0
LINE
8
медь верх
10
-4.025
20
-14.827
11
-4.276
21
-14.827
0
LINE
8
медь верх
10
-6.148
20
-14.827
11
-6.430
21
-14.827
0
LINE
8
медь верх
10
-6.888
20
-14.827
11
-7.144
21
-14.827
0
LINE
8
медь верх
10
7.117
20
-14.785
11
6.866
21
-14.785
0
LINE
8
медь верх
10
5.813
20
-14.785
11
0.263
21
-14.787
0
LINE
8
медь верх
10
-0.196
20
-14.787
11
-0.450
21
-14.787
0
LINE
8
медь верх
10
-1.523
20
-14.787
11
-4.276
21
-14.787
0
LINE
8
медь верх
10
-6.113
20
-14.787
11
-6.430
21
-14.787
0
LINE
8
медь верх
10
-6.888
20
-14.787
11
-7.144
21
-14.788
0
LINE
8
медь верх
10
7.117
20
-14.746
11
6.866
21
-14.746
0
LINE
8
медь верх
10
5.813
20
-14.746
11
0.263
21
-14.746
0
LINE
8
медь верх
10
-0.196
20
-14.746
11
-0.450
21
-14.746
0
LINE
8
медь верх
10
-1.523
20
-14.746
11
-4.276
21
-14.747
0
LINE
8
медь верх
10
-6.073
20
-14.747
11
-6.430
21
-14.747
0
LINE
8
медь верх
10
-6.888
20
-14.747
11
-7.144
21
-14.747
0
LINE
8
медь верх
10
7.117
20
-14.705
11
6.866
21
-14.705
0
LINE
8
медь верх
10
5.813
20
-14.705
11
0.263
21
-14.707
0
LINE
8
медь верх
10
-0.196
20
-14.707
11
-0.450
21
-14.707
0
LINE
8
медь верх
10
-1.523
20
-14.707
11
-4.276
21
-14.707
0
LINE
8
медь верх
10
-6.032
20
-14.707
11
-6.393
21
-14.707
0
LINE
8
медь верх
10
-6.888
20
-14.707
11
-7.144
21
-14.707
0
LINE
8
медь верх
10
7.117
20
-14.665
11
6.866
21
-14.665
0
LINE
8
медь верх
10
5.813
20
-14.665
11
0.263
21
-14.666
0
LINE
8
медь верх
10
-0.196
20
-14.666
11
-0.450
21
-14.666
0
LINE
8
медь верх
10
-1.547
20
-14.666
11
-4.252
21
-14.666
0
LINE
8
медь верх
10
-5.992
20
-14.666
11
-6.353
21
-14.666
0
LINE
8
медь верх
10
-6.888
20
-14.666
11
-7.144
21
-14.666
0
LINE
8
медь верх
10
7.117
20
-14.625
11
6.866
21
-14.625
0
LINE
8
медь верх
10
5.813
20
-14.625
11
0.263
21
-14.625
0
LINE
8
медь верх
10
-0.196
20
-14.625
11
-0.450
21
-14.625
0
LINE
8
медь верх
10
-1.587
20
-14.625
11
-4.211
21
-14.625
0
LINE
8
медь верх
10
-5.952
20
-14.627
11
-6.312
21
-14.627
0
LINE
8
медь верх
10
-6.885
20
-14.627
11
-7.137
21
-14.627
0
LINE
8
медь верх
10
7.117
20
-14.585
11
6.866
21
-14.585
0
LINE
8
медь верх
10
5.813
20
-14.585
11
0.263
21
-14.585
0
LINE
8
медь верх
10
-0.196
20
-14.585
11
-0.450
21
-14.585
0
LINE
8
медь верх
10
-1.628
20
-14.586
11
-4.171
21
-14.586
0
LINE
8
медь верх
10
-5.912
20
-14.586
11
-6.273
21
-14.586
0
LINE
8
медь верх
10
-6.877
20
-14.586
11
-7.129
21
-14.586
0
LINE
8
медь верх
10
7.117
20
-14.544
11
6.866
21
-14.544
0
LINE
8
медь верх
10
5.813
20
-14.544
11
0.263
21
-14.545
0
LINE
8
медь верх
10
-0.196
20
-14.545
11
-0.450
21
-14.545
0
LINE
8
медь верх
10
-5.871
20
-14.545
11
-6.232
21
-14.545
0
LINE
8
медь верх
10
-6.862
20
-14.545
11
-7.121
21
-14.545
0
LINE
8
медь верх
10
7.117
20
-14.505
11
6.866
21
-14.505
0
LINE
8
медь верх
10
5.813
20
-14.505
11
0.263
21
-14.505
0
LINE
8
медь верх
10
-0.196
20
-14.505
11
-0.450
21
-14.505
0
LINE
8
медь верх
10
-5.832
20
-14.506
11
-6.191
21
-14.506
0
LINE
8
медь верх
10
-6.835
20
-14.506
11
-7.113
21
-14.506
0
LINE
8
медь верх
10
7.117
20
-14.464
11
6.858
21
-14.464
0
LINE
8
медь верх
10
5.820
20
-14.464
11
0.263
21
-14.464
0
LINE
8
медь верх
10
-0.196
20
-14.464
11
-0.450
21
-14.464
0
LINE
8
медь верх
10
-5.791
20
-14.465
11
-6.152
21
-14.465
0
LINE
8
медь верх
10
-6.801
20
-14.465
11
-7.104
21
-14.465
0
LINE
8
медь верх
10
7.117
20
-14.423
11
6.817
21
-14.423
0
LINE
8
медь верх
10
5.860
20
-14.423
11
0.263
21
-14.425
0
LINE
8
медь верх
10
-0.196
20
-14.425
11
-0.450
21
-14.425
0
LINE
8
медь верх
10
-5.751
20
-14.425
11
-6.111
21
-14.425
0
LINE
8
медь верх
10
-6.760
20
-14.425
11
-7.079
21
-14.425
0
LINE
8
медь верх
10
7.117
20
-14.383
11
6.778
21
-14.383
0
LINE
8
медь верх
10
5.900
20
-14.384
11
0.263
21
-14.384
0
LINE
8
медь верх
10
-0.196
20
-14.384
11
-0.451
21
-14.384
0
LINE
8
медь верх
10
-5.710
20
-14.384
11
-6.071
21
-14.384
0
LINE
8
медь верх
10
-6.721
20
-14.385
11
-7.051
21
-14.385
0
LINE
8
медь верх
10
7.117
20
-14.343
11
6.568
21
-14.343
0
LINE
8
медь верх
10
6.109
20
-14.343
11
0.263
21
-14.343
0
LINE
8
медь верх
10
-0.196
20
-14.343
11
-0.458
21
-14.343
0
LINE
8
медь верх
10
-5.671
20
-14.345
11
-6.031
21
-14.345
0
LINE
8
медь верх
10
-6.680
20
-14.345
11
-7.024
21
-14.345
0
LINE
8
медь верх
10
7.084
20
-14.303
11
6.567
21
-14.303
0
LINE
8
медь верх
10
6.107
20
-14.303
11
0.263
21
-14.304
0
LINE
8
медь верх
10
-0.196
20
-14.304
11
-0.484
21
-14.304
0
LINE
8
медь верх
10
-5.630
20
-14.304
11
-5.991
21
-14.304
0
LINE
8
медь верх
10
-6.640
20
-14.304
11
-6.998
21
-14.304
0
LINE
8
медь верх
10
7.045
20
-14.262
11
6.567
21
-14.262
0
LINE
8
медь верх
10
6.067
20
-14.262
11
0.263
21
-14.263
0
LINE
8
медь верх
10
-0.196
20
-14.263
11
-0.568
21
-14.263
0
LINE
8
медь верх
10
-5.546
20
-14.263
11
-5.950
21
-14.263
0
LINE
8
медь верх
10
-6.600
20
-14.263
11
-6.960
21
-14.263
0
LINE
8
медь верх
10
7.004
20
-14.223
11
6.567
21
-14.223
0
LINE
8
медь верх
10
6.027
20
-14.223
11
0.263
21
-14.223
0
LINE
8
медь верх
10
-0.196
20
-14.223
11
-5.909
21
-14.224
0
LINE
8
медь верх
10
-6.560
20
-14.224
11
-6.920
21
-14.224
0
LINE
8
медь верх
10
6.963
20
-14.182
11
6.562
21
-14.182
0
LINE
8
медь верх
10
5.987
20
-14.182
11
0.263
21
-14.182
0
LINE
8
медь верх
10
-0.196
20
-14.183
11
-5.870
21
-14.183
0
LINE
8
медь верх
10
-6.519
20
-14.183
11
-6.880
21
-14.183
0
LINE
8
медь верх
10
6.924
20
-14.141
11
6.554
21
-14.141
0
LINE
8
медь верх
10
5.946
20
-14.141
11
0.263
21
-14.143
0
LINE
8
медь верх
10
-0.196
20
-14.143
11
-5.829
21
-14.143
0
LINE
8
медь верх
10
-6.478
20
-14.143
11
-6.839
21
-14.143
0
LINE
8
медь верх
10
6.855
20
-14.102
11
6.537
21
-14.102
0
LINE
8
медь верх
10
5.906
20
-14.102
11
0.263
21
-14.102
0
LINE
8
медь верх
10
-0.196
20
-14.102
11
-5.789
21
-14.103
0
LINE
8
медь верх
10
-6.439
20
-14.103
11
-6.800
21
-14.103
0
LINE
8
медь верх
10
6.805
20
-14.061
11
6.510
21
-14.061
0
LINE
8
медь верх
10
5.866
20
-14.061
11
0.263
21
-14.061
0
LINE
8
медь верх
10
-0.196
20
-14.061
11
-5.749
21
-14.063
0
LINE
8
медь верх
10
-6.398
20
-14.063
11
-6.759
21
-14.063
0
LINE
8
медь верх
10
6.781
20
-14.021
11
6.474
21
-14.021
0
LINE
8
медь верх
10
5.825
20
-14.021
11
0.263
21
-14.022
0
LINE
8
медь верх
10
-0.196
20
-14.022
11
-5.709
21
-14.022
0
LINE
8
медь верх
10
-6.358
20
-14.022
11
-6.718
21
-14.022
0
LINE
8
медь верх
10
6.754
20
-13.980
11
6.435
21
-13.981
0
LINE
8
медь верх
10
-6.318
20
-13.983
11
-6.678
21
-13.983
0
LINE
8
медь верх
10
6.727
20
-13.941
11
6.394
21
-13.941
0
LINE
8
медь верх
10
-6.278
20
-13.942
11
-6.638
21
-13.942
0
LINE
8
медь верх
10
6.701
20
-13.900
11
6.354
21
-13.900
0
LINE
8
медь верх
10
-6.237
20
-13.901
11
-6.598
21
-13.901
0
LINE
8
медь верх
10
6.674
20
-13.860
11
6.314
21
-13.860
0
LINE
8
медь верх
10
-6.198
20
-13.861
11
-6.557
21
-13.861
0
LINE
8
медь верх
10
6.634
20
-13.820
11
6.274
21
-13.820
0
LINE
8
медь верх
10
-6.157
20
-13.821
11
-6.518
21
-13.821
0
LINE
8
медь верх
10
6.594
20
-13.780
11
6.233
21
-13.780
0
LINE
8
медь верх
10
-6.116
20
-13.781
11
-6.477
21
-13.781
0
LINE
8
медь верх
10
6.553
20
-13.739
11
6.193
21
-13.739
0
LINE
8
медь верх
10
-6.076
20
-13.740
11
-6.436
21
-13.740
0
LINE
8
медь верх
10
6.514
20
-13.699
11
6.153
21
-13.699
0
LINE
8
медь верх
10
-6.036
20
-13.701
11
-6.397
21
-13.701
0
LINE
8
медь верх
10
6.473
20
-13.659
11
6.113
21
-13.659
0
LINE
8
медь верх
10
-5.996
20
-13.660
11
-6.356
21
-13.660
0
LINE
8
медь верх
10
6.433
20
-13.618
11
6.072
21
-13.618
0
LINE
8
медь верх
10
-5.955
20
-13.619
11
-6.316
21
-13.619
0
LINE
8
медь верх
10
6.392
20
-13.579
11
6.015
21
-13.579
0
LINE
8
медь верх
10
-5.898
20
-13.580
11
-6.275
21
-13.580
0
LINE
8
медь верх
10
6.353
20
-13.538
11
-6.236
21
-13.539
0
LINE
8
медь верх
10
6.312
20
-13.498
11
-6.195
21
-13.499
0
LINE
8
медь верх
10
6.271
20
-13.457
11
-6.154
21
-13.458
0
LINE
8
медь верх
10
6.218
20
-13.418
11
-6.102
21
-13.419
0
LINE
8
медь верх
10
6.158
20
-13.377
11
-6.041
21
-13.378
0
LINE
8
медь верх
10
6.099
20
-13.336
11
-5.982
21
-13.338
0
LINE
8
медь верх
10
5.914
20
-13.297
11
-5.801
21
-13.298
0
LINE
8
медь верх
10
12.473
20
-23.972
11
-12.473
21
-23.972
0
LINE
8
медь верх
10
-12.473
20
-23.972
11
-12.473
21
-12.575
0
LINE
8
медь верх
10
-12.473
20
-12.575
11
-12.218
21
-12.575
0
LINE
8
медь верх
10
-12.218
20
-12.575
11
-12.218
21
-23.590
0
LINE
8
медь верх
10
-12.218
20
-23.590
11
-12.208
21
-23.639
0
LINE
8
медь верх
10
-12.208
20
-23.639
11
-12.180
21
-23.680
0
LINE
8
медь верх
10
-12.180
20
-23.680
11
-12.139
21
-23.708
0
LINE
8
медь верх
10
-12.139
20
-23.708
11
-12.090
21
-23.717
0
LINE
8
медь верх
10
-12.090
20
-23.717
11
12.090
21
-23.717
0
LINE
8
медь верх
10
12.090
20
-23.717
11
12.139
21
-23.708
0
LINE
8
медь верх
10
12.139
20
-23.708
11
12.180
21
-23.680
0
LINE
8
медь верх
10
12.180
20
-23.680
11
12.208
21
-23.639
0
LINE
8
медь верх
10
12.208
20
-23.639
11
12.218
21
-23.590
0
LINE
8
медь верх
10
12.218
20
-23.590
11
12.218
21
-12.575
0
LINE
8
медь верх
10
12.218
20
-12.575
11
12.473
21
-12.575
0
LINE
8
медь верх
10
12.473
20
-12.575
11
12.473
21
-23.972
0
LINE
8
медь верх
10
-12.471
20
-23.961
11
12.471
21
-23.959
0
LINE
8
медь верх
10
-12.471
20
-23.920
11
12.471
21
-23.918
0
LINE
8
медь верх
10
-12.471
20
-23.880
11
12.471
21
-23.877
0
LINE
8
медь верх
10
-12.471
20
-23.840
11
12.471
21
-23.838
0
LINE
8
медь верх
10
-12.471
20
-23.800
11
12.471
21
-23.797
0
LINE
8
медь верх
10
-12.471
20
-23.759
11
12.471
21
-23.757
0
LINE
8
медь верх
10
12.471
20
-23.716
11
12.090
21
-23.717
0
LINE
8
медь верх
10
9.789
20
-23.717
11
-12.471
21
-23.719
0
LINE
8
медь верх
10
12.471
20
-23.677
11
12.182
21
-23.677
0
LINE
8
медь верх
10
-12.181
20
-23.679
11
-12.471
21
-23.679
0
LINE
8
медь верх
10
12.471
20
-23.636
11
12.207
21
-23.636
0
LINE
8
медь верх
10
-12.207
20
-23.639
11
-12.471
21
-23.639
0
LINE
8
медь верх
10
12.471
20
-23.595
11
12.216
21
-23.595
0
LINE
8
медь верх
10
-12.215
20
-23.598
11
-12.471
21
-23.598
0
LINE
8
медь верх
10
12.471
20
-23.556
11
12.217
21
-23.556
0
LINE
8
медь верх
10
-12.217
20
-23.558
11
-12.471
21
-23.558
0
LINE
8
медь верх
10
12.471
20
-23.515
11
12.217
21
-23.515
0
LINE
8
медь верх
10
-12.217
20
-23.518
11
-12.471
21
-23.518
0
LINE
8
медь верх
10
12.471
20
-23.475
11
12.217
21
-23.475
0
LINE
8
медь верх
10
-12.217
20
-23.477
11
-12.471
21
-23.477
0
LINE
8
медь верх
10
12.471
20
-23.435
11
12.217
21
-23.435
0
LINE
8
медь верх
10
-12.217
20
-23.438
11
-12.471
21
-23.438
0
LINE
8
медь верх
10
12.471
20
-23.395
11
12.217
21
-23.395
0
LINE
8
медь верх
10
-12.217
20
-23.397
11
-12.471
21
-23.397
0
LINE
8
медь верх
10
12.471
20
-23.354
11
12.217
21
-23.354
0
LINE
8
медь верх
10
-12.217
20
-23.357
11
-12.471
21
-23.357
0
LINE
8
медь верх
10
12.471
20
-23.315
11
12.217
21
-23.315
0
LINE
8
медь верх
10
-12.217
20
-23.316
11
-12.471
21
-23.316
0
LINE
8
медь верх
10
12.471
20
-23.274
11
12.217
21
-23.274
0
LINE
8
медь верх
10
-12.217
20
-23.277
11
-12.471
21
-23.277
0
LINE
8
медь верх
10
12.471
20
-23.233
11
12.217
21
-23.233
0
LINE
8
медь верх
10
-12.217
20
-23.236
11
-12.471
21
-23.236
0
LINE
8
медь верх
10
12.471
20
-23.193
11
12.217
21
-23.193
0
LINE
8
медь верх
10
-12.217
20
-23.195
11
-12.471
21
-23.195
0
LINE
8
медь верх
10
12.471
20
-23.153
11
12.217
21
-23.153
0
LINE
8
медь верх
10
-12.217
20
-23.156
11
-12.471
21
-23.156
0
LINE
8
медь верх
10
12.471
20
-23.113
11
12.217
21
-23.113
0
LINE
8
медь верх
10
-12.217
20
-23.115
11
-12.471
21
-23.115
0
LINE
8
медь верх
10
12.471
20
-23.072
11
12.217
21
-23.072
0
LINE
8
медь верх
10
-12.217
20
-23.075
11
-12.471
21
-23.075
0
LINE
8
медь верх
10
12.471
20
-23.033
11
12.217
21
-23.033
0
LINE
8
медь верх
10
-12.217
20
-23.035
11
-12.471
21
-23.035
0
LINE
8
медь верх
10
12.471
20
-22.992
11
12.217
21
-22.992
0
LINE
8
медь верх
10
-12.217
20
-22.995
11
-12.471
21
-22.995
0
LINE
8
медь верх
10
12.471
20
-22.951
11
12.217
21
-22.951
0
LINE
8
медь верх
10
-12.217
20
-22.954
11
-12.471
21
-22.954
0
LINE
8
медь верх
10
12.471
20
-22.912
11
12.217
21
-22.912
0
LINE
8
медь верх
10
-12.217
20
-22.915
11
-12.471
21
-22.915
0
LINE
8
медь верх
10
12.471
20
-22.871
11
12.217
21
-22.871
0
LINE
8
медь верх
10
-12.217
20
-22.874
11
-12.471
21
-22.874
0
LINE
8
медь верх
10
12.471
20
-22.831
11
12.217
21
-22.831
0
LINE
8
медь верх
10
-12.217
20
-22.833
11
-12.471
21
-22.833
0
LINE
8
медь верх
10
12.471
20
-22.790
11
12.217
21
-22.790
0
LINE
8
медь верх
10
-12.217
20
-22.793
11
-12.471
21
-22.793
0
LINE
8
медь верх
10
12.471
20
-22.751
11
12.217
21
-22.751
0
LINE
8
медь верх
10
-12.217
20
-22.753
11
-12.471
21
-22.753
0
LINE
8
медь верх
10
12.471
20
-22.710
11
12.217
21
-22.710
0
LINE
8
медь верх
10
-12.217
20
-22.713
11
-12.471
21
-22.713
0
LINE
8
медь верх
10
12.471
20
-22.669
11
12.217
21
-22.669
0
LINE
8
медь верх
10
-12.217
20
-22.672
11
-12.471
21
-22.672
0
LINE
8
медь верх
10
12.471
20
-22.630
11
12.217
21
-22.630
0
LINE
8
медь верх
10
-12.217
20
-22.633
11
-12.471
21
-22.633
0
LINE
8
медь верх
10
12.471
20
-22.589
11
12.217
21
-22.589
0
LINE
8
медь верх
10
-12.217
20
-22.592
11
-12.471
21
-22.592
0
LINE
8
медь верх
10
12.471
20
-22.549
11
12.217
21
-22.549
0
LINE
8
медь верх
10
-12.217
20
-22.551
11
-12.471
21
-22.551
0
LINE
8
медь верх
10
12.471
20
-22.509
11
12.217
21
-22.509
0
LINE
8
медь верх
10
-12.217
20
-22.512
11
-12.471
21
-22.512
0
LINE
8
медь верх
10
12.471
20
-22.469
11
12.217
21
-22.469
0
LINE
8
медь верх
10
-12.217
20
-22.471
11
-12.471
21
-22.471
0
LINE
8
медь верх
10
12.471
20
-22.428
11
12.217
21
-22.428
0
LINE
8
медь верх
10
-12.217
20
-22.431
11
-12.471
21
-22.431
0
LINE
8
медь верх
10
12.471
20
-22.389
11
12.217
21
-22.389
0
LINE
8
медь верх
10
-12.217
20
-22.390
11
-12.471
21
-22.390
0
LINE
8
медь верх
10
12.471
20
-22.348
11
12.217
21
-22.348
0
LINE
8
медь верх
10
-12.217
20
-22.351
11
-12.471
21
-22.351
0
LINE
8
медь верх
10
12.471
20
-22.308
11
12.217
21
-22.308
0
LINE
8
медь верх
10
-12.217
20
-22.310
11
-12.471
21
-22.310
0
LINE
8
медь верх
10
12.471
20
-22.267
11
12.217
21
-22.267
0
LINE
8
медь верх
10
-12.217
20
-22.269
11
-12.471
21
-22.269
0
LINE
8
медь верх
10
12.471
20
-22.228
11
12.217
21
-22.228
0
LINE
8
медь верх
10
-12.217
20
-22.230
11
-12.471
21
-22.230
0
LINE
8
медь верх
10
12.471
20
-22.187
11
12.217
21
-22.187
0
LINE
8
медь верх
10
-12.217
20
-22.189
11
-12.471
21
-22.189
0
LINE
8
медь верх
10
12.471
20
-22.146
11
12.217
21
-22.146
0
LINE
8
медь верх
10
-12.217
20
-22.149
11
-12.471
21
-22.149
0
LINE
8
медь верх
10
12.471
20
-22.107
11
12.217
21
-22.107
0
LINE
8
медь верх
10
-12.217
20
-22.109
11
-12.471
21
-22.109
0
LINE
8
медь верх
10
12.471
20
-22.066
11
12.217
21
-22.066
0
LINE
8
медь верх
10
-12.217
20
-22.069
11
-12.471
21
-22.069
0
LINE
8
медь верх
10
12.471
20
-22.026
11
12.217
21
-22.026
0
LINE
8
медь верх
10
-12.217
20
-22.028
11
-12.471
21
-22.028
0
LINE
8
медь верх
10
12.471
20
-21.986
11
12.217
21
-21.986
0
LINE
8
медь верх
10
-12.217
20
-21.988
11
-12.471
21
-21.989
0
LINE
8
медь верх
10
12.471
20
-21.946
11
12.217
21
-21.946
0
LINE
8
медь верх
10
-12.217
20
-21.948
11
-12.471
21
-21.948
0
LINE
8
медь верх
10
12.471
20
-21.905
11
12.217
21
-21.905
0
LINE
8
медь верх
10
-12.217
20
-21.907
11
-12.471
21
-21.907
0
LINE
8
медь верх
10
12.471
20
-21.864
11
12.217
21
-21.864
0
LINE
8
медь верх
10
-12.217
20
-21.867
11
-12.471
21
-21.867
0
LINE
8
медь верх
10
12.471
20
-21.825
11
12.217
21
-21.825
0
LINE
8
медь верх
10
-12.217
20
-21.827
11
-12.471
21
-21.827
0
LINE
8
медь верх
10
12.471
20
-21.784
11
12.217
21
-21.784
0
LINE
8
медь верх
10
-12.217
20
-21.787
11
-12.471
21
-21.787
0
LINE
8
медь верх
10
12.471
20
-21.744
11
12.217
21
-21.744
0
LINE
8
медь верх
10
-12.217
20
-21.746
11
-12.471
21
-21.746
0
LINE
8
медь верх
10
12.471
20
-21.704
11
12.217
21
-21.704
0
LINE
8
медь верх
10
-12.217
20
-21.707
11
-12.471
21
-21.707
0
LINE
8
медь верх
10
12.471
20
-21.664
11
12.217
21
-21.664
0
LINE
8
медь верх
10
-12.217
20
-21.666
11
-12.471
21
-21.666
0
LINE
8
медь верх
10
12.471
20
-21.623
11
12.217
21
-21.623
0
LINE
8
медь верх
10
-12.217
20
-21.626
11
-12.471
21
-21.626
0
LINE
8
медь верх
10
12.471
20
-21.584
11
12.217
21
-21.584
0
LINE
8
медь верх
10
-12.217
20
-21.586
11
-12.471
21
-21.586
0
LINE
8
медь верх
10
12.471
20
-21.543
11
12.217
21
-21.543
0
LINE
8
медь верх
10
-12.217
20
-21.546
11
-12.471
21
-21.546
0
LINE
8
медь верх
10
12.471
20
-21.502
11
12.217
21
-21.502
0
LINE
8
медь верх
10
-12.217
20
-21.505
11
-12.471
21
-21.505
0
LINE
8
медь верх
10
12.471
20
-21.463
11
12.217
21
-21.463
0
LINE
8
медь верх
10
-12.217
20
-21.464
11
-12.471
21
-21.464
0
LINE
8
медь верх
10
12.471
20
-21.422
11
12.217
21
-21.422
0
LINE
8
медь верх
10
-12.217
20
-21.425
11
-12.471
21
-21.425
0
LINE
8
медь верх
10
12.471
20
-21.382
11
12.217
21
-21.382
0
LINE
8
медь верх
10
-12.217
20
-21.384
11
-12.471
21
-21.384
0
LINE
8
медь верх
10
12.471
20
-21.341
11
12.217
21
-21.341
0
LINE
8
медь верх
10
-12.217
20
-21.344
11
-12.471
21
-21.344
0
LINE
8
медь верх
10
12.471
20
-21.302
11
12.217
21
-21.302
0
LINE
8
медь верх
10
-12.217
20
-21.304
11
-12.471
21
-21.304
0
LINE
8
медь верх
10
12.471
20
-21.261
11
12.217
21
-21.261
0
LINE
8
медь верх
10
-12.217
20
-21.264
11
-12.471
21
-21.264
0
LINE
8
медь верх
10
12.471
20
-21.220
11
12.217
21
-21.220
0
LINE
8
медь верх
10
-12.217
20
-21.223
11
-12.471
21
-21.223
0
LINE
8
медь верх
10
12.471
20
-21.181
11
12.217
21
-21.181
0
LINE
8
медь верх
10
-12.217
20
-21.184
11
-12.471
21
-21.184
0
LINE
8
медь верх
10
12.471
20
-21.140
11
12.217
21
-21.140
0
LINE
8
медь верх
10
-12.217
20
-21.143
11
-12.471
21
-21.143
0
LINE
8
медь верх
10
12.471
20
-21.100
11
12.217
21
-21.100
0
LINE
8
медь верх
10
-12.217
20
-21.102
11
-12.471
21
-21.102
0
LINE
8
медь верх
10
12.471
20
-21.060
11
12.217
21
-21.060
0
LINE
8
медь верх
10
-12.217
20
-21.062
11
-12.471
21
-21.063
0
LINE
8
медь верх
10
12.471
20
-21.020
11
12.217
21
-21.020
0
LINE
8
медь верх
10
-12.217
20
-21.022
11
-12.471
21
-21.022
0
LINE
8
медь верх
10
12.471
20
-20.979
11
12.217
21
-20.979
0
LINE
8
медь верх
10
-12.217
20
-20.982
11
-12.471
21
-20.982
0
LINE
8
медь верх
10
12.471
20
-20.938
11
12.217
21
-20.938
0
LINE
8
медь верх
10
-12.217
20
-20.941
11
-12.471
21
-20.941
0
LINE
8
медь верх
10
12.471
20
-20.899
11
12.217
21
-20.899
0
LINE
8
медь верх
10
-12.217
20
-20.902
11
-12.471
21
-20.902
0
LINE
8
медь верх
10
12.471
20
-20.858
11
12.217
21
-20.858
0
LINE
8
медь верх
10
-12.217
20
-20.861
11
-12.471
21
-20.861
0
LINE
8
медь верх
10
12.471
20
-20.818
11
12.217
21
-20.818
0
LINE
8
медь верх
10
-12.217
20
-20.820
11
-12.471
21
-20.820
0
LINE
8
медь верх
10
12.471
20
-20.778
11
12.217
21
-20.778
0
LINE
8
медь верх
10
-12.217
20
-20.781
11
-12.471
21
-20.781
0
LINE
8
медь верх
10
12.471
20
-20.738
11
12.217
21
-20.738
0
LINE
8
медь верх
10
-12.217
20
-20.740
11
-12.471
21
-20.740
0
LINE
8
медь верх
10
12.471
20
-20.697
11
12.217
21
-20.697
0
LINE
8
медь верх
10
-12.217
20
-20.700
11
-12.471
21
-20.700
0
LINE
8
медь верх
10
12.471
20
-20.658
11
12.217
21
-20.658
0
LINE
8
медь верх
10
-12.217
20
-20.660
11
-12.471
21
-20.660
0
LINE
8
медь верх
10
12.471
20
-20.617
11
12.217
21
-20.617
0
LINE
8
медь верх
10
-12.217
20
-20.620
11
-12.471
21
-20.620
0
LINE
8
медь верх
10
12.471
20
-20.577
11
12.217
21
-20.577
0
LINE
8
медь верх
10
-12.217
20
-20.579
11
-12.471
21
-20.579
0
LINE
8
медь верх
10
12.471
20
-20.536
11
12.217
21
-20.537
0
LINE
8
медь верх
10
-12.217
20
-20.538
11
-12.471
21
-20.538
0
LINE
8
медь верх
10
12.471
20
-20.497
11
12.217
21
-20.497
0
LINE
8
медь верх
10
-12.217
20
-20.499
11
-12.471
21
-20.499
0
LINE
8
медь верх
10
12.471
20
-20.456
11
12.217
21
-20.456
0
LINE
8
медь верх
10
-12.217
20
-20.458
11
-12.471
21
-20.458
0
LINE
8
медь верх
10
12.471
20
-20.415
11
12.217
21
-20.415
0
LINE
8
медь верх
10
-12.217
20
-20.418
11
-12.471
21
-20.418
0
LINE
8
медь верх
10
12.471
20
-20.376
11
12.217
21
-20.376
0
LINE
8
медь верх
10
-12.217
20
-20.378
11
-12.471
21
-20.378
0
LINE
8
медь верх
10
12.471
20
-20.335
11
12.217
21
-20.335
0
LINE
8
медь верх
10
-12.217
20
-20.338
11
-12.471
21
-20.338
0
LINE
8
медь верх
10
12.471
20
-20.295
11
12.217
21
-20.295
0
LINE
8
медь верх
10
-12.217
20
-20.297
11
-12.471
21
-20.297
0
LINE
8
медь верх
10
12.471
20
-20.255
11
12.217
21
-20.255
0
LINE
8
медь верх
10
-12.217
20
-20.258
11
-12.471
21
-20.258
0
LINE
8
медь верх
10
12.471
20
-20.215
11
12.217
21
-20.215
0
LINE
8
медь верх
10
-12.217
20
-20.217
11
-12.471
21
-20.217
0
LINE
8
медь верх
10
12.471
20
-20.174
11
12.217
21
-20.174
0
LINE
8
медь верх
10
-12.217
20
-20.176
11
-12.471
21
-20.176
0
LINE
8
медь верх
10
12.471
20
-20.135
11
12.217
21
-20.135
0
LINE
8
медь верх
10
-12.217
20
-20.136
11
-12.471
21
-20.136
0
LINE
8
медь верх
10
12.471
20
-20.094
11
12.217
21
-20.094
0
LINE
8
медь верх
10
-12.217
20
-20.096
11
-12.471
21
-20.096
0
LINE
8
медь верх
10
12.471
20
-20.053
11
12.217
21
-20.053
0
LINE
8
медь верх
10
-12.217
20
-20.056
11
-12.471
21
-20.056
0
LINE
8
медь верх
10
12.471
20
-20.013
11
12.217
21
-20.013
0
LINE
8
медь верх
10
-12.217
20
-20.015
11
-12.471
21
-20.015
0
LINE
8
медь верх
10
12.471
20
-19.973
11
12.217
21
-19.973
0
LINE
8
медь верх
10
-12.217
20
-19.976
11
-12.471
21
-19.976
0
LINE
8
медь верх
10
12.471
20
-19.933
11
12.217
21
-19.933
0
LINE
8
медь верх
10
-12.217
20
-19.935
11
-12.471
21
-19.935
0
LINE
8
медь верх
10
12.471
20
-19.892
11
12.217
21
-19.892
0
LINE
8
медь верх
10
-12.217
20
-19.895
11
-12.471
21
-19.895
0
LINE
8
медь верх
10
12.471
20
-19.853
11
12.217
21
-19.853
0
LINE
8
медь верх
10
-12.217
20
-19.855
11
-12.471
21
-19.855
0
LINE
8
медь верх
10
12.471
20
-19.812
11
12.217
21
-19.812
0
LINE
8
медь верх
10
-12.217
20
-19.815
11
-12.471
21
-19.815
0
LINE
8
медь верх
10
12.471
20
-19.771
11
12.217
21
-19.771
0
LINE
8
медь верх
10
-12.217
20
-19.774
11
-12.471
21
-19.774
0
LINE
8
медь верх
10
12.471
20
-19.732
11
12.217
21
-19.732
0
LINE
8
медь верх
10
-12.217
20
-19.735
11
-12.471
21
-19.735
0
LINE
8
медь верх
10
12.471
20
-19.691
11
12.217
21
-19.691
0
LINE
8
медь верх
10
-12.217
20
-19.694
11
-12.471
21
-19.694
0
LINE
8
медь верх
10
12.471
20
-19.651
11
12.217
21
-19.651
0
LINE
8
медь верх
10
-12.217
20
-19.653
11
-12.471
21
-19.653
0
LINE
8
медь верх
10
12.471
20
-19.610
11
12.217
21
-19.611
0
LINE
8
медь верх
10
-12.217
20
-19.613
11
-12.471
21
-19.613
0
LINE
8
медь верх
10
12.471
20
-19.571
11
12.217
21
-19.571
0
LINE
8
медь верх
10
-12.217
20
-19.573
11
-12.471
21
-19.573
0
LINE
8
медь верх
10
12.471
20
-19.530
11
12.217
21
-19.530
0
LINE
8
медь верх
10
-12.217
20
-19.533
11
-12.471
21
-19.533
0
LINE
8
медь верх
10
12.471
20
-19.489
11
12.217
21
-19.489
0
LINE
8
медь верх
10
-12.217
20
-19.492
11
-12.471
21
-19.492
0
LINE
8
медь верх
10
12.471
20
-19.450
11
12.217
21
-19.450
0
LINE
8
медь верх
10
-12.217
20
-19.453
11
-12.471
21
-19.453
0
LINE
8
медь верх
10
12.471
20
-19.409
11
12.217
21
-19.409
0
LINE
8
медь верх
10
-12.217
20
-19.412
11
-12.471
21
-19.412
0
LINE
8
медь верх
10
12.471
20
-19.369
11
12.217
21
-19.369
0
LINE
8
медь верх
10
-12.217
20
-19.371
11
-12.471
21
-19.371
0
LINE
8
медь верх
10
12.471
20
-19.329
11
12.217
21
-19.329
0
LINE
8
медь верх
10
-12.217
20
-19.332
11
-12.471
21
-19.332
0
LINE
8
медь верх
10
12.471
20
-19.289
11
12.217
21
-19.289
0
LINE
8
медь верх
10
-12.217
20
-19.291
11
-12.471
21
-19.291
0
LINE
8
медь верх
10
12.471
20
-19.248
11
12.217
21
-19.248
0
LINE
8
медь верх
10
-12.217
20
-19.251
11
-12.471
21
-19.251
0
LINE
8
медь верх
10
12.471
20
-19.209
11
12.217
21
-19.209
0
LINE
8
медь верх
10
-12.217
20
-19.210
11
-12.471
21
-19.210
0
LINE
8
медь верх
10
12.471
20
-19.168
11
12.217
21
-19.168
0
LINE
8
медь верх
10
-12.217
20
-19.171
11
-12.471
21
-19.171
0
LINE
8
медь верх
10
12.471
20
-19.127
11
12.217
21
-19.127
0
LINE
8
медь верх
10
-12.217
20
-19.130
11
-12.471
21
-19.130
0
LINE
8
медь верх
10
12.471
20
-19.087
11
12.217
21
-19.087
0
LINE
8
медь верх
10
-12.217
20
-19.089
11
-12.471
21
-19.089
0
LINE
8
медь верх
10
12.471
20
-19.047
11
12.217
21
-19.047
0
LINE
8
медь верх
10
-12.217
20
-19.050
11
-12.471
21
-19.050
0
LINE
8
медь верх
10
12.471
20
-19.007
11
12.217
21
-19.007
0
LINE
8
медь верх
10
-12.217
20
-19.009
11
-12.471
21
-19.009
0
LINE
8
медь верх
10
12.471
20
-18.966
11
12.217
21
-18.966
0
LINE
8
медь верх
10
-12.217
20
-18.969
11
-12.471
21
-18.969
0
LINE
8
медь верх
10
12.471
20
-18.927
11
12.217
21
-18.927
0
LINE
8
медь верх
10
-12.217
20
-18.929
11
-12.471
21
-18.929
0
LINE
8
медь верх
10
12.471
20
-18.886
11
12.217
21
-18.886
0
LINE
8
медь верх
10
-12.217
20
-18.889
11
-12.471
21
-18.889
0
LINE
8
медь верх
10
12.471
20
-18.846
11
12.217
21
-18.846
0
LINE
8
медь верх
10
-12.217
20
-18.848
11
-12.471
21
-18.848
0
LINE
8
медь верх
10
12.471
20
-18.806
11
12.217
21
-18.806
0
LINE
8
медь верх
10
-12.217
20
-18.809
11
-12.471
21
-18.809
0
LINE
8
медь верх
10
12.471
20
-18.766
11
12.217
21
-18.766
0
LINE
8
медь верх
10
-12.217
20
-18.768
11
-12.471
21
-18.768
0
LINE
8
медь верх
10
12.471
20
-18.725
11
12.217
21
-18.725
0
LINE
8
медь верх
10
-12.217
20
-18.727
11
-12.471
21
-18.727
0
LINE
8
медь верх
10
12.471
20
-18.684
11
12.217
21
-18.684
0
LINE
8
медь верх
10
-12.217
20
-18.687
11
-12.471
21
-18.687
0
LINE
8
медь верх
10
12.471
20
-18.645
11
12.217
21
-18.645
0
LINE
8
медь верх
10
-12.217
20
-18.647
11
-12.471
21
-18.647
0
LINE
8
медь верх
10
12.471
20
-18.604
11
12.217
21
-18.604
0
LINE
8
медь верх
10
-12.217
20
-18.607
11
-12.471
21
-18.607
0
LINE
8
медь верх
10
12.471
20
-18.564
11
12.217
21
-18.564
0
LINE
8
медь верх
10
-12.217
20
-18.566
11
-12.471
21
-18.566
0
LINE
8
медь верх
10
12.471
20
-18.524
11
12.217
21
-18.524
0
LINE
8
медь верх
10
-12.217
20
-18.527
11
-12.471
21
-18.527
0
LINE
8
медь верх
10
12.471
20
-18.484
11
12.217
21
-18.484
0
LINE
8
медь верх
10
-12.217
20
-18.486
11
-12.471
21
-18.486
0
LINE
8
медь верх
10
12.471
20
-18.443
11
12.217
21
-18.443
0
LINE
8
медь верх
10
-12.217
20
-18.445
11
-12.471
21
-18.445
0
LINE
8
медь верх
10
12.471
20
-18.404
11
12.217
21
-18.404
0
LINE
8
медь верх
10
-12.217
20
-18.406
11
-12.471
21
-18.406
0
LINE
8
медь верх
10
12.471
20
-18.363
11
12.217
21
-18.363
0
LINE
8
медь верх
10
-12.217
20
-18.365
11
-12.471
21
-18.365
0
LINE
8
медь верх
10
12.471
20
-18.322
11
12.217
21
-18.322
0
LINE
8
медь верх
10
-12.217
20
-18.325
11
-12.471
21
-18.325
0
LINE
8
медь верх
10
12.471
20
-18.283
11
12.217
21
-18.283
0
LINE
8
медь верх
10
-12.217
20
-18.284
11
-12.471
21
-18.284
0
LINE
8
медь верх
10
12.471
20
-18.242
11
12.217
21
-18.242
0
LINE
8
медь верх
10
-12.217
20
-18.245
11
-12.471
21
-18.245
0
LINE
8
медь верх
10
12.471
20
-18.202
11
12.217
21
-18.202
0
LINE
8
медь верх
10
-12.217
20
-18.204
11
-12.471
21
-18.204
0
LINE
8
медь верх
10
12.471
20
-18.161
11
12.217
21
-18.161
0
LINE
8
медь верх
10
-12.217
20
-18.164
11
-12.471
21
-18.164
0
LINE
8
медь верх
10
12.471
20
-18.122
11
12.217
21
-18.122
0
LINE
8
медь верх
10
-12.217
20
-18.124
11
-12.471
21
-18.124
0
LINE
8
медь верх
10
12.471
20
-18.081
11
12.217
21
-18.081
0
LINE
8
медь верх
10
-12.217
20
-18.084
11
-12.471
21
-18.084
0
LINE
8
медь верх
10
12.471
20
-18.040
11
12.217
21
-18.040
0
LINE
8
медь верх
10
-12.217
20
-18.043
11
-12.471
21
-18.043
0
LINE
8
медь верх
10
12.471
20
-18.001
11
12.217
21
-18.001
0
LINE
8
медь верх
10
-12.217
20
-18.004
11
-12.471
21
-18.004
0
LINE
8
медь верх
10
12.471
20
-17.960
11
12.217
21
-17.960
0
LINE
8
медь верх
10
-12.217
20
-17.963
11
-12.471
21
-17.963
0
LINE
8
медь верх
10
12.471
20
-17.920
11
12.217
21
-17.920
0
LINE
8
медь верх
10
-12.217
20
-17.922
11
-12.471
21
-17.922
0
LINE
8
медь верх
10
12.471
20
-17.880
11
12.217
21
-17.880
0
LINE
8
медь верх
10
-12.217
20
-17.882
11
-12.471
21
-17.883
0
LINE
8
медь верх
10
12.471
20
-17.840
11
12.217
21
-17.840
0
LINE
8
медь верх
10
-12.217
20
-17.842
11
-12.471
21
-17.842
0
LINE
8
медь верх
10
12.471
20
-17.799
11
12.217
21
-17.799
0
LINE
8
медь верх
10
-12.217
20
-17.802
11
-12.471
21
-17.802
0
LINE
8
медь верх
10
12.471
20
-17.758
11
12.217
21
-17.758
0
LINE
8
медь верх
10
-12.217
20
-17.761
11
-12.471
21
-17.761
0
LINE
8
медь верх
10
12.471
20
-17.719
11
12.217
21
-17.719
0
LINE
8
медь верх
10
-12.217
20
-17.722
11
-12.471
21
-17.722
0
LINE
8
медь верх
10
12.471
20
-17.678
11
12.217
21
-17.678
0
LINE
8
медь верх
10
-12.217
20
-17.681
11
-12.471
21
-17.681
0
LINE
8
медь верх
10
12.471
20
-17.638
11
12.217
21
-17.638
0
LINE
8
медь верх
10
-12.217
20
-17.640
11
-12.471
21
-17.640
0
LINE
8
медь верх
10
12.471
20
-17.598
11
12.217
21
-17.598
0
LINE
8
медь верх
10
-12.217
20
-17.601
11
-12.471
21
-17.601
0
LINE
8
медь верх
10
12.471
20
-17.558
11
12.217
21
-17.558
0
LINE
8
медь верх
10
-12.217
20
-17.560
11
-12.471
21
-17.560
0
LINE
8
медь верх
10
12.471
20
-17.517
11
12.217
21
-17.517
0
LINE
8
медь верх
10
-12.217
20
-17.520
11
-12.471
21
-17.520
0
LINE
8
медь верх
10
12.471
20
-17.478
11
12.217
21
-17.478
0
LINE
8
медь верх
10
-12.217
20
-17.480
11
-12.471
21
-17.480
0
LINE
8
медь верх
10
12.471
20
-17.437
11
12.217
21
-17.437
0
LINE
8
медь верх
10
-12.217
20
-17.440
11
-12.471
21
-17.440
0
LINE
8
медь верх
10
12.471
20
-17.396
11
12.217
21
-17.396
0
LINE
8
медь верх
10
-12.217
20
-17.399
11
-12.471
21
-17.399
0
LINE
8
медь верх
10
12.471
20
-17.357
11
12.217
21
-17.357
0
LINE
8
медь верх
10
-12.217
20
-17.358
11
-12.471
21
-17.358
0
LINE
8
медь верх
10
12.471
20
-17.316
11
12.217
21
-17.316
0
LINE
8
медь верх
10
-12.217
20
-17.319
11
-12.471
21
-17.319
0
LINE
8
медь верх
10
12.471
20
-17.276
11
12.217
21
-17.276
0
LINE
8
медь верх
10
-12.217
20
-17.278
11
-12.471
21
-17.278
0
LINE
8
медь верх
10
12.471
20
-17.235
11
12.217
21
-17.235
0
LINE
8
медь верх
10
-12.217
20
-17.238
11
-12.471
21
-17.238
0
LINE
8
медь верх
10
12.471
20
-17.196
11
12.217
21
-17.196
0
LINE
8
медь верх
10
-12.217
20
-17.198
11
-12.471
21
-17.198
0
LINE
8
медь верх
10
12.471
20
-17.155
11
12.217
21
-17.155
0
LINE
8
медь верх
10
-12.217
20
-17.158
11
-12.471
21
-17.158
0
LINE
8
медь верх
10
12.471
20
-17.115
11
12.217
21
-17.115
0
LINE
8
медь верх
10
-12.217
20
-17.117
11
-12.471
21
-17.117
0
LINE
8
медь верх
10
12.471
20
-17.075
11
12.217
21
-17.075
0
LINE
8
медь верх
10
-12.217
20
-17.078
11
-12.471
21
-17.078
0
LINE
8
медь верх
10
12.471
20
-17.035
11
12.217
21
-17.035
0
LINE
8
медь верх
10
-12.217
20
-17.037
11
-12.471
21
-17.037
0
LINE
8
медь верх
10
12.471
20
-16.994
11
12.217
21
-16.994
0
LINE
8
медь верх
10
-12.217
20
-16.996
11
-12.471
21
-16.996
0
LINE
8
медь верх
10
12.471
20
-16.954
11
12.217
21
-16.954
0
LINE
8
медь верх
10
-12.217
20
-16.956
11
-12.471
21
-16.957
0
LINE
8
медь верх
10
12.471
20
-16.914
11
12.217
21
-16.914
0
LINE
8
медь верх
10
-12.217
20
-16.916
11
-12.471
21
-16.916
0
LINE
8
медь верх
10
12.471
20
-16.873
11
12.217
21
-16.873
0
LINE
8
медь верх
10
-12.217
20
-16.876
11
-12.471
21
-16.876
0
LINE
8
медь верх
10
12.471
20
-16.833
11
12.217
21
-16.833
0
LINE
8
медь верх
10
-12.217
20
-16.835
11
-12.471
21
-16.835
0
LINE
8
медь верх
10
12.471
20
-16.793
11
12.217
21
-16.793
0
LINE
8
медь верх
10
-12.217
20
-16.796
11
-12.471
21
-16.796
0
LINE
8
медь верх
10
12.471
20
-16.753
11
12.217
21
-16.753
0
LINE
8
медь верх
10
-12.217
20
-16.755
11
-12.471
21
-16.755
0
LINE
8
медь верх
10
12.471
20
-16.712
11
12.217
21
-16.712
0
LINE
8
медь верх
10
-12.217
20
-16.714
11
-12.471
21
-16.714
0
LINE
8
медь верх
10
12.471
20
-16.673
11
12.217
21
-16.673
0
LINE
8
медь верх
10
-12.217
20
-16.675
11
-12.471
21
-16.675
0
LINE
8
медь верх
10
12.471
20
-16.632
11
12.217
21
-16.632
0
LINE
8
медь верх
10
-12.217
20
-16.634
11
-12.471
21
-16.634
0
LINE
8
медь верх
10
12.471
20
-16.591
11
12.217
21
-16.591
0
LINE
8
медь верх
10
-12.217
20
-16.594
11
-12.471
21
-16.594
0
LINE
8
медь верх
10
12.471
20
-16.552
11
12.217
21
-16.552
0
LINE
8
медь верх
10
-12.217
20
-16.554
11
-12.471
21
-16.554
0
LINE
8
медь верх
10
12.471
20
-16.511
11
12.217
21
-16.511
0
LINE
8
медь верх
10
-12.217
20
-16.514
11
-12.471
21
-16.514
0
LINE
8
медь верх
10
12.471
20
-16.471
11
12.217
21
-16.471
0
LINE
8
медь верх
10
-12.217
20
-16.473
11
-12.471
21
-16.473
0
LINE
8
медь верх
10
12.471
20
-16.430
11
12.217
21
-16.431
0
LINE
8
медь верх
10
-12.217
20
-16.433
11
-12.471
21
-16.433
0
LINE
8
медь верх
10
12.471
20
-16.391
11
12.217
21
-16.391
0
LINE
8
медь верх
10
-12.217
20
-16.393
11
-12.471
21
-16.393
0
LINE
8
медь верх
10
12.471
20
-16.350
11
12.217
21
-16.350
0
LINE
8
медь верх
10
-12.217
20
-16.353
11
-12.471
21
-16.353
0
LINE
8
медь верх
10
12.471
20
-16.309
11
12.217
21
-16.309
0
LINE
8
медь верх
10
-12.217
20
-16.312
11
-12.471
21
-16.312
0
LINE
8
медь верх
10
12.471
20
-16.270
11
12.217
21
-16.270
0
LINE
8
медь верх
10
-12.217
20
-16.273
11
-12.471
21
-16.273
0
LINE
8
медь верх
10
12.471
20
-16.229
11
12.217
21
-16.229
0
LINE
8
медь верх
10
-12.217
20
-16.232
11
-12.471
21
-16.232
0
LINE
8
медь верх
10
12.471
20
-16.189
11
12.217
21
-16.189
0
LINE
8
медь верх
10
-12.217
20
-16.191
11
-12.471
21
-16.191
0
LINE
8
медь верх
10
12.471
20
-16.149
11
12.217
21
-16.149
0
LINE
8
медь верх
10
-12.217
20
-16.152
11
-12.471
21
-16.152
0
LINE
8
медь верх
10
12.471
20
-16.109
11
12.217
21
-16.109
0
LINE
8
медь верх
10
-12.217
20
-16.111
11
-12.471
21
-16.111
0
LINE
8
медь верх
10
12.471
20
-16.068
11
12.217
21
-16.068
0
LINE
8
медь верх
10
-12.217
20
-16.071
11
-12.471
21
-16.071
0
LINE
8
медь верх
10
12.471
20
-16.029
11
12.217
21
-16.029
0
LINE
8
медь верх
10
-12.217
20
-16.030
11
-12.471
21
-16.030
0
LINE
8
медь верх
10
12.471
20
-15.988
11
12.217
21
-15.988
0
LINE
8
медь верх
10
-12.217
20
-15.991
11
-12.471
21
-15.991
0
LINE
8
медь верх
10
12.471
20
-15.947
11
12.217
21
-15.947
0
LINE
8
медь верх
10
-12.217
20
-15.950
11
-12.471
21
-15.950
0
LINE
8
медь верх
10
12.471
20
-15.907
11
12.217
21
-15.907
0
LINE
8
медь верх
10
-12.217
20
-15.909
11
-12.471
21
-15.909
0
LINE
8
медь верх
10
12.471
20
-15.867
11
12.217
21
-15.867
0
LINE
8
медь верх
10
-12.217
20
-15.870
11
-12.471
21
-15.870
0
LINE
8
медь верх
10
12.471
20
-15.827
11
12.217
21
-15.827
0
LINE
8
медь верх
10
-12.217
20
-15.829
11
-12.471
21
-15.829
0
LINE
8
медь верх
10
12.471
20
-15.786
11
12.217
21
-15.786
0
LINE
8
медь верх
10
-12.217
20
-15.789
11
-12.471
21
-15.789
0
LINE
8
медь верх
10
12.471
20
-15.747
11
12.217
21
-15.747
0
LINE
8
медь верх
10
-12.217
20
-15.749
11
-12.471
21
-15.749
0
LINE
8
медь верх
10
12.471
20
-15.706
11
12.217
21
-15.706
0
LINE
8
медь верх
10
-12.217
20
-15.709
11
-12.471
21
-15.709
0
LINE
8
медь верх
10
12.471
20
-15.665
11
12.217
21
-15.665
0
LINE
8
медь верх
10
-12.217
20
-15.668
11
-12.471
21
-15.668
0
LINE
8
медь верх
10
12.471
20
-15.626
11
12.217
21
-15.626
0
LINE
8
медь верх
10
-12.217
20
-15.629
11
-12.471
21
-15.629
0
LINE
8
медь верх
10
12.471
20
-15.585
11
12.217
21
-15.585
0
LINE
8
медь верх
10
-12.217
20
-15.588
11
-12.471
21
-15.588
0
LINE
8
медь верх
10
12.471
20
-15.545
11
12.217
21
-15.545
0
LINE
8
медь верх
10
-12.217
20
-15.547
11
-12.471
21
-15.547
0
LINE
8
медь верх
10
12.471
20
-15.504
11
12.217
21
-15.505
0
LINE
8
медь верх
10
-12.217
20
-15.507
11
-12.471
21
-15.507
0
LINE
8
медь верх
10
12.471
20
-15.465
11
12.217
21
-15.465
0
LINE
8
медь верх
10
-12.217
20
-15.467
11
-12.471
21
-15.467
0
LINE
8
медь верх
10
12.471
20
-15.424
11
12.217
21
-15.424
0
LINE
8
медь верх
10
-12.217
20
-15.427
11
-12.471
21
-15.427
0
LINE
8
медь верх
10
12.471
20
-15.384
11
12.217
21
-15.384
0
LINE
8
медь верх
10
-12.217
20
-15.386
11
-12.471
21
-15.386
0
LINE
8
медь верх
10
12.471
20
-15.344
11
12.217
21
-15.344
0
LINE
8
медь верх
10
-12.217
20
-15.347
11
-12.471
21
-15.347
0
LINE
8
медь верх
10
12.471
20
-15.304
11
12.217
21
-15.304
0
LINE
8
медь верх
10
-12.217
20
-15.306
11
-12.471
21
-15.306
0
LINE
8
медь верх
10
12.471
20
-15.263
11
12.217
21
-15.263
0
LINE
8
медь верх
10
-12.217
20
-15.265
11
-12.471
21
-15.265
0
LINE
8
медь верх
10
12.471
20
-15.223
11
12.217
21
-15.223
0
LINE
8
медь верх
10
-12.217
20
-15.226
11
-12.471
21
-15.226
0
LINE
8
медь верх
10
12.471
20
-15.183
11
12.217
21
-15.183
0
LINE
8
медь верх
10
-12.217
20
-15.185
11
-12.471
21
-15.185
0
LINE
8
медь верх
10
12.471
20
-15.142
11
12.217
21
-15.142
0
LINE
8
медь верх
10
-12.217
20
-15.145
11
-12.471
21
-15.145
0
LINE
8
медь верх
10
12.471
20
-15.103
11
12.217
21
-15.103
0
LINE
8
медь верх
10
-12.217
20
-15.104
11
-12.471
21
-15.104
0
LINE
8
медь верх
10
12.471
20
-15.062
11
12.217
21
-15.062
0
LINE
8
медь верх
10
-12.217
20
-15.065
11
-12.471
21
-15.065
0
LINE
8
медь верх
10
12.471
20
-15.022
11
12.217
21
-15.022
0
LINE
8
медь верх
10
-12.217
20
-15.024
11
-12.471
21
-15.024
0
LINE
8
медь верх
10
12.471
20
-14.981
11
12.217
21
-14.981
0
LINE
8
медь верх
10
-12.217
20
-14.983
11
-12.471
21
-14.983
0
LINE
8
медь верх
10
12.471
20
-14.942
11
12.217
21
-14.942
0
LINE
8
медь верх
10
-12.217
20
-14.944
11
-12.471
21
-14.944
0
LINE
8
медь верх
10
12.471
20
-14.901
11
12.217
21
-14.901
0
LINE
8
медь верх
10
-12.217
20
-14.903
11
-12.471
21
-14.903
0
LINE
8
медь верх
10
12.471
20
-14.860
11
12.217
21
-14.860
0
LINE
8
медь верх
10
-12.217
20
-14.863
11
-12.471
21
-14.863
0
LINE
8
медь верх
10
12.471
20
-14.821
11
12.217
21
-14.821
0
LINE
8
медь верх
10
-12.217
20
-14.823
11
-12.471
21
-14.823
0
LINE
8
медь верх
10
12.471
20
-14.780
11
12.217
21
-14.780
0
LINE
8
медь верх
10
-12.217
20
-14.783
11
-12.471
21
-14.783
0
LINE
8
медь верх
10
12.471
20
-14.740
11
12.217
21
-14.740
0
LINE
8
медь верх
10
-12.217
20
-14.742
11
-12.471
21
-14.742
0
LINE
8
медь верх
10
12.471
20
-14.700
11
12.217
21
-14.700
0
LINE
8
медь верх
10
-12.217
20
-14.703
11
-12.471
21
-14.703
0
LINE
8
медь верх
10
12.471
20
-14.660
11
12.217
21
-14.660
0
LINE
8
медь верх
10
-12.217
20
-14.662
11
-12.471
21
-14.662
0
LINE
8
медь верх
10
12.471
20
-14.619
11
12.217
21
-14.619
0
LINE
8
медь верх
10
-12.217
20
-14.622
11
-12.471
21
-14.622
0
LINE
8
медь верх
10
12.471
20
-14.578
11
12.217
21
-14.578
0
LINE
8
медь верх
10
-12.217
20
-14.581
11
-12.471
21
-14.581
0
LINE
8
медь верх
10
12.471
20
-14.539
11
12.217
21
-14.539
0
LINE
8
медь верх
10
-12.217
20
-14.541
11
-12.471
21
-14.541
0
LINE
8
медь верх
10
12.471
20
-14.498
11
12.217
21
-14.498
0
LINE
8
медь верх
10
-12.217
20
-14.501
11
-12.471
21
-14.501
0
LINE
8
медь верх
10
12.471
20
-14.458
11
12.217
21
-14.458
0
LINE
8
медь верх
10
-12.217
20
-14.460
11
-12.471
21
-14.460
0
LINE
8
медь верх
10
12.471
20
-14.418
11
12.217
21
-14.418
0
LINE
8
медь верх
10
-12.217
20
-14.421
11
-12.471
21
-14.421
0
LINE
8
медь верх
10
12.471
20
-14.378
11
12.217
21
-14.378
0
LINE
8
медь верх
10
-12.217
20
-14.380
11
-12.471
21
-14.380
0
LINE
8
медь верх
10
12.471
20
-14.337
11
12.217
21
-14.337
0
LINE
8
медь верх
10
-12.217
20
-14.340
11
-12.471
21
-14.340
0
LINE
8
медь верх
10
12.471
20
-14.298
11
12.217
21
-14.298
0
LINE
8
медь верх
10
-12.217
20
-14.300
11
-12.471
21
-14.300
0
LINE
8
медь верх
10
12.471
20
-14.257
11
12.217
21
-14.257
0
LINE
8
медь верх
10
-12.217
20
-14.260
11
-12.471
21
-14.260
0
LINE
8
медь верх
10
12.471
20
-14.216
11
12.217
21
-14.216
0
LINE
8
медь верх
10
-12.217
20
-14.219
11
-12.471
21
-14.219
0
LINE
8
медь верх
10
12.471
20
-14.177
11
12.217
21
-14.177
0
LINE
8
медь верх
10
-12.217
20
-14.178
11
-12.471
21
-14.178
0
LINE
8
медь верх
10
12.471
20
-14.136
11
12.217
21
-14.136
0
LINE
8
медь верх
10
-12.217
20
-14.139
11
-12.471
21
-14.139
0
LINE
8
медь верх
10
12.471
20
-14.096
11
12.217
21
-14.096
0
LINE
8
медь верх
10
-12.217
20
-14.098
11
-12.471
21
-14.098
0
LINE
8
медь верх
10
12.471
20
-14.055
11
12.217
21
-14.055
0
LINE
8
медь верх
10
-12.217
20
-14.058
11
-12.471
21
-14.058
0
LINE
8
медь верх
10
12.471
20
-14.016
11
12.217
21
-14.016
0
LINE
8
медь верх
10
-12.217
20
-14.018
11
-12.471
21
-14.018
0
LINE
8
медь верх
10
12.471
20
-13.975
11
12.217
21
-13.975
0
LINE
8
медь верх
10
-12.217
20
-13.978
11
-12.471
21
-13.978
0
LINE
8
медь верх
10
12.471
20
-13.934
11
12.217
21
-13.934
0
LINE
8
медь верх
10
-12.217
20
-13.937
11
-12.471
21
-13.937
0
LINE
8
медь верх
10
12.471
20
-13.895
11
12.217
21
-13.895
0
LINE
8
медь верх
10
-12.217
20
-13.898
11
-12.471
21
-13.898
0
LINE
8
медь верх
10
12.471
20
-13.854
11
12.217
21
-13.854
0
LINE
8
медь верх
10
-12.217
20
-13.857
11
-12.471
21
-13.857
0
LINE
8
медь верх
10
12.471
20
-13.814
11
12.217
21
-13.814
0
LINE
8
медь верх
10
-12.217
20
-13.816
11
-12.471
21
-13.816
0
LINE
8
медь верх
10
12.471
20
-13.774
11
12.217
21
-13.774
0
LINE
8
медь верх
10
-12.217
20
-13.776
11
-12.471
21
-13.777
0
LINE
8
медь верх
10
12.471
20
-13.734
11
12.217
21
-13.734
0
LINE
8
медь верх
10
-12.217
20
-13.736
11
-12.471
21
-13.736
0
LINE
8
медь верх
10
12.471
20
-13.693
11
12.217
21
-13.693
0
LINE
8
медь верх
10
-12.217
20
-13.696
11
-12.471
21
-13.696
0
LINE
8
медь верх
10
12.471
20
-13.653
11
12.217
21
-13.653
0
LINE
8
медь верх
10
-12.217
20
-13.655
11
-12.471
21
-13.655
0
LINE
8
медь верх
10
12.471
20
-13.613
11
12.217
21
-13.613
0
LINE
8
медь верх
10
-12.217
20
-13.616
11
-12.471
21
-13.616
0
LINE
8
медь верх
10
12.471
20
-13.572
11
12.217
21
-13.572
0
LINE
8
медь верх
10
-12.217
20
-13.575
11
-12.471
21
-13.575
0
LINE
8
медь верх
10
12.471
20
-13.532
11
12.217
21
-13.532
0
LINE
8
медь верх
10
-12.217
20
-13.534
11
-12.471
21
-13.534
0
LINE
8
медь верх
10
12.471
20
-13.492
11
12.217
21
-13.492
0
LINE
8
медь верх
10
-12.217
20
-13.495
11
-12.471
21
-13.495
0
LINE
8
медь верх
10
12.471
20
-13.452
11
12.217
21
-13.452
0
LINE
8
медь верх
10
-12.217
20
-13.454
11
-12.471
21
-13.454
0
LINE
8
медь верх
10
12.471
20
-13.411
11
12.217
21
-13.411
0
LINE
8
медь верх
10
-12.217
20
-13.414
11
-12.471
21
-13.414
0
LINE
8
медь верх
10
12.471
20
-13.372
11
12.217
21
-13.372
0
LINE
8
медь верх
10
-12.217
20
-13.374
11
-12.471
21
-13.374
0
LINE
8
медь верх
10
12.471
20
-13.331
11
12.217
21
-13.331
0
LINE
8
медь верх
10
-12.217
20
-13.334
11
-12.471
21
-13.334
0
LINE
8
медь верх
10
12.471
20
-13.291
11
12.217
21
-13.291
0
LINE
8
медь верх
10
-12.217
20
-13.293
11
-12.471
21
-13.293
0
LINE
8
медь верх
10
12.471
20
-13.251
11
12.217
21
-13.251
0
LINE
8
медь верх
10
-12.217
20
-13.252
11
-12.471
21
-13.252
0
LINE
8
медь верх
10
12.471
20
-13.211
11
12.217
21
-13.211
0
LINE
8
медь верх
10
-12.217
20
-13.213
11
-12.471
21
-13.213
0
LINE
8
медь верх
10
12.471
20
-13.170
11
12.217
21
-13.170
0
LINE
8
медь верх
10
-12.217
20
-13.172
11
-12.471
21
-13.172
0
LINE
8
медь верх
10
12.471
20
-13.129
11
12.217
21
-13.129
0
LINE
8
медь верх
10
-12.217
20
-13.132
11
-12.471
21
-13.132
0
LINE
8
медь верх
10
12.471
20
-13.090
11
12.217
21
-13.090
0
LINE
8
медь верх
10
-12.217
20
-13.092
11
-12.471
21
-13.092
0
LINE
8
медь верх
10
12.471
20
-13.049
11
12.217
21
-13.049
0
LINE
8
медь верх
10
-12.217
20
-13.052
11
-12.471
21
-13.052
0
LINE
8
медь верх
10
12.471
20
-13.009
11
12.217
21
-13.009
0
LINE
8
медь верх
10
-12.217
20
-13.011
11
-12.471
21
-13.011
0
LINE
8
медь верх
10
12.471
20
-12.969
11
12.217
21
-12.969
0
LINE
8
медь верх
10
-12.217
20
-12.972
11
-12.471
21
-12.972
0
LINE
8
медь верх
10
12.471
20
-12.929
11
12.217
21
-12.929
0
LINE
8
медь верх
10
-12.217
20
-12.931
11
-12.471
21
-12.931
0
LINE
8
медь верх
10
12.471
20
-12.888
11
12.217
21
-12.888
0
LINE
8
медь верх
10
-12.217
20
-12.890
11
-12.471
21
-12.890
0
LINE
8
медь верх
10
12.471
20
-12.849
11
12.217
21
-12.849
0
LINE
8
медь верх
10
-12.217
20
-12.850
11
-12.471
21
-12.851
0
LINE
8
медь верх
10
12.471
20
-12.808
11
12.217
21
-12.808
0
LINE
8
медь верх
10
-12.217
20
-12.810
11
-12.471
21
-12.810
0
LINE
8
медь верх
10
12.471
20
-12.767
11
12.217
21
-12.767
0
LINE
8
медь верх
10
-12.217
20
-12.770
11
-12.471
21
-12.770
0
LINE
8
медь верх
10
12.471
20
-12.727
11
12.217
21
-12.727
0
LINE
8
медь верх
10
-12.217
20
-12.729
11
-12.471
21
-12.729
0
LINE
8
медь верх
10
12.471
20
-12.687
11
12.217
21
-12.687
0
LINE
8
медь верх
10
-12.217
20
-12.690
11
-12.471
21
-12.690
0
LINE
8
медь верх
10
12.471
20
-12.647
11
12.217
21
-12.647
0
LINE
8
медь верх
10
-12.217
20
-12.649
11
-12.471
21
-12.649
0
LINE
8
медь верх
10
12.471
20
-12.606
11
12.217
21
-12.606
0
LINE
8
медь верх
10
-12.217
20
-12.609
11
-12.471
21
-12.609
0
LINE
8
медь верх
10
10.000
20
-19.400
11
10.008
21
-19.313
0
LINE
8
медь верх
10
10.008
20
-19.313
11
10.030
21
-19.229
0
LINE
8
медь верх
10
10.030
20
-19.229
11
10.067
21
-19.150
0
LINE
8
медь верх
10
10.067
20
-19.150
11
10.117
21
-19.079
0
LINE
8
медь верх
10
10.117
20
-19.079
11
10.179
21
-19.017
0
LINE
8
медь верх
10
10.179
20
-19.017
11
10.250
21
-18.967
0
LINE
8
медь верх
10
10.250
20
-18.967
11
10.329
21
-18.930
0
LINE
8
медь верх
10
10.329
20
-18.930
11
10.413
21
-18.908
0
LINE
8
медь верх
10
10.413
20
-18.908
11
10.500
21
-18.900
0
LINE
8
медь верх
10
10.500
20
-18.900
11
10.587
21
-18.908
0
LINE
8
медь верх
10
10.587
20
-18.908
11
10.671
21
-18.930
0
LINE
8
медь верх
10
10.671
20
-18.930
11
10.750
21
-18.967
0
LINE
8
медь верх
10
10.750
20
-18.967
11
10.821
21
-19.017
0
LINE
8
медь верх
10
10.821
20
-19.017
11
10.883
21
-19.079
0
LINE
8
медь верх
10
10.883
20
-19.079
11
10.933
21
-19.150
0
LINE
8
медь верх
10
10.933
20
-19.150
11
10.970
21
-19.229
0
LINE
8
медь верх
10
10.970
20
-19.229
11
10.992
21
-19.313
0
LINE
8
медь верх
10
10.992
20
-19.313
11
11.000
21
-19.400
0
LINE
8
медь верх
10
11.000
20
-19.400
11
10.992
21
-19.487
0
LINE
8
медь верх
10
10.992
20
-19.487
11
10.970
21
-19.571
0
LINE
8
медь верх
10
10.970
20
-19.571
11
10.933
21
-19.650
0
LINE
8
медь верх
10
10.933
20
-19.650
11
10.883
21
-19.721
0
LINE
8
медь верх
10
10.883
20
-19.721
11
10.821
21
-19.783
0
LINE
8
медь верх
10
10.821
20
-19.783
11
10.750
21
-19.833
0
LINE
8
медь верх
10
10.750
20
-19.833
11
10.671
21
-19.870
0
LINE
8
медь верх
10
10.671
20
-19.870
11
10.587
21
-19.892
0
LINE
8
медь верх
10
10.587
20
-19.892
11
10.500
21
-19.900
0
LINE
8
медь верх
10
10.500
20
-19.900
11
10.413
21
-19.892
0
LINE
8
медь верх
10
10.413
20
-19.892
11
10.329
21
-19.870
0
LINE
8
медь верх
10
10.329
20
-19.870
11
10.250
21
-19.833
0
LINE
8
медь верх
10
10.250
20
-19.833
11
10.179
21
-19.783
0
LINE
8
медь верх
10
10.179
20
-19.783
11
10.117
21
-19.721
0
LINE
8
медь верх
10
10.117
20
-19.721
11
10.067
21
-19.650
0
LINE
8
медь верх
10
10.067
20
-19.650
11
10.030
21
-19.571
0
LINE
8
медь верх
10
10.030
20
-19.571
11
10.008
21
-19.487
0
LINE
8
медь верх
10
10.008
20
-19.487
11
10.000
21
-19.400
0
LINE
8
медь верх
10
10.643
20
-19.878
11
10.356
21
-19.878
0
LINE
8
медь верх
10
10.739
20
-19.839
11
10.259
21
-19.839
0
LINE
8
медь верх
10
10.801
20
-19.798
11
10.197
21
-19.798
0
LINE
8
медь верх
10
10.848
20
-19.757
11
10.151
21
-19.757
0
LINE
8
медь верх
10
10.885
20
-19.717
11
10.113
21
-19.717
0
LINE
8
медь верх
10
10.916
20
-19.677
11
10.084
21
-19.677
0
LINE
8
медь верх
10
10.940
20
-19.637
11
10.060
21
-19.637
0
LINE
8
медь верх
10
10.959
20
-19.596
11
10.039
21
-19.596
0
LINE
8
медь верх
10
10.974
20
-19.557
11
10.024
21
-19.557
0
LINE
8
медь верх
10
10.986
20
-19.516
11
10.013
21
-19.516
0
LINE
8
медь верх
10
10.993
20
-19.475
11
10.005
21
-19.475
0
LINE
8
медь верх
10
10.998
20
-19.436
11
10.001
21
-19.436
0
LINE
8
медь верх
10
10.000
20
-19.395
11
10.999
21
-19.395
0
LINE
8
медь верх
10
10.001
20
-19.355
11
10.997
21
-19.355
0
LINE
8
медь верх
10
10.006
20
-19.315
11
10.992
21
-19.314
0
LINE
8
медь верх
10
10.015
20
-19.275
11
10.983
21
-19.275
0
LINE
8
медь верх
10
10.028
20
-19.234
11
10.972
21
-19.234
0
LINE
8
медь верх
10
10.043
20
-19.194
11
10.955
21
-19.194
0
LINE
8
медь верх
10
10.063
20
-19.154
11
10.935
21
-19.154
0
LINE
8
медь верх
10
10.089
20
-19.113
11
10.909
21
-19.113
0
LINE
8
медь верх
10
10.121
20
-19.073
11
10.879
21
-19.073
0
LINE
8
медь верх
10
10.159
20
-19.033
11
10.839
21
-19.033
0
LINE
8
медь верх
10
10.208
20
-18.993
11
10.790
21
-18.993
0
LINE
8
медь верх
10
10.276
20
-18.952
11
10.724
21
-18.952
0
LINE
8
медь верх
10
10.386
20
-18.913
11
10.612
21
-18.913
0
LINE
8
медь верх
10
10.000
20
-21.900
11
10.008
21
-21.813
0
LINE
8
медь верх
10
10.008
20
-21.813
11
10.030
21
-21.729
0
LINE
8
медь верх
10
10.030
20
-21.729
11
10.067
21
-21.650
0
LINE
8
медь верх
10
10.067
20
-21.650
11
10.117
21
-21.579
0
LINE
8
медь верх
10
10.117
20
-21.579
11
10.179
21
-21.517
0
LINE
8
медь верх
10
10.179
20
-21.517
11
10.250
21
-21.467
0
LINE
8
медь верх
10
10.250
20
-21.467
11
10.329
21
-21.430
0
LINE
8
медь верх
10
10.329
20
-21.430
11
10.413
21
-21.408
0
LINE
8
медь верх
10
10.413
20
-21.408
11
10.500
21
-21.400
0
LINE
8
медь верх
10
10.500
20
-21.400
11
10.587
21
-21.408
0
LINE
8
медь верх
10
10.587
20
-21.408
11
10.671
21
-21.430
0
LINE
8
медь верх
10
10.671
20
-21.430
11
10.750
21
-21.467
0
LINE
8
медь верх
10
10.750
20
-21.467
11
10.821
21
-21.517
0
LINE
8
медь верх
10
10.821
20
-21.517
11
10.883
21
-21.579
0
LINE
8
медь верх
10
10.883
20
-21.579
11
10.933
21
-21.650
0
LINE
8
медь верх
10
10.933
20
-21.650
11
10.970
21
-21.729
0
LINE
8
медь верх
10
10.970
20
-21.729
11
10.992
21
-21.813
0
LINE
8
медь верх
10
10.992
20
-21.813
11
11.000
21
-21.900
0
LINE
8
медь верх
10
11.000
20
-21.900
11
10.992
21
-21.987
0
LINE
8
медь верх
10
10.992
20
-21.987
11
10.970
21
-22.071
0
LINE
8
медь верх
10
10.970
20
-22.071
11
10.933
21
-22.150
0
LINE
8
медь верх
10
10.933
20
-22.150
11
10.883
21
-22.221
0
LINE
8
медь верх
10
10.883
20
-22.221
11
10.821
21
-22.283
0
LINE
8
медь верх
10
10.821
20
-22.283
11
10.750
21
-22.333
0
LINE
8
медь верх
10
10.750
20
-22.333
11
10.671
21
-22.370
0
LINE
8
медь верх
10
10.671
20
-22.370
11
10.587
21
-22.392
0
LINE
8
медь верх
10
10.587
20
-22.392
11
10.500
21
-22.400
0
LINE
8
медь верх
10
10.500
20
-22.400
11
10.413
21
-22.392
0
LINE
8
медь верх
10
10.413
20
-22.392
11
10.329
21
-22.370
0
LINE
8
медь верх
10
10.329
20
-22.370
11
10.250
21
-22.333
0
LINE
8
медь верх
10
10.250
20
-22.333
11
10.179
21
-22.283
0
LINE
8
медь верх
10
10.179
20
-22.283
11
10.117
21
-22.221
0
LINE
8
медь верх
10
10.117
20
-22.221
11
10.067
21
-22.150
0
LINE
8
медь верх
10
10.067
20
-22.150
11
10.030
21
-22.071
0
LINE
8
медь верх
10
10.030
20
-22.071
11
10.008
21
-21.987
0
LINE
8
медь верх
10
10.008
20
-21.987
11
10.000
21
-21.900
0
LINE
8
медь верх
10
10.532
20
-22.398
11
10.467
21
-22.398
0
LINE
8
медь верх
10
10.698
20
-22.358
11
10.301
21
-22.358
0
LINE
8
медь верх
10
10.773
20
-22.318
11
10.226
21
-22.318
0
LINE
8
медь верх
10
10.827
20
-22.277
11
10.173
21
-22.277
0
LINE
8
медь верх
10
10.867
20
-22.238
11
10.131
21
-22.238
0
LINE
8
медь верх
10
10.902
20
-22.197
11
10.098
21
-22.197
0
LINE
8
медь верх
10
10.928
20
-22.156
11
10.071
21
-22.156
0
LINE
8
медь верх
10
10.950
20
-22.117
11
10.050
21
-22.117
0
LINE
8
медь верх
10
10.966
20
-22.076
11
10.032
21
-22.076
0
LINE
8
медь верх
10
10.980
20
-22.036
11
10.019
21
-22.036
0
LINE
8
медь верх
10
10.991
20
-21.995
11
10.009
21
-21.996
0
LINE
8
медь верх
10
10.996
20
-21.956
11
10.003
21
-21.956
0
LINE
8
медь верх
10
10.999
20
-21.915
11
10.000
21
-21.915
0
LINE
8
медь верх
10
10.000
20
-21.874
11
10.998
21
-21.874
0
LINE
8
медь верх
10
10.004
20
-21.835
11
10.996
21
-21.835
0
LINE
8
медь верх
10
10.010
20
-21.794
11
10.988
21
-21.794
0
LINE
8
медь верх
10
10.020
20
-21.754
11
10.978
21
-21.754
0
LINE
8
медь верх
10
10.036
20
-21.714
11
10.964
21
-21.714
0
LINE
8
медь верх
10
10.053
20
-21.674
11
10.946
21
-21.674
0
LINE
8
медь верх
10
10.076
20
-21.633
11
10.923
21
-21.633
0
LINE
8
медь верх
10
10.104
20
-21.594
11
10.894
21
-21.594
0
LINE
8
медь верх
10
10.138
20
-21.553
11
10.860
21
-21.553
0
LINE
8
медь верх
10
10.183
20
-21.513
11
10.817
21
-21.513
0
LINE
8
медь верх
10
10.239
20
-21.472
11
10.759
21
-21.472
0
LINE
8
медь верх
10
10.321
20
-21.433
11
10.678
21
-21.433
0
LINE
8
медь верх
10
-10.900
20
-19.400
11
-10.892
21
-19.313
0
LINE
8
медь верх
10
-10.892
20
-19.313
11
-10.870
21
-19.229
0
LINE
8
медь верх
10
-10.870
20
-19.229
11
-10.833
21
-19.150
0
LINE
8
медь верх
10
-10.833
20
-19.150
11
-10.783
21
-19.079
0
LINE
8
медь верх
10
-10.783
20
-19.079
11
-10.721
21
-19.017
0
LINE
8
медь верх
10
-10.721
20
-19.017
11
-10.650
21
-18.967
0
LINE
8
медь верх
10
-10.650
20
-18.967
11
-10.571
21
-18.930
0
LINE
8
медь верх
10
-10.571
20
-18.930
11
-10.487
21
-18.908
0
LINE
8
медь верх
10
-10.487
20
-18.908
11
-10.400
21
-18.900
0
LINE
8
медь верх
10
-10.400
20
-18.900
11
-10.313
21
-18.908
0
LINE
8
медь верх
10
-10.313
20
-18.908
11
-10.229
21
-18.930
0
LINE
8
медь верх
10
-10.229
20
-18.930
11
-10.150
21
-18.967
0
LINE
8
медь верх
10
-10.150
20
-18.967
11
-10.079
21
-19.017
0
LINE
8
медь верх
10
-10.079
20
-19.017
11
-10.017
21
-19.079
0
LINE
8
медь верх
10
-10.017
20
-19.079
11
-9.967
21
-19.150
0
LINE
8
медь верх
10
-9.967
20
-19.150
11
-9.930
21
-19.229
0
LINE
8
медь верх
10
-9.930
20
-19.229
11
-9.908
21
-19.313
0
LINE
8
медь верх
10
-9.908
20
-19.313
11
-9.900
21
-19.400
0
LINE
8
медь верх
10
-9.900
20
-19.400
11
-9.908
21
-19.487
0
LINE
8
медь верх
10
-9.908
20
-19.487
11
-9.930
21
-19.571
0
LINE
8
медь верх
10
-9.930
20
-19.571
11
-9.967
21
-19.650
0
LINE
8
медь верх
10
-9.967
20
-19.650
11
-10.017
21
-19.721
0
LINE
8
медь верх
10
-10.017
20
-19.721
11
-10.079
21
-19.783
0
LINE
8
медь верх
10
-10.079
20
-19.783
11
-10.150
21
-19.833
0
LINE
8
медь верх
10
-10.150
20
-19.833
11
-10.229
21
-19.870
0
LINE
8
медь верх
10
-10.229
20
-19.870
11
-10.313
21
-19.892
0
LINE
8
медь верх
10
-10.313
20
-19.892
11
-10.400
21
-19.900
0
LINE
8
медь верх
10
-10.400
20
-19.900
11
-10.487
21
-19.892
0
LINE
8
медь верх
10
-10.487
20
-19.892
11
-10.571
21
-19.870
0
LINE
8
медь верх
10
-10.571
20
-19.870
11
-10.650
21
-19.833
0
LINE
8
медь верх
10
-10.650
20
-19.833
11
-10.721
21
-19.783
0
LINE
8
медь верх
10
-10.721
20
-19.783
11
-10.783
21
-19.721
0
LINE
8
медь верх
10
-10.783
20
-19.721
11
-10.833
21
-19.650
0
LINE
8
медь верх
10
-10.833
20
-19.650
11
-10.870
21
-19.571
0
LINE
8
медь верх
10
-10.870
20
-19.571
11
-10.892
21
-19.487
0
LINE
8
медь верх
10
-10.892
20
-19.487
11
-10.900
21
-19.400
0
LINE
8
медь верх
10
-10.263
20
-19.881
11
-10.536
21
-19.881
0
LINE
8
медь верх
10
-10.164
20
-19.840
11
-10.635
21
-19.840
0
LINE
8
медь верх
10
-10.100
20
-19.799
11
-10.698
21
-19.799
0
LINE
8
медь верх
10
-10.052
20
-19.760
11
-10.745
21
-19.760
0
LINE
8
медь верх
10
-10.015
20
-19.719
11
-10.784
21
-19.719
0
LINE
8
медь верх
10
-9.985
20
-19.679
11
-10.814
21
-19.679
0
LINE
8
медь верх
10
-9.961
20
-19.639
11
-10.838
21
-19.639
0
LINE
8
медь верх
10
-9.940
20
-19.599
11
-10.858
21
-19.599
0
LINE
8
медь верх
10
-9.925
20
-19.558
11
-10.874
21
-19.558
0
LINE
8
медь верх
10
-9.914
20
-19.519
11
-10.885
21
-19.519
0
LINE
8
медь верх
10
-9.906
20
-19.478
11
-10.893
21
-19.478
0
LINE
8
медь верх
10
-9.901
20
-19.437
11
-10.898
21
-19.437
0
LINE
8
медь верх
10
-10.899
20
-19.398
11
-9.900
21
-19.397
0
LINE
8
медь верх
10
-10.898
20
-19.357
11
-9.901
21
-19.357
0
LINE
8
медь верх
10
-10.893
20
-19.317
11
-9.906
21
-19.317
0
LINE
8
медь верх
10
-10.884
20
-19.276
11
-9.915
21
-19.276
0
LINE
8
медь верх
10
-10.872
20
-19.237
11
-9.926
21
-19.237
0
LINE
8
медь верх
10
-10.856
20
-19.196
11
-9.943
21
-19.196
0
LINE
8
медь верх
10
-10.836
20
-19.155
11
-9.963
21
-19.155
0
LINE
8
медь верх
10
-10.812
20
-19.116
11
-9.987
21
-19.116
0
LINE
8
медь верх
10
-10.780
20
-19.075
11
-10.019
21
-19.075
0
LINE
8
медь верх
10
-10.742
20
-19.035
11
-10.057
21
-19.035
0
LINE
8
медь верх
10
-10.693
20
-18.995
11
-10.105
21
-18.995
0
LINE
8
медь верх
10
-10.627
20
-18.955
11
-10.171
21
-18.955
0
LINE
8
медь верх
10
-10.521
20
-18.914
11
-10.278
21
-18.914
0
LINE
8
медь верх
10
-10.900
20
-21.900
11
-10.892
21
-21.813
0
LINE
8
медь верх
10
-10.892
20
-21.813
11
-10.870
21
-21.729
0
LINE
8
медь верх
10
-10.870
20
-21.729
11
-10.833
21
-21.650
0
LINE
8
медь верх
10
-10.833
20
-21.650
11
-10.783
21
-21.579
0
LINE
8
медь верх
10
-10.783
20
-21.579
11
-10.721
21
-21.517
0
LINE
8
медь верх
10
-10.721
20
-21.517
11
-10.650
21
-21.467
0
LINE
8
медь верх
10
-10.650
20
-21.467
11
-10.571
21
-21.430
0
LINE
8
медь верх
10
-10.571
20
-21.430
11
-10.487
21
-21.408
0
LINE
8
медь верх
10
-10.487
20
-21.408
11
-10.400
21
-21.400
0
LINE
8
медь верх
10
-10.400
20
-21.400
11
-10.313
21
-21.408
0
LINE
8
медь верх
10
-10.313
20
-21.408
11
-10.229
21
-21.430
0
LINE
8
медь верх
10
-10.229
20
-21.430
11
-10.150
21
-21.467
0
LINE
8
медь верх
10
-10.150
20
-21.467
11
-10.079
21
-21.517
0
LINE
8
медь верх
10
-10.079
20
-21.517
11
-10.017
21
-21.579
0
LINE
8
медь верх
10
-10.017
20
-21.579
11
-9.967
21
-21.650
0
LINE
8
медь верх
10
-9.967
20
-21.650
11
-9.930
21
-21.729
0
LINE
8
медь верх
10
-9.930
20
-21.729
11
-9.908
21
-21.813
0
LINE
8
медь верх
10
-9.908
20
-21.813
11
-9.900
21
-21.900
0
LINE
8
медь верх
10
-9.900
20
-21.900
11
-9.908
21
-21.987
0
LINE
8
медь верх
10
-9.908
20
-21.987
11
-9.930
21
-22.071
0
LINE
8
медь верх
10
-9.930
20
-22.071
11
-9.967
21
-22.150
0
LINE
8
медь верх
10
-9.967
20
-22.150
11
-10.017
21
-22.221
0
LINE
8
медь верх
10
-10.017
20
-22.221
11
-10.079
21
-22.283
0
LINE
8
медь верх
10
-10.079
20
-22.283
11
-10.150
21
-22.333
0
LINE
8
медь верх
10
-10.150
20
-22.333
11
-10.229
21
-22.370
0
LINE
8
медь верх
10
-10.229
20
-22.370
11
-10.313
21
-22.392
0
LINE
8
медь верх
10
-10.313
20
-22.392
11
-10.400
21
-22.400
0
LINE
8
медь верх
10
-10.400
20
-22.400
11
-10.487
21
-22.392
0
LINE
8
медь верх
10
-10.487
20
-22.392
11
-10.571
21
-22.370
0
LINE
8
медь верх
10
-10.571
20
-22.370
11
-10.650
21
-22.333
0
LINE
8
медь верх
10
-10.650
20
-22.333
11
-10.721
21
-22.283
0
LINE
8
медь верх
10
-10.721
20
-22.283
11
-10.783
21
-22.221
0
LINE
8
медь верх
10
-10.783
20
-22.221
11
-10.833
21
-22.150
0
LINE
8
медь верх
10
-10.833
20
-22.150
11
-10.870
21
-22.071
0
LINE
8
медь верх
10
-10.870
20
-22.071
11
-10.892
21
-21.987
0
LINE
8
медь верх
10
-10.892
20
-21.987
11
-10.900
21
-21.900
0
LINE
8
медь верх
10
-10.206
20
-22.361
11
-10.593
21
-22.361
0
LINE
8
медь верх
10
-10.130
20
-22.320
11
-10.669
21
-22.320
0
LINE
8
медь верх
10
-10.075
20
-22.280
11
-10.724
21
-22.280
0
LINE
8
медь верх
10
-10.033
20
-22.240
11
-10.766
21
-22.240
0
LINE
8
медь верх
10
-10.000
20
-22.200
11
-10.799
21
-22.200
0
LINE
8
медь верх
10
-9.972
20
-22.159
11
-10.827
21
-22.159
0
LINE
8
медь верх
10
-9.950
20
-22.118
11
-10.848
21
-22.118
0
LINE
8
медь верх
10
-9.933
20
-22.079
11
-10.866
21
-22.079
0
LINE
8
медь верх
10
-9.919
20
-22.038
11
-10.880
21
-22.038
0
LINE
8
медь верх
10
-9.910
20
-21.998
11
-10.889
21
-21.998
0
LINE
8
медь верх
10
-9.902
20
-21.958
11
-10.895
21
-21.958
0
LINE
8
медь верх
10
-9.900
20
-21.918
11
-10.899
21
-21.918
0
LINE
8
медь верх
10
-10.899
20
-21.877
11
-9.900
21
-21.877
0
LINE
8
медь верх
10
-10.895
20
-21.838
11
-9.903
21
-21.838
0
LINE
8
медь верх
10
-10.889
20
-21.797
11
-9.910
21
-21.797
0
LINE
8
медь верх
10
-10.879
20
-21.756
11
-9.920
21
-21.756
0
LINE
8
медь верх
10
-10.865
20
-21.717
11
-9.934
21
-21.716
0
LINE
8
медь верх
10
-10.847
20
-21.676
11
-9.952
21
-21.676
0
LINE
8
медь верх
10
-10.824
20
-21.636
11
-9.975
21
-21.636
0
LINE
8
медь верх
10
-10.796
20
-21.595
11
-10.003
21
-21.595
0
LINE
8
медь верх
10
-10.762
20
-21.556
11
-10.037
21
-21.556
0
LINE
8
медь верх
10
-10.719
20
-21.515
11
-10.080
21
-21.515
0
LINE
8
медь верх
10
-10.663
20
-21.474
11
-10.136
21
-21.474
0
LINE
8
медь верх
10
-10.584
20
-21.435
11
-10.215
21
-21.435
0
LINE
8
медь верх
10
-6.980
20
-21.900
11
-6.976
21
-21.857
0
LINE
8
медь верх
10
-6.976
20
-21.857
11
-6.965
21
-21.814
0
LINE
8
медь верх
10
-6.965
20
-21.814
11
-6.946
21
-21.775
0
LINE
8
медь верх
10
-6.946
20
-21.775
11
-6.921
21
-21.739
0
LINE
8
медь верх
10
-6.921
20
-21.739
11
-6.891
21
-21.708
0
LINE
8
медь верх
10
-6.891
20
-21.708
11
-6.855
21
-21.683
0
LINE
8
медь верх
10
-6.855
20
-21.683
11
-6.815
21
-21.665
0
LINE
8
медь верх
10
-6.815
20
-21.665
11
-6.773
21
-21.654
0
LINE
8
медь верх
10
-6.773
20
-21.654
11
-6.730
21
-21.650
0
LINE
8
медь верх
10
-6.730
20
-21.650
11
-6.686
21
-21.654
0
LINE
8
медь верх
10
-6.686
20
-21.654
11
-6.644
21
-21.665
0
LINE
8
медь верх
10
-6.644
20
-21.665
11
-6.605
21
-21.683
0
LINE
8
медь верх
10
-6.605
20
-21.683
11
-6.569
21
-21.708
0
LINE
8
медь верх
10
-6.569
20
-21.708
11
-6.538
21
-21.739
0
LINE
8
медь верх
10
-6.538
20
-21.739
11
-6.513
21
-21.775
0
LINE
8
медь верх
10
-6.513
20
-21.775
11
-6.495
21
-21.814
0
LINE
8
медь верх
10
-6.495
20
-21.814
11
-6.484
21
-21.857
0
LINE
8
медь верх
10
-6.484
20
-21.857
11
-6.480
21
-21.900
0
LINE
8
медь верх
10
-6.480
20
-21.900
11
-6.484
21
-21.943
0
LINE
8
медь верх
10
-6.484
20
-21.943
11
-6.495
21
-21.986
0
LINE
8
медь верх
10
-6.495
20
-21.986
11
-6.513
21
-22.025
0
LINE
8
медь верх
10
-6.513
20
-22.025
11
-6.538
21
-22.061
0
LINE
8
медь верх
10
-6.538
20
-22.061
11
-6.569
21
-22.092
0
LINE
8
медь верх
10
-6.569
20
-22.092
11
-6.605
21
-22.117
0
LINE
8
медь верх
10
-6.605
20
-22.117
11
-6.644
21
-22.135
0
LINE
8
медь верх
10
-6.644
20
-22.135
11
-6.686
21
-22.146
0
LINE
8
медь верх
10
-6.686
20
-22.146
11
-6.730
21
-22.150
0
LINE
8
медь верх
10
-6.730
20
-22.150
11
-6.773
21
-22.146
0
LINE
8
медь верх
10
-6.773
20
-22.146
11
-6.815
21
-22.135
0
LINE
8
медь верх
10
-6.815
20
-22.135
11
-6.855
21
-22.117
0
LINE
8
медь верх
10
-6.855
20
-22.117
11
-6.891
21
-22.092
0
LINE
8
медь верх
10
-6.891
20
-22.092
11
-6.921
21
-22.061
0
LINE
8
медь верх
10
-6.921
20
-22.061
11
-6.946
21
-22.025
0
LINE
8
медь верх
10
-6.946
20
-22.025
11
-6.965
21
-21.986
0
LINE
8
медь верх
10
-6.965
20
-21.986
11
-6.976
21
-21.943
0
LINE
8
медь верх
10
-6.976
20
-21.943
11
-6.980
21
-21.900
0
LINE
8
медь верх
10
-6.612
20
-22.120
11
-6.847
21
-22.120
0
LINE
8
медь верх
10
-6.556
20
-22.080
11
-6.902
21
-22.080
0
LINE
8
медь верх
10
-6.523
20
-22.040
11
-6.937
21
-22.040
0
LINE
8
медь верх
10
-6.500
20
-21.999
11
-6.958
21
-21.999
0
LINE
8
медь верх
10
-6.486
20
-21.960
11
-6.972
21
-21.960
0
LINE
8
медь верх
10
-6.480
20
-21.919
11
-6.979
21
-21.919
0
LINE
8
медь верх
10
-6.979
20
-21.878
11
-6.480
21
-21.878
0
LINE
8
медь верх
10
-6.971
20
-21.838
11
-6.487
21
-21.838
0
LINE
8
медь верх
10
-6.958
20
-21.798
11
-6.501
21
-21.798
0
LINE
8
медь верх
10
-6.935
20
-21.758
11
-6.523
21
-21.758
0
LINE
8
медь верх
10
-6.901
20
-21.717
11
-6.558
21
-21.717
0
LINE
8
медь верх
10
-6.844
20
-21.678
11
-6.614
21
-21.678
0
LINE
8
медь верх
10
-10.496
20
-15.049
11
-10.492
21
-15.005
0
LINE
8
медь верх
10
-10.492
20
-15.005
11
-10.481
21
-14.963
0
LINE
8
медь верх
10
-10.481
20
-14.963
11
-10.462
21
-14.924
0
LINE
8
медь верх
10
-10.462
20
-14.924
11
-10.437
21
-14.888
0
LINE
8
медь верх
10
-10.437
20
-14.888
11
-10.407
21
-14.857
0
LINE
8
медь верх
10
-10.407
20
-14.857
11
-10.371
21
-14.832
0
LINE
8
медь верх
10
-10.371
20
-14.832
11
-10.331
21
-14.814
0
LINE
8
медь верх
10
-10.331
20
-14.814
11
-10.289
21
-14.803
0
LINE
8
медь верх
10
-10.289
20
-14.803
11
-10.246
21
-14.799
0
LINE
8
медь верх
10
-10.246
20
-14.799
11
-10.202
21
-14.803
0
LINE
8
медь верх
10
-10.202
20
-14.803
11
-10.160
21
-14.814
0
LINE
8
медь верх
10
-10.160
20
-14.814
11
-10.121
21
-14.832
0
LINE
8
медь верх
10
-10.121
20
-14.832
11
-10.085
21
-14.857
0
LINE
8
медь верх
10
-10.085
20
-14.857
11
-10.054
21
-14.888
0
LINE
8
медь верх
10
-10.054
20
-14.888
11
-10.029
21
-14.924
0
LINE
8
медь верх
10
-10.029
20
-14.924
11
-10.011
21
-14.963
0
LINE
8
медь верх
10
-10.011
20
-14.963
11
-10.000
21
-15.005
0
LINE
8
медь верх
10
-10.000
20
-15.005
11
-9.996
21
-15.049
0
LINE
8
медь верх
10
-9.996
20
-15.049
11
-10.000
21
-15.092
0
LINE
8
медь верх
10
-10.000
20
-15.092
11
-10.011
21
-15.134
0
LINE
8
медь верх
10
-10.011
20
-15.134
11
-10.029
21
-15.174
0
LINE
8
медь верх
10
-10.029
20
-15.174
11
-10.054
21
-15.210
0
LINE
8
медь верх
10
-10.054
20
-15.210
11
-10.085
21
-15.240
0
LINE
8
медь верх
10
-10.085
20
-15.240
11
-10.121
21
-15.265
0
LINE
8
медь верх
10
-10.121
20
-15.265
11
-10.160
21
-15.284
0
LINE
8
медь верх
10
-10.160
20
-15.284
11
-10.202
21
-15.295
0
LINE
8
медь верх
10
-10.202
20
-15.295
11
-10.246
21
-15.299
0
LINE
8
медь верх
10
-10.246
20
-15.299
11
-10.289
21
-15.295
0
LINE
8
медь верх
10
-10.289
20
-15.295
11
-10.331
21
-15.284
0
LINE
8
медь верх
10
-10.331
20
-15.284
11
-10.371
21
-15.265
0
LINE
8
медь верх
10
-10.371
20
-15.265
11
-10.407
21
-15.240
0
LINE
8
медь верх
10
-10.407
20
-15.240
11
-10.437
21
-15.210
0
LINE
8
медь верх
10
-10.437
20
-15.210
11
-10.462
21
-15.174
0
LINE
8
медь верх
10
-10.462
20
-15.174
11
-10.481
21
-15.134
0
LINE
8
медь верх
10
-10.481
20
-15.134
11
-10.492
21
-15.092
0
LINE
8
медь верх
10
-10.492
20
-15.092
11
-10.496
21
-15.049
0
LINE
8
медь верх
10
-10.152
20
-15.281
11
-10.338
21
-15.281
0
LINE
8
медь верх
10
-10.085
20
-15.240
11
-10.405
21
-15.240
0
LINE
8
медь верх
10
-10.047
20
-15.199
11
-10.444
21
-15.199
0
LINE
8
медь верх
10
-10.022
20
-15.160
11
-10.469
21
-15.160
0
LINE
8
медь верх
10
-10.005
20
-15.119
11
-10.485
21
-15.119
0
LINE
8
медь верх
10
-9.997
20
-15.079
11
-10.493
21
-15.079
0
LINE
8
медь верх
10
-10.495
20
-15.039
11
-9.995
21
-15.039
0
LINE
8
медь верх
10
-10.490
20
-14.999
11
-10.000
21
-14.999
0
LINE
8
медь верх
10
-10.479
20
-14.958
11
-10.011
21
-14.958
0
LINE
8
медь верх
10
-10.458
20
-14.919
11
-10.032
21
-14.919
0
LINE
8
медь верх
10
-10.428
20
-14.878
11
-10.062
21
-14.878
0
LINE
8
медь верх
10
-10.380
20
-14.837
11
-10.110
21
-14.837
0
LINE
8
медь верх
10
9.589
20
-15.049
11
9.592
21
-15.005
0
LINE
8
медь верх
10
9.592
20
-15.005
11
9.604
21
-14.963
0
LINE
8
медь верх
10
9.604
20
-14.963
11
9.622
21
-14.924
0
LINE
8
медь верх
10
9.622
20
-14.924
11
9.647
21
-14.888
0
LINE
8
медь верх
10
9.647
20
-14.888
11
9.678
21
-14.857
0
LINE
8
медь верх
10
9.678
20
-14.857
11
9.714
21
-14.832
0
LINE
8
медь верх
10
9.714
20
-14.832
11
9.753
21
-14.814
0
LINE
8
медь верх
10
9.753
20
-14.814
11
9.795
21
-14.803
0
LINE
8
медь верх
10
9.795
20
-14.803
11
9.839
21
-14.799
0
LINE
8
медь верх
10
9.839
20
-14.799
11
9.882
21
-14.803
0
LINE
8
медь верх
10
9.882
20
-14.803
11
9.924
21
-14.814
0
LINE
8
медь верх
10
9.924
20
-14.814
11
9.964
21
-14.832
0
LINE
8
медь верх
10
9.964
20
-14.832
11
9.999
21
-14.857
0
LINE
8
медь верх
10
9.999
20
-14.857
11
10.030
21
-14.888
0
LINE
8
медь верх
10
10.030
20
-14.888
11
10.055
21
-14.924
0
LINE
8
медь верх
10
10.055
20
-14.924
11
10.073
21
-14.963
0
LINE
8
медь верх
10
10.073
20
-14.963
11
10.085
21
-15.005
0
LINE
8
медь верх
10
10.085
20
-15.005
11
10.089
21
-15.049
0
LINE
8
медь верх
10
10.089
20
-15.049
11
10.085
21
-15.092
0
LINE
8
медь верх
10
10.085
20
-15.092
11
10.073
21
-15.134
0
LINE
8
медь верх
10
10.073
20
-15.134
11
10.055
21
-15.174
0
LINE
8
медь верх
10
10.055
20
-15.174
11
10.030
21
-15.210
0
LINE
8
медь верх
10
10.030
20
-15.210
11
9.999
21
-15.240
0
LINE
8
медь верх
10
9.999
20
-15.240
11
9.964
21
-15.265
0
LINE
8
медь верх
10
9.964
20
-15.265
11
9.924
21
-15.284
0
LINE
8
медь верх
10
9.924
20
-15.284
11
9.882
21
-15.295
0
LINE
8
медь верх
10
9.882
20
-15.295
11
9.839
21
-15.299
0
LINE
8
медь верх
10
9.839
20
-15.299
11
9.795
21
-15.295
0
LINE
8
медь верх
10
9.795
20
-15.295
11
9.753
21
-15.284
0
LINE
8
медь верх
10
9.753
20
-15.284
11
9.714
21
-15.265
0
LINE
8
медь верх
10
9.714
20
-15.265
11
9.678
21
-15.240
0
LINE
8
медь верх
10
9.678
20
-15.240
11
9.647
21
-15.210
0
LINE
8
медь верх
10
9.647
20
-15.210
11
9.622
21
-15.174
0
LINE
8
медь верх
10
9.622
20
-15.174
11
9.604
21
-15.134
0
LINE
8
медь верх
10
9.604
20
-15.134
11
9.592
21
-15.092
0
LINE
8
медь верх
10
9.592
20
-15.092
11
9.589
21
-15.049
0
LINE
8
медь верх
10
9.935
20
-15.278
11
9.740
21
-15.278
0
LINE
8
медь верх
10
10.000
20
-15.239
11
9.675
21
-15.239
0
LINE
8
медь верх
10
10.038
20
-15.198
11
9.638
21
-15.198
0
LINE
8
медь верх
10
10.062
20
-15.157
11
9.613
21
-15.157
0
LINE
8
медь верх
10
10.079
20
-15.117
11
9.597
21
-15.117
0
LINE
8
медь верх
10
10.086
20
-15.077
11
9.590
21
-15.077
0
LINE
8
медь верх
10
9.588
20
-15.037
11
10.088
21
-15.037
0
LINE
8
медь верх
10
9.594
20
-14.996
11
10.083
21
-14.996
0
LINE
8
медь верх
10
9.605
20
-14.957
11
10.070
21
-14.957
0
LINE
8
медь верх
10
9.625
20
-14.916
11
10.050
21
-14.916
0
LINE
8
медь верх
10
9.657
20
-14.876
11
10.019
21
-14.876
0
LINE
8
медь верх
10
9.707
20
-14.836
11
9.970
21
-14.836
0
ENDSEC
0
EOF
