0
SECTION
2
ENTITIES
0
LINE
8
медь верх
10
-9.931
20
-14.412
11
-10.031
21
-14.513
0
LINE
8
медь верх
10
-10.031
20
-14.513
11
-10.460
21
-14.513
0
LINE
8
медь верх
10
-10.460
20
-14.513
11
-10.561
21
-14.412
0
LINE
8
медь верх
10
-10.561
20
-14.412
11
-10.478
21
-14.329
0
LINE
8
медь верх
10
-10.478
20
-14.329
11
-10.014
21
-14.329
0
LINE
8
медь верх
10
-10.014
20
-14.329
11
-9.931
21
-14.412
0
LINE
8
медь верх
10
10.154
20
-14.412
11
10.053
21
-14.513
0
LINE
8
медь верх
10
10.053
20
-14.513
11
9.624
21
-14.513
0
LINE
8
медь верх
10
9.624
20
-14.513
11
9.523
21
-14.412
0
LINE
8
медь верх
10
9.523
20
-14.412
11
9.607
21
-14.329
0
LINE
8
медь верх
10
9.607
20
-14.329
11
10.070
21
-14.329
0
LINE
8
медь верх
10
10.070
20
-14.329
11
10.154
21
-14.412
0
LINE
8
медь верх
10
-10.781
20
-14.834
11
-10.781
21
-15.263
0
LINE
8
медь верх
10
-10.781
20
-15.263
11
-10.882
21
-15.364
0
LINE
8
медь верх
10
-10.882
20
-15.364
11
-10.966
21
-15.281
0
LINE
8
медь верх
10
-10.966
20
-15.281
11
-10.966
21
-14.817
0
LINE
8
медь верх
10
-10.966
20
-14.817
11
-10.882
21
-14.734
0
LINE
8
медь верх
10
-10.882
20
-14.734
11
-10.781
21
-14.834
0
LINE
8
медь верх
10
-9.526
20
-14.817
11
-9.526
21
-15.281
0
LINE
8
медь верх
10
-9.526
20
-15.281
11
-9.609
21
-15.364
0
LINE
8
медь верх
10
-9.609
20
-15.364
11
-9.710
21
-15.263
0
LINE
8
медь верх
10
-9.710
20
-15.263
11
-9.710
21
-14.834
0
LINE
8
медь верх
10
-9.710
20
-14.834
11
-9.609
21
-14.734
0
LINE
8
медь верх
10
-9.609
20
-14.734
11
-9.526
21
-14.817
0
LINE
8
медь верх
10
9.303
20
-14.834
11
9.303
21
-15.263
0
LINE
8
медь верх
10
9.303
20
-15.263
11
9.202
21
-15.364
0
LINE
8
медь верх
10
9.202
20
-15.364
11
9.119
21
-15.281
0
LINE
8
медь верх
10
9.119
20
-15.281
11
9.119
21
-14.817
0
LINE
8
медь верх
10
9.119
20
-14.817
11
9.202
21
-14.734
0
LINE
8
медь верх
10
9.202
20
-14.734
11
9.303
21
-14.834
0
LINE
8
медь верх
10
10.558
20
-14.817
11
10.558
21
-15.281
0
LINE
8
медь верх
10
10.558
20
-15.281
11
10.475
21
-15.364
0
LINE
8
медь верх
10
10.475
20
-15.364
11
10.374
21
-15.263
0
LINE
8
медь верх
10
10.374
20
-15.263
11
10.374
21
-14.834
0
LINE
8
медь верх
10
10.374
20
-14.834
11
10.475
21
-14.734
0
LINE
8
медь верх
10
10.475
20
-14.734
11
10.558
21
-14.817
0
LINE
8
медь верх
10
-9.931
20
-15.685
11
-10.014
21
-15.769
0
LINE
8
медь верх
10
-10.014
20
-15.769
11
-10.478
21
-15.769
0
LINE
8
медь верх
10
-10.478
20
-15.769
11
-10.561
21
-15.685
0
LINE
8
медь верх
10
-10.561
20
-15.685
11
-10.460
21
-15.584
0
LINE
8
медь верх
10
-10.460
20
-15.584
11
-10.031
21
-15.584
0
LINE
8
медь верх
10
-10.031
20
-15.584
11
-9.931
21
-15.685
0
LINE
8
медь верх
10
10.154
20
-15.685
11
10.070
21
-15.769
0
LINE
8
медь верх
10
10.070
20
-15.769
11
9.607
21
-15.769
0
LINE
8
медь верх
10
9.607
20
-15.769
11
9.523
21
-15.685
0
LINE
8
медь верх
10
9.523
20
-15.685
11
9.624
21
-15.584
0
LINE
8
медь верх
10
9.624
20
-15.584
11
10.053
21
-15.584
0
LINE
8
медь верх
10
10.053
20
-15.584
11
10.154
21
-15.685
0
LINE
8
медь верх
10
-6.887
20
-17.514
11
-7.078
21
-17.514
0
LINE
8
медь верх
10
-7.078
20
-17.514
11
-7.187
21
-17.622
0
LINE
8
медь верх
10
-7.187
20
-17.622
11
-7.187
21
-17.763
0
LINE
8
медь верх
10
-7.187
20
-17.763
11
-7.333
21
-17.763
0
LINE
8
медь верх
10
-7.333
20
-17.763
11
-7.333
21
-17.545
0
LINE
8
медь верх
10
-7.333
20
-17.545
11
-7.155
21
-17.367
0
LINE
8
медь верх
10
-7.155
20
-17.367
11
-6.887
21
-17.367
0
LINE
8
медь верх
10
-6.887
20
-17.367
11
-6.887
21
-17.514
0
LINE
8
медь верх
10
-5.987
20
-17.545
11
-5.987
21
-17.763
0
LINE
8
медь верх
10
-5.987
20
-17.763
11
-6.134
21
-17.763
0
LINE
8
медь верх
10
-6.134
20
-17.763
11
-6.134
21
-17.622
0
LINE
8
медь верх
10
-6.134
20
-17.622
11
-6.242
21
-17.514
0
LINE
8
медь верх
10
-6.242
20
-17.514
11
-6.433
21
-17.514
0
LINE
8
медь верх
10
-6.433
20
-17.514
11
-6.433
21
-17.367
0
LINE
8
медь верх
10
-6.433
20
-17.367
11
-6.165
21
-17.367
0
LINE
8
медь верх
10
-6.165
20
-17.367
11
-5.987
21
-17.545
0
LINE
8
медь верх
10
-5.987
20
-18.435
11
-6.165
21
-18.613
0
LINE
8
медь верх
10
-6.165
20
-18.613
11
-6.433
21
-18.613
0
LINE
8
медь верх
10
-6.433
20
-18.613
11
-6.433
21
-18.466
0
LINE
8
медь верх
10
-6.433
20
-18.466
11
-6.242
21
-18.466
0
LINE
8
медь верх
10
-6.242
20
-18.466
11
-6.134
21
-18.358
0
LINE
8
медь верх
10
-6.134
20
-18.358
11
-6.134
21
-18.217
0
LINE
8
медь верх
10
-6.134
20
-18.217
11
-5.987
21
-18.217
0
LINE
8
медь верх
10
-5.987
20
-18.217
11
-5.987
21
-18.435
0
LINE
8
медь верх
10
-7.187
20
-18.358
11
-7.078
21
-18.466
0
LINE
8
медь верх
10
-7.078
20
-18.466
11
-6.887
21
-18.466
0
LINE
8
медь верх
10
-6.887
20
-18.466
11
-6.887
21
-18.613
0
LINE
8
медь верх
10
-6.887
20
-18.613
11
-7.155
21
-18.613
0
LINE
8
медь верх
10
-7.155
20
-18.613
11
-7.333
21
-18.435
0
LINE
8
медь верх
10
-7.333
20
-18.435
11
-7.333
21
-18.217
0
LINE
8
медь верх
10
-7.333
20
-18.217
11
-7.187
21
-18.217
0
LINE
8
медь верх
10
-7.187
20
-18.217
11
-7.187
21
-18.358
0
LINE
8
медь верх
10
-1.622
20
-17.487
11
-1.622
21
-17.993
0
LINE
8
медь верх
10
-1.622
20
-17.993
11
-1.911
21
-18.282
0
LINE
8
медь верх
10
-1.911
20
-18.282
11
-1.935
21
-18.298
0
LINE
8
медь верх
10
-1.935
20
-18.298
11
-1.944
21
-18.311
0
LINE
8
медь верх
10
-1.944
20
-18.311
11
-1.957
21
-18.331
0
LINE
8
медь верх
10
-1.957
20
-18.331
11
-1.961
21
-18.350
0
LINE
8
медь верх
10
-1.961
20
-18.350
11
-1.965
21
-18.370
0
LINE
8
медь верх
10
-1.965
20
-18.370
11
-1.957
21
-18.409
0
LINE
8
медь верх
10
-1.957
20
-18.409
11
-1.935
21
-18.442
0
LINE
8
медь верх
10
-1.935
20
-18.442
11
-1.935
21
-18.442
0
LINE
8
медь верх
10
-1.935
20
-18.442
11
-1.627
21
-18.750
0
LINE
8
медь верх
10
-1.627
20
-18.750
11
-1.627
21
-18.763
0
LINE
8
медь верх
10
-1.627
20
-18.763
11
-1.831
21
-18.763
0
LINE
8
медь верх
10
-1.831
20
-18.763
11
-1.981
21
-18.613
0
LINE
8
медь верх
10
-1.981
20
-18.613
11
-3.819
21
-18.613
0
LINE
8
медь верх
10
-3.819
20
-18.613
11
-3.969
21
-18.763
0
LINE
8
медь верх
10
-3.969
20
-18.763
11
-4.173
21
-18.763
0
LINE
8
медь верх
10
-4.173
20
-18.763
11
-4.173
21
-18.750
0
LINE
8
медь верх
10
-4.173
20
-18.750
11
-3.865
21
-18.442
0
LINE
8
медь верх
10
-3.865
20
-18.442
11
-3.865
21
-18.442
0
LINE
8
медь верх
10
-3.865
20
-18.442
11
-3.843
21
-18.409
0
LINE
8
медь верх
10
-3.843
20
-18.409
11
-3.835
21
-18.370
0
LINE
8
медь верх
10
-3.835
20
-18.370
11
-3.835
21
-18.370
0
LINE
8
медь верх
10
-3.835
20
-18.370
11
-3.836
21
-18.363
0
LINE
8
медь верх
10
-3.836
20
-18.363
11
-3.843
21
-18.331
0
LINE
8
медь верх
10
-3.843
20
-18.331
11
-3.856
21
-18.311
0
LINE
8
медь верх
10
-3.856
20
-18.311
11
-3.865
21
-18.298
0
LINE
8
медь верх
10
-3.865
20
-18.298
11
-3.889
21
-18.282
0
LINE
8
медь верх
10
-3.889
20
-18.282
11
-4.178
21
-17.993
0
LINE
8
медь верх
10
-4.178
20
-17.993
11
-4.178
21
-17.487
0
LINE
8
медь верх
10
-4.178
20
-17.487
11
-3.903
21
-17.212
0
LINE
8
медь верх
10
-3.903
20
-17.212
11
-1.897
21
-17.212
0
LINE
8
медь верх
10
-1.897
20
-17.212
11
-1.622
21
-17.487
0
LINE
8
медь верх
10
-1.981
20
-18.117
11
-1.773
21
-17.909
0
LINE
8
медь верх
10
-1.773
20
-17.909
11
-1.773
21
-17.571
0
LINE
8
медь верх
10
-1.773
20
-17.571
11
-1.981
21
-17.363
0
LINE
8
медь верх
10
-1.981
20
-17.363
11
-3.819
21
-17.363
0
LINE
8
медь верх
10
-3.819
20
-17.363
11
-4.027
21
-17.571
0
LINE
8
медь верх
10
-4.027
20
-17.571
11
-4.027
21
-17.909
0
LINE
8
медь верх
10
-4.027
20
-17.909
11
-3.819
21
-18.117
0
LINE
8
медь верх
10
-3.819
20
-18.117
11
-1.981
21
-18.117
0
LINE
8
медь верх
10
-1.627
20
-19.230
11
-1.910
21
-19.513
0
LINE
8
медь верх
10
-1.910
20
-19.513
11
-2.673
21
-19.513
0
LINE
8
медь верх
10
-2.673
20
-19.513
11
-2.673
21
-19.367
0
LINE
8
медь верх
10
-2.673
20
-19.367
11
-1.981
21
-19.367
0
LINE
8
медь верх
10
-1.981
20
-19.367
11
-1.831
21
-19.217
0
LINE
8
медь верх
10
-1.831
20
-19.217
11
-1.627
21
-19.217
0
LINE
8
медь верх
10
-1.627
20
-19.217
11
-1.627
21
-19.230
0
LINE
8
медь верх
10
-3.819
20
-19.367
11
-3.127
21
-19.367
0
LINE
8
медь верх
10
-3.127
20
-19.367
11
-3.127
21
-19.513
0
LINE
8
медь верх
10
-3.127
20
-19.513
11
-3.890
21
-19.513
0
LINE
8
медь верх
10
-3.890
20
-19.513
11
-4.173
21
-19.230
0
LINE
8
медь верх
10
-4.173
20
-19.230
11
-4.173
21
-19.217
0
LINE
8
медь верх
10
-4.173
20
-19.217
11
-3.969
21
-19.217
0
LINE
8
медь верх
10
-3.969
20
-19.217
11
-3.819
21
-19.367
0
LINE
8
медь верх
10
-6.957
20
-21.370
11
-7.258
21
-21.670
0
LINE
8
медь верх
10
-7.258
20
-21.670
11
-7.403
21
-21.670
0
LINE
8
медь верх
10
-7.403
20
-21.670
11
-7.403
21
-21.555
0
LINE
8
медь верх
10
-7.403
20
-21.555
11
-7.075
21
-21.227
0
LINE
8
медь верх
10
-7.075
20
-21.227
11
-6.957
21
-21.227
0
LINE
8
медь верх
10
-6.957
20
-21.227
11
-6.957
21
-21.370
0
LINE
8
медь верх
10
-6.057
20
-21.555
11
-6.057
21
-21.673
0
LINE
8
медь верх
10
-6.057
20
-21.673
11
-6.199
21
-21.673
0
LINE
8
медь верх
10
-6.199
20
-21.673
11
-6.503
21
-21.370
0
LINE
8
медь верх
10
-6.503
20
-21.370
11
-6.503
21
-21.227
0
LINE
8
медь верх
10
-6.503
20
-21.227
11
-6.385
21
-21.227
0
LINE
8
медь верх
10
-6.385
20
-21.227
11
-6.057
21
-21.555
0
LINE
8
медь верх
10
-6.057
20
-22.245
11
-6.385
21
-22.573
0
LINE
8
медь верх
10
-6.385
20
-22.573
11
-6.503
21
-22.573
0
LINE
8
медь верх
10
-6.503
20
-22.573
11
-6.503
21
-22.430
0
LINE
8
медь верх
10
-6.503
20
-22.430
11
-6.199
21
-22.127
0
LINE
8
медь верх
10
-6.199
20
-22.127
11
-6.057
21
-22.127
0
LINE
8
медь верх
10
-6.057
20
-22.127
11
-6.057
21
-22.245
0
LINE
8
медь верх
10
-6.957
20
-22.430
11
-6.957
21
-22.573
0
LINE
8
медь верх
10
-6.957
20
-22.573
11
-7.075
21
-22.573
0
LINE
8
медь верх
10
-7.075
20
-22.573
11
-7.403
21
-22.245
0
LINE
8
медь верх
10
-7.403
20
-22.245
11
-7.403
21
-22.130
0
LINE
8
медь верх
10
-7.403
20
-22.130
11
-7.258
21
-22.130
0
LINE
8
медь верх
10
-7.258
20
-22.130
11
-6.957
21
-22.430
0
LINE
8
медь верх
10
-11.431
20
-22.359
11
-10.859
21
-22.931
0
LINE
8
медь верх
10
-10.859
20
-22.931
11
-10.627
21
-22.931
0
LINE
8
медь верх
10
-10.627
20
-22.931
11
-10.627
21
-23.073
0
LINE
8
медь верх
10
-10.627
20
-23.073
11
-10.909
21
-23.073
0
LINE
8
медь верх
10
-10.909
20
-23.073
11
-11.573
21
-22.409
0
LINE
8
медь верх
10
-11.573
20
-22.409
11
-11.573
21
-22.127
0
LINE
8
медь верх
10
-11.573
20
-22.127
11
-11.431
21
-22.127
0
LINE
8
медь верх
10
-11.431
20
-22.127
11
-11.431
21
-22.359
0
LINE
8
медь верх
10
-9.227
20
-22.409
11
-9.891
21
-23.073
0
LINE
8
медь верх
10
-9.891
20
-23.073
11
-10.173
21
-23.073
0
LINE
8
медь верх
10
-10.173
20
-23.073
11
-10.173
21
-22.931
0
LINE
8
медь верх
10
-10.173
20
-22.931
11
-9.941
21
-22.931
0
LINE
8
медь верх
10
-9.941
20
-22.931
11
-9.369
21
-22.359
0
LINE
8
медь верх
10
-9.369
20
-22.359
11
-9.369
21
-22.130
0
LINE
8
медь верх
10
-9.369
20
-22.130
11
-9.227
21
-22.130
0
LINE
8
медь верх
10
-9.227
20
-22.130
11
-9.227
21
-22.409
0
LINE
8
медь верх
10
0.034
20
-13.395
11
0.034
21
-13.395
0
LINE
8
медь верх
10
0.034
20
-13.395
11
0.034
21
-13.395
0
LINE
8
медь верх
10
0.034
20
-13.395
11
5.897
21
-13.395
0
LINE
8
медь верх
10
5.897
20
-13.395
11
5.997
21
-13.415
0
LINE
8
медь верх
10
5.997
20
-13.415
11
5.997
21
-13.415
0
LINE
8
медь верх
10
5.997
20
-13.415
11
6.052
21
-13.426
0
LINE
8
медь верх
10
6.052
20
-13.426
11
6.130
21
-13.478
0
LINE
8
медь верх
10
6.130
20
-13.478
11
6.130
21
-13.478
0
LINE
8
медь верх
10
6.130
20
-13.478
11
6.184
21
-13.514
0
LINE
8
медь верх
10
6.184
20
-13.514
11
6.602
21
-13.932
0
LINE
8
медь верх
10
6.602
20
-13.932
11
6.649
21
-14.002
0
LINE
8
медь верх
10
6.649
20
-14.002
11
6.649
21
-14.002
0
LINE
8
медь верх
10
6.649
20
-14.002
11
6.649
21
-14.002
0
LINE
8
медь верх
10
6.649
20
-14.002
11
6.690
21
-14.063
0
LINE
8
медь верх
10
6.690
20
-14.063
11
6.703
21
-14.131
0
LINE
8
медь верх
10
6.703
20
-14.131
11
6.707
21
-14.140
0
LINE
8
медь верх
10
6.707
20
-14.140
11
6.709
21
-14.150
0
LINE
8
медь верх
10
6.709
20
-14.150
11
6.715
21
-14.159
0
LINE
8
медь верх
10
6.715
20
-14.159
11
6.719
21
-14.168
0
LINE
8
медь верх
10
6.719
20
-14.168
11
6.726
21
-14.175
0
LINE
8
медь верх
10
6.726
20
-14.175
11
6.731
21
-14.183
0
LINE
8
медь верх
10
6.731
20
-14.183
11
6.740
21
-14.189
0
LINE
8
медь верх
10
6.740
20
-14.189
11
6.747
21
-14.196
0
LINE
8
медь верх
10
6.747
20
-14.196
11
6.756
21
-14.200
0
LINE
8
медь верх
10
6.756
20
-14.200
11
6.764
21
-14.206
0
LINE
8
медь верх
10
6.764
20
-14.206
11
6.774
21
-14.208
0
LINE
8
медь верх
10
6.774
20
-14.208
11
6.784
21
-14.211
0
LINE
8
медь верх
10
6.784
20
-14.211
11
6.794
21
-14.211
0
LINE
8
медь верх
10
6.794
20
-14.211
11
6.804
21
-14.213
0
LINE
8
медь верх
10
6.804
20
-14.213
11
6.842
21
-14.213
0
LINE
8
медь верх
10
6.842
20
-14.213
11
7.016
21
-14.388
0
LINE
8
медь верх
10
7.016
20
-14.388
11
7.016
21
-15.201
0
LINE
8
медь верх
10
7.016
20
-15.201
11
7.012
21
-15.208
0
LINE
8
медь верх
10
7.012
20
-15.208
11
7.010
21
-15.218
0
LINE
8
медь верх
10
7.010
20
-15.218
11
7.006
21
-15.227
0
LINE
8
медь верх
10
7.006
20
-15.227
11
7.006
21
-15.237
0
LINE
8
медь верх
10
7.006
20
-15.237
11
7.004
21
-15.247
0
LINE
8
медь верх
10
7.004
20
-15.247
11
7.006
21
-15.257
0
LINE
8
медь верх
10
7.006
20
-15.257
11
7.006
21
-15.267
0
LINE
8
медь верх
10
7.006
20
-15.267
11
7.017
21
-15.325
0
LINE
8
медь верх
10
7.017
20
-15.325
11
7.017
21
-15.904
0
LINE
8
медь верх
10
7.017
20
-15.904
11
7.011
21
-15.936
0
LINE
8
медь верх
10
7.011
20
-15.936
11
7.011
21
-15.946
0
LINE
8
медь верх
10
7.011
20
-15.946
11
7.009
21
-15.955
0
LINE
8
медь верх
10
7.009
20
-15.955
11
7.011
21
-15.965
0
LINE
8
медь верх
10
7.011
20
-15.965
11
7.011
21
-15.975
0
LINE
8
медь верх
10
7.011
20
-15.975
11
7.015
21
-15.985
0
LINE
8
медь верх
10
7.015
20
-15.985
11
7.017
21
-15.995
0
LINE
8
медь верх
10
7.017
20
-15.995
11
7.023
21
-16.003
0
LINE
8
медь верх
10
7.023
20
-16.003
11
7.026
21
-16.012
0
LINE
8
медь верх
10
7.026
20
-16.012
11
7.033
21
-16.019
0
LINE
8
медь верх
10
7.033
20
-16.019
11
7.039
21
-16.028
0
LINE
8
медь верх
10
7.039
20
-16.028
11
7.047
21
-16.033
0
LINE
8
медь верх
10
7.047
20
-16.033
11
7.055
21
-16.040
0
LINE
8
медь верх
10
7.055
20
-16.040
11
7.064
21
-16.044
0
LINE
8
медь верх
10
7.064
20
-16.044
11
7.072
21
-16.050
0
LINE
8
медь верх
10
7.072
20
-16.050
11
7.082
21
-16.052
0
LINE
8
медь верх
10
7.082
20
-16.052
11
7.091
21
-16.056
0
LINE
8
медь верх
10
7.091
20
-16.056
11
7.101
21
-16.056
0
LINE
8
медь верх
10
7.101
20
-16.056
11
7.111
21
-16.058
0
LINE
8
медь верх
10
7.111
20
-16.058
11
7.530
21
-16.058
0
LINE
8
медь верх
10
7.530
20
-16.058
11
7.686
21
-16.089
0
LINE
8
медь верх
10
7.686
20
-16.089
11
7.818
21
-16.177
0
LINE
8
медь верх
10
7.818
20
-16.177
11
9.836
21
-18.195
0
LINE
8
медь верх
10
9.836
20
-18.195
11
9.869
21
-18.217
0
LINE
8
медь верх
10
9.869
20
-18.217
11
9.908
21
-18.225
0
LINE
8
медь верх
10
9.908
20
-18.225
11
9.941
21
-18.218
0
LINE
8
медь верх
10
9.941
20
-18.218
11
11.043
21
-18.218
0
LINE
8
медь верх
10
11.043
20
-18.218
11
11.682
21
-18.857
0
LINE
8
медь верх
10
11.682
20
-18.857
11
11.682
21
-19.943
0
LINE
8
медь верх
10
11.682
20
-19.943
11
11.047
21
-20.578
0
LINE
8
медь верх
10
11.047
20
-20.578
11
11.047
21
-20.578
0
LINE
8
медь верх
10
11.047
20
-20.578
11
11.047
21
-20.578
0
LINE
8
медь верх
10
11.047
20
-20.578
11
11.025
21
-20.611
0
LINE
8
медь верх
10
11.025
20
-20.611
11
11.017
21
-20.650
0
LINE
8
медь верх
10
11.017
20
-20.650
11
11.017
21
-20.650
0
LINE
8
медь верх
10
11.017
20
-20.650
11
11.018
21
-20.656
0
LINE
8
медь верх
10
11.018
20
-20.656
11
11.025
21
-20.689
0
LINE
8
медь верх
10
11.025
20
-20.689
11
11.047
21
-20.722
0
LINE
8
медь верх
10
11.047
20
-20.722
11
11.047
21
-20.722
0
LINE
8
медь верх
10
11.047
20
-20.722
11
11.682
21
-21.357
0
LINE
8
медь верх
10
11.682
20
-21.357
11
11.682
21
-22.443
0
LINE
8
медь верх
10
11.682
20
-22.443
11
11.043
21
-23.082
0
LINE
8
медь верх
10
11.043
20
-23.082
11
9.957
21
-23.082
0
LINE
8
медь верх
10
9.957
20
-23.082
11
9.318
21
-22.443
0
LINE
8
медь верх
10
9.318
20
-22.443
11
9.318
21
-21.341
0
LINE
8
медь верх
10
9.318
20
-21.341
11
9.321
21
-21.326
0
LINE
8
медь верх
10
9.321
20
-21.326
11
9.325
21
-21.308
0
LINE
8
медь верх
10
9.325
20
-21.308
11
9.325
21
-21.308
0
LINE
8
медь верх
10
9.325
20
-21.308
11
9.325
21
-21.308
0
LINE
8
медь верх
10
9.325
20
-21.308
11
9.321
21
-21.290
0
LINE
8
медь верх
10
9.321
20
-21.290
11
9.317
21
-21.269
0
LINE
8
медь верх
10
9.317
20
-21.269
11
9.317
21
-21.269
0
LINE
8
медь верх
10
9.317
20
-21.269
11
9.317
21
-21.269
0
LINE
8
медь верх
10
9.317
20
-21.269
11
9.306
21
-21.252
0
LINE
8
медь верх
10
9.306
20
-21.252
11
9.295
21
-21.236
0
LINE
8
медь верх
10
9.295
20
-21.236
11
9.295
21
-21.236
0
LINE
8
медь верх
10
9.295
20
-21.236
11
9.295
21
-21.236
0
LINE
8
медь верх
10
9.295
20
-21.236
11
7.767
21
-19.708
0
LINE
8
медь верх
10
7.767
20
-19.708
11
7.679
21
-19.576
0
LINE
8
медь верх
10
7.679
20
-19.576
11
7.648
21
-19.420
0
LINE
8
медь верх
10
7.648
20
-19.420
11
7.648
21
-18.603
0
LINE
8
медь верх
10
7.648
20
-18.603
11
7.641
21
-18.570
0
LINE
8
медь верх
10
7.641
20
-18.570
11
7.640
21
-18.564
0
LINE
8
медь верх
10
7.640
20
-18.564
11
7.631
21
-18.551
0
LINE
8
медь верх
10
7.631
20
-18.551
11
7.618
21
-18.531
0
LINE
8
медь верх
10
7.618
20
-18.531
11
7.618
21
-18.531
0
LINE
8
медь верх
10
7.618
20
-18.531
11
7.240
21
-18.152
0
LINE
8
медь верх
10
7.240
20
-18.152
11
7.220
21
-18.139
0
LINE
8
медь верх
10
7.220
20
-18.139
11
7.206
21
-18.130
0
LINE
8
медь верх
10
7.206
20
-18.130
11
7.206
21
-18.130
0
LINE
8
медь верх
10
7.206
20
-18.130
11
7.206
21
-18.130
0
LINE
8
медь верх
10
7.206
20
-18.130
11
7.183
21
-18.125
0
LINE
8
медь верх
10
7.183
20
-18.125
11
7.167
21
-18.122
0
LINE
8
медь верх
10
7.167
20
-18.122
11
7.112
21
-18.122
0
LINE
8
медь верх
10
7.112
20
-18.122
11
7.102
21
-18.124
0
LINE
8
медь верх
10
7.102
20
-18.124
11
7.092
21
-18.124
0
LINE
8
медь верх
10
7.092
20
-18.124
11
7.082
21
-18.128
0
LINE
8
медь верх
10
7.082
20
-18.128
11
7.073
21
-18.130
0
LINE
8
медь верх
10
7.073
20
-18.130
11
7.064
21
-18.136
0
LINE
8
медь верх
10
7.064
20
-18.136
11
7.055
21
-18.140
0
LINE
8
медь верх
10
7.055
20
-18.140
11
7.048
21
-18.147
0
LINE
8
медь верх
10
7.048
20
-18.147
11
7.039
21
-18.152
0
LINE
8
медь верх
10
7.039
20
-18.152
11
7.034
21
-18.161
0
LINE
8
медь верх
10
7.034
20
-18.161
11
7.027
21
-18.168
0
LINE
8
медь верх
10
7.027
20
-18.168
11
7.023
21
-18.177
0
LINE
8
медь верх
10
7.023
20
-18.177
11
7.017
21
-18.185
0
LINE
8
медь верх
10
7.017
20
-18.185
11
7.015
21
-18.195
0
LINE
8
медь верх
10
7.015
20
-18.195
11
7.011
21
-18.205
0
LINE
8
медь верх
10
7.011
20
-18.205
11
7.011
21
-18.215
0
LINE
8
медь верх
10
7.011
20
-18.215
11
7.010
21
-18.224
0
LINE
8
медь верх
10
7.010
20
-18.224
11
7.011
21
-18.234
0
LINE
8
медь верх
10
7.011
20
-18.234
11
7.011
21
-18.244
0
LINE
8
медь верх
10
7.011
20
-18.244
11
7.016
21
-18.268
0
LINE
8
медь верх
10
7.016
20
-18.268
11
7.016
21
-18.268
0
LINE
8
медь верх
10
7.016
20
-18.268
11
7.016
21
-18.268
0
LINE
8
медь верх
10
7.016
20
-18.268
11
7.017
21
-18.274
0
LINE
8
медь верх
10
7.017
20
-18.274
11
7.017
21
-18.855
0
LINE
8
медь верх
10
7.017
20
-18.855
11
7.006
21
-18.913
0
LINE
8
медь верх
10
7.006
20
-18.913
11
7.006
21
-18.923
0
LINE
8
медь верх
10
7.006
20
-18.923
11
7.004
21
-18.933
0
LINE
8
медь верх
10
7.004
20
-18.933
11
7.006
21
-18.943
0
LINE
8
медь верх
10
7.006
20
-18.943
11
7.006
21
-18.953
0
LINE
8
медь верх
10
7.006
20
-18.953
11
7.010
21
-18.962
0
LINE
8
медь верх
10
7.010
20
-18.962
11
7.012
21
-18.972
0
LINE
8
медь верх
10
7.012
20
-18.972
11
7.016
21
-18.979
0
LINE
8
медь верх
10
7.016
20
-18.979
11
7.016
21
-19.792
0
LINE
8
медь верх
10
7.016
20
-19.792
11
6.842
21
-19.967
0
LINE
8
медь верх
10
6.842
20
-19.967
11
6.813
21
-19.967
0
LINE
8
медь верх
10
6.813
20
-19.967
11
6.804
21
-19.969
0
LINE
8
медь верх
10
6.804
20
-19.969
11
6.794
21
-19.969
0
LINE
8
медь верх
10
6.794
20
-19.969
11
6.784
21
-19.972
0
LINE
8
медь верх
10
6.784
20
-19.972
11
6.774
21
-19.974
0
LINE
8
медь верх
10
6.774
20
-19.974
11
6.766
21
-19.980
0
LINE
8
медь верх
10
6.766
20
-19.980
11
6.757
21
-19.984
0
LINE
8
медь верх
10
6.757
20
-19.984
11
6.750
21
-19.991
0
LINE
8
медь верх
10
6.750
20
-19.991
11
6.741
21
-19.997
0
LINE
8
медь верх
10
6.741
20
-19.997
11
6.736
21
-20.005
0
LINE
8
медь верх
10
6.736
20
-20.005
11
6.729
21
-20.012
0
LINE
8
медь верх
10
6.729
20
-20.012
11
6.725
21
-20.021
0
LINE
8
медь верх
10
6.725
20
-20.021
11
6.719
21
-20.030
0
LINE
8
медь верх
10
6.719
20
-20.030
11
6.717
21
-20.039
0
LINE
8
медь верх
10
6.717
20
-20.039
11
6.713
21
-20.049
0
LINE
8
медь верх
10
6.713
20
-20.049
11
6.705
21
-20.092
0
LINE
8
медь верх
10
6.705
20
-20.092
11
6.705
21
-20.093
0
LINE
8
медь верх
10
6.705
20
-20.093
11
6.704
21
-20.093
0
LINE
8
медь верх
10
6.704
20
-20.093
11
6.690
21
-20.165
0
LINE
8
медь верх
10
6.690
20
-20.165
11
6.649
21
-20.227
0
LINE
8
медь верх
10
6.649
20
-20.227
11
6.649
21
-20.227
0
LINE
8
медь верх
10
6.649
20
-20.227
11
6.649
21
-20.227
0
LINE
8
медь верх
10
6.649
20
-20.227
11
6.602
21
-20.297
0
LINE
8
медь верх
10
6.602
20
-20.297
11
6.192
21
-20.708
0
LINE
8
медь верх
10
6.192
20
-20.708
11
6.122
21
-20.755
0
LINE
8
медь верх
10
6.122
20
-20.755
11
6.122
21
-20.755
0
LINE
8
медь верх
10
6.122
20
-20.755
11
6.122
21
-20.755
0
LINE
8
медь верх
10
6.122
20
-20.755
11
6.060
21
-20.797
0
LINE
8
медь верх
10
6.060
20
-20.797
11
5.988
21
-20.811
0
LINE
8
медь верх
10
5.988
20
-20.811
11
5.988
21
-20.811
0
LINE
8
медь верх
10
5.988
20
-20.811
11
5.988
21
-20.811
0
LINE
8
медь верх
10
5.988
20
-20.811
11
5.905
21
-20.828
0
LINE
8
медь верх
10
5.905
20
-20.828
11
0.745
21
-20.828
0
LINE
8
медь верх
10
0.745
20
-20.828
11
0.694
21
-20.817
0
LINE
8
медь верх
10
0.694
20
-20.817
11
0.694
21
-20.817
0
LINE
8
медь верх
10
0.694
20
-20.817
11
0.694
21
-20.817
0
LINE
8
медь верх
10
0.694
20
-20.817
11
0.590
21
-20.797
0
LINE
8
медь верх
10
0.590
20
-20.797
11
0.554
21
-20.773
0
LINE
8
медь верх
10
0.554
20
-20.773
11
0.554
21
-20.773
0
LINE
8
медь верх
10
0.554
20
-20.773
11
0.458
21
-20.708
0
LINE
8
медь верх
10
0.458
20
-20.708
11
-0.230
21
-20.020
0
LINE
8
медь верх
10
-0.230
20
-20.020
11
-0.277
21
-19.950
0
LINE
8
медь верх
10
-0.277
20
-19.950
11
-0.277
21
-19.950
0
LINE
8
медь верх
10
-0.277
20
-19.950
11
-0.277
21
-19.950
0
LINE
8
медь верх
10
-0.277
20
-19.950
11
-0.318
21
-19.888
0
LINE
8
медь верх
10
-0.318
20
-19.888
11
-0.333
21
-19.815
0
LINE
8
медь верх
10
-0.333
20
-19.815
11
-0.333
21
-19.815
0
LINE
8
медь верх
10
-0.333
20
-19.815
11
-0.333
21
-19.815
0
LINE
8
медь верх
10
-0.333
20
-19.815
11
-0.349
21
-19.733
0
LINE
8
медь верх
10
-0.349
20
-19.733
11
-0.349
21
-14.262
0
LINE
8
медь верх
10
-0.349
20
-14.262
11
-0.349
21
-14.262
0
LINE
8
медь верх
10
-0.349
20
-14.262
11
-0.349
21
-14.262
0
LINE
8
медь верх
10
-0.349
20
-14.262
11
-0.352
21
-14.243
0
LINE
8
медь верх
10
-0.352
20
-14.243
11
-0.356
21
-14.223
0
LINE
8
медь верх
10
-0.356
20
-14.223
11
-0.356
21
-14.223
0
LINE
8
медь верх
10
-0.356
20
-14.223
11
-0.356
21
-14.223
0
LINE
8
медь верх
10
-0.356
20
-14.223
11
-0.367
21
-14.206
0
LINE
8
медь верх
10
-0.367
20
-14.206
11
-0.378
21
-14.190
0
LINE
8
медь верх
10
-0.378
20
-14.190
11
-0.378
21
-14.190
0
LINE
8
медь верх
10
-0.378
20
-14.190
11
-0.378
21
-14.190
0
LINE
8
медь верх
10
-0.378
20
-14.190
11
-0.396
21
-14.178
0
LINE
8
медь верх
10
-0.396
20
-14.178
11
-0.412
21
-14.168
0
LINE
8
медь верх
10
-0.412
20
-14.168
11
-0.412
21
-14.168
0
LINE
8
медь верх
10
-0.412
20
-14.168
11
-0.412
21
-14.168
0
LINE
8
медь верх
10
-0.412
20
-14.168
11
-0.432
21
-14.164
0
LINE
8
медь верх
10
-0.432
20
-14.164
11
-0.451
21
-14.160
0
LINE
8
медь верх
10
-0.451
20
-14.160
11
-0.451
21
-14.160
0
LINE
8
медь верх
10
-0.451
20
-14.160
11
-0.451
21
-14.160
0
LINE
8
медь верх
10
-0.451
20
-14.160
11
-5.588
21
-14.160
0
LINE
8
медь верх
10
-5.588
20
-14.160
11
-5.627
21
-14.168
0
LINE
8
медь верх
10
-5.627
20
-14.168
11
-5.654
21
-14.186
0
LINE
8
медь верх
10
-5.654
20
-14.186
11
-5.660
21
-14.190
0
LINE
8
медь верх
10
-5.660
20
-14.190
11
-5.660
21
-14.190
0
LINE
8
медь верх
10
-5.660
20
-14.190
11
-6.248
21
-14.777
0
LINE
8
медь верх
10
-6.248
20
-14.777
11
-6.258
21
-14.792
0
LINE
8
медь верх
10
-6.258
20
-14.792
11
-6.270
21
-14.810
0
LINE
8
медь верх
10
-6.270
20
-14.810
11
-6.270
21
-14.810
0
LINE
8
медь верх
10
-6.270
20
-14.810
11
-6.270
21
-14.810
0
LINE
8
медь верх
10
-6.270
20
-14.810
11
-6.273
21
-14.825
0
LINE
8
медь верх
10
-6.273
20
-14.825
11
-6.277
21
-14.850
0
LINE
8
медь верх
10
-6.277
20
-14.850
11
-6.278
21
-15.711
0
LINE
8
медь верх
10
-6.278
20
-15.711
11
-6.278
21
-15.711
0
LINE
8
медь верх
10
-6.278
20
-15.711
11
-6.278
21
-15.711
0
LINE
8
медь верх
10
-6.278
20
-15.711
11
-6.273
21
-15.734
0
LINE
8
медь верх
10
-6.273
20
-15.734
11
-6.270
21
-15.750
0
LINE
8
медь верх
10
-6.270
20
-15.750
11
-6.270
21
-15.750
0
LINE
8
медь верх
10
-6.270
20
-15.750
11
-6.270
21
-15.750
0
LINE
8
медь верх
10
-6.270
20
-15.750
11
-6.256
21
-15.770
0
LINE
8
медь верх
10
-6.256
20
-15.770
11
-6.248
21
-15.783
0
LINE
8
медь верх
10
-6.248
20
-15.783
11
-6.248
21
-15.783
0
LINE
8
медь верх
10
-6.248
20
-15.783
11
-6.248
21
-15.783
0
LINE
8
медь верх
10
-6.248
20
-15.783
11
-6.230
21
-15.795
0
LINE
8
медь верх
10
-6.230
20
-15.795
11
-6.215
21
-15.806
0
LINE
8
медь верх
10
-6.215
20
-15.806
11
-6.215
21
-15.806
0
LINE
8
медь верх
10
-6.215
20
-15.806
11
-6.215
21
-15.806
0
LINE
8
медь верх
10
-6.215
20
-15.806
11
-6.188
21
-15.811
0
LINE
8
медь верх
10
-6.188
20
-15.811
11
-6.175
21
-15.813
0
LINE
8
медь верх
10
-6.175
20
-15.813
11
-6.175
21
-15.813
0
LINE
8
медь верх
10
-6.175
20
-15.813
11
-6.175
21
-15.813
0
LINE
8
медь верх
10
-6.175
20
-15.813
11
-6.158
21
-15.813
0
LINE
8
медь верх
10
-6.158
20
-15.813
11
-5.973
21
-15.998
0
LINE
8
медь верх
10
-5.973
20
-15.998
11
-5.953
21
-16.028
0
LINE
8
медь верх
10
-5.953
20
-16.028
11
-5.920
21
-16.050
0
LINE
8
медь верх
10
-5.920
20
-16.050
11
-5.881
21
-16.058
0
LINE
8
медь верх
10
-5.881
20
-16.058
11
-4.090
21
-16.058
0
LINE
8
медь верх
10
-4.090
20
-16.058
11
-4.051
21
-16.050
0
LINE
8
медь верх
10
-4.051
20
-16.050
11
-4.018
21
-16.028
0
LINE
8
медь верх
10
-4.018
20
-16.028
11
-3.880
21
-15.890
0
LINE
8
медь верх
10
-3.880
20
-15.890
11
-3.858
21
-15.857
0
LINE
8
медь верх
10
-3.858
20
-15.857
11
-3.851
21
-15.818
0
LINE
8
медь верх
10
-3.851
20
-15.818
11
-3.851
21
-15.818
0
LINE
8
медь верх
10
-3.851
20
-15.818
11
-3.858
21
-15.779
0
LINE
8
медь верх
10
-3.858
20
-15.779
11
-3.880
21
-15.746
0
LINE
8
медь верх
10
-3.880
20
-15.746
11
-3.914
21
-15.723
0
LINE
8
медь верх
10
-3.914
20
-15.723
11
-3.953
21
-15.716
0
LINE
8
медь верх
10
-3.953
20
-15.716
11
-4.097
21
-15.716
0
LINE
8
медь верх
10
-4.097
20
-15.716
11
-4.176
21
-15.637
0
LINE
8
медь верх
10
-4.176
20
-15.637
11
-4.176
21
-14.743
0
LINE
8
медь верх
10
-4.176
20
-14.743
11
-4.097
21
-14.664
0
LINE
8
медь верх
10
-4.097
20
-14.664
11
-1.703
21
-14.664
0
LINE
8
медь верх
10
-1.703
20
-14.664
11
-1.624
21
-14.743
0
LINE
8
медь верх
10
-1.624
20
-14.743
11
-1.624
21
-15.637
0
LINE
8
медь верх
10
-1.624
20
-15.637
11
-1.703
21
-15.716
0
LINE
8
медь верх
10
-1.703
20
-15.716
11
-1.847
21
-15.716
0
LINE
8
медь верх
10
-1.847
20
-15.716
11
-1.886
21
-15.723
0
LINE
8
медь верх
10
-1.886
20
-15.723
11
-1.920
21
-15.746
0
LINE
8
медь верх
10
-1.920
20
-15.746
11
-1.942
21
-15.779
0
LINE
8
медь верх
10
-1.942
20
-15.779
11
-1.949
21
-15.818
0
LINE
8
медь верх
10
-1.949
20
-15.818
11
-1.942
21
-15.857
0
LINE
8
медь верх
10
-1.942
20
-15.857
11
-1.920
21
-15.890
0
LINE
8
медь верх
10
-1.920
20
-15.890
11
-1.622
21
-16.187
0
LINE
8
медь верх
10
-1.622
20
-16.187
11
-1.622
21
-16.693
0
LINE
8
медь верх
10
-1.622
20
-16.693
11
-1.897
21
-16.968
0
LINE
8
медь верх
10
-1.897
20
-16.968
11
-3.903
21
-16.968
0
LINE
8
медь верх
10
-3.903
20
-16.968
11
-4.018
21
-16.852
0
LINE
8
медь верх
10
-4.018
20
-16.852
11
-4.018
21
-16.852
0
LINE
8
медь верх
10
-4.018
20
-16.852
11
-4.038
21
-16.839
0
LINE
8
медь верх
10
-4.038
20
-16.839
11
-4.051
21
-16.830
0
LINE
8
медь верх
10
-4.051
20
-16.830
11
-4.090
21
-16.822
0
LINE
8
медь верх
10
-4.090
20
-16.822
11
-5.881
21
-16.822
0
LINE
8
медь верх
10
-5.881
20
-16.822
11
-5.920
21
-16.830
0
LINE
8
медь верх
10
-5.920
20
-16.830
11
-5.953
21
-16.852
0
LINE
8
медь верх
10
-5.953
20
-16.852
11
-5.973
21
-16.882
0
LINE
8
медь верх
10
-5.973
20
-16.882
11
-6.158
21
-17.067
0
LINE
8
медь верх
10
-6.158
20
-17.067
11
-7.162
21
-17.067
0
LINE
8
медь верх
10
-7.162
20
-17.067
11
-7.347
21
-16.882
0
LINE
8
медь верх
10
-7.347
20
-16.882
11
-7.367
21
-16.852
0
LINE
8
медь верх
10
-7.367
20
-16.852
11
-7.400
21
-16.830
0
LINE
8
медь верх
10
-7.400
20
-16.830
11
-7.439
21
-16.822
0
LINE
8
медь верх
10
-7.439
20
-16.822
11
-9.284
21
-16.822
0
LINE
8
медь верх
10
-9.284
20
-16.822
11
-9.290
21
-16.824
0
LINE
8
медь верх
10
-9.290
20
-16.824
11
-9.323
21
-16.830
0
LINE
8
медь верх
10
-9.323
20
-16.830
11
-9.343
21
-16.843
0
LINE
8
медь верх
10
-9.343
20
-16.843
11
-9.356
21
-16.852
0
LINE
8
медь верх
10
-9.356
20
-16.852
11
-9.356
21
-16.852
0
LINE
8
медь верх
10
-9.356
20
-16.852
11
-9.988
21
-17.484
0
LINE
8
медь верх
10
-9.988
20
-17.484
11
-9.988
21
-17.484
0
LINE
8
медь верх
10
-9.988
20
-17.484
11
-10.010
21
-17.517
0
LINE
8
медь верх
10
-10.010
20
-17.517
11
-10.018
21
-17.556
0
LINE
8
медь верх
10
-10.018
20
-17.556
11
-10.018
21
-18.116
0
LINE
8
медь верх
10
-10.018
20
-18.116
11
-10.010
21
-18.155
0
LINE
8
медь верх
10
-10.010
20
-18.155
11
-9.988
21
-18.189
0
LINE
8
медь верх
10
-9.988
20
-18.189
11
-9.955
21
-18.211
0
LINE
8
медь верх
10
-9.955
20
-18.211
11
-9.915
21
-18.218
0
LINE
8
медь верх
10
-9.915
20
-18.218
11
-9.857
21
-18.218
0
LINE
8
медь верх
10
-9.857
20
-18.218
11
-9.218
21
-18.857
0
LINE
8
медь верх
10
-9.218
20
-18.857
11
-9.218
21
-19.943
0
LINE
8
медь верх
10
-9.218
20
-19.943
11
-9.874
21
-20.599
0
LINE
8
медь верх
10
-9.874
20
-20.599
11
-9.897
21
-20.632
0
LINE
8
медь верх
10
-9.897
20
-20.632
11
-9.904
21
-20.671
0
LINE
8
медь верх
10
-9.904
20
-20.671
11
-9.897
21
-20.710
0
LINE
8
медь верх
10
-9.897
20
-20.710
11
-9.874
21
-20.743
0
LINE
8
медь верх
10
-9.874
20
-20.743
11
-9.227
21
-21.391
0
LINE
8
медь верх
10
-9.227
20
-21.391
11
-9.227
21
-21.670
0
LINE
8
медь верх
10
-9.227
20
-21.670
11
-9.369
21
-21.670
0
LINE
8
медь верх
10
-9.369
20
-21.670
11
-9.369
21
-21.441
0
LINE
8
медь верх
10
-9.369
20
-21.441
11
-9.941
21
-20.869
0
LINE
8
медь верх
10
-9.941
20
-20.869
11
-10.859
21
-20.869
0
LINE
8
медь верх
10
-10.859
20
-20.869
11
-11.431
21
-21.441
0
LINE
8
медь верх
10
-11.431
20
-21.441
11
-11.431
21
-21.673
0
LINE
8
медь верх
10
-11.431
20
-21.673
11
-11.573
21
-21.673
0
LINE
8
медь верх
10
-11.573
20
-21.673
11
-11.573
21
-21.391
0
LINE
8
медь верх
10
-11.573
20
-21.391
11
-10.926
21
-20.743
0
LINE
8
медь верх
10
-10.926
20
-20.743
11
-10.903
21
-20.710
0
LINE
8
медь верх
10
-10.903
20
-20.710
11
-10.896
21
-20.671
0
LINE
8
медь верх
10
-10.896
20
-20.671
11
-10.903
21
-20.632
0
LINE
8
медь верх
10
-10.903
20
-20.632
11
-10.926
21
-20.599
0
LINE
8
медь верх
10
-10.926
20
-20.599
11
-11.582
21
-19.943
0
LINE
8
медь верх
10
-11.582
20
-19.943
11
-11.582
21
-18.857
0
LINE
8
медь верх
10
-11.582
20
-18.857
11
-10.943
21
-18.218
0
LINE
8
медь верх
10
-10.943
20
-18.218
11
-10.884
21
-18.218
0
LINE
8
медь верх
10
-10.884
20
-18.218
11
-10.845
21
-18.211
0
LINE
8
медь верх
10
-10.845
20
-18.211
11
-10.812
21
-18.189
0
LINE
8
медь верх
10
-10.812
20
-18.189
11
-10.790
21
-18.155
0
LINE
8
медь верх
10
-10.790
20
-18.155
11
-10.782
21
-18.116
0
LINE
8
медь верх
10
-10.782
20
-18.116
11
-10.782
21
-17.366
0
LINE
8
медь верх
10
-10.782
20
-17.366
11
-10.757
21
-17.236
0
LINE
8
медь верх
10
-10.757
20
-17.236
11
-10.757
21
-17.236
0
LINE
8
медь верх
10
-10.757
20
-17.236
11
-10.751
21
-17.210
0
LINE
8
медь верх
10
-10.751
20
-17.210
11
-10.721
21
-17.164
0
LINE
8
медь верх
10
-10.721
20
-17.164
11
-10.721
21
-17.164
0
LINE
8
медь верх
10
-10.721
20
-17.164
11
-10.663
21
-17.078
0
LINE
8
медь верх
10
-10.663
20
-17.078
11
-9.762
21
-16.177
0
LINE
8
медь верх
10
-9.762
20
-16.177
11
-9.630
21
-16.089
0
LINE
8
медь верх
10
-9.630
20
-16.089
11
-9.526
21
-16.068
0
LINE
8
медь верх
10
-9.526
20
-16.068
11
-9.474
21
-16.058
0
LINE
8
медь верх
10
-9.474
20
-16.058
11
-7.439
21
-16.058
0
LINE
8
медь верх
10
-7.439
20
-16.058
11
-7.439
21
-16.058
0
LINE
8
медь верх
10
-7.439
20
-16.058
11
-7.400
21
-16.050
0
LINE
8
медь верх
10
-7.400
20
-16.050
11
-7.367
21
-16.028
0
LINE
8
медь верх
10
-7.367
20
-16.028
11
-7.358
21
-16.014
0
LINE
8
медь верх
10
-7.358
20
-16.014
11
-7.347
21
-15.998
0
LINE
8
медь верх
10
-7.347
20
-15.998
11
-7.162
21
-15.813
0
LINE
8
медь верх
10
-7.162
20
-15.813
11
-7.144
21
-15.813
0
LINE
8
медь верх
10
-7.144
20
-15.813
11
-7.122
21
-15.809
0
LINE
8
медь верх
10
-7.122
20
-15.809
11
-7.105
21
-15.806
0
LINE
8
медь верх
10
-7.105
20
-15.806
11
-7.105
21
-15.806
0
LINE
8
медь верх
10
-7.105
20
-15.806
11
-7.105
21
-15.806
0
LINE
8
медь верх
10
-7.105
20
-15.806
11
-7.085
21
-15.792
0
LINE
8
медь верх
10
-7.085
20
-15.792
11
-7.072
21
-15.783
0
LINE
8
медь верх
10
-7.072
20
-15.783
11
-7.072
21
-15.783
0
LINE
8
медь верх
10
-7.072
20
-15.783
11
-7.072
21
-15.783
0
LINE
8
медь верх
10
-7.072
20
-15.783
11
-7.060
21
-15.766
0
LINE
8
медь верх
10
-7.060
20
-15.766
11
-7.050
21
-15.750
0
LINE
8
медь верх
10
-7.050
20
-15.750
11
-7.050
21
-15.750
0
LINE
8
медь верх
10
-7.050
20
-15.750
11
-7.050
21
-15.750
0
LINE
8
медь верх
10
-7.050
20
-15.750
11
-7.047
21
-15.736
0
LINE
8
медь верх
10
-7.047
20
-15.736
11
-7.042
21
-15.711
0
LINE
8
медь верх
10
-7.042
20
-15.711
11
-7.042
21
-14.659
0
LINE
8
медь верх
10
-7.042
20
-14.659
11
-7.025
21
-14.572
0
LINE
8
медь верх
10
-7.025
20
-14.572
11
-7.025
21
-14.572
0
LINE
8
медь верх
10
-7.025
20
-14.572
11
-7.025
21
-14.572
0
LINE
8
медь верх
10
-7.025
20
-14.572
11
-7.011
21
-14.503
0
LINE
8
медь верх
10
-7.011
20
-14.503
11
-6.971
21
-14.443
0
LINE
8
медь верх
10
-6.971
20
-14.443
11
-6.971
21
-14.443
0
LINE
8
медь верх
10
-6.971
20
-14.443
11
-6.971
21
-14.443
0
LINE
8
медь верх
10
-6.971
20
-14.443
11
-6.923
21
-14.371
0
LINE
8
медь верх
10
-6.923
20
-14.371
11
-6.066
21
-13.514
0
LINE
8
медь верх
10
-6.066
20
-13.514
11
-5.978
21
-13.456
0
LINE
8
медь верх
10
-5.978
20
-13.456
11
-5.934
21
-13.426
0
LINE
8
медь верх
10
-5.934
20
-13.426
11
-5.855
21
-13.410
0
LINE
8
медь верх
10
-5.855
20
-13.410
11
-5.855
21
-13.410
0
LINE
8
медь верх
10
-5.855
20
-13.410
11
-5.779
21
-13.395
0
LINE
8
медь верх
10
-5.779
20
-13.395
11
0.034
21
-13.395
0
LINE
8
медь верх
10
0.034
20
-13.395
11
0.034
21
-13.395
0
LINE
8
медь верх
10
6.758
20
-17.314
11
5.922
21
-17.314
0
LINE
8
медь верх
10
5.922
20
-17.314
11
5.814
21
-17.422
0
LINE
8
медь верх
10
5.814
20
-17.422
11
5.814
21
-17.510
0
LINE
8
медь верх
10
5.814
20
-17.510
11
3.967
21
-17.510
0
LINE
8
медь верх
10
3.967
20
-17.510
11
3.819
21
-17.363
0
LINE
8
медь верх
10
3.819
20
-17.363
11
1.981
21
-17.363
0
LINE
8
медь верх
10
1.981
20
-17.363
11
1.773
21
-17.571
0
LINE
8
медь верх
10
1.773
20
-17.571
11
1.773
21
-17.909
0
LINE
8
медь верх
10
1.773
20
-17.909
11
1.981
21
-18.117
0
LINE
8
медь верх
10
1.981
20
-18.117
11
3.819
21
-18.117
0
LINE
8
медь верх
10
3.819
20
-18.117
11
3.967
21
-17.970
0
LINE
8
медь верх
10
3.967
20
-17.970
11
5.814
21
-17.970
0
LINE
8
медь верх
10
5.814
20
-17.970
11
5.814
21
-18.058
0
LINE
8
медь верх
10
5.814
20
-18.058
11
5.922
21
-18.166
0
LINE
8
медь верх
10
5.922
20
-18.166
11
6.758
21
-18.166
0
LINE
8
медь верх
10
6.758
20
-18.166
11
6.866
21
-18.058
0
LINE
8
медь верх
10
6.866
20
-18.058
11
6.866
21
-17.970
0
LINE
8
медь верх
10
6.866
20
-17.970
11
7.273
21
-17.970
0
LINE
8
медь верх
10
7.273
20
-17.970
11
7.801
21
-18.497
0
LINE
8
медь верх
10
7.801
20
-18.497
11
7.801
21
-19.430
0
LINE
8
медь верх
10
7.801
20
-19.430
11
7.801
21
-19.430
0
LINE
8
медь верх
10
7.801
20
-19.430
11
7.818
21
-19.518
0
LINE
8
медь верх
10
7.818
20
-19.518
11
7.868
21
-19.593
0
LINE
8
медь верх
10
7.868
20
-19.593
11
9.593
21
-21.317
0
LINE
8
медь верх
10
9.593
20
-21.317
11
9.469
21
-21.441
0
LINE
8
медь верх
10
9.469
20
-21.441
11
9.469
21
-22.359
0
LINE
8
медь верх
10
9.469
20
-22.359
11
10.041
21
-22.931
0
LINE
8
медь верх
10
10.041
20
-22.931
11
10.959
21
-22.931
0
LINE
8
медь верх
10
10.959
20
-22.931
11
11.531
21
-22.359
0
LINE
8
медь верх
10
11.531
20
-22.359
11
11.531
21
-21.441
0
LINE
8
медь верх
10
11.531
20
-21.441
11
10.959
21
-20.869
0
LINE
8
медь верх
10
10.959
20
-20.869
11
10.041
21
-20.869
0
LINE
8
медь верх
10
10.041
20
-20.869
11
9.917
21
-20.993
0
LINE
8
медь верх
10
9.917
20
-20.993
11
8.260
21
-19.335
0
LINE
8
медь верх
10
8.260
20
-19.335
11
8.260
21
-18.402
0
LINE
8
медь верх
10
8.260
20
-18.402
11
8.260
21
-18.402
0
LINE
8
медь верх
10
8.260
20
-18.402
11
8.260
21
-18.402
0
LINE
8
медь верх
10
8.260
20
-18.402
11
8.242
21
-18.314
0
LINE
8
медь верх
10
8.242
20
-18.314
11
8.209
21
-18.265
0
LINE
8
медь верх
10
8.209
20
-18.265
11
8.193
21
-18.240
0
LINE
8
медь верх
10
8.193
20
-18.240
11
8.193
21
-18.240
0
LINE
8
медь верх
10
8.193
20
-18.240
11
7.530
21
-17.578
0
LINE
8
медь верх
10
7.530
20
-17.578
11
7.530
21
-17.578
0
LINE
8
медь верх
10
7.530
20
-17.578
11
7.456
21
-17.528
0
LINE
8
медь верх
10
7.456
20
-17.528
11
7.368
21
-17.510
0
LINE
8
медь верх
10
7.368
20
-17.510
11
6.866
21
-17.510
0
LINE
8
медь верх
10
6.866
20
-17.510
11
6.866
21
-17.422
0
LINE
8
медь верх
10
6.866
20
-17.422
11
6.758
21
-17.314
0
LINE
8
медь верх
10
6.866
20
-16.122
11
6.866
21
-16.210
0
LINE
8
медь верх
10
6.866
20
-16.210
11
7.540
21
-16.210
0
LINE
8
медь верх
10
7.540
20
-16.210
11
7.628
21
-16.228
0
LINE
8
медь верх
10
7.628
20
-16.228
11
7.702
21
-16.278
0
LINE
8
медь верх
10
7.702
20
-16.278
11
9.917
21
-18.493
0
LINE
8
медь верх
10
9.917
20
-18.493
11
10.041
21
-18.369
0
LINE
8
медь верх
10
10.041
20
-18.369
11
10.959
21
-18.369
0
LINE
8
медь верх
10
10.959
20
-18.369
11
11.531
21
-18.941
0
LINE
8
медь верх
10
11.531
20
-18.941
11
11.531
21
-19.859
0
LINE
8
медь верх
10
11.531
20
-19.859
11
10.959
21
-20.431
0
LINE
8
медь верх
10
10.959
20
-20.431
11
10.041
21
-20.431
0
LINE
8
медь верх
10
10.041
20
-20.431
11
9.469
21
-19.859
0
LINE
8
медь верх
10
9.469
20
-19.859
11
9.469
21
-18.941
0
LINE
8
медь верх
10
9.469
20
-18.941
11
9.593
21
-18.817
0
LINE
8
медь верх
10
9.593
20
-18.817
11
7.445
21
-16.670
0
LINE
8
медь верх
10
7.445
20
-16.670
11
6.866
21
-16.670
0
LINE
8
медь верх
10
6.866
20
-16.670
11
6.866
21
-16.758
0
LINE
8
медь верх
10
6.866
20
-16.758
11
6.758
21
-16.866
0
LINE
8
медь верх
10
6.758
20
-16.866
11
5.921
21
-16.866
0
LINE
8
медь верх
10
5.921
20
-16.866
11
5.813
21
-16.758
0
LINE
8
медь верх
10
5.813
20
-16.758
11
5.813
21
-16.670
0
LINE
8
медь верх
10
5.813
20
-16.670
11
3.967
21
-16.670
0
LINE
8
медь верх
10
3.967
20
-16.670
11
3.819
21
-16.817
0
LINE
8
медь верх
10
3.819
20
-16.817
11
1.981
21
-16.817
0
LINE
8
медь верх
10
1.981
20
-16.817
11
1.773
21
-16.609
0
LINE
8
медь верх
10
1.773
20
-16.609
11
1.773
21
-16.271
0
LINE
8
медь верх
10
1.773
20
-16.271
11
1.981
21
-16.063
0
LINE
8
медь верх
10
1.981
20
-16.063
11
3.819
21
-16.063
0
LINE
8
медь верх
10
3.819
20
-16.063
11
3.967
21
-16.210
0
LINE
8
медь верх
10
3.967
20
-16.210
11
5.813
21
-16.210
0
LINE
8
медь верх
10
5.813
20
-16.210
11
5.813
21
-16.122
0
LINE
8
медь верх
10
5.813
20
-16.122
11
5.921
21
-16.014
0
LINE
8
медь верх
10
5.921
20
-16.014
11
6.758
21
-16.014
0
LINE
8
медь верх
10
6.758
20
-16.014
11
6.866
21
-16.122
0
LINE
8
медь верх
10
0.034
20
-13.548
11
5.907
21
-13.548
0
LINE
8
медь верх
10
5.907
20
-13.548
11
5.936
21
-13.554
0
LINE
8
медь верх
10
5.936
20
-13.554
11
5.995
21
-13.565
0
LINE
8
медь верх
10
5.995
20
-13.565
11
6.069
21
-13.615
0
LINE
8
медь верх
10
6.069
20
-13.615
11
6.501
21
-14.047
0
LINE
8
медь верх
10
6.501
20
-14.047
11
6.526
21
-14.084
0
LINE
8
медь верх
10
6.526
20
-14.084
11
6.551
21
-14.121
0
LINE
8
медь верх
10
6.551
20
-14.121
11
6.551
21
-14.121
0
LINE
8
медь верх
10
6.551
20
-14.121
11
6.551
21
-14.122
0
LINE
8
медь верх
10
6.551
20
-14.122
11
6.559
21
-14.165
0
LINE
8
медь верх
10
6.559
20
-14.165
11
6.568
21
-14.209
0
LINE
8
медь верх
10
6.568
20
-14.209
11
6.568
21
-14.364
0
LINE
8
медь верх
10
6.568
20
-14.364
11
6.758
21
-14.364
0
LINE
8
медь верх
10
6.758
20
-14.364
11
6.866
21
-14.472
0
LINE
8
медь верх
10
6.866
20
-14.472
11
6.866
21
-15.108
0
LINE
8
медь верх
10
6.866
20
-15.108
11
6.758
21
-15.216
0
LINE
8
медь верх
10
6.758
20
-15.216
11
5.922
21
-15.216
0
LINE
8
медь верх
10
5.922
20
-15.216
11
5.813
21
-15.108
0
LINE
8
медь верх
10
5.813
20
-15.108
11
5.813
21
-14.472
0
LINE
8
медь верх
10
5.813
20
-14.472
11
5.922
21
-14.364
0
LINE
8
медь верх
10
5.922
20
-14.364
11
6.109
21
-14.364
0
LINE
8
медь верх
10
6.109
20
-14.364
11
6.109
21
-14.305
0
LINE
8
медь верх
10
6.109
20
-14.305
11
5.812
21
-14.007
0
LINE
8
медь верх
10
5.812
20
-14.007
11
0.264
21
-14.007
0
LINE
8
медь верх
10
0.264
20
-14.007
11
0.263
21
-19.648
0
LINE
8
медь верх
10
0.263
20
-19.648
11
0.830
21
-20.216
0
LINE
8
медь верх
10
0.830
20
-20.216
11
5.819
21
-20.216
0
LINE
8
медь верх
10
5.819
20
-20.216
11
6.109
21
-19.925
0
LINE
8
медь верх
10
6.109
20
-19.925
11
6.109
21
-19.816
0
LINE
8
медь верх
10
6.109
20
-19.816
11
5.922
21
-19.816
0
LINE
8
медь верх
10
5.922
20
-19.816
11
5.813
21
-19.708
0
LINE
8
медь верх
10
5.813
20
-19.708
11
5.813
21
-19.072
0
LINE
8
медь верх
10
5.813
20
-19.072
11
5.922
21
-18.964
0
LINE
8
медь верх
10
5.922
20
-18.964
11
6.758
21
-18.964
0
LINE
8
медь верх
10
6.758
20
-18.964
11
6.866
21
-19.072
0
LINE
8
медь верх
10
6.866
20
-19.072
11
6.866
21
-19.708
0
LINE
8
медь верх
10
6.866
20
-19.708
11
6.758
21
-19.816
0
LINE
8
медь верх
10
6.758
20
-19.816
11
6.569
21
-19.816
0
LINE
8
медь верх
10
6.569
20
-19.816
11
6.568
21
-20.020
0
LINE
8
медь верх
10
6.568
20
-20.020
11
6.559
21
-20.064
0
LINE
8
медь верх
10
6.559
20
-20.064
11
6.551
21
-20.107
0
LINE
8
медь верх
10
6.551
20
-20.107
11
6.551
21
-20.108
0
LINE
8
медь верх
10
6.551
20
-20.108
11
6.551
21
-20.108
0
LINE
8
медь верх
10
6.551
20
-20.108
11
6.526
21
-20.145
0
LINE
8
медь верх
10
6.526
20
-20.145
11
6.501
21
-20.182
0
LINE
8
медь верх
10
6.501
20
-20.182
11
6.077
21
-20.607
0
LINE
8
медь верх
10
6.077
20
-20.607
11
6.077
21
-20.607
0
LINE
8
медь верх
10
6.077
20
-20.607
11
6.077
21
-20.607
0
LINE
8
медь верх
10
6.077
20
-20.607
11
6.040
21
-20.632
0
LINE
8
медь верх
10
6.040
20
-20.632
11
6.003
21
-20.657
0
LINE
8
медь верх
10
6.003
20
-20.657
11
6.002
21
-20.657
0
LINE
8
медь верх
10
6.002
20
-20.657
11
6.002
21
-20.657
0
LINE
8
медь верх
10
6.002
20
-20.657
11
5.959
21
-20.666
0
LINE
8
медь верх
10
5.959
20
-20.666
11
5.915
21
-20.675
0
LINE
8
медь верх
10
5.915
20
-20.675
11
5.915
21
-20.675
0
LINE
8
медь верх
10
5.915
20
-20.675
11
5.914
21
-20.675
0
LINE
8
медь верх
10
5.914
20
-20.675
11
0.735
21
-20.675
0
LINE
8
медь верх
10
0.735
20
-20.675
11
0.647
21
-20.657
0
LINE
8
медь верх
10
0.647
20
-20.657
11
0.573
21
-20.607
0
LINE
8
медь верх
10
0.573
20
-20.607
11
0.573
21
-20.607
0
LINE
8
медь верх
10
0.573
20
-20.607
11
-0.129
21
-19.905
0
LINE
8
медь верх
10
-0.129
20
-19.905
11
-0.129
21
-19.905
0
LINE
8
медь верх
10
-0.129
20
-19.905
11
-0.129
21
-19.905
0
LINE
8
медь верх
10
-0.129
20
-19.905
11
-0.154
21
-19.868
0
LINE
8
медь верх
10
-0.154
20
-19.868
11
-0.179
21
-19.831
0
LINE
8
медь верх
10
-0.179
20
-19.831
11
-0.179
21
-19.831
0
LINE
8
медь верх
10
-0.179
20
-19.831
11
-0.179
21
-19.831
0
LINE
8
медь верх
10
-0.179
20
-19.831
11
-0.188
21
-19.787
0
LINE
8
медь верх
10
-0.188
20
-19.787
11
-0.197
21
-19.743
0
LINE
8
медь верх
10
-0.197
20
-19.743
11
-0.197
21
-19.743
0
LINE
8
медь верх
10
-0.197
20
-19.743
11
-0.197
21
-19.743
0
LINE
8
медь верх
10
-0.197
20
-19.743
11
-0.196
21
-14.007
0
LINE
8
медь верх
10
-0.196
20
-14.007
11
-5.694
21
-14.007
0
LINE
8
медь верх
10
-5.694
20
-14.007
11
-6.430
21
-14.744
0
LINE
8
медь верх
10
-6.430
20
-14.744
11
-6.430
21
-15.964
0
LINE
8
медь верх
10
-6.430
20
-15.964
11
-6.242
21
-15.964
0
LINE
8
медь верх
10
-6.242
20
-15.964
11
-6.134
21
-16.072
0
LINE
8
медь верх
10
-6.134
20
-16.072
11
-6.134
21
-16.210
0
LINE
8
медь верх
10
-6.134
20
-16.210
11
-3.967
21
-16.210
0
LINE
8
медь верх
10
-3.967
20
-16.210
11
-3.819
21
-16.063
0
LINE
8
медь верх
10
-3.819
20
-16.063
11
-1.981
21
-16.063
0
LINE
8
медь верх
10
-1.981
20
-16.063
11
-1.773
21
-16.271
0
LINE
8
медь верх
10
-1.773
20
-16.271
11
-1.773
21
-16.609
0
LINE
8
медь верх
10
-1.773
20
-16.609
11
-1.981
21
-16.817
0
LINE
8
медь верх
10
-1.981
20
-16.817
11
-3.819
21
-16.817
0
LINE
8
медь верх
10
-3.819
20
-16.817
11
-3.967
21
-16.670
0
LINE
8
медь верх
10
-3.967
20
-16.670
11
-6.134
21
-16.670
0
LINE
8
медь верх
10
-6.134
20
-16.670
11
-6.134
21
-16.808
0
LINE
8
медь верх
10
-6.134
20
-16.808
11
-6.242
21
-16.916
0
LINE
8
медь верх
10
-6.242
20
-16.916
11
-7.078
21
-16.916
0
LINE
8
медь верх
10
-7.078
20
-16.916
11
-7.186
21
-16.808
0
LINE
8
медь верх
10
-7.186
20
-16.808
11
-7.186
21
-16.670
0
LINE
8
медь верх
10
-7.186
20
-16.670
11
-9.389
21
-16.670
0
LINE
8
медь верх
10
-9.389
20
-16.670
11
-10.170
21
-17.451
0
LINE
8
медь верх
10
-10.170
20
-17.451
11
-10.170
21
-18.369
0
LINE
8
медь верх
10
-10.170
20
-18.369
11
-9.941
21
-18.369
0
LINE
8
медь верх
10
-9.941
20
-18.369
11
-9.369
21
-18.941
0
LINE
8
медь верх
10
-9.369
20
-18.941
11
-9.369
21
-19.859
0
LINE
8
медь верх
10
-9.369
20
-19.859
11
-9.941
21
-20.431
0
LINE
8
медь верх
10
-9.941
20
-20.431
11
-10.859
21
-20.431
0
LINE
8
медь верх
10
-10.859
20
-20.431
11
-11.431
21
-19.859
0
LINE
8
медь верх
10
-11.431
20
-19.859
11
-11.431
21
-18.941
0
LINE
8
медь верх
10
-11.431
20
-18.941
11
-10.859
21
-18.369
0
LINE
8
медь верх
10
-10.859
20
-18.369
11
-10.630
21
-18.369
0
LINE
8
медь верх
10
-10.630
20
-18.369
11
-10.630
21
-17.356
0
LINE
8
медь верх
10
-10.630
20
-17.356
11
-10.616
21
-17.285
0
LINE
8
медь верх
10
-10.616
20
-17.285
11
-10.612
21
-17.268
0
LINE
8
медь верх
10
-10.612
20
-17.268
11
-10.592
21
-17.238
0
LINE
8
медь верх
10
-10.592
20
-17.238
11
-10.562
21
-17.193
0
LINE
8
медь верх
10
-10.562
20
-17.193
11
-10.562
21
-17.193
0
LINE
8
медь верх
10
-10.562
20
-17.193
11
-9.647
21
-16.278
0
LINE
8
медь верх
10
-9.647
20
-16.278
11
-9.622
21
-16.261
0
LINE
8
медь верх
10
-9.622
20
-16.261
11
-9.572
21
-16.228
0
LINE
8
медь верх
10
-9.572
20
-16.228
11
-9.484
21
-16.210
0
LINE
8
медь верх
10
-9.484
20
-16.210
11
-7.186
21
-16.210
0
LINE
8
медь верх
10
-7.186
20
-16.210
11
-7.186
21
-16.072
0
LINE
8
медь верх
10
-7.186
20
-16.072
11
-7.078
21
-15.964
0
LINE
8
медь верх
10
-7.078
20
-15.964
11
-6.890
21
-15.964
0
LINE
8
медь верх
10
-6.890
20
-15.964
11
-6.889
21
-14.649
0
LINE
8
медь верх
10
-6.889
20
-14.649
11
-6.881
21
-14.605
0
LINE
8
медь верх
10
-6.881
20
-14.605
11
-6.872
21
-14.561
0
LINE
8
медь верх
10
-6.872
20
-14.561
11
-6.872
21
-14.561
0
LINE
8
медь верх
10
-6.872
20
-14.561
11
-6.872
21
-14.561
0
LINE
8
медь верх
10
-6.872
20
-14.561
11
-6.850
21
-14.528
0
LINE
8
медь верх
10
-6.850
20
-14.528
11
-6.822
21
-14.486
0
LINE
8
медь верх
10
-6.822
20
-14.486
11
-5.951
21
-13.615
0
LINE
8
медь верх
10
-5.951
20
-13.615
11
-5.905
21
-13.584
0
LINE
8
медь верх
10
-5.905
20
-13.584
11
-5.877
21
-13.566
0
LINE
8
медь верх
10
-5.877
20
-13.566
11
-5.877
21
-13.566
0
LINE
8
медь верх
10
-5.877
20
-13.566
11
-5.877
21
-13.566
0
LINE
8
медь верх
10
-5.877
20
-13.566
11
-5.841
21
-13.558
0
LINE
8
медь верх
10
-5.841
20
-13.558
11
-5.789
21
-13.548
0
LINE
8
медь верх
10
-5.789
20
-13.548
11
0.034
21
-13.548
0
LINE
8
медь верх
10
0.034
20
-13.548
11
0.034
21
-13.548
0
LINE
8
медь верх
10
0.034
20
-13.548
11
0.034
21
-13.548
0
LINE
8
медь верх
10
0.034
20
-13.548
11
0.034
21
-13.548
0
LINE
8
медь верх
10
0.034
20
-13.548
11
0.034
21
-13.548
0
LINE
8
медь верх
10
0.034
20
-13.548
11
0.034
21
-13.548
0
LINE
8
медь верх
10
-1.775
20
-15.565
11
-1.775
21
-14.815
0
LINE
8
медь верх
10
-1.775
20
-14.815
11
-4.025
21
-14.815
0
LINE
8
медь верх
10
-4.025
20
-14.815
11
-4.025
21
-15.565
0
LINE
8
медь верх
10
-4.025
20
-15.565
11
-1.775
21
-15.565
0
LINE
8
медь верх
10
3.819
20
-19.367
11
4.027
21
-19.159
0
LINE
8
медь верх
10
4.027
20
-19.159
11
4.027
21
-18.821
0
LINE
8
медь верх
10
4.027
20
-18.821
11
3.819
21
-18.613
0
LINE
8
медь верх
10
3.819
20
-18.613
11
1.981
21
-18.613
0
LINE
8
медь верх
10
1.981
20
-18.613
11
1.773
21
-18.821
0
LINE
8
медь верх
10
1.773
20
-18.821
11
1.773
21
-19.159
0
LINE
8
медь верх
10
1.773
20
-19.159
11
1.981
21
-19.367
0
LINE
8
медь верх
10
1.981
20
-19.367
11
3.819
21
-19.367
0
LINE
8
медь верх
10
3.819
20
-15.567
11
4.027
21
-15.359
0
LINE
8
медь верх
10
4.027
20
-15.359
11
4.027
21
-15.021
0
LINE
8
медь верх
10
4.027
20
-15.021
11
3.819
21
-14.813
0
LINE
8
медь верх
10
3.819
20
-14.813
11
1.981
21
-14.813
0
LINE
8
медь верх
10
1.981
20
-14.813
11
1.773
21
-15.021
0
LINE
8
медь верх
10
1.773
20
-15.021
11
1.773
21
-15.359
0
LINE
8
медь верх
10
1.773
20
-15.359
11
1.981
21
-15.567
0
LINE
8
медь верх
10
1.981
20
-15.567
11
3.819
21
-15.567
0
LINE
8
медь верх
10
12.473
20
-23.972
11
-12.473
21
-23.972
0
LINE
8
медь верх
10
-12.473
20
-23.972
11
-12.473
21
-12.575
0
LINE
8
медь верх
10
-12.473
20
-12.575
11
12.473
21
-12.575
0
LINE
8
медь верх
10
12.473
20
-12.575
11
12.473
21
-23.972
0
LINE
8
медь верх
10
12.218
20
-12.728
11
-12.218
21
-12.728
0
LINE
8
медь верх
10
-12.218
20
-12.728
11
-12.257
21
-12.736
0
LINE
8
медь верх
10
-12.257
20
-12.736
11
-12.290
21
-12.758
0
LINE
8
медь верх
10
-12.290
20
-12.758
11
-12.312
21
-12.791
0
LINE
8
медь верх
10
-12.312
20
-12.791
11
-12.320
21
-12.830
0
LINE
8
медь верх
10
-12.320
20
-12.830
11
-12.320
21
-23.717
0
LINE
8
медь верх
10
-12.320
20
-23.717
11
-12.312
21
-23.756
0
LINE
8
медь верх
10
-12.312
20
-23.756
11
-12.290
21
-23.790
0
LINE
8
медь верх
10
-12.290
20
-23.790
11
-12.257
21
-23.812
0
LINE
8
медь верх
10
-12.257
20
-23.812
11
-12.218
21
-23.819
0
LINE
8
медь верх
10
-12.218
20
-23.819
11
12.218
21
-23.819
0
LINE
8
медь верх
10
12.218
20
-23.819
11
12.257
21
-23.812
0
LINE
8
медь верх
10
12.257
20
-23.812
11
12.290
21
-23.790
0
LINE
8
медь верх
10
12.290
20
-23.790
11
12.312
21
-23.756
0
LINE
8
медь верх
10
12.312
20
-23.756
11
12.320
21
-23.717
0
LINE
8
медь верх
10
12.320
20
-23.717
11
12.320
21
-12.830
0
LINE
8
медь верх
10
12.320
20
-12.830
11
12.312
21
-12.791
0
LINE
8
медь верх
10
12.312
20
-12.791
11
12.290
21
-12.758
0
LINE
8
медь верх
10
12.290
20
-12.758
11
12.257
21
-12.736
0
LINE
8
медь верх
10
12.257
20
-12.736
11
12.218
21
-12.728
0
LINE
8
медь верх
10
10.000
20
-19.400
11
10.008
21
-19.313
0
LINE
8
медь верх
10
10.008
20
-19.313
11
10.030
21
-19.229
0
LINE
8
медь верх
10
10.030
20
-19.229
11
10.067
21
-19.150
0
LINE
8
медь верх
10
10.067
20
-19.150
11
10.117
21
-19.079
0
LINE
8
медь верх
10
10.117
20
-19.079
11
10.179
21
-19.017
0
LINE
8
медь верх
10
10.179
20
-19.017
11
10.250
21
-18.967
0
LINE
8
медь верх
10
10.250
20
-18.967
11
10.329
21
-18.930
0
LINE
8
медь верх
10
10.329
20
-18.930
11
10.413
21
-18.908
0
LINE
8
медь верх
10
10.413
20
-18.908
11
10.500
21
-18.900
0
LINE
8
медь верх
10
10.500
20
-18.900
11
10.587
21
-18.908
0
LINE
8
медь верх
10
10.587
20
-18.908
11
10.671
21
-18.930
0
LINE
8
медь верх
10
10.671
20
-18.930
11
10.750
21
-18.967
0
LINE
8
медь верх
10
10.750
20
-18.967
11
10.821
21
-19.017
0
LINE
8
медь верх
10
10.821
20
-19.017
11
10.883
21
-19.079
0
LINE
8
медь верх
10
10.883
20
-19.079
11
10.933
21
-19.150
0
LINE
8
медь верх
10
10.933
20
-19.150
11
10.970
21
-19.229
0
LINE
8
медь верх
10
10.970
20
-19.229
11
10.992
21
-19.313
0
LINE
8
медь верх
10
10.992
20
-19.313
11
11.000
21
-19.400
0
LINE
8
медь верх
10
11.000
20
-19.400
11
10.992
21
-19.487
0
LINE
8
медь верх
10
10.992
20
-19.487
11
10.970
21
-19.571
0
LINE
8
медь верх
10
10.970
20
-19.571
11
10.933
21
-19.650
0
LINE
8
медь верх
10
10.933
20
-19.650
11
10.883
21
-19.721
0
LINE
8
медь верх
10
10.883
20
-19.721
11
10.821
21
-19.783
0
LINE
8
медь верх
10
10.821
20
-19.783
11
10.750
21
-19.833
0
LINE
8
медь верх
10
10.750
20
-19.833
11
10.671
21
-19.870
0
LINE
8
медь верх
10
10.671
20
-19.870
11
10.587
21
-19.892
0
LINE
8
медь верх
10
10.587
20
-19.892
11
10.500
21
-19.900
0
LINE
8
медь верх
10
10.500
20
-19.900
11
10.413
21
-19.892
0
LINE
8
медь верх
10
10.413
20
-19.892
11
10.329
21
-19.870
0
LINE
8
медь верх
10
10.329
20
-19.870
11
10.250
21
-19.833
0
LINE
8
медь верх
10
10.250
20
-19.833
11
10.179
21
-19.783
0
LINE
8
медь верх
10
10.179
20
-19.783
11
10.117
21
-19.721
0
LINE
8
медь верх
10
10.117
20
-19.721
11
10.067
21
-19.650
0
LINE
8
медь верх
10
10.067
20
-19.650
11
10.030
21
-19.571
0
LINE
8
медь верх
10
10.030
20
-19.571
11
10.008
21
-19.487
0
LINE
8
медь верх
10
10.008
20
-19.487
11
10.000
21
-19.400
0
LINE
8
медь верх
10
10.000
20
-21.900
11
10.008
21
-21.813
0
LINE
8
медь верх
10
10.008
20
-21.813
11
10.030
21
-21.729
0
LINE
8
медь верх
10
10.030
20
-21.729
11
10.067
21
-21.650
0
LINE
8
медь верх
10
10.067
20
-21.650
11
10.117
21
-21.579
0
LINE
8
медь верх
10
10.117
20
-21.579
11
10.179
21
-21.517
0
LINE
8
медь верх
10
10.179
20
-21.517
11
10.250
21
-21.467
0
LINE
8
медь верх
10
10.250
20
-21.467
11
10.329
21
-21.430
0
LINE
8
медь верх
10
10.329
20
-21.430
11
10.413
21
-21.408
0
LINE
8
медь верх
10
10.413
20
-21.408
11
10.500
21
-21.400
0
LINE
8
медь верх
10
10.500
20
-21.400
11
10.587
21
-21.408
0
LINE
8
медь верх
10
10.587
20
-21.408
11
10.671
21
-21.430
0
LINE
8
медь верх
10
10.671
20
-21.430
11
10.750
21
-21.467
0
LINE
8
медь верх
10
10.750
20
-21.467
11
10.821
21
-21.517
0
LINE
8
медь верх
10
10.821
20
-21.517
11
10.883
21
-21.579
0
LINE
8
медь верх
10
10.883
20
-21.579
11
10.933
21
-21.650
0
LINE
8
медь верх
10
10.933
20
-21.650
11
10.970
21
-21.729
0
LINE
8
медь верх
10
10.970
20
-21.729
11
10.992
21
-21.813
0
LINE
8
медь верх
10
10.992
20
-21.813
11
11.000
21
-21.900
0
LINE
8
медь верх
10
11.000
20
-21.900
11
10.992
21
-21.987
0
LINE
8
медь верх
10
10.992
20
-21.987
11
10.970
21
-22.071
0
LINE
8
медь верх
10
10.970
20
-22.071
11
10.933
21
-22.150
0
LINE
8
медь верх
10
10.933
20
-22.150
11
10.883
21
-22.221
0
LINE
8
медь верх
10
10.883
20
-22.221
11
10.821
21
-22.283
0
LINE
8
медь верх
10
10.821
20
-22.283
11
10.750
21
-22.333
0
LINE
8
медь верх
10
10.750
20
-22.333
11
10.671
21
-22.370
0
LINE
8
медь верх
10
10.671
20
-22.370
11
10.587
21
-22.392
0
LINE
8
медь верх
10
10.587
20
-22.392
11
10.500
21
-22.400
0
LINE
8
медь верх
10
10.500
20
-22.400
11
10.413
21
-22.392
0
LINE
8
медь верх
10
10.413
20
-22.392
11
10.329
21
-22.370
0
LINE
8
медь верх
10
10.329
20
-22.370
11
10.250
21
-22.333
0
LINE
8
медь верх
10
10.250
20
-22.333
11
10.179
21
-22.283
0
LINE
8
медь верх
10
10.179
20
-22.283
11
10.117
21
-22.221
0
LINE
8
медь верх
10
10.117
20
-22.221
11
10.067
21
-22.150
0
LINE
8
медь верх
10
10.067
20
-22.150
11
10.030
21
-22.071
0
LINE
8
медь верх
10
10.030
20
-22.071
11
10.008
21
-21.987
0
LINE
8
медь верх
10
10.008
20
-21.987
11
10.000
21
-21.900
0
LINE
8
медь верх
10
-10.900
20
-19.400
11
-10.892
21
-19.313
0
LINE
8
медь верх
10
-10.892
20
-19.313
11
-10.870
21
-19.229
0
LINE
8
медь верх
10
-10.870
20
-19.229
11
-10.833
21
-19.150
0
LINE
8
медь верх
10
-10.833
20
-19.150
11
-10.783
21
-19.079
0
LINE
8
медь верх
10
-10.783
20
-19.079
11
-10.721
21
-19.017
0
LINE
8
медь верх
10
-10.721
20
-19.017
11
-10.650
21
-18.967
0
LINE
8
медь верх
10
-10.650
20
-18.967
11
-10.571
21
-18.930
0
LINE
8
медь верх
10
-10.571
20
-18.930
11
-10.487
21
-18.908
0
LINE
8
медь верх
10
-10.487
20
-18.908
11
-10.400
21
-18.900
0
LINE
8
медь верх
10
-10.400
20
-18.900
11
-10.313
21
-18.908
0
LINE
8
медь верх
10
-10.313
20
-18.908
11
-10.229
21
-18.930
0
LINE
8
медь верх
10
-10.229
20
-18.930
11
-10.150
21
-18.967
0
LINE
8
медь верх
10
-10.150
20
-18.967
11
-10.079
21
-19.017
0
LINE
8
медь верх
10
-10.079
20
-19.017
11
-10.017
21
-19.079
0
LINE
8
медь верх
10
-10.017
20
-19.079
11
-9.967
21
-19.150
0
LINE
8
медь верх
10
-9.967
20
-19.150
11
-9.930
21
-19.229
0
LINE
8
медь верх
10
-9.930
20
-19.229
11
-9.908
21
-19.313
0
LINE
8
медь верх
10
-9.908
20
-19.313
11
-9.900
21
-19.400
0
LINE
8
медь верх
10
-9.900
20
-19.400
11
-9.908
21
-19.487
0
LINE
8
медь верх
10
-9.908
20
-19.487
11
-9.930
21
-19.571
0
LINE
8
медь верх
10
-9.930
20
-19.571
11
-9.967
21
-19.650
0
LINE
8
медь верх
10
-9.967
20
-19.650
11
-10.017
21
-19.721
0
LINE
8
медь верх
10
-10.017
20
-19.721
11
-10.079
21
-19.783
0
LINE
8
медь верх
10
-10.079
20
-19.783
11
-10.150
21
-19.833
0
LINE
8
медь верх
10
-10.150
20
-19.833
11
-10.229
21
-19.870
0
LINE
8
медь верх
10
-10.229
20
-19.870
11
-10.313
21
-19.892
0
LINE
8
медь верх
10
-10.313
20
-19.892
11
-10.400
21
-19.900
0
LINE
8
медь верх
10
-10.400
20
-19.900
11
-10.487
21
-19.892
0
LINE
8
медь верх
10
-10.487
20
-19.892
11
-10.571
21
-19.870
0
LINE
8
медь верх
10
-10.571
20
-19.870
11
-10.650
21
-19.833
0
LINE
8
медь верх
10
-10.650
20
-19.833
11
-10.721
21
-19.783
0
LINE
8
медь верх
10
-10.721
20
-19.783
11
-10.783
21
-19.721
0
LINE
8
медь верх
10
-10.783
20
-19.721
11
-10.833
21
-19.650
0
LINE
8
медь верх
10
-10.833
20
-19.650
11
-10.870
21
-19.571
0
LINE
8
медь верх
10
-10.870
20
-19.571
11
-10.892
21
-19.487
0
LINE
8
медь верх
10
-10.892
20
-19.487
11
-10.900
21
-19.400
0
LINE
8
медь верх
10
-10.900
20
-21.900
11
-10.892
21
-21.813
0
LINE
8
медь верх
10
-10.892
20
-21.813
11
-10.870
21
-21.729
0
LINE
8
медь верх
10
-10.870
20
-21.729
11
-10.833
21
-21.650
0
LINE
8
медь верх
10
-10.833
20
-21.650
11
-10.783
21
-21.579
0
LINE
8
медь верх
10
-10.783
20
-21.579
11
-10.721
21
-21.517
0
LINE
8
медь верх
10
-10.721
20
-21.517
11
-10.650
21
-21.467
0
LINE
8
медь верх
10
-10.650
20
-21.467
11
-10.571
21
-21.430
0
LINE
8
медь верх
10
-10.571
20
-21.430
11
-10.487
21
-21.408
0
LINE
8
медь верх
10
-10.487
20
-21.408
11
-10.400
21
-21.400
0
LINE
8
медь верх
10
-10.400
20
-21.400
11
-10.313
21
-21.408
0
LINE
8
медь верх
10
-10.313
20
-21.408
11
-10.229
21
-21.430
0
LINE
8
медь верх
10
-10.229
20
-21.430
11
-10.150
21
-21.467
0
LINE
8
медь верх
10
-10.150
20
-21.467
11
-10.079
21
-21.517
0
LINE
8
медь верх
10
-10.079
20
-21.517
11
-10.017
21
-21.579
0
LINE
8
медь верх
10
-10.017
20
-21.579
11
-9.967
21
-21.650
0
LINE
8
медь верх
10
-9.967
20
-21.650
11
-9.930
21
-21.729
0
LINE
8
медь верх
10
-9.930
20
-21.729
11
-9.908
21
-21.813
0
LINE
8
медь верх
10
-9.908
20
-21.813
11
-9.900
21
-21.900
0
LINE
8
медь верх
10
-9.900
20
-21.900
11
-9.908
21
-21.987
0
LINE
8
медь верх
10
-9.908
20
-21.987
11
-9.930
21
-22.071
0
LINE
8
медь верх
10
-9.930
20
-22.071
11
-9.967
21
-22.150
0
LINE
8
медь верх
10
-9.967
20
-22.150
11
-10.017
21
-22.221
0
LINE
8
медь верх
10
-10.017
20
-22.221
11
-10.079
21
-22.283
0
LINE
8
медь верх
10
-10.079
20
-22.283
11
-10.150
21
-22.333
0
LINE
8
медь верх
10
-10.150
20
-22.333
11
-10.229
21
-22.370
0
LINE
8
медь верх
10
-10.229
20
-22.370
11
-10.313
21
-22.392
0
LINE
8
медь верх
10
-10.313
20
-22.392
11
-10.400
21
-22.400
0
LINE
8
медь верх
10
-10.400
20
-22.400
11
-10.487
21
-22.392
0
LINE
8
медь верх
10
-10.487
20
-22.392
11
-10.571
21
-22.370
0
LINE
8
медь верх
10
-10.571
20
-22.370
11
-10.650
21
-22.333
0
LINE
8
медь верх
10
-10.650
20
-22.333
11
-10.721
21
-22.283
0
LINE
8
медь верх
10
-10.721
20
-22.283
11
-10.783
21
-22.221
0
LINE
8
медь верх
10
-10.783
20
-22.221
11
-10.833
21
-22.150
0
LINE
8
медь верх
10
-10.833
20
-22.150
11
-10.870
21
-22.071
0
LINE
8
медь верх
10
-10.870
20
-22.071
11
-10.892
21
-21.987
0
LINE
8
медь верх
10
-10.892
20
-21.987
11
-10.900
21
-21.900
0
LINE
8
медь верх
10
-6.980
20
-21.900
11
-6.976
21
-21.857
0
LINE
8
медь верх
10
-6.976
20
-21.857
11
-6.965
21
-21.814
0
LINE
8
медь верх
10
-6.965
20
-21.814
11
-6.946
21
-21.775
0
LINE
8
медь верх
10
-6.946
20
-21.775
11
-6.921
21
-21.739
0
LINE
8
медь верх
10
-6.921
20
-21.739
11
-6.891
21
-21.708
0
LINE
8
медь верх
10
-6.891
20
-21.708
11
-6.855
21
-21.683
0
LINE
8
медь верх
10
-6.855
20
-21.683
11
-6.815
21
-21.665
0
LINE
8
медь верх
10
-6.815
20
-21.665
11
-6.773
21
-21.654
0
LINE
8
медь верх
10
-6.773
20
-21.654
11
-6.730
21
-21.650
0
LINE
8
медь верх
10
-6.730
20
-21.650
11
-6.686
21
-21.654
0
LINE
8
медь верх
10
-6.686
20
-21.654
11
-6.644
21
-21.665
0
LINE
8
медь верх
10
-6.644
20
-21.665
11
-6.605
21
-21.683
0
LINE
8
медь верх
10
-6.605
20
-21.683
11
-6.569
21
-21.708
0
LINE
8
медь верх
10
-6.569
20
-21.708
11
-6.538
21
-21.739
0
LINE
8
медь верх
10
-6.538
20
-21.739
11
-6.513
21
-21.775
0
LINE
8
медь верх
10
-6.513
20
-21.775
11
-6.495
21
-21.814
0
LINE
8
медь верх
10
-6.495
20
-21.814
11
-6.484
21
-21.857
0
LINE
8
медь верх
10
-6.484
20
-21.857
11
-6.480
21
-21.900
0
LINE
8
медь верх
10
-6.480
20
-21.900
11
-6.484
21
-21.943
0
LINE
8
медь верх
10
-6.484
20
-21.943
11
-6.495
21
-21.986
0
LINE
8
медь верх
10
-6.495
20
-21.986
11
-6.513
21
-22.025
0
LINE
8
медь верх
10
-6.513
20
-22.025
11
-6.538
21
-22.061
0
LINE
8
медь верх
10
-6.538
20
-22.061
11
-6.569
21
-22.092
0
LINE
8
медь верх
10
-6.569
20
-22.092
11
-6.605
21
-22.117
0
LINE
8
медь верх
10
-6.605
20
-22.117
11
-6.644
21
-22.135
0
LINE
8
медь верх
10
-6.644
20
-22.135
11
-6.686
21
-22.146
0
LINE
8
медь верх
10
-6.686
20
-22.146
11
-6.730
21
-22.150
0
LINE
8
медь верх
10
-6.730
20
-22.150
11
-6.773
21
-22.146
0
LINE
8
медь верх
10
-6.773
20
-22.146
11
-6.815
21
-22.135
0
LINE
8
медь верх
10
-6.815
20
-22.135
11
-6.855
21
-22.117
0
LINE
8
медь верх
10
-6.855
20
-22.117
11
-6.891
21
-22.092
0
LINE
8
медь верх
10
-6.891
20
-22.092
11
-6.921
21
-22.061
0
LINE
8
медь верх
10
-6.921
20
-22.061
11
-6.946
21
-22.025
0
LINE
8
медь верх
10
-6.946
20
-22.025
11
-6.965
21
-21.986
0
LINE
8
медь верх
10
-6.965
20
-21.986
11
-6.976
21
-21.943
0
LINE
8
медь верх
10
-6.976
20
-21.943
11
-6.980
21
-21.900
0
LINE
8
медь верх
10
-10.496
20
-15.049
11
-10.492
21
-15.005
0
LINE
8
медь верх
10
-10.492
20
-15.005
11
-10.481
21
-14.963
0
LINE
8
медь верх
10
-10.481
20
-14.963
11
-10.462
21
-14.924
0
LINE
8
медь верх
10
-10.462
20
-14.924
11
-10.437
21
-14.888
0
LINE
8
медь верх
10
-10.437
20
-14.888
11
-10.407
21
-14.857
0
LINE
8
медь верх
10
-10.407
20
-14.857
11
-10.371
21
-14.832
0
LINE
8
медь верх
10
-10.371
20
-14.832
11
-10.331
21
-14.814
0
LINE
8
медь верх
10
-10.331
20
-14.814
11
-10.289
21
-14.803
0
LINE
8
медь верх
10
-10.289
20
-14.803
11
-10.246
21
-14.799
0
LINE
8
медь верх
10
-10.246
20
-14.799
11
-10.202
21
-14.803
0
LINE
8
медь верх
10
-10.202
20
-14.803
11
-10.160
21
-14.814
0
LINE
8
медь верх
10
-10.160
20
-14.814
11
-10.121
21
-14.832
0
LINE
8
медь верх
10
-10.121
20
-14.832
11
-10.085
21
-14.857
0
LINE
8
медь верх
10
-10.085
20
-14.857
11
-10.054
21
-14.888
0
LINE
8
медь верх
10
-10.054
20
-14.888
11
-10.029
21
-14.924
0
LINE
8
медь верх
10
-10.029
20
-14.924
11
-10.011
21
-14.963
0
LINE
8
медь верх
10
-10.011
20
-14.963
11
-10.000
21
-15.005
0
LINE
8
медь верх
10
-10.000
20
-15.005
11
-9.996
21
-15.049
0
LINE
8
медь верх
10
-9.996
20
-15.049
11
-10.000
21
-15.092
0
LINE
8
медь верх
10
-10.000
20
-15.092
11
-10.011
21
-15.134
0
LINE
8
медь верх
10
-10.011
20
-15.134
11
-10.029
21
-15.174
0
LINE
8
медь верх
10
-10.029
20
-15.174
11
-10.054
21
-15.210
0
LINE
8
медь верх
10
-10.054
20
-15.210
11
-10.085
21
-15.240
0
LINE
8
медь верх
10
-10.085
20
-15.240
11
-10.121
21
-15.265
0
LINE
8
медь верх
10
-10.121
20
-15.265
11
-10.160
21
-15.284
0
LINE
8
медь верх
10
-10.160
20
-15.284
11
-10.202
21
-15.295
0
LINE
8
медь верх
10
-10.202
20
-15.295
11
-10.246
21
-15.299
0
LINE
8
медь верх
10
-10.246
20
-15.299
11
-10.289
21
-15.295
0
LINE
8
медь верх
10
-10.289
20
-15.295
11
-10.331
21
-15.284
0
LINE
8
медь верх
10
-10.331
20
-15.284
11
-10.371
21
-15.265
0
LINE
8
медь верх
10
-10.371
20
-15.265
11
-10.407
21
-15.240
0
LINE
8
медь верх
10
-10.407
20
-15.240
11
-10.437
21
-15.210
0
LINE
8
медь верх
10
-10.437
20
-15.210
11
-10.462
21
-15.174
0
LINE
8
медь верх
10
-10.462
20
-15.174
11
-10.481
21
-15.134
0
LINE
8
медь верх
10
-10.481
20
-15.134
11
-10.492
21
-15.092
0
LINE
8
медь верх
10
-10.492
20
-15.092
11
-10.496
21
-15.049
0
LINE
8
медь верх
10
9.589
20
-15.049
11
9.592
21
-15.005
0
LINE
8
медь верх
10
9.592
20
-15.005
11
9.604
21
-14.963
0
LINE
8
медь верх
10
9.604
20
-14.963
11
9.622
21
-14.924
0
LINE
8
медь верх
10
9.622
20
-14.924
11
9.647
21
-14.888
0
LINE
8
медь верх
10
9.647
20
-14.888
11
9.678
21
-14.857
0
LINE
8
медь верх
10
9.678
20
-14.857
11
9.714
21
-14.832
0
LINE
8
медь верх
10
9.714
20
-14.832
11
9.753
21
-14.814
0
LINE
8
медь верх
10
9.753
20
-14.814
11
9.795
21
-14.803
0
LINE
8
медь верх
10
9.795
20
-14.803
11
9.839
21
-14.799
0
LINE
8
медь верх
10
9.839
20
-14.799
11
9.882
21
-14.803
0
LINE
8
медь верх
10
9.882
20
-14.803
11
9.924
21
-14.814
0
LINE
8
медь верх
10
9.924
20
-14.814
11
9.964
21
-14.832
0
LINE
8
медь верх
10
9.964
20
-14.832
11
9.999
21
-14.857
0
LINE
8
медь верх
10
9.999
20
-14.857
11
10.030
21
-14.888
0
LINE
8
медь верх
10
10.030
20
-14.888
11
10.055
21
-14.924
0
LINE
8
медь верх
10
10.055
20
-14.924
11
10.073
21
-14.963
0
LINE
8
медь верх
10
10.073
20
-14.963
11
10.085
21
-15.005
0
LINE
8
медь верх
10
10.085
20
-15.005
11
10.089
21
-15.049
0
LINE
8
медь верх
10
10.089
20
-15.049
11
10.085
21
-15.092
0
LINE
8
медь верх
10
10.085
20
-15.092
11
10.073
21
-15.134
0
LINE
8
медь верх
10
10.073
20
-15.134
11
10.055
21
-15.174
0
LINE
8
медь верх
10
10.055
20
-15.174
11
10.030
21
-15.210
0
LINE
8
медь верх
10
10.030
20
-15.210
11
9.999
21
-15.240
0
LINE
8
медь верх
10
9.999
20
-15.240
11
9.964
21
-15.265
0
LINE
8
медь верх
10
9.964
20
-15.265
11
9.924
21
-15.284
0
LINE
8
медь верх
10
9.924
20
-15.284
11
9.882
21
-15.295
0
LINE
8
медь верх
10
9.882
20
-15.295
11
9.839
21
-15.299
0
LINE
8
медь верх
10
9.839
20
-15.299
11
9.795
21
-15.295
0
LINE
8
медь верх
10
9.795
20
-15.295
11
9.753
21
-15.284
0
LINE
8
медь верх
10
9.753
20
-15.284
11
9.714
21
-15.265
0
LINE
8
медь верх
10
9.714
20
-15.265
11
9.678
21
-15.240
0
LINE
8
медь верх
10
9.678
20
-15.240
11
9.647
21
-15.210
0
LINE
8
медь верх
10
9.647
20
-15.210
11
9.622
21
-15.174
0
LINE
8
медь верх
10
9.622
20
-15.174
11
9.604
21
-15.134
0
LINE
8
медь верх
10
9.604
20
-15.134
11
9.592
21
-15.092
0
LINE
8
медь верх
10
9.592
20
-15.092
11
9.589
21
-15.049
0
ENDSEC
0
EOF
