0
SECTION
2
ENTITIES
0
LINE
8
медь верх
10
6.813
20
-15.889
11
5.865
21
-15.889
0
LINE
8
медь верх
10
5.865
20
-15.889
11
5.865
21
-15.341
0
LINE
8
медь верх
10
5.865
20
-15.341
11
6.813
21
-15.341
0
LINE
8
медь верх
10
6.813
20
-15.341
11
6.813
21
-15.889
0
LINE
8
медь верх
10
5.865
20
-15.879
11
6.812
21
-15.879
0
LINE
8
медь верх
10
5.865
20
-15.838
11
6.812
21
-15.838
0
LINE
8
медь верх
10
5.865
20
-15.799
11
6.812
21
-15.799
0
LINE
8
медь верх
10
5.865
20
-15.758
11
6.812
21
-15.758
0
LINE
8
медь верх
10
5.865
20
-15.718
11
6.812
21
-15.718
0
LINE
8
медь верх
10
5.865
20
-15.677
11
6.812
21
-15.677
0
LINE
8
медь верх
10
5.865
20
-15.638
11
6.812
21
-15.638
0
LINE
8
медь верх
10
5.865
20
-15.597
11
6.812
21
-15.597
0
LINE
8
медь верх
10
5.865
20
-15.556
11
6.812
21
-15.556
0
LINE
8
медь верх
10
5.865
20
-15.517
11
6.812
21
-15.517
0
LINE
8
медь верх
10
5.865
20
-15.476
11
6.812
21
-15.476
0
LINE
8
медь верх
10
5.865
20
-15.436
11
6.812
21
-15.436
0
LINE
8
медь верх
10
5.865
20
-15.396
11
6.812
21
-15.396
0
LINE
8
медь верх
10
5.865
20
-15.356
11
6.812
21
-15.356
0
LINE
8
медь верх
10
-5.988
20
-18.437
11
-6.163
21
-18.612
0
LINE
8
медь верх
10
-6.163
20
-18.612
11
-6.433
21
-18.612
0
LINE
8
медь верх
10
-6.433
20
-18.612
11
-6.433
21
-18.466
0
LINE
8
медь верх
10
-6.433
20
-18.466
11
-6.242
21
-18.466
0
LINE
8
медь верх
10
-6.242
20
-18.466
11
-6.134
21
-18.358
0
LINE
8
медь верх
10
-6.134
20
-18.358
11
-6.134
21
-18.218
0
LINE
8
медь верх
10
-6.134
20
-18.218
11
-5.988
21
-18.218
0
LINE
8
медь верх
10
-5.988
20
-18.218
11
-5.988
21
-18.437
0
LINE
8
медь верх
10
-6.151
20
-18.600
11
-6.433
21
-18.600
0
LINE
8
медь верх
10
-6.110
20
-18.560
11
-6.433
21
-18.560
0
LINE
8
медь верх
10
-6.071
20
-18.519
11
-6.433
21
-18.519
0
LINE
8
медь верх
10
-6.030
20
-18.480
11
-6.433
21
-18.480
0
LINE
8
медь верх
10
-5.989
20
-18.439
11
-6.214
21
-18.439
0
LINE
8
медь верх
10
-6.175
20
-18.398
11
-5.987
21
-18.398
0
LINE
8
медь верх
10
-6.134
20
-18.358
11
-5.987
21
-18.358
0
LINE
8
медь верх
10
-6.133
20
-18.318
11
-5.987
21
-18.318
0
LINE
8
медь верх
10
-6.133
20
-18.278
11
-5.987
21
-18.278
0
LINE
8
медь верх
10
-6.133
20
-18.237
11
-5.987
21
-18.237
0
LINE
8
медь верх
10
-7.187
20
-18.358
11
-7.078
21
-18.466
0
LINE
8
медь верх
10
-7.078
20
-18.466
11
-6.888
21
-18.466
0
LINE
8
медь верх
10
-6.888
20
-18.466
11
-6.888
21
-18.612
0
LINE
8
медь верх
10
-6.888
20
-18.612
11
-7.157
21
-18.612
0
LINE
8
медь верх
10
-7.157
20
-18.612
11
-7.333
21
-18.437
0
LINE
8
медь верх
10
-7.333
20
-18.437
11
-7.333
21
-18.218
0
LINE
8
медь верх
10
-7.333
20
-18.218
11
-7.187
21
-18.218
0
LINE
8
медь верх
10
-7.187
20
-18.218
11
-7.187
21
-18.358
0
LINE
8
медь верх
10
-6.887
20
-18.600
11
-7.168
21
-18.600
0
LINE
8
медь верх
10
-6.887
20
-18.560
11
-7.209
21
-18.560
0
LINE
8
медь верх
10
-6.887
20
-18.519
11
-7.249
21
-18.519
0
LINE
8
медь верх
10
-6.887
20
-18.480
11
-7.289
21
-18.480
0
LINE
8
медь верх
10
-7.104
20
-18.439
11
-7.329
21
-18.439
0
LINE
8
медь верх
10
-7.145
20
-18.398
11
-7.332
21
-18.398
0
LINE
8
медь верх
10
-7.184
20
-18.359
11
-7.332
21
-18.359
0
LINE
8
медь верх
10
-7.332
20
-18.318
11
-7.186
21
-18.318
0
LINE
8
медь верх
10
-7.332
20
-18.278
11
-7.186
21
-18.278
0
LINE
8
медь верх
10
-7.332
20
-18.237
11
-7.186
21
-18.237
0
LINE
8
медь верх
10
6.813
20
-18.839
11
5.865
21
-18.839
0
LINE
8
медь верх
10
5.865
20
-18.839
11
5.865
21
-18.289
0
LINE
8
медь верх
10
5.865
20
-18.289
11
6.813
21
-18.289
0
LINE
8
медь верх
10
6.813
20
-18.289
11
6.813
21
-18.839
0
LINE
8
медь верх
10
5.865
20
-18.799
11
6.812
21
-18.799
0
LINE
8
медь верх
10
5.865
20
-18.758
11
6.812
21
-18.758
0
LINE
8
медь верх
10
5.865
20
-18.719
11
6.812
21
-18.719
0
LINE
8
медь верх
10
5.865
20
-18.678
11
6.812
21
-18.678
0
LINE
8
медь верх
10
5.865
20
-18.637
11
6.812
21
-18.637
0
LINE
8
медь верх
10
5.865
20
-18.598
11
6.812
21
-18.598
0
LINE
8
медь верх
10
5.865
20
-18.557
11
6.812
21
-18.557
0
LINE
8
медь верх
10
5.865
20
-18.517
11
6.812
21
-18.517
0
LINE
8
медь верх
10
5.865
20
-18.477
11
6.812
21
-18.477
0
LINE
8
медь верх
10
5.865
20
-18.437
11
6.812
21
-18.437
0
LINE
8
медь верх
10
5.865
20
-18.396
11
6.812
21
-18.396
0
LINE
8
медь верх
10
5.865
20
-18.357
11
6.812
21
-18.355
0
LINE
8
медь верх
10
5.865
20
-18.316
11
6.812
21
-18.316
0
LINE
8
медь верх
10
-1.628
20
-19.218
11
-1.628
21
-19.232
0
LINE
8
медь верх
10
-1.628
20
-19.232
11
-1.908
21
-19.512
0
LINE
8
медь верх
10
-1.908
20
-19.512
11
-2.672
21
-19.512
0
LINE
8
медь верх
10
-2.672
20
-19.512
11
-2.672
21
-19.367
0
LINE
8
медь верх
10
-2.672
20
-19.367
11
-1.981
21
-19.367
0
LINE
8
медь верх
10
-1.981
20
-19.367
11
-1.831
21
-19.218
0
LINE
8
медь верх
10
-1.831
20
-19.218
11
-1.628
21
-19.218
0
LINE
8
медь верх
10
-1.875
20
-19.479
11
-2.672
21
-19.479
0
LINE
8
медь верх
10
-1.835
20
-19.440
11
-2.672
21
-19.440
0
LINE
8
медь верх
10
-1.795
20
-19.399
11
-2.672
21
-19.399
0
LINE
8
медь верх
10
-1.754
20
-19.359
11
-1.972
21
-19.359
0
LINE
8
медь верх
10
-1.714
20
-19.318
11
-1.932
21
-19.318
0
LINE
8
медь верх
10
-1.674
20
-19.279
11
-1.892
21
-19.279
0
LINE
8
медь верх
10
-1.633
20
-19.238
11
-1.852
21
-19.238
0
LINE
8
медь верх
10
-3.819
20
-19.367
11
-3.128
21
-19.367
0
LINE
8
медь верх
10
-3.128
20
-19.367
11
-3.128
21
-19.512
0
LINE
8
медь верх
10
-3.128
20
-19.512
11
-3.892
21
-19.512
0
LINE
8
медь верх
10
-3.892
20
-19.512
11
-4.172
21
-19.232
0
LINE
8
медь верх
10
-4.172
20
-19.232
11
-4.172
21
-19.218
0
LINE
8
медь верх
10
-4.172
20
-19.218
11
-3.969
21
-19.218
0
LINE
8
медь верх
10
-3.969
20
-19.218
11
-3.819
21
-19.367
0
LINE
8
медь верх
10
-3.127
20
-19.479
11
-3.923
21
-19.479
0
LINE
8
медь верх
10
-3.127
20
-19.440
11
-3.964
21
-19.440
0
LINE
8
медь верх
10
-3.127
20
-19.399
11
-4.004
21
-19.399
0
LINE
8
медь верх
10
-4.044
20
-19.359
11
-3.827
21
-19.359
0
LINE
8
медь верх
10
-4.084
20
-19.319
11
-3.866
21
-19.319
0
LINE
8
медь верх
10
-4.125
20
-19.279
11
-3.907
21
-19.279
0
LINE
8
медь верх
10
-4.166
20
-19.238
11
-3.947
21
-19.238
0
LINE
8
медь верх
10
-11.431
20
-22.359
11
-10.859
21
-22.931
0
LINE
8
медь верх
10
-10.859
20
-22.931
11
-10.628
21
-22.931
0
LINE
8
медь верх
10
-10.628
20
-22.931
11
-10.628
21
-23.072
0
LINE
8
медь верх
10
-10.628
20
-23.072
11
-10.911
21
-23.072
0
LINE
8
медь верх
10
-10.911
20
-23.072
11
-11.572
21
-22.411
0
LINE
8
медь верх
10
-11.572
20
-22.411
11
-11.572
21
-22.128
0
LINE
8
медь верх
10
-11.572
20
-22.128
11
-11.431
21
-22.128
0
LINE
8
медь верх
10
-11.431
20
-22.128
11
-11.431
21
-22.359
0
LINE
8
медь верх
10
-10.627
20
-23.040
11
-10.942
21
-23.040
0
LINE
8
медь верх
10
-10.627
20
-23.000
11
-10.982
21
-23.000
0
LINE
8
медь верх
10
-10.627
20
-22.960
11
-11.022
21
-22.960
0
LINE
8
медь верх
10
-10.870
20
-22.920
11
-11.063
21
-22.920
0
LINE
8
медь верх
10
-10.909
20
-22.879
11
-11.104
21
-22.879
0
LINE
8
медь верх
10
-10.950
20
-22.840
11
-11.143
21
-22.840
0
LINE
8
медь верх
10
-10.991
20
-22.799
11
-11.184
21
-22.799
0
LINE
8
медь верх
10
-11.030
20
-22.758
11
-11.224
21
-22.758
0
LINE
8
медь верх
10
-11.071
20
-22.719
11
-11.264
21
-22.719
0
LINE
8
медь верх
10
-11.111
20
-22.678
11
-11.304
21
-22.678
0
LINE
8
медь верх
10
-11.151
20
-22.638
11
-11.345
21
-22.638
0
LINE
8
медь верх
10
-11.191
20
-22.597
11
-11.384
21
-22.597
0
LINE
8
медь верх
10
-11.232
20
-22.558
11
-11.425
21
-22.558
0
LINE
8
медь верх
10
-11.271
20
-22.517
11
-11.466
21
-22.517
0
LINE
8
медь верх
10
-11.312
20
-22.476
11
-11.505
21
-22.476
0
LINE
8
медь верх
10
-11.353
20
-22.437
11
-11.546
21
-22.437
0
LINE
8
медь верх
10
-11.393
20
-22.396
11
-11.572
21
-22.396
0
LINE
8
медь верх
10
-11.572
20
-22.356
11
-11.430
21
-22.356
0
LINE
8
медь верх
10
-11.572
20
-22.316
11
-11.430
21
-22.316
0
LINE
8
медь верх
10
-11.572
20
-22.276
11
-11.430
21
-22.276
0
LINE
8
медь верх
10
-11.572
20
-22.235
11
-11.430
21
-22.235
0
LINE
8
медь верх
10
-11.572
20
-22.196
11
-11.430
21
-22.196
0
LINE
8
медь верх
10
-11.572
20
-22.155
11
-11.430
21
-22.155
0
LINE
8
медь верх
10
-9.228
20
-22.411
11
-9.889
21
-23.072
0
LINE
8
медь верх
10
-9.889
20
-23.072
11
-10.172
21
-23.072
0
LINE
8
медь верх
10
-10.172
20
-23.072
11
-10.172
21
-22.931
0
LINE
8
медь верх
10
-10.172
20
-22.931
11
-9.941
21
-22.931
0
LINE
8
медь верх
10
-9.941
20
-22.931
11
-9.369
21
-22.359
0
LINE
8
медь верх
10
-9.369
20
-22.359
11
-9.369
21
-22.130
0
LINE
8
медь верх
10
-9.369
20
-22.130
11
-9.228
21
-22.130
0
LINE
8
медь верх
10
-9.228
20
-22.130
11
-9.228
21
-22.411
0
LINE
8
медь верх
10
-9.856
20
-23.040
11
-10.171
21
-23.040
0
LINE
8
медь верх
10
-9.816
20
-23.000
11
-10.171
21
-23.000
0
LINE
8
медь верх
10
-9.776
20
-22.960
11
-10.171
21
-22.960
0
LINE
8
медь верх
10
-9.736
20
-22.920
11
-9.929
21
-22.920
0
LINE
8
медь верх
10
-9.695
20
-22.879
11
-9.889
21
-22.879
0
LINE
8
медь верх
10
-9.656
20
-22.840
11
-9.849
21
-22.840
0
LINE
8
медь верх
10
-9.615
20
-22.799
11
-9.808
21
-22.799
0
LINE
8
медь верх
10
-9.575
20
-22.758
11
-9.769
21
-22.758
0
LINE
8
медь верх
10
-9.535
20
-22.718
11
-9.728
21
-22.718
0
LINE
8
медь верх
10
-9.495
20
-22.678
11
-9.688
21
-22.678
0
LINE
8
медь верх
10
-9.454
20
-22.638
11
-9.647
21
-22.638
0
LINE
8
медь верх
10
-9.413
20
-22.597
11
-9.608
21
-22.597
0
LINE
8
медь верх
10
-9.374
20
-22.558
11
-9.567
21
-22.558
0
LINE
8
медь верх
10
-9.333
20
-22.517
11
-9.526
21
-22.517
0
LINE
8
медь верх
10
-9.293
20
-22.476
11
-9.487
21
-22.476
0
LINE
8
медь верх
10
-9.253
20
-22.437
11
-9.446
21
-22.437
0
LINE
8
медь верх
10
-9.406
20
-22.396
11
-9.227
21
-22.396
0
LINE
8
медь верх
10
-9.369
20
-22.356
11
-9.227
21
-22.356
0
LINE
8
медь верх
10
-9.369
20
-22.315
11
-9.227
21
-22.315
0
LINE
8
медь верх
10
-9.369
20
-22.276
11
-9.227
21
-22.276
0
LINE
8
медь верх
10
-9.369
20
-22.235
11
-9.227
21
-22.235
0
LINE
8
медь верх
10
-9.369
20
-22.195
11
-9.227
21
-22.195
0
LINE
8
медь верх
10
-9.369
20
-22.155
11
-9.227
21
-22.155
0
LINE
8
медь верх
10
12.472
20
-23.972
11
-12.472
21
-23.972
0
LINE
8
медь верх
10
-12.472
20
-23.972
11
-12.472
21
-12.575
0
LINE
8
медь верх
10
-12.472
20
-12.575
11
12.472
21
-12.575
0
LINE
8
медь верх
10
12.472
20
-12.575
11
12.472
21
-23.972
0
LINE
8
медь верх
10
-0.486
20
-14.170
11
-0.486
21
-14.170
0
LINE
8
медь верх
10
-0.486
20
-14.170
11
-0.486
21
-14.170
0
LINE
8
медь верх
10
-0.486
20
-14.170
11
-5.573
21
-14.170
0
LINE
8
медь верх
10
-5.573
20
-14.170
11
-5.622
21
-14.180
0
LINE
8
медь верх
10
-5.622
20
-14.180
11
-5.643
21
-14.194
0
LINE
8
медь верх
10
-5.643
20
-14.194
11
-5.663
21
-14.208
0
LINE
8
медь верх
10
-5.663
20
-14.208
11
-6.230
21
-14.774
0
LINE
8
медь верх
10
-6.230
20
-14.774
11
-6.247
21
-14.799
0
LINE
8
медь верх
10
-6.247
20
-14.799
11
-6.258
21
-14.815
0
LINE
8
медь верх
10
-6.258
20
-14.815
11
-6.258
21
-14.816
0
LINE
8
медь верх
10
-6.258
20
-14.816
11
-6.258
21
-14.816
0
LINE
8
медь верх
10
-6.258
20
-14.816
11
-6.264
21
-14.848
0
LINE
8
медь верх
10
-6.264
20
-14.848
11
-6.267
21
-14.864
0
LINE
8
медь верх
10
-6.267
20
-14.864
11
-6.267
21
-14.864
0
LINE
8
медь верх
10
-6.267
20
-14.864
11
-6.267
21
-14.864
0
LINE
8
медь верх
10
-6.267
20
-14.864
11
-6.267
21
-14.864
0
LINE
8
медь верх
10
-6.267
20
-14.864
11
-6.267
21
-15.635
0
LINE
8
медь верх
10
-6.267
20
-15.635
11
-6.267
21
-15.635
0
LINE
8
медь верх
10
-6.267
20
-15.635
11
-6.267
21
-15.636
0
LINE
8
медь верх
10
-6.267
20
-15.636
11
-6.261
21
-15.669
0
LINE
8
медь верх
10
-6.261
20
-15.669
11
-6.258
21
-15.684
0
LINE
8
медь верх
10
-6.258
20
-15.684
11
-6.258
21
-15.684
0
LINE
8
медь верх
10
-6.258
20
-15.684
11
-6.258
21
-15.684
0
LINE
8
медь верх
10
-6.258
20
-15.684
11
-6.241
21
-15.710
0
LINE
8
медь верх
10
-6.241
20
-15.710
11
-6.230
21
-15.726
0
LINE
8
медь верх
10
-6.230
20
-15.726
11
-6.230
21
-15.726
0
LINE
8
медь верх
10
-6.230
20
-15.726
11
-6.230
21
-15.726
0
LINE
8
медь верх
10
-6.230
20
-15.726
11
-6.208
21
-15.741
0
LINE
8
медь верх
10
-6.208
20
-15.741
11
-6.189
21
-15.753
0
LINE
8
медь верх
10
-6.189
20
-15.753
11
-6.189
21
-15.753
0
LINE
8
медь верх
10
-6.189
20
-15.753
11
-6.189
21
-15.753
0
LINE
8
медь верх
10
-6.189
20
-15.753
11
-6.164
21
-15.758
0
LINE
8
медь верх
10
-6.164
20
-15.758
11
-6.140
21
-15.763
0
LINE
8
медь верх
10
-6.140
20
-15.763
11
-6.140
21
-15.763
0
LINE
8
медь верх
10
-6.140
20
-15.763
11
-6.140
21
-15.763
0
LINE
8
медь верх
10
-6.140
20
-15.763
11
-6.131
21
-15.763
0
LINE
8
медь верх
10
-6.131
20
-15.763
11
-5.920
21
-15.974
0
LINE
8
медь верх
10
-5.920
20
-15.974
11
-5.896
21
-16.010
0
LINE
8
медь верх
10
-5.896
20
-16.010
11
-5.854
21
-16.038
0
LINE
8
медь верх
10
-5.854
20
-16.038
11
-5.805
21
-16.047
0
LINE
8
медь верх
10
-5.805
20
-16.047
11
-5.805
21
-16.047
0
LINE
8
медь верх
10
-5.805
20
-16.047
11
-4.168
21
-16.047
0
LINE
8
медь верх
10
-4.168
20
-16.047
11
-4.168
21
-16.047
0
LINE
8
медь верх
10
-4.168
20
-16.047
11
-4.168
21
-16.047
0
LINE
8
медь верх
10
-4.168
20
-16.047
11
-4.149
21
-16.044
0
LINE
8
медь верх
10
-4.149
20
-16.044
11
-4.120
21
-16.038
0
LINE
8
медь верх
10
-4.120
20
-16.038
11
-4.120
21
-16.038
0
LINE
8
медь верх
10
-4.120
20
-16.038
11
-4.111
21
-16.032
0
LINE
8
медь верх
10
-4.111
20
-16.032
11
-4.078
21
-16.010
0
LINE
8
медь верх
10
-4.078
20
-16.010
11
-4.078
21
-16.010
0
LINE
8
медь верх
10
-4.078
20
-16.010
11
-4.052
21
-15.984
0
LINE
8
медь верх
10
-4.052
20
-15.984
11
-4.052
21
-15.984
0
LINE
8
медь верх
10
-4.052
20
-15.984
11
-4.024
21
-15.942
0
LINE
8
медь верх
10
-4.024
20
-15.942
11
-4.016
21
-15.903
0
LINE
8
медь верх
10
-4.016
20
-15.903
11
-4.014
21
-15.893
0
LINE
8
медь верх
10
-4.014
20
-15.893
11
-4.014
21
-15.893
0
LINE
8
медь верх
10
-4.014
20
-15.893
11
-4.024
21
-15.845
0
LINE
8
медь верх
10
-4.024
20
-15.845
11
-4.043
21
-15.817
0
LINE
8
медь верх
10
-4.043
20
-15.817
11
-4.052
21
-15.803
0
LINE
8
медь верх
10
-4.052
20
-15.803
11
-4.052
21
-15.803
0
LINE
8
медь верх
10
-4.052
20
-15.803
11
-4.052
21
-15.803
0
LINE
8
медь верх
10
-4.052
20
-15.803
11
-4.093
21
-15.776
0
LINE
8
медь верх
10
-4.093
20
-15.776
11
-4.119
21
-15.770
0
LINE
8
медь верх
10
-4.119
20
-15.770
11
-4.226
21
-15.664
0
LINE
8
медь верх
10
-4.226
20
-15.664
11
-4.226
21
-14.716
0
LINE
8
медь верх
10
-4.226
20
-14.716
11
-4.124
21
-14.614
0
LINE
8
медь верх
10
-4.124
20
-14.614
11
-1.676
21
-14.614
0
LINE
8
медь верх
10
-1.676
20
-14.614
11
-1.574
21
-14.716
0
LINE
8
медь верх
10
-1.574
20
-14.716
11
-1.574
21
-15.664
0
LINE
8
медь верх
10
-1.574
20
-15.664
11
-1.681
21
-15.770
0
LINE
8
медь верх
10
-1.681
20
-15.770
11
-1.707
21
-15.776
0
LINE
8
медь верх
10
-1.707
20
-15.776
11
-1.748
21
-15.803
0
LINE
8
медь верх
10
-1.748
20
-15.803
11
-1.767
21
-15.831
0
LINE
8
медь верх
10
-1.767
20
-15.831
11
-1.776
21
-15.845
0
LINE
8
медь верх
10
-1.776
20
-15.845
11
-1.780
21
-15.866
0
LINE
8
медь верх
10
-1.780
20
-15.866
11
-1.786
21
-15.893
0
LINE
8
медь верх
10
-1.786
20
-15.893
11
-1.776
21
-15.942
0
LINE
8
медь верх
10
-1.776
20
-15.942
11
-1.748
21
-15.984
0
LINE
8
медь верх
10
-1.748
20
-15.984
11
-1.748
21
-15.984
0
LINE
8
медь верх
10
-1.748
20
-15.984
11
-1.572
21
-16.160
0
LINE
8
медь верх
10
-1.572
20
-16.160
11
-1.572
21
-16.720
0
LINE
8
медь верх
10
-1.572
20
-16.720
11
-1.852
21
-17.000
0
LINE
8
медь верх
10
-1.852
20
-17.000
11
-1.852
21
-17.000
0
LINE
8
медь верх
10
-1.852
20
-17.000
11
-1.870
21
-17.027
0
LINE
8
медь верх
10
-1.870
20
-17.027
11
-1.879
21
-17.041
0
LINE
8
медь верх
10
-1.879
20
-17.041
11
-1.887
21
-17.080
0
LINE
8
медь верх
10
-1.887
20
-17.080
11
-1.889
21
-17.090
0
LINE
8
медь верх
10
-1.889
20
-17.090
11
-1.889
21
-17.090
0
LINE
8
медь верх
10
-1.889
20
-17.090
11
-1.889
21
-17.090
0
LINE
8
медь верх
10
-1.889
20
-17.090
11
-1.879
21
-17.139
0
LINE
8
медь верх
10
-1.879
20
-17.139
11
-1.868
21
-17.155
0
LINE
8
медь верх
10
-1.868
20
-17.155
11
-1.852
21
-17.180
0
LINE
8
медь верх
10
-1.852
20
-17.180
11
-1.572
21
-17.460
0
LINE
8
медь верх
10
-1.572
20
-17.460
11
-1.572
21
-18.020
0
LINE
8
медь верх
10
-1.572
20
-18.020
11
-1.873
21
-18.322
0
LINE
8
медь верх
10
-1.873
20
-18.322
11
-1.873
21
-18.322
0
LINE
8
медь верх
10
-1.873
20
-18.322
11
-1.901
21
-18.363
0
LINE
8
медь верх
10
-1.901
20
-18.363
11
-1.911
21
-18.412
0
LINE
8
медь верх
10
-1.911
20
-18.412
11
-1.901
21
-18.461
0
LINE
8
медь верх
10
-1.901
20
-18.461
11
-1.885
21
-18.485
0
LINE
8
медь верх
10
-1.885
20
-18.485
11
-1.873
21
-18.502
0
LINE
8
медь верх
10
-1.873
20
-18.502
11
-1.628
21
-18.748
0
LINE
8
медь верх
10
-1.628
20
-18.748
11
-1.628
21
-18.762
0
LINE
8
медь верх
10
-1.628
20
-18.762
11
-1.831
21
-18.762
0
LINE
8
медь верх
10
-1.831
20
-18.762
11
-1.981
21
-18.613
0
LINE
8
медь верх
10
-1.981
20
-18.613
11
-3.819
21
-18.613
0
LINE
8
медь верх
10
-3.819
20
-18.613
11
-3.969
21
-18.762
0
LINE
8
медь верх
10
-3.969
20
-18.762
11
-4.172
21
-18.762
0
LINE
8
медь верх
10
-4.172
20
-18.762
11
-4.172
21
-18.748
0
LINE
8
медь верх
10
-4.172
20
-18.748
11
-3.927
21
-18.502
0
LINE
8
медь верх
10
-3.927
20
-18.502
11
-3.908
21
-18.474
0
LINE
8
медь верх
10
-3.908
20
-18.474
11
-3.899
21
-18.461
0
LINE
8
медь верх
10
-3.899
20
-18.461
11
-3.889
21
-18.412
0
LINE
8
медь верх
10
-3.889
20
-18.412
11
-3.899
21
-18.363
0
LINE
8
медь верх
10
-3.899
20
-18.363
11
-3.927
21
-18.322
0
LINE
8
медь верх
10
-3.927
20
-18.322
11
-3.927
21
-18.322
0
LINE
8
медь верх
10
-3.927
20
-18.322
11
-4.228
21
-18.020
0
LINE
8
медь верх
10
-4.228
20
-18.020
11
-4.228
21
-17.460
0
LINE
8
медь верх
10
-4.228
20
-17.460
11
-3.948
21
-17.180
0
LINE
8
медь верх
10
-3.948
20
-17.180
11
-3.932
21
-17.155
0
LINE
8
медь верх
10
-3.932
20
-17.155
11
-3.921
21
-17.139
0
LINE
8
медь верх
10
-3.921
20
-17.139
11
-3.911
21
-17.090
0
LINE
8
медь верх
10
-3.911
20
-17.090
11
-3.921
21
-17.041
0
LINE
8
медь верх
10
-3.921
20
-17.041
11
-3.937
21
-17.016
0
LINE
8
медь верх
10
-3.937
20
-17.016
11
-3.948
21
-17.000
0
LINE
8
медь верх
10
-3.948
20
-17.000
11
-3.948
21
-17.000
0
LINE
8
медь верх
10
-3.948
20
-17.000
11
-4.078
21
-16.870
0
LINE
8
медь верх
10
-4.078
20
-16.870
11
-4.078
21
-16.870
0
LINE
8
медь верх
10
-4.078
20
-16.870
11
-4.103
21
-16.853
0
LINE
8
медь верх
10
-4.103
20
-16.853
11
-4.120
21
-16.842
0
LINE
8
медь верх
10
-4.120
20
-16.842
11
-4.168
21
-16.833
0
LINE
8
медь верх
10
-4.168
20
-16.833
11
-5.806
21
-16.833
0
LINE
8
медь верх
10
-5.806
20
-16.833
11
-5.829
21
-16.837
0
LINE
8
медь верх
10
-5.829
20
-16.837
11
-5.854
21
-16.842
0
LINE
8
медь верх
10
-5.854
20
-16.842
11
-5.854
21
-16.842
0
LINE
8
медь верх
10
-5.854
20
-16.842
11
-5.854
21
-16.842
0
LINE
8
медь верх
10
-5.854
20
-16.842
11
-5.870
21
-16.853
0
LINE
8
медь верх
10
-5.870
20
-16.853
11
-5.896
21
-16.870
0
LINE
8
медь верх
10
-5.896
20
-16.870
11
-5.896
21
-16.870
0
LINE
8
медь верх
10
-5.896
20
-16.870
11
-5.896
21
-16.870
0
LINE
8
медь верх
10
-5.896
20
-16.870
11
-5.906
21
-16.886
0
LINE
8
медь верх
10
-5.906
20
-16.886
11
-5.920
21
-16.906
0
LINE
8
медь верх
10
-5.920
20
-16.906
11
-6.137
21
-17.123
0
LINE
8
медь верх
10
-6.137
20
-17.123
11
-6.155
21
-17.127
0
LINE
8
медь верх
10
-6.155
20
-17.127
11
-6.196
21
-17.154
0
LINE
8
медь верх
10
-6.196
20
-17.154
11
-6.224
21
-17.196
0
LINE
8
медь верх
10
-6.224
20
-17.196
11
-6.233
21
-17.244
0
LINE
8
медь верх
10
-6.233
20
-17.244
11
-6.224
21
-17.293
0
LINE
8
медь верх
10
-6.224
20
-17.293
11
-6.196
21
-17.335
0
LINE
8
медь верх
10
-6.196
20
-17.335
11
-5.988
21
-17.543
0
LINE
8
медь верх
10
-5.988
20
-17.543
11
-5.988
21
-17.762
0
LINE
8
медь верх
10
-5.988
20
-17.762
11
-6.134
21
-17.762
0
LINE
8
медь верх
10
-6.134
20
-17.762
11
-6.134
21
-17.622
0
LINE
8
медь верх
10
-6.134
20
-17.622
11
-6.242
21
-17.514
0
LINE
8
медь верх
10
-6.242
20
-17.514
11
-7.078
21
-17.514
0
LINE
8
медь верх
10
-7.078
20
-17.514
11
-7.187
21
-17.622
0
LINE
8
медь верх
10
-7.187
20
-17.622
11
-7.187
21
-17.762
0
LINE
8
медь верх
10
-7.187
20
-17.762
11
-7.333
21
-17.762
0
LINE
8
медь верх
10
-7.333
20
-17.762
11
-7.333
21
-17.543
0
LINE
8
медь верх
10
-7.333
20
-17.543
11
-7.124
21
-17.335
0
LINE
8
медь верх
10
-7.124
20
-17.335
11
-7.097
21
-17.293
0
LINE
8
медь верх
10
-7.097
20
-17.293
11
-7.087
21
-17.244
0
LINE
8
медь верх
10
-7.087
20
-17.244
11
-7.087
21
-17.244
0
LINE
8
медь верх
10
-7.087
20
-17.244
11
-7.097
21
-17.196
0
LINE
8
медь верх
10
-7.097
20
-17.196
11
-7.124
21
-17.154
0
LINE
8
медь верх
10
-7.124
20
-17.154
11
-7.166
21
-17.127
0
LINE
8
медь верх
10
-7.166
20
-17.127
11
-7.183
21
-17.123
0
LINE
8
медь верх
10
-7.183
20
-17.123
11
-7.400
21
-16.906
0
LINE
8
медь верх
10
-7.400
20
-16.906
11
-7.424
21
-16.870
0
LINE
8
медь верх
10
-7.424
20
-16.870
11
-7.466
21
-16.842
0
LINE
8
медь верх
10
-7.466
20
-16.842
11
-7.514
21
-16.833
0
LINE
8
медь верх
10
-7.514
20
-16.833
11
-9.269
21
-16.833
0
LINE
8
медь верх
10
-9.269
20
-16.833
11
-9.318
21
-16.842
0
LINE
8
медь верх
10
-9.318
20
-16.842
11
-9.359
21
-16.870
0
LINE
8
медь верх
10
-9.359
20
-16.870
11
-9.970
21
-17.481
0
LINE
8
медь верх
10
-9.970
20
-17.481
11
-9.998
21
-17.522
0
LINE
8
медь верх
10
-9.998
20
-17.522
11
-10.007
21
-17.571
0
LINE
8
медь верх
10
-10.007
20
-17.571
11
-10.007
21
-18.041
0
LINE
8
медь верх
10
-10.007
20
-18.041
11
-9.998
21
-18.089
0
LINE
8
медь верх
10
-9.998
20
-18.089
11
-9.998
21
-18.089
0
LINE
8
медь верх
10
-9.998
20
-18.089
11
-9.998
21
-18.089
0
LINE
8
медь верх
10
-9.998
20
-18.089
11
-9.992
21
-18.098
0
LINE
8
медь верх
10
-9.992
20
-18.098
11
-9.970
21
-18.131
0
LINE
8
медь верх
10
-9.970
20
-18.131
11
-9.929
21
-18.159
0
LINE
8
медь верх
10
-9.929
20
-18.159
11
-9.929
21
-18.159
0
LINE
8
медь верх
10
-9.929
20
-18.159
11
-9.929
21
-18.159
0
LINE
8
медь верх
10
-9.929
20
-18.159
11
-9.918
21
-18.161
0
LINE
8
медь верх
10
-9.918
20
-18.161
11
-9.880
21
-18.168
0
LINE
8
медь верх
10
-9.880
20
-18.168
11
-9.880
21
-18.168
0
LINE
8
медь верх
10
-9.880
20
-18.168
11
-9.830
21
-18.168
0
LINE
8
медь верх
10
-9.830
20
-18.168
11
-9.168
21
-18.830
0
LINE
8
медь верх
10
-9.168
20
-18.830
11
-9.168
21
-19.970
0
LINE
8
медь верх
10
-9.168
20
-19.970
11
-9.817
21
-20.619
0
LINE
8
медь верх
10
-9.817
20
-20.619
11
-9.817
21
-20.619
0
LINE
8
медь верх
10
-9.817
20
-20.619
11
-9.845
21
-20.660
0
LINE
8
медь верх
10
-9.845
20
-20.660
11
-9.854
21
-20.709
0
LINE
8
медь верх
10
-9.854
20
-20.709
11
-9.845
21
-20.758
0
LINE
8
медь верх
10
-9.845
20
-20.758
11
-9.828
21
-20.783
0
LINE
8
медь верх
10
-9.828
20
-20.783
11
-9.817
21
-20.799
0
LINE
8
медь верх
10
-9.817
20
-20.799
11
-9.228
21
-21.389
0
LINE
8
медь верх
10
-9.228
20
-21.389
11
-9.228
21
-21.670
0
LINE
8
медь верх
10
-9.228
20
-21.670
11
-9.369
21
-21.670
0
LINE
8
медь верх
10
-9.369
20
-21.670
11
-9.369
21
-21.441
0
LINE
8
медь верх
10
-9.369
20
-21.441
11
-9.941
21
-20.869
0
LINE
8
медь верх
10
-9.941
20
-20.869
11
-10.859
21
-20.869
0
LINE
8
медь верх
10
-10.859
20
-20.869
11
-11.431
21
-21.441
0
LINE
8
медь верх
10
-11.431
20
-21.441
11
-11.431
21
-21.672
0
LINE
8
медь верх
10
-11.431
20
-21.672
11
-11.572
21
-21.672
0
LINE
8
медь верх
10
-11.572
20
-21.672
11
-11.572
21
-21.389
0
LINE
8
медь верх
10
-11.572
20
-21.389
11
-10.983
21
-20.799
0
LINE
8
медь верх
10
-10.983
20
-20.799
11
-10.955
21
-20.758
0
LINE
8
медь верх
10
-10.955
20
-20.758
11
-10.946
21
-20.709
0
LINE
8
медь верх
10
-10.946
20
-20.709
11
-10.946
21
-20.709
0
LINE
8
медь верх
10
-10.946
20
-20.709
11
-10.946
21
-20.709
0
LINE
8
медь верх
10
-10.946
20
-20.709
11
-10.955
21
-20.660
0
LINE
8
медь верх
10
-10.955
20
-20.660
11
-10.983
21
-20.619
0
LINE
8
медь верх
10
-10.983
20
-20.619
11
-11.668
21
-19.934
0
LINE
8
медь верх
10
-11.668
20
-19.934
11
-11.709
21
-19.907
0
LINE
8
медь верх
10
-11.709
20
-19.907
11
-11.758
21
-19.897
0
LINE
8
медь верх
10
-11.758
20
-19.897
11
-11.758
21
-19.897
0
LINE
8
медь верх
10
-11.758
20
-19.897
11
-11.807
21
-19.907
0
LINE
8
медь верх
10
-11.807
20
-19.907
11
-11.848
21
-19.934
0
LINE
8
медь верх
10
-11.848
20
-19.934
11
-11.876
21
-19.976
0
LINE
8
медь верх
10
-11.876
20
-19.976
11
-11.885
21
-20.025
0
LINE
8
медь верх
10
-11.885
20
-20.025
11
-11.885
21
-23.258
0
LINE
8
медь верх
10
-11.885
20
-23.258
11
-11.876
21
-23.307
0
LINE
8
медь верх
10
-11.876
20
-23.307
11
-11.848
21
-23.349
0
LINE
8
медь верх
10
-11.848
20
-23.349
11
-11.807
21
-23.376
0
LINE
8
медь верх
10
-11.807
20
-23.376
11
-11.758
21
-23.386
0
LINE
8
медь верх
10
-11.758
20
-23.386
11
9.876
21
-23.386
0
LINE
8
медь верх
10
9.876
20
-23.386
11
9.925
21
-23.376
0
LINE
8
медь верх
10
9.925
20
-23.376
11
9.966
21
-23.349
0
LINE
8
медь верх
10
9.966
20
-23.349
11
9.994
21
-23.307
0
LINE
8
медь верх
10
9.994
20
-23.307
11
10.003
21
-23.258
0
LINE
8
медь верх
10
10.003
20
-23.258
11
9.994
21
-23.209
0
LINE
8
медь верх
10
9.994
20
-23.209
11
9.966
21
-23.168
0
LINE
8
медь верх
10
9.966
20
-23.168
11
9.268
21
-22.470
0
LINE
8
медь верх
10
9.268
20
-22.470
11
9.268
21
-21.278
0
LINE
8
медь верх
10
9.268
20
-21.278
11
9.269
21
-21.277
0
LINE
8
медь верх
10
9.269
20
-21.277
11
9.268
21
-21.276
0
LINE
8
медь верх
10
9.268
20
-21.276
11
9.269
21
-21.276
0
LINE
8
медь верх
10
9.269
20
-21.276
11
9.264
21
-21.252
0
LINE
8
медь верх
10
9.264
20
-21.252
11
9.259
21
-21.228
0
LINE
8
медь верх
10
9.259
20
-21.228
11
9.259
21
-21.228
0
LINE
8
медь верх
10
9.259
20
-21.228
11
9.259
21
-21.228
0
LINE
8
медь верх
10
9.259
20
-21.228
11
9.245
21
-21.207
0
LINE
8
медь верх
10
9.245
20
-21.207
11
9.231
21
-21.186
0
LINE
8
медь верх
10
9.231
20
-21.186
11
7.762
21
-19.717
0
LINE
8
медь верх
10
7.762
20
-19.717
11
7.670
21
-19.580
0
LINE
8
медь верх
10
7.670
20
-19.580
11
7.638
21
-19.418
0
LINE
8
медь верх
10
7.638
20
-19.418
11
7.638
21
-18.618
0
LINE
8
медь верх
10
7.638
20
-18.618
11
7.632
21
-18.588
0
LINE
8
медь верх
10
7.632
20
-18.588
11
7.628
21
-18.569
0
LINE
8
медь верх
10
7.628
20
-18.569
11
7.619
21
-18.555
0
LINE
8
медь верх
10
7.619
20
-18.555
11
7.600
21
-18.528
0
LINE
8
медь верх
10
7.600
20
-18.528
11
7.600
21
-18.528
0
LINE
8
медь верх
10
7.600
20
-18.528
11
7.245
21
-18.172
0
LINE
8
медь верх
10
7.245
20
-18.172
11
7.245
21
-18.172
0
LINE
8
медь верх
10
7.245
20
-18.172
11
7.245
21
-18.172
0
LINE
8
медь верх
10
7.245
20
-18.172
11
7.225
21
-18.159
0
LINE
8
медь верх
10
7.225
20
-18.159
11
7.203
21
-18.144
0
LINE
8
медь верх
10
7.203
20
-18.144
11
7.203
21
-18.144
0
LINE
8
медь верх
10
7.203
20
-18.144
11
7.203
21
-18.144
0
LINE
8
медь верх
10
7.203
20
-18.144
11
7.181
21
-18.140
0
LINE
8
медь верх
10
7.181
20
-18.140
11
7.155
21
-18.135
0
LINE
8
медь верх
10
7.155
20
-18.135
11
7.155
21
-18.135
0
LINE
8
медь верх
10
7.155
20
-18.135
11
7.155
21
-18.135
0
LINE
8
медь верх
10
7.155
20
-18.135
11
7.133
21
-18.139
0
LINE
8
медь верх
10
7.133
20
-18.139
11
7.106
21
-18.144
0
LINE
8
медь верх
10
7.106
20
-18.144
11
7.106
21
-18.144
0
LINE
8
медь верх
10
7.106
20
-18.144
11
7.106
21
-18.144
0
LINE
8
медь верх
10
7.106
20
-18.144
11
7.087
21
-18.157
0
LINE
8
медь верх
10
7.087
20
-18.157
11
7.064
21
-18.172
0
LINE
8
медь верх
10
7.064
20
-18.172
11
7.064
21
-18.172
0
LINE
8
медь верх
10
7.064
20
-18.172
11
7.064
21
-18.172
0
LINE
8
медь верх
10
7.064
20
-18.172
11
7.055
21
-18.182
0
LINE
8
медь верх
10
7.055
20
-18.182
11
7.043
21
-18.199
0
LINE
8
медь верх
10
7.043
20
-18.199
11
7.027
21
-18.223
0
LINE
8
медь верх
10
7.027
20
-18.223
11
7.027
21
-18.223
0
LINE
8
медь верх
10
7.027
20
-18.223
11
7.027
21
-18.223
0
LINE
8
медь верх
10
7.027
20
-18.223
11
7.023
21
-18.242
0
LINE
8
медь верх
10
7.023
20
-18.242
11
7.017
21
-18.272
0
LINE
8
медь верх
10
7.017
20
-18.272
11
7.017
21
-18.272
0
LINE
8
медь верх
10
7.017
20
-18.272
11
7.017
21
-18.272
0
LINE
8
медь верх
10
7.017
20
-18.272
11
7.017
21
-18.858
0
LINE
8
медь верх
10
7.017
20
-18.858
11
7.027
21
-18.907
0
LINE
8
медь верх
10
7.027
20
-18.907
11
7.055
21
-18.949
0
LINE
8
медь верх
10
7.055
20
-18.949
11
7.067
21
-18.961
0
LINE
8
медь верх
10
7.067
20
-18.961
11
7.067
21
-19.819
0
LINE
8
медь верх
10
7.067
20
-19.819
11
6.869
21
-20.017
0
LINE
8
медь верх
10
6.869
20
-20.017
11
6.834
21
-20.017
0
LINE
8
медь верх
10
6.834
20
-20.017
11
6.822
21
-20.019
0
LINE
8
медь верх
10
6.822
20
-20.019
11
6.809
21
-20.019
0
LINE
8
медь верх
10
6.809
20
-20.019
11
6.797
21
-20.024
0
LINE
8
медь верх
10
6.797
20
-20.024
11
6.785
21
-20.027
0
LINE
8
медь верх
10
6.785
20
-20.027
11
6.775
21
-20.034
0
LINE
8
медь верх
10
6.775
20
-20.034
11
6.763
21
-20.039
0
LINE
8
медь верх
10
6.763
20
-20.039
11
6.754
21
-20.047
0
LINE
8
медь верх
10
6.754
20
-20.047
11
6.744
21
-20.054
0
LINE
8
медь верх
10
6.744
20
-20.054
11
6.737
21
-20.065
0
LINE
8
медь верх
10
6.737
20
-20.065
11
6.728
21
-20.074
0
LINE
8
медь верх
10
6.728
20
-20.074
11
6.723
21
-20.085
0
LINE
8
медь верх
10
6.723
20
-20.085
11
6.716
21
-20.096
0
LINE
8
медь верх
10
6.716
20
-20.096
11
6.714
21
-20.108
0
LINE
8
медь верх
10
6.714
20
-20.108
11
6.709
21
-20.120
0
LINE
8
медь верх
10
6.709
20
-20.120
11
6.699
21
-20.169
0
LINE
8
медь верх
10
6.699
20
-20.169
11
6.657
21
-20.232
0
LINE
8
медь верх
10
6.657
20
-20.232
11
6.657
21
-20.232
0
LINE
8
медь верх
10
6.657
20
-20.232
11
6.656
21
-20.233
0
LINE
8
медь верх
10
6.656
20
-20.233
11
6.608
21
-20.306
0
LINE
8
медь верх
10
6.608
20
-20.306
11
6.201
21
-20.714
0
LINE
8
медь верх
10
6.201
20
-20.714
11
6.128
21
-20.763
0
LINE
8
медь верх
10
6.128
20
-20.763
11
6.127
21
-20.763
0
LINE
8
медь верх
10
6.127
20
-20.763
11
6.127
21
-20.763
0
LINE
8
медь верх
10
6.127
20
-20.763
11
6.064
21
-20.805
0
LINE
8
медь верх
10
6.064
20
-20.805
11
5.989
21
-20.820
0
LINE
8
медь верх
10
5.989
20
-20.820
11
5.989
21
-20.820
0
LINE
8
медь верх
10
5.989
20
-20.820
11
5.989
21
-20.820
0
LINE
8
медь верх
10
5.989
20
-20.820
11
5.902
21
-20.838
0
LINE
8
медь верх
10
5.902
20
-20.838
11
0.748
21
-20.838
0
LINE
8
медь верх
10
0.748
20
-20.838
11
0.586
21
-20.806
0
LINE
8
медь верх
10
0.586
20
-20.806
11
0.449
21
-20.714
0
LINE
8
медь верх
10
0.449
20
-20.714
11
-0.236
21
-20.029
0
LINE
8
медь верх
10
-0.236
20
-20.029
11
-0.286
21
-19.954
0
LINE
8
медь верх
10
-0.286
20
-19.954
11
-0.286
21
-19.954
0
LINE
8
медь верх
10
-0.286
20
-19.954
11
-0.286
21
-19.954
0
LINE
8
медь верх
10
-0.286
20
-19.954
11
-0.327
21
-19.892
0
LINE
8
медь верх
10
-0.327
20
-19.892
11
-0.341
21
-19.822
0
LINE
8
медь верх
10
-0.341
20
-19.822
11
-0.341
21
-19.822
0
LINE
8
медь верх
10
-0.341
20
-19.822
11
-0.341
21
-19.822
0
LINE
8
медь верх
10
-0.341
20
-19.822
11
-0.360
21
-19.730
0
LINE
8
медь верх
10
-0.360
20
-19.730
11
-0.359
21
-14.298
0
LINE
8
медь верх
10
-0.359
20
-14.298
11
-0.359
21
-14.298
0
LINE
8
медь верх
10
-0.359
20
-14.298
11
-0.359
21
-14.298
0
LINE
8
медь верх
10
-0.359
20
-14.298
11
-0.364
21
-14.271
0
LINE
8
медь верх
10
-0.364
20
-14.271
11
-0.368
21
-14.249
0
LINE
8
медь верх
10
-0.368
20
-14.249
11
-0.368
21
-14.249
0
LINE
8
медь верх
10
-0.368
20
-14.249
11
-0.368
21
-14.249
0
LINE
8
медь верх
10
-0.368
20
-14.249
11
-0.383
21
-14.227
0
LINE
8
медь верх
10
-0.383
20
-14.227
11
-0.396
21
-14.208
0
LINE
8
медь верх
10
-0.396
20
-14.208
11
-0.396
21
-14.208
0
LINE
8
медь верх
10
-0.396
20
-14.208
11
-0.396
21
-14.208
0
LINE
8
медь верх
10
-0.396
20
-14.208
11
-0.417
21
-14.194
0
LINE
8
медь верх
10
-0.417
20
-14.194
11
-0.437
21
-14.180
0
LINE
8
медь верх
10
-0.437
20
-14.180
11
-0.437
21
-14.180
0
LINE
8
медь верх
10
-0.437
20
-14.180
11
-0.437
21
-14.180
0
LINE
8
медь верх
10
-0.437
20
-14.180
11
-0.460
21
-14.175
0
LINE
8
медь верх
10
-0.460
20
-14.175
11
-0.486
21
-14.170
0
LINE
8
медь верх
10
6.839
20
-15.289
11
5.839
21
-15.289
0
LINE
8
медь верх
10
5.839
20
-15.289
11
5.830
21
-15.291
0
LINE
8
медь верх
10
5.830
20
-15.291
11
5.821
21
-15.297
0
LINE
8
медь верх
10
5.821
20
-15.297
11
5.816
21
-15.305
0
LINE
8
медь верх
10
5.816
20
-15.305
11
5.814
21
-15.315
0
LINE
8
медь верх
10
5.814
20
-15.315
11
5.814
21
-15.914
0
LINE
8
медь верх
10
5.814
20
-15.914
11
5.816
21
-15.924
0
LINE
8
медь верх
10
5.816
20
-15.924
11
5.821
21
-15.932
0
LINE
8
медь верх
10
5.821
20
-15.932
11
5.830
21
-15.938
0
LINE
8
медь верх
10
5.830
20
-15.938
11
5.839
21
-15.940
0
LINE
8
медь верх
10
5.839
20
-15.940
11
6.839
21
-15.940
0
LINE
8
медь верх
10
6.839
20
-15.940
11
6.839
21
-15.940
0
LINE
8
медь верх
10
6.839
20
-15.940
11
6.839
21
-15.940
0
LINE
8
медь верх
10
6.839
20
-15.940
11
6.849
21
-15.938
0
LINE
8
медь верх
10
6.849
20
-15.938
11
6.857
21
-15.932
0
LINE
8
медь верх
10
6.857
20
-15.932
11
6.863
21
-15.924
0
LINE
8
медь верх
10
6.863
20
-15.924
11
6.865
21
-15.914
0
LINE
8
медь верх
10
6.865
20
-15.914
11
6.865
21
-15.914
0
LINE
8
медь верх
10
6.865
20
-15.914
11
6.865
21
-15.914
0
LINE
8
медь верх
10
6.865
20
-15.914
11
6.865
21
-15.315
0
LINE
8
медь верх
10
6.865
20
-15.315
11
6.865
21
-15.315
0
LINE
8
медь верх
10
6.865
20
-15.315
11
6.865
21
-15.315
0
LINE
8
медь верх
10
6.865
20
-15.315
11
6.863
21
-15.305
0
LINE
8
медь верх
10
6.863
20
-15.305
11
6.857
21
-15.297
0
LINE
8
медь верх
10
6.857
20
-15.297
11
6.849
21
-15.291
0
LINE
8
медь верх
10
6.849
20
-15.291
11
6.839
21
-15.289
0
LINE
8
медь верх
10
6.758
20
-17.314
11
5.922
21
-17.314
0
LINE
8
медь верх
10
5.922
20
-17.314
11
5.814
21
-17.422
0
LINE
8
медь верх
10
5.814
20
-17.422
11
5.814
21
-17.510
0
LINE
8
медь верх
10
5.814
20
-17.510
11
3.967
21
-17.510
0
LINE
8
медь верх
10
3.967
20
-17.510
11
3.819
21
-17.363
0
LINE
8
медь верх
10
3.819
20
-17.363
11
1.981
21
-17.363
0
LINE
8
медь верх
10
1.981
20
-17.363
11
1.773
21
-17.571
0
LINE
8
медь верх
10
1.773
20
-17.571
11
1.773
21
-17.909
0
LINE
8
медь верх
10
1.773
20
-17.909
11
1.981
21
-18.117
0
LINE
8
медь верх
10
1.981
20
-18.117
11
3.819
21
-18.117
0
LINE
8
медь верх
10
3.819
20
-18.117
11
3.967
21
-17.970
0
LINE
8
медь верх
10
3.967
20
-17.970
11
5.814
21
-17.970
0
LINE
8
медь верх
10
5.814
20
-17.970
11
5.814
21
-18.058
0
LINE
8
медь верх
10
5.814
20
-18.058
11
5.922
21
-18.166
0
LINE
8
медь верх
10
5.922
20
-18.166
11
6.758
21
-18.166
0
LINE
8
медь верх
10
6.758
20
-18.166
11
6.866
21
-18.058
0
LINE
8
медь верх
10
6.866
20
-18.058
11
6.866
21
-17.970
0
LINE
8
медь верх
10
6.866
20
-17.970
11
7.273
21
-17.970
0
LINE
8
медь верх
10
7.273
20
-17.970
11
7.801
21
-18.497
0
LINE
8
медь верх
10
7.801
20
-18.497
11
7.801
21
-19.430
0
LINE
8
медь верх
10
7.801
20
-19.430
11
7.801
21
-19.430
0
LINE
8
медь верх
10
7.801
20
-19.430
11
7.818
21
-19.518
0
LINE
8
медь верх
10
7.818
20
-19.518
11
7.868
21
-19.593
0
LINE
8
медь верх
10
7.868
20
-19.593
11
9.593
21
-21.317
0
LINE
8
медь верх
10
9.593
20
-21.317
11
9.469
21
-21.441
0
LINE
8
медь верх
10
9.469
20
-21.441
11
9.469
21
-22.359
0
LINE
8
медь верх
10
9.469
20
-22.359
11
10.041
21
-22.931
0
LINE
8
медь верх
10
10.041
20
-22.931
11
10.959
21
-22.931
0
LINE
8
медь верх
10
10.959
20
-22.931
11
11.531
21
-22.359
0
LINE
8
медь верх
10
11.531
20
-22.359
11
11.531
21
-21.441
0
LINE
8
медь верх
10
11.531
20
-21.441
11
10.959
21
-20.869
0
LINE
8
медь верх
10
10.959
20
-20.869
11
10.041
21
-20.869
0
LINE
8
медь верх
10
10.041
20
-20.869
11
9.917
21
-20.993
0
LINE
8
медь верх
10
9.917
20
-20.993
11
8.260
21
-19.335
0
LINE
8
медь верх
10
8.260
20
-19.335
11
8.260
21
-18.402
0
LINE
8
медь верх
10
8.260
20
-18.402
11
8.260
21
-18.402
0
LINE
8
медь верх
10
8.260
20
-18.402
11
8.260
21
-18.402
0
LINE
8
медь верх
10
8.260
20
-18.402
11
8.242
21
-18.314
0
LINE
8
медь верх
10
8.242
20
-18.314
11
8.209
21
-18.265
0
LINE
8
медь верх
10
8.209
20
-18.265
11
8.193
21
-18.240
0
LINE
8
медь верх
10
8.193
20
-18.240
11
8.193
21
-18.240
0
LINE
8
медь верх
10
8.193
20
-18.240
11
7.530
21
-17.578
0
LINE
8
медь верх
10
7.530
20
-17.578
11
7.530
21
-17.578
0
LINE
8
медь верх
10
7.530
20
-17.578
11
7.456
21
-17.528
0
LINE
8
медь верх
10
7.456
20
-17.528
11
7.368
21
-17.510
0
LINE
8
медь верх
10
7.368
20
-17.510
11
6.866
21
-17.510
0
LINE
8
медь верх
10
6.866
20
-17.510
11
6.866
21
-17.422
0
LINE
8
медь верх
10
6.866
20
-17.422
11
6.758
21
-17.314
0
LINE
8
медь верх
10
11.758
20
-13.114
11
-11.758
21
-13.114
0
LINE
8
медь верх
10
-11.758
20
-13.114
11
-11.807
21
-13.124
0
LINE
8
медь верх
10
-11.807
20
-13.124
11
-11.848
21
-13.151
0
LINE
8
медь верх
10
-11.848
20
-13.151
11
-11.876
21
-13.193
0
LINE
8
медь верх
10
-11.876
20
-13.193
11
-11.885
21
-13.242
0
LINE
8
медь верх
10
-11.885
20
-13.242
11
-11.885
21
-13.242
0
LINE
8
медь верх
10
-11.885
20
-13.242
11
-11.885
21
-18.775
0
LINE
8
медь верх
10
-11.885
20
-18.775
11
-11.876
21
-18.824
0
LINE
8
медь верх
10
-11.876
20
-18.824
11
-11.867
21
-18.838
0
LINE
8
медь верх
10
-11.867
20
-18.838
11
-11.848
21
-18.866
0
LINE
8
медь верх
10
-11.848
20
-18.866
11
-11.807
21
-18.893
0
LINE
8
медь верх
10
-11.807
20
-18.893
11
-11.758
21
-18.903
0
LINE
8
медь верх
10
-11.758
20
-18.903
11
-11.731
21
-18.898
0
LINE
8
медь верх
10
-11.731
20
-18.898
11
-11.709
21
-18.893
0
LINE
8
медь верх
10
-11.709
20
-18.893
11
-11.695
21
-18.884
0
LINE
8
медь верх
10
-11.695
20
-18.884
11
-11.668
21
-18.866
0
LINE
8
медь верх
10
-11.668
20
-18.866
11
-11.668
21
-18.866
0
LINE
8
медь верх
10
-11.668
20
-18.866
11
-10.970
21
-18.168
0
LINE
8
медь верх
10
-10.970
20
-18.168
11
-10.920
21
-18.168
0
LINE
8
медь верх
10
-10.920
20
-18.168
11
-10.871
21
-18.159
0
LINE
8
медь верх
10
-10.871
20
-18.159
11
-10.830
21
-18.131
0
LINE
8
медь верх
10
-10.830
20
-18.131
11
-10.802
21
-18.089
0
LINE
8
медь верх
10
-10.802
20
-18.089
11
-10.793
21
-18.041
0
LINE
8
медь верх
10
-10.793
20
-18.041
11
-10.793
21
-17.368
0
LINE
8
медь верх
10
-10.793
20
-17.368
11
-10.760
21
-17.206
0
LINE
8
медь верх
10
-10.760
20
-17.206
11
-10.669
21
-17.069
0
LINE
8
медь верх
10
-10.669
20
-17.069
11
-9.771
21
-16.171
0
LINE
8
медь верх
10
-9.771
20
-16.171
11
-9.634
21
-16.080
0
LINE
8
медь верх
10
-9.634
20
-16.080
11
-9.472
21
-16.047
0
LINE
8
медь верх
10
-9.472
20
-16.047
11
-7.514
21
-16.047
0
LINE
8
медь верх
10
-7.514
20
-16.047
11
-7.485
21
-16.041
0
LINE
8
медь верх
10
-7.485
20
-16.041
11
-7.466
21
-16.038
0
LINE
8
медь верх
10
-7.466
20
-16.038
11
-7.466
21
-16.038
0
LINE
8
медь верх
10
-7.466
20
-16.038
11
-7.466
21
-16.038
0
LINE
8
медь верх
10
-7.466
20
-16.038
11
-7.440
21
-16.021
0
LINE
8
медь верх
10
-7.440
20
-16.021
11
-7.424
21
-16.010
0
LINE
8
медь верх
10
-7.424
20
-16.010
11
-7.424
21
-16.010
0
LINE
8
медь верх
10
-7.424
20
-16.010
11
-7.424
21
-16.010
0
LINE
8
медь верх
10
-7.424
20
-16.010
11
-7.407
21
-15.984
0
LINE
8
медь верх
10
-7.407
20
-15.984
11
-7.400
21
-15.974
0
LINE
8
медь верх
10
-7.400
20
-15.974
11
-7.189
21
-15.763
0
LINE
8
медь верх
10
-7.189
20
-15.763
11
-7.180
21
-15.763
0
LINE
8
медь верх
10
-7.180
20
-15.763
11
-7.154
21
-15.758
0
LINE
8
медь верх
10
-7.154
20
-15.758
11
-7.131
21
-15.753
0
LINE
8
медь верх
10
-7.131
20
-15.753
11
-7.131
21
-15.753
0
LINE
8
медь верх
10
-7.131
20
-15.753
11
-7.131
21
-15.753
0
LINE
8
медь верх
10
-7.131
20
-15.753
11
-7.115
21
-15.742
0
LINE
8
медь верх
10
-7.115
20
-15.742
11
-7.090
21
-15.726
0
LINE
8
медь верх
10
-7.090
20
-15.726
11
-7.090
21
-15.726
0
LINE
8
медь верх
10
-7.090
20
-15.726
11
-7.090
21
-15.726
0
LINE
8
медь верх
10
-7.090
20
-15.726
11
-7.077
21
-15.707
0
LINE
8
медь верх
10
-7.077
20
-15.707
11
-7.062
21
-15.684
0
LINE
8
медь верх
10
-7.062
20
-15.684
11
-7.062
21
-15.684
0
LINE
8
медь верх
10
-7.062
20
-15.684
11
-7.062
21
-15.684
0
LINE
8
медь верх
10
-7.062
20
-15.684
11
-7.058
21
-15.663
0
LINE
8
медь верх
10
-7.058
20
-15.663
11
-7.053
21
-15.636
0
LINE
8
медь верх
10
-7.053
20
-15.636
11
-7.052
21
-14.661
0
LINE
8
медь верх
10
-7.052
20
-14.661
11
-7.036
21
-14.579
0
LINE
8
медь верх
10
-7.036
20
-14.579
11
-7.036
21
-14.579
0
LINE
8
медь верх
10
-7.036
20
-14.579
11
-7.036
21
-14.579
0
LINE
8
медь верх
10
-7.036
20
-14.579
11
-7.020
21
-14.500
0
LINE
8
медь верх
10
-7.020
20
-14.500
11
-6.974
21
-14.430
0
LINE
8
медь верх
10
-6.974
20
-14.430
11
-6.974
21
-14.430
0
LINE
8
медь верх
10
-6.974
20
-14.430
11
-6.974
21
-14.430
0
LINE
8
медь верх
10
-6.974
20
-14.430
11
-6.929
21
-14.362
0
LINE
8
медь верх
10
-6.929
20
-14.362
11
-6.075
21
-13.509
0
LINE
8
медь верх
10
-6.075
20
-13.509
11
-6.014
21
-13.468
0
LINE
8
медь верх
10
-6.014
20
-13.468
11
-6.014
21
-13.468
0
LINE
8
медь верх
10
-6.014
20
-13.468
11
-5.938
21
-13.417
0
LINE
8
медь верх
10
-5.938
20
-13.417
11
-5.803
21
-13.390
0
LINE
8
медь верх
10
-5.803
20
-13.390
11
-5.803
21
-13.390
0
LINE
8
медь верх
10
-5.803
20
-13.390
11
-5.776
21
-13.385
0
LINE
8
медь верх
10
-5.776
20
-13.385
11
0.034
21
-13.385
0
LINE
8
медь верх
10
0.034
20
-13.385
11
0.034
21
-13.385
0
LINE
8
медь верх
10
0.034
20
-13.385
11
0.034
21
-13.385
0
LINE
8
медь верх
10
0.034
20
-13.385
11
5.894
21
-13.385
0
LINE
8
медь верх
10
5.894
20
-13.385
11
6.056
21
-13.417
0
LINE
8
медь верх
10
6.056
20
-13.417
11
6.193
21
-13.509
0
LINE
8
медь верх
10
6.193
20
-13.509
11
6.607
21
-13.923
0
LINE
8
медь верх
10
6.607
20
-13.923
11
6.656
21
-13.996
0
LINE
8
медь верх
10
6.656
20
-13.996
11
6.657
21
-13.997
0
LINE
8
медь верх
10
6.657
20
-13.997
11
6.657
21
-13.997
0
LINE
8
медь верх
10
6.657
20
-13.997
11
6.699
21
-14.060
0
LINE
8
медь верх
10
6.699
20
-14.060
11
6.699
21
-14.060
0
LINE
8
медь верх
10
6.699
20
-14.060
11
6.704
21
-14.072
0
LINE
8
медь верх
10
6.704
20
-14.072
11
6.706
21
-14.084
0
LINE
8
медь верх
10
6.706
20
-14.084
11
6.713
21
-14.095
0
LINE
8
медь верх
10
6.713
20
-14.095
11
6.718
21
-14.106
0
LINE
8
медь верх
10
6.718
20
-14.106
11
6.727
21
-14.115
0
LINE
8
медь верх
10
6.727
20
-14.115
11
6.734
21
-14.126
0
LINE
8
медь верх
10
6.734
20
-14.126
11
6.744
21
-14.133
0
LINE
8
медь верх
10
6.744
20
-14.133
11
6.753
21
-14.142
0
LINE
8
медь верх
10
6.753
20
-14.142
11
6.765
21
-14.146
0
LINE
8
медь верх
10
6.765
20
-14.146
11
6.775
21
-14.153
0
LINE
8
медь верх
10
6.775
20
-14.153
11
6.788
21
-14.156
0
LINE
8
медь верх
10
6.788
20
-14.156
11
6.799
21
-14.161
0
LINE
8
медь верх
10
6.799
20
-14.161
11
6.812
21
-14.161
0
LINE
8
медь верх
10
6.812
20
-14.161
11
6.824
21
-14.163
0
LINE
8
медь верх
10
6.824
20
-14.163
11
6.869
21
-14.163
0
LINE
8
медь верх
10
6.869
20
-14.163
11
7.067
21
-14.361
0
LINE
8
медь верх
10
7.067
20
-14.361
11
7.067
21
-15.219
0
LINE
8
медь верх
10
7.067
20
-15.219
11
7.055
21
-15.231
0
LINE
8
медь верх
10
7.055
20
-15.231
11
7.041
21
-15.252
0
LINE
8
медь верх
10
7.041
20
-15.252
11
7.027
21
-15.273
0
LINE
8
медь верх
10
7.027
20
-15.273
11
7.027
21
-15.273
0
LINE
8
медь верх
10
7.027
20
-15.273
11
7.027
21
-15.273
0
LINE
8
медь верх
10
7.027
20
-15.273
11
7.020
21
-15.309
0
LINE
8
медь верх
10
7.020
20
-15.309
11
7.017
21
-15.322
0
LINE
8
медь верх
10
7.017
20
-15.322
11
7.017
21
-15.909
0
LINE
8
медь верх
10
7.017
20
-15.909
11
7.022
21
-15.931
0
LINE
8
медь верх
10
7.022
20
-15.931
11
7.027
21
-15.957
0
LINE
8
медь верх
10
7.027
20
-15.957
11
7.027
21
-15.957
0
LINE
8
медь верх
10
7.027
20
-15.957
11
7.027
21
-15.957
0
LINE
8
медь верх
10
7.027
20
-15.957
11
7.040
21
-15.977
0
LINE
8
медь верх
10
7.040
20
-15.977
11
7.055
21
-15.999
0
LINE
8
медь верх
10
7.055
20
-15.999
11
7.066
21
-16.010
0
LINE
8
медь верх
10
7.066
20
-16.010
11
7.066
21
-16.010
0
LINE
8
медь верх
10
7.066
20
-16.010
11
7.066
21
-16.010
0
LINE
8
медь верх
10
7.066
20
-16.010
11
7.087
21
-16.024
0
LINE
8
медь верх
10
7.087
20
-16.024
11
7.107
21
-16.038
0
LINE
8
медь верх
10
7.107
20
-16.038
11
7.107
21
-16.038
0
LINE
8
медь верх
10
7.107
20
-16.038
11
7.107
21
-16.038
0
LINE
8
медь верх
10
7.107
20
-16.038
11
7.136
21
-16.043
0
LINE
8
медь верх
10
7.136
20
-16.043
11
7.156
21
-16.047
0
LINE
8
медь верх
10
7.156
20
-16.047
11
7.156
21
-16.047
0
LINE
8
медь верх
10
7.156
20
-16.047
11
7.156
21
-16.047
0
LINE
8
медь верх
10
7.156
20
-16.047
11
7.527
21
-16.047
0
LINE
8
медь верх
10
7.527
20
-16.047
11
7.555
21
-16.053
0
LINE
8
медь верх
10
7.555
20
-16.053
11
7.555
21
-16.053
0
LINE
8
медь верх
10
7.555
20
-16.053
11
7.689
21
-16.080
0
LINE
8
медь верх
10
7.689
20
-16.080
11
7.826
21
-16.171
0
LINE
8
медь верх
10
7.826
20
-16.171
11
9.786
21
-18.131
0
LINE
8
медь верх
10
9.786
20
-18.131
11
9.807
21
-18.145
0
LINE
8
медь верх
10
9.807
20
-18.145
11
9.828
21
-18.159
0
LINE
8
медь верх
10
9.828
20
-18.159
11
9.828
21
-18.159
0
LINE
8
медь верх
10
9.828
20
-18.159
11
9.828
21
-18.159
0
LINE
8
медь верх
10
9.828
20
-18.159
11
9.852
21
-18.164
0
LINE
8
медь верх
10
9.852
20
-18.164
11
9.876
21
-18.169
0
LINE
8
медь верх
10
9.876
20
-18.169
11
9.876
21
-18.168
0
LINE
8
медь верх
10
9.876
20
-18.168
11
9.877
21
-18.169
0
LINE
8
медь верх
10
9.877
20
-18.169
11
9.878
21
-18.168
0
LINE
8
медь верх
10
9.878
20
-18.168
11
11.070
21
-18.168
0
LINE
8
медь верх
10
11.070
20
-18.168
11
11.668
21
-18.766
0
LINE
8
медь верх
10
11.668
20
-18.766
11
11.668
21
-18.766
0
LINE
8
медь верх
10
11.668
20
-18.766
11
11.709
21
-18.793
0
LINE
8
медь верх
10
11.709
20
-18.793
11
11.758
21
-18.803
0
LINE
8
медь верх
10
11.758
20
-18.803
11
11.787
21
-18.797
0
LINE
8
медь верх
10
11.787
20
-18.797
11
11.807
21
-18.793
0
LINE
8
медь верх
10
11.807
20
-18.793
11
11.820
21
-18.784
0
LINE
8
медь верх
10
11.820
20
-18.784
11
11.848
21
-18.766
0
LINE
8
медь верх
10
11.848
20
-18.766
11
11.876
21
-18.724
0
LINE
8
медь верх
10
11.876
20
-18.724
11
11.885
21
-18.675
0
LINE
8
медь верх
10
11.885
20
-18.675
11
11.885
21
-13.242
0
LINE
8
медь верх
10
11.885
20
-13.242
11
11.885
21
-13.242
0
LINE
8
медь верх
10
11.885
20
-13.242
11
11.885
21
-13.242
0
LINE
8
медь верх
10
11.885
20
-13.242
11
11.885
21
-13.242
0
LINE
8
медь верх
10
11.885
20
-13.242
11
11.876
21
-13.193
0
LINE
8
медь верх
10
11.876
20
-13.193
11
11.848
21
-13.151
0
LINE
8
медь верх
10
11.848
20
-13.151
11
11.807
21
-13.124
0
LINE
8
медь верх
10
11.807
20
-13.124
11
11.758
21
-13.114
0
LINE
8
медь верх
10
6.839
20
-18.238
11
5.839
21
-18.238
0
LINE
8
медь верх
10
5.839
20
-18.238
11
5.830
21
-18.240
0
LINE
8
медь верх
10
5.830
20
-18.240
11
5.821
21
-18.246
0
LINE
8
медь верх
10
5.821
20
-18.246
11
5.816
21
-18.254
0
LINE
8
медь верх
10
5.816
20
-18.254
11
5.814
21
-18.264
0
LINE
8
медь верх
10
5.814
20
-18.264
11
5.814
21
-18.865
0
LINE
8
медь верх
10
5.814
20
-18.865
11
5.816
21
-18.874
0
LINE
8
медь верх
10
5.816
20
-18.874
11
5.821
21
-18.883
0
LINE
8
медь верх
10
5.821
20
-18.883
11
5.830
21
-18.888
0
LINE
8
медь верх
10
5.830
20
-18.888
11
5.839
21
-18.890
0
LINE
8
медь верх
10
5.839
20
-18.890
11
6.839
21
-18.890
0
LINE
8
медь верх
10
6.839
20
-18.890
11
6.839
21
-18.890
0
LINE
8
медь верх
10
6.839
20
-18.890
11
6.839
21
-18.890
0
LINE
8
медь верх
10
6.839
20
-18.890
11
6.849
21
-18.888
0
LINE
8
медь верх
10
6.849
20
-18.888
11
6.857
21
-18.883
0
LINE
8
медь верх
10
6.857
20
-18.883
11
6.863
21
-18.874
0
LINE
8
медь верх
10
6.863
20
-18.874
11
6.865
21
-18.865
0
LINE
8
медь верх
10
6.865
20
-18.865
11
6.865
21
-18.865
0
LINE
8
медь верх
10
6.865
20
-18.865
11
6.865
21
-18.865
0
LINE
8
медь верх
10
6.865
20
-18.865
11
6.865
21
-18.264
0
LINE
8
медь верх
10
6.865
20
-18.264
11
6.865
21
-18.264
0
LINE
8
медь верх
10
6.865
20
-18.264
11
6.865
21
-18.264
0
LINE
8
медь верх
10
6.865
20
-18.264
11
6.863
21
-18.254
0
LINE
8
медь верх
10
6.863
20
-18.254
11
6.857
21
-18.246
0
LINE
8
медь верх
10
6.857
20
-18.246
11
6.849
21
-18.240
0
LINE
8
медь верх
10
6.849
20
-18.240
11
6.839
21
-18.238
0
LINE
8
медь верх
10
6.866
20
-16.122
11
6.866
21
-16.210
0
LINE
8
медь верх
10
6.866
20
-16.210
11
7.540
21
-16.210
0
LINE
8
медь верх
10
7.540
20
-16.210
11
7.628
21
-16.228
0
LINE
8
медь верх
10
7.628
20
-16.228
11
7.702
21
-16.278
0
LINE
8
медь верх
10
7.702
20
-16.278
11
9.917
21
-18.493
0
LINE
8
медь верх
10
9.917
20
-18.493
11
10.041
21
-18.369
0
LINE
8
медь верх
10
10.041
20
-18.369
11
10.959
21
-18.369
0
LINE
8
медь верх
10
10.959
20
-18.369
11
11.531
21
-18.941
0
LINE
8
медь верх
10
11.531
20
-18.941
11
11.531
21
-19.859
0
LINE
8
медь верх
10
11.531
20
-19.859
11
10.959
21
-20.431
0
LINE
8
медь верх
10
10.959
20
-20.431
11
10.041
21
-20.431
0
LINE
8
медь верх
10
10.041
20
-20.431
11
9.469
21
-19.859
0
LINE
8
медь верх
10
9.469
20
-19.859
11
9.469
21
-18.941
0
LINE
8
медь верх
10
9.469
20
-18.941
11
9.593
21
-18.817
0
LINE
8
медь верх
10
9.593
20
-18.817
11
7.445
21
-16.670
0
LINE
8
медь верх
10
7.445
20
-16.670
11
6.866
21
-16.670
0
LINE
8
медь верх
10
6.866
20
-16.670
11
6.866
21
-16.758
0
LINE
8
медь верх
10
6.866
20
-16.758
11
6.758
21
-16.866
0
LINE
8
медь верх
10
6.758
20
-16.866
11
5.921
21
-16.866
0
LINE
8
медь верх
10
5.921
20
-16.866
11
5.813
21
-16.758
0
LINE
8
медь верх
10
5.813
20
-16.758
11
5.813
21
-16.670
0
LINE
8
медь верх
10
5.813
20
-16.670
11
3.967
21
-16.670
0
LINE
8
медь верх
10
3.967
20
-16.670
11
3.819
21
-16.817
0
LINE
8
медь верх
10
3.819
20
-16.817
11
1.981
21
-16.817
0
LINE
8
медь верх
10
1.981
20
-16.817
11
1.773
21
-16.609
0
LINE
8
медь верх
10
1.773
20
-16.609
11
1.773
21
-16.271
0
LINE
8
медь верх
10
1.773
20
-16.271
11
1.981
21
-16.063
0
LINE
8
медь верх
10
1.981
20
-16.063
11
3.819
21
-16.063
0
LINE
8
медь верх
10
3.819
20
-16.063
11
3.967
21
-16.210
0
LINE
8
медь верх
10
3.967
20
-16.210
11
5.813
21
-16.210
0
LINE
8
медь верх
10
5.813
20
-16.210
11
5.813
21
-16.122
0
LINE
8
медь верх
10
5.813
20
-16.122
11
5.921
21
-16.014
0
LINE
8
медь верх
10
5.921
20
-16.014
11
6.758
21
-16.014
0
LINE
8
медь верх
10
6.758
20
-16.014
11
6.866
21
-16.122
0
LINE
8
медь верх
10
0.034
20
-13.548
11
5.907
21
-13.548
0
LINE
8
медь верх
10
5.907
20
-13.548
11
5.936
21
-13.554
0
LINE
8
медь верх
10
5.936
20
-13.554
11
5.995
21
-13.565
0
LINE
8
медь верх
10
5.995
20
-13.565
11
6.069
21
-13.615
0
LINE
8
медь верх
10
6.069
20
-13.615
11
6.501
21
-14.047
0
LINE
8
медь верх
10
6.501
20
-14.047
11
6.526
21
-14.084
0
LINE
8
медь верх
10
6.526
20
-14.084
11
6.551
21
-14.121
0
LINE
8
медь верх
10
6.551
20
-14.121
11
6.551
21
-14.121
0
LINE
8
медь верх
10
6.551
20
-14.121
11
6.551
21
-14.122
0
LINE
8
медь верх
10
6.551
20
-14.122
11
6.559
21
-14.165
0
LINE
8
медь верх
10
6.559
20
-14.165
11
6.568
21
-14.209
0
LINE
8
медь верх
10
6.568
20
-14.209
11
6.568
21
-14.364
0
LINE
8
медь верх
10
6.568
20
-14.364
11
6.758
21
-14.364
0
LINE
8
медь верх
10
6.758
20
-14.364
11
6.866
21
-14.472
0
LINE
8
медь верх
10
6.866
20
-14.472
11
6.866
21
-15.108
0
LINE
8
медь верх
10
6.866
20
-15.108
11
6.758
21
-15.216
0
LINE
8
медь верх
10
6.758
20
-15.216
11
5.922
21
-15.216
0
LINE
8
медь верх
10
5.922
20
-15.216
11
5.813
21
-15.108
0
LINE
8
медь верх
10
5.813
20
-15.108
11
5.813
21
-14.472
0
LINE
8
медь верх
10
5.813
20
-14.472
11
5.922
21
-14.364
0
LINE
8
медь верх
10
5.922
20
-14.364
11
6.109
21
-14.364
0
LINE
8
медь верх
10
6.109
20
-14.364
11
6.109
21
-14.305
0
LINE
8
медь верх
10
6.109
20
-14.305
11
5.812
21
-14.007
0
LINE
8
медь верх
10
5.812
20
-14.007
11
0.264
21
-14.007
0
LINE
8
медь верх
10
0.264
20
-14.007
11
0.263
21
-19.648
0
LINE
8
медь верх
10
0.263
20
-19.648
11
0.830
21
-20.216
0
LINE
8
медь верх
10
0.830
20
-20.216
11
5.819
21
-20.216
0
LINE
8
медь верх
10
5.819
20
-20.216
11
6.109
21
-19.925
0
LINE
8
медь верх
10
6.109
20
-19.925
11
6.109
21
-19.816
0
LINE
8
медь верх
10
6.109
20
-19.816
11
5.922
21
-19.816
0
LINE
8
медь верх
10
5.922
20
-19.816
11
5.813
21
-19.708
0
LINE
8
медь верх
10
5.813
20
-19.708
11
5.813
21
-19.072
0
LINE
8
медь верх
10
5.813
20
-19.072
11
5.922
21
-18.964
0
LINE
8
медь верх
10
5.922
20
-18.964
11
6.758
21
-18.964
0
LINE
8
медь верх
10
6.758
20
-18.964
11
6.866
21
-19.072
0
LINE
8
медь верх
10
6.866
20
-19.072
11
6.866
21
-19.708
0
LINE
8
медь верх
10
6.866
20
-19.708
11
6.758
21
-19.816
0
LINE
8
медь верх
10
6.758
20
-19.816
11
6.569
21
-19.816
0
LINE
8
медь верх
10
6.569
20
-19.816
11
6.568
21
-20.020
0
LINE
8
медь верх
10
6.568
20
-20.020
11
6.559
21
-20.064
0
LINE
8
медь верх
10
6.559
20
-20.064
11
6.551
21
-20.107
0
LINE
8
медь верх
10
6.551
20
-20.107
11
6.551
21
-20.108
0
LINE
8
медь верх
10
6.551
20
-20.108
11
6.551
21
-20.108
0
LINE
8
медь верх
10
6.551
20
-20.108
11
6.526
21
-20.145
0
LINE
8
медь верх
10
6.526
20
-20.145
11
6.501
21
-20.182
0
LINE
8
медь верх
10
6.501
20
-20.182
11
6.077
21
-20.607
0
LINE
8
медь верх
10
6.077
20
-20.607
11
6.077
21
-20.607
0
LINE
8
медь верх
10
6.077
20
-20.607
11
6.077
21
-20.607
0
LINE
8
медь верх
10
6.077
20
-20.607
11
6.040
21
-20.632
0
LINE
8
медь верх
10
6.040
20
-20.632
11
6.003
21
-20.657
0
LINE
8
медь верх
10
6.003
20
-20.657
11
6.002
21
-20.657
0
LINE
8
медь верх
10
6.002
20
-20.657
11
6.002
21
-20.657
0
LINE
8
медь верх
10
6.002
20
-20.657
11
5.959
21
-20.666
0
LINE
8
медь верх
10
5.959
20
-20.666
11
5.915
21
-20.675
0
LINE
8
медь верх
10
5.915
20
-20.675
11
5.915
21
-20.675
0
LINE
8
медь верх
10
5.915
20
-20.675
11
5.914
21
-20.675
0
LINE
8
медь верх
10
5.914
20
-20.675
11
0.735
21
-20.675
0
LINE
8
медь верх
10
0.735
20
-20.675
11
0.647
21
-20.657
0
LINE
8
медь верх
10
0.647
20
-20.657
11
0.573
21
-20.607
0
LINE
8
медь верх
10
0.573
20
-20.607
11
0.573
21
-20.607
0
LINE
8
медь верх
10
0.573
20
-20.607
11
-0.129
21
-19.905
0
LINE
8
медь верх
10
-0.129
20
-19.905
11
-0.129
21
-19.905
0
LINE
8
медь верх
10
-0.129
20
-19.905
11
-0.129
21
-19.905
0
LINE
8
медь верх
10
-0.129
20
-19.905
11
-0.154
21
-19.868
0
LINE
8
медь верх
10
-0.154
20
-19.868
11
-0.179
21
-19.831
0
LINE
8
медь верх
10
-0.179
20
-19.831
11
-0.179
21
-19.831
0
LINE
8
медь верх
10
-0.179
20
-19.831
11
-0.179
21
-19.831
0
LINE
8
медь верх
10
-0.179
20
-19.831
11
-0.188
21
-19.787
0
LINE
8
медь верх
10
-0.188
20
-19.787
11
-0.197
21
-19.743
0
LINE
8
медь верх
10
-0.197
20
-19.743
11
-0.197
21
-19.743
0
LINE
8
медь верх
10
-0.197
20
-19.743
11
-0.197
21
-19.743
0
LINE
8
медь верх
10
-0.197
20
-19.743
11
-0.196
21
-14.007
0
LINE
8
медь верх
10
-0.196
20
-14.007
11
-5.694
21
-14.007
0
LINE
8
медь верх
10
-5.694
20
-14.007
11
-6.430
21
-14.744
0
LINE
8
медь верх
10
-6.430
20
-14.744
11
-6.430
21
-15.964
0
LINE
8
медь верх
10
-6.430
20
-15.964
11
-6.242
21
-15.964
0
LINE
8
медь верх
10
-6.242
20
-15.964
11
-6.134
21
-16.072
0
LINE
8
медь верх
10
-6.134
20
-16.072
11
-6.134
21
-16.210
0
LINE
8
медь верх
10
-6.134
20
-16.210
11
-3.967
21
-16.210
0
LINE
8
медь верх
10
-3.967
20
-16.210
11
-3.819
21
-16.063
0
LINE
8
медь верх
10
-3.819
20
-16.063
11
-1.981
21
-16.063
0
LINE
8
медь верх
10
-1.981
20
-16.063
11
-1.773
21
-16.271
0
LINE
8
медь верх
10
-1.773
20
-16.271
11
-1.773
21
-16.609
0
LINE
8
медь верх
10
-1.773
20
-16.609
11
-1.981
21
-16.817
0
LINE
8
медь верх
10
-1.981
20
-16.817
11
-3.819
21
-16.817
0
LINE
8
медь верх
10
-3.819
20
-16.817
11
-3.967
21
-16.670
0
LINE
8
медь верх
10
-3.967
20
-16.670
11
-6.134
21
-16.670
0
LINE
8
медь верх
10
-6.134
20
-16.670
11
-6.134
21
-16.808
0
LINE
8
медь верх
10
-6.134
20
-16.808
11
-6.242
21
-16.916
0
LINE
8
медь верх
10
-6.242
20
-16.916
11
-7.078
21
-16.916
0
LINE
8
медь верх
10
-7.078
20
-16.916
11
-7.186
21
-16.808
0
LINE
8
медь верх
10
-7.186
20
-16.808
11
-7.186
21
-16.670
0
LINE
8
медь верх
10
-7.186
20
-16.670
11
-9.389
21
-16.670
0
LINE
8
медь верх
10
-9.389
20
-16.670
11
-10.170
21
-17.451
0
LINE
8
медь верх
10
-10.170
20
-17.451
11
-10.170
21
-18.369
0
LINE
8
медь верх
10
-10.170
20
-18.369
11
-9.941
21
-18.369
0
LINE
8
медь верх
10
-9.941
20
-18.369
11
-9.369
21
-18.941
0
LINE
8
медь верх
10
-9.369
20
-18.941
11
-9.369
21
-19.859
0
LINE
8
медь верх
10
-9.369
20
-19.859
11
-9.941
21
-20.431
0
LINE
8
медь верх
10
-9.941
20
-20.431
11
-10.859
21
-20.431
0
LINE
8
медь верх
10
-10.859
20
-20.431
11
-11.431
21
-19.859
0
LINE
8
медь верх
10
-11.431
20
-19.859
11
-11.431
21
-18.941
0
LINE
8
медь верх
10
-11.431
20
-18.941
11
-10.859
21
-18.369
0
LINE
8
медь верх
10
-10.859
20
-18.369
11
-10.630
21
-18.369
0
LINE
8
медь верх
10
-10.630
20
-18.369
11
-10.630
21
-17.356
0
LINE
8
медь верх
10
-10.630
20
-17.356
11
-10.616
21
-17.285
0
LINE
8
медь верх
10
-10.616
20
-17.285
11
-10.612
21
-17.268
0
LINE
8
медь верх
10
-10.612
20
-17.268
11
-10.592
21
-17.238
0
LINE
8
медь верх
10
-10.592
20
-17.238
11
-10.562
21
-17.193
0
LINE
8
медь верх
10
-10.562
20
-17.193
11
-10.562
21
-17.193
0
LINE
8
медь верх
10
-10.562
20
-17.193
11
-9.647
21
-16.278
0
LINE
8
медь верх
10
-9.647
20
-16.278
11
-9.622
21
-16.261
0
LINE
8
медь верх
10
-9.622
20
-16.261
11
-9.572
21
-16.228
0
LINE
8
медь верх
10
-9.572
20
-16.228
11
-9.484
21
-16.210
0
LINE
8
медь верх
10
-9.484
20
-16.210
11
-7.186
21
-16.210
0
LINE
8
медь верх
10
-7.186
20
-16.210
11
-7.186
21
-16.072
0
LINE
8
медь верх
10
-7.186
20
-16.072
11
-7.078
21
-15.964
0
LINE
8
медь верх
10
-7.078
20
-15.964
11
-6.890
21
-15.964
0
LINE
8
медь верх
10
-6.890
20
-15.964
11
-6.889
21
-14.649
0
LINE
8
медь верх
10
-6.889
20
-14.649
11
-6.881
21
-14.605
0
LINE
8
медь верх
10
-6.881
20
-14.605
11
-6.872
21
-14.561
0
LINE
8
медь верх
10
-6.872
20
-14.561
11
-6.872
21
-14.561
0
LINE
8
медь верх
10
-6.872
20
-14.561
11
-6.872
21
-14.561
0
LINE
8
медь верх
10
-6.872
20
-14.561
11
-6.850
21
-14.528
0
LINE
8
медь верх
10
-6.850
20
-14.528
11
-6.822
21
-14.486
0
LINE
8
медь верх
10
-6.822
20
-14.486
11
-5.951
21
-13.615
0
LINE
8
медь верх
10
-5.951
20
-13.615
11
-5.905
21
-13.584
0
LINE
8
медь верх
10
-5.905
20
-13.584
11
-5.877
21
-13.566
0
LINE
8
медь верх
10
-5.877
20
-13.566
11
-5.877
21
-13.566
0
LINE
8
медь верх
10
-5.877
20
-13.566
11
-5.877
21
-13.566
0
LINE
8
медь верх
10
-5.877
20
-13.566
11
-5.841
21
-13.558
0
LINE
8
медь верх
10
-5.841
20
-13.558
11
-5.789
21
-13.548
0
LINE
8
медь верх
10
-5.789
20
-13.548
11
0.034
21
-13.548
0
LINE
8
медь верх
10
0.034
20
-13.548
11
0.034
21
-13.548
0
LINE
8
медь верх
10
0.034
20
-13.548
11
0.034
21
-13.548
0
LINE
8
медь верх
10
0.034
20
-13.548
11
0.034
21
-13.548
0
LINE
8
медь верх
10
0.034
20
-13.548
11
0.034
21
-13.548
0
LINE
8
медь верх
10
0.034
20
-13.548
11
0.034
21
-13.548
0
LINE
8
медь верх
10
-1.775
20
-15.565
11
-1.775
21
-14.815
0
LINE
8
медь верх
10
-1.775
20
-14.815
11
-4.025
21
-14.815
0
LINE
8
медь верх
10
-4.025
20
-14.815
11
-4.025
21
-15.565
0
LINE
8
медь верх
10
-4.025
20
-15.565
11
-1.775
21
-15.565
0
LINE
8
медь верх
10
-1.981
20
-18.117
11
-1.773
21
-17.909
0
LINE
8
медь верх
10
-1.773
20
-17.909
11
-1.773
21
-17.571
0
LINE
8
медь верх
10
-1.773
20
-17.571
11
-1.981
21
-17.363
0
LINE
8
медь верх
10
-1.981
20
-17.363
11
-3.819
21
-17.363
0
LINE
8
медь верх
10
-3.819
20
-17.363
11
-4.027
21
-17.571
0
LINE
8
медь верх
10
-4.027
20
-17.571
11
-4.027
21
-17.909
0
LINE
8
медь верх
10
-4.027
20
-17.909
11
-3.819
21
-18.117
0
LINE
8
медь верх
10
-3.819
20
-18.117
11
-1.981
21
-18.117
0
LINE
8
медь верх
10
3.819
20
-19.367
11
4.027
21
-19.159
0
LINE
8
медь верх
10
4.027
20
-19.159
11
4.027
21
-18.821
0
LINE
8
медь верх
10
4.027
20
-18.821
11
3.819
21
-18.613
0
LINE
8
медь верх
10
3.819
20
-18.613
11
1.981
21
-18.613
0
LINE
8
медь верх
10
1.981
20
-18.613
11
1.773
21
-18.821
0
LINE
8
медь верх
10
1.773
20
-18.821
11
1.773
21
-19.159
0
LINE
8
медь верх
10
1.773
20
-19.159
11
1.981
21
-19.367
0
LINE
8
медь верх
10
1.981
20
-19.367
11
3.819
21
-19.367
0
LINE
8
медь верх
10
3.819
20
-15.567
11
4.027
21
-15.359
0
LINE
8
медь верх
10
4.027
20
-15.359
11
4.027
21
-15.021
0
LINE
8
медь верх
10
4.027
20
-15.021
11
3.819
21
-14.813
0
LINE
8
медь верх
10
3.819
20
-14.813
11
1.981
21
-14.813
0
LINE
8
медь верх
10
1.981
20
-14.813
11
1.773
21
-15.021
0
LINE
8
медь верх
10
1.773
20
-15.021
11
1.773
21
-15.359
0
LINE
8
медь верх
10
1.773
20
-15.359
11
1.981
21
-15.567
0
LINE
8
медь верх
10
1.981
20
-15.567
11
3.819
21
-15.567
0
LINE
8
медь верх
10
-12.471
20
-23.961
11
12.471
21
-23.959
0
LINE
8
медь верх
10
-12.471
20
-23.920
11
12.471
21
-23.918
0
LINE
8
медь верх
10
-12.471
20
-23.880
11
12.471
21
-23.877
0
LINE
8
медь верх
10
-12.471
20
-23.840
11
12.471
21
-23.838
0
LINE
8
медь верх
10
-12.471
20
-23.800
11
12.471
21
-23.797
0
LINE
8
медь верх
10
-12.471
20
-23.759
11
12.471
21
-23.757
0
LINE
8
медь верх
10
-12.471
20
-23.719
11
12.471
21
-23.716
0
LINE
8
медь верх
10
-12.471
20
-23.679
11
12.471
21
-23.677
0
LINE
8
медь верх
10
-12.471
20
-23.639
11
12.471
21
-23.636
0
LINE
8
медь верх
10
-12.471
20
-23.598
11
12.471
21
-23.595
0
LINE
8
медь верх
10
-12.471
20
-23.558
11
12.471
21
-23.556
0
LINE
8
медь верх
10
-12.471
20
-23.518
11
12.471
21
-23.515
0
LINE
8
медь верх
10
-12.471
20
-23.477
11
12.471
21
-23.475
0
LINE
8
медь верх
10
-12.471
20
-23.438
11
12.471
21
-23.435
0
LINE
8
медь верх
10
-12.471
20
-23.397
11
12.471
21
-23.395
0
LINE
8
медь верх
10
12.471
20
-23.354
11
9.956
21
-23.354
0
LINE
8
медь верх
10
-11.834
20
-23.357
11
-12.471
21
-23.357
0
LINE
8
медь верх
10
12.471
20
-23.315
11
9.987
21
-23.315
0
LINE
8
медь верх
10
-11.868
20
-23.316
11
-12.471
21
-23.316
0
LINE
8
медь верх
10
12.471
20
-23.274
11
10.000
21
-23.274
0
LINE
8
медь верх
10
-11.881
20
-23.277
11
-12.471
21
-23.277
0
LINE
8
медь верх
10
12.471
20
-23.233
11
9.997
21
-23.233
0
LINE
8
медь верх
10
-11.885
20
-23.236
11
-12.471
21
-23.236
0
LINE
8
медь верх
10
12.471
20
-23.193
11
9.983
21
-23.194
0
LINE
8
медь верх
10
-11.885
20
-23.195
11
-12.471
21
-23.195
0
LINE
8
медь верх
10
12.471
20
-23.153
11
9.952
21
-23.153
0
LINE
8
медь верх
10
-11.885
20
-23.156
11
-12.471
21
-23.156
0
LINE
8
медь верх
10
12.471
20
-23.113
11
9.911
21
-23.113
0
LINE
8
медь верх
10
-11.885
20
-23.115
11
-12.471
21
-23.115
0
LINE
8
медь верх
10
12.471
20
-23.072
11
9.870
21
-23.073
0
LINE
8
медь верх
10
-11.885
20
-23.075
11
-12.471
21
-23.075
0
LINE
8
медь верх
10
12.471
20
-23.033
11
9.831
21
-23.033
0
LINE
8
медь верх
10
-11.885
20
-23.035
11
-12.471
21
-23.035
0
LINE
8
медь верх
10
12.471
20
-22.992
11
9.790
21
-22.992
0
LINE
8
медь верх
10
-11.885
20
-22.995
11
-12.471
21
-22.995
0
LINE
8
медь верх
10
12.471
20
-22.951
11
9.750
21
-22.951
0
LINE
8
медь верх
10
-11.885
20
-22.954
11
-12.471
21
-22.954
0
LINE
8
медь верх
10
12.471
20
-22.912
11
10.978
21
-22.912
0
LINE
8
медь верх
10
10.022
20
-22.912
11
9.709
21
-22.912
0
LINE
8
медь верх
10
-11.885
20
-22.913
11
-12.471
21
-22.915
0
LINE
8
медь верх
10
12.471
20
-22.871
11
11.017
21
-22.871
0
LINE
8
медь верх
10
9.981
20
-22.871
11
9.670
21
-22.871
0
LINE
8
медь верх
10
-11.885
20
-22.874
11
-12.471
21
-22.874
0
LINE
8
медь верх
10
12.471
20
-22.831
11
11.058
21
-22.831
0
LINE
8
медь верх
10
9.942
20
-22.831
11
9.629
21
-22.831
0
LINE
8
медь верх
10
-11.885
20
-22.833
11
-12.471
21
-22.833
0
LINE
8
медь верх
10
12.471
20
-22.790
11
11.099
21
-22.791
0
LINE
8
медь верх
10
9.901
20
-22.791
11
9.588
21
-22.791
0
LINE
8
медь верх
10
-11.885
20
-22.793
11
-12.471
21
-22.793
0
LINE
8
медь верх
10
12.471
20
-22.751
11
11.138
21
-22.751
0
LINE
8
медь верх
10
9.860
20
-22.751
11
9.549
21
-22.751
0
LINE
8
медь верх
10
-11.885
20
-22.753
11
-12.471
21
-22.753
0
LINE
8
медь верх
10
12.471
20
-22.710
11
11.179
21
-22.710
0
LINE
8
медь верх
10
9.820
20
-22.710
11
9.508
21
-22.710
0
LINE
8
медь верх
10
-11.885
20
-22.713
11
-12.471
21
-22.713
0
LINE
8
медь верх
10
12.471
20
-22.669
11
11.219
21
-22.669
0
LINE
8
медь верх
10
9.780
20
-22.671
11
9.468
21
-22.671
0
LINE
8
медь верх
10
-11.885
20
-22.672
11
-12.471
21
-22.672
0
LINE
8
медь верх
10
12.471
20
-22.630
11
11.259
21
-22.630
0
LINE
8
медь верх
10
9.740
20
-22.630
11
9.428
21
-22.630
0
LINE
8
медь верх
10
-11.885
20
-22.633
11
-12.471
21
-22.633
0
LINE
8
медь верх
10
12.471
20
-22.589
11
11.299
21
-22.589
0
LINE
8
медь верх
10
9.699
20
-22.589
11
9.388
21
-22.589
0
LINE
8
медь верх
10
-11.885
20
-22.592
11
-12.471
21
-22.592
0
LINE
8
медь верх
10
12.471
20
-22.549
11
11.340
21
-22.549
0
LINE
8
медь верх
10
9.660
20
-22.550
11
9.347
21
-22.550
0
LINE
8
медь верх
10
-11.885
20
-22.551
11
-12.471
21
-22.551
0
LINE
8
медь верх
10
12.471
20
-22.509
11
11.380
21
-22.509
0
LINE
8
медь верх
10
9.619
20
-22.509
11
9.308
21
-22.509
0
LINE
8
медь верх
10
-11.885
20
-22.512
11
-12.471
21
-22.512
0
LINE
8
медь верх
10
12.471
20
-22.469
11
11.420
21
-22.469
0
LINE
8
медь верх
10
9.578
20
-22.469
11
9.267
21
-22.469
0
LINE
8
медь верх
10
-11.885
20
-22.471
11
-12.471
21
-22.471
0
LINE
8
медь верх
10
12.471
20
-22.428
11
11.460
21
-22.428
0
LINE
8
медь верх
10
9.539
20
-22.428
11
9.267
21
-22.428
0
LINE
8
медь верх
10
-11.885
20
-22.431
11
-12.471
21
-22.431
0
LINE
8
медь верх
10
12.471
20
-22.389
11
11.501
21
-22.389
0
LINE
8
медь верх
10
9.498
20
-22.389
11
9.267
21
-22.389
0
LINE
8
медь верх
10
-11.885
20
-22.390
11
-12.471
21
-22.390
0
LINE
8
медь верх
10
12.471
20
-22.348
11
11.530
21
-22.348
0
LINE
8
медь верх
10
9.468
20
-22.348
11
9.267
21
-22.348
0
LINE
8
медь верх
10
-11.885
20
-22.351
11
-12.471
21
-22.351
0
LINE
8
медь верх
10
12.471
20
-22.308
11
11.530
21
-22.308
0
LINE
8
медь верх
10
9.468
20
-22.308
11
9.267
21
-22.308
0
LINE
8
медь верх
10
-11.885
20
-22.310
11
-12.471
21
-22.310
0
LINE
8
медь верх
10
12.471
20
-22.267
11
11.530
21
-22.267
0
LINE
8
медь верх
10
9.468
20
-22.268
11
9.267
21
-22.268
0
LINE
8
медь верх
10
-11.885
20
-22.269
11
-12.471
21
-22.269
0
LINE
8
медь верх
10
12.471
20
-22.228
11
11.530
21
-22.228
0
LINE
8
медь верх
10
9.468
20
-22.228
11
9.267
21
-22.228
0
LINE
8
медь верх
10
-11.885
20
-22.230
11
-12.471
21
-22.230
0
LINE
8
медь верх
10
12.471
20
-22.187
11
11.530
21
-22.187
0
LINE
8
медь верх
10
9.468
20
-22.187
11
9.267
21
-22.187
0
LINE
8
медь верх
10
-11.885
20
-22.189
11
-12.471
21
-22.189
0
LINE
8
медь верх
10
12.471
20
-22.146
11
11.530
21
-22.146
0
LINE
8
медь верх
10
9.468
20
-22.148
11
9.267
21
-22.148
0
LINE
8
медь верх
10
-11.885
20
-22.149
11
-12.471
21
-22.149
0
LINE
8
медь верх
10
12.471
20
-22.107
11
11.530
21
-22.107
0
LINE
8
медь верх
10
9.468
20
-22.107
11
9.267
21
-22.107
0
LINE
8
медь верх
10
-11.885
20
-22.109
11
-12.471
21
-22.109
0
LINE
8
медь верх
10
12.471
20
-22.066
11
11.530
21
-22.066
0
LINE
8
медь верх
10
9.468
20
-22.066
11
9.267
21
-22.066
0
LINE
8
медь верх
10
-11.885
20
-22.069
11
-12.471
21
-22.069
0
LINE
8
медь верх
10
12.471
20
-22.026
11
11.530
21
-22.026
0
LINE
8
медь верх
10
9.468
20
-22.026
11
9.267
21
-22.027
0
LINE
8
медь верх
10
-11.885
20
-22.028
11
-12.471
21
-22.028
0
LINE
8
медь верх
10
12.471
20
-21.986
11
11.530
21
-21.986
0
LINE
8
медь верх
10
9.468
20
-21.986
11
9.267
21
-21.986
0
LINE
8
медь верх
10
-11.885
20
-21.988
11
-12.471
21
-21.989
0
LINE
8
медь верх
10
12.471
20
-21.946
11
11.530
21
-21.946
0
LINE
8
медь верх
10
9.468
20
-21.946
11
9.267
21
-21.946
0
LINE
8
медь верх
10
-11.885
20
-21.948
11
-12.471
21
-21.948
0
LINE
8
медь верх
10
12.471
20
-21.905
11
11.530
21
-21.905
0
LINE
8
медь верх
10
9.468
20
-21.905
11
9.267
21
-21.905
0
LINE
8
медь верх
10
-11.885
20
-21.907
11
-12.471
21
-21.907
0
LINE
8
медь верх
10
12.471
20
-21.864
11
11.530
21
-21.866
0
LINE
8
медь верх
10
9.468
20
-21.866
11
9.267
21
-21.866
0
LINE
8
медь верх
10
-11.885
20
-21.867
11
-12.471
21
-21.867
0
LINE
8
медь верх
10
12.471
20
-21.825
11
11.530
21
-21.825
0
LINE
8
медь верх
10
9.468
20
-21.825
11
9.267
21
-21.825
0
LINE
8
медь верх
10
-11.885
20
-21.827
11
-12.471
21
-21.827
0
LINE
8
медь верх
10
12.471
20
-21.784
11
11.530
21
-21.784
0
LINE
8
медь верх
10
9.468
20
-21.784
11
9.267
21
-21.784
0
LINE
8
медь верх
10
-11.885
20
-21.787
11
-12.471
21
-21.787
0
LINE
8
медь верх
10
12.471
20
-21.744
11
11.530
21
-21.744
0
LINE
8
медь верх
10
9.468
20
-21.745
11
9.267
21
-21.745
0
LINE
8
медь верх
10
-11.885
20
-21.746
11
-12.471
21
-21.746
0
LINE
8
медь верх
10
12.471
20
-21.704
11
11.530
21
-21.704
0
LINE
8
медь верх
10
9.468
20
-21.704
11
9.267
21
-21.704
0
LINE
8
медь верх
10
-11.885
20
-21.707
11
-12.471
21
-21.707
0
LINE
8
медь верх
10
12.471
20
-21.664
11
11.530
21
-21.664
0
LINE
8
медь верх
10
9.468
20
-21.664
11
9.267
21
-21.664
0
LINE
8
медь верх
10
-9.227
20
-21.666
11
-9.369
21
-21.666
0
LINE
8
медь верх
10
-11.430
20
-21.666
11
-11.572
21
-21.666
0
LINE
8
медь верх
10
-11.885
20
-21.666
11
-12.471
21
-21.666
0
LINE
8
медь верх
10
12.471
20
-21.623
11
11.530
21
-21.623
0
LINE
8
медь верх
10
9.468
20
-21.624
11
9.267
21
-21.624
0
LINE
8
медь верх
10
-9.227
20
-21.626
11
-9.369
21
-21.626
0
LINE
8
медь верх
10
-11.430
20
-21.626
11
-11.572
21
-21.626
0
LINE
8
медь верх
10
-11.885
20
-21.626
11
-12.471
21
-21.626
0
LINE
8
медь верх
10
12.471
20
-21.584
11
11.530
21
-21.584
0
LINE
8
медь верх
10
9.468
20
-21.584
11
9.267
21
-21.584
0
LINE
8
медь верх
10
-9.227
20
-21.585
11
-9.369
21
-21.585
0
LINE
8
медь верх
10
-11.430
20
-21.585
11
-11.572
21
-21.585
0
LINE
8
медь верх
10
-11.885
20
-21.586
11
-12.471
21
-21.586
0
LINE
8
медь верх
10
12.471
20
-21.543
11
11.530
21
-21.543
0
LINE
8
медь верх
10
9.468
20
-21.543
11
9.267
21
-21.543
0
LINE
8
медь верх
10
-9.227
20
-21.546
11
-9.369
21
-21.546
0
LINE
8
медь верх
10
-11.430
20
-21.546
11
-11.572
21
-21.546
0
LINE
8
медь верх
10
-11.885
20
-21.546
11
-12.471
21
-21.546
0
LINE
8
медь верх
10
12.471
20
-21.502
11
11.530
21
-21.502
0
LINE
8
медь верх
10
9.468
20
-21.502
11
9.267
21
-21.502
0
LINE
8
медь верх
10
-9.227
20
-21.505
11
-9.369
21
-21.505
0
LINE
8
медь верх
10
-11.430
20
-21.505
11
-11.572
21
-21.505
0
LINE
8
медь верх
10
-11.885
20
-21.505
11
-12.471
21
-21.505
0
LINE
8
медь верх
10
12.471
20
-21.463
11
11.530
21
-21.463
0
LINE
8
медь верх
10
9.468
20
-21.463
11
9.267
21
-21.463
0
LINE
8
медь верх
10
-9.227
20
-21.464
11
-9.369
21
-21.464
0
LINE
8
медь верх
10
-11.430
20
-21.464
11
-11.572
21
-21.464
0
LINE
8
медь верх
10
-11.885
20
-21.464
11
-12.471
21
-21.464
0
LINE
8
медь верх
10
12.471
20
-21.422
11
11.513
21
-21.422
0
LINE
8
медь верх
10
9.486
20
-21.422
11
9.267
21
-21.422
0
LINE
8
медь верх
10
-9.227
20
-21.425
11
-9.384
21
-21.425
0
LINE
8
медь верх
10
-11.415
20
-21.425
11
-11.572
21
-21.425
0
LINE
8
медь верх
10
-11.885
20
-21.425
11
-12.471
21
-21.425
0
LINE
8
медь верх
10
12.471
20
-21.382
11
11.472
21
-21.382
0
LINE
8
медь верх
10
9.526
20
-21.382
11
9.267
21
-21.382
0
LINE
8
медь верх
10
-9.230
20
-21.384
11
-9.425
21
-21.384
0
LINE
8
медь верх
10
-11.374
20
-21.384
11
-11.568
21
-21.384
0
LINE
8
медь верх
10
-11.885
20
-21.384
11
-12.471
21
-21.384
0
LINE
8
медь верх
10
12.471
20
-21.341
11
11.433
21
-21.341
0
LINE
8
медь верх
10
9.567
20
-21.342
11
9.267
21
-21.342
0
LINE
8
медь верх
10
-9.271
20
-21.344
11
-9.464
21
-21.344
0
LINE
8
медь верх
10
-11.335
20
-21.344
11
-11.528
21
-21.344
0
LINE
8
медь верх
10
-11.885
20
-21.344
11
-12.471
21
-21.344
0
LINE
8
медь верх
10
12.471
20
-21.302
11
11.392
21
-21.302
0
LINE
8
медь верх
10
9.577
20
-21.302
11
9.267
21
-21.302
0
LINE
8
медь верх
10
-9.312
20
-21.303
11
-9.505
21
-21.303
0
LINE
8
медь верх
10
-11.294
20
-21.304
11
-11.487
21
-21.304
0
LINE
8
медь верх
10
-11.885
20
-21.304
11
-12.471
21
-21.304
0
LINE
8
медь верх
10
12.471
20
-21.261
11
11.351
21
-21.261
0
LINE
8
медь верх
10
9.536
20
-21.261
11
9.265
21
-21.261
0
LINE
8
медь верх
10
-9.352
20
-21.264
11
-9.545
21
-21.264
0
LINE
8
медь верх
10
-11.253
20
-21.264
11
-11.448
21
-21.264
0
LINE
8
медь верх
10
-11.885
20
-21.264
11
-12.471
21
-21.264
0
LINE
8
медь верх
10
12.471
20
-21.220
11
11.311
21
-21.220
0
LINE
8
медь верх
10
9.497
20
-21.222
11
9.254
21
-21.222
0
LINE
8
медь верх
10
-9.392
20
-21.223
11
-9.586
21
-21.223
0
LINE
8
медь верх
10
-11.214
20
-21.223
11
-11.407
21
-21.223
0
LINE
8
медь верх
10
-11.885
20
-21.223
11
-12.471
21
-21.223
0
LINE
8
медь верх
10
12.471
20
-21.181
11
11.271
21
-21.181
0
LINE
8
медь верх
10
9.456
20
-21.181
11
9.225
21
-21.181
0
LINE
8
медь верх
10
-9.432
20
-21.182
11
-9.625
21
-21.182
0
LINE
8
медь верх
10
-11.173
20
-21.182
11
-11.367
21
-21.184
0
LINE
8
медь верх
10
-11.885
20
-21.184
11
-12.471
21
-21.184
0
LINE
8
медь верх
10
12.471
20
-21.140
11
11.231
21
-21.140
0
LINE
8
медь верх
10
9.416
20
-21.140
11
9.186
21
-21.140
0
LINE
8
медь верх
10
-9.473
20
-21.143
11
-9.666
21
-21.143
0
LINE
8
медь верх
10
-11.133
20
-21.143
11
-11.326
21
-21.143
0
LINE
8
медь верх
10
-11.885
20
-21.143
11
-12.471
21
-21.143
0
LINE
8
медь верх
10
12.471
20
-21.100
11
11.190
21
-21.100
0
LINE
8
медь верх
10
9.375
20
-21.100
11
9.145
21
-21.101
0
LINE
8
медь верх
10
-9.512
20
-21.102
11
-9.707
21
-21.102
0
LINE
8
медь верх
10
-11.092
20
-21.102
11
-11.286
21
-21.102
0
LINE
8
медь верх
10
-11.885
20
-21.102
11
-12.471
21
-21.102
0
LINE
8
медь верх
10
12.471
20
-21.060
11
11.151
21
-21.060
0
LINE
8
медь верх
10
9.336
20
-21.060
11
9.105
21
-21.060
0
LINE
8
медь верх
10
-9.553
20
-21.062
11
-9.746
21
-21.062
0
LINE
8
медь верх
10
-11.053
20
-21.062
11
-11.246
21
-21.062
0
LINE
8
медь верх
10
-11.885
20
-21.062
11
-12.471
21
-21.063
0
LINE
8
медь верх
10
12.471
20
-21.020
11
11.110
21
-21.020
0
LINE
8
медь верх
10
9.295
20
-21.020
11
9.065
21
-21.020
0
LINE
8
медь верх
10
-9.594
20
-21.022
11
-9.787
21
-21.022
0
LINE
8
медь верх
10
-11.012
20
-21.022
11
-11.205
21
-21.022
0
LINE
8
медь верх
10
-11.885
20
-21.022
11
-12.471
21
-21.022
0
LINE
8
медь верх
10
12.471
20
-20.979
11
11.069
21
-20.979
0
LINE
8
медь верх
10
9.254
20
-20.979
11
9.025
21
-20.979
0
LINE
8
медь верх
10
-9.633
20
-20.982
11
-9.827
21
-20.982
0
LINE
8
медь верх
10
-10.972
20
-20.982
11
-11.166
21
-20.982
0
LINE
8
медь верх
10
-11.885
20
-20.982
11
-12.471
21
-20.982
0
LINE
8
медь верх
10
12.471
20
-20.938
11
11.030
21
-20.940
0
LINE
8
медь верх
10
9.970
20
-20.940
11
9.864
21
-20.940
0
LINE
8
медь верх
10
9.215
20
-20.940
11
8.984
21
-20.940
0
LINE
8
медь верх
10
-9.674
20
-20.941
11
-9.867
21
-20.941
0
LINE
8
медь верх
10
-10.932
20
-20.941
11
-11.125
21
-20.941
0
LINE
8
медь верх
10
-11.885
20
-20.941
11
-12.471
21
-20.941
0
LINE
8
медь верх
10
12.471
20
-20.899
11
10.989
21
-20.899
0
LINE
8
медь верх
10
10.009
20
-20.899
11
9.823
21
-20.899
0
LINE
8
медь верх
10
9.174
20
-20.899
11
8.943
21
-20.899
0
LINE
8
медь верх
10
-9.714
20
-20.902
11
-9.907
21
-20.902
0
LINE
8
медь верх
10
-10.892
20
-20.902
11
-11.085
21
-20.902
0
LINE
8
медь верх
10
-11.885
20
-20.902
11
-12.471
21
-20.902
0
LINE
8
медь верх
10
12.471
20
-20.858
11
9.784
21
-20.858
0
LINE
8
медь верх
10
9.134
20
-20.858
11
8.904
21
-20.858
0
LINE
8
медь верх
10
-9.754
20
-20.861
11
-11.045
21
-20.861
0
LINE
8
медь верх
10
-11.885
20
-20.861
11
-12.471
21
-20.861
0
LINE
8
медь верх
10
12.471
20
-20.818
11
9.743
21
-20.819
0
LINE
8
медь верх
10
9.094
20
-20.819
11
8.863
21
-20.819
0
LINE
8
медь верх
10
5.992
20
-20.819
11
0.659
21
-20.819
0
LINE
8
медь верх
10
-9.794
20
-20.820
11
-11.005
21
-20.820
0
LINE
8
медь верх
10
-11.885
20
-20.820
11
-12.471
21
-20.820
0
LINE
8
медь верх
10
12.471
20
-20.778
11
9.703
21
-20.778
0
LINE
8
медь верх
10
9.054
20
-20.778
11
8.823
21
-20.778
0
LINE
8
медь верх
10
6.102
20
-20.778
11
0.547
21
-20.780
0
LINE
8
медь верх
10
-9.829
20
-20.780
11
-10.970
21
-20.781
0
LINE
8
медь верх
10
-11.885
20
-20.781
11
-12.471
21
-20.781
0
LINE
8
медь верх
10
12.471
20
-20.738
11
9.662
21
-20.738
0
LINE
8
медь верх
10
9.013
20
-20.738
11
8.783
21
-20.738
0
LINE
8
медь верх
10
6.162
20
-20.738
11
0.486
21
-20.739
0
LINE
8
медь верх
10
-9.848
20
-20.740
11
-10.951
21
-20.740
0
LINE
8
медь верх
10
-11.885
20
-20.740
11
-12.471
21
-20.740
0
LINE
8
медь верх
10
12.471
20
-20.697
11
9.623
21
-20.698
0
LINE
8
медь верх
10
8.974
20
-20.698
11
8.743
21
-20.698
0
LINE
8
медь верх
10
6.215
20
-20.698
11
0.434
21
-20.698
0
LINE
8
медь верх
10
-9.851
20
-20.700
11
-10.947
21
-20.700
0
LINE
8
медь верх
10
-11.885
20
-20.700
11
-12.471
21
-20.700
0
LINE
8
медь верх
10
12.471
20
-20.658
11
9.582
21
-20.658
0
LINE
8
медь верх
10
8.933
20
-20.658
11
8.702
21
-20.658
0
LINE
8
медь верх
10
6.255
20
-20.658
11
5.994
21
-20.658
0
LINE
8
медь верх
10
0.657
20
-20.659
11
0.394
21
-20.659
0
LINE
8
медь верх
10
-9.844
20
-20.659
11
-10.955
21
-20.659
0
LINE
8
медь верх
10
-11.885
20
-20.660
11
-12.471
21
-20.660
0
LINE
8
медь верх
10
12.471
20
-20.617
11
9.542
21
-20.617
0
LINE
8
медь верх
10
8.893
20
-20.617
11
8.663
21
-20.617
0
LINE
8
медь верх
10
6.295
20
-20.617
11
6.060
21
-20.617
0
LINE
8
медь верх
10
0.589
20
-20.618
11
0.353
21
-20.618
0
LINE
8
медь верх
10
-9.817
20
-20.620
11
-10.982
21
-20.620
0
LINE
8
медь верх
10
-11.885
20
-20.620
11
-12.471
21
-20.620
0
LINE
8
медь верх
10
12.471
20
-20.577
11
9.502
21
-20.577
0
LINE
8
медь верх
10
8.852
20
-20.577
11
8.622
21
-20.577
0
LINE
8
медь верх
10
6.336
20
-20.578
11
6.105
21
-20.578
0
LINE
8
медь верх
10
0.544
20
-20.578
11
0.312
21
-20.578
0
LINE
8
медь верх
10
-9.776
20
-20.579
11
-11.021
21
-20.579
0
LINE
8
медь верх
10
-11.885
20
-20.579
11
-12.471
21
-20.579
0
LINE
8
медь верх
10
12.471
20
-20.536
11
9.461
21
-20.537
0
LINE
8
медь верх
10
8.813
20
-20.537
11
8.581
21
-20.537
0
LINE
8
медь верх
10
6.375
20
-20.537
11
6.146
21
-20.537
0
LINE
8
медь верх
10
0.503
20
-20.537
11
0.273
21
-20.537
0
LINE
8
медь верх
10
-9.737
20
-20.538
11
-11.062
21
-20.538
0
LINE
8
медь верх
10
-11.885
20
-20.538
11
-12.471
21
-20.538
0
LINE
8
медь верх
10
12.471
20
-20.497
11
9.421
21
-20.497
0
LINE
8
медь верх
10
8.772
20
-20.497
11
8.542
21
-20.497
0
LINE
8
медь верх
10
6.416
20
-20.497
11
6.186
21
-20.497
0
LINE
8
медь верх
10
0.464
20
-20.498
11
0.232
21
-20.498
0
LINE
8
медь верх
10
-9.696
20
-20.499
11
-11.102
21
-20.499
0
LINE
8
медь верх
10
-11.885
20
-20.499
11
-12.471
21
-20.499
0
LINE
8
медь верх
10
12.471
20
-20.456
11
9.381
21
-20.456
0
LINE
8
медь верх
10
8.731
20
-20.456
11
8.501
21
-20.456
0
LINE
8
медь верх
10
6.457
20
-20.457
11
6.226
21
-20.457
0
LINE
8
медь верх
10
0.423
20
-20.457
11
0.192
21
-20.457
0
LINE
8
медь верх
10
-9.656
20
-20.458
11
-11.143
21
-20.458
0
LINE
8
медь верх
10
-11.885
20
-20.458
11
-12.471
21
-20.458
0
LINE
8
медь верх
10
12.471
20
-20.415
11
10.973
21
-20.417
0
LINE
8
медь верх
10
10.025
20
-20.417
11
9.341
21
-20.417
0
LINE
8
медь верх
10
8.692
20
-20.417
11
8.461
21
-20.417
0
LINE
8
медь верх
10
6.496
20
-20.417
11
6.266
21
-20.417
0
LINE
8
медь верх
10
0.382
20
-20.417
11
0.152
21
-20.417
0
LINE
8
медь верх
10
-9.616
20
-20.418
11
-9.928
21
-20.418
0
LINE
8
медь верх
10
-10.871
20
-20.418
11
-11.182
21
-20.418
0
LINE
8
медь верх
10
-11.885
20
-20.418
11
-12.471
21
-20.418
0
LINE
8
медь верх
10
12.471
20
-20.376
11
11.013
21
-20.376
0
LINE
8
медь верх
10
9.986
20
-20.376
11
9.300
21
-20.376
0
LINE
8
медь верх
10
8.651
20
-20.376
11
8.420
21
-20.376
0
LINE
8
медь верх
10
6.537
20
-20.376
11
6.306
21
-20.376
0
LINE
8
медь верх
10
0.342
20
-20.377
11
0.112
21
-20.377
0
LINE
8
медь верх
10
-9.576
20
-20.377
11
-9.887
21
-20.377
0
LINE
8
медь верх
10
-10.911
20
-20.378
11
-11.223
21
-20.378
0
LINE
8
медь верх
10
-11.885
20
-20.378
11
-12.471
21
-20.378
0
LINE
8
медь верх
10
12.471
20
-20.335
11
11.054
21
-20.335
0
LINE
8
медь верх
10
9.945
20
-20.335
11
9.261
21
-20.335
0
LINE
8
медь верх
10
8.611
20
-20.335
11
8.381
21
-20.335
0
LINE
8
медь верх
10
6.576
20
-20.335
11
6.346
21
-20.335
0
LINE
8
медь верх
10
0.302
20
-20.337
11
0.071
21
-20.337
0
LINE
8
медь верх
10
-9.535
20
-20.338
11
-9.848
21
-20.338
0
LINE
8
медь верх
10
-10.951
20
-20.338
11
-11.264
21
-20.338
0
LINE
8
медь верх
10
-11.885
20
-20.338
11
-12.471
21
-20.338
0
LINE
8
медь верх
10
12.471
20
-20.295
11
11.093
21
-20.295
0
LINE
8
медь верх
10
9.905
20
-20.296
11
9.220
21
-20.296
0
LINE
8
медь верх
10
8.571
20
-20.296
11
8.340
21
-20.296
0
LINE
8
медь верх
10
6.613
20
-20.296
11
6.387
21
-20.296
0
LINE
8
медь верх
10
0.262
20
-20.296
11
0.032
21
-20.296
0
LINE
8
медь верх
10
-9.496
20
-20.297
11
-9.807
21
-20.297
0
LINE
8
медь верх
10
-10.992
20
-20.297
11
-11.303
21
-20.297
0
LINE
8
медь верх
10
-11.885
20
-20.297
11
-12.471
21
-20.297
0
LINE
8
медь верх
10
12.471
20
-20.255
11
11.134
21
-20.255
0
LINE
8
медь верх
10
9.865
20
-20.255
11
9.180
21
-20.255
0
LINE
8
медь верх
10
8.531
20
-20.255
11
8.299
21
-20.255
0
LINE
8
медь верх
10
6.641
20
-20.255
11
6.426
21
-20.255
0
LINE
8
медь верх
10
0.221
20
-20.256
11
-0.008
21
-20.256
0
LINE
8
медь верх
10
-9.455
20
-20.256
11
-9.766
21
-20.256
0
LINE
8
медь верх
10
-11.032
20
-20.256
11
-11.344
21
-20.256
0
LINE
8
медь верх
10
-11.885
20
-20.258
11
-12.471
21
-20.258
0
LINE
8
медь верх
10
12.471
20
-20.215
11
11.175
21
-20.215
0
LINE
8
медь верх
10
9.825
20
-20.215
11
9.139
21
-20.215
0
LINE
8
медь верх
10
8.490
20
-20.215
11
8.260
21
-20.215
0
LINE
8
медь верх
10
6.667
20
-20.215
11
6.467
21
-20.215
0
LINE
8
медь верх
10
0.182
20
-20.216
11
-0.048
21
-20.216
0
LINE
8
медь верх
10
-9.415
20
-20.217
11
-9.727
21
-20.217
0
LINE
8
медь верх
10
-11.072
20
-20.217
11
-11.384
21
-20.217
0
LINE
8
медь верх
10
-11.885
20
-20.217
11
-12.471
21
-20.217
0
LINE
8
медь верх
10
12.471
20
-20.174
11
11.214
21
-20.174
0
LINE
8
медь верх
10
9.784
20
-20.174
11
9.100
21
-20.174
0
LINE
8
медь верх
10
8.449
20
-20.175
11
8.219
21
-20.175
0
LINE
8
медь верх
10
6.694
20
-20.175
11
6.505
21
-20.175
0
LINE
8
медь верх
10
5.859
20
-20.175
11
0.790
21
-20.175
0
LINE
8
медь верх
10
0.141
20
-20.175
11
-0.088
21
-20.175
0
LINE
8
медь верх
10
-9.374
20
-20.176
11
-9.686
21
-20.176
0
LINE
8
медь верх
10
-11.112
20
-20.176
11
-11.424
21
-20.176
0
LINE
8
медь верх
10
-11.885
20
-20.176
11
-12.471
21
-20.176
0
LINE
8
медь верх
10
12.471
20
-20.135
11
11.255
21
-20.135
0
LINE
8
медь верх
10
9.743
20
-20.135
11
9.059
21
-20.135
0
LINE
8
медь верх
10
8.410
20
-20.135
11
8.179
21
-20.135
0
LINE
8
медь верх
10
6.706
20
-20.135
11
6.532
21
-20.135
0
LINE
8
медь верх
10
5.898
20
-20.135
11
0.751
21
-20.135
0
LINE
8
медь верх
10
0.100
20
-20.136
11
-0.128
21
-20.136
0
LINE
8
медь верх
10
-9.335
20
-20.136
11
-9.646
21
-20.136
0
LINE
8
медь верх
10
-11.153
20
-20.136
11
-11.464
21
-20.136
0
LINE
8
медь верх
10
-11.885
20
-20.136
11
-12.471
21
-20.136
0
LINE
8
медь верх
10
12.471
20
-20.094
11
11.295
21
-20.094
0
LINE
8
медь верх
10
9.704
20
-20.094
11
9.018
21
-20.094
0
LINE
8
медь верх
10
8.369
20
-20.094
11
8.139
21
-20.094
0
LINE
8
медь верх
10
6.716
20
-20.094
11
6.553
21
-20.094
0
LINE
8
медь верх
10
5.939
20
-20.094
11
0.710
21
-20.095
0
LINE
8
медь верх
10
0.061
20
-20.095
11
-0.169
21
-20.095
0
LINE
8
медь верх
10
-9.294
20
-20.096
11
-9.606
21
-20.096
0
LINE
8
медь верх
10
-11.193
20
-20.096
11
-11.505
21
-20.096
0
LINE
8
медь верх
10
-11.885
20
-20.096
11
-12.471
21
-20.096
0
LINE
8
медь верх
10
12.471
20
-20.053
11
11.336
21
-20.053
0
LINE
8
медь верх
10
9.663
20
-20.053
11
8.979
21
-20.053
0
LINE
8
медь верх
10
8.329
20
-20.053
11
8.099
21
-20.053
0
LINE
8
медь верх
10
6.742
20
-20.055
11
6.561
21
-20.055
0
LINE
8
медь верх
10
5.979
20
-20.055
11
0.669
21
-20.055
0
LINE
8
медь верх
10
0.020
20
-20.055
11
-0.210
21
-20.055
0
LINE
8
медь верх
10
-9.253
20
-20.056
11
-9.566
21
-20.056
0
LINE
8
медь верх
10
-11.233
20
-20.056
11
-11.544
21
-20.056
0
LINE
8
медь верх
10
-11.885
20
-20.056
11
-12.471
21
-20.056
0
LINE
8
медь верх
10
12.471
20
-20.013
11
11.375
21
-20.014
0
LINE
8
медь верх
10
9.623
20
-20.014
11
8.938
21
-20.014
0
LINE
8
медь верх
10
8.289
20
-20.014
11
8.058
21
-20.014
0
LINE
8
медь верх
10
6.871
20
-20.014
11
6.567
21
-20.014
0
LINE
8
медь верх
10
6.019
20
-20.014
11
0.630
21
-20.014
0
LINE
8
медь верх
10
-0.019
20
-20.014
11
-0.245
21
-20.014
0
LINE
8
медь верх
10
-9.214
20
-20.015
11
-9.525
21
-20.015
0
LINE
8
медь верх
10
-11.274
20
-20.015
11
-11.585
21
-20.015
0
LINE
8
медь верх
10
-11.883
20
-20.015
11
-12.471
21
-20.015
0
LINE
8
медь верх
10
12.471
20
-19.973
11
11.416
21
-19.973
0
LINE
8
медь верх
10
9.583
20
-19.973
11
8.898
21
-19.973
0
LINE
8
медь верх
10
8.249
20
-19.973
11
8.019
21
-19.973
0
LINE
8
медь верх
10
6.911
20
-19.973
11
6.567
21
-19.973
0
LINE
8
медь верх
10
6.059
20
-19.973
11
0.589
21
-19.975
0
LINE
8
медь верх
10
-0.058
20
-19.975
11
-0.272
21
-19.975
0
LINE
8
медь верх
10
-9.173
20
-19.975
11
-9.484
21
-19.975
0
LINE
8
медь верх
10
-11.313
20
-19.976
11
-11.626
21
-19.976
0
LINE
8
медь верх
10
-11.874
20
-19.976
11
-12.471
21
-19.976
0
LINE
8
медь верх
10
12.471
20
-19.933
11
11.457
21
-19.933
0
LINE
8
медь верх
10
9.543
20
-19.933
11
8.858
21
-19.933
0
LINE
8
медь верх
10
8.208
20
-19.933
11
7.978
21
-19.933
0
LINE
8
медь верх
10
6.952
20
-19.933
11
6.567
21
-19.934
0
LINE
8
медь верх
10
6.099
20
-19.934
11
0.549
21
-19.934
0
LINE
8
медь верх
10
-0.099
20
-19.934
11
-0.298
21
-19.934
0
LINE
8
медь верх
10
-9.168
20
-19.935
11
-9.445
21
-19.935
0
LINE
8
медь верх
10
-11.354
20
-19.935
11
-11.666
21
-19.935
0
LINE
8
медь верх
10
-11.848
20
-19.935
11
-12.471
21
-19.935
0
LINE
8
медь верх
10
12.471
20
-19.892
11
11.496
21
-19.892
0
LINE
8
медь верх
10
9.502
20
-19.893
11
8.818
21
-19.893
0
LINE
8
медь верх
10
8.169
20
-19.893
11
7.938
21
-19.893
0
LINE
8
медь верх
10
6.991
20
-19.893
11
6.567
21
-19.893
0
LINE
8
медь верх
10
6.109
20
-19.893
11
0.508
21
-19.893
0
LINE
8
медь верх
10
-0.136
20
-19.893
11
-0.325
21
-19.893
0
LINE
8
медь верх
10
-9.168
20
-19.895
11
-9.404
21
-19.895
0
LINE
8
медь верх
10
-11.394
20
-19.895
11
-12.471
21
-19.895
0
LINE
8
медь верх
10
12.471
20
-19.853
11
11.530
21
-19.853
0
LINE
8
медь верх
10
9.468
20
-19.853
11
8.777
21
-19.853
0
LINE
8
медь верх
10
8.128
20
-19.853
11
7.897
21
-19.853
0
LINE
8
медь верх
10
7.032
20
-19.853
11
6.568
21
-19.853
0
LINE
8
медь верх
10
6.109
20
-19.853
11
0.469
21
-19.854
0
LINE
8
медь верх
10
-0.163
20
-19.854
11
-0.334
21
-19.854
0
LINE
8
медь верх
10
-9.168
20
-19.854
11
-9.369
21
-19.854
0
LINE
8
медь верх
10
-11.430
20
-19.855
11
-12.471
21
-19.855
0
LINE
8
медь верх
10
12.471
20
-19.812
11
11.530
21
-19.812
0
LINE
8
медь верх
10
9.468
20
-19.812
11
8.738
21
-19.812
0
LINE
8
медь верх
10
8.087
20
-19.812
11
7.857
21
-19.812
0
LINE
8
медь верх
10
7.066
20
-19.812
11
6.760
21
-19.812
0
LINE
8
медь верх
10
5.918
20
-19.812
11
0.428
21
-19.813
0
LINE
8
медь верх
10
-0.182
20
-19.813
11
-0.343
21
-19.813
0
LINE
8
медь верх
10
-9.168
20
-19.815
11
-9.369
21
-19.815
0
LINE
8
медь верх
10
-11.430
20
-19.815
11
-12.471
21
-19.815
0
LINE
8
медь верх
10
12.471
20
-19.771
11
11.530
21
-19.771
0
LINE
8
медь верх
10
9.468
20
-19.773
11
8.697
21
-19.773
0
LINE
8
медь верх
10
8.048
20
-19.773
11
7.817
21
-19.773
0
LINE
8
медь верх
10
7.066
20
-19.773
11
6.801
21
-19.773
0
LINE
8
медь верх
10
5.878
20
-19.773
11
0.387
21
-19.773
0
LINE
8
медь верх
10
-0.189
20
-19.773
11
-0.351
21
-19.773
0
LINE
8
медь верх
10
-9.168
20
-19.774
11
-9.369
21
-19.774
0
LINE
8
медь верх
10
-11.430
20
-19.774
11
-12.471
21
-19.774
0
LINE
8
медь верх
10
12.471
20
-19.732
11
11.530
21
-19.732
0
LINE
8
медь верх
10
9.468
20
-19.732
11
8.656
21
-19.732
0
LINE
8
медь верх
10
8.007
20
-19.732
11
7.776
21
-19.732
0
LINE
8
медь верх
10
7.066
20
-19.732
11
6.841
21
-19.732
0
LINE
8
медь верх
10
5.837
20
-19.732
11
0.348
21
-19.733
0
LINE
8
медь верх
10
-0.196
20
-19.733
11
-0.358
21
-19.733
0
LINE
8
медь верх
10
-9.168
20
-19.733
11
-9.369
21
-19.733
0
LINE
8
медь верх
10
-11.430
20
-19.733
11
-12.471
21
-19.735
0
LINE
8
медь верх
10
12.471
20
-19.691
11
11.530
21
-19.691
0
LINE
8
медь верх
10
9.468
20
-19.691
11
8.616
21
-19.691
0
LINE
8
медь верх
10
7.967
20
-19.691
11
7.744
21
-19.691
0
LINE
8
медь верх
10
7.066
20
-19.691
11
6.866
21
-19.691
0
LINE
8
медь верх
10
5.813
20
-19.691
11
0.307
21
-19.693
0
LINE
8
медь верх
10
-0.196
20
-19.693
11
-0.359
21
-19.693
0
LINE
8
медь верх
10
-9.168
20
-19.694
11
-9.369
21
-19.694
0
LINE
8
медь верх
10
-11.430
20
-19.694
11
-12.471
21
-19.694
0
LINE
8
медь верх
10
12.471
20
-19.651
11
11.530
21
-19.651
0
LINE
8
медь верх
10
9.468
20
-19.651
11
8.576
21
-19.651
0
LINE
8
медь верх
10
7.926
20
-19.652
11
7.718
21
-19.652
0
LINE
8
медь верх
10
7.066
20
-19.652
11
6.866
21
-19.652
0
LINE
8
медь верх
10
5.813
20
-19.652
11
0.267
21
-19.652
0
LINE
8
медь верх
10
-0.196
20
-19.652
11
-0.359
21
-19.652
0
LINE
8
медь верх
10
-9.168
20
-19.653
11
-9.369
21
-19.653
0
LINE
8
медь верх
10
-11.430
20
-19.653
11
-12.471
21
-19.653
0
LINE
8
медь верх
10
12.471
20
-19.610
11
11.530
21
-19.611
0
LINE
8
медь верх
10
9.468
20
-19.611
11
8.536
21
-19.611
0
LINE
8
медь верх
10
7.887
20
-19.611
11
7.691
21
-19.611
0
LINE
8
медь верх
10
7.066
20
-19.611
11
6.866
21
-19.611
0
LINE
8
медь верх
10
5.813
20
-19.611
11
0.262
21
-19.611
0
LINE
8
медь верх
10
-0.196
20
-19.611
11
-0.359
21
-19.611
0
LINE
8
медь верх
10
-9.168
20
-19.613
11
-9.369
21
-19.613
0
LINE
8
медь верх
10
-11.430
20
-19.613
11
-12.471
21
-19.613
0
LINE
8
медь верх
10
12.471
20
-19.571
11
11.530
21
-19.571
0
LINE
8
медь верх
10
9.468
20
-19.571
11
8.495
21
-19.571
0
LINE
8
медь верх
10
7.854
20
-19.571
11
7.668
21
-19.571
0
LINE
8
медь верх
10
7.066
20
-19.571
11
6.866
21
-19.571
0
LINE
8
медь верх
10
5.813
20
-19.571
11
0.262
21
-19.572
0
LINE
8
медь верх
10
-0.196
20
-19.572
11
-0.359
21
-19.572
0
LINE
8
медь верх
10
-9.168
20
-19.572
11
-9.369
21
-19.573
0
LINE
8
медь верх
10
-11.430
20
-19.573
11
-12.471
21
-19.573
0
LINE
8
медь верх
10
12.471
20
-19.530
11
11.530
21
-19.530
0
LINE
8
медь верх
10
9.468
20
-19.530
11
8.456
21
-19.530
0
LINE
8
медь верх
10
7.826
20
-19.530
11
7.659
21
-19.530
0
LINE
8
медь верх
10
7.066
20
-19.531
11
6.866
21
-19.531
0
LINE
8
медь верх
10
5.813
20
-19.531
11
0.262
21
-19.531
0
LINE
8
медь верх
10
-0.196
20
-19.531
11
-0.359
21
-19.531
0
LINE
8
медь верх
10
-9.168
20
-19.533
11
-9.369
21
-19.533
0
LINE
8
медь верх
10
-11.430
20
-19.533
11
-12.471
21
-19.533
0
LINE
8
медь верх
10
12.471
20
-19.489
11
11.530
21
-19.489
0
LINE
8
медь верх
10
9.468
20
-19.491
11
8.415
21
-19.491
0
LINE
8
медь верх
10
7.812
20
-19.491
11
7.652
21
-19.491
0
LINE
8
медь верх
10
7.066
20
-19.491
11
6.866
21
-19.491
0
LINE
8
медь верх
10
5.813
20
-19.491
11
0.262
21
-19.491
0
LINE
8
медь верх
10
-0.196
20
-19.491
11
-0.359
21
-19.491
0
LINE
8
медь верх
10
-9.168
20
-19.492
11
-9.369
21
-19.492
0
LINE
8
медь верх
10
-11.430
20
-19.492
11
-12.471
21
-19.492
0
LINE
8
медь верх
10
12.471
20
-19.450
11
11.530
21
-19.450
0
LINE
8
медь верх
10
9.468
20
-19.450
11
8.374
21
-19.450
0
LINE
8
медь верх
10
7.804
20
-19.450
11
7.644
21
-19.450
0
LINE
8
медь верх
10
7.066
20
-19.450
11
6.866
21
-19.450
0
LINE
8
медь верх
10
5.813
20
-19.450
11
0.262
21
-19.451
0
LINE
8
медь верх
10
-0.196
20
-19.451
11
-0.359
21
-19.451
0
LINE
8
медь верх
10
-9.168
20
-19.451
11
-9.369
21
-19.451
0
LINE
8
медь верх
10
-11.430
20
-19.453
11
-12.471
21
-19.453
0
LINE
8
медь верх
10
12.471
20
-19.409
11
11.530
21
-19.409
0
LINE
8
медь верх
10
9.468
20
-19.409
11
8.335
21
-19.409
0
LINE
8
медь верх
10
7.800
20
-19.409
11
7.637
21
-19.409
0
LINE
8
медь верх
10
7.066
20
-19.409
11
6.866
21
-19.409
0
LINE
8
медь верх
10
5.813
20
-19.411
11
0.262
21
-19.411
0
LINE
8
медь верх
10
-0.196
20
-19.411
11
-0.359
21
-19.411
0
LINE
8
медь верх
10
-9.168
20
-19.412
11
-9.369
21
-19.412
0
LINE
8
медь верх
10
-11.430
20
-19.412
11
-12.471
21
-19.412
0
LINE
8
медь верх
10
12.471
20
-19.369
11
11.530
21
-19.369
0
LINE
8
медь верх
10
9.468
20
-19.370
11
8.294
21
-19.370
0
LINE
8
медь верх
10
7.800
20
-19.370
11
7.637
21
-19.370
0
LINE
8
медь верх
10
7.066
20
-19.370
11
6.866
21
-19.370
0
LINE
8
медь верх
10
5.813
20
-19.370
11
0.262
21
-19.370
0
LINE
8
медь верх
10
-0.196
20
-19.370
11
-0.359
21
-19.370
0
LINE
8
медь верх
10
-9.168
20
-19.371
11
-9.369
21
-19.371
0
LINE
8
медь верх
10
-11.430
20
-19.371
11
-12.471
21
-19.371
0
LINE
8
медь верх
10
12.471
20
-19.329
11
11.530
21
-19.329
0
LINE
8
медь верх
10
9.468
20
-19.329
11
8.259
21
-19.329
0
LINE
8
медь верх
10
7.800
20
-19.329
11
7.637
21
-19.329
0
LINE
8
медь верх
10
7.066
20
-19.329
11
6.866
21
-19.329
0
LINE
8
медь верх
10
5.813
20
-19.329
11
3.856
21
-19.329
0
LINE
8
медь верх
10
1.943
20
-19.329
11
0.262
21
-19.331
0
LINE
8
медь верх
10
-0.196
20
-19.331
11
-0.359
21
-19.331
0
LINE
8
медь верх
10
-9.168
20
-19.331
11
-9.369
21
-19.331
0
LINE
8
медь верх
10
-11.430
20
-19.331
11
-12.471
21
-19.332
0
LINE
8
медь верх
10
12.471
20
-19.289
11
11.530
21
-19.289
0
LINE
8
медь верх
10
9.468
20
-19.289
11
8.259
21
-19.289
0
LINE
8
медь верх
10
7.800
20
-19.289
11
7.637
21
-19.289
0
LINE
8
медь верх
10
7.066
20
-19.289
11
6.866
21
-19.289
0
LINE
8
медь верх
10
5.813
20
-19.289
11
3.895
21
-19.290
0
LINE
8
медь верх
10
1.904
20
-19.290
11
0.262
21
-19.290
0
LINE
8
медь верх
10
-0.196
20
-19.290
11
-0.359
21
-19.290
0
LINE
8
медь верх
10
-9.168
20
-19.291
11
-9.369
21
-19.291
0
LINE
8
медь верх
10
-11.430
20
-19.291
11
-12.471
21
-19.291
0
LINE
8
медь верх
10
12.471
20
-19.248
11
11.530
21
-19.248
0
LINE
8
медь верх
10
9.468
20
-19.248
11
8.259
21
-19.249
0
LINE
8
медь верх
10
7.800
20
-19.249
11
7.637
21
-19.249
0
LINE
8
медь верх
10
7.066
20
-19.249
11
6.866
21
-19.249
0
LINE
8
медь верх
10
5.813
20
-19.249
11
3.936
21
-19.249
0
LINE
8
медь верх
10
1.863
20
-19.249
11
0.262
21
-19.249
0
LINE
8
медь верх
10
-0.196
20
-19.249
11
-0.359
21
-19.249
0
LINE
8
медь верх
10
-9.168
20
-19.251
11
-9.369
21
-19.251
0
LINE
8
медь верх
10
-11.430
20
-19.251
11
-12.471
21
-19.251
0
LINE
8
медь верх
10
12.471
20
-19.209
11
11.530
21
-19.209
0
LINE
8
медь верх
10
9.468
20
-19.209
11
8.259
21
-19.209
0
LINE
8
медь верх
10
7.800
20
-19.209
11
7.637
21
-19.209
0
LINE
8
медь верх
10
7.066
20
-19.209
11
6.866
21
-19.209
0
LINE
8
медь верх
10
5.813
20
-19.209
11
3.976
21
-19.209
0
LINE
8
медь верх
10
1.822
20
-19.209
11
0.262
21
-19.209
0
LINE
8
медь верх
10
-0.196
20
-19.210
11
-0.359
21
-19.210
0
LINE
8
медь верх
10
-9.168
20
-19.210
11
-9.369
21
-19.210
0
LINE
8
медь верх
10
-11.430
20
-19.210
11
-12.471
21
-19.210
0
LINE
8
медь верх
10
12.471
20
-19.168
11
11.530
21
-19.168
0
LINE
8
медь верх
10
9.468
20
-19.168
11
8.259
21
-19.168
0
LINE
8
медь верх
10
7.800
20
-19.168
11
7.637
21
-19.168
0
LINE
8
медь верх
10
7.066
20
-19.168
11
6.866
21
-19.168
0
LINE
8
медь верх
10
5.813
20
-19.168
11
4.016
21
-19.168
0
LINE
8
медь верх
10
1.783
20
-19.169
11
0.262
21
-19.169
0
LINE
8
медь верх
10
-0.196
20
-19.169
11
-0.359
21
-19.169
0
LINE
8
медь верх
10
-9.168
20
-19.171
11
-9.369
21
-19.171
0
LINE
8
медь верх
10
-11.430
20
-19.171
11
-12.471
21
-19.171
0
LINE
8
медь верх
10
12.471
20
-19.127
11
11.530
21
-19.127
0
LINE
8
медь верх
10
9.468
20
-19.127
11
8.259
21
-19.127
0
LINE
8
медь верх
10
7.800
20
-19.127
11
7.637
21
-19.129
0
LINE
8
медь верх
10
7.066
20
-19.129
11
6.866
21
-19.129
0
LINE
8
медь верх
10
5.813
20
-19.129
11
4.027
21
-19.129
0
LINE
8
медь верх
10
1.772
20
-19.129
11
0.262
21
-19.129
0
LINE
8
медь верх
10
-0.196
20
-19.129
11
-0.359
21
-19.129
0
LINE
8
медь верх
10
-9.168
20
-19.130
11
-9.369
21
-19.130
0
LINE
8
медь верх
10
-11.430
20
-19.130
11
-12.471
21
-19.130
0
LINE
8
медь верх
10
12.471
20
-19.087
11
11.530
21
-19.088
0
LINE
8
медь верх
10
9.468
20
-19.088
11
8.259
21
-19.088
0
LINE
8
медь верх
10
7.800
20
-19.088
11
7.637
21
-19.088
0
LINE
8
медь верх
10
7.066
20
-19.088
11
6.866
21
-19.088
0
LINE
8
медь верх
10
5.813
20
-19.088
11
4.027
21
-19.088
0
LINE
8
медь верх
10
1.772
20
-19.088
11
0.262
21
-19.088
0
LINE
8
медь верх
10
-0.196
20
-19.088
11
-0.359
21
-19.088
0
LINE
8
медь верх
10
-9.168
20
-19.089
11
-9.369
21
-19.089
0
LINE
8
медь верх
10
-11.430
20
-19.089
11
-12.471
21
-19.089
0
LINE
8
медь верх
10
12.471
20
-19.047
11
11.530
21
-19.047
0
LINE
8
медь верх
10
9.468
20
-19.047
11
8.259
21
-19.047
0
LINE
8
медь верх
10
7.800
20
-19.047
11
7.637
21
-19.047
0
LINE
8
медь верх
10
7.066
20
-19.047
11
6.841
21
-19.047
0
LINE
8
медь верх
10
5.836
20
-19.047
11
4.027
21
-19.047
0
LINE
8
медь верх
10
1.772
20
-19.049
11
0.262
21
-19.049
0
LINE
8
медь верх
10
-0.196
20
-19.049
11
-0.359
21
-19.049
0
LINE
8
медь верх
10
-9.168
20
-19.049
11
-9.369
21
-19.049
0
LINE
8
медь верх
10
-11.430
20
-19.050
11
-12.471
21
-19.050
0
LINE
8
медь верх
10
12.471
20
-19.007
11
11.530
21
-19.007
0
LINE
8
медь верх
10
9.468
20
-19.007
11
8.259
21
-19.007
0
LINE
8
медь верх
10
7.800
20
-19.007
11
7.637
21
-19.007
0
LINE
8
медь верх
10
7.066
20
-19.007
11
6.802
21
-19.007
0
LINE
8
медь верх
10
5.876
20
-19.008
11
4.027
21
-19.008
0
LINE
8
медь верх
10
1.772
20
-19.008
11
0.262
21
-19.008
0
LINE
8
медь верх
10
-0.196
20
-19.008
11
-0.359
21
-19.008
0
LINE
8
медь верх
10
-9.168
20
-19.009
11
-9.369
21
-19.009
0
LINE
8
медь верх
10
-11.430
20
-19.009
11
-12.471
21
-19.009
0
LINE
8
медь верх
10
12.471
20
-18.966
11
11.530
21
-18.966
0
LINE
8
медь верх
10
9.468
20
-18.967
11
8.259
21
-18.967
0
LINE
8
медь верх
10
7.800
20
-18.967
11
7.637
21
-18.967
0
LINE
8
медь верх
10
7.066
20
-18.967
11
6.761
21
-18.967
0
LINE
8
медь верх
10
5.917
20
-18.967
11
4.027
21
-18.967
0
LINE
8
медь верх
10
1.772
20
-18.967
11
0.262
21
-18.967
0
LINE
8
медь верх
10
-0.196
20
-18.967
11
-0.359
21
-18.967
0
LINE
8
медь верх
10
-9.168
20
-18.969
11
-9.369
21
-18.969
0
LINE
8
медь верх
10
-11.430
20
-18.969
11
-12.471
21
-18.969
0
LINE
8
медь верх
10
12.471
20
-18.927
11
11.516
21
-18.927
0
LINE
8
медь верх
10
9.482
20
-18.927
11
8.259
21
-18.927
0
LINE
8
медь верх
10
7.800
20
-18.927
11
7.637
21
-18.927
0
LINE
8
медь верх
10
7.040
20
-18.927
11
4.027
21
-18.927
0
LINE
8
медь верх
10
1.772
20
-18.927
11
0.262
21
-18.928
0
LINE
8
медь верх
10
-0.196
20
-18.928
11
-0.359
21
-18.928
0
LINE
8
медь верх
10
-9.168
20
-18.928
11
-9.380
21
-18.928
0
LINE
8
медь верх
10
-11.419
20
-18.929
11
-12.471
21
-18.929
0
LINE
8
медь верх
10
12.471
20
-18.886
11
11.477
21
-18.886
0
LINE
8
медь верх
10
9.522
20
-18.886
11
8.259
21
-18.886
0
LINE
8
медь верх
10
7.800
20
-18.886
11
7.637
21
-18.886
0
LINE
8
медь верх
10
7.022
20
-18.886
11
6.849
21
-18.886
0
LINE
8
медь верх
10
5.828
20
-18.886
11
4.027
21
-18.887
0
LINE
8
медь верх
10
1.772
20
-18.887
11
0.262
21
-18.887
0
LINE
8
медь верх
10
-0.196
20
-18.887
11
-0.359
21
-18.887
0
LINE
8
медь верх
10
-9.168
20
-18.889
11
-9.420
21
-18.889
0
LINE
8
медь верх
10
-11.379
20
-18.889
11
-11.702
21
-18.889
0
LINE
8
медь верх
10
-11.812
20
-18.889
11
-12.471
21
-18.889
0
LINE
8
медь верх
10
12.471
20
-18.846
11
11.436
21
-18.846
0
LINE
8
медь верх
10
9.562
20
-18.846
11
8.259
21
-18.847
0
LINE
8
медь верх
10
7.800
20
-18.847
11
7.637
21
-18.847
0
LINE
8
медь верх
10
7.017
20
-18.847
11
6.864
21
-18.847
0
LINE
8
медь верх
10
5.813
20
-18.847
11
4.027
21
-18.847
0
LINE
8
медь верх
10
1.772
20
-18.847
11
0.262
21
-18.847
0
LINE
8
медь верх
10
-0.196
20
-18.847
11
-0.359
21
-18.847
0
LINE
8
медь верх
10
-9.168
20
-18.848
11
-9.460
21
-18.848
0
LINE
8
медь верх
10
-11.339
20
-18.848
11
-11.650
21
-18.848
0
LINE
8
медь верх
10
-11.858
20
-18.848
11
-12.471
21
-18.848
0
LINE
8
медь верх
10
12.471
20
-18.806
11
11.396
21
-18.806
0
LINE
8
медь верх
10
9.581
20
-18.806
11
8.259
21
-18.806
0
LINE
8
медь верх
10
7.800
20
-18.806
11
7.637
21
-18.806
0
LINE
8
медь верх
10
7.017
20
-18.806
11
6.864
21
-18.806
0
LINE
8
медь верх
10
5.813
20
-18.806
11
4.013
21
-18.806
0
LINE
8
медь верх
10
1.786
20
-18.806
11
0.262
21
-18.807
0
LINE
8
медь верх
10
-0.196
20
-18.807
11
-0.359
21
-18.807
0
LINE
8
медь верх
10
-9.188
20
-18.807
11
-9.501
21
-18.807
0
LINE
8
медь верх
10
-11.298
20
-18.807
11
-11.610
21
-18.807
0
LINE
8
медь верх
10
-11.878
20
-18.807
11
-12.471
21
-18.809
0
LINE
8
медь верх
10
12.471
20
-18.766
11
11.847
21
-18.766
0
LINE
8
медь верх
10
11.667
20
-18.766
11
11.356
21
-18.766
0
LINE
8
медь верх
10
9.542
20
-18.766
11
8.259
21
-18.766
0
LINE
8
медь верх
10
7.800
20
-18.766
11
7.637
21
-18.766
0
LINE
8
медь верх
10
7.017
20
-18.766
11
6.864
21
-18.766
0
LINE
8
медь верх
10
5.813
20
-18.766
11
3.973
21
-18.767
0
LINE
8
медь верх
10
1.826
20
-18.767
11
0.262
21
-18.767
0
LINE
8
медь верх
10
-0.196
20
-18.767
11
-0.359
21
-18.767
0
LINE
8
медь верх
10
-9.229
20
-18.768
11
-9.542
21
-18.768
0
LINE
8
медь верх
10
-11.259
20
-18.768
11
-11.570
21
-18.768
0
LINE
8
медь верх
10
-11.885
20
-18.768
11
-12.471
21
-18.768
0
LINE
8
медь верх
10
12.471
20
-18.725
11
11.874
21
-18.725
0
LINE
8
медь верх
10
11.627
20
-18.725
11
11.316
21
-18.725
0
LINE
8
медь верх
10
9.501
20
-18.725
11
8.259
21
-18.726
0
LINE
8
медь верх
10
7.800
20
-18.726
11
7.637
21
-18.726
0
LINE
8
медь верх
10
7.017
20
-18.726
11
6.864
21
-18.726
0
LINE
8
медь верх
10
5.813
20
-18.726
11
3.932
21
-18.726
0
LINE
8
медь верх
10
1.866
20
-18.726
11
0.262
21
-18.726
0
LINE
8
медь верх
10
-0.196
20
-18.726
11
-0.359
21
-18.726
0
LINE
8
медь верх
10
-1.647
20
-18.726
11
-1.866
21
-18.726
0
LINE
8
медь верх
10
-3.933
20
-18.726
11
-4.152
21
-18.726
0
LINE
8
медь верх
10
-9.270
20
-18.727
11
-9.581
21
-18.727
0
LINE
8
медь верх
10
-11.218
20
-18.727
11
-11.529
21
-18.727
0
LINE
8
медь верх
10
-11.885
20
-18.727
11
-12.471
21
-18.727
0
LINE
8
медь верх
10
12.471
20
-18.684
11
11.882
21
-18.686
0
LINE
8
медь верх
10
11.587
20
-18.686
11
11.275
21
-18.686
0
LINE
8
медь верх
10
9.460
20
-18.686
11
8.259
21
-18.686
0
LINE
8
медь верх
10
7.800
20
-18.686
11
7.637
21
-18.686
0
LINE
8
медь верх
10
7.017
20
-18.686
11
6.864
21
-18.686
0
LINE
8
медь верх
10
5.813
20
-18.686
11
3.893
21
-18.686
0
LINE
8
медь верх
10
1.906
20
-18.686
11
0.262
21
-18.686
0
LINE
8
медь верх
10
-0.196
20
-18.686
11
-0.358
21
-18.686
0
LINE
8
медь верх
10
-1.688
20
-18.687
11
-1.906
21
-18.687
0
LINE
8
медь верх
10
-3.893
20
-18.687
11
-4.111
21
-18.687
0
LINE
8
медь верх
10
-9.309
20
-18.687
11
-9.622
21
-18.687
0
LINE
8
медь верх
10
-11.177
20
-18.687
11
-11.490
21
-18.687
0
LINE
8
медь верх
10
-11.885
20
-18.687
11
-12.471
21
-18.687
0
LINE
8
медь верх
10
12.471
20
-18.645
11
11.885
21
-18.645
0
LINE
8
медь верх
10
11.547
20
-18.645
11
11.234
21
-18.645
0
LINE
8
медь верх
10
9.420
20
-18.645
11
8.259
21
-18.645
0
LINE
8
медь верх
10
7.800
20
-18.645
11
7.637
21
-18.645
0
LINE
8
медь верх
10
7.017
20
-18.645
11
6.864
21
-18.645
0
LINE
8
медь верх
10
5.813
20
-18.645
11
3.852
21
-18.645
0
LINE
8
медь верх
10
1.947
20
-18.646
11
0.262
21
-18.646
0
LINE
8
медь верх
10
-0.196
20
-18.646
11
-0.358
21
-18.646
0
LINE
8
медь верх
10
-1.728
20
-18.646
11
-1.947
21
-18.646
0
LINE
8
медь верх
10
-3.852
20
-18.646
11
-4.070
21
-18.646
0
LINE
8
медь верх
10
-9.350
20
-18.646
11
-9.662
21
-18.647
0
LINE
8
медь верх
10
-11.137
20
-18.647
11
-11.449
21
-18.647
0
LINE
8
медь верх
10
-11.885
20
-18.647
11
-12.471
21
-18.647
0
LINE
8
медь верх
10
12.471
20
-18.604
11
11.885
21
-18.604
0
LINE
8
медь верх
10
11.506
20
-18.604
11
11.195
21
-18.604
0
LINE
8
медь верх
10
9.380
20
-18.604
11
8.259
21
-18.604
0
LINE
8
медь верх
10
7.800
20
-18.604
11
7.635
21
-18.604
0
LINE
8
медь верх
10
7.017
20
-18.605
11
6.864
21
-18.605
0
LINE
8
медь верх
10
5.813
20
-18.605
11
0.262
21
-18.605
0
LINE
8
медь верх
10
-0.196
20
-18.605
11
-0.358
21
-18.605
0
LINE
8
медь верх
10
-1.768
20
-18.605
11
-4.031
21
-18.605
0
LINE
8
медь верх
10
-9.390
20
-18.607
11
-9.702
21
-18.607
0
LINE
8
медь верх
10
-11.097
20
-18.607
11
-11.408
21
-18.607
0
LINE
8
медь верх
10
-11.885
20
-18.607
11
-12.471
21
-18.607
0
LINE
8
медь верх
10
12.471
20
-18.564
11
11.885
21
-18.564
0
LINE
8
медь верх
10
11.467
20
-18.564
11
11.154
21
-18.564
0
LINE
8
медь верх
10
9.340
20
-18.565
11
8.259
21
-18.565
0
LINE
8
медь верх
10
7.800
20
-18.565
11
7.625
21
-18.565
0
LINE
8
медь верх
10
7.017
20
-18.565
11
6.864
21
-18.565
0
LINE
8
медь верх
10
5.813
20
-18.565
11
0.262
21
-18.565
0
LINE
8
медь верх
10
-0.196
20
-18.565
11
-0.358
21
-18.565
0
LINE
8
медь верх
10
-1.808
20
-18.566
11
-3.990
21
-18.566
0
LINE
8
медь верх
10
-9.431
20
-18.566
11
-9.742
21
-18.566
0
LINE
8
медь верх
10
-11.057
20
-18.566
11
-11.369
21
-18.566
0
LINE
8
медь верх
10
-11.885
20
-18.566
11
-12.471
21
-18.566
0
LINE
8
медь верх
10
12.471
20
-18.524
11
11.885
21
-18.524
0
LINE
8
медь верх
10
11.426
20
-18.524
11
11.114
21
-18.524
0
LINE
8
медь верх
10
9.299
20
-18.524
11
8.259
21
-18.524
0
LINE
8
медь верх
10
7.800
20
-18.524
11
7.597
21
-18.524
0
LINE
8
медь верх
10
7.017
20
-18.524
11
6.864
21
-18.524
0
LINE
8
медь верх
10
5.813
20
-18.524
11
0.262
21
-18.525
0
LINE
8
медь верх
10
-0.196
20
-18.525
11
-0.358
21
-18.525
0
LINE
8
медь верх
10
-1.849
20
-18.525
11
-3.950
21
-18.525
0
LINE
8
медь верх
10
-9.470
20
-18.525
11
-9.783
21
-18.525
0
LINE
8
медь верх
10
-11.016
20
-18.527
11
-11.328
21
-18.527
0
LINE
8
медь верх
10
-11.885
20
-18.527
11
-12.471
21
-18.527
0
LINE
8
медь верх
10
12.471
20
-18.484
11
11.885
21
-18.484
0
LINE
8
медь верх
10
11.386
20
-18.484
11
11.074
21
-18.484
0
LINE
8
медь верх
10
9.260
20
-18.484
11
8.259
21
-18.484
0
LINE
8
медь верх
10
7.788
20
-18.484
11
7.556
21
-18.484
0
LINE
8
медь верх
10
7.017
20
-18.484
11
6.864
21
-18.484
0
LINE
8
медь верх
10
5.813
20
-18.485
11
0.262
21
-18.485
0
LINE
8
медь верх
10
-0.196
20
-18.485
11
-0.358
21
-18.485
0
LINE
8
медь верх
10
-1.883
20
-18.485
11
-3.915
21
-18.485
0
LINE
8
медь верх
10
-9.511
20
-18.486
11
-9.822
21
-18.486
0
LINE
8
медь верх
10
-10.977
20
-18.486
11
-11.288
21
-18.486
0
LINE
8
медь верх
10
-11.885
20
-18.486
11
-12.471
21
-18.486
0
LINE
8
медь верх
10
12.471
20
-18.443
11
11.885
21
-18.443
0
LINE
8
медь верх
10
11.345
20
-18.443
11
11.034
21
-18.443
0
LINE
8
медь верх
10
9.964
20
-18.443
11
9.868
21
-18.444
0
LINE
8
медь верх
10
9.219
20
-18.444
11
8.259
21
-18.444
0
LINE
8
медь верх
10
7.747
20
-18.444
11
7.517
21
-18.444
0
LINE
8
медь верх
10
7.017
20
-18.444
11
6.864
21
-18.444
0
LINE
8
медь верх
10
5.813
20
-18.444
11
0.262
21
-18.444
0
LINE
8
медь верх
10
-0.196
20
-18.444
11
-0.358
21
-18.444
0
LINE
8
медь верх
10
-1.904
20
-18.444
11
-3.895
21
-18.445
0
LINE
8
медь верх
10
-9.552
20
-18.445
11
-9.863
21
-18.445
0
LINE
8
медь верх
10
-10.936
20
-18.445
11
-11.247
21
-18.445
0
LINE
8
медь верх
10
-11.885
20
-18.445
11
-12.471
21
-18.445
0
LINE
8
медь верх
10
12.471
20
-18.404
11
11.885
21
-18.404
0
LINE
8
медь верх
10
11.306
20
-18.404
11
10.993
21
-18.404
0
LINE
8
медь верх
10
10.005
20
-18.404
11
9.829
21
-18.404
0
LINE
8
медь верх
10
9.178
20
-18.404
11
8.259
21
-18.404
0
LINE
8
медь верх
10
7.706
20
-18.404
11
7.476
21
-18.404
0
LINE
8
медь верх
10
7.017
20
-18.404
11
6.864
21
-18.404
0
LINE
8
медь верх
10
5.813
20
-18.404
11
0.262
21
-18.405
0
LINE
8
медь верх
10
-0.196
20
-18.405
11
-0.358
21
-18.405
0
LINE
8
медь верх
10
-1.909
20
-18.405
11
-3.890
21
-18.405
0
LINE
8
медь верх
10
-9.591
20
-18.405
11
-9.903
21
-18.405
0
LINE
8
медь верх
10
-10.895
20
-18.405
11
-11.208
21
-18.405
0
LINE
8
медь верх
10
-11.885
20
-18.406
11
-12.471
21
-18.406
0
LINE
8
медь верх
10
12.471
20
-18.363
11
11.885
21
-18.363
0
LINE
8
медь верх
10
11.265
20
-18.363
11
9.788
21
-18.363
0
LINE
8
медь верх
10
9.139
20
-18.363
11
8.251
21
-18.363
0
LINE
8
медь верх
10
7.667
20
-18.363
11
7.436
21
-18.363
0
LINE
8
медь верх
10
7.017
20
-18.363
11
6.864
21
-18.363
0
LINE
8
медь верх
10
5.813
20
-18.363
11
0.262
21
-18.364
0
LINE
8
медь верх
10
-0.196
20
-18.364
11
-0.358
21
-18.364
0
LINE
8
медь верх
10
-1.901
20
-18.364
11
-3.898
21
-18.364
0
LINE
8
медь верх
10
-9.632
20
-18.365
11
-10.170
21
-18.365
0
LINE
8
медь верх
10
-10.629
20
-18.365
11
-11.167
21
-18.365
0
LINE
8
медь верх
10
-11.885
20
-18.365
11
-12.471
21
-18.365
0
LINE
8
медь верх
10
12.471
20
-18.322
11
11.885
21
-18.322
0
LINE
8
медь верх
10
11.224
20
-18.322
11
9.747
21
-18.322
0
LINE
8
медь верх
10
9.098
20
-18.322
11
8.244
21
-18.324
0
LINE
8
медь верх
10
7.626
20
-18.324
11
7.396
21
-18.324
0
LINE
8
медь верх
10
7.017
20
-18.324
11
6.864
21
-18.324
0
LINE
8
медь верх
10
5.813
20
-18.324
11
0.262
21
-18.324
0
LINE
8
медь верх
10
-0.196
20
-18.324
11
-0.358
21
-18.324
0
LINE
8
медь верх
10
-1.875
20
-18.324
11
-3.924
21
-18.325
0
LINE
8
медь верх
10
-9.672
20
-18.325
11
-10.170
21
-18.325
0
LINE
8
медь верх
10
-10.629
20
-18.325
11
-11.126
21
-18.325
0
LINE
8
медь верх
10
-11.885
20
-18.325
11
-12.471
21
-18.325
0
LINE
8
медь верх
10
12.471
20
-18.283
11
11.885
21
-18.283
0
LINE
8
медь верх
10
11.185
20
-18.283
11
9.708
21
-18.283
0
LINE
8
медь верх
10
9.058
20
-18.283
11
8.221
21
-18.283
0
LINE
8
медь верх
10
7.586
20
-18.283
11
7.356
21
-18.283
0
LINE
8
медь верх
10
7.017
20
-18.283
11
6.864
21
-18.283
0
LINE
8
медь верх
10
5.813
20
-18.283
11
0.262
21
-18.283
0
LINE
8
медь верх
10
-0.196
20
-18.284
11
-0.358
21
-18.284
0
LINE
8
медь верх
10
-1.835
20
-18.284
11
-3.962
21
-18.284
0
LINE
8
медь верх
10
-9.712
20
-18.284
11
-10.170
21
-18.284
0
LINE
8
медь верх
10
-10.629
20
-18.284
11
-11.087
21
-18.284
0
LINE
8
медь верх
10
-11.885
20
-18.284
11
-12.471
21
-18.284
0
LINE
8
медь верх
10
12.471
20
-18.242
11
11.885
21
-18.242
0
LINE
8
медь верх
10
11.144
20
-18.242
11
9.667
21
-18.242
0
LINE
8
медь верх
10
9.018
20
-18.242
11
8.194
21
-18.242
0
LINE
8
медь верх
10
7.546
20
-18.242
11
7.315
21
-18.242
0
LINE
8
медь верх
10
7.022
20
-18.242
11
6.853
21
-18.242
0
LINE
8
медь верх
10
5.824
20
-18.242
11
0.262
21
-18.244
0
LINE
8
медь верх
10
-0.196
20
-18.244
11
-0.358
21
-18.244
0
LINE
8
медь верх
10
-1.796
20
-18.244
11
-4.003
21
-18.244
0
LINE
8
медь верх
10
-9.752
20
-18.245
11
-10.170
21
-18.245
0
LINE
8
медь верх
10
-10.629
20
-18.245
11
-11.046
21
-18.245
0
LINE
8
медь верх
10
-11.885
20
-18.245
11
-12.471
21
-18.245
0
LINE
8
медь верх
10
12.471
20
-18.202
11
11.885
21
-18.202
0
LINE
8
медь верх
10
11.104
20
-18.202
11
9.627
21
-18.202
0
LINE
8
медь верх
10
8.978
20
-18.202
11
8.155
21
-18.202
0
LINE
8
медь верх
10
7.506
20
-18.203
11
7.276
21
-18.203
0
LINE
8
медь верх
10
7.040
20
-18.203
11
0.262
21
-18.203
0
LINE
8
медь верх
10
-0.196
20
-18.203
11
-0.358
21
-18.203
0
LINE
8
медь верх
10
-1.755
20
-18.203
11
-4.044
21
-18.203
0
LINE
8
медь верх
10
-9.793
20
-18.204
11
-10.170
21
-18.204
0
LINE
8
медь верх
10
-10.629
20
-18.204
11
-11.006
21
-18.204
0
LINE
8
медь верх
10
-11.885
20
-18.204
11
-12.471
21
-18.204
0
LINE
8
медь верх
10
12.471
20
-18.161
11
11.885
21
-18.161
0
LINE
8
медь верх
10
9.845
20
-18.162
11
9.586
21
-18.162
0
LINE
8
медь верх
10
8.937
20
-18.162
11
8.115
21
-18.162
0
LINE
8
медь верх
10
7.465
20
-18.162
11
7.230
21
-18.162
0
LINE
8
медь верх
10
7.078
20
-18.162
11
6.761
21
-18.162
0
LINE
8
медь верх
10
5.918
20
-18.162
11
0.262
21
-18.162
0
LINE
8
медь верх
10
-0.196
20
-18.162
11
-0.358
21
-18.162
0
LINE
8
медь верх
10
-1.714
20
-18.164
11
-4.083
21
-18.164
0
LINE
8
медь верх
10
-9.898
20
-18.164
11
-10.170
21
-18.164
0
LINE
8
медь верх
10
-10.629
20
-18.164
11
-10.900
21
-18.164
0
LINE
8
медь верх
10
-11.885
20
-18.164
11
-12.471
21
-18.164
0
LINE
8
медь верх
10
12.471
20
-18.122
11
11.885
21
-18.122
0
LINE
8
медь верх
10
9.776
20
-18.122
11
9.547
21
-18.122
0
LINE
8
медь верх
10
8.896
20
-18.122
11
8.075
21
-18.122
0
LINE
8
медь верх
10
7.426
20
-18.122
11
6.801
21
-18.122
0
LINE
8
медь верх
10
5.878
20
-18.122
11
0.262
21
-18.123
0
LINE
8
медь верх
10
-0.196
20
-18.123
11
-0.358
21
-18.123
0
LINE
8
медь верх
10
-1.675
20
-18.123
11
-4.124
21
-18.123
0
LINE
8
медь верх
10
-9.973
20
-18.123
11
-10.170
21
-18.124
0
LINE
8
медь верх
10
-10.629
20
-18.124
11
-10.825
21
-18.124
0
LINE
8
медь верх
10
-11.885
20
-18.124
11
-12.471
21
-18.124
0
LINE
8
медь верх
10
12.471
20
-18.081
11
11.885
21
-18.081
0
LINE
8
медь верх
10
9.737
20
-18.081
11
9.506
21
-18.081
0
LINE
8
медь верх
10
8.857
20
-18.081
11
8.034
21
-18.081
0
LINE
8
медь верх
10
7.385
20
-18.081
11
6.841
21
-18.081
0
LINE
8
медь верх
10
5.837
20
-18.082
11
3.853
21
-18.082
0
LINE
8
медь верх
10
1.946
20
-18.082
11
0.262
21
-18.082
0
LINE
8
медь верх
10
-0.196
20
-18.082
11
-0.358
21
-18.082
0
LINE
8
медь верх
10
-1.634
20
-18.082
11
-1.946
21
-18.082
0
LINE
8
медь верх
10
-3.852
20
-18.082
11
-4.164
21
-18.082
0
LINE
8
медь верх
10
-9.999
20
-18.084
11
-10.170
21
-18.084
0
LINE
8
медь верх
10
-10.629
20
-18.084
11
-10.800
21
-18.084
0
LINE
8
медь верх
10
-11.885
20
-18.084
11
-12.471
21
-18.084
0
LINE
8
медь верх
10
12.471
20
-18.040
11
11.885
21
-18.040
0
LINE
8
медь верх
10
9.696
20
-18.042
11
9.465
21
-18.042
0
LINE
8
медь верх
10
8.816
20
-18.042
11
7.995
21
-18.042
0
LINE
8
медь верх
10
7.344
20
-18.042
11
6.866
21
-18.042
0
LINE
8
медь верх
10
5.813
20
-18.042
11
3.894
21
-18.042
0
LINE
8
медь верх
10
1.905
20
-18.042
11
0.262
21
-18.042
0
LINE
8
медь верх
10
-0.196
20
-18.042
11
-0.358
21
-18.042
0
LINE
8
медь верх
10
-1.594
20
-18.042
11
-1.906
21
-18.042
0
LINE
8
медь верх
10
-3.893
20
-18.043
11
-4.205
21
-18.043
0
LINE
8
медь верх
10
-10.006
20
-18.043
11
-10.170
21
-18.043
0
LINE
8
медь верх
10
-10.629
20
-18.043
11
-10.792
21
-18.043
0
LINE
8
медь верх
10
-11.885
20
-18.043
11
-12.471
21
-18.043
0
LINE
8
медь верх
10
12.471
20
-18.001
11
11.885
21
-18.001
0
LINE
8
медь верх
10
9.656
20
-18.001
11
9.426
21
-18.001
0
LINE
8
медь верх
10
8.776
20
-18.001
11
7.954
21
-18.001
0
LINE
8
медь верх
10
7.305
20
-18.001
11
6.866
21
-18.001
0
LINE
8
медь верх
10
5.813
20
-18.001
11
3.933
21
-18.001
0
LINE
8
медь верх
10
1.866
20
-18.001
11
0.263
21
-18.002
0
LINE
8
медь верх
10
-0.196
20
-18.002
11
-0.358
21
-18.002
0
LINE
8
медь верх
10
-1.571
20
-18.002
11
-1.866
21
-18.002
0
LINE
8
медь верх
10
-3.933
20
-18.002
11
-4.228
21
-18.002
0
LINE
8
медь верх
10
-10.006
20
-18.002
11
-10.170
21
-18.002
0
LINE
8
медь верх
10
-10.629
20
-18.002
11
-10.792
21
-18.002
0
LINE
8
медь верх
10
-11.885
20
-18.004
11
-12.471
21
-18.004
0
LINE
8
медь верх
10
12.471
20
-17.960
11
11.885
21
-17.960
0
LINE
8
медь верх
10
9.615
20
-17.960
11
9.385
21
-17.960
0
LINE
8
медь верх
10
8.736
20
-17.960
11
7.913
21
-17.960
0
LINE
8
медь верх
10
1.825
20
-17.962
11
0.263
21
-17.962
0
LINE
8
медь верх
10
-0.196
20
-17.962
11
-0.358
21
-17.962
0
LINE
8
медь верх
10
-1.571
20
-17.962
11
-1.825
21
-17.962
0
LINE
8
медь верх
10
-3.973
20
-17.962
11
-4.228
21
-17.962
0
LINE
8
медь верх
10
-10.006
20
-17.963
11
-10.170
21
-17.963
0
LINE
8
медь верх
10
-10.629
20
-17.963
11
-10.792
21
-17.963
0
LINE
8
медь верх
10
-11.885
20
-17.963
11
-12.471
21
-17.963
0
LINE
8
медь верх
10
12.471
20
-17.920
11
11.885
21
-17.920
0
LINE
8
медь верх
10
9.576
20
-17.920
11
9.345
21
-17.920
0
LINE
8
медь верх
10
8.696
20
-17.921
11
7.873
21
-17.921
0
LINE
8
медь верх
10
1.784
20
-17.921
11
0.263
21
-17.921
0
LINE
8
медь верх
10
-0.196
20
-17.921
11
-0.358
21
-17.921
0
LINE
8
медь верх
10
-1.571
20
-17.921
11
-1.786
21
-17.921
0
LINE
8
медь верх
10
-4.013
20
-17.922
11
-4.228
21
-17.922
0
LINE
8
медь верх
10
-10.006
20
-17.922
11
-10.170
21
-17.922
0
LINE
8
медь верх
10
-10.629
20
-17.922
11
-10.792
21
-17.922
0
LINE
8
медь верх
10
-11.885
20
-17.922
11
-12.471
21
-17.922
0
LINE
8
медь верх
10
12.471
20
-17.880
11
11.885
21
-17.880
0
LINE
8
медь верх
10
9.535
20
-17.880
11
9.305
21
-17.880
0
LINE
8
медь верх
10
8.655
20
-17.880
11
7.833
21
-17.880
0
LINE
8
медь верх
10
1.772
20
-17.880
11
0.263
21
-17.882
0
LINE
8
медь верх
10
-0.196
20
-17.882
11
-0.358
21
-17.882
0
LINE
8
медь верх
10
-1.571
20
-17.882
11
-1.772
21
-17.882
0
LINE
8
медь верх
10
-4.027
20
-17.882
11
-4.228
21
-17.882
0
LINE
8
медь верх
10
-10.006
20
-17.882
11
-10.170
21
-17.882
0
LINE
8
медь верх
10
-10.629
20
-17.882
11
-10.792
21
-17.882
0
LINE
8
медь верх
10
-11.885
20
-17.882
11
-12.471
21
-17.883
0
LINE
8
медь верх
10
12.471
20
-17.840
11
11.885
21
-17.840
0
LINE
8
медь верх
10
9.495
20
-17.840
11
9.265
21
-17.840
0
LINE
8
медь верх
10
8.616
20
-17.840
11
7.793
21
-17.840
0
LINE
8
медь верх
10
1.772
20
-17.841
11
0.263
21
-17.841
0
LINE
8
медь верх
10
-0.196
20
-17.841
11
-0.358
21
-17.841
0
LINE
8
медь верх
10
-1.571
20
-17.841
11
-1.772
21
-17.841
0
LINE
8
медь верх
10
-4.027
20
-17.841
11
-4.228
21
-17.841
0
LINE
8
медь верх
10
-10.006
20
-17.842
11
-10.170
21
-17.842
0
LINE
8
медь верх
10
-10.629
20
-17.842
11
-10.792
21
-17.842
0
LINE
8
медь верх
10
-11.885
20
-17.842
11
-12.471
21
-17.842
0
LINE
8
медь верх
10
12.471
20
-17.799
11
11.885
21
-17.799
0
LINE
8
медь верх
10
9.455
20
-17.799
11
9.224
21
-17.799
0
LINE
8
медь верх
10
8.575
20
-17.799
11
7.752
21
-17.800
0
LINE
8
медь верх
10
1.772
20
-17.800
11
0.263
21
-17.800
0
LINE
8
медь верх
10
-0.196
20
-17.800
11
-0.358
21
-17.800
0
LINE
8
медь верх
10
-1.571
20
-17.800
11
-1.772
21
-17.800
0
LINE
8
медь верх
10
-4.027
20
-17.800
11
-4.228
21
-17.800
0
LINE
8
медь верх
10
-10.006
20
-17.802
11
-10.170
21
-17.802
0
LINE
8
медь верх
10
-10.629
20
-17.802
11
-10.792
21
-17.802
0
LINE
8
медь верх
10
-11.885
20
-17.802
11
-12.471
21
-17.802
0
LINE
8
медь верх
10
12.471
20
-17.758
11
11.885
21
-17.760
0
LINE
8
медь верх
10
9.415
20
-17.760
11
9.185
21
-17.760
0
LINE
8
медь верх
10
8.534
20
-17.760
11
7.713
21
-17.760
0
LINE
8
медь верх
10
1.772
20
-17.760
11
0.263
21
-17.760
0
LINE
8
медь верх
10
-0.196
20
-17.760
11
-0.358
21
-17.760
0
LINE
8
медь верх
10
-1.571
20
-17.761
11
-1.772
21
-17.761
0
LINE
8
медь верх
10
-4.027
20
-17.761
11
-4.228
21
-17.761
0
LINE
8
медь верх
10
-5.987
20
-17.761
11
-6.133
21
-17.761
0
LINE
8
медь верх
10
-7.186
20
-17.761
11
-7.332
21
-17.761
0
LINE
8
медь верх
10
-10.006
20
-17.761
11
-10.170
21
-17.761
0
LINE
8
медь верх
10
-10.629
20
-17.761
11
-10.792
21
-17.761
0
LINE
8
медь верх
10
-11.885
20
-17.761
11
-12.471
21
-17.761
0
LINE
8
медь верх
10
12.471
20
-17.719
11
11.885
21
-17.719
0
LINE
8
медь верх
10
9.374
20
-17.719
11
9.144
21
-17.719
0
LINE
8
медь верх
10
8.495
20
-17.719
11
7.672
21
-17.719
0
LINE
8
медь верх
10
1.772
20
-17.720
11
0.263
21
-17.720
0
LINE
8
медь верх
10
-0.196
20
-17.720
11
-0.358
21
-17.720
0
LINE
8
медь верх
10
-1.571
20
-17.720
11
-1.772
21
-17.720
0
LINE
8
медь верх
10
-4.027
20
-17.720
11
-4.228
21
-17.720
0
LINE
8
медь верх
10
-5.987
20
-17.720
11
-6.133
21
-17.720
0
LINE
8
медь верх
10
-7.186
20
-17.720
11
-7.332
21
-17.720
0
LINE
8
медь верх
10
-10.006
20
-17.722
11
-10.170
21
-17.722
0
LINE
8
медь верх
10
-10.629
20
-17.722
11
-10.792
21
-17.722
0
LINE
8
медь верх
10
-11.885
20
-17.722
11
-12.471
21
-17.722
0
LINE
8
медь верх
10
12.471
20
-17.678
11
11.885
21
-17.678
0
LINE
8
медь верх
10
9.335
20
-17.678
11
9.103
21
-17.678
0
LINE
8
медь верх
10
8.454
20
-17.678
11
7.631
21
-17.678
0
LINE
8
медь верх
10
1.772
20
-17.680
11
0.263
21
-17.680
0
LINE
8
медь верх
10
-0.196
20
-17.680
11
-0.358
21
-17.680
0
LINE
8
медь верх
10
-1.571
20
-17.680
11
-1.772
21
-17.680
0
LINE
8
медь верх
10
-4.027
20
-17.680
11
-4.228
21
-17.680
0
LINE
8
медь верх
10
-5.987
20
-17.681
11
-6.133
21
-17.681
0
LINE
8
медь верх
10
-7.186
20
-17.681
11
-7.332
21
-17.681
0
LINE
8
медь верх
10
-10.006
20
-17.681
11
-10.170
21
-17.681
0
LINE
8
медь верх
10
-10.629
20
-17.681
11
-10.792
21
-17.681
0
LINE
8
медь верх
10
-11.885
20
-17.681
11
-12.471
21
-17.681
0
LINE
8
медь верх
10
12.471
20
-17.638
11
11.885
21
-17.638
0
LINE
8
медь верх
10
9.294
20
-17.639
11
9.063
21
-17.639
0
LINE
8
медь верх
10
8.414
20
-17.639
11
7.592
21
-17.639
0
LINE
8
медь верх
10
1.772
20
-17.639
11
0.263
21
-17.639
0
LINE
8
медь верх
10
-0.196
20
-17.639
11
-0.358
21
-17.639
0
LINE
8
медь верх
10
-1.571
20
-17.639
11
-1.772
21
-17.639
0
LINE
8
медь верх
10
-4.027
20
-17.640
11
-4.228
21
-17.640
0
LINE
8
медь верх
10
-5.987
20
-17.640
11
-6.133
21
-17.640
0
LINE
8
медь верх
10
-7.186
20
-17.640
11
-7.332
21
-17.640
0
LINE
8
медь верх
10
-10.006
20
-17.640
11
-10.170
21
-17.640
0
LINE
8
медь верх
10
-10.629
20
-17.640
11
-10.792
21
-17.640
0
LINE
8
медь верх
10
-11.885
20
-17.640
11
-12.471
21
-17.640
0
LINE
8
медь верх
10
12.471
20
-17.598
11
11.885
21
-17.598
0
LINE
8
медь верх
10
9.253
20
-17.598
11
9.023
21
-17.598
0
LINE
8
медь верх
10
8.373
20
-17.598
11
7.551
21
-17.598
0
LINE
8
медь верх
10
1.772
20
-17.600
11
0.263
21
-17.600
0
LINE
8
медь верх
10
-0.196
20
-17.600
11
-0.358
21
-17.600
0
LINE
8
медь верх
10
-1.571
20
-17.600
11
-1.772
21
-17.600
0
LINE
8
медь верх
10
-4.027
20
-17.600
11
-4.228
21
-17.600
0
LINE
8
медь верх
10
-5.987
20
-17.600
11
-6.154
21
-17.600
0
LINE
8
медь верх
10
-7.164
20
-17.600
11
-7.332
21
-17.600
0
LINE
8
медь верх
10
-10.006
20
-17.600
11
-10.170
21
-17.600
0
LINE
8
медь верх
10
-10.629
20
-17.601
11
-10.792
21
-17.601
0
LINE
8
медь верх
10
-11.885
20
-17.601
11
-12.471
21
-17.601
0
LINE
8
медь верх
10
12.471
20
-17.558
11
11.885
21
-17.558
0
LINE
8
медь верх
10
9.214
20
-17.558
11
8.983
21
-17.558
0
LINE
8
медь верх
10
8.334
20
-17.558
11
7.502
21
-17.558
0
LINE
8
медь верх
10
1.783
20
-17.559
11
0.263
21
-17.559
0
LINE
8
медь верх
10
-0.196
20
-17.559
11
-0.358
21
-17.559
0
LINE
8
медь верх
10
-1.571
20
-17.559
11
-1.783
21
-17.559
0
LINE
8
медь верх
10
-4.016
20
-17.559
11
-4.228
21
-17.559
0
LINE
8
медь верх
10
-5.987
20
-17.559
11
-6.195
21
-17.559
0
LINE
8
медь верх
10
-7.125
20
-17.560
11
-7.332
21
-17.560
0
LINE
8
медь верх
10
-10.005
20
-17.560
11
-10.170
21
-17.560
0
LINE
8
медь верх
10
-10.629
20
-17.560
11
-10.792
21
-17.560
0
LINE
8
медь верх
10
-11.885
20
-17.560
11
-12.471
21
-17.560
0
LINE
8
медь верх
10
12.471
20
-17.517
11
11.885
21
-17.517
0
LINE
8
медь верх
10
9.173
20
-17.518
11
8.942
21
-17.518
0
LINE
8
медь верх
10
8.293
20
-17.518
11
7.409
21
-17.518
0
LINE
8
медь верх
10
1.824
20
-17.518
11
0.263
21
-17.518
0
LINE
8
медь верх
10
-0.196
20
-17.518
11
-0.358
21
-17.518
0
LINE
8
медь верх
10
-1.571
20
-17.518
11
-1.824
21
-17.518
0
LINE
8
медь верх
10
-3.975
20
-17.520
11
-4.228
21
-17.520
0
LINE
8
медь верх
10
-6.010
20
-17.520
11
-6.234
21
-17.520
0
LINE
8
медь верх
10
-7.084
20
-17.520
11
-7.309
21
-17.520
0
LINE
8
медь верх
10
-9.996
20
-17.520
11
-10.170
21
-17.520
0
LINE
8
медь верх
10
-10.629
20
-17.520
11
-10.792
21
-17.520
0
LINE
8
медь верх
10
-11.885
20
-17.520
11
-12.471
21
-17.520
0
LINE
8
медь верх
10
12.471
20
-17.478
11
11.885
21
-17.478
0
LINE
8
медь верх
10
9.133
20
-17.478
11
8.903
21
-17.478
0
LINE
8
медь верх
10
8.252
20
-17.478
11
6.866
21
-17.478
0
LINE
8
медь верх
10
5.813
20
-17.478
11
3.934
21
-17.478
0
LINE
8
медь верх
10
1.864
20
-17.478
11
0.263
21
-17.479
0
LINE
8
медь верх
10
-0.196
20
-17.479
11
-0.358
21
-17.479
0
LINE
8
медь верх
10
-1.571
20
-17.479
11
-1.864
21
-17.479
0
LINE
8
медь верх
10
-3.936
20
-17.479
11
-4.228
21
-17.479
0
LINE
8
медь верх
10
-6.050
20
-17.479
11
-7.269
21
-17.479
0
LINE
8
медь верх
10
-9.968
20
-17.479
11
-10.170
21
-17.479
0
LINE
8
медь верх
10
-10.629
20
-17.479
11
-10.792
21
-17.479
0
LINE
8
медь верх
10
-11.885
20
-17.480
11
-12.471
21
-17.480
0
LINE
8
медь верх
10
12.471
20
-17.437
11
11.885
21
-17.437
0
LINE
8
медь верх
10
9.092
20
-17.437
11
8.862
21
-17.437
0
LINE
8
медь верх
10
8.213
20
-17.437
11
6.866
21
-17.437
0
LINE
8
медь верх
10
5.813
20
-17.437
11
3.894
21
-17.438
0
LINE
8
медь верх
10
1.905
20
-17.438
11
0.263
21
-17.438
0
LINE
8
медь верх
10
-0.196
20
-17.438
11
-0.358
21
-17.438
0
LINE
8
медь верх
10
-1.593
20
-17.438
11
-1.904
21
-17.438
0
LINE
8
медь верх
10
-3.895
20
-17.438
11
-4.206
21
-17.438
0
LINE
8
медь верх
10
-6.091
20
-17.438
11
-7.229
21
-17.438
0
LINE
8
медь верх
10
-9.929
20
-17.440
11
-10.159
21
-17.440
0
LINE
8
медь верх
10
-10.629
20
-17.440
11
-10.792
21
-17.440
0
LINE
8
медь верх
10
-11.885
20
-17.440
11
-12.471
21
-17.440
0
LINE
8
медь верх
10
12.471
20
-17.396
11
11.885
21
-17.396
0
LINE
8
медь верх
10
9.053
20
-17.396
11
8.821
21
-17.396
0
LINE
8
медь верх
10
8.172
20
-17.398
11
6.841
21
-17.398
0
LINE
8
медь верх
10
5.837
20
-17.398
11
3.854
21
-17.398
0
LINE
8
медь верх
10
1.944
20
-17.398
11
0.263
21
-17.398
0
LINE
8
медь верх
10
-0.196
20
-17.398
11
-0.358
21
-17.398
0
LINE
8
медь верх
10
-1.632
20
-17.398
11
-1.944
21
-17.398
0
LINE
8
медь верх
10
-3.854
20
-17.398
11
-4.167
21
-17.399
0
LINE
8
медь верх
10
-6.130
20
-17.399
11
-7.188
21
-17.399
0
LINE
8
медь верх
10
-9.888
20
-17.399
11
-10.118
21
-17.399
0
LINE
8
медь верх
10
-10.629
20
-17.399
11
-10.792
21
-17.399
0
LINE
8
медь верх
10
-11.885
20
-17.399
11
-12.471
21
-17.399
0
LINE
8
медь верх
10
12.471
20
-17.357
11
11.885
21
-17.357
0
LINE
8
медь верх
10
9.012
20
-17.357
11
8.782
21
-17.357
0
LINE
8
медь верх
10
8.132
20
-17.357
11
6.802
21
-17.357
0
LINE
8
медь верх
10
5.878
20
-17.357
11
0.263
21
-17.357
0
LINE
8
медь верх
10
-0.196
20
-17.358
11
-0.358
21
-17.358
0
LINE
8
медь верх
10
-1.673
20
-17.358
11
-4.126
21
-17.358
0
LINE
8
медь верх
10
-6.171
20
-17.358
11
-7.148
21
-17.358
0
LINE
8
медь верх
10
-9.848
20
-17.358
11
-10.079
21
-17.358
0
LINE
8
медь верх
10
-10.629
20
-17.358
11
-10.790
21
-17.358
0
LINE
8
медь верх
10
-11.885
20
-17.358
11
-12.471
21
-17.358
0
LINE
8
медь верх
10
12.471
20
-17.316
11
11.885
21
-17.316
0
LINE
8
медь верх
10
8.971
20
-17.316
11
8.741
21
-17.316
0
LINE
8
медь верх
10
8.092
20
-17.316
11
6.761
21
-17.316
0
LINE
8
медь верх
10
5.917
20
-17.316
11
0.263
21
-17.318
0
LINE
8
медь верх
10
-0.196
20
-17.318
11
-0.358
21
-17.318
0
LINE
8
медь верх
10
-1.713
20
-17.318
11
-4.086
21
-17.318
0
LINE
8
медь верх
10
-6.206
20
-17.318
11
-7.113
21
-17.318
0
LINE
8
медь верх
10
-9.808
20
-17.319
11
-10.038
21
-17.319
0
LINE
8
медь верх
10
-10.622
20
-17.319
11
-10.782
21
-17.319
0
LINE
8
медь верх
10
-11.885
20
-17.319
11
-12.471
21
-17.319
0
LINE
8
медь верх
10
12.471
20
-17.276
11
11.885
21
-17.276
0
LINE
8
медь верх
10
8.932
20
-17.276
11
8.701
21
-17.276
0
LINE
8
медь верх
10
8.052
20
-17.276
11
0.263
21
-17.277
0
LINE
8
медь верх
10
-0.196
20
-17.277
11
-0.358
21
-17.277
0
LINE
8
медь верх
10
-1.754
20
-17.277
11
-4.046
21
-17.277
0
LINE
8
медь верх
10
-6.226
20
-17.278
11
-7.093
21
-17.278
0
LINE
8
медь верх
10
-9.768
20
-17.278
11
-9.997
21
-17.278
0
LINE
8
медь верх
10
-10.613
20
-17.278
11
-10.775
21
-17.278
0
LINE
8
медь верх
10
-11.885
20
-17.278
11
-12.471
21
-17.278
0
LINE
8
медь верх
10
12.471
20
-17.235
11
11.885
21
-17.235
0
LINE
8
медь верх
10
8.891
20
-17.236
11
8.661
21
-17.236
0
LINE
8
медь верх
10
8.011
20
-17.236
11
0.263
21
-17.236
0
LINE
8
медь верх
10
-0.196
20
-17.236
11
-0.358
21
-17.236
0
LINE
8
медь верх
10
-1.793
20
-17.238
11
-4.006
21
-17.238
0
LINE
8
медь верх
10
-6.232
20
-17.238
11
-7.088
21
-17.238
0
LINE
8
медь верх
10
-9.727
20
-17.238
11
-9.958
21
-17.238
0
LINE
8
медь верх
10
-10.592
20
-17.238
11
-10.766
21
-17.238
0
LINE
8
медь верх
10
-11.885
20
-17.238
11
-12.471
21
-17.238
0
LINE
8
медь верх
10
12.471
20
-17.196
11
11.885
21
-17.196
0
LINE
8
медь верх
10
8.851
20
-17.196
11
8.621
21
-17.196
0
LINE
8
медь верх
10
7.972
20
-17.196
11
0.263
21
-17.197
0
LINE
8
медь верх
10
-0.196
20
-17.197
11
-0.358
21
-17.197
0
LINE
8
медь верх
10
-1.834
20
-17.197
11
-3.965
21
-17.197
0
LINE
8
медь верх
10
-6.223
20
-17.197
11
-7.095
21
-17.197
0
LINE
8
медь верх
10
-9.686
20
-17.197
11
-9.917
21
-17.197
0
LINE
8
медь верх
10
-10.565
20
-17.198
11
-10.754
21
-17.198
0
LINE
8
медь верх
10
-11.885
20
-17.198
11
-12.471
21
-17.198
0
LINE
8
медь верх
10
12.471
20
-17.155
11
11.885
21
-17.155
0
LINE
8
медь верх
10
8.811
20
-17.155
11
8.580
21
-17.155
0
LINE
8
медь верх
10
7.931
20
-17.155
11
0.263
21
-17.156
0
LINE
8
медь верх
10
-0.196
20
-17.156
11
-0.358
21
-17.156
0
LINE
8
медь верх
10
-1.867
20
-17.156
11
-3.932
21
-17.156
0
LINE
8
медь верх
10
-6.198
20
-17.156
11
-7.121
21
-17.158
0
LINE
8
медь верх
10
-9.647
20
-17.158
11
-9.877
21
-17.158
0
LINE
8
медь верх
10
-10.527
20
-17.158
11
-10.728
21
-17.158
0
LINE
8
медь верх
10
-11.885
20
-17.158
11
-12.471
21
-17.158
0
LINE
8
медь верх
10
12.471
20
-17.115
11
11.885
21
-17.115
0
LINE
8
медь верх
10
8.771
20
-17.116
11
8.539
21
-17.116
0
LINE
8
медь верх
10
7.891
20
-17.116
11
0.263
21
-17.116
0
LINE
8
медь верх
10
-0.196
20
-17.116
11
-0.358
21
-17.116
0
LINE
8
медь верх
10
-1.883
20
-17.116
11
-3.915
21
-17.117
0
LINE
8
медь верх
10
-6.130
20
-17.117
11
-7.188
21
-17.117
0
LINE
8
медь верх
10
-9.606
20
-17.117
11
-9.837
21
-17.117
0
LINE
8
медь верх
10
-10.486
20
-17.117
11
-10.701
21
-17.117
0
LINE
8
медь верх
10
-11.885
20
-17.117
11
-12.471
21
-17.117
0
LINE
8
медь верх
10
12.471
20
-17.075
11
11.885
21
-17.075
0
LINE
8
медь верх
10
8.730
20
-17.075
11
8.500
21
-17.075
0
LINE
8
медь верх
10
7.850
20
-17.075
11
0.263
21
-17.076
0
LINE
8
медь верх
10
-0.196
20
-17.076
11
-0.358
21
-17.076
0
LINE
8
медь верх
10
-1.886
20
-17.076
11
-3.913
21
-17.076
0
LINE
8
медь верх
10
-6.090
20
-17.076
11
-7.229
21
-17.076
0
LINE
8
медь верх
10
-9.566
20
-17.076
11
-9.797
21
-17.076
0
LINE
8
медь верх
10
-10.446
20
-17.076
11
-10.674
21
-17.076
0
LINE
8
медь верх
10
-11.885
20
-17.078
11
-12.471
21
-17.078
0
LINE
8
медь верх
10
12.471
20
-17.035
11
11.885
21
-17.035
0
LINE
8
медь верх
10
8.691
20
-17.035
11
8.459
21
-17.035
0
LINE
8
медь верх
10
7.810
20
-17.035
11
0.263
21
-17.036
0
LINE
8
медь верх
10
-0.196
20
-17.036
11
-0.358
21
-17.036
0
LINE
8
медь верх
10
-1.876
20
-17.036
11
-3.923
21
-17.036
0
LINE
8
медь верх
10
-6.050
20
-17.036
11
-7.268
21
-17.036
0
LINE
8
медь верх
10
-9.526
20
-17.037
11
-9.756
21
-17.037
0
LINE
8
медь верх
10
-10.406
20
-17.037
11
-10.636
21
-17.037
0
LINE
8
медь верх
10
-11.885
20
-17.037
11
-12.471
21
-17.037
0
LINE
8
медь верх
10
12.471
20
-16.994
11
11.885
21
-16.994
0
LINE
8
медь верх
10
8.650
20
-16.995
11
8.419
21
-16.995
0
LINE
8
медь верх
10
7.770
20
-16.995
11
0.263
21
-16.995
0
LINE
8
медь верх
10
-0.196
20
-16.995
11
-0.358
21
-16.995
0
LINE
8
медь верх
10
-1.848
20
-16.995
11
-3.951
21
-16.996
0
LINE
8
медь верх
10
-6.010
20
-16.996
11
-7.309
21
-16.996
0
LINE
8
медь верх
10
-9.486
20
-16.996
11
-9.715
21
-16.996
0
LINE
8
медь верх
10
-10.366
20
-16.996
11
-10.596
21
-16.996
0
LINE
8
медь верх
10
-11.885
20
-16.996
11
-12.471
21
-16.996
0
LINE
8
медь верх
10
12.471
20
-16.954
11
11.885
21
-16.954
0
LINE
8
медь верх
10
8.609
20
-16.954
11
8.379
21
-16.954
0
LINE
8
медь верх
10
7.729
20
-16.954
11
0.263
21
-16.956
0
LINE
8
медь верх
10
-0.196
20
-16.956
11
-0.358
21
-16.956
0
LINE
8
медь верх
10
-1.807
20
-16.956
11
-3.992
21
-16.956
0
LINE
8
медь верх
10
-5.969
20
-16.956
11
-7.349
21
-16.956
0
LINE
8
медь верх
10
-9.445
20
-16.956
11
-9.676
21
-16.956
0
LINE
8
медь верх
10
-10.325
20
-16.956
11
-10.556
21
-16.956
0
LINE
8
медь верх
10
-11.885
20
-16.956
11
-12.471
21
-16.957
0
LINE
8
медь верх
10
12.471
20
-16.914
11
11.885
21
-16.914
0
LINE
8
медь верх
10
8.569
20
-16.914
11
8.339
21
-16.914
0
LINE
8
медь верх
10
7.690
20
-16.914
11
0.263
21
-16.915
0
LINE
8
медь верх
10
-0.196
20
-16.915
11
-0.358
21
-16.915
0
LINE
8
медь верх
10
-1.767
20
-16.915
11
-4.031
21
-16.915
0
LINE
8
медь верх
10
-5.930
20
-16.915
11
-6.241
21
-16.915
0
LINE
8
медь верх
10
-7.078
20
-16.915
11
-7.389
21
-16.915
0
LINE
8
медь верх
10
-9.406
20
-16.916
11
-9.635
21
-16.916
0
LINE
8
медь верх
10
-10.284
20
-16.916
11
-10.516
21
-16.916
0
LINE
8
медь верх
10
-11.885
20
-16.916
11
-12.471
21
-16.916
0
LINE
8
медь верх
10
12.471
20
-16.873
11
11.885
21
-16.873
0
LINE
8
медь верх
10
8.529
20
-16.873
11
8.298
21
-16.873
0
LINE
8
медь верх
10
7.649
20
-16.874
11
0.263
21
-16.874
0
LINE
8
медь верх
10
-0.196
20
-16.874
11
-0.358
21
-16.874
0
LINE
8
медь верх
10
-1.727
20
-16.874
11
-4.072
21
-16.874
0
LINE
8
медь верх
10
-5.899
20
-16.876
11
-6.200
21
-16.876
0
LINE
8
медь верх
10
-7.118
20
-16.876
11
-7.419
21
-16.876
0
LINE
8
медь верх
10
-9.365
20
-16.876
11
-9.595
21
-16.876
0
LINE
8
медь верх
10
-10.245
20
-16.876
11
-10.475
21
-16.876
0
LINE
8
медь верх
10
-11.885
20
-16.876
11
-12.471
21
-16.876
0
LINE
8
медь верх
10
12.471
20
-16.833
11
11.885
21
-16.834
0
LINE
8
медь верх
10
8.489
20
-16.834
11
8.259
21
-16.834
0
LINE
8
медь верх
10
7.609
20
-16.834
11
6.789
21
-16.834
0
LINE
8
медь верх
10
5.889
20
-16.834
11
0.263
21
-16.834
0
LINE
8
медь верх
10
-0.196
20
-16.834
11
-0.358
21
-16.834
0
LINE
8
медь верх
10
-1.687
20
-16.835
11
-4.153
21
-16.835
0
LINE
8
медь верх
10
-5.820
20
-16.835
11
-6.161
21
-16.835
0
LINE
8
медь верх
10
-7.158
20
-16.835
11
-7.498
21
-16.835
0
LINE
8
медь верх
10
-9.285
20
-16.835
11
-9.555
21
-16.835
0
LINE
8
медь верх
10
-10.204
20
-16.835
11
-10.436
21
-16.835
0
LINE
8
медь верх
10
-11.885
20
-16.835
11
-12.471
21
-16.835
0
LINE
8
медь верх
10
12.471
20
-16.793
11
11.885
21
-16.793
0
LINE
8
медь верх
10
8.448
20
-16.793
11
8.218
21
-16.793
0
LINE
8
медь верх
10
7.569
20
-16.793
11
6.829
21
-16.793
0
LINE
8
медь верх
10
5.848
20
-16.793
11
3.842
21
-16.793
0
LINE
8
медь верх
10
1.957
20
-16.794
11
0.263
21
-16.794
0
LINE
8
медь верх
10
-0.196
20
-16.794
11
-0.358
21
-16.794
0
LINE
8
медь верх
10
-1.646
20
-16.794
11
-1.958
21
-16.794
0
LINE
8
медь верх
10
-3.840
20
-16.794
11
-6.133
21
-16.794
0
LINE
8
медь верх
10
-7.186
20
-16.794
11
-9.515
21
-16.794
0
LINE
8
медь верх
10
-10.164
20
-16.796
11
-10.395
21
-16.796
0
LINE
8
медь верх
10
-11.885
20
-16.796
11
-12.471
21
-16.796
0
LINE
8
медь верх
10
12.471
20
-16.753
11
11.885
21
-16.753
0
LINE
8
медь верх
10
8.409
20
-16.753
11
8.178
21
-16.753
0
LINE
8
медь верх
10
7.529
20
-16.753
11
6.866
21
-16.754
0
LINE
8
медь верх
10
5.813
20
-16.754
11
3.881
21
-16.754
0
LINE
8
медь верх
10
1.918
20
-16.754
11
0.263
21
-16.754
0
LINE
8
медь верх
10
-0.196
20
-16.754
11
-0.358
21
-16.754
0
LINE
8
медь верх
10
-1.607
20
-16.754
11
-1.918
21
-16.754
0
LINE
8
медь верх
10
-3.881
20
-16.754
11
-6.133
21
-16.755
0
LINE
8
медь верх
10
-7.186
20
-16.755
11
-9.474
21
-16.755
0
LINE
8
медь верх
10
-10.124
20
-16.755
11
-10.354
21
-16.755
0
LINE
8
медь верх
10
-11.885
20
-16.755
11
-12.471
21
-16.755
0
LINE
8
медь верх
10
12.471
20
-16.712
11
11.885
21
-16.712
0
LINE
8
медь верх
10
8.368
20
-16.713
11
8.138
21
-16.713
0
LINE
8
медь верх
10
7.488
20
-16.713
11
6.866
21
-16.713
0
LINE
8
медь верх
10
5.813
20
-16.713
11
3.922
21
-16.713
0
LINE
8
медь верх
10
1.877
20
-16.713
11
0.263
21
-16.713
0
LINE
8
медь верх
10
-0.196
20
-16.713
11
-0.358
21
-16.713
0
LINE
8
медь верх
10
-1.571
20
-16.713
11
-1.877
21
-16.713
0
LINE
8
медь верх
10
-3.920
20
-16.714
11
-6.133
21
-16.714
0
LINE
8
медь верх
10
-7.186
20
-16.714
11
-9.435
21
-16.714
0
LINE
8
медь верх
10
-10.084
20
-16.714
11
-10.314
21
-16.714
0
LINE
8
медь верх
10
-11.885
20
-16.714
11
-12.471
21
-16.714
0
LINE
8
медь верх
10
12.471
20
-16.673
11
11.885
21
-16.673
0
LINE
8
медь верх
10
8.327
20
-16.673
11
8.098
21
-16.673
0
LINE
8
медь верх
10
7.449
20
-16.673
11
6.866
21
-16.673
0
LINE
8
медь верх
10
5.813
20
-16.673
11
3.962
21
-16.673
0
LINE
8
медь верх
10
1.836
20
-16.674
11
0.263
21
-16.674
0
LINE
8
медь верх
10
-0.196
20
-16.674
11
-0.358
21
-16.674
0
LINE
8
медь верх
10
-1.571
20
-16.674
11
-1.838
21
-16.674
0
LINE
8
медь верх
10
-3.961
20
-16.674
11
-6.133
21
-16.674
0
LINE
8
медь верх
10
-7.186
20
-16.674
11
-9.394
21
-16.674
0
LINE
8
медь верх
10
-10.043
20
-16.674
11
-10.274
21
-16.674
0
LINE
8
медь верх
10
-11.885
20
-16.675
11
-12.471
21
-16.675
0
LINE
8
медь верх
10
12.471
20
-16.632
11
11.885
21
-16.632
0
LINE
8
медь верх
10
8.288
20
-16.632
11
8.057
21
-16.632
0
LINE
8
медь верх
10
1.797
20
-16.633
11
0.263
21
-16.633
0
LINE
8
медь верх
10
-0.196
20
-16.633
11
-0.358
21
-16.633
0
LINE
8
медь верх
10
-1.571
20
-16.633
11
-1.797
21
-16.633
0
LINE
8
медь верх
10
-10.004
20
-16.634
11
-10.234
21
-16.634
0
LINE
8
медь верх
10
-11.885
20
-16.634
11
-12.471
21
-16.634
0
LINE
8
медь верх
10
12.471
20
-16.591
11
11.885
21
-16.591
0
LINE
8
медь верх
10
8.247
20
-16.593
11
8.016
21
-16.593
0
LINE
8
медь верх
10
1.772
20
-16.593
11
0.263
21
-16.593
0
LINE
8
медь верх
10
-0.196
20
-16.593
11
-0.358
21
-16.593
0
LINE
8
медь верх
10
-1.571
20
-16.593
11
-1.772
21
-16.593
0
LINE
8
медь верх
10
-9.963
20
-16.594
11
-10.193
21
-16.594
0
LINE
8
медь верх
10
-11.885
20
-16.594
11
-12.471
21
-16.594
0
LINE
8
медь верх
10
12.471
20
-16.552
11
11.885
21
-16.552
0
LINE
8
медь верх
10
8.207
20
-16.552
11
7.977
21
-16.552
0
LINE
8
медь верх
10
1.772
20
-16.552
11
0.263
21
-16.553
0
LINE
8
медь верх
10
-0.196
20
-16.553
11
-0.358
21
-16.553
0
LINE
8
медь верх
10
-1.571
20
-16.553
11
-1.772
21
-16.553
0
LINE
8
медь верх
10
-9.923
20
-16.553
11
-10.154
21
-16.553
0
LINE
8
медь верх
10
-11.885
20
-16.554
11
-12.471
21
-16.554
0
LINE
8
медь верх
10
12.471
20
-16.511
11
11.885
21
-16.511
0
LINE
8
медь верх
10
8.167
20
-16.511
11
7.936
21
-16.511
0
LINE
8
медь верх
10
1.772
20
-16.513
11
0.263
21
-16.513
0
LINE
8
медь верх
10
-0.196
20
-16.513
11
-0.358
21
-16.513
0
LINE
8
медь верх
10
-1.571
20
-16.513
11
-1.772
21
-16.513
0
LINE
8
медь верх
10
-9.882
20
-16.514
11
-10.113
21
-16.514
0
LINE
8
медь верх
10
-11.885
20
-16.514
11
-12.471
21
-16.514
0
LINE
8
медь верх
10
12.471
20
-16.471
11
11.885
21
-16.471
0
LINE
8
медь верх
10
8.127
20
-16.472
11
7.896
21
-16.472
0
LINE
8
медь верх
10
1.772
20
-16.472
11
0.263
21
-16.472
0
LINE
8
медь верх
10
-0.196
20
-16.472
11
-0.358
21
-16.472
0
LINE
8
медь верх
10
-1.571
20
-16.472
11
-1.772
21
-16.472
0
LINE
8
медь верх
10
-9.842
20
-16.473
11
-10.072
21
-16.473
0
LINE
8
медь верх
10
-11.885
20
-16.473
11
-12.471
21
-16.473
0
LINE
8
медь верх
10
12.471
20
-16.430
11
11.885
21
-16.431
0
LINE
8
медь верх
10
8.086
20
-16.431
11
7.856
21
-16.431
0
LINE
8
медь верх
10
1.772
20
-16.431
11
0.263
21
-16.431
0
LINE
8
медь верх
10
-0.196
20
-16.431
11
-0.358
21
-16.433
0
LINE
8
медь верх
10
-1.571
20
-16.433
11
-1.772
21
-16.433
0
LINE
8
медь верх
10
-9.802
20
-16.433
11
-10.033
21
-16.433
0
LINE
8
медь верх
10
-11.885
20
-16.433
11
-12.471
21
-16.433
0
LINE
8
медь верх
10
12.471
20
-16.391
11
11.885
21
-16.391
0
LINE
8
медь верх
10
8.045
20
-16.391
11
7.816
21
-16.391
0
LINE
8
медь верх
10
1.772
20
-16.392
11
0.263
21
-16.392
0
LINE
8
медь верх
10
-0.196
20
-16.392
11
-0.358
21
-16.392
0
LINE
8
медь верх
10
-1.571
20
-16.392
11
-1.772
21
-16.392
0
LINE
8
медь верх
10
-9.761
20
-16.393
11
-9.992
21
-16.393
0
LINE
8
медь верх
10
-11.885
20
-16.393
11
-12.471
21
-16.393
0
LINE
8
медь верх
10
12.471
20
-16.350
11
11.885
21
-16.350
0
LINE
8
медь верх
10
8.006
20
-16.350
11
7.775
21
-16.350
0
LINE
8
медь верх
10
1.772
20
-16.351
11
0.263
21
-16.351
0
LINE
8
медь верх
10
-0.196
20
-16.351
11
-0.358
21
-16.351
0
LINE
8
медь верх
10
-1.571
20
-16.351
11
-1.772
21
-16.351
0
LINE
8
медь верх
10
-9.722
20
-16.353
11
-9.952
21
-16.353
0
LINE
8
медь верх
10
-11.885
20
-16.353
11
-12.471
21
-16.353
0
LINE
8
медь верх
10
12.471
20
-16.309
11
11.885
21
-16.309
0
LINE
8
медь верх
10
7.965
20
-16.311
11
7.736
21
-16.311
0
LINE
8
медь верх
10
1.772
20
-16.311
11
0.263
21
-16.311
0
LINE
8
медь верх
10
-0.196
20
-16.311
11
-0.358
21
-16.311
0
LINE
8
медь верх
10
-1.571
20
-16.312
11
-1.772
21
-16.312
0
LINE
8
медь верх
10
-9.681
20
-16.312
11
-9.911
21
-16.312
0
LINE
8
медь верх
10
-11.885
20
-16.312
11
-12.471
21
-16.312
0
LINE
8
медь верх
10
12.471
20
-16.270
11
11.885
21
-16.270
0
LINE
8
медь верх
10
7.925
20
-16.270
11
7.691
21
-16.270
0
LINE
8
медь верх
10
1.772
20
-16.271
11
0.263
21
-16.271
0
LINE
8
медь верх
10
-0.196
20
-16.271
11
-0.358
21
-16.271
0
LINE
8
медь верх
10
-1.571
20
-16.271
11
-1.772
21
-16.271
0
LINE
8
медь верх
10
-9.638
20
-16.271
11
-9.872
21
-16.271
0
LINE
8
медь верх
10
-11.885
20
-16.273
11
-12.471
21
-16.273
0
LINE
8
медь верх
10
12.471
20
-16.229
11
11.885
21
-16.229
0
LINE
8
медь верх
10
7.885
20
-16.229
11
7.631
21
-16.229
0
LINE
8
медь верх
10
1.812
20
-16.231
11
0.263
21
-16.231
0
LINE
8
медь верх
10
-0.196
20
-16.231
11
-0.358
21
-16.231
0
LINE
8
медь верх
10
-1.571
20
-16.231
11
-1.811
21
-16.231
0
LINE
8
медь верх
10
-9.578
20
-16.232
11
-9.831
21
-16.232
0
LINE
8
медь верх
10
-11.885
20
-16.232
11
-12.471
21
-16.232
0
LINE
8
медь верх
10
12.471
20
-16.189
11
11.885
21
-16.189
0
LINE
8
медь верх
10
7.845
20
-16.190
11
6.866
21
-16.190
0
LINE
8
медь верх
10
5.813
20
-16.190
11
3.946
21
-16.190
0
LINE
8
медь верх
10
1.852
20
-16.190
11
0.263
21
-16.190
0
LINE
8
медь верх
10
-0.196
20
-16.190
11
-0.358
21
-16.190
0
LINE
8
медь верх
10
-1.571
20
-16.190
11
-1.852
21
-16.190
0
LINE
8
медь верх
10
-3.947
20
-16.191
11
-6.133
21
-16.191
0
LINE
8
медь верх
10
-7.186
20
-16.191
11
-9.790
21
-16.191
0
LINE
8
медь верх
10
-11.885
20
-16.191
11
-12.471
21
-16.191
0
LINE
8
медь верх
10
12.471
20
-16.149
11
11.885
21
-16.149
0
LINE
8
медь верх
10
7.794
20
-16.149
11
6.866
21
-16.149
0
LINE
8
медь верх
10
5.813
20
-16.149
11
3.907
21
-16.149
0
LINE
8
медь верх
10
1.892
20
-16.149
11
0.263
21
-16.151
0
LINE
8
медь верх
10
-0.196
20
-16.151
11
-0.358
21
-16.151
0
LINE
8
медь верх
10
-1.580
20
-16.151
11
-1.892
21
-16.151
0
LINE
8
медь верх
10
-3.907
20
-16.151
11
-6.133
21
-16.151
0
LINE
8
медь верх
10
-7.186
20
-16.151
11
-9.741
21
-16.151
0
LINE
8
медь верх
10
-11.885
20
-16.152
11
-12.471
21
-16.152
0
LINE
8
медь верх
10
12.471
20
-16.109
11
11.885
21
-16.109
0
LINE
8
медь верх
10
7.734
20
-16.109
11
6.853
21
-16.109
0
LINE
8
медь верх
10
5.824
20
-16.109
11
3.866
21
-16.110
0
LINE
8
медь верх
10
1.933
20
-16.110
11
0.263
21
-16.110
0
LINE
8
медь верх
10
-0.196
20
-16.110
11
-0.358
21
-16.110
0
LINE
8
медь верх
10
-1.621
20
-16.110
11
-1.933
21
-16.110
0
LINE
8
медь верх
10
-3.867
20
-16.110
11
-6.133
21
-16.110
0
LINE
8
медь верх
10
-7.186
20
-16.110
11
-9.681
21
-16.111
0
LINE
8
медь верх
10
-11.885
20
-16.111
11
-12.471
21
-16.111
0
LINE
8
медь верх
10
12.471
20
-16.068
11
11.885
21
-16.068
0
LINE
8
медь верх
10
7.638
20
-16.069
11
6.814
21
-16.069
0
LINE
8
медь верх
10
5.865
20
-16.069
11
3.825
21
-16.069
0
LINE
8
медь верх
10
1.974
20
-16.069
11
0.263
21
-16.069
0
LINE
8
медь верх
10
-0.196
20
-16.069
11
-0.358
21
-16.069
0
LINE
8
медь верх
10
-1.661
20
-16.069
11
-1.972
21
-16.069
0
LINE
8
медь верх
10
-3.827
20
-16.071
11
-6.134
21
-16.071
0
LINE
8
медь верх
10
-7.184
20
-16.071
11
-9.591
21
-16.071
0
LINE
8
медь верх
10
-11.885
20
-16.071
11
-12.471
21
-16.071
0
LINE
8
медь верх
10
12.471
20
-16.029
11
11.885
21
-16.029
0
LINE
8
медь верх
10
7.094
20
-16.029
11
6.773
21
-16.029
0
LINE
8
медь верх
10
5.906
20
-16.029
11
0.263
21
-16.029
0
LINE
8
медь верх
10
-0.196
20
-16.030
11
-0.358
21
-16.030
0
LINE
8
медь верх
10
-1.701
20
-16.030
11
-4.108
21
-16.030
0
LINE
8
медь верх
10
-5.865
20
-16.030
11
-6.175
21
-16.030
0
LINE
8
медь верх
10
-7.145
20
-16.030
11
-7.455
21
-16.030
0
LINE
8
медь верх
10
-11.885
20
-16.030
11
-12.471
21
-16.030
0
LINE
8
медь верх
10
12.471
20
-15.988
11
11.885
21
-15.988
0
LINE
8
медь верх
10
7.047
20
-15.988
11
0.263
21
-15.989
0
LINE
8
медь верх
10
-0.196
20
-15.989
11
-0.358
21
-15.989
0
LINE
8
медь верх
10
-1.741
20
-15.989
11
-4.058
21
-15.989
0
LINE
8
медь верх
10
-5.908
20
-15.989
11
-6.214
21
-15.989
0
LINE
8
медь верх
10
-7.104
20
-15.989
11
-7.410
21
-15.989
0
LINE
8
медь верх
10
-11.885
20
-15.991
11
-12.471
21
-15.991
0
LINE
8
медь верх
10
12.471
20
-15.947
11
11.885
21
-15.947
0
LINE
8
медь верх
10
7.024
20
-15.949
11
0.263
21
-15.949
0
LINE
8
медь верх
10
-0.196
20
-15.949
11
-0.358
21
-15.949
0
LINE
8
медь верх
10
-1.770
20
-15.949
11
-4.028
21
-15.949
0
LINE
8
медь верх
10
-5.944
20
-15.950
11
-6.430
21
-15.950
0
LINE
8
медь верх
10
-6.888
20
-15.950
11
-7.376
21
-15.950
0
LINE
8
медь верх
10
-11.885
20
-15.950
11
-12.471
21
-15.950
0
LINE
8
медь верх
10
12.471
20
-15.907
11
11.885
21
-15.907
0
LINE
8
медь верх
10
7.017
20
-15.908
11
6.864
21
-15.908
0
LINE
8
медь верх
10
5.813
20
-15.908
11
0.263
21
-15.908
0
LINE
8
медь верх
10
-0.196
20
-15.908
11
-0.358
21
-15.908
0
LINE
8
медь верх
10
-1.782
20
-15.909
11
-4.017
21
-15.909
0
LINE
8
медь верх
10
-5.983
20
-15.909
11
-6.430
21
-15.909
0
LINE
8
медь верх
10
-6.888
20
-15.909
11
-7.336
21
-15.909
0
LINE
8
медь верх
10
-11.885
20
-15.909
11
-12.471
21
-15.909
0
LINE
8
медь верх
10
12.471
20
-15.867
11
11.885
21
-15.867
0
LINE
8
медь верх
10
7.017
20
-15.867
11
6.864
21
-15.867
0
LINE
8
медь верх
10
5.813
20
-15.867
11
0.263
21
-15.869
0
LINE
8
медь верх
10
-0.196
20
-15.869
11
-0.358
21
-15.869
0
LINE
8
медь верх
10
-1.781
20
-15.869
11
-4.018
21
-15.869
0
LINE
8
медь верх
10
-6.024
20
-15.869
11
-6.430
21
-15.869
0
LINE
8
медь верх
10
-6.888
20
-15.869
11
-7.295
21
-15.869
0
LINE
8
медь верх
10
-11.885
20
-15.870
11
-12.471
21
-15.870
0
LINE
8
медь верх
10
12.471
20
-15.827
11
11.885
21
-15.827
0
LINE
8
медь верх
10
7.017
20
-15.827
11
6.864
21
-15.827
0
LINE
8
медь верх
10
5.813
20
-15.828
11
0.263
21
-15.828
0
LINE
8
медь верх
10
-0.196
20
-15.828
11
-0.358
21
-15.828
0
LINE
8
медь верх
10
-1.764
20
-15.828
11
-4.034
21
-15.828
0
LINE
8
медь верх
10
-6.064
20
-15.829
11
-6.430
21
-15.829
0
LINE
8
медь верх
10
-6.888
20
-15.829
11
-7.256
21
-15.829
0
LINE
8
медь верх
10
-11.885
20
-15.829
11
-12.471
21
-15.829
0
LINE
8
медь верх
10
12.471
20
-15.786
11
11.885
21
-15.786
0
LINE
8
медь верх
10
7.017
20
-15.787
11
6.864
21
-15.787
0
LINE
8
медь верх
10
5.813
20
-15.787
11
0.263
21
-15.787
0
LINE
8
медь верх
10
-0.196
20
-15.787
11
-0.358
21
-15.787
0
LINE
8
медь верх
10
-1.726
20
-15.787
11
-4.073
21
-15.789
0
LINE
8
медь верх
10
-6.104
20
-15.789
11
-6.430
21
-15.789
0
LINE
8
медь верх
10
-6.888
20
-15.789
11
-7.215
21
-15.789
0
LINE
8
медь верх
10
-11.885
20
-15.789
11
-12.471
21
-15.789
0
LINE
8
медь верх
10
12.471
20
-15.747
11
11.885
21
-15.747
0
LINE
8
медь верх
10
7.017
20
-15.747
11
6.864
21
-15.747
0
LINE
8
медь верх
10
5.813
20
-15.747
11
0.263
21
-15.748
0
LINE
8
медь верх
10
-0.196
20
-15.748
11
-0.358
21
-15.748
0
LINE
8
медь верх
10
-1.657
20
-15.748
11
-4.140
21
-15.748
0
LINE
8
медь верх
10
-6.195
20
-15.748
11
-6.430
21
-15.748
0
LINE
8
медь верх
10
-6.888
20
-15.748
11
-7.123
21
-15.748
0
LINE
8
медь верх
10
-11.885
20
-15.749
11
-12.471
21
-15.749
0
LINE
8
медь верх
10
12.471
20
-15.706
11
11.885
21
-15.706
0
LINE
8
медь верх
10
7.017
20
-15.706
11
6.864
21
-15.706
0
LINE
8
медь верх
10
5.813
20
-15.706
11
0.263
21
-15.707
0
LINE
8
медь верх
10
-0.196
20
-15.707
11
-0.358
21
-15.707
0
LINE
8
медь верх
10
-1.618
20
-15.707
11
-4.181
21
-15.707
0
LINE
8
медь верх
10
-6.241
20
-15.707
11
-6.430
21
-15.707
0
LINE
8
медь верх
10
-6.888
20
-15.707
11
-7.078
21
-15.709
0
LINE
8
медь верх
10
-11.885
20
-15.709
11
-12.471
21
-15.709
0
LINE
8
медь верх
10
12.471
20
-15.665
11
11.885
21
-15.665
0
LINE
8
медь верх
10
7.017
20
-15.667
11
6.864
21
-15.667
0
LINE
8
медь верх
10
5.813
20
-15.667
11
0.263
21
-15.667
0
LINE
8
медь верх
10
-0.196
20
-15.667
11
-0.358
21
-15.667
0
LINE
8
медь верх
10
-1.577
20
-15.667
11
-4.221
21
-15.668
0
LINE
8
медь верх
10
-6.260
20
-15.668
11
-6.430
21
-15.668
0
LINE
8
медь верх
10
-6.888
20
-15.668
11
-7.059
21
-15.668
0
LINE
8
медь верх
10
-11.885
20
-15.668
11
-12.471
21
-15.668
0
LINE
8
медь верх
10
12.471
20
-15.626
11
11.885
21
-15.626
0
LINE
8
медь верх
10
7.017
20
-15.626
11
6.864
21
-15.626
0
LINE
8
медь верх
10
5.813
20
-15.626
11
0.263
21
-15.627
0
LINE
8
медь верх
10
-0.196
20
-15.627
11
-0.358
21
-15.627
0
LINE
8
медь верх
10
-1.574
20
-15.627
11
-4.225
21
-15.627
0
LINE
8
медь верх
10
-6.266
20
-15.627
11
-6.430
21
-15.627
0
LINE
8
медь верх
10
-6.888
20
-15.627
11
-7.052
21
-15.627
0
LINE
8
медь верх
10
-11.885
20
-15.627
11
-12.471
21
-15.629
0
LINE
8
медь верх
10
12.471
20
-15.585
11
11.885
21
-15.585
0
LINE
8
медь верх
10
7.017
20
-15.585
11
6.864
21
-15.585
0
LINE
8
медь верх
10
5.813
20
-15.585
11
0.263
21
-15.587
0
LINE
8
медь верх
10
-0.196
20
-15.587
11
-0.358
21
-15.587
0
LINE
8
медь верх
10
-1.574
20
-15.587
11
-4.225
21
-15.587
0
LINE
8
медь верх
10
-6.266
20
-15.587
11
-6.430
21
-15.587
0
LINE
8
медь верх
10
-6.888
20
-15.587
11
-7.052
21
-15.587
0
LINE
8
медь верх
10
-11.885
20
-15.588
11
-12.471
21
-15.588
0
LINE
8
медь верх
10
12.471
20
-15.545
11
11.885
21
-15.545
0
LINE
8
медь верх
10
7.017
20
-15.546
11
6.864
21
-15.546
0
LINE
8
медь верх
10
5.813
20
-15.546
11
3.839
21
-15.546
0
LINE
8
медь верх
10
1.960
20
-15.546
11
0.263
21
-15.546
0
LINE
8
медь верх
10
-0.196
20
-15.546
11
-0.358
21
-15.546
0
LINE
8
медь верх
10
-1.574
20
-15.546
11
-1.774
21
-15.546
0
LINE
8
медь верх
10
-4.025
20
-15.546
11
-4.225
21
-15.546
0
LINE
8
медь верх
10
-6.266
20
-15.547
11
-6.430
21
-15.547
0
LINE
8
медь верх
10
-6.888
20
-15.547
11
-7.052
21
-15.547
0
LINE
8
медь верх
10
-11.885
20
-15.547
11
-12.471
21
-15.547
0
LINE
8
медь верх
10
12.471
20
-15.504
11
11.885
21
-15.505
0
LINE
8
медь верх
10
7.017
20
-15.505
11
6.864
21
-15.505
0
LINE
8
медь верх
10
5.813
20
-15.505
11
3.880
21
-15.505
0
LINE
8
медь верх
10
1.919
20
-15.505
11
0.263
21
-15.505
0
LINE
8
медь верх
10
-0.196
20
-15.505
11
-0.358
21
-15.505
0
LINE
8
медь верх
10
-1.574
20
-15.507
11
-1.774
21
-15.507
0
LINE
8
медь верх
10
-4.025
20
-15.507
11
-4.225
21
-15.507
0
LINE
8
медь верх
10
-6.266
20
-15.507
11
-6.430
21
-15.507
0
LINE
8
медь верх
10
-6.888
20
-15.507
11
-7.052
21
-15.507
0
LINE
8
медь верх
10
-11.885
20
-15.507
11
-12.471
21
-15.507
0
LINE
8
медь верх
10
12.471
20
-15.465
11
11.885
21
-15.465
0
LINE
8
медь верх
10
7.017
20
-15.465
11
6.864
21
-15.465
0
LINE
8
медь верх
10
5.813
20
-15.465
11
3.919
21
-15.465
0
LINE
8
медь верх
10
1.880
20
-15.466
11
0.263
21
-15.466
0
LINE
8
медь верх
10
-0.196
20
-15.466
11
-0.358
21
-15.466
0
LINE
8
медь верх
10
-1.574
20
-15.466
11
-1.774
21
-15.466
0
LINE
8
медь верх
10
-4.025
20
-15.466
11
-4.225
21
-15.466
0
LINE
8
медь верх
10
-6.266
20
-15.466
11
-6.430
21
-15.466
0
LINE
8
медь верх
10
-6.888
20
-15.466
11
-7.052
21
-15.466
0
LINE
8
медь верх
10
-11.885
20
-15.467
11
-12.471
21
-15.467
0
LINE
8
медь верх
10
12.471
20
-15.424
11
11.885
21
-15.424
0
LINE
8
медь верх
10
7.017
20
-15.425
11
6.864
21
-15.425
0
LINE
8
медь верх
10
5.813
20
-15.425
11
3.960
21
-15.425
0
LINE
8
медь верх
10
1.839
20
-15.425
11
0.263
21
-15.425
0
LINE
8
медь верх
10
-0.196
20
-15.425
11
-0.358
21
-15.425
0
LINE
8
медь верх
10
-1.574
20
-15.425
11
-1.774
21
-15.425
0
LINE
8
медь верх
10
-4.025
20
-15.425
11
-4.225
21
-15.425
0
LINE
8
медь верх
10
-6.266
20
-15.427
11
-6.430
21
-15.427
0
LINE
8
медь верх
10
-6.888
20
-15.427
11
-7.052
21
-15.427
0
LINE
8
медь верх
10
-11.885
20
-15.427
11
-12.471
21
-15.427
0
LINE
8
медь верх
10
12.471
20
-15.384
11
11.885
21
-15.384
0
LINE
8
медь верх
10
7.017
20
-15.385
11
6.864
21
-15.385
0
LINE
8
медь верх
10
5.813
20
-15.385
11
4.000
21
-15.385
0
LINE
8
медь верх
10
1.798
20
-15.385
11
0.263
21
-15.385
0
LINE
8
медь верх
10
-0.196
20
-15.385
11
-0.358
21
-15.385
0
LINE
8
медь верх
10
-1.574
20
-15.386
11
-1.774
21
-15.386
0
LINE
8
медь верх
10
-4.025
20
-15.386
11
-4.225
21
-15.386
0
LINE
8
медь верх
10
-6.266
20
-15.386
11
-6.430
21
-15.386
0
LINE
8
медь верх
10
-6.888
20
-15.386
11
-7.052
21
-15.386
0
LINE
8
медь верх
10
-11.885
20
-15.386
11
-12.471
21
-15.386
0
LINE
8
медь верх
10
12.471
20
-15.344
11
11.885
21
-15.344
0
LINE
8
медь верх
10
7.017
20
-15.344
11
6.864
21
-15.344
0
LINE
8
медь верх
10
5.813
20
-15.344
11
4.027
21
-15.344
0
LINE
8
медь верх
10
1.772
20
-15.345
11
0.263
21
-15.345
0
LINE
8
медь верх
10
-0.196
20
-15.345
11
-0.358
21
-15.345
0
LINE
8
медь верх
10
-1.574
20
-15.345
11
-1.774
21
-15.345
0
LINE
8
медь верх
10
-4.025
20
-15.345
11
-4.225
21
-15.345
0
LINE
8
медь верх
10
-6.266
20
-15.345
11
-6.430
21
-15.345
0
LINE
8
медь верх
10
-6.888
20
-15.345
11
-7.052
21
-15.345
0
LINE
8
медь верх
10
-11.885
20
-15.347
11
-12.471
21
-15.347
0
LINE
8
медь верх
10
12.471
20
-15.304
11
11.885
21
-15.304
0
LINE
8
медь верх
10
7.021
20
-15.304
11
6.862
21
-15.304
0
LINE
8
медь верх
10
5.815
20
-15.305
11
4.027
21
-15.305
0
LINE
8
медь верх
10
1.772
20
-15.305
11
0.263
21
-15.305
0
LINE
8
медь верх
10
-0.196
20
-15.305
11
-0.358
21
-15.305
0
LINE
8
медь верх
10
-1.574
20
-15.305
11
-1.774
21
-15.305
0
LINE
8
медь верх
10
-4.025
20
-15.305
11
-4.225
21
-15.305
0
LINE
8
медь верх
10
-6.266
20
-15.305
11
-6.430
21
-15.305
0
LINE
8
медь верх
10
-6.888
20
-15.306
11
-7.052
21
-15.306
0
LINE
8
медь верх
10
-11.885
20
-15.306
11
-12.471
21
-15.306
0
LINE
8
медь верх
10
12.471
20
-15.263
11
11.885
21
-15.263
0
LINE
8
медь верх
10
7.032
20
-15.264
11
4.027
21
-15.264
0
LINE
8
медь верх
10
1.772
20
-15.264
11
0.263
21
-15.264
0
LINE
8
медь верх
10
-0.196
20
-15.264
11
-0.358
21
-15.264
0
LINE
8
медь верх
10
-1.574
20
-15.264
11
-1.774
21
-15.264
0
LINE
8
медь верх
10
-4.025
20
-15.265
11
-4.225
21
-15.265
0
LINE
8
медь верх
10
-6.266
20
-15.265
11
-6.430
21
-15.265
0
LINE
8
медь верх
10
-6.888
20
-15.265
11
-7.052
21
-15.265
0
LINE
8
медь верх
10
-11.885
20
-15.265
11
-12.471
21
-15.265
0
LINE
8
медь верх
10
12.471
20
-15.223
11
11.885
21
-15.223
0
LINE
8
медь верх
10
7.061
20
-15.223
11
4.027
21
-15.223
0
LINE
8
медь верх
10
1.772
20
-15.223
11
0.263
21
-15.225
0
LINE
8
медь верх
10
-0.196
20
-15.225
11
-0.358
21
-15.225
0
LINE
8
медь верх
10
-1.574
20
-15.225
11
-1.774
21
-15.225
0
LINE
8
медь верх
10
-4.025
20
-15.225
11
-4.225
21
-15.225
0
LINE
8
медь верх
10
-6.266
20
-15.225
11
-6.430
21
-15.225
0
LINE
8
медь верх
10
-6.888
20
-15.225
11
-7.052
21
-15.225
0
LINE
8
медь верх
10
-11.885
20
-15.226
11
-12.471
21
-15.226
0
LINE
8
медь верх
10
12.471
20
-15.183
11
11.885
21
-15.183
0
LINE
8
медь верх
10
7.066
20
-15.183
11
6.789
21
-15.183
0
LINE
8
медь верх
10
5.889
20
-15.183
11
4.027
21
-15.184
0
LINE
8
медь верх
10
1.772
20
-15.184
11
0.263
21
-15.184
0
LINE
8
медь верх
10
-0.196
20
-15.184
11
-0.358
21
-15.184
0
LINE
8
медь верх
10
-1.574
20
-15.184
11
-1.774
21
-15.184
0
LINE
8
медь верх
10
-4.025
20
-15.184
11
-4.225
21
-15.184
0
LINE
8
медь верх
10
-6.266
20
-15.184
11
-6.430
21
-15.184
0
LINE
8
медь верх
10
-6.888
20
-15.184
11
-7.052
21
-15.184
0
LINE
8
медь верх
10
-11.885
20
-15.185
11
-12.471
21
-15.185
0
LINE
8
медь верх
10
12.471
20
-15.142
11
11.885
21
-15.142
0
LINE
8
медь верх
10
7.066
20
-15.143
11
6.830
21
-15.143
0
LINE
8
медь верх
10
5.848
20
-15.143
11
4.027
21
-15.143
0
LINE
8
медь верх
10
1.772
20
-15.143
11
0.263
21
-15.143
0
LINE
8
медь верх
10
-0.196
20
-15.143
11
-0.358
21
-15.143
0
LINE
8
медь верх
10
-1.574
20
-15.143
11
-1.774
21
-15.143
0
LINE
8
медь верх
10
-4.025
20
-15.145
11
-4.225
21
-15.145
0
LINE
8
медь верх
10
-6.266
20
-15.145
11
-6.430
21
-15.145
0
LINE
8
медь верх
10
-6.888
20
-15.145
11
-7.052
21
-15.145
0
LINE
8
медь верх
10
-11.885
20
-15.145
11
-12.471
21
-15.145
0
LINE
8
медь верх
10
12.471
20
-15.103
11
11.885
21
-15.103
0
LINE
8
медь верх
10
7.066
20
-15.103
11
6.866
21
-15.103
0
LINE
8
медь верх
10
5.813
20
-15.103
11
4.027
21
-15.103
0
LINE
8
медь верх
10
1.772
20
-15.103
11
0.263
21
-15.103
0
LINE
8
медь верх
10
-0.196
20
-15.104
11
-0.358
21
-15.104
0
LINE
8
медь верх
10
-1.574
20
-15.104
11
-1.774
21
-15.104
0
LINE
8
медь верх
10
-4.025
20
-15.104
11
-4.225
21
-15.104
0
LINE
8
медь верх
10
-6.266
20
-15.104
11
-6.430
21
-15.104
0
LINE
8
медь верх
10
-6.888
20
-15.104
11
-7.052
21
-15.104
0
LINE
8
медь верх
10
-11.885
20
-15.104
11
-12.471
21
-15.104
0
LINE
8
медь верх
10
12.471
20
-15.062
11
11.885
21
-15.062
0
LINE
8
медь верх
10
7.066
20
-15.062
11
6.866
21
-15.062
0
LINE
8
медь верх
10
5.813
20
-15.062
11
4.027
21
-15.062
0
LINE
8
медь верх
10
1.772
20
-15.063
11
0.263
21
-15.063
0
LINE
8
медь верх
10
-0.196
20
-15.063
11
-0.358
21
-15.063
0
LINE
8
медь верх
10
-1.574
20
-15.063
11
-1.774
21
-15.063
0
LINE
8
медь верх
10
-4.025
20
-15.063
11
-4.225
21
-15.063
0
LINE
8
медь верх
10
-6.266
20
-15.063
11
-6.430
21
-15.063
0
LINE
8
медь верх
10
-6.888
20
-15.063
11
-7.052
21
-15.063
0
LINE
8
медь верх
10
-11.885
20
-15.065
11
-12.471
21
-15.065
0
LINE
8
медь верх
10
12.471
20
-15.022
11
11.885
21
-15.022
0
LINE
8
медь верх
10
7.066
20
-15.023
11
6.866
21
-15.023
0
LINE
8
медь верх
10
5.813
20
-15.023
11
4.027
21
-15.023
0
LINE
8
медь верх
10
1.772
20
-15.023
11
0.263
21
-15.023
0
LINE
8
медь верх
10
-0.196
20
-15.023
11
-0.358
21
-15.023
0
LINE
8
медь верх
10
-1.574
20
-15.023
11
-1.774
21
-15.023
0
LINE
8
медь верх
10
-4.025
20
-15.023
11
-4.225
21
-15.023
0
LINE
8
медь верх
10
-6.266
20
-15.024
11
-6.430
21
-15.024
0
LINE
8
медь верх
10
-6.888
20
-15.024
11
-7.052
21
-15.024
0
LINE
8
медь верх
10
-11.885
20
-15.024
11
-12.471
21
-15.024
0
LINE
8
медь верх
10
12.471
20
-14.981
11
11.885
21
-14.981
0
LINE
8
медь верх
10
7.066
20
-14.982
11
6.866
21
-14.982
0
LINE
8
медь верх
10
5.813
20
-14.982
11
3.989
21
-14.982
0
LINE
8
медь верх
10
1.810
20
-14.982
11
0.263
21
-14.982
0
LINE
8
медь верх
10
-0.196
20
-14.982
11
-0.358
21
-14.982
0
LINE
8
медь верх
10
-1.574
20
-14.983
11
-1.774
21
-14.983
0
LINE
8
медь верх
10
-4.025
20
-14.983
11
-4.225
21
-14.983
0
LINE
8
медь верх
10
-6.266
20
-14.983
11
-6.430
21
-14.983
0
LINE
8
медь верх
10
-6.888
20
-14.983
11
-7.052
21
-14.983
0
LINE
8
медь верх
10
-11.885
20
-14.983
11
-12.471
21
-14.983
0
LINE
8
медь верх
10
12.471
20
-14.942
11
11.885
21
-14.942
0
LINE
8
медь верх
10
7.066
20
-14.942
11
6.866
21
-14.942
0
LINE
8
медь верх
10
5.813
20
-14.942
11
3.948
21
-14.942
0
LINE
8
медь верх
10
1.850
20
-14.943
11
0.263
21
-14.943
0
LINE
8
медь верх
10
-0.196
20
-14.943
11
-0.358
21
-14.943
0
LINE
8
медь верх
10
-1.574
20
-14.943
11
-1.774
21
-14.943
0
LINE
8
медь верх
10
-4.025
20
-14.943
11
-4.225
21
-14.943
0
LINE
8
медь верх
10
-6.266
20
-14.943
11
-6.430
21
-14.943
0
LINE
8
медь верх
10
-6.888
20
-14.943
11
-7.052
21
-14.943
0
LINE
8
медь верх
10
-11.885
20
-14.944
11
-12.471
21
-14.944
0
LINE
8
медь верх
10
12.471
20
-14.901
11
11.885
21
-14.901
0
LINE
8
медь верх
10
7.066
20
-14.901
11
6.866
21
-14.901
0
LINE
8
медь верх
10
5.813
20
-14.902
11
3.908
21
-14.902
0
LINE
8
медь верх
10
1.890
20
-14.902
11
0.263
21
-14.902
0
LINE
8
медь верх
10
-0.196
20
-14.902
11
-0.358
21
-14.902
0
LINE
8
медь верх
10
-1.574
20
-14.902
11
-1.774
21
-14.902
0
LINE
8
медь верх
10
-4.025
20
-14.902
11
-4.225
21
-14.902
0
LINE
8
медь верх
10
-6.266
20
-14.903
11
-6.430
21
-14.903
0
LINE
8
медь верх
10
-6.888
20
-14.903
11
-7.052
21
-14.903
0
LINE
8
медь верх
10
-11.885
20
-14.903
11
-12.471
21
-14.903
0
LINE
8
медь верх
10
12.471
20
-14.860
11
11.885
21
-14.860
0
LINE
8
медь верх
10
7.066
20
-14.862
11
6.866
21
-14.862
0
LINE
8
медь верх
10
5.813
20
-14.862
11
3.868
21
-14.862
0
LINE
8
медь верх
10
1.930
20
-14.862
11
0.263
21
-14.862
0
LINE
8
медь верх
10
-0.196
20
-14.862
11
-0.358
21
-14.862
0
LINE
8
медь верх
10
-1.574
20
-14.862
11
-1.774
21
-14.862
0
LINE
8
медь верх
10
-4.025
20
-14.863
11
-4.225
21
-14.863
0
LINE
8
медь верх
10
-6.266
20
-14.863
11
-6.430
21
-14.863
0
LINE
8
медь верх
10
-6.888
20
-14.863
11
-7.052
21
-14.863
0
LINE
8
медь верх
10
-11.885
20
-14.863
11
-12.471
21
-14.863
0
LINE
8
медь верх
10
12.471
20
-14.821
11
11.885
21
-14.821
0
LINE
8
медь верх
10
7.066
20
-14.821
11
6.866
21
-14.821
0
LINE
8
медь верх
10
5.813
20
-14.821
11
3.828
21
-14.821
0
LINE
8
медь верх
10
1.971
20
-14.821
11
0.263
21
-14.822
0
LINE
8
медь верх
10
-0.196
20
-14.822
11
-0.358
21
-14.822
0
LINE
8
медь верх
10
-1.574
20
-14.822
11
-1.774
21
-14.822
0
LINE
8
медь верх
10
-4.025
20
-14.822
11
-4.225
21
-14.822
0
LINE
8
медь верх
10
-6.259
20
-14.822
11
-6.430
21
-14.822
0
LINE
8
медь верх
10
-6.888
20
-14.822
11
-7.052
21
-14.822
0
LINE
8
медь верх
10
-11.885
20
-14.823
11
-12.471
21
-14.823
0
LINE
8
медь верх
10
12.471
20
-14.780
11
11.885
21
-14.780
0
LINE
8
медь верх
10
7.066
20
-14.780
11
6.866
21
-14.780
0
LINE
8
медь верх
10
5.813
20
-14.780
11
0.263
21
-14.782
0
LINE
8
медь верх
10
-0.196
20
-14.782
11
-0.358
21
-14.782
0
LINE
8
медь верх
10
-1.574
20
-14.782
11
-4.225
21
-14.782
0
LINE
8
медь верх
10
-6.234
20
-14.782
11
-6.430
21
-14.782
0
LINE
8
медь верх
10
-6.888
20
-14.782
11
-7.052
21
-14.782
0
LINE
8
медь верх
10
-11.885
20
-14.783
11
-12.471
21
-14.783
0
LINE
8
медь верх
10
12.471
20
-14.740
11
11.885
21
-14.740
0
LINE
8
медь верх
10
7.066
20
-14.741
11
6.866
21
-14.741
0
LINE
8
медь верх
10
5.813
20
-14.741
11
0.263
21
-14.741
0
LINE
8
медь верх
10
-0.196
20
-14.741
11
-0.358
21
-14.741
0
LINE
8
медь верх
10
-1.574
20
-14.741
11
-4.225
21
-14.742
0
LINE
8
медь верх
10
-6.198
20
-14.742
11
-6.429
21
-14.742
0
LINE
8
медь верх
10
-6.888
20
-14.742
11
-7.052
21
-14.742
0
LINE
8
медь верх
10
-11.885
20
-14.742
11
-12.471
21
-14.742
0
LINE
8
медь верх
10
12.471
20
-14.700
11
11.885
21
-14.700
0
LINE
8
медь верх
10
7.066
20
-14.700
11
6.866
21
-14.700
0
LINE
8
медь верх
10
5.813
20
-14.700
11
0.263
21
-14.702
0
LINE
8
медь верх
10
-0.196
20
-14.702
11
-0.358
21
-14.702
0
LINE
8
медь верх
10
-1.587
20
-14.702
11
-4.211
21
-14.702
0
LINE
8
медь верх
10
-6.157
20
-14.702
11
-6.388
21
-14.702
0
LINE
8
медь верх
10
-6.888
20
-14.702
11
-7.052
21
-14.702
0
LINE
8
медь верх
10
-11.885
20
-14.702
11
-12.471
21
-14.703
0
LINE
8
медь верх
10
12.471
20
-14.660
11
11.885
21
-14.660
0
LINE
8
медь верх
10
7.066
20
-14.660
11
6.866
21
-14.660
0
LINE
8
медь верх
10
5.813
20
-14.660
11
0.263
21
-14.661
0
LINE
8
медь верх
10
-0.196
20
-14.661
11
-0.358
21
-14.661
0
LINE
8
медь верх
10
-1.628
20
-14.661
11
-4.171
21
-14.661
0
LINE
8
медь верх
10
-6.118
20
-14.661
11
-6.347
21
-14.661
0
LINE
8
медь верх
10
-6.888
20
-14.661
11
-7.052
21
-14.661
0
LINE
8
медь верх
10
-11.885
20
-14.662
11
-12.471
21
-14.662
0
LINE
8
медь верх
10
12.471
20
-14.619
11
11.885
21
-14.619
0
LINE
8
медь верх
10
7.066
20
-14.620
11
6.866
21
-14.620
0
LINE
8
медь верх
10
5.813
20
-14.620
11
0.263
21
-14.620
0
LINE
8
медь верх
10
-0.196
20
-14.620
11
-0.358
21
-14.620
0
LINE
8
медь верх
10
-1.669
20
-14.620
11
-4.130
21
-14.620
0
LINE
8
медь верх
10
-6.077
20
-14.622
11
-6.307
21
-14.622
0
LINE
8
медь верх
10
-6.883
20
-14.622
11
-7.043
21
-14.622
0
LINE
8
медь верх
10
-11.885
20
-14.622
11
-12.471
21
-14.622
0
LINE
8
медь верх
10
12.471
20
-14.578
11
11.885
21
-14.580
0
LINE
8
медь верх
10
7.066
20
-14.580
11
6.866
21
-14.580
0
LINE
8
медь верх
10
5.813
20
-14.580
11
0.263
21
-14.580
0
LINE
8
медь верх
10
-0.196
20
-14.580
11
-0.358
21
-14.580
0
LINE
8
медь верх
10
-6.036
20
-14.581
11
-6.267
21
-14.581
0
LINE
8
медь верх
10
-6.876
20
-14.581
11
-7.036
21
-14.581
0
LINE
8
медь верх
10
-11.885
20
-14.581
11
-12.471
21
-14.581
0
LINE
8
медь верх
10
12.471
20
-14.539
11
11.885
21
-14.539
0
LINE
8
медь верх
10
7.066
20
-14.539
11
6.866
21
-14.539
0
LINE
8
медь верх
10
5.813
20
-14.539
11
0.263
21
-14.540
0
LINE
8
медь верх
10
-0.196
20
-14.540
11
-0.358
21
-14.540
0
LINE
8
медь верх
10
-5.997
20
-14.540
11
-6.227
21
-14.540
0
LINE
8
медь верх
10
-6.858
20
-14.540
11
-7.028
21
-14.540
0
LINE
8
медь верх
10
-11.885
20
-14.541
11
-12.471
21
-14.541
0
LINE
8
медь верх
10
12.471
20
-14.498
11
11.885
21
-14.498
0
LINE
8
медь верх
10
7.066
20
-14.500
11
6.866
21
-14.500
0
LINE
8
медь верх
10
5.813
20
-14.500
11
0.263
21
-14.500
0
LINE
8
медь верх
10
-0.196
20
-14.500
11
-0.358
21
-14.500
0
LINE
8
медь верх
10
-5.956
20
-14.501
11
-6.186
21
-14.501
0
LINE
8
медь верх
10
-6.831
20
-14.501
11
-7.021
21
-14.501
0
LINE
8
медь верх
10
-11.885
20
-14.501
11
-12.471
21
-14.501
0
LINE
8
медь верх
10
12.471
20
-14.458
11
11.885
21
-14.458
0
LINE
8
медь верх
10
7.066
20
-14.459
11
6.853
21
-14.459
0
LINE
8
медь верх
10
5.825
20
-14.459
11
0.263
21
-14.459
0
LINE
8
медь верх
10
-0.196
20
-14.459
11
-0.358
21
-14.459
0
LINE
8
медь верх
10
-5.916
20
-14.460
11
-6.147
21
-14.460
0
LINE
8
медь верх
10
-6.796
20
-14.460
11
-6.994
21
-14.460
0
LINE
8
медь верх
10
-11.885
20
-14.460
11
-12.471
21
-14.460
0
LINE
8
медь верх
10
12.471
20
-14.418
11
11.885
21
-14.418
0
LINE
8
медь верх
10
7.066
20
-14.418
11
6.812
21
-14.418
0
LINE
8
медь верх
10
5.865
20
-14.418
11
0.263
21
-14.420
0
LINE
8
медь верх
10
-0.196
20
-14.420
11
-0.358
21
-14.420
0
LINE
8
медь верх
10
-5.875
20
-14.420
11
-6.106
21
-14.420
0
LINE
8
медь верх
10
-6.755
20
-14.420
11
-6.967
21
-14.420
0
LINE
8
медь верх
10
-11.885
20
-14.421
11
-12.471
21
-14.421
0
LINE
8
медь верх
10
12.471
20
-14.378
11
11.885
21
-14.378
0
LINE
8
медь верх
10
7.066
20
-14.378
11
6.773
21
-14.378
0
LINE
8
медь верх
10
5.906
20
-14.379
11
0.263
21
-14.379
0
LINE
8
медь верх
10
-0.196
20
-14.379
11
-0.358
21
-14.379
0
LINE
8
медь верх
10
-5.836
20
-14.379
11
-6.066
21
-14.379
0
LINE
8
медь верх
10
-6.716
20
-14.380
11
-6.941
21
-14.380
0
LINE
8
медь верх
10
-11.885
20
-14.380
11
-12.471
21
-14.380
0
LINE
8
медь верх
10
12.471
20
-14.337
11
11.885
21
-14.337
0
LINE
8
медь верх
10
7.043
20
-14.338
11
6.568
21
-14.338
0
LINE
8
медь верх
10
6.109
20
-14.338
11
0.263
21
-14.338
0
LINE
8
медь верх
10
-0.196
20
-14.338
11
-0.358
21
-14.338
0
LINE
8
медь верх
10
-5.795
20
-14.340
11
-6.026
21
-14.340
0
LINE
8
медь верх
10
-6.675
20
-14.340
11
-6.905
21
-14.340
0
LINE
8
медь верх
10
-11.885
20
-14.340
11
-12.471
21
-14.340
0
LINE
8
медь верх
10
12.471
20
-14.298
11
11.885
21
-14.298
0
LINE
8
медь верх
10
7.004
20
-14.298
11
6.567
21
-14.298
0
LINE
8
медь верх
10
6.102
20
-14.298
11
0.263
21
-14.299
0
LINE
8
медь верх
10
-0.196
20
-14.299
11
-0.358
21
-14.299
0
LINE
8
медь верх
10
-5.754
20
-14.299
11
-5.986
21
-14.299
0
LINE
8
медь верх
10
-6.634
20
-14.299
11
-6.866
21
-14.299
0
LINE
8
медь верх
10
-11.885
20
-14.300
11
-12.471
21
-14.300
0
LINE
8
медь верх
10
12.471
20
-14.257
11
11.885
21
-14.257
0
LINE
8
медь верх
10
6.963
20
-14.257
11
6.567
21
-14.257
0
LINE
8
медь верх
10
6.062
20
-14.257
11
0.263
21
-14.258
0
LINE
8
медь верх
10
-0.196
20
-14.258
11
-0.366
21
-14.258
0
LINE
8
медь верх
10
-5.715
20
-14.258
11
-5.945
21
-14.258
0
LINE
8
медь верх
10
-6.595
20
-14.258
11
-6.825
21
-14.258
0
LINE
8
медь верх
10
-11.885
20
-14.260
11
-12.471
21
-14.260
0
LINE
8
медь верх
10
12.471
20
-14.216
11
11.885
21
-14.216
0
LINE
8
медь верх
10
6.923
20
-14.218
11
6.567
21
-14.218
0
LINE
8
медь верх
10
6.022
20
-14.218
11
0.263
21
-14.218
0
LINE
8
медь верх
10
-0.196
20
-14.218
11
-0.389
21
-14.218
0
LINE
8
медь верх
10
-5.674
20
-14.219
11
-5.904
21
-14.219
0
LINE
8
медь верх
10
-6.554
20
-14.219
11
-6.784
21
-14.219
0
LINE
8
медь верх
10
-11.885
20
-14.219
11
-12.471
21
-14.219
0
LINE
8
медь верх
10
12.471
20
-14.177
11
11.885
21
-14.177
0
LINE
8
медь верх
10
6.883
20
-14.177
11
6.561
21
-14.177
0
LINE
8
медь верх
10
5.982
20
-14.177
11
0.263
21
-14.177
0
LINE
8
медь верх
10
-0.196
20
-14.178
11
-0.445
21
-14.178
0
LINE
8
медь верх
10
-5.616
20
-14.178
11
-5.865
21
-14.178
0
LINE
8
медь верх
10
-6.514
20
-14.178
11
-6.745
21
-14.178
0
LINE
8
медь верх
10
-11.885
20
-14.178
11
-12.471
21
-14.178
0
LINE
8
медь верх
10
12.471
20
-14.136
11
11.885
21
-14.136
0
LINE
8
медь верх
10
6.749
20
-14.136
11
6.553
21
-14.136
0
LINE
8
медь верх
10
5.941
20
-14.136
11
0.263
21
-14.138
0
LINE
8
медь верх
10
-0.196
20
-14.138
11
-5.824
21
-14.138
0
LINE
8
медь верх
10
-6.473
20
-14.138
11
-6.704
21
-14.138
0
LINE
8
медь верх
10
-11.885
20
-14.139
11
-12.471
21
-14.139
0
LINE
8
медь верх
10
12.471
20
-14.096
11
11.885
21
-14.096
0
LINE
8
медь верх
10
6.713
20
-14.097
11
6.534
21
-14.097
0
LINE
8
медь верх
10
5.900
20
-14.097
11
0.263
21
-14.097
0
LINE
8
медь верх
10
-0.196
20
-14.097
11
-5.784
21
-14.098
0
LINE
8
медь верх
10
-6.434
20
-14.098
11
-6.664
21
-14.098
0
LINE
8
медь верх
10
-11.885
20
-14.098
11
-12.471
21
-14.098
0
LINE
8
медь верх
10
12.471
20
-14.055
11
11.885
21
-14.055
0
LINE
8
медь верх
10
6.697
20
-14.056
11
6.506
21
-14.056
0
LINE
8
медь верх
10
5.861
20
-14.056
11
0.263
21
-14.056
0
LINE
8
медь верх
10
-0.196
20
-14.056
11
-5.744
21
-14.058
0
LINE
8
медь верх
10
-6.393
20
-14.058
11
-6.624
21
-14.058
0
LINE
8
медь верх
10
-11.885
20
-14.058
11
-12.471
21
-14.058
0
LINE
8
медь верх
10
12.471
20
-14.016
11
11.885
21
-14.016
0
LINE
8
медь верх
10
6.669
20
-14.016
11
6.469
21
-14.016
0
LINE
8
медь верх
10
5.820
20
-14.016
11
0.263
21
-14.017
0
LINE
8
медь верх
10
-0.196
20
-14.017
11
-5.704
21
-14.017
0
LINE
8
медь верх
10
-6.353
20
-14.017
11
-6.584
21
-14.017
0
LINE
8
медь верх
10
-11.885
20
-14.018
11
-12.471
21
-14.018
0
LINE
8
медь верх
10
12.471
20
-13.975
11
11.885
21
-13.975
0
LINE
8
медь верх
10
6.642
20
-13.975
11
6.430
21
-13.976
0
LINE
8
медь верх
10
-6.313
20
-13.978
11
-6.543
21
-13.978
0
LINE
8
медь верх
10
-11.885
20
-13.978
11
-12.471
21
-13.978
0
LINE
8
медь верх
10
12.471
20
-13.934
11
11.885
21
-13.934
0
LINE
8
медь верх
10
6.615
20
-13.936
11
6.389
21
-13.936
0
LINE
8
медь верх
10
-6.273
20
-13.937
11
-6.502
21
-13.937
0
LINE
8
медь верх
10
-11.885
20
-13.937
11
-12.471
21
-13.937
0
LINE
8
медь верх
10
12.471
20
-13.895
11
11.885
21
-13.895
0
LINE
8
медь верх
10
6.580
20
-13.895
11
6.349
21
-13.895
0
LINE
8
медь верх
10
-6.232
20
-13.896
11
-6.463
21
-13.896
0
LINE
8
медь верх
10
-11.885
20
-13.898
11
-12.471
21
-13.898
0
LINE
8
медь верх
10
12.471
20
-13.854
11
11.885
21
-13.854
0
LINE
8
медь верх
10
6.539
20
-13.854
11
6.309
21
-13.854
0
LINE
8
медь верх
10
-6.193
20
-13.856
11
-6.422
21
-13.856
0
LINE
8
медь верх
10
-11.885
20
-13.857
11
-12.471
21
-13.857
0
LINE
8
медь верх
10
12.471
20
-13.814
11
11.885
21
-13.814
0
LINE
8
медь верх
10
6.499
20
-13.815
11
6.269
21
-13.815
0
LINE
8
медь верх
10
-6.152
20
-13.816
11
-6.382
21
-13.816
0
LINE
8
медь верх
10
-11.885
20
-13.816
11
-12.471
21
-13.816
0
LINE
8
медь верх
10
12.471
20
-13.774
11
11.885
21
-13.774
0
LINE
8
медь верх
10
6.459
20
-13.774
11
6.228
21
-13.774
0
LINE
8
медь верх
10
-6.111
20
-13.776
11
-6.342
21
-13.776
0
LINE
8
медь верх
10
-11.885
20
-13.776
11
-12.471
21
-13.777
0
LINE
8
медь верх
10
12.471
20
-13.734
11
11.885
21
-13.734
0
LINE
8
медь верх
10
6.419
20
-13.734
11
6.189
21
-13.734
0
LINE
8
медь верх
10
-6.071
20
-13.735
11
-6.302
21
-13.735
0
LINE
8
медь верх
10
-11.885
20
-13.736
11
-12.471
21
-13.736
0
LINE
8
медь верх
10
12.471
20
-13.693
11
11.885
21
-13.693
0
LINE
8
медь верх
10
6.378
20
-13.694
11
6.148
21
-13.694
0
LINE
8
медь верх
10
-6.031
20
-13.696
11
-6.261
21
-13.696
0
LINE
8
медь верх
10
-11.885
20
-13.696
11
-12.471
21
-13.696
0
LINE
8
медь верх
10
12.471
20
-13.653
11
11.885
21
-13.654
0
LINE
8
медь верх
10
6.339
20
-13.654
11
6.107
21
-13.654
0
LINE
8
медь верх
10
-5.991
20
-13.655
11
-6.222
21
-13.655
0
LINE
8
медь верх
10
-11.885
20
-13.655
11
-12.471
21
-13.655
0
LINE
8
медь верх
10
12.471
20
-13.613
11
11.885
21
-13.613
0
LINE
8
медь верх
10
6.298
20
-13.613
11
6.067
21
-13.613
0
LINE
8
медь верх
10
-5.950
20
-13.614
11
-6.181
21
-13.614
0
LINE
8
медь верх
10
-11.885
20
-13.616
11
-12.471
21
-13.616
0
LINE
8
медь верх
10
12.471
20
-13.572
11
11.885
21
-13.572
0
LINE
8
медь верх
10
6.257
20
-13.574
11
6.007
21
-13.574
0
LINE
8
медь верх
10
-5.890
20
-13.575
11
-6.140
21
-13.575
0
LINE
8
медь верх
10
-11.885
20
-13.575
11
-12.471
21
-13.575
0
LINE
8
медь верх
10
12.471
20
-13.532
11
11.885
21
-13.532
0
LINE
8
медь верх
10
6.218
20
-13.533
11
-6.100
21
-13.534
0
LINE
8
медь верх
10
-11.885
20
-13.534
11
-12.471
21
-13.534
0
LINE
8
медь верх
10
12.471
20
-13.492
11
11.885
21
-13.492
0
LINE
8
медь верх
10
6.170
20
-13.492
11
-6.053
21
-13.494
0
LINE
8
медь верх
10
-11.885
20
-13.495
11
-12.471
21
-13.495
0
LINE
8
медь верх
10
12.471
20
-13.452
11
11.885
21
-13.452
0
LINE
8
медь верх
10
6.109
20
-13.452
11
-5.993
21
-13.453
0
LINE
8
медь верх
10
-11.885
20
-13.454
11
-12.471
21
-13.454
0
LINE
8
медь верх
10
12.471
20
-13.411
11
11.885
21
-13.411
0
LINE
8
медь верх
10
6.034
20
-13.412
11
-5.921
21
-13.414
0
LINE
8
медь верх
10
-11.885
20
-13.414
11
-12.471
21
-13.414
0
LINE
8
медь верх
10
12.471
20
-13.372
11
11.885
21
-13.372
0
LINE
8
медь верх
10
-11.885
20
-13.374
11
-12.471
21
-13.374
0
LINE
8
медь верх
10
12.471
20
-13.331
11
11.885
21
-13.331
0
LINE
8
медь верх
10
-11.885
20
-13.334
11
-12.471
21
-13.334
0
LINE
8
медь верх
10
12.471
20
-13.291
11
11.885
21
-13.291
0
LINE
8
медь верх
10
-11.885
20
-13.293
11
-12.471
21
-13.293
0
LINE
8
медь верх
10
12.471
20
-13.251
11
11.885
21
-13.251
0
LINE
8
медь верх
10
-11.885
20
-13.252
11
-12.471
21
-13.252
0
LINE
8
медь верх
10
12.471
20
-13.211
11
11.878
21
-13.211
0
LINE
8
медь верх
10
-11.880
20
-13.213
11
-12.471
21
-13.213
0
LINE
8
медь верх
10
12.471
20
-13.170
11
11.861
21
-13.170
0
LINE
8
медь верх
10
-11.862
20
-13.172
11
-12.471
21
-13.172
0
LINE
8
медь верх
10
12.471
20
-13.129
11
11.816
21
-13.129
0
LINE
8
медь верх
10
-11.820
20
-13.132
11
-12.471
21
-13.132
0
LINE
8
медь верх
10
-12.471
20
-13.092
11
12.471
21
-13.090
0
LINE
8
медь верх
10
-12.471
20
-13.052
11
12.471
21
-13.049
0
LINE
8
медь верх
10
-12.471
20
-13.011
11
12.471
21
-13.009
0
LINE
8
медь верх
10
-12.471
20
-12.972
11
12.471
21
-12.969
0
LINE
8
медь верх
10
-12.471
20
-12.931
11
12.471
21
-12.929
0
LINE
8
медь верх
10
-12.471
20
-12.890
11
12.471
21
-12.888
0
LINE
8
медь верх
10
-12.471
20
-12.851
11
12.471
21
-12.849
0
LINE
8
медь верх
10
-12.471
20
-12.810
11
12.471
21
-12.808
0
LINE
8
медь верх
10
-12.471
20
-12.770
11
12.471
21
-12.767
0
LINE
8
медь верх
10
-12.471
20
-12.729
11
12.471
21
-12.727
0
LINE
8
медь верх
10
-12.471
20
-12.690
11
12.471
21
-12.687
0
LINE
8
медь верх
10
-12.471
20
-12.649
11
12.471
21
-12.647
0
LINE
8
медь верх
10
-12.471
20
-12.609
11
12.471
21
-12.606
0
LINE
8
медь верх
10
10.000
20
-19.400
11
10.008
21
-19.313
0
LINE
8
медь верх
10
10.008
20
-19.313
11
10.030
21
-19.229
0
LINE
8
медь верх
10
10.030
20
-19.229
11
10.067
21
-19.150
0
LINE
8
медь верх
10
10.067
20
-19.150
11
10.117
21
-19.079
0
LINE
8
медь верх
10
10.117
20
-19.079
11
10.179
21
-19.017
0
LINE
8
медь верх
10
10.179
20
-19.017
11
10.250
21
-18.967
0
LINE
8
медь верх
10
10.250
20
-18.967
11
10.329
21
-18.930
0
LINE
8
медь верх
10
10.329
20
-18.930
11
10.413
21
-18.908
0
LINE
8
медь верх
10
10.413
20
-18.908
11
10.500
21
-18.900
0
LINE
8
медь верх
10
10.500
20
-18.900
11
10.587
21
-18.908
0
LINE
8
медь верх
10
10.587
20
-18.908
11
10.671
21
-18.930
0
LINE
8
медь верх
10
10.671
20
-18.930
11
10.750
21
-18.967
0
LINE
8
медь верх
10
10.750
20
-18.967
11
10.821
21
-19.017
0
LINE
8
медь верх
10
10.821
20
-19.017
11
10.883
21
-19.079
0
LINE
8
медь верх
10
10.883
20
-19.079
11
10.933
21
-19.150
0
LINE
8
медь верх
10
10.933
20
-19.150
11
10.970
21
-19.229
0
LINE
8
медь верх
10
10.970
20
-19.229
11
10.992
21
-19.313
0
LINE
8
медь верх
10
10.992
20
-19.313
11
11.000
21
-19.400
0
LINE
8
медь верх
10
11.000
20
-19.400
11
10.992
21
-19.487
0
LINE
8
медь верх
10
10.992
20
-19.487
11
10.970
21
-19.571
0
LINE
8
медь верх
10
10.970
20
-19.571
11
10.933
21
-19.650
0
LINE
8
медь верх
10
10.933
20
-19.650
11
10.883
21
-19.721
0
LINE
8
медь верх
10
10.883
20
-19.721
11
10.821
21
-19.783
0
LINE
8
медь верх
10
10.821
20
-19.783
11
10.750
21
-19.833
0
LINE
8
медь верх
10
10.750
20
-19.833
11
10.671
21
-19.870
0
LINE
8
медь верх
10
10.671
20
-19.870
11
10.587
21
-19.892
0
LINE
8
медь верх
10
10.587
20
-19.892
11
10.500
21
-19.900
0
LINE
8
медь верх
10
10.500
20
-19.900
11
10.413
21
-19.892
0
LINE
8
медь верх
10
10.413
20
-19.892
11
10.329
21
-19.870
0
LINE
8
медь верх
10
10.329
20
-19.870
11
10.250
21
-19.833
0
LINE
8
медь верх
10
10.250
20
-19.833
11
10.179
21
-19.783
0
LINE
8
медь верх
10
10.179
20
-19.783
11
10.117
21
-19.721
0
LINE
8
медь верх
10
10.117
20
-19.721
11
10.067
21
-19.650
0
LINE
8
медь верх
10
10.067
20
-19.650
11
10.030
21
-19.571
0
LINE
8
медь верх
10
10.030
20
-19.571
11
10.008
21
-19.487
0
LINE
8
медь верх
10
10.008
20
-19.487
11
10.000
21
-19.400
0
LINE
8
медь верх
10
10.643
20
-19.878
11
10.356
21
-19.878
0
LINE
8
медь верх
10
10.739
20
-19.839
11
10.259
21
-19.839
0
LINE
8
медь верх
10
10.801
20
-19.798
11
10.197
21
-19.798
0
LINE
8
медь верх
10
10.848
20
-19.757
11
10.151
21
-19.757
0
LINE
8
медь верх
10
10.885
20
-19.717
11
10.113
21
-19.717
0
LINE
8
медь верх
10
10.916
20
-19.677
11
10.084
21
-19.677
0
LINE
8
медь верх
10
10.940
20
-19.637
11
10.060
21
-19.637
0
LINE
8
медь верх
10
10.959
20
-19.596
11
10.039
21
-19.596
0
LINE
8
медь верх
10
10.974
20
-19.557
11
10.024
21
-19.557
0
LINE
8
медь верх
10
10.986
20
-19.516
11
10.013
21
-19.516
0
LINE
8
медь верх
10
10.993
20
-19.475
11
10.005
21
-19.475
0
LINE
8
медь верх
10
10.998
20
-19.436
11
10.001
21
-19.436
0
LINE
8
медь верх
10
10.000
20
-19.395
11
10.999
21
-19.395
0
LINE
8
медь верх
10
10.001
20
-19.355
11
10.997
21
-19.355
0
LINE
8
медь верх
10
10.006
20
-19.315
11
10.992
21
-19.314
0
LINE
8
медь верх
10
10.015
20
-19.275
11
10.983
21
-19.275
0
LINE
8
медь верх
10
10.028
20
-19.234
11
10.972
21
-19.234
0
LINE
8
медь верх
10
10.043
20
-19.194
11
10.955
21
-19.194
0
LINE
8
медь верх
10
10.063
20
-19.154
11
10.935
21
-19.154
0
LINE
8
медь верх
10
10.089
20
-19.113
11
10.909
21
-19.113
0
LINE
8
медь верх
10
10.121
20
-19.073
11
10.879
21
-19.073
0
LINE
8
медь верх
10
10.159
20
-19.033
11
10.839
21
-19.033
0
LINE
8
медь верх
10
10.208
20
-18.993
11
10.790
21
-18.993
0
LINE
8
медь верх
10
10.276
20
-18.952
11
10.724
21
-18.952
0
LINE
8
медь верх
10
10.386
20
-18.913
11
10.612
21
-18.913
0
LINE
8
медь верх
10
10.000
20
-21.900
11
10.008
21
-21.813
0
LINE
8
медь верх
10
10.008
20
-21.813
11
10.030
21
-21.729
0
LINE
8
медь верх
10
10.030
20
-21.729
11
10.067
21
-21.650
0
LINE
8
медь верх
10
10.067
20
-21.650
11
10.117
21
-21.579
0
LINE
8
медь верх
10
10.117
20
-21.579
11
10.179
21
-21.517
0
LINE
8
медь верх
10
10.179
20
-21.517
11
10.250
21
-21.467
0
LINE
8
медь верх
10
10.250
20
-21.467
11
10.329
21
-21.430
0
LINE
8
медь верх
10
10.329
20
-21.430
11
10.413
21
-21.408
0
LINE
8
медь верх
10
10.413
20
-21.408
11
10.500
21
-21.400
0
LINE
8
медь верх
10
10.500
20
-21.400
11
10.587
21
-21.408
0
LINE
8
медь верх
10
10.587
20
-21.408
11
10.671
21
-21.430
0
LINE
8
медь верх
10
10.671
20
-21.430
11
10.750
21
-21.467
0
LINE
8
медь верх
10
10.750
20
-21.467
11
10.821
21
-21.517
0
LINE
8
медь верх
10
10.821
20
-21.517
11
10.883
21
-21.579
0
LINE
8
медь верх
10
10.883
20
-21.579
11
10.933
21
-21.650
0
LINE
8
медь верх
10
10.933
20
-21.650
11
10.970
21
-21.729
0
LINE
8
медь верх
10
10.970
20
-21.729
11
10.992
21
-21.813
0
LINE
8
медь верх
10
10.992
20
-21.813
11
11.000
21
-21.900
0
LINE
8
медь верх
10
11.000
20
-21.900
11
10.992
21
-21.987
0
LINE
8
медь верх
10
10.992
20
-21.987
11
10.970
21
-22.071
0
LINE
8
медь верх
10
10.970
20
-22.071
11
10.933
21
-22.150
0
LINE
8
медь верх
10
10.933
20
-22.150
11
10.883
21
-22.221
0
LINE
8
медь верх
10
10.883
20
-22.221
11
10.821
21
-22.283
0
LINE
8
медь верх
10
10.821
20
-22.283
11
10.750
21
-22.333
0
LINE
8
медь верх
10
10.750
20
-22.333
11
10.671
21
-22.370
0
LINE
8
медь верх
10
10.671
20
-22.370
11
10.587
21
-22.392
0
LINE
8
медь верх
10
10.587
20
-22.392
11
10.500
21
-22.400
0
LINE
8
медь верх
10
10.500
20
-22.400
11
10.413
21
-22.392
0
LINE
8
медь верх
10
10.413
20
-22.392
11
10.329
21
-22.370
0
LINE
8
медь верх
10
10.329
20
-22.370
11
10.250
21
-22.333
0
LINE
8
медь верх
10
10.250
20
-22.333
11
10.179
21
-22.283
0
LINE
8
медь верх
10
10.179
20
-22.283
11
10.117
21
-22.221
0
LINE
8
медь верх
10
10.117
20
-22.221
11
10.067
21
-22.150
0
LINE
8
медь верх
10
10.067
20
-22.150
11
10.030
21
-22.071
0
LINE
8
медь верх
10
10.030
20
-22.071
11
10.008
21
-21.987
0
LINE
8
медь верх
10
10.008
20
-21.987
11
10.000
21
-21.900
0
LINE
8
медь верх
10
10.532
20
-22.398
11
10.467
21
-22.398
0
LINE
8
медь верх
10
10.698
20
-22.358
11
10.301
21
-22.358
0
LINE
8
медь верх
10
10.773
20
-22.318
11
10.226
21
-22.318
0
LINE
8
медь верх
10
10.827
20
-22.277
11
10.173
21
-22.277
0
LINE
8
медь верх
10
10.867
20
-22.238
11
10.131
21
-22.238
0
LINE
8
медь верх
10
10.902
20
-22.197
11
10.098
21
-22.197
0
LINE
8
медь верх
10
10.928
20
-22.156
11
10.071
21
-22.156
0
LINE
8
медь верх
10
10.950
20
-22.117
11
10.050
21
-22.117
0
LINE
8
медь верх
10
10.966
20
-22.076
11
10.032
21
-22.076
0
LINE
8
медь верх
10
10.980
20
-22.036
11
10.019
21
-22.036
0
LINE
8
медь верх
10
10.991
20
-21.995
11
10.009
21
-21.996
0
LINE
8
медь верх
10
10.996
20
-21.956
11
10.003
21
-21.956
0
LINE
8
медь верх
10
10.999
20
-21.915
11
10.000
21
-21.915
0
LINE
8
медь верх
10
10.000
20
-21.874
11
10.998
21
-21.874
0
LINE
8
медь верх
10
10.004
20
-21.835
11
10.996
21
-21.835
0
LINE
8
медь верх
10
10.010
20
-21.794
11
10.988
21
-21.794
0
LINE
8
медь верх
10
10.020
20
-21.754
11
10.978
21
-21.754
0
LINE
8
медь верх
10
10.036
20
-21.714
11
10.964
21
-21.714
0
LINE
8
медь верх
10
10.053
20
-21.674
11
10.946
21
-21.674
0
LINE
8
медь верх
10
10.076
20
-21.633
11
10.923
21
-21.633
0
LINE
8
медь верх
10
10.104
20
-21.594
11
10.894
21
-21.594
0
LINE
8
медь верх
10
10.138
20
-21.553
11
10.860
21
-21.553
0
LINE
8
медь верх
10
10.183
20
-21.513
11
10.817
21
-21.513
0
LINE
8
медь верх
10
10.239
20
-21.472
11
10.759
21
-21.472
0
LINE
8
медь верх
10
10.321
20
-21.433
11
10.678
21
-21.433
0
LINE
8
медь верх
10
-10.900
20
-19.400
11
-10.892
21
-19.313
0
LINE
8
медь верх
10
-10.892
20
-19.313
11
-10.870
21
-19.229
0
LINE
8
медь верх
10
-10.870
20
-19.229
11
-10.833
21
-19.150
0
LINE
8
медь верх
10
-10.833
20
-19.150
11
-10.783
21
-19.079
0
LINE
8
медь верх
10
-10.783
20
-19.079
11
-10.721
21
-19.017
0
LINE
8
медь верх
10
-10.721
20
-19.017
11
-10.650
21
-18.967
0
LINE
8
медь верх
10
-10.650
20
-18.967
11
-10.571
21
-18.930
0
LINE
8
медь верх
10
-10.571
20
-18.930
11
-10.487
21
-18.908
0
LINE
8
медь верх
10
-10.487
20
-18.908
11
-10.400
21
-18.900
0
LINE
8
медь верх
10
-10.400
20
-18.900
11
-10.313
21
-18.908
0
LINE
8
медь верх
10
-10.313
20
-18.908
11
-10.229
21
-18.930
0
LINE
8
медь верх
10
-10.229
20
-18.930
11
-10.150
21
-18.967
0
LINE
8
медь верх
10
-10.150
20
-18.967
11
-10.079
21
-19.017
0
LINE
8
медь верх
10
-10.079
20
-19.017
11
-10.017
21
-19.079
0
LINE
8
медь верх
10
-10.017
20
-19.079
11
-9.967
21
-19.150
0
LINE
8
медь верх
10
-9.967
20
-19.150
11
-9.930
21
-19.229
0
LINE
8
медь верх
10
-9.930
20
-19.229
11
-9.908
21
-19.313
0
LINE
8
медь верх
10
-9.908
20
-19.313
11
-9.900
21
-19.400
0
LINE
8
медь верх
10
-9.900
20
-19.400
11
-9.908
21
-19.487
0
LINE
8
медь верх
10
-9.908
20
-19.487
11
-9.930
21
-19.571
0
LINE
8
медь верх
10
-9.930
20
-19.571
11
-9.967
21
-19.650
0
LINE
8
медь верх
10
-9.967
20
-19.650
11
-10.017
21
-19.721
0
LINE
8
медь верх
10
-10.017
20
-19.721
11
-10.079
21
-19.783
0
LINE
8
медь верх
10
-10.079
20
-19.783
11
-10.150
21
-19.833
0
LINE
8
медь верх
10
-10.150
20
-19.833
11
-10.229
21
-19.870
0
LINE
8
медь верх
10
-10.229
20
-19.870
11
-10.313
21
-19.892
0
LINE
8
медь верх
10
-10.313
20
-19.892
11
-10.400
21
-19.900
0
LINE
8
медь верх
10
-10.400
20
-19.900
11
-10.487
21
-19.892
0
LINE
8
медь верх
10
-10.487
20
-19.892
11
-10.571
21
-19.870
0
LINE
8
медь верх
10
-10.571
20
-19.870
11
-10.650
21
-19.833
0
LINE
8
медь верх
10
-10.650
20
-19.833
11
-10.721
21
-19.783
0
LINE
8
медь верх
10
-10.721
20
-19.783
11
-10.783
21
-19.721
0
LINE
8
медь верх
10
-10.783
20
-19.721
11
-10.833
21
-19.650
0
LINE
8
медь верх
10
-10.833
20
-19.650
11
-10.870
21
-19.571
0
LINE
8
медь верх
10
-10.870
20
-19.571
11
-10.892
21
-19.487
0
LINE
8
медь верх
10
-10.892
20
-19.487
11
-10.900
21
-19.400
0
LINE
8
медь верх
10
-10.263
20
-19.881
11
-10.536
21
-19.881
0
LINE
8
медь верх
10
-10.164
20
-19.840
11
-10.635
21
-19.840
0
LINE
8
медь верх
10
-10.100
20
-19.799
11
-10.698
21
-19.799
0
LINE
8
медь верх
10
-10.052
20
-19.760
11
-10.745
21
-19.760
0
LINE
8
медь верх
10
-10.015
20
-19.719
11
-10.784
21
-19.719
0
LINE
8
медь верх
10
-9.985
20
-19.679
11
-10.814
21
-19.679
0
LINE
8
медь верх
10
-9.961
20
-19.639
11
-10.838
21
-19.639
0
LINE
8
медь верх
10
-9.940
20
-19.599
11
-10.858
21
-19.599
0
LINE
8
медь верх
10
-9.925
20
-19.558
11
-10.874
21
-19.558
0
LINE
8
медь верх
10
-9.914
20
-19.519
11
-10.885
21
-19.519
0
LINE
8
медь верх
10
-9.906
20
-19.478
11
-10.893
21
-19.478
0
LINE
8
медь верх
10
-9.901
20
-19.437
11
-10.898
21
-19.437
0
LINE
8
медь верх
10
-10.899
20
-19.398
11
-9.900
21
-19.397
0
LINE
8
медь верх
10
-10.898
20
-19.357
11
-9.901
21
-19.357
0
LINE
8
медь верх
10
-10.893
20
-19.317
11
-9.906
21
-19.317
0
LINE
8
медь верх
10
-10.884
20
-19.276
11
-9.915
21
-19.276
0
LINE
8
медь верх
10
-10.872
20
-19.237
11
-9.926
21
-19.237
0
LINE
8
медь верх
10
-10.856
20
-19.196
11
-9.943
21
-19.196
0
LINE
8
медь верх
10
-10.836
20
-19.155
11
-9.963
21
-19.155
0
LINE
8
медь верх
10
-10.812
20
-19.116
11
-9.987
21
-19.116
0
LINE
8
медь верх
10
-10.780
20
-19.075
11
-10.019
21
-19.075
0
LINE
8
медь верх
10
-10.742
20
-19.035
11
-10.057
21
-19.035
0
LINE
8
медь верх
10
-10.693
20
-18.995
11
-10.105
21
-18.995
0
LINE
8
медь верх
10
-10.627
20
-18.955
11
-10.171
21
-18.955
0
LINE
8
медь верх
10
-10.521
20
-18.914
11
-10.278
21
-18.914
0
LINE
8
медь верх
10
-10.900
20
-21.900
11
-10.892
21
-21.813
0
LINE
8
медь верх
10
-10.892
20
-21.813
11
-10.870
21
-21.729
0
LINE
8
медь верх
10
-10.870
20
-21.729
11
-10.833
21
-21.650
0
LINE
8
медь верх
10
-10.833
20
-21.650
11
-10.783
21
-21.579
0
LINE
8
медь верх
10
-10.783
20
-21.579
11
-10.721
21
-21.517
0
LINE
8
медь верх
10
-10.721
20
-21.517
11
-10.650
21
-21.467
0
LINE
8
медь верх
10
-10.650
20
-21.467
11
-10.571
21
-21.430
0
LINE
8
медь верх
10
-10.571
20
-21.430
11
-10.487
21
-21.408
0
LINE
8
медь верх
10
-10.487
20
-21.408
11
-10.400
21
-21.400
0
LINE
8
медь верх
10
-10.400
20
-21.400
11
-10.313
21
-21.408
0
LINE
8
медь верх
10
-10.313
20
-21.408
11
-10.229
21
-21.430
0
LINE
8
медь верх
10
-10.229
20
-21.430
11
-10.150
21
-21.467
0
LINE
8
медь верх
10
-10.150
20
-21.467
11
-10.079
21
-21.517
0
LINE
8
медь верх
10
-10.079
20
-21.517
11
-10.017
21
-21.579
0
LINE
8
медь верх
10
-10.017
20
-21.579
11
-9.967
21
-21.650
0
LINE
8
медь верх
10
-9.967
20
-21.650
11
-9.930
21
-21.729
0
LINE
8
медь верх
10
-9.930
20
-21.729
11
-9.908
21
-21.813
0
LINE
8
медь верх
10
-9.908
20
-21.813
11
-9.900
21
-21.900
0
LINE
8
медь верх
10
-9.900
20
-21.900
11
-9.908
21
-21.987
0
LINE
8
медь верх
10
-9.908
20
-21.987
11
-9.930
21
-22.071
0
LINE
8
медь верх
10
-9.930
20
-22.071
11
-9.967
21
-22.150
0
LINE
8
медь верх
10
-9.967
20
-22.150
11
-10.017
21
-22.221
0
LINE
8
медь верх
10
-10.017
20
-22.221
11
-10.079
21
-22.283
0
LINE
8
медь верх
10
-10.079
20
-22.283
11
-10.150
21
-22.333
0
LINE
8
медь верх
10
-10.150
20
-22.333
11
-10.229
21
-22.370
0
LINE
8
медь верх
10
-10.229
20
-22.370
11
-10.313
21
-22.392
0
LINE
8
медь верх
10
-10.313
20
-22.392
11
-10.400
21
-22.400
0
LINE
8
медь верх
10
-10.400
20
-22.400
11
-10.487
21
-22.392
0
LINE
8
медь верх
10
-10.487
20
-22.392
11
-10.571
21
-22.370
0
LINE
8
медь верх
10
-10.571
20
-22.370
11
-10.650
21
-22.333
0
LINE
8
медь верх
10
-10.650
20
-22.333
11
-10.721
21
-22.283
0
LINE
8
медь верх
10
-10.721
20
-22.283
11
-10.783
21
-22.221
0
LINE
8
медь верх
10
-10.783
20
-22.221
11
-10.833
21
-22.150
0
LINE
8
медь верх
10
-10.833
20
-22.150
11
-10.870
21
-22.071
0
LINE
8
медь верх
10
-10.870
20
-22.071
11
-10.892
21
-21.987
0
LINE
8
медь верх
10
-10.892
20
-21.987
11
-10.900
21
-21.900
0
LINE
8
медь верх
10
-10.206
20
-22.361
11
-10.593
21
-22.361
0
LINE
8
медь верх
10
-10.130
20
-22.320
11
-10.669
21
-22.320
0
LINE
8
медь верх
10
-10.075
20
-22.280
11
-10.724
21
-22.280
0
LINE
8
медь верх
10
-10.033
20
-22.240
11
-10.766
21
-22.240
0
LINE
8
медь верх
10
-10.000
20
-22.200
11
-10.799
21
-22.200
0
LINE
8
медь верх
10
-9.972
20
-22.159
11
-10.827
21
-22.159
0
LINE
8
медь верх
10
-9.950
20
-22.118
11
-10.848
21
-22.118
0
LINE
8
медь верх
10
-9.933
20
-22.079
11
-10.866
21
-22.079
0
LINE
8
медь верх
10
-9.919
20
-22.038
11
-10.880
21
-22.038
0
LINE
8
медь верх
10
-9.910
20
-21.998
11
-10.889
21
-21.998
0
LINE
8
медь верх
10
-9.902
20
-21.958
11
-10.895
21
-21.958
0
LINE
8
медь верх
10
-9.900
20
-21.918
11
-10.899
21
-21.918
0
LINE
8
медь верх
10
-10.899
20
-21.877
11
-9.900
21
-21.877
0
LINE
8
медь верх
10
-10.895
20
-21.838
11
-9.903
21
-21.838
0
LINE
8
медь верх
10
-10.889
20
-21.797
11
-9.910
21
-21.797
0
LINE
8
медь верх
10
-10.879
20
-21.756
11
-9.920
21
-21.756
0
LINE
8
медь верх
10
-10.865
20
-21.717
11
-9.934
21
-21.716
0
LINE
8
медь верх
10
-10.847
20
-21.676
11
-9.952
21
-21.676
0
LINE
8
медь верх
10
-10.824
20
-21.636
11
-9.975
21
-21.636
0
LINE
8
медь верх
10
-10.796
20
-21.595
11
-10.003
21
-21.595
0
LINE
8
медь верх
10
-10.762
20
-21.556
11
-10.037
21
-21.556
0
LINE
8
медь верх
10
-10.719
20
-21.515
11
-10.080
21
-21.515
0
LINE
8
медь верх
10
-10.663
20
-21.474
11
-10.136
21
-21.474
0
LINE
8
медь верх
10
-10.584
20
-21.435
11
-10.215
21
-21.435
0
LINE
8
медь верх
10
-6.980
20
-21.900
11
-6.976
21
-21.857
0
LINE
8
медь верх
10
-6.976
20
-21.857
11
-6.965
21
-21.814
0
LINE
8
медь верх
10
-6.965
20
-21.814
11
-6.946
21
-21.775
0
LINE
8
медь верх
10
-6.946
20
-21.775
11
-6.921
21
-21.739
0
LINE
8
медь верх
10
-6.921
20
-21.739
11
-6.891
21
-21.708
0
LINE
8
медь верх
10
-6.891
20
-21.708
11
-6.855
21
-21.683
0
LINE
8
медь верх
10
-6.855
20
-21.683
11
-6.815
21
-21.665
0
LINE
8
медь верх
10
-6.815
20
-21.665
11
-6.773
21
-21.654
0
LINE
8
медь верх
10
-6.773
20
-21.654
11
-6.730
21
-21.650
0
LINE
8
медь верх
10
-6.730
20
-21.650
11
-6.686
21
-21.654
0
LINE
8
медь верх
10
-6.686
20
-21.654
11
-6.644
21
-21.665
0
LINE
8
медь верх
10
-6.644
20
-21.665
11
-6.605
21
-21.683
0
LINE
8
медь верх
10
-6.605
20
-21.683
11
-6.569
21
-21.708
0
LINE
8
медь верх
10
-6.569
20
-21.708
11
-6.538
21
-21.739
0
LINE
8
медь верх
10
-6.538
20
-21.739
11
-6.513
21
-21.775
0
LINE
8
медь верх
10
-6.513
20
-21.775
11
-6.495
21
-21.814
0
LINE
8
медь верх
10
-6.495
20
-21.814
11
-6.484
21
-21.857
0
LINE
8
медь верх
10
-6.484
20
-21.857
11
-6.480
21
-21.900
0
LINE
8
медь верх
10
-6.480
20
-21.900
11
-6.484
21
-21.943
0
LINE
8
медь верх
10
-6.484
20
-21.943
11
-6.495
21
-21.986
0
LINE
8
медь верх
10
-6.495
20
-21.986
11
-6.513
21
-22.025
0
LINE
8
медь верх
10
-6.513
20
-22.025
11
-6.538
21
-22.061
0
LINE
8
медь верх
10
-6.538
20
-22.061
11
-6.569
21
-22.092
0
LINE
8
медь верх
10
-6.569
20
-22.092
11
-6.605
21
-22.117
0
LINE
8
медь верх
10
-6.605
20
-22.117
11
-6.644
21
-22.135
0
LINE
8
медь верх
10
-6.644
20
-22.135
11
-6.686
21
-22.146
0
LINE
8
медь верх
10
-6.686
20
-22.146
11
-6.730
21
-22.150
0
LINE
8
медь верх
10
-6.730
20
-22.150
11
-6.773
21
-22.146
0
LINE
8
медь верх
10
-6.773
20
-22.146
11
-6.815
21
-22.135
0
LINE
8
медь верх
10
-6.815
20
-22.135
11
-6.855
21
-22.117
0
LINE
8
медь верх
10
-6.855
20
-22.117
11
-6.891
21
-22.092
0
LINE
8
медь верх
10
-6.891
20
-22.092
11
-6.921
21
-22.061
0
LINE
8
медь верх
10
-6.921
20
-22.061
11
-6.946
21
-22.025
0
LINE
8
медь верх
10
-6.946
20
-22.025
11
-6.965
21
-21.986
0
LINE
8
медь верх
10
-6.965
20
-21.986
11
-6.976
21
-21.943
0
LINE
8
медь верх
10
-6.976
20
-21.943
11
-6.980
21
-21.900
0
LINE
8
медь верх
10
-6.612
20
-22.120
11
-6.847
21
-22.120
0
LINE
8
медь верх
10
-6.556
20
-22.080
11
-6.902
21
-22.080
0
LINE
8
медь верх
10
-6.523
20
-22.040
11
-6.937
21
-22.040
0
LINE
8
медь верх
10
-6.500
20
-21.999
11
-6.958
21
-21.999
0
LINE
8
медь верх
10
-6.486
20
-21.960
11
-6.972
21
-21.960
0
LINE
8
медь верх
10
-6.480
20
-21.919
11
-6.979
21
-21.919
0
LINE
8
медь верх
10
-6.979
20
-21.878
11
-6.480
21
-21.878
0
LINE
8
медь верх
10
-6.971
20
-21.838
11
-6.487
21
-21.838
0
LINE
8
медь верх
10
-6.958
20
-21.798
11
-6.501
21
-21.798
0
LINE
8
медь верх
10
-6.935
20
-21.758
11
-6.523
21
-21.758
0
LINE
8
медь верх
10
-6.901
20
-21.717
11
-6.558
21
-21.717
0
LINE
8
медь верх
10
-6.844
20
-21.678
11
-6.614
21
-21.678
0
LINE
8
медь верх
10
-10.496
20
-15.049
11
-10.492
21
-15.005
0
LINE
8
медь верх
10
-10.492
20
-15.005
11
-10.481
21
-14.963
0
LINE
8
медь верх
10
-10.481
20
-14.963
11
-10.462
21
-14.924
0
LINE
8
медь верх
10
-10.462
20
-14.924
11
-10.437
21
-14.888
0
LINE
8
медь верх
10
-10.437
20
-14.888
11
-10.407
21
-14.857
0
LINE
8
медь верх
10
-10.407
20
-14.857
11
-10.371
21
-14.832
0
LINE
8
медь верх
10
-10.371
20
-14.832
11
-10.331
21
-14.814
0
LINE
8
медь верх
10
-10.331
20
-14.814
11
-10.289
21
-14.803
0
LINE
8
медь верх
10
-10.289
20
-14.803
11
-10.246
21
-14.799
0
LINE
8
медь верх
10
-10.246
20
-14.799
11
-10.202
21
-14.803
0
LINE
8
медь верх
10
-10.202
20
-14.803
11
-10.160
21
-14.814
0
LINE
8
медь верх
10
-10.160
20
-14.814
11
-10.121
21
-14.832
0
LINE
8
медь верх
10
-10.121
20
-14.832
11
-10.085
21
-14.857
0
LINE
8
медь верх
10
-10.085
20
-14.857
11
-10.054
21
-14.888
0
LINE
8
медь верх
10
-10.054
20
-14.888
11
-10.029
21
-14.924
0
LINE
8
медь верх
10
-10.029
20
-14.924
11
-10.011
21
-14.963
0
LINE
8
медь верх
10
-10.011
20
-14.963
11
-10.000
21
-15.005
0
LINE
8
медь верх
10
-10.000
20
-15.005
11
-9.996
21
-15.049
0
LINE
8
медь верх
10
-9.996
20
-15.049
11
-10.000
21
-15.092
0
LINE
8
медь верх
10
-10.000
20
-15.092
11
-10.011
21
-15.134
0
LINE
8
медь верх
10
-10.011
20
-15.134
11
-10.029
21
-15.174
0
LINE
8
медь верх
10
-10.029
20
-15.174
11
-10.054
21
-15.210
0
LINE
8
медь верх
10
-10.054
20
-15.210
11
-10.085
21
-15.240
0
LINE
8
медь верх
10
-10.085
20
-15.240
11
-10.121
21
-15.265
0
LINE
8
медь верх
10
-10.121
20
-15.265
11
-10.160
21
-15.284
0
LINE
8
медь верх
10
-10.160
20
-15.284
11
-10.202
21
-15.295
0
LINE
8
медь верх
10
-10.202
20
-15.295
11
-10.246
21
-15.299
0
LINE
8
медь верх
10
-10.246
20
-15.299
11
-10.289
21
-15.295
0
LINE
8
медь верх
10
-10.289
20
-15.295
11
-10.331
21
-15.284
0
LINE
8
медь верх
10
-10.331
20
-15.284
11
-10.371
21
-15.265
0
LINE
8
медь верх
10
-10.371
20
-15.265
11
-10.407
21
-15.240
0
LINE
8
медь верх
10
-10.407
20
-15.240
11
-10.437
21
-15.210
0
LINE
8
медь верх
10
-10.437
20
-15.210
11
-10.462
21
-15.174
0
LINE
8
медь верх
10
-10.462
20
-15.174
11
-10.481
21
-15.134
0
LINE
8
медь верх
10
-10.481
20
-15.134
11
-10.492
21
-15.092
0
LINE
8
медь верх
10
-10.492
20
-15.092
11
-10.496
21
-15.049
0
LINE
8
медь верх
10
-10.152
20
-15.281
11
-10.338
21
-15.281
0
LINE
8
медь верх
10
-10.085
20
-15.240
11
-10.405
21
-15.240
0
LINE
8
медь верх
10
-10.047
20
-15.199
11
-10.444
21
-15.199
0
LINE
8
медь верх
10
-10.022
20
-15.160
11
-10.469
21
-15.160
0
LINE
8
медь верх
10
-10.005
20
-15.119
11
-10.485
21
-15.119
0
LINE
8
медь верх
10
-9.997
20
-15.079
11
-10.493
21
-15.079
0
LINE
8
медь верх
10
-10.495
20
-15.039
11
-9.995
21
-15.039
0
LINE
8
медь верх
10
-10.490
20
-14.999
11
-10.000
21
-14.999
0
LINE
8
медь верх
10
-10.479
20
-14.958
11
-10.011
21
-14.958
0
LINE
8
медь верх
10
-10.458
20
-14.919
11
-10.032
21
-14.919
0
LINE
8
медь верх
10
-10.428
20
-14.878
11
-10.062
21
-14.878
0
LINE
8
медь верх
10
-10.380
20
-14.837
11
-10.110
21
-14.837
0
LINE
8
медь верх
10
9.589
20
-15.049
11
9.592
21
-15.005
0
LINE
8
медь верх
10
9.592
20
-15.005
11
9.604
21
-14.963
0
LINE
8
медь верх
10
9.604
20
-14.963
11
9.622
21
-14.924
0
LINE
8
медь верх
10
9.622
20
-14.924
11
9.647
21
-14.888
0
LINE
8
медь верх
10
9.647
20
-14.888
11
9.678
21
-14.857
0
LINE
8
медь верх
10
9.678
20
-14.857
11
9.714
21
-14.832
0
LINE
8
медь верх
10
9.714
20
-14.832
11
9.753
21
-14.814
0
LINE
8
медь верх
10
9.753
20
-14.814
11
9.795
21
-14.803
0
LINE
8
медь верх
10
9.795
20
-14.803
11
9.839
21
-14.799
0
LINE
8
медь верх
10
9.839
20
-14.799
11
9.882
21
-14.803
0
LINE
8
медь верх
10
9.882
20
-14.803
11
9.924
21
-14.814
0
LINE
8
медь верх
10
9.924
20
-14.814
11
9.964
21
-14.832
0
LINE
8
медь верх
10
9.964
20
-14.832
11
9.999
21
-14.857
0
LINE
8
медь верх
10
9.999
20
-14.857
11
10.030
21
-14.888
0
LINE
8
медь верх
10
10.030
20
-14.888
11
10.055
21
-14.924
0
LINE
8
медь верх
10
10.055
20
-14.924
11
10.073
21
-14.963
0
LINE
8
медь верх
10
10.073
20
-14.963
11
10.085
21
-15.005
0
LINE
8
медь верх
10
10.085
20
-15.005
11
10.089
21
-15.049
0
LINE
8
медь верх
10
10.089
20
-15.049
11
10.085
21
-15.092
0
LINE
8
медь верх
10
10.085
20
-15.092
11
10.073
21
-15.134
0
LINE
8
медь верх
10
10.073
20
-15.134
11
10.055
21
-15.174
0
LINE
8
медь верх
10
10.055
20
-15.174
11
10.030
21
-15.210
0
LINE
8
медь верх
10
10.030
20
-15.210
11
9.999
21
-15.240
0
LINE
8
медь верх
10
9.999
20
-15.240
11
9.964
21
-15.265
0
LINE
8
медь верх
10
9.964
20
-15.265
11
9.924
21
-15.284
0
LINE
8
медь верх
10
9.924
20
-15.284
11
9.882
21
-15.295
0
LINE
8
медь верх
10
9.882
20
-15.295
11
9.839
21
-15.299
0
LINE
8
медь верх
10
9.839
20
-15.299
11
9.795
21
-15.295
0
LINE
8
медь верх
10
9.795
20
-15.295
11
9.753
21
-15.284
0
LINE
8
медь верх
10
9.753
20
-15.284
11
9.714
21
-15.265
0
LINE
8
медь верх
10
9.714
20
-15.265
11
9.678
21
-15.240
0
LINE
8
медь верх
10
9.678
20
-15.240
11
9.647
21
-15.210
0
LINE
8
медь верх
10
9.647
20
-15.210
11
9.622
21
-15.174
0
LINE
8
медь верх
10
9.622
20
-15.174
11
9.604
21
-15.134
0
LINE
8
медь верх
10
9.604
20
-15.134
11
9.592
21
-15.092
0
LINE
8
медь верх
10
9.592
20
-15.092
11
9.589
21
-15.049
0
LINE
8
медь верх
10
9.935
20
-15.278
11
9.740
21
-15.278
0
LINE
8
медь верх
10
10.000
20
-15.239
11
9.675
21
-15.239
0
LINE
8
медь верх
10
10.038
20
-15.198
11
9.638
21
-15.198
0
LINE
8
медь верх
10
10.062
20
-15.157
11
9.613
21
-15.157
0
LINE
8
медь верх
10
10.079
20
-15.117
11
9.597
21
-15.117
0
LINE
8
медь верх
10
10.086
20
-15.077
11
9.590
21
-15.077
0
LINE
8
медь верх
10
9.588
20
-15.037
11
10.088
21
-15.037
0
LINE
8
медь верх
10
9.594
20
-14.996
11
10.083
21
-14.996
0
LINE
8
медь верх
10
9.605
20
-14.957
11
10.070
21
-14.957
0
LINE
8
медь верх
10
9.625
20
-14.916
11
10.050
21
-14.916
0
LINE
8
медь верх
10
9.657
20
-14.876
11
10.019
21
-14.876
0
LINE
8
медь верх
10
9.707
20
-14.836
11
9.970
21
-14.836
0
ENDSEC
0
EOF
