0
SECTION
2
ENTITIES
0
LINE
8
медь верх
10
-10.005
20
-14.342
11
-10.074
21
-14.411
0
LINE
8
медь верх
10
-10.074
20
-14.411
11
-10.417
21
-14.411
0
LINE
8
медь верх
10
-10.417
20
-14.411
11
-10.487
21
-14.342
0
LINE
8
медь верх
10
-10.487
20
-14.342
11
-10.469
21
-14.324
0
LINE
8
медь верх
10
-10.469
20
-14.324
11
-10.023
21
-14.324
0
LINE
8
медь верх
10
-10.023
20
-14.324
11
-10.005
21
-14.342
0
LINE
8
медь верх
10
-10.063
20
-14.401
11
-10.427
21
-14.401
0
LINE
8
медь верх
10
-10.023
20
-14.360
11
-10.467
21
-14.360
0
LINE
8
медь верх
10
10.080
20
-14.342
11
10.010
21
-14.411
0
LINE
8
медь верх
10
10.010
20
-14.411
11
9.667
21
-14.411
0
LINE
8
медь верх
10
9.667
20
-14.411
11
9.597
21
-14.342
0
LINE
8
медь верх
10
9.597
20
-14.342
11
9.615
21
-14.324
0
LINE
8
медь верх
10
9.615
20
-14.324
11
10.062
21
-14.324
0
LINE
8
медь верх
10
10.062
20
-14.324
11
10.080
21
-14.342
0
LINE
8
медь верх
10
10.022
20
-14.398
11
9.655
21
-14.398
0
LINE
8
медь верх
10
10.062
20
-14.359
11
9.614
21
-14.359
0
LINE
8
медь верх
10
-9.521
20
-14.826
11
-9.521
21
-15.272
0
LINE
8
медь верх
10
-9.521
20
-15.272
11
-9.539
21
-15.290
0
LINE
8
медь верх
10
-9.539
20
-15.290
11
-9.608
21
-15.220
0
LINE
8
медь верх
10
-9.608
20
-15.220
11
-9.608
21
-14.877
0
LINE
8
медь верх
10
-9.608
20
-14.877
11
-9.539
21
-14.808
0
LINE
8
медь верх
10
-9.539
20
-14.808
11
-9.521
21
-14.826
0
LINE
8
медь верх
10
-9.520
20
-15.240
11
-9.587
21
-15.240
0
LINE
8
медь верх
10
-9.520
20
-15.199
11
-9.608
21
-15.199
0
LINE
8
медь верх
10
-9.520
20
-15.160
11
-9.608
21
-15.160
0
LINE
8
медь верх
10
-9.520
20
-15.119
11
-9.608
21
-15.119
0
LINE
8
медь верх
10
-9.520
20
-15.079
11
-9.608
21
-15.079
0
LINE
8
медь верх
10
-9.520
20
-15.039
11
-9.608
21
-15.039
0
LINE
8
медь верх
10
-9.520
20
-14.999
11
-9.608
21
-14.999
0
LINE
8
медь верх
10
-9.520
20
-14.958
11
-9.608
21
-14.958
0
LINE
8
медь верх
10
-9.520
20
-14.917
11
-9.608
21
-14.917
0
LINE
8
медь верх
10
-9.520
20
-14.878
11
-9.608
21
-14.878
0
LINE
8
медь верх
10
-9.520
20
-14.837
11
-9.568
21
-14.837
0
LINE
8
медь верх
10
-10.883
20
-14.877
11
-10.883
21
-15.220
0
LINE
8
медь верх
10
-10.883
20
-15.220
11
-10.953
21
-15.290
0
LINE
8
медь верх
10
-10.953
20
-15.290
11
-10.971
21
-15.272
0
LINE
8
медь верх
10
-10.971
20
-15.272
11
-10.971
21
-14.826
0
LINE
8
медь верх
10
-10.971
20
-14.826
11
-10.953
21
-14.808
0
LINE
8
медь верх
10
-10.953
20
-14.808
11
-10.883
21
-14.877
0
LINE
8
медь верх
10
-10.903
20
-15.240
11
-10.970
21
-15.240
0
LINE
8
медь верх
10
-10.883
20
-15.199
11
-10.970
21
-15.199
0
LINE
8
медь верх
10
-10.883
20
-15.160
11
-10.970
21
-15.160
0
LINE
8
медь верх
10
-10.883
20
-15.119
11
-10.970
21
-15.119
0
LINE
8
медь верх
10
-10.883
20
-15.079
11
-10.970
21
-15.079
0
LINE
8
медь верх
10
-10.883
20
-15.039
11
-10.970
21
-15.039
0
LINE
8
медь верх
10
-10.883
20
-14.999
11
-10.970
21
-14.999
0
LINE
8
медь верх
10
-10.883
20
-14.958
11
-10.970
21
-14.958
0
LINE
8
медь верх
10
-10.883
20
-14.919
11
-10.970
21
-14.919
0
LINE
8
медь верх
10
-10.883
20
-14.878
11
-10.970
21
-14.878
0
LINE
8
медь верх
10
-10.970
20
-14.837
11
-10.922
21
-14.837
0
LINE
8
медь верх
10
10.564
20
-14.826
11
10.564
21
-15.272
0
LINE
8
медь верх
10
10.564
20
-15.272
11
10.546
21
-15.290
0
LINE
8
медь верх
10
10.546
20
-15.290
11
10.476
21
-15.220
0
LINE
8
медь верх
10
10.476
20
-15.220
11
10.476
21
-14.877
0
LINE
8
медь верх
10
10.476
20
-14.877
11
10.546
21
-14.808
0
LINE
8
медь верх
10
10.546
20
-14.808
11
10.564
21
-14.826
0
LINE
8
медь верх
10
10.563
20
-15.237
11
10.494
21
-15.237
0
LINE
8
медь верх
10
10.563
20
-15.198
11
10.475
21
-15.198
0
LINE
8
медь верх
10
10.563
20
-15.157
11
10.475
21
-15.157
0
LINE
8
медь верх
10
10.563
20
-15.117
11
10.475
21
-15.117
0
LINE
8
медь верх
10
10.563
20
-15.077
11
10.475
21
-15.077
0
LINE
8
медь верх
10
10.563
20
-15.037
11
10.475
21
-15.037
0
LINE
8
медь верх
10
10.563
20
-14.996
11
10.475
21
-14.996
0
LINE
8
медь верх
10
10.563
20
-14.957
11
10.475
21
-14.957
0
LINE
8
медь верх
10
10.563
20
-14.916
11
10.475
21
-14.916
0
LINE
8
медь верх
10
10.563
20
-14.876
11
10.476
21
-14.876
0
LINE
8
медь верх
10
10.563
20
-14.836
11
10.517
21
-14.836
0
LINE
8
медь верх
10
9.201
20
-14.877
11
9.201
21
-15.220
0
LINE
8
медь верх
10
9.201
20
-15.220
11
9.131
21
-15.290
0
LINE
8
медь верх
10
9.131
20
-15.290
11
9.113
21
-15.272
0
LINE
8
медь верх
10
9.113
20
-15.272
11
9.113
21
-14.826
0
LINE
8
медь верх
10
9.113
20
-14.826
11
9.131
21
-14.808
0
LINE
8
медь верх
10
9.131
20
-14.808
11
9.201
21
-14.877
0
LINE
8
медь верх
10
9.182
20
-15.239
11
9.112
21
-15.239
0
LINE
8
медь верх
10
9.200
20
-15.198
11
9.112
21
-15.198
0
LINE
8
медь верх
10
9.200
20
-15.157
11
9.112
21
-15.157
0
LINE
8
медь верх
10
9.200
20
-15.117
11
9.112
21
-15.117
0
LINE
8
медь верх
10
9.200
20
-15.077
11
9.112
21
-15.077
0
LINE
8
медь верх
10
9.200
20
-15.037
11
9.112
21
-15.037
0
LINE
8
медь верх
10
9.200
20
-14.996
11
9.112
21
-14.996
0
LINE
8
медь верх
10
9.200
20
-14.957
11
9.112
21
-14.957
0
LINE
8
медь верх
10
9.200
20
-14.916
11
9.112
21
-14.916
0
LINE
8
медь верх
10
9.112
20
-14.876
11
9.200
21
-14.876
0
LINE
8
медь верх
10
9.112
20
-14.836
11
9.159
21
-14.836
0
LINE
8
медь верх
10
-10.005
20
-15.756
11
-10.023
21
-15.774
0
LINE
8
медь верх
10
-10.023
20
-15.774
11
-10.469
21
-15.774
0
LINE
8
медь верх
10
-10.469
20
-15.774
11
-10.487
21
-15.756
0
LINE
8
медь верх
10
-10.487
20
-15.756
11
-10.417
21
-15.686
0
LINE
8
медь верх
10
-10.417
20
-15.686
11
-10.074
21
-15.686
0
LINE
8
медь верх
10
-10.074
20
-15.686
11
-10.005
21
-15.756
0
LINE
8
медь верх
10
-10.009
20
-15.761
11
-10.481
21
-15.761
0
LINE
8
медь верх
10
-10.451
20
-15.720
11
-10.039
21
-15.720
0
LINE
8
медь верх
10
10.080
20
-15.756
11
10.062
21
-15.774
0
LINE
8
медь верх
10
10.062
20
-15.774
11
9.615
21
-15.774
0
LINE
8
медь верх
10
9.615
20
-15.774
11
9.597
21
-15.756
0
LINE
8
медь верх
10
9.597
20
-15.756
11
9.667
21
-15.686
0
LINE
8
медь верх
10
9.667
20
-15.686
11
10.010
21
-15.686
0
LINE
8
медь верх
10
10.010
20
-15.686
11
10.080
21
-15.756
0
LINE
8
медь верх
10
10.076
20
-15.758
11
9.600
21
-15.758
0
LINE
8
медь верх
10
9.634
20
-15.718
11
10.042
21
-15.718
0
LINE
8
медь верх
10
-5.990
20
-18.445
11
-6.155
21
-18.610
0
LINE
8
медь верх
10
-6.155
20
-18.610
11
-6.331
21
-18.610
0
LINE
8
медь верх
10
-6.331
20
-18.610
11
-6.331
21
-18.567
0
LINE
8
медь верх
10
-6.331
20
-18.567
11
-6.192
21
-18.567
0
LINE
8
медь верх
10
-6.192
20
-18.567
11
-6.033
21
-18.409
0
LINE
8
медь верх
10
-6.033
20
-18.409
11
-6.033
21
-18.319
0
LINE
8
медь верх
10
-6.033
20
-18.319
11
-5.990
21
-18.319
0
LINE
8
медь верх
10
-5.990
20
-18.319
11
-5.990
21
-18.445
0
LINE
8
медь верх
10
-6.144
20
-18.600
11
-6.330
21
-18.600
0
LINE
8
медь верх
10
-6.105
20
-18.560
11
-6.184
21
-18.560
0
LINE
8
медь верх
10
-6.064
20
-18.519
11
-6.144
21
-18.519
0
LINE
8
медь верх
10
-6.024
20
-18.480
11
-6.104
21
-18.480
0
LINE
8
медь верх
10
-6.063
20
-18.439
11
-5.989
21
-18.439
0
LINE
8
медь верх
10
-6.032
20
-18.398
11
-5.989
21
-18.398
0
LINE
8
медь верх
10
-6.032
20
-18.358
11
-5.989
21
-18.358
0
LINE
8
медь верх
10
-7.287
20
-18.409
11
-7.129
21
-18.567
0
LINE
8
медь верх
10
-7.129
20
-18.567
11
-6.990
21
-18.567
0
LINE
8
медь верх
10
-6.990
20
-18.567
11
-6.990
21
-18.610
0
LINE
8
медь верх
10
-6.990
20
-18.610
11
-7.165
21
-18.610
0
LINE
8
медь верх
10
-7.165
20
-18.610
11
-7.331
21
-18.445
0
LINE
8
медь верх
10
-7.331
20
-18.445
11
-7.331
21
-18.319
0
LINE
8
медь верх
10
-7.331
20
-18.319
11
-7.287
21
-18.319
0
LINE
8
медь верх
10
-7.287
20
-18.319
11
-7.287
21
-18.409
0
LINE
8
медь верх
10
-6.989
20
-18.600
11
-7.174
21
-18.600
0
LINE
8
медь верх
10
-7.135
20
-18.560
11
-7.215
21
-18.560
0
LINE
8
медь верх
10
-7.175
20
-18.519
11
-7.254
21
-18.519
0
LINE
8
медь верх
10
-7.215
20
-18.480
11
-7.295
21
-18.480
0
LINE
8
медь верх
10
-7.256
20
-18.439
11
-7.330
21
-18.439
0
LINE
8
медь верх
10
-7.330
20
-18.398
11
-7.287
21
-18.398
0
LINE
8
медь верх
10
-7.330
20
-18.359
11
-7.287
21
-18.359
0
LINE
8
медь верх
10
-3.869
20
-19.468
11
-3.229
21
-19.468
0
LINE
8
медь верх
10
-3.229
20
-19.468
11
-3.229
21
-19.510
0
LINE
8
медь верх
10
-3.229
20
-19.510
11
-3.900
21
-19.510
0
LINE
8
медь верх
10
-3.900
20
-19.510
11
-4.091
21
-19.319
0
LINE
8
медь верх
10
-4.091
20
-19.319
11
-4.018
21
-19.319
0
LINE
8
медь верх
10
-4.018
20
-19.319
11
-3.869
21
-19.468
0
LINE
8
медь верх
10
-3.228
20
-19.479
11
-3.929
21
-19.479
0
LINE
8
медь верх
10
-3.970
20
-19.440
11
-3.896
21
-19.440
0
LINE
8
медь верх
10
-4.009
20
-19.399
11
-3.937
21
-19.399
0
LINE
8
медь верх
10
-4.050
20
-19.359
11
-3.978
21
-19.359
0
LINE
8
медь верх
10
-1.900
20
-19.510
11
-2.571
21
-19.510
0
LINE
8
медь верх
10
-2.571
20
-19.510
11
-2.571
21
-19.468
0
LINE
8
медь верх
10
-2.571
20
-19.468
11
-1.931
21
-19.468
0
LINE
8
медь верх
10
-1.931
20
-19.468
11
-1.782
21
-19.319
0
LINE
8
медь верх
10
-1.782
20
-19.319
11
-1.709
21
-19.319
0
LINE
8
медь верх
10
-1.709
20
-19.319
11
-1.900
21
-19.510
0
LINE
8
медь верх
10
-2.570
20
-19.479
11
-1.869
21
-19.479
0
LINE
8
медь верх
10
-1.901
20
-19.440
11
-1.829
21
-19.440
0
LINE
8
медь верх
10
-1.862
20
-19.399
11
-1.788
21
-19.399
0
LINE
8
медь верх
10
-1.821
20
-19.359
11
-1.749
21
-19.359
0
LINE
8
медь верх
10
-7.059
20
-21.328
11
-7.300
21
-21.569
0
LINE
8
медь верх
10
-7.300
20
-21.569
11
-7.400
21
-21.569
0
LINE
8
медь верх
10
-7.400
20
-21.569
11
-7.400
21
-21.545
0
LINE
8
медь верх
10
-7.400
20
-21.545
11
-7.085
21
-21.229
0
LINE
8
медь верх
10
-7.085
20
-21.229
11
-7.059
21
-21.229
0
LINE
8
медь верх
10
-7.059
20
-21.229
11
-7.059
21
-21.328
0
LINE
8
медь верх
10
-7.291
20
-21.560
11
-7.400
21
-21.560
0
LINE
8
медь верх
10
-7.252
20
-21.520
11
-7.375
21
-21.520
0
LINE
8
медь верх
10
-7.211
20
-21.480
11
-7.334
21
-21.480
0
LINE
8
медь верх
10
-7.170
20
-21.439
11
-7.295
21
-21.439
0
LINE
8
медь верх
10
-7.131
20
-21.400
11
-7.254
21
-21.400
0
LINE
8
медь верх
10
-7.090
20
-21.359
11
-7.214
21
-21.359
0
LINE
8
медь верх
10
-7.174
20
-21.318
11
-7.059
21
-21.318
0
LINE
8
медь верх
10
-7.134
20
-21.279
11
-7.059
21
-21.279
0
LINE
8
медь верх
10
-7.093
20
-21.238
11
-7.059
21
-21.238
0
LINE
8
медь верх
10
-6.059
20
-21.545
11
-6.059
21
-21.570
0
LINE
8
медь верх
10
-6.059
20
-21.570
11
-6.158
21
-21.570
0
LINE
8
медь верх
10
-6.158
20
-21.570
11
-6.400
21
-21.328
0
LINE
8
медь верх
10
-6.400
20
-21.328
11
-6.400
21
-21.229
0
LINE
8
медь верх
10
-6.400
20
-21.229
11
-6.375
21
-21.229
0
LINE
8
медь верх
10
-6.375
20
-21.229
11
-6.059
21
-21.545
0
LINE
8
медь верх
10
-6.059
20
-21.560
11
-6.167
21
-21.560
0
LINE
8
медь верх
10
-6.208
20
-21.520
11
-6.083
21
-21.520
0
LINE
8
медь верх
10
-6.247
20
-21.480
11
-6.124
21
-21.480
0
LINE
8
медь верх
10
-6.288
20
-21.439
11
-6.163
21
-21.439
0
LINE
8
медь верх
10
-6.328
20
-21.400
11
-6.204
21
-21.400
0
LINE
8
медь верх
10
-6.368
20
-21.359
11
-6.245
21
-21.359
0
LINE
8
медь верх
10
-6.400
20
-21.318
11
-6.285
21
-21.318
0
LINE
8
медь верх
10
-6.400
20
-21.279
11
-6.325
21
-21.279
0
LINE
8
медь верх
10
-6.400
20
-21.238
11
-6.365
21
-21.238
0
LINE
8
медь верх
10
-6.059
20
-22.255
11
-6.375
21
-22.570
0
LINE
8
медь верх
10
-6.375
20
-22.570
11
-6.400
21
-22.570
0
LINE
8
медь верх
10
-6.400
20
-22.570
11
-6.400
21
-22.472
0
LINE
8
медь верх
10
-6.400
20
-22.472
11
-6.158
21
-22.229
0
LINE
8
медь верх
10
-6.158
20
-22.229
11
-6.059
21
-22.229
0
LINE
8
медь верх
10
-6.059
20
-22.229
11
-6.059
21
-22.255
0
LINE
8
медь верх
10
-6.364
20
-22.560
11
-6.400
21
-22.560
0
LINE
8
медь верх
10
-6.325
20
-22.520
11
-6.400
21
-22.520
0
LINE
8
медь верх
10
-6.284
20
-22.479
11
-6.400
21
-22.479
0
LINE
8
медь верх
10
-6.243
20
-22.440
11
-6.368
21
-22.440
0
LINE
8
медь верх
10
-6.204
20
-22.399
11
-6.327
21
-22.399
0
LINE
8
медь верх
10
-6.163
20
-22.358
11
-6.286
21
-22.358
0
LINE
8
медь верх
10
-6.123
20
-22.319
11
-6.247
21
-22.319
0
LINE
8
медь верх
10
-6.082
20
-22.278
11
-6.206
21
-22.278
0
LINE
8
медь верх
10
-6.166
20
-22.238
11
-6.059
21
-22.238
0
LINE
8
медь верх
10
-7.059
20
-22.472
11
-7.059
21
-22.570
0
LINE
8
медь верх
10
-7.059
20
-22.570
11
-7.085
21
-22.570
0
LINE
8
медь верх
10
-7.085
20
-22.570
11
-7.400
21
-22.255
0
LINE
8
медь верх
10
-7.400
20
-22.255
11
-7.400
21
-22.232
0
LINE
8
медь верх
10
-7.400
20
-22.232
11
-7.300
21
-22.232
0
LINE
8
медь верх
10
-7.300
20
-22.232
11
-7.059
21
-22.472
0
LINE
8
медь верх
10
-7.059
20
-22.560
11
-7.094
21
-22.560
0
LINE
8
медь верх
10
-7.059
20
-22.520
11
-7.134
21
-22.520
0
LINE
8
медь верх
10
-7.059
20
-22.479
11
-7.174
21
-22.479
0
LINE
8
медь верх
10
-7.215
20
-22.440
11
-7.090
21
-22.440
0
LINE
8
медь верх
10
-7.256
20
-22.399
11
-7.131
21
-22.399
0
LINE
8
медь верх
10
-7.295
20
-22.358
11
-7.172
21
-22.358
0
LINE
8
медь верх
10
-7.336
20
-22.319
11
-7.211
21
-22.319
0
LINE
8
медь верх
10
-7.376
20
-22.278
11
-7.252
21
-22.278
0
LINE
8
медь верх
10
-7.400
20
-22.238
11
-7.292
21
-22.238
0
LINE
8
медь верх
10
-9.229
20
-22.419
11
-9.881
21
-23.070
0
LINE
8
медь верх
10
-9.881
20
-23.070
11
-10.070
21
-23.070
0
LINE
8
медь верх
10
-10.070
20
-23.070
11
-10.070
21
-23.032
0
LINE
8
медь верх
10
-10.070
20
-23.032
11
-9.890
21
-23.032
0
LINE
8
медь верх
10
-9.890
20
-23.032
11
-9.268
21
-22.410
0
LINE
8
медь верх
10
-9.268
20
-22.410
11
-9.268
21
-22.232
0
LINE
8
медь верх
10
-9.268
20
-22.232
11
-9.229
21
-22.232
0
LINE
8
медь верх
10
-9.229
20
-22.232
11
-9.229
21
-22.419
0
LINE
8
медь верх
10
-9.850
20
-23.040
11
-10.070
21
-23.040
0
LINE
8
медь верх
10
-9.811
20
-23.000
11
-9.859
21
-23.000
0
LINE
8
медь верх
10
-9.770
20
-22.960
11
-9.818
21
-22.960
0
LINE
8
медь верх
10
-9.729
20
-22.920
11
-9.778
21
-22.920
0
LINE
8
медь верх
10
-9.690
20
-22.879
11
-9.737
21
-22.879
0
LINE
8
медь верх
10
-9.649
20
-22.840
11
-9.698
21
-22.840
0
LINE
8
медь верх
10
-9.609
20
-22.799
11
-9.657
21
-22.799
0
LINE
8
медь верх
10
-9.569
20
-22.758
11
-9.616
21
-22.758
0
LINE
8
медь верх
10
-9.529
20
-22.718
11
-9.577
21
-22.718
0
LINE
8
медь верх
10
-9.488
20
-22.678
11
-9.536
21
-22.678
0
LINE
8
медь верх
10
-9.448
20
-22.638
11
-9.496
21
-22.638
0
LINE
8
медь верх
10
-9.408
20
-22.597
11
-9.456
21
-22.597
0
LINE
8
медь верх
10
-9.368
20
-22.558
11
-9.416
21
-22.558
0
LINE
8
медь верх
10
-9.327
20
-22.517
11
-9.375
21
-22.517
0
LINE
8
медь верх
10
-9.288
20
-22.476
11
-9.335
21
-22.476
0
LINE
8
медь верх
10
-9.247
20
-22.437
11
-9.295
21
-22.437
0
LINE
8
медь верх
10
-9.267
20
-22.396
11
-9.229
21
-22.396
0
LINE
8
медь верх
10
-9.267
20
-22.356
11
-9.229
21
-22.356
0
LINE
8
медь верх
10
-9.267
20
-22.315
11
-9.229
21
-22.315
0
LINE
8
медь верх
10
-9.267
20
-22.276
11
-9.229
21
-22.276
0
LINE
8
медь верх
10
-9.267
20
-22.235
11
-9.229
21
-22.235
0
LINE
8
медь верх
10
-11.532
20
-22.410
11
-10.910
21
-23.032
0
LINE
8
медь верх
10
-10.910
20
-23.032
11
-10.729
21
-23.032
0
LINE
8
медь верх
10
-10.729
20
-23.032
11
-10.729
21
-23.070
0
LINE
8
медь верх
10
-10.729
20
-23.070
11
-10.919
21
-23.070
0
LINE
8
медь верх
10
-10.919
20
-23.070
11
-11.570
21
-22.419
0
LINE
8
медь верх
10
-11.570
20
-22.419
11
-11.570
21
-22.229
0
LINE
8
медь верх
10
-11.570
20
-22.229
11
-11.532
21
-22.229
0
LINE
8
медь верх
10
-11.532
20
-22.229
11
-11.532
21
-22.410
0
LINE
8
медь верх
10
-10.729
20
-23.040
11
-10.947
21
-23.040
0
LINE
8
медь верх
10
-10.940
20
-23.000
11
-10.988
21
-23.000
0
LINE
8
медь верх
10
-10.980
20
-22.960
11
-11.029
21
-22.960
0
LINE
8
медь верх
10
-11.021
20
-22.920
11
-11.068
21
-22.920
0
LINE
8
медь верх
10
-11.060
20
-22.879
11
-11.109
21
-22.879
0
LINE
8
медь верх
10
-11.101
20
-22.840
11
-11.149
21
-22.840
0
LINE
8
медь верх
10
-11.142
20
-22.799
11
-11.190
21
-22.799
0
LINE
8
медь верх
10
-11.181
20
-22.758
11
-11.229
21
-22.758
0
LINE
8
медь верх
10
-11.222
20
-22.719
11
-11.270
21
-22.719
0
LINE
8
медь верх
10
-11.262
20
-22.678
11
-11.311
21
-22.678
0
LINE
8
медь верх
10
-11.303
20
-22.638
11
-11.350
21
-22.638
0
LINE
8
медь верх
10
-11.342
20
-22.597
11
-11.391
21
-22.597
0
LINE
8
медь верх
10
-11.383
20
-22.558
11
-11.431
21
-22.558
0
LINE
8
медь верх
10
-11.424
20
-22.517
11
-11.471
21
-22.517
0
LINE
8
медь верх
10
-11.463
20
-22.476
11
-11.511
21
-22.476
0
LINE
8
медь верх
10
-11.504
20
-22.437
11
-11.552
21
-22.437
0
LINE
8
медь верх
10
-11.570
20
-22.396
11
-11.532
21
-22.396
0
LINE
8
медь верх
10
-11.570
20
-22.356
11
-11.532
21
-22.356
0
LINE
8
медь верх
10
-11.570
20
-22.316
11
-11.532
21
-22.316
0
LINE
8
медь верх
10
-11.570
20
-22.276
11
-11.532
21
-22.276
0
LINE
8
медь верх
10
-11.570
20
-22.235
11
-11.532
21
-22.235
0
LINE
8
медь верх
10
0.034
20
-13.395
11
0.034
21
-13.395
0
LINE
8
медь верх
10
0.034
20
-13.395
11
0.034
21
-13.395
0
LINE
8
медь верх
10
0.034
20
-13.395
11
5.884
21
-13.395
0
LINE
8
медь верх
10
5.884
20
-13.395
11
6.048
21
-13.428
0
LINE
8
медь верх
10
6.048
20
-13.428
11
6.048
21
-13.428
0
LINE
8
медь верх
10
6.048
20
-13.428
11
6.051
21
-13.428
0
LINE
8
медь верх
10
6.051
20
-13.428
11
6.193
21
-13.523
0
LINE
8
медь верх
10
6.193
20
-13.523
11
6.593
21
-13.923
0
LINE
8
медь верх
10
6.593
20
-13.923
11
6.646
21
-14.003
0
LINE
8
медь верх
10
6.646
20
-14.003
11
6.647
21
-14.003
0
LINE
8
медь верх
10
6.647
20
-14.003
11
6.647
21
-14.003
0
LINE
8
медь верх
10
6.647
20
-14.003
11
6.707
21
-14.093
0
LINE
8
медь верх
10
6.707
20
-14.093
11
6.715
21
-14.112
0
LINE
8
медь верх
10
6.715
20
-14.112
11
6.731
21
-14.128
0
LINE
8
медь верх
10
6.731
20
-14.128
11
6.744
21
-14.147
0
LINE
8
медь верх
10
6.744
20
-14.147
11
6.762
21
-14.160
0
LINE
8
медь верх
10
6.762
20
-14.160
11
6.778
21
-14.176
0
LINE
8
медь верх
10
6.778
20
-14.176
11
6.799
21
-14.184
0
LINE
8
медь верх
10
6.799
20
-14.184
11
6.818
21
-14.197
0
LINE
8
медь верх
10
6.818
20
-14.197
11
6.839
21
-14.201
0
LINE
8
медь верх
10
6.839
20
-14.201
11
7.015
21
-14.378
0
LINE
8
медь верх
10
7.015
20
-14.378
11
7.015
21
-15.293
0
LINE
8
медь верх
10
7.015
20
-15.293
11
7.014
21
-15.298
0
LINE
8
медь верх
10
7.014
20
-15.298
11
7.017
21
-15.315
0
LINE
8
медь верх
10
7.017
20
-15.315
11
7.017
21
-15.315
0
LINE
8
медь верх
10
7.017
20
-15.315
11
7.017
21
-15.315
0
LINE
8
медь верх
10
7.017
20
-15.315
11
7.017
21
-15.828
0
LINE
8
медь верх
10
7.017
20
-15.828
11
7.035
21
-15.916
0
LINE
8
медь верх
10
7.035
20
-15.916
11
7.085
21
-15.990
0
LINE
8
медь верх
10
7.085
20
-15.990
11
7.159
21
-16.040
0
LINE
8
медь верх
10
7.159
20
-16.040
11
7.247
21
-16.058
0
LINE
8
медь верх
10
7.247
20
-16.058
11
7.517
21
-16.058
0
LINE
8
медь верх
10
7.517
20
-16.058
11
7.685
21
-16.091
0
LINE
8
медь верх
10
7.685
20
-16.091
11
7.779
21
-16.154
0
LINE
8
медь верх
10
7.779
20
-16.154
11
7.826
21
-16.186
0
LINE
8
медь верх
10
7.826
20
-16.186
11
9.793
21
-18.152
0
LINE
8
медь верх
10
9.793
20
-18.152
11
9.868
21
-18.202
0
LINE
8
медь верх
10
9.868
20
-18.202
11
9.956
21
-18.220
0
LINE
8
медь верх
10
9.956
20
-18.220
11
11.053
21
-18.220
0
LINE
8
медь верх
10
11.053
20
-18.220
11
11.680
21
-18.847
0
LINE
8
медь верх
10
11.680
20
-18.847
11
11.680
21
-19.953
0
LINE
8
медь верх
10
11.680
20
-19.953
11
11.146
21
-20.488
0
LINE
8
медь верх
10
11.146
20
-20.488
11
11.096
21
-20.562
0
LINE
8
медь верх
10
11.096
20
-20.562
11
11.079
21
-20.650
0
LINE
8
медь верх
10
11.079
20
-20.650
11
11.096
21
-20.738
0
LINE
8
медь верх
10
11.096
20
-20.738
11
11.146
21
-20.812
0
LINE
8
медь верх
10
11.146
20
-20.812
11
11.680
21
-21.347
0
LINE
8
медь верх
10
11.680
20
-21.347
11
11.680
21
-22.453
0
LINE
8
медь верх
10
11.680
20
-22.453
11
11.053
21
-23.080
0
LINE
8
медь верх
10
11.053
20
-23.080
11
9.947
21
-23.080
0
LINE
8
медь верх
10
9.947
20
-23.080
11
9.320
21
-22.453
0
LINE
8
медь верх
10
9.320
20
-22.453
11
9.320
21
-21.356
0
LINE
8
медь верх
10
9.320
20
-21.356
11
9.302
21
-21.268
0
LINE
8
медь верх
10
9.302
20
-21.268
11
9.252
21
-21.193
0
LINE
8
медь верх
10
9.252
20
-21.193
11
9.252
21
-21.193
0
LINE
8
медь верх
10
9.252
20
-21.193
11
7.776
21
-19.717
0
LINE
8
медь верх
10
7.776
20
-19.717
11
7.681
21
-19.575
0
LINE
8
медь верх
10
7.681
20
-19.575
11
7.648
21
-19.408
0
LINE
8
медь верх
10
7.648
20
-19.408
11
7.648
21
-18.656
0
LINE
8
медь верх
10
7.648
20
-18.656
11
7.630
21
-18.568
0
LINE
8
медь верх
10
7.630
20
-18.568
11
7.581
21
-18.493
0
LINE
8
медь верх
10
7.581
20
-18.493
11
7.581
21
-18.493
0
LINE
8
медь верх
10
7.581
20
-18.493
11
7.409
21
-18.322
0
LINE
8
медь верх
10
7.409
20
-18.322
11
7.409
21
-18.322
0
LINE
8
медь верх
10
7.409
20
-18.322
11
7.365
21
-18.292
0
LINE
8
медь верх
10
7.365
20
-18.292
11
7.335
21
-18.272
0
LINE
8
медь верх
10
7.335
20
-18.272
11
7.247
21
-18.255
0
LINE
8
медь верх
10
7.247
20
-18.255
11
7.247
21
-18.255
0
LINE
8
медь верх
10
7.247
20
-18.255
11
7.159
21
-18.272
0
LINE
8
медь верх
10
7.159
20
-18.272
11
7.085
21
-18.322
0
LINE
8
медь верх
10
7.085
20
-18.322
11
7.055
21
-18.367
0
LINE
8
медь верх
10
7.055
20
-18.367
11
7.035
21
-18.397
0
LINE
8
медь верх
10
7.035
20
-18.397
11
7.017
21
-18.484
0
LINE
8
медь верх
10
7.017
20
-18.484
11
7.017
21
-18.484
0
LINE
8
медь верх
10
7.017
20
-18.484
11
7.017
21
-18.865
0
LINE
8
медь верх
10
7.017
20
-18.865
11
7.017
21
-18.865
0
LINE
8
медь верх
10
7.017
20
-18.865
11
7.017
21
-18.865
0
LINE
8
медь верх
10
7.017
20
-18.865
11
7.014
21
-18.881
0
LINE
8
медь верх
10
7.014
20
-18.881
11
7.015
21
-18.887
0
LINE
8
медь верх
10
7.015
20
-18.887
11
7.015
21
-19.802
0
LINE
8
медь верх
10
7.015
20
-19.802
11
6.836
21
-19.981
0
LINE
8
медь верх
10
6.836
20
-19.981
11
6.828
21
-19.983
0
LINE
8
медь верх
10
6.828
20
-19.983
11
6.809
21
-19.996
0
LINE
8
медь верх
10
6.809
20
-19.996
11
6.788
21
-20.004
0
LINE
8
медь верх
10
6.788
20
-20.004
11
6.772
21
-20.020
0
LINE
8
медь верх
10
6.772
20
-20.020
11
6.754
21
-20.033
0
LINE
8
медь верх
10
6.754
20
-20.033
11
6.741
21
-20.052
0
LINE
8
медь верх
10
6.741
20
-20.052
11
6.725
21
-20.068
0
LINE
8
медь верх
10
6.725
20
-20.068
11
6.716
21
-20.089
0
LINE
8
медь верх
10
6.716
20
-20.089
11
6.704
21
-20.107
0
LINE
8
медь верх
10
6.704
20
-20.107
11
6.699
21
-20.130
0
LINE
8
медь верх
10
6.699
20
-20.130
11
6.691
21
-20.151
0
LINE
8
медь верх
10
6.691
20
-20.151
11
6.688
21
-20.164
0
LINE
8
медь верх
10
6.688
20
-20.164
11
6.647
21
-20.225
0
LINE
8
медь верх
10
6.647
20
-20.225
11
6.647
21
-20.226
0
LINE
8
медь верх
10
6.647
20
-20.226
11
6.647
21
-20.226
0
LINE
8
медь верх
10
6.647
20
-20.226
11
6.593
21
-20.306
0
LINE
8
медь верх
10
6.593
20
-20.306
11
6.201
21
-20.700
0
LINE
8
медь верх
10
6.201
20
-20.700
11
6.121
21
-20.753
0
LINE
8
медь верх
10
6.121
20
-20.753
11
6.120
21
-20.753
0
LINE
8
медь верх
10
6.120
20
-20.753
11
6.120
21
-20.753
0
LINE
8
медь верх
10
6.120
20
-20.753
11
6.059
21
-20.794
0
LINE
8
медь верх
10
6.059
20
-20.794
11
5.987
21
-20.809
0
LINE
8
медь верх
10
5.987
20
-20.809
11
5.987
21
-20.809
0
LINE
8
медь верх
10
5.987
20
-20.809
11
5.987
21
-20.809
0
LINE
8
медь верх
10
5.987
20
-20.809
11
5.893
21
-20.828
0
LINE
8
медь верх
10
5.893
20
-20.828
11
0.758
21
-20.828
0
LINE
8
медь верх
10
0.758
20
-20.828
11
0.591
21
-20.794
0
LINE
8
медь верх
10
0.591
20
-20.794
11
0.496
21
-20.731
0
LINE
8
медь верх
10
0.496
20
-20.731
11
0.496
21
-20.731
0
LINE
8
медь верх
10
0.496
20
-20.731
11
0.449
21
-20.700
0
LINE
8
медь верх
10
0.449
20
-20.700
11
-0.222
21
-20.029
0
LINE
8
медь верх
10
-0.222
20
-20.029
11
-0.274
21
-19.950
0
LINE
8
медь верх
10
-0.274
20
-19.950
11
-0.274
21
-19.950
0
LINE
8
медь верх
10
-0.274
20
-19.950
11
-0.274
21
-19.950
0
LINE
8
медь верх
10
-0.274
20
-19.950
11
-0.316
21
-19.887
0
LINE
8
медь верх
10
-0.316
20
-19.887
11
-0.331
21
-19.814
0
LINE
8
медь верх
10
-0.331
20
-19.814
11
-0.331
21
-19.814
0
LINE
8
медь верх
10
-0.331
20
-19.814
11
-0.331
21
-19.814
0
LINE
8
медь верх
10
-0.331
20
-19.814
11
-0.349
21
-19.720
0
LINE
8
медь верх
10
-0.349
20
-19.720
11
-0.349
21
-14.390
0
LINE
8
медь верх
10
-0.349
20
-14.390
11
-0.349
21
-14.390
0
LINE
8
медь верх
10
-0.349
20
-14.390
11
-0.349
21
-14.390
0
LINE
8
медь верх
10
-0.349
20
-14.390
11
-0.357
21
-14.347
0
LINE
8
медь верх
10
-0.357
20
-14.347
11
-0.366
21
-14.302
0
LINE
8
медь верх
10
-0.366
20
-14.302
11
-0.366
21
-14.302
0
LINE
8
медь верх
10
-0.366
20
-14.302
11
-0.366
21
-14.302
0
LINE
8
медь верх
10
-0.366
20
-14.302
11
-0.390
21
-14.266
0
LINE
8
медь верх
10
-0.390
20
-14.266
11
-0.416
21
-14.227
0
LINE
8
медь верх
10
-0.416
20
-14.227
11
-0.416
21
-14.227
0
LINE
8
медь верх
10
-0.416
20
-14.227
11
-0.416
21
-14.227
0
LINE
8
медь верх
10
-0.416
20
-14.227
11
-0.452
21
-14.203
0
LINE
8
медь верх
10
-0.452
20
-14.203
11
-0.490
21
-14.178
0
LINE
8
медь верх
10
-0.490
20
-14.178
11
-0.490
21
-14.178
0
LINE
8
медь верх
10
-0.490
20
-14.178
11
-0.490
21
-14.178
0
LINE
8
медь верх
10
-0.490
20
-14.178
11
-0.533
21
-14.169
0
LINE
8
медь верх
10
-0.533
20
-14.169
11
-0.578
21
-14.160
0
LINE
8
медь верх
10
-0.578
20
-14.160
11
-0.578
21
-14.160
0
LINE
8
медь верх
10
-0.578
20
-14.160
11
-0.578
21
-14.160
0
LINE
8
медь верх
10
-0.578
20
-14.160
11
-5.535
21
-14.160
0
LINE
8
медь верх
10
-5.535
20
-14.160
11
-5.561
21
-14.165
0
LINE
8
медь верх
10
-5.561
20
-14.165
11
-5.623
21
-14.178
0
LINE
8
медь верх
10
-5.623
20
-14.178
11
-5.623
21
-14.178
0
LINE
8
медь верх
10
-5.623
20
-14.178
11
-5.623
21
-14.178
0
LINE
8
медь верх
10
-5.623
20
-14.178
11
-5.623
21
-14.178
0
LINE
8
медь верх
10
-5.623
20
-14.178
11
-5.697
21
-14.227
0
LINE
8
медь верх
10
-5.697
20
-14.227
11
-5.697
21
-14.227
0
LINE
8
медь верх
10
-5.697
20
-14.227
11
-5.697
21
-14.227
0
LINE
8
медь верх
10
-5.697
20
-14.227
11
-5.697
21
-14.227
0
LINE
8
медь верх
10
-5.697
20
-14.227
11
-6.210
21
-14.740
0
LINE
8
медь верх
10
-6.210
20
-14.740
11
-6.234
21
-14.775
0
LINE
8
медь верх
10
-6.234
20
-14.775
11
-6.260
21
-14.815
0
LINE
8
медь верх
10
-6.260
20
-14.815
11
-6.260
21
-14.815
0
LINE
8
медь верх
10
-6.260
20
-14.815
11
-6.260
21
-14.815
0
LINE
8
медь верх
10
-6.260
20
-14.815
11
-6.268
21
-14.857
0
LINE
8
медь верх
10
-6.268
20
-14.857
11
-6.277
21
-14.902
0
LINE
8
медь верх
10
-6.277
20
-14.902
11
-6.277
21
-15.590
0
LINE
8
медь верх
10
-6.277
20
-15.590
11
-6.277
21
-15.590
0
LINE
8
медь верх
10
-6.277
20
-15.590
11
-6.277
21
-15.590
0
LINE
8
медь верх
10
-6.277
20
-15.590
11
-6.268
21
-15.639
0
LINE
8
медь верх
10
-6.268
20
-15.639
11
-6.260
21
-15.677
0
LINE
8
медь верх
10
-6.260
20
-15.677
11
-6.260
21
-15.677
0
LINE
8
медь верх
10
-6.260
20
-15.677
11
-6.260
21
-15.677
0
LINE
8
медь верх
10
-6.260
20
-15.677
11
-6.232
21
-15.719
0
LINE
8
медь верх
10
-6.232
20
-15.719
11
-6.210
21
-15.752
0
LINE
8
медь верх
10
-6.210
20
-15.752
11
-6.210
21
-15.752
0
LINE
8
медь верх
10
-6.210
20
-15.752
11
-6.210
21
-15.752
0
LINE
8
медь верх
10
-6.210
20
-15.752
11
-5.972
21
-15.990
0
LINE
8
медь верх
10
-5.972
20
-15.990
11
-5.897
21
-16.040
0
LINE
8
медь верх
10
-5.897
20
-16.040
11
-5.809
21
-16.058
0
LINE
8
медь верх
10
-5.809
20
-16.058
11
-4.318
21
-16.058
0
LINE
8
медь верх
10
-4.318
20
-16.058
11
-4.230
21
-16.040
0
LINE
8
медь верх
10
-4.230
20
-16.040
11
-4.230
21
-16.040
0
LINE
8
медь верх
10
-4.230
20
-16.040
11
-4.211
21
-16.028
0
LINE
8
медь верх
10
-4.211
20
-16.028
11
-4.156
21
-15.990
0
LINE
8
медь верх
10
-4.156
20
-15.990
11
-4.106
21
-15.916
0
LINE
8
медь верх
10
-4.106
20
-15.916
11
-4.088
21
-15.828
0
LINE
8
медь верх
10
-4.088
20
-15.828
11
-4.088
21
-15.828
0
LINE
8
медь верх
10
-4.088
20
-15.828
11
-4.093
21
-15.806
0
LINE
8
медь верх
10
-4.093
20
-15.806
11
-4.106
21
-15.740
0
LINE
8
медь верх
10
-4.106
20
-15.740
11
-4.106
21
-15.740
0
LINE
8
медь верх
10
-4.106
20
-15.740
11
-4.106
21
-15.740
0
LINE
8
медь верх
10
-4.106
20
-15.740
11
-4.118
21
-15.721
0
LINE
8
медь верх
10
-4.118
20
-15.721
11
-4.156
21
-15.666
0
LINE
8
медь верх
10
-4.156
20
-15.666
11
-4.156
21
-15.666
0
LINE
8
медь верх
10
-4.156
20
-15.666
11
-4.174
21
-15.647
0
LINE
8
медь верх
10
-4.174
20
-15.647
11
-4.174
21
-14.733
0
LINE
8
медь верх
10
-4.174
20
-14.733
11
-4.107
21
-14.666
0
LINE
8
медь верх
10
-4.107
20
-14.666
11
-1.693
21
-14.666
0
LINE
8
медь верх
10
-1.693
20
-14.666
11
-1.625
21
-14.733
0
LINE
8
медь верх
10
-1.625
20
-14.733
11
-1.625
21
-15.647
0
LINE
8
медь верх
10
-1.625
20
-15.647
11
-1.727
21
-15.749
0
LINE
8
медь верх
10
-1.727
20
-15.749
11
-1.777
21
-15.823
0
LINE
8
медь верх
10
-1.777
20
-15.823
11
-1.794
21
-15.911
0
LINE
8
медь верх
10
-1.794
20
-15.911
11
-1.777
21
-15.999
0
LINE
8
медь верх
10
-1.777
20
-15.999
11
-1.727
21
-16.073
0
LINE
8
медь верх
10
-1.727
20
-16.073
11
-1.623
21
-16.177
0
LINE
8
медь верх
10
-1.623
20
-16.177
11
-1.623
21
-16.703
0
LINE
8
медь верх
10
-1.623
20
-16.703
11
-1.848
21
-16.928
0
LINE
8
медь верх
10
-1.848
20
-16.928
11
-1.898
21
-17.002
0
LINE
8
медь верх
10
-1.898
20
-17.002
11
-1.915
21
-17.090
0
LINE
8
медь верх
10
-1.915
20
-17.090
11
-1.898
21
-17.178
0
LINE
8
медь верх
10
-1.898
20
-17.178
11
-1.848
21
-17.252
0
LINE
8
медь верх
10
-1.848
20
-17.252
11
-1.623
21
-17.477
0
LINE
8
медь верх
10
-1.623
20
-17.477
11
-1.623
21
-18.003
0
LINE
8
медь верх
10
-1.623
20
-18.003
11
-1.833
21
-18.212
0
LINE
8
медь верх
10
-1.833
20
-18.212
11
-1.862
21
-18.257
0
LINE
8
медь верх
10
-1.862
20
-18.257
11
-1.882
21
-18.287
0
LINE
8
медь верх
10
-1.882
20
-18.287
11
-1.886
21
-18.304
0
LINE
8
медь верх
10
-1.886
20
-18.304
11
-1.900
21
-18.375
0
LINE
8
медь верх
10
-1.900
20
-18.375
11
-1.882
21
-18.462
0
LINE
8
медь верх
10
-1.882
20
-18.462
11
-1.833
21
-18.537
0
LINE
8
медь верх
10
-1.833
20
-18.537
11
-1.833
21
-18.537
0
LINE
8
медь верх
10
-1.833
20
-18.537
11
-1.709
21
-18.660
0
LINE
8
медь верх
10
-1.709
20
-18.660
11
-1.782
21
-18.660
0
LINE
8
медь верх
10
-1.782
20
-18.660
11
-1.931
21
-18.512
0
LINE
8
медь верх
10
-1.931
20
-18.512
11
-3.869
21
-18.512
0
LINE
8
медь верх
10
-3.869
20
-18.512
11
-4.018
21
-18.660
0
LINE
8
медь верх
10
-4.018
20
-18.660
11
-4.091
21
-18.660
0
LINE
8
медь верх
10
-4.091
20
-18.660
11
-3.967
21
-18.537
0
LINE
8
медь верх
10
-3.967
20
-18.537
11
-3.938
21
-18.492
0
LINE
8
медь верх
10
-3.938
20
-18.492
11
-3.918
21
-18.462
0
LINE
8
медь верх
10
-3.918
20
-18.462
11
-3.900
21
-18.375
0
LINE
8
медь верх
10
-3.900
20
-18.375
11
-3.900
21
-18.375
0
LINE
8
медь верх
10
-3.900
20
-18.375
11
-3.918
21
-18.287
0
LINE
8
медь верх
10
-3.918
20
-18.287
11
-3.967
21
-18.212
0
LINE
8
медь верх
10
-3.967
20
-18.212
11
-3.967
21
-18.212
0
LINE
8
медь верх
10
-3.967
20
-18.212
11
-4.177
21
-18.003
0
LINE
8
медь верх
10
-4.177
20
-18.003
11
-4.177
21
-17.477
0
LINE
8
медь верх
10
-4.177
20
-17.477
11
-3.952
21
-17.252
0
LINE
8
медь верх
10
-3.952
20
-17.252
11
-3.921
21
-17.206
0
LINE
8
медь верх
10
-3.921
20
-17.206
11
-3.902
21
-17.178
0
LINE
8
медь верх
10
-3.902
20
-17.178
11
-3.902
21
-17.178
0
LINE
8
медь верх
10
-3.902
20
-17.178
11
-3.896
21
-17.148
0
LINE
8
медь верх
10
-3.896
20
-17.148
11
-3.885
21
-17.090
0
LINE
8
медь верх
10
-3.885
20
-17.090
11
-3.885
21
-17.090
0
LINE
8
медь верх
10
-3.885
20
-17.090
11
-3.885
21
-17.090
0
LINE
8
медь верх
10
-3.885
20
-17.090
11
-3.895
21
-17.040
0
LINE
8
медь верх
10
-3.895
20
-17.040
11
-3.902
21
-17.002
0
LINE
8
медь верх
10
-3.902
20
-17.002
11
-3.902
21
-17.002
0
LINE
8
медь верх
10
-3.902
20
-17.002
11
-3.902
21
-17.002
0
LINE
8
медь верх
10
-3.902
20
-17.002
11
-3.952
21
-16.928
0
LINE
8
медь верх
10
-3.952
20
-16.928
11
-3.952
21
-16.928
0
LINE
8
медь верх
10
-3.952
20
-16.928
11
-3.990
21
-16.890
0
LINE
8
медь верх
10
-3.990
20
-16.890
11
-3.990
21
-16.890
0
LINE
8
медь верх
10
-3.990
20
-16.890
11
-4.036
21
-16.859
0
LINE
8
медь верх
10
-4.036
20
-16.859
11
-4.064
21
-16.840
0
LINE
8
медь верх
10
-4.064
20
-16.840
11
-4.064
21
-16.840
0
LINE
8
медь верх
10
-4.064
20
-16.840
11
-4.064
21
-16.840
0
LINE
8
медь верх
10
-4.064
20
-16.840
11
-4.094
21
-16.834
0
LINE
8
медь верх
10
-4.094
20
-16.834
11
-4.152
21
-16.822
0
LINE
8
медь верх
10
-4.152
20
-16.822
11
-5.809
21
-16.822
0
LINE
8
медь верх
10
-5.809
20
-16.822
11
-5.897
21
-16.840
0
LINE
8
медь верх
10
-5.897
20
-16.840
11
-5.972
21
-16.890
0
LINE
8
медь верх
10
-5.972
20
-16.890
11
-5.972
21
-16.890
0
LINE
8
медь верх
10
-5.972
20
-16.890
11
-6.141
21
-17.059
0
LINE
8
медь верх
10
-6.141
20
-17.059
11
-6.191
21
-17.134
0
LINE
8
медь верх
10
-6.191
20
-17.134
11
-6.208
21
-17.221
0
LINE
8
медь верх
10
-6.208
20
-17.221
11
-6.191
21
-17.309
0
LINE
8
медь верх
10
-6.191
20
-17.309
11
-6.141
21
-17.384
0
LINE
8
медь верх
10
-6.141
20
-17.384
11
-5.990
21
-17.535
0
LINE
8
медь верх
10
-5.990
20
-17.535
11
-5.990
21
-17.660
0
LINE
8
медь верх
10
-5.990
20
-17.660
11
-6.033
21
-17.660
0
LINE
8
медь верх
10
-6.033
20
-17.660
11
-6.033
21
-17.571
0
LINE
8
медь верх
10
-6.033
20
-17.571
11
-6.192
21
-17.413
0
LINE
8
медь верх
10
-6.192
20
-17.413
11
-7.129
21
-17.413
0
LINE
8
медь верх
10
-7.129
20
-17.413
11
-7.287
21
-17.571
0
LINE
8
медь верх
10
-7.287
20
-17.571
11
-7.287
21
-17.660
0
LINE
8
медь верх
10
-7.287
20
-17.660
11
-7.331
21
-17.660
0
LINE
8
медь верх
10
-7.331
20
-17.660
11
-7.331
21
-17.535
0
LINE
8
медь верх
10
-7.331
20
-17.535
11
-7.179
21
-17.383
0
LINE
8
медь верх
10
-7.179
20
-17.383
11
-7.179
21
-17.383
0
LINE
8
медь верх
10
-7.179
20
-17.383
11
-7.163
21
-17.359
0
LINE
8
медь верх
10
-7.163
20
-17.359
11
-7.129
21
-17.309
0
LINE
8
медь верх
10
-7.129
20
-17.309
11
-7.112
21
-17.221
0
LINE
8
медь верх
10
-7.112
20
-17.221
11
-7.112
21
-17.221
0
LINE
8
медь верх
10
-7.112
20
-17.221
11
-7.129
21
-17.133
0
LINE
8
медь верх
10
-7.129
20
-17.133
11
-7.163
21
-17.084
0
LINE
8
медь верх
10
-7.163
20
-17.084
11
-7.179
21
-17.059
0
LINE
8
медь верх
10
-7.179
20
-17.059
11
-7.179
21
-17.059
0
LINE
8
медь верх
10
-7.179
20
-17.059
11
-7.179
21
-17.059
0
LINE
8
медь верх
10
-7.179
20
-17.059
11
-7.348
21
-16.890
0
LINE
8
медь верх
10
-7.348
20
-16.890
11
-7.348
21
-16.890
0
LINE
8
медь верх
10
-7.348
20
-16.890
11
-7.423
21
-16.840
0
LINE
8
медь верх
10
-7.423
20
-16.840
11
-7.510
21
-16.822
0
LINE
8
медь верх
10
-7.510
20
-16.822
11
-9.231
21
-16.823
0
LINE
8
медь верх
10
-9.231
20
-16.823
11
-9.319
21
-16.840
0
LINE
8
медь верх
10
-9.319
20
-16.840
11
-9.393
21
-16.890
0
LINE
8
медь верх
10
-9.393
20
-16.890
11
-9.393
21
-16.890
0
LINE
8
медь верх
10
-9.393
20
-16.890
11
-9.950
21
-17.447
0
LINE
8
медь верх
10
-9.950
20
-17.447
11
-9.950
21
-17.447
0
LINE
8
медь верх
10
-9.950
20
-17.447
11
-9.980
21
-17.491
0
LINE
8
медь верх
10
-9.980
20
-17.491
11
-10.000
21
-17.521
0
LINE
8
медь верх
10
-10.000
20
-17.521
11
-10.004
21
-17.539
0
LINE
8
медь верх
10
-10.004
20
-17.539
11
-10.017
21
-17.609
0
LINE
8
медь верх
10
-10.017
20
-17.609
11
-10.017
21
-17.990
0
LINE
8
медь верх
10
-10.017
20
-17.990
11
-10.000
21
-18.078
0
LINE
8
медь верх
10
-10.000
20
-18.078
11
-9.950
21
-18.152
0
LINE
8
медь верх
10
-9.950
20
-18.152
11
-9.876
21
-18.202
0
LINE
8
медь верх
10
-9.876
20
-18.202
11
-9.861
21
-18.205
0
LINE
8
медь верх
10
-9.861
20
-18.205
11
-9.220
21
-18.847
0
LINE
8
медь верх
10
-9.220
20
-18.847
11
-9.220
21
-19.953
0
LINE
8
медь верх
10
-9.220
20
-19.953
11
-9.776
21
-20.510
0
LINE
8
медь верх
10
-9.776
20
-20.510
11
-9.806
21
-20.554
0
LINE
8
медь верх
10
-9.806
20
-20.554
11
-9.826
21
-20.584
0
LINE
8
медь верх
10
-9.826
20
-20.584
11
-9.829
21
-20.602
0
LINE
8
медь верх
10
-9.829
20
-20.602
11
-9.843
21
-20.672
0
LINE
8
медь верх
10
-9.843
20
-20.672
11
-9.826
21
-20.760
0
LINE
8
медь верх
10
-9.826
20
-20.760
11
-9.776
21
-20.834
0
LINE
8
медь верх
10
-9.776
20
-20.834
11
-9.776
21
-20.834
0
LINE
8
медь верх
10
-9.776
20
-20.834
11
-9.229
21
-21.381
0
LINE
8
медь верх
10
-9.229
20
-21.381
11
-9.229
21
-21.569
0
LINE
8
медь верх
10
-9.229
20
-21.569
11
-9.268
21
-21.569
0
LINE
8
медь верх
10
-9.268
20
-21.569
11
-9.268
21
-21.390
0
LINE
8
медь верх
10
-9.268
20
-21.390
11
-9.890
21
-20.768
0
LINE
8
медь верх
10
-9.890
20
-20.768
11
-10.910
21
-20.768
0
LINE
8
медь верх
10
-10.910
20
-20.768
11
-11.532
21
-21.390
0
LINE
8
медь верх
10
-11.532
20
-21.390
11
-11.532
21
-21.570
0
LINE
8
медь верх
10
-11.532
20
-21.570
11
-11.570
21
-21.570
0
LINE
8
медь верх
10
-11.570
20
-21.570
11
-11.570
21
-21.381
0
LINE
8
медь верх
10
-11.570
20
-21.381
11
-11.024
21
-20.834
0
LINE
8
медь верх
10
-11.024
20
-20.834
11
-10.974
21
-20.760
0
LINE
8
медь верх
10
-10.974
20
-20.760
11
-10.957
21
-20.672
0
LINE
8
медь верх
10
-10.957
20
-20.672
11
-10.974
21
-20.584
0
LINE
8
медь верх
10
-10.974
20
-20.584
11
-11.024
21
-20.510
0
LINE
8
медь верх
10
-11.024
20
-20.510
11
-11.580
21
-19.953
0
LINE
8
медь верх
10
-11.580
20
-19.953
11
-11.580
21
-18.847
0
LINE
8
медь верх
10
-11.580
20
-18.847
11
-10.939
21
-18.205
0
LINE
8
медь верх
10
-10.939
20
-18.205
11
-10.924
21
-18.202
0
LINE
8
медь верх
10
-10.924
20
-18.202
11
-10.850
21
-18.152
0
LINE
8
медь верх
10
-10.850
20
-18.152
11
-10.800
21
-18.078
0
LINE
8
медь верх
10
-10.800
20
-18.078
11
-10.782
21
-17.990
0
LINE
8
медь верх
10
-10.782
20
-17.990
11
-10.782
21
-17.378
0
LINE
8
медь верх
10
-10.782
20
-17.378
11
-10.749
21
-17.211
0
LINE
8
медь верх
10
-10.749
20
-17.211
11
-10.654
21
-17.069
0
LINE
8
медь верх
10
-10.654
20
-17.069
11
-9.771
21
-16.186
0
LINE
8
медь верх
10
-9.771
20
-16.186
11
-9.657
21
-16.110
0
LINE
8
медь верх
10
-9.657
20
-16.110
11
-9.657
21
-16.110
0
LINE
8
медь верх
10
-9.657
20
-16.110
11
-9.629
21
-16.091
0
LINE
8
медь верх
10
-9.629
20
-16.091
11
-9.462
21
-16.058
0
LINE
8
медь верх
10
-9.462
20
-16.058
11
-7.511
21
-16.057
0
LINE
8
медь верх
10
-7.511
20
-16.057
11
-7.510
21
-16.058
0
LINE
8
медь верх
10
-7.510
20
-16.058
11
-7.437
21
-16.043
0
LINE
8
медь верх
10
-7.437
20
-16.043
11
-7.423
21
-16.040
0
LINE
8
медь верх
10
-7.423
20
-16.040
11
-7.393
21
-16.020
0
LINE
8
медь верх
10
-7.393
20
-16.020
11
-7.348
21
-15.990
0
LINE
8
медь верх
10
-7.348
20
-15.990
11
-7.110
21
-15.752
0
LINE
8
медь верх
10
-7.110
20
-15.752
11
-7.082
21
-15.710
0
LINE
8
медь верх
10
-7.082
20
-15.710
11
-7.060
21
-15.677
0
LINE
8
медь верх
10
-7.060
20
-15.677
11
-7.060
21
-15.677
0
LINE
8
медь верх
10
-7.060
20
-15.677
11
-7.060
21
-15.677
0
LINE
8
медь верх
10
-7.060
20
-15.677
11
-7.051
21
-15.633
0
LINE
8
медь верх
10
-7.051
20
-15.633
11
-7.042
21
-15.589
0
LINE
8
медь верх
10
-7.042
20
-15.589
11
-7.042
21
-14.671
0
LINE
8
медь верх
10
-7.042
20
-14.671
11
-7.024
21
-14.579
0
LINE
8
медь верх
10
-7.024
20
-14.579
11
-7.024
21
-14.579
0
LINE
8
медь верх
10
-7.024
20
-14.579
11
-7.024
21
-14.579
0
LINE
8
медь верх
10
-7.024
20
-14.579
11
-7.009
21
-14.504
0
LINE
8
медь верх
10
-7.009
20
-14.504
11
-6.969
21
-14.444
0
LINE
8
медь верх
10
-6.969
20
-14.444
11
-6.969
21
-14.444
0
LINE
8
медь верх
10
-6.969
20
-14.444
11
-6.969
21
-14.444
0
LINE
8
медь верх
10
-6.969
20
-14.444
11
-6.914
21
-14.362
0
LINE
8
медь верх
10
-6.914
20
-14.362
11
-6.075
21
-13.523
0
LINE
8
медь верх
10
-6.075
20
-13.523
11
-5.988
21
-13.465
0
LINE
8
медь верх
10
-5.988
20
-13.465
11
-5.988
21
-13.465
0
LINE
8
медь верх
10
-5.988
20
-13.465
11
-5.988
21
-13.465
0
LINE
8
медь верх
10
-5.988
20
-13.465
11
-5.933
21
-13.428
0
LINE
8
медь верх
10
-5.933
20
-13.428
11
-5.849
21
-13.412
0
LINE
8
медь верх
10
-5.849
20
-13.412
11
-5.849
21
-13.412
0
LINE
8
медь верх
10
-5.849
20
-13.412
11
-5.766
21
-13.395
0
LINE
8
медь верх
10
-5.766
20
-13.395
11
0.034
21
-13.395
0
LINE
8
медь верх
10
0.034
20
-13.395
11
0.034
21
-13.395
0
LINE
8
медь верх
10
6.809
20
-17.213
11
5.871
21
-17.213
0
LINE
8
медь верх
10
5.871
20
-17.213
11
5.713
21
-17.371
0
LINE
8
медь верх
10
5.713
20
-17.371
11
5.713
21
-17.408
0
LINE
8
медь верх
10
5.713
20
-17.408
11
4.016
21
-17.408
0
LINE
8
медь верх
10
4.016
20
-17.408
11
3.869
21
-17.262
0
LINE
8
медь верх
10
3.869
20
-17.262
11
1.931
21
-17.262
0
LINE
8
медь верх
10
1.931
20
-17.262
11
1.672
21
-17.521
0
LINE
8
медь верх
10
1.672
20
-17.521
11
1.672
21
-17.959
0
LINE
8
медь верх
10
1.672
20
-17.959
11
1.931
21
-18.218
0
LINE
8
медь верх
10
1.931
20
-18.218
11
3.869
21
-18.218
0
LINE
8
медь верх
10
3.869
20
-18.218
11
4.016
21
-18.071
0
LINE
8
медь верх
10
4.016
20
-18.071
11
5.713
21
-18.071
0
LINE
8
медь верх
10
5.713
20
-18.071
11
5.713
21
-18.109
0
LINE
8
медь верх
10
5.713
20
-18.109
11
5.871
21
-18.267
0
LINE
8
медь верх
10
5.871
20
-18.267
11
6.809
21
-18.267
0
LINE
8
медь верх
10
6.809
20
-18.267
11
6.967
21
-18.109
0
LINE
8
медь верх
10
6.967
20
-18.109
11
6.967
21
-18.071
0
LINE
8
медь верх
10
6.967
20
-18.071
11
7.231
21
-18.072
0
LINE
8
медь верх
10
7.231
20
-18.072
11
7.699
21
-18.540
0
LINE
8
медь верх
10
7.699
20
-18.540
11
7.699
21
-19.430
0
LINE
8
медь верх
10
7.699
20
-19.430
11
7.699
21
-19.430
0
LINE
8
медь верх
10
7.699
20
-19.430
11
7.724
21
-19.557
0
LINE
8
медь верх
10
7.724
20
-19.557
11
7.796
21
-19.665
0
LINE
8
медь верх
10
7.796
20
-19.665
11
7.796
21
-19.665
0
LINE
8
медь верх
10
7.796
20
-19.665
11
9.445
21
-21.314
0
LINE
8
медь верх
10
9.445
20
-21.314
11
9.368
21
-21.390
0
LINE
8
медь верх
10
9.368
20
-21.390
11
9.368
21
-22.410
0
LINE
8
медь верх
10
9.368
20
-22.410
11
9.990
21
-23.032
0
LINE
8
медь верх
10
9.990
20
-23.032
11
11.010
21
-23.032
0
LINE
8
медь верх
10
11.010
20
-23.032
11
11.632
21
-22.410
0
LINE
8
медь верх
10
11.632
20
-22.410
11
11.632
21
-21.390
0
LINE
8
медь верх
10
11.632
20
-21.390
11
11.010
21
-20.768
0
LINE
8
медь верх
10
11.010
20
-20.768
11
9.990
21
-20.768
0
LINE
8
медь верх
10
9.990
20
-20.768
11
9.914
21
-20.845
0
LINE
8
медь верх
10
9.914
20
-20.845
11
8.362
21
-19.293
0
LINE
8
медь верх
10
8.362
20
-19.293
11
8.362
21
-18.402
0
LINE
8
медь верх
10
8.362
20
-18.402
11
8.362
21
-18.402
0
LINE
8
медь верх
10
8.362
20
-18.402
11
8.362
21
-18.402
0
LINE
8
медь верх
10
8.362
20
-18.402
11
8.354
21
-18.360
0
LINE
8
медь верх
10
8.354
20
-18.360
11
8.337
21
-18.275
0
LINE
8
медь верх
10
8.337
20
-18.275
11
8.265
21
-18.168
0
LINE
8
медь верх
10
8.265
20
-18.168
11
8.265
21
-18.168
0
LINE
8
медь верх
10
8.265
20
-18.168
11
7.603
21
-17.506
0
LINE
8
медь верх
10
7.603
20
-17.506
11
7.560
21
-17.477
0
LINE
8
медь верх
10
7.560
20
-17.477
11
7.495
21
-17.434
0
LINE
8
медь верх
10
7.495
20
-17.434
11
7.495
21
-17.434
0
LINE
8
медь верх
10
7.495
20
-17.434
11
7.444
21
-17.424
0
LINE
8
медь верх
10
7.444
20
-17.424
11
7.368
21
-17.409
0
LINE
8
медь верх
10
7.368
20
-17.409
11
6.967
21
-17.408
0
LINE
8
медь верх
10
6.967
20
-17.408
11
6.967
21
-17.371
0
LINE
8
медь верх
10
6.967
20
-17.371
11
6.809
21
-17.213
0
LINE
8
медь верх
10
6.967
20
-16.071
11
6.967
21
-16.108
0
LINE
8
медь верх
10
6.967
20
-16.108
11
7.540
21
-16.108
0
LINE
8
медь верх
10
7.540
20
-16.108
11
7.667
21
-16.134
0
LINE
8
медь верх
10
7.667
20
-16.134
11
7.774
21
-16.206
0
LINE
8
медь верх
10
7.774
20
-16.206
11
7.774
21
-16.206
0
LINE
8
медь верх
10
7.774
20
-16.206
11
9.914
21
-18.345
0
LINE
8
медь верх
10
9.914
20
-18.345
11
9.990
21
-18.268
0
LINE
8
медь верх
10
9.990
20
-18.268
11
11.010
21
-18.268
0
LINE
8
медь верх
10
11.010
20
-18.268
11
11.632
21
-18.890
0
LINE
8
медь верх
10
11.632
20
-18.890
11
11.632
21
-19.910
0
LINE
8
медь верх
10
11.632
20
-19.910
11
11.010
21
-20.532
0
LINE
8
медь верх
10
11.010
20
-20.532
11
9.990
21
-20.532
0
LINE
8
медь верх
10
9.990
20
-20.532
11
9.368
21
-19.910
0
LINE
8
медь верх
10
9.368
20
-19.910
11
9.368
21
-18.890
0
LINE
8
медь верх
10
9.368
20
-18.890
11
9.445
21
-18.814
0
LINE
8
медь верх
10
9.445
20
-18.814
11
7.403
21
-16.771
0
LINE
8
медь верх
10
7.403
20
-16.771
11
6.967
21
-16.771
0
LINE
8
медь верх
10
6.967
20
-16.771
11
6.967
21
-16.809
0
LINE
8
медь верх
10
6.967
20
-16.809
11
6.808
21
-16.967
0
LINE
8
медь верх
10
6.808
20
-16.967
11
5.871
21
-16.967
0
LINE
8
медь верх
10
5.871
20
-16.967
11
5.712
21
-16.809
0
LINE
8
медь верх
10
5.712
20
-16.809
11
5.712
21
-16.772
0
LINE
8
медь верх
10
5.712
20
-16.772
11
4.016
21
-16.772
0
LINE
8
медь верх
10
4.016
20
-16.772
11
3.869
21
-16.918
0
LINE
8
медь верх
10
3.869
20
-16.918
11
1.931
21
-16.918
0
LINE
8
медь верх
10
1.931
20
-16.918
11
1.672
21
-16.659
0
LINE
8
медь верх
10
1.672
20
-16.659
11
1.672
21
-16.221
0
LINE
8
медь верх
10
1.672
20
-16.221
11
1.931
21
-15.962
0
LINE
8
медь верх
10
1.931
20
-15.962
11
3.869
21
-15.962
0
LINE
8
медь верх
10
3.869
20
-15.962
11
4.016
21
-16.109
0
LINE
8
медь верх
10
4.016
20
-16.109
11
5.712
21
-16.109
0
LINE
8
медь верх
10
5.712
20
-16.109
11
5.712
21
-16.071
0
LINE
8
медь верх
10
5.712
20
-16.071
11
5.871
21
-15.913
0
LINE
8
медь верх
10
5.871
20
-15.913
11
6.808
21
-15.913
0
LINE
8
медь верх
10
6.808
20
-15.913
11
6.967
21
-16.071
0
LINE
8
медь верх
10
0.034
20
-13.446
11
5.907
21
-13.446
0
LINE
8
медь верх
10
5.907
20
-13.446
11
5.957
21
-13.456
0
LINE
8
медь верх
10
5.957
20
-13.456
11
6.034
21
-13.471
0
LINE
8
медь верх
10
6.034
20
-13.471
11
6.034
21
-13.471
0
LINE
8
медь верх
10
6.034
20
-13.471
11
6.034
21
-13.471
0
LINE
8
медь верх
10
6.034
20
-13.471
11
6.070
21
-13.495
0
LINE
8
медь верх
10
6.070
20
-13.495
11
6.141
21
-13.543
0
LINE
8
медь верх
10
6.141
20
-13.543
11
6.573
21
-13.975
0
LINE
8
медь верх
10
6.573
20
-13.975
11
6.609
21
-14.029
0
LINE
8
медь верх
10
6.609
20
-14.029
11
6.645
21
-14.082
0
LINE
8
медь верх
10
6.645
20
-14.082
11
6.645
21
-14.082
0
LINE
8
медь верх
10
6.645
20
-14.082
11
6.645
21
-14.083
0
LINE
8
медь верх
10
6.645
20
-14.083
11
6.657
21
-14.146
0
LINE
8
медь верх
10
6.657
20
-14.146
11
6.670
21
-14.209
0
LINE
8
медь верх
10
6.670
20
-14.209
11
6.670
21
-14.263
0
LINE
8
медь верх
10
6.670
20
-14.263
11
6.808
21
-14.263
0
LINE
8
медь верх
10
6.808
20
-14.263
11
6.967
21
-14.421
0
LINE
8
медь верх
10
6.967
20
-14.421
11
6.967
21
-15.159
0
LINE
8
медь верх
10
6.967
20
-15.159
11
6.808
21
-15.317
0
LINE
8
медь верх
10
6.808
20
-15.317
11
5.871
21
-15.317
0
LINE
8
медь верх
10
5.871
20
-15.317
11
5.713
21
-15.159
0
LINE
8
медь верх
10
5.713
20
-15.159
11
5.713
21
-14.421
0
LINE
8
медь верх
10
5.713
20
-14.421
11
5.871
21
-14.263
0
LINE
8
медь верх
10
5.871
20
-14.263
11
5.923
21
-14.263
0
LINE
8
медь верх
10
5.923
20
-14.263
11
5.769
21
-14.109
0
LINE
8
медь верх
10
5.769
20
-14.109
11
0.365
21
-14.109
0
LINE
8
медь верх
10
0.365
20
-14.109
11
0.365
21
-19.606
0
LINE
8
медь верх
10
0.365
20
-19.606
11
0.873
21
-20.114
0
LINE
8
медь верх
10
0.873
20
-20.114
11
5.777
21
-20.114
0
LINE
8
медь верх
10
5.777
20
-20.114
11
5.973
21
-19.917
0
LINE
8
медь верх
10
5.973
20
-19.917
11
5.871
21
-19.917
0
LINE
8
медь верх
10
5.871
20
-19.917
11
5.713
21
-19.759
0
LINE
8
медь верх
10
5.713
20
-19.759
11
5.713
21
-19.021
0
LINE
8
медь верх
10
5.713
20
-19.021
11
5.871
21
-18.863
0
LINE
8
медь верх
10
5.871
20
-18.863
11
6.808
21
-18.863
0
LINE
8
медь верх
10
6.808
20
-18.863
11
6.967
21
-19.021
0
LINE
8
медь верх
10
6.967
20
-19.021
11
6.967
21
-19.759
0
LINE
8
медь верх
10
6.967
20
-19.759
11
6.808
21
-19.917
0
LINE
8
медь верх
10
6.808
20
-19.917
11
6.670
21
-19.917
0
LINE
8
медь верх
10
6.670
20
-19.917
11
6.670
21
-20.020
0
LINE
8
медь верх
10
6.670
20
-20.020
11
6.657
21
-20.083
0
LINE
8
медь верх
10
6.657
20
-20.083
11
6.645
21
-20.146
0
LINE
8
медь верх
10
6.645
20
-20.146
11
6.645
21
-20.147
0
LINE
8
медь верх
10
6.645
20
-20.147
11
6.645
21
-20.147
0
LINE
8
медь верх
10
6.645
20
-20.147
11
6.609
21
-20.200
0
LINE
8
медь верх
10
6.609
20
-20.200
11
6.573
21
-20.254
0
LINE
8
медь верх
10
6.573
20
-20.254
11
6.149
21
-20.679
0
LINE
8
медь верх
10
6.149
20
-20.679
11
6.149
21
-20.679
0
LINE
8
медь верх
10
6.149
20
-20.679
11
6.149
21
-20.680
0
LINE
8
медь верх
10
6.149
20
-20.680
11
6.095
21
-20.715
0
LINE
8
медь верх
10
6.095
20
-20.715
11
6.042
21
-20.751
0
LINE
8
медь верх
10
6.042
20
-20.751
11
6.041
21
-20.751
0
LINE
8
медь верх
10
6.041
20
-20.751
11
6.041
21
-20.751
0
LINE
8
медь верх
10
6.041
20
-20.751
11
5.978
21
-20.764
0
LINE
8
медь верх
10
5.978
20
-20.764
11
5.915
21
-20.777
0
LINE
8
медь верх
10
5.915
20
-20.777
11
5.915
21
-20.777
0
LINE
8
медь верх
10
5.915
20
-20.777
11
5.914
21
-20.777
0
LINE
8
медь верх
10
5.914
20
-20.777
11
0.735
21
-20.777
0
LINE
8
медь верх
10
0.735
20
-20.777
11
0.608
21
-20.751
0
LINE
8
медь верх
10
0.608
20
-20.751
11
0.565
21
-20.723
0
LINE
8
медь верх
10
0.565
20
-20.723
11
0.501
21
-20.680
0
LINE
8
медь верх
10
0.501
20
-20.680
11
-0.201
21
-19.977
0
LINE
8
медь верх
10
-0.201
20
-19.977
11
-0.201
21
-19.977
0
LINE
8
медь верх
10
-0.201
20
-19.977
11
-0.201
21
-19.977
0
LINE
8
медь верх
10
-0.201
20
-19.977
11
-0.238
21
-19.923
0
LINE
8
медь верх
10
-0.238
20
-19.923
11
-0.273
21
-19.870
0
LINE
8
медь верх
10
-0.273
20
-19.870
11
-0.273
21
-19.870
0
LINE
8
медь верх
10
-0.273
20
-19.870
11
-0.273
21
-19.870
0
LINE
8
медь верх
10
-0.273
20
-19.870
11
-0.286
21
-19.805
0
LINE
8
медь верх
10
-0.286
20
-19.805
11
-0.298
21
-19.743
0
LINE
8
медь верх
10
-0.298
20
-19.743
11
-0.298
21
-19.743
0
LINE
8
медь верх
10
-0.298
20
-19.743
11
-0.298
21
-19.743
0
LINE
8
медь верх
10
-0.298
20
-19.743
11
-0.298
21
-14.109
0
LINE
8
медь верх
10
-0.298
20
-14.109
11
-5.651
21
-14.109
0
LINE
8
медь верх
10
-5.651
20
-14.109
11
-6.328
21
-14.786
0
LINE
8
медь верх
10
-6.328
20
-14.786
11
-6.328
21
-15.863
0
LINE
8
медь верх
10
-6.328
20
-15.863
11
-6.191
21
-15.863
0
LINE
8
медь верх
10
-6.191
20
-15.863
11
-6.033
21
-16.021
0
LINE
8
медь верх
10
-6.033
20
-16.021
11
-6.033
21
-16.108
0
LINE
8
медь верх
10
-6.033
20
-16.108
11
-4.016
21
-16.108
0
LINE
8
медь верх
10
-4.016
20
-16.108
11
-3.869
21
-15.962
0
LINE
8
медь верх
10
-3.869
20
-15.962
11
-1.931
21
-15.962
0
LINE
8
медь верх
10
-1.931
20
-15.962
11
-1.672
21
-16.221
0
LINE
8
медь верх
10
-1.672
20
-16.221
11
-1.672
21
-16.659
0
LINE
8
медь верх
10
-1.672
20
-16.659
11
-1.931
21
-16.918
0
LINE
8
медь верх
10
-1.931
20
-16.918
11
-3.869
21
-16.918
0
LINE
8
медь верх
10
-3.869
20
-16.918
11
-4.016
21
-16.772
0
LINE
8
медь верх
10
-4.016
20
-16.772
11
-6.033
21
-16.772
0
LINE
8
медь верх
10
-6.033
20
-16.772
11
-6.033
21
-16.859
0
LINE
8
медь верх
10
-6.033
20
-16.859
11
-6.191
21
-17.017
0
LINE
8
медь верх
10
-6.191
20
-17.017
11
-7.129
21
-17.017
0
LINE
8
медь верх
10
-7.129
20
-17.017
11
-7.287
21
-16.859
0
LINE
8
медь верх
10
-7.287
20
-16.859
11
-7.287
21
-16.771
0
LINE
8
медь верх
10
-7.287
20
-16.771
11
-9.347
21
-16.772
0
LINE
8
медь верх
10
-9.347
20
-16.772
11
-10.068
21
-17.493
0
LINE
8
медь верх
10
-10.068
20
-17.493
11
-10.068
21
-18.268
0
LINE
8
медь верх
10
-10.068
20
-18.268
11
-9.890
21
-18.268
0
LINE
8
медь верх
10
-9.890
20
-18.268
11
-9.268
21
-18.890
0
LINE
8
медь верх
10
-9.268
20
-18.890
11
-9.268
21
-19.910
0
LINE
8
медь верх
10
-9.268
20
-19.910
11
-9.890
21
-20.532
0
LINE
8
медь верх
10
-9.890
20
-20.532
11
-10.910
21
-20.532
0
LINE
8
медь верх
10
-10.910
20
-20.532
11
-11.532
21
-19.910
0
LINE
8
медь верх
10
-11.532
20
-19.910
11
-11.532
21
-18.890
0
LINE
8
медь верх
10
-11.532
20
-18.890
11
-10.910
21
-18.268
0
LINE
8
медь верх
10
-10.910
20
-18.268
11
-10.731
21
-18.268
0
LINE
8
медь верх
10
-10.731
20
-18.268
11
-10.731
21
-17.356
0
LINE
8
медь верх
10
-10.731
20
-17.356
11
-10.706
21
-17.229
0
LINE
8
медь верх
10
-10.706
20
-17.229
11
-10.682
21
-17.193
0
LINE
8
медь верх
10
-10.682
20
-17.193
11
-10.634
21
-17.121
0
LINE
8
медь верх
10
-10.634
20
-17.121
11
-9.719
21
-16.206
0
LINE
8
медь верх
10
-9.719
20
-16.206
11
-9.611
21
-16.134
0
LINE
8
медь верх
10
-9.611
20
-16.134
11
-9.510
21
-16.114
0
LINE
8
медь верх
10
-9.510
20
-16.114
11
-9.484
21
-16.109
0
LINE
8
медь верх
10
-9.484
20
-16.109
11
-7.287
21
-16.108
0
LINE
8
медь верх
10
-7.287
20
-16.108
11
-7.287
21
-16.021
0
LINE
8
медь верх
10
-7.287
20
-16.021
11
-7.129
21
-15.863
0
LINE
8
медь верх
10
-7.129
20
-15.863
11
-6.991
21
-15.863
0
LINE
8
медь верх
10
-6.991
20
-15.863
11
-6.991
21
-14.649
0
LINE
8
медь верх
10
-6.991
20
-14.649
11
-6.979
21
-14.588
0
LINE
8
медь верх
10
-6.979
20
-14.588
11
-6.966
21
-14.522
0
LINE
8
медь верх
10
-6.966
20
-14.522
11
-6.966
21
-14.522
0
LINE
8
медь верх
10
-6.966
20
-14.522
11
-6.966
21
-14.522
0
LINE
8
медь верх
10
-6.966
20
-14.522
11
-6.934
21
-14.473
0
LINE
8
медь верх
10
-6.934
20
-14.473
11
-6.894
21
-14.414
0
LINE
8
медь верх
10
-6.894
20
-14.414
11
-6.023
21
-13.543
0
LINE
8
медь верх
10
-6.023
20
-13.543
11
-6.023
21
-13.543
0
LINE
8
медь верх
10
-6.023
20
-13.543
11
-6.023
21
-13.543
0
LINE
8
медь верх
10
-6.023
20
-13.543
11
-6.023
21
-13.543
0
LINE
8
медь верх
10
-6.023
20
-13.543
11
-5.991
21
-13.522
0
LINE
8
медь верх
10
-5.991
20
-13.522
11
-5.916
21
-13.471
0
LINE
8
медь верх
10
-5.916
20
-13.471
11
-5.916
21
-13.471
0
LINE
8
медь верх
10
-5.916
20
-13.471
11
-5.916
21
-13.471
0
LINE
8
медь верх
10
-5.916
20
-13.471
11
-5.915
21
-13.471
0
LINE
8
медь верх
10
-5.915
20
-13.471
11
-5.789
21
-13.446
0
LINE
8
медь верх
10
-5.789
20
-13.446
11
0.034
21
-13.446
0
LINE
8
медь верх
10
0.034
20
-13.446
11
0.034
21
-13.446
0
LINE
8
медь верх
10
0.034
20
-13.446
11
0.034
21
-13.446
0
LINE
8
медь верх
10
0.034
20
-13.446
11
0.034
21
-13.446
0
LINE
8
медь верх
10
0.034
20
-13.446
11
0.034
21
-13.446
0
LINE
8
медь верх
10
0.034
20
-13.446
11
0.034
21
-13.446
0
LINE
8
медь верх
10
-1.737
20
-15.666
11
-1.674
21
-15.603
0
LINE
8
медь верх
10
-1.674
20
-15.603
11
-1.674
21
-14.777
0
LINE
8
медь верх
10
-1.674
20
-14.777
11
-1.737
21
-14.714
0
LINE
8
медь верх
10
-1.737
20
-14.714
11
-4.063
21
-14.714
0
LINE
8
медь верх
10
-4.063
20
-14.714
11
-4.126
21
-14.777
0
LINE
8
медь верх
10
-4.126
20
-14.777
11
-4.126
21
-15.603
0
LINE
8
медь верх
10
-4.126
20
-15.603
11
-4.063
21
-15.666
0
LINE
8
медь верх
10
-4.063
20
-15.666
11
-1.737
21
-15.666
0
LINE
8
медь верх
10
-1.931
20
-18.218
11
-1.672
21
-17.959
0
LINE
8
медь верх
10
-1.672
20
-17.959
11
-1.672
21
-17.521
0
LINE
8
медь верх
10
-1.672
20
-17.521
11
-1.931
21
-17.262
0
LINE
8
медь верх
10
-1.931
20
-17.262
11
-3.869
21
-17.262
0
LINE
8
медь верх
10
-3.869
20
-17.262
11
-4.128
21
-17.521
0
LINE
8
медь верх
10
-4.128
20
-17.521
11
-4.128
21
-17.959
0
LINE
8
медь верх
10
-4.128
20
-17.959
11
-3.869
21
-18.218
0
LINE
8
медь верх
10
-3.869
20
-18.218
11
-1.931
21
-18.218
0
LINE
8
медь верх
10
3.869
20
-19.468
11
4.128
21
-19.209
0
LINE
8
медь верх
10
4.128
20
-19.209
11
4.128
21
-18.771
0
LINE
8
медь верх
10
4.128
20
-18.771
11
3.869
21
-18.512
0
LINE
8
медь верх
10
3.869
20
-18.512
11
1.931
21
-18.512
0
LINE
8
медь верх
10
1.931
20
-18.512
11
1.672
21
-18.771
0
LINE
8
медь верх
10
1.672
20
-18.771
11
1.672
21
-19.209
0
LINE
8
медь верх
10
1.672
20
-19.209
11
1.931
21
-19.468
0
LINE
8
медь верх
10
1.931
20
-19.468
11
3.869
21
-19.468
0
LINE
8
медь верх
10
3.869
20
-15.668
11
4.128
21
-15.409
0
LINE
8
медь верх
10
4.128
20
-15.409
11
4.128
21
-14.971
0
LINE
8
медь верх
10
4.128
20
-14.971
11
3.869
21
-14.712
0
LINE
8
медь верх
10
3.869
20
-14.712
11
1.931
21
-14.712
0
LINE
8
медь верх
10
1.931
20
-14.712
11
1.672
21
-14.971
0
LINE
8
медь верх
10
1.672
20
-14.971
11
1.672
21
-15.409
0
LINE
8
медь верх
10
1.672
20
-15.409
11
1.931
21
-15.668
0
LINE
8
медь верх
10
1.931
20
-15.668
11
3.869
21
-15.668
0
LINE
8
медь верх
10
11.095
20
-23.038
11
9.905
21
-23.038
0
LINE
8
медь верх
10
11.134
20
-22.998
11
11.043
21
-22.998
0
LINE
8
медь верх
10
9.957
20
-22.998
11
9.864
21
-22.998
0
LINE
8
медь верх
10
11.175
20
-22.958
11
11.082
21
-22.958
0
LINE
8
медь верх
10
9.916
20
-22.958
11
9.825
21
-22.958
0
LINE
8
медь верх
10
11.215
20
-22.917
11
11.123
21
-22.917
0
LINE
8
медь верх
10
9.876
20
-22.917
11
9.784
21
-22.917
0
LINE
8
медь верх
10
11.255
20
-22.878
11
11.163
21
-22.878
0
LINE
8
медь верх
10
9.836
20
-22.878
11
9.743
21
-22.878
0
LINE
8
медь верх
10
11.295
20
-22.837
11
11.204
21
-22.837
0
LINE
8
медь верх
10
9.796
20
-22.837
11
9.704
21
-22.837
0
LINE
8
медь верх
10
11.336
20
-22.796
11
11.243
21
-22.796
0
LINE
8
медь верх
10
9.755
20
-22.796
11
9.663
21
-22.796
0
LINE
8
медь верх
10
11.375
20
-22.756
11
11.284
21
-22.756
0
LINE
8
медь верх
10
9.715
20
-22.757
11
9.623
21
-22.757
0
LINE
8
медь верх
10
11.416
20
-22.716
11
11.325
21
-22.716
0
LINE
8
медь верх
10
9.675
20
-22.716
11
9.582
21
-22.716
0
LINE
8
медь верх
10
11.457
20
-22.676
11
11.364
21
-22.676
0
LINE
8
медь верх
10
9.634
20
-22.676
11
9.543
21
-22.676
0
LINE
8
медь верх
10
11.497
20
-22.635
11
11.405
21
-22.635
0
LINE
8
медь верх
10
9.595
20
-22.636
11
9.502
21
-22.636
0
LINE
8
медь верх
10
11.537
20
-22.596
11
11.445
21
-22.596
0
LINE
8
медь верх
10
9.554
20
-22.596
11
9.461
21
-22.596
0
LINE
8
медь верх
10
11.577
20
-22.555
11
11.485
21
-22.555
0
LINE
8
медь верх
10
9.514
20
-22.555
11
9.422
21
-22.555
0
LINE
8
медь верх
10
11.618
20
-22.515
11
11.525
21
-22.515
0
LINE
8
медь верх
10
9.473
20
-22.515
11
9.381
21
-22.515
0
LINE
8
медь верх
10
11.657
20
-22.475
11
11.566
21
-22.475
0
LINE
8
медь верх
10
9.434
20
-22.475
11
9.341
21
-22.475
0
LINE
8
медь верх
10
11.680
20
-22.435
11
11.607
21
-22.435
0
LINE
8
медь верх
10
9.393
20
-22.435
11
9.319
21
-22.435
0
LINE
8
медь верх
10
11.680
20
-22.394
11
11.632
21
-22.394
0
LINE
8
медь верх
10
9.368
20
-22.394
11
9.319
21
-22.394
0
LINE
8
медь верх
10
11.680
20
-22.353
11
11.632
21
-22.353
0
LINE
8
медь верх
10
9.368
20
-22.355
11
9.319
21
-22.355
0
LINE
8
медь верх
10
11.680
20
-22.314
11
11.632
21
-22.314
0
LINE
8
медь верх
10
9.368
20
-22.314
11
9.319
21
-22.314
0
LINE
8
медь верх
10
11.680
20
-22.273
11
11.632
21
-22.273
0
LINE
8
медь верх
10
9.368
20
-22.273
11
9.319
21
-22.273
0
LINE
8
медь верх
10
11.680
20
-22.233
11
11.632
21
-22.233
0
LINE
8
медь верх
10
9.368
20
-22.234
11
9.319
21
-22.234
0
LINE
8
медь верх
10
11.680
20
-22.193
11
11.632
21
-22.193
0
LINE
8
медь верх
10
9.368
20
-22.193
11
9.319
21
-22.193
0
LINE
8
медь верх
10
11.680
20
-22.153
11
11.632
21
-22.153
0
LINE
8
медь верх
10
9.368
20
-22.153
11
9.319
21
-22.153
0
LINE
8
медь верх
10
11.680
20
-22.112
11
11.632
21
-22.112
0
LINE
8
медь верх
10
9.368
20
-22.112
11
9.319
21
-22.112
0
LINE
8
медь верх
10
11.680
20
-22.073
11
11.632
21
-22.073
0
LINE
8
медь верх
10
9.368
20
-22.073
11
9.319
21
-22.073
0
LINE
8
медь верх
10
11.680
20
-22.032
11
11.632
21
-22.032
0
LINE
8
медь верх
10
9.368
20
-22.032
11
9.319
21
-22.032
0
LINE
8
медь верх
10
11.680
20
-21.991
11
11.632
21
-21.991
0
LINE
8
медь верх
10
9.368
20
-21.991
11
9.319
21
-21.991
0
LINE
8
медь верх
10
11.680
20
-21.952
11
11.632
21
-21.952
0
LINE
8
медь верх
10
9.368
20
-21.952
11
9.319
21
-21.952
0
LINE
8
медь верх
10
11.680
20
-21.911
11
11.632
21
-21.911
0
LINE
8
медь верх
10
9.368
20
-21.911
11
9.319
21
-21.911
0
LINE
8
медь верх
10
11.680
20
-21.871
11
11.632
21
-21.871
0
LINE
8
медь верх
10
9.368
20
-21.871
11
9.319
21
-21.871
0
LINE
8
медь верх
10
11.680
20
-21.830
11
11.632
21
-21.830
0
LINE
8
медь верх
10
9.368
20
-21.831
11
9.319
21
-21.831
0
LINE
8
медь верх
10
11.680
20
-21.791
11
11.632
21
-21.791
0
LINE
8
медь верх
10
9.368
20
-21.791
11
9.319
21
-21.791
0
LINE
8
медь верх
10
11.680
20
-21.750
11
11.632
21
-21.750
0
LINE
8
медь верх
10
9.368
20
-21.750
11
9.319
21
-21.750
0
LINE
8
медь верх
10
11.680
20
-21.709
11
11.632
21
-21.709
0
LINE
8
медь верх
10
9.368
20
-21.711
11
9.319
21
-21.711
0
LINE
8
медь верх
10
11.680
20
-21.670
11
11.632
21
-21.670
0
LINE
8
медь верх
10
9.368
20
-21.670
11
9.319
21
-21.670
0
LINE
8
медь верх
10
11.680
20
-21.629
11
11.632
21
-21.629
0
LINE
8
медь верх
10
9.368
20
-21.629
11
9.319
21
-21.629
0
LINE
8
медь верх
10
11.680
20
-21.589
11
11.632
21
-21.589
0
LINE
8
медь верх
10
9.368
20
-21.589
11
9.319
21
-21.589
0
LINE
8
медь верх
10
11.680
20
-21.549
11
11.632
21
-21.549
0
LINE
8
медь верх
10
9.368
20
-21.549
11
9.319
21
-21.549
0
LINE
8
медь верх
10
-9.229
20
-21.551
11
-9.267
21
-21.551
0
LINE
8
медь верх
10
-11.532
20
-21.551
11
-11.570
21
-21.551
0
LINE
8
медь верх
10
11.680
20
-21.509
11
11.632
21
-21.509
0
LINE
8
медь верх
10
9.368
20
-21.509
11
9.319
21
-21.509
0
LINE
8
медь верх
10
-9.229
20
-21.511
11
-9.267
21
-21.511
0
LINE
8
медь верх
10
-11.532
20
-21.511
11
-11.570
21
-21.511
0
LINE
8
медь верх
10
11.680
20
-21.468
11
11.632
21
-21.468
0
LINE
8
медь верх
10
9.368
20
-21.468
11
9.319
21
-21.468
0
LINE
8
медь верх
10
-9.229
20
-21.471
11
-9.267
21
-21.471
0
LINE
8
медь верх
10
-11.532
20
-21.471
11
-11.570
21
-21.471
0
LINE
8
медь верх
10
11.680
20
-21.427
11
11.632
21
-21.427
0
LINE
8
медь верх
10
9.368
20
-21.429
11
9.319
21
-21.429
0
LINE
8
медь верх
10
-9.229
20
-21.430
11
-9.267
21
-21.430
0
LINE
8
медь верх
10
-11.532
20
-21.430
11
-11.570
21
-21.430
0
LINE
8
медь верх
10
11.680
20
-21.388
11
11.629
21
-21.388
0
LINE
8
медь верх
10
9.369
20
-21.388
11
9.319
21
-21.388
0
LINE
8
медь верх
10
-9.229
20
-21.389
11
-9.267
21
-21.389
0
LINE
8
медь верх
10
-11.532
20
-21.391
11
-11.570
21
-21.391
0
LINE
8
медь верх
10
11.680
20
-21.347
11
11.589
21
-21.347
0
LINE
8
медь верх
10
9.409
20
-21.347
11
9.318
21
-21.347
0
LINE
8
медь верх
10
-9.260
20
-21.350
11
-9.308
21
-21.350
0
LINE
8
медь верх
10
-11.491
20
-21.350
11
-11.539
21
-21.350
0
LINE
8
медь верх
10
11.641
20
-21.307
11
11.549
21
-21.307
0
LINE
8
медь верх
10
9.439
20
-21.308
11
9.309
21
-21.308
0
LINE
8
медь верх
10
-9.300
20
-21.309
11
-9.347
21
-21.309
0
LINE
8
медь верх
10
-11.452
20
-21.309
11
-11.499
21
-21.309
0
LINE
8
медь верх
10
11.600
20
-21.267
11
11.509
21
-21.267
0
LINE
8
медь верх
10
9.398
20
-21.267
11
9.301
21
-21.267
0
LINE
8
медь верх
10
-9.340
20
-21.269
11
-9.388
21
-21.269
0
LINE
8
медь верх
10
-11.411
20
-21.270
11
-11.459
21
-21.270
0
LINE
8
медь верх
10
11.561
20
-21.227
11
11.468
21
-21.227
0
LINE
8
медь верх
10
9.359
20
-21.227
11
9.275
21
-21.227
0
LINE
8
медь верх
10
-9.380
20
-21.229
11
-9.428
21
-21.229
0
LINE
8
медь верх
10
-11.370
20
-21.229
11
-11.419
21
-21.229
0
LINE
8
медь верх
10
11.520
20
-21.186
11
11.429
21
-21.186
0
LINE
8
медь верх
10
9.318
20
-21.186
11
9.246
21
-21.186
0
LINE
8
медь верх
10
-9.421
20
-21.189
11
-9.468
21
-21.189
0
LINE
8
медь верх
10
-11.331
20
-21.189
11
-11.378
21
-21.189
0
LINE
8
медь верх
10
11.480
20
-21.147
11
11.388
21
-21.147
0
LINE
8
медь верх
10
9.277
20
-21.147
11
9.205
21
-21.147
0
LINE
8
медь верх
10
-9.460
20
-21.148
11
-9.508
21
-21.148
0
LINE
8
медь верх
10
-11.290
20
-21.148
11
-11.339
21
-21.148
0
LINE
8
медь верх
10
11.440
20
-21.106
11
11.347
21
-21.106
0
LINE
8
медь верх
10
9.238
20
-21.106
11
9.166
21
-21.106
0
LINE
8
медь верх
10
-9.501
20
-21.109
11
-9.549
21
-21.109
0
LINE
8
медь верх
10
-11.250
20
-21.109
11
-11.298
21
-21.109
0
LINE
8
медь верх
10
11.400
20
-21.065
11
11.307
21
-21.065
0
LINE
8
медь верх
10
9.197
20
-21.065
11
9.125
21
-21.065
0
LINE
8
медь верх
10
-9.542
20
-21.068
11
-9.590
21
-21.068
0
LINE
8
медь верх
10
-11.210
20
-21.068
11
-11.257
21
-21.068
0
LINE
8
медь верх
10
11.359
20
-21.026
11
11.267
21
-21.026
0
LINE
8
медь верх
10
9.157
20
-21.026
11
9.084
21
-21.026
0
LINE
8
медь верх
10
-9.581
20
-21.027
11
-9.629
21
-21.027
0
LINE
8
медь верх
10
-11.170
20
-21.027
11
-11.218
21
-21.027
0
LINE
8
медь верх
10
11.320
20
-20.985
11
11.227
21
-20.985
0
LINE
8
медь верх
10
9.116
20
-20.985
11
9.045
21
-20.985
0
LINE
8
медь верх
10
-9.622
20
-20.987
11
-9.670
21
-20.987
0
LINE
8
медь верх
10
-11.129
20
-20.988
11
-11.177
21
-20.988
0
LINE
8
медь верх
10
11.279
20
-20.945
11
11.186
21
-20.945
0
LINE
8
медь верх
10
9.077
20
-20.945
11
9.004
21
-20.945
0
LINE
8
медь верх
10
-9.662
20
-20.947
11
-9.710
21
-20.947
0
LINE
8
медь верх
10
-11.088
20
-20.947
11
-11.137
21
-20.947
0
LINE
8
медь верх
10
11.238
20
-20.904
11
11.147
21
-20.904
0
LINE
8
медь верх
10
9.036
20
-20.905
11
8.964
21
-20.905
0
LINE
8
медь верх
10
-9.703
20
-20.907
11
-9.750
21
-20.907
0
LINE
8
медь верх
10
-11.049
20
-20.907
11
-11.097
21
-20.907
0
LINE
8
медь верх
10
11.199
20
-20.865
11
11.106
21
-20.865
0
LINE
8
медь верх
10
8.995
20
-20.865
11
8.924
21
-20.865
0
LINE
8
медь верх
10
-9.742
20
-20.866
11
-9.790
21
-20.866
0
LINE
8
медь верх
10
-11.008
20
-20.867
11
-11.057
21
-20.867
0
LINE
8
медь верх
10
11.158
20
-20.824
11
11.066
21
-20.824
0
LINE
8
медь верх
10
9.933
20
-20.824
11
9.893
21
-20.824
0
LINE
8
медь верх
10
8.956
20
-20.824
11
8.884
21
-20.824
0
LINE
8
медь верх
10
5.903
20
-20.824
11
0.749
21
-20.825
0
LINE
8
медь верх
10
-9.780
20
-20.827
11
-9.831
21
-20.827
0
LINE
8
медь верх
10
-10.968
20
-20.827
11
-11.019
21
-20.827
0
LINE
8
медь верх
10
11.126
20
-20.784
11
11.026
21
-20.784
0
LINE
8
медь верх
10
9.973
20
-20.784
11
9.853
21
-20.784
0
LINE
8
медь верх
10
8.915
20
-20.785
11
8.843
21
-20.785
0
LINE
8
медь верх
10
6.072
20
-20.785
11
0.577
21
-20.785
0
LINE
8
медь верх
10
-9.807
20
-20.786
11
-9.870
21
-20.786
0
LINE
8
медь верх
10
-10.928
20
-20.786
11
-10.992
21
-20.786
0
LINE
8
медь верх
10
11.100
20
-20.744
11
9.813
21
-20.744
0
LINE
8
медь верх
10
8.875
20
-20.744
11
8.804
21
-20.744
0
LINE
8
медь верх
10
6.133
20
-20.744
11
6.050
21
-20.744
0
LINE
8
медь верх
10
0.599
20
-20.745
11
0.517
21
-20.745
0
LINE
8
медь верх
10
-9.827
20
-20.745
11
-10.972
21
-20.745
0
LINE
8
медь верх
10
11.088
20
-20.704
11
9.773
21
-20.704
0
LINE
8
медь верх
10
8.835
20
-20.704
11
8.763
21
-20.704
0
LINE
8
медь верх
10
6.193
20
-20.704
11
6.110
21
-20.704
0
LINE
8
медь верх
10
0.538
20
-20.705
11
0.457
21
-20.705
0
LINE
8
медь верх
10
-9.836
20
-20.706
11
-10.963
21
-20.706
0
LINE
8
медь верх
10
11.081
20
-20.663
11
9.732
21
-20.663
0
LINE
8
медь верх
10
8.795
20
-20.663
11
8.722
21
-20.663
0
LINE
8
медь верх
10
6.236
20
-20.664
11
6.163
21
-20.664
0
LINE
8
медь верх
10
0.485
20
-20.664
11
0.414
21
-20.664
0
LINE
8
медь верх
10
-9.841
20
-20.665
11
-10.958
21
-20.665
0
LINE
8
медь верх
10
11.083
20
-20.624
11
9.691
21
-20.624
0
LINE
8
медь верх
10
8.754
20
-20.624
11
8.682
21
-20.624
0
LINE
8
медь верх
10
6.275
20
-20.624
11
6.204
21
-20.624
0
LINE
8
медь верх
10
0.446
20
-20.624
11
0.373
21
-20.624
0
LINE
8
медь верх
10
-9.834
20
-20.625
11
-10.965
21
-20.625
0
LINE
8
медь верх
10
11.091
20
-20.583
11
9.652
21
-20.583
0
LINE
8
медь верх
10
8.715
20
-20.583
11
8.642
21
-20.583
0
LINE
8
медь верх
10
6.316
20
-20.583
11
6.243
21
-20.583
0
LINE
8
медь верх
10
0.405
20
-20.584
11
0.333
21
-20.584
0
LINE
8
медь верх
10
-9.826
20
-20.585
11
-10.973
21
-20.585
0
LINE
8
медь верх
10
11.109
20
-20.542
11
9.611
21
-20.542
0
LINE
8
медь верх
10
8.674
20
-20.542
11
8.602
21
-20.542
0
LINE
8
медь верх
10
6.355
20
-20.544
11
6.284
21
-20.544
0
LINE
8
медь верх
10
0.364
20
-20.544
11
0.293
21
-20.544
0
LINE
8
медь верх
10
-9.799
20
-20.545
11
-10.999
21
-20.545
0
LINE
8
медь верх
10
11.135
20
-20.503
11
11.038
21
-20.503
0
LINE
8
медь верх
10
9.961
20
-20.503
11
9.571
21
-20.503
0
LINE
8
медь верх
10
8.633
20
-20.503
11
8.561
21
-20.503
0
LINE
8
медь верх
10
6.396
20
-20.503
11
6.323
21
-20.503
0
LINE
8
медь верх
10
0.325
20
-20.503
11
0.253
21
-20.503
0
LINE
8
медь верх
10
-9.770
20
-20.504
11
-9.863
21
-20.504
0
LINE
8
медь верх
10
-10.936
20
-20.504
11
-11.027
21
-20.504
0
LINE
8
медь верх
10
11.171
20
-20.462
11
11.078
21
-20.462
0
LINE
8
медь верх
10
9.920
20
-20.462
11
9.531
21
-20.462
0
LINE
8
медь верх
10
8.593
20
-20.462
11
8.522
21
-20.462
0
LINE
8
медь верх
10
6.436
20
-20.462
11
6.364
21
-20.462
0
LINE
8
медь верх
10
0.284
20
-20.464
11
0.212
21
-20.464
0
LINE
8
медь верх
10
-9.731
20
-20.464
11
-9.822
21
-20.464
0
LINE
8
медь верх
10
-10.977
20
-20.465
11
-11.068
21
-20.465
0
LINE
8
медь верх
10
11.210
20
-20.422
11
11.119
21
-20.422
0
LINE
8
медь верх
10
9.881
20
-20.422
11
9.491
21
-20.422
0
LINE
8
медь верх
10
8.553
20
-20.422
11
8.481
21
-20.422
0
LINE
8
медь верх
10
6.476
20
-20.422
11
6.405
21
-20.422
0
LINE
8
медь верх
10
0.244
20
-20.423
11
0.173
21
-20.423
0
LINE
8
медь верх
10
-9.690
20
-20.424
11
-9.783
21
-20.424
0
LINE
8
медь верх
10
-11.016
20
-20.424
11
-11.109
21
-20.424
0
LINE
8
медь верх
10
11.251
20
-20.381
11
11.159
21
-20.381
0
LINE
8
медь верх
10
9.840
20
-20.382
11
9.450
21
-20.382
0
LINE
8
медь верх
10
8.513
20
-20.382
11
8.440
21
-20.382
0
LINE
8
медь верх
10
6.516
20
-20.382
11
6.444
21
-20.382
0
LINE
8
медь верх
10
0.204
20
-20.382
11
0.132
21
-20.382
0
LINE
8
медь верх
10
-9.649
20
-20.383
11
-9.742
21
-20.383
0
LINE
8
медь верх
10
-11.057
20
-20.383
11
-11.149
21
-20.383
0
LINE
8
медь верх
10
11.292
20
-20.342
11
11.199
21
-20.342
0
LINE
8
медь верх
10
9.799
20
-20.342
11
9.411
21
-20.342
0
LINE
8
медь верх
10
8.472
20
-20.342
11
8.401
21
-20.342
0
LINE
8
медь верх
10
6.557
20
-20.342
11
6.485
21
-20.342
0
LINE
8
медь верх
10
0.164
20
-20.343
11
0.091
21
-20.343
0
LINE
8
медь верх
10
-9.610
20
-20.343
11
-9.702
21
-20.343
0
LINE
8
медь верх
10
-11.097
20
-20.343
11
-11.189
21
-20.343
0
LINE
8
медь верх
10
11.331
20
-20.301
11
11.240
21
-20.301
0
LINE
8
медь верх
10
9.760
20
-20.301
11
9.370
21
-20.301
0
LINE
8
медь верх
10
8.433
20
-20.301
11
8.360
21
-20.301
0
LINE
8
медь верх
10
6.595
20
-20.301
11
6.524
21
-20.301
0
LINE
8
медь верх
10
0.123
20
-20.302
11
0.051
21
-20.302
0
LINE
8
медь верх
10
-9.569
20
-20.303
11
-9.661
21
-20.303
0
LINE
8
медь верх
10
-11.137
20
-20.303
11
-11.229
21
-20.303
0
LINE
8
медь верх
10
11.372
20
-20.260
11
11.280
21
-20.260
0
LINE
8
медь верх
10
9.719
20
-20.260
11
9.329
21
-20.260
0
LINE
8
медь верх
10
8.392
20
-20.262
11
8.320
21
-20.262
0
LINE
8
медь верх
10
6.622
20
-20.262
11
6.565
21
-20.262
0
LINE
8
медь верх
10
0.084
20
-20.262
11
0.011
21
-20.262
0
LINE
8
медь верх
10
-9.529
20
-20.263
11
-9.622
21
-20.263
0
LINE
8
медь верх
10
-11.177
20
-20.263
11
-11.270
21
-20.263
0
LINE
8
медь верх
10
11.412
20
-20.221
11
11.320
21
-20.221
0
LINE
8
медь верх
10
9.679
20
-20.221
11
9.290
21
-20.221
0
LINE
8
медь верх
10
8.352
20
-20.221
11
8.280
21
-20.221
0
LINE
8
медь верх
10
6.648
20
-20.221
11
6.594
21
-20.221
0
LINE
8
медь верх
10
0.043
20
-20.222
11
-0.028
21
-20.222
0
LINE
8
медь верх
10
-9.489
20
-20.222
11
-9.581
21
-20.222
0
LINE
8
медь верх
10
-11.218
20
-20.222
11
-11.309
21
-20.222
0
LINE
8
медь верх
10
11.453
20
-20.180
11
11.360
21
-20.180
0
LINE
8
медь верх
10
9.639
20
-20.180
11
9.249
21
-20.180
0
LINE
8
медь верх
10
8.312
20
-20.180
11
8.240
21
-20.180
0
LINE
8
медь верх
10
6.676
20
-20.180
11
6.621
21
-20.180
0
LINE
8
медь верх
10
0.003
20
-20.182
11
-0.069
21
-20.182
0
LINE
8
медь верх
10
-9.449
20
-20.183
11
-9.540
21
-20.183
0
LINE
8
медь верх
10
-11.257
20
-20.183
11
-11.350
21
-20.183
0
LINE
8
медь верх
10
11.492
20
-20.140
11
11.401
21
-20.140
0
LINE
8
медь верх
10
9.599
20
-20.140
11
9.209
21
-20.140
0
LINE
8
медь верх
10
8.272
20
-20.140
11
8.199
21
-20.140
0
LINE
8
медь верх
10
6.694
20
-20.141
11
6.646
21
-20.141
0
LINE
8
медь верх
10
-0.037
20
-20.141
11
-0.108
21
-20.141
0
LINE
8
медь верх
10
-9.408
20
-20.142
11
-9.501
21
-20.142
0
LINE
8
медь верх
10
-11.298
20
-20.142
11
-11.391
21
-20.142
0
LINE
8
медь верх
10
11.533
20
-20.100
11
11.440
21
-20.100
0
LINE
8
медь верх
10
9.558
20
-20.100
11
9.168
21
-20.100
0
LINE
8
медь верх
10
8.231
20
-20.100
11
8.158
21
-20.100
0
LINE
8
медь верх
10
6.707
20
-20.100
11
6.654
21
-20.100
0
LINE
8
медь верх
10
5.789
20
-20.100
11
0.860
21
-20.100
0
LINE
8
медь верх
10
-0.076
20
-20.100
11
-0.149
21
-20.100
0
LINE
8
медь верх
10
-9.368
20
-20.102
11
-9.460
21
-20.102
0
LINE
8
медь верх
10
-11.339
20
-20.102
11
-11.430
21
-20.102
0
LINE
8
медь верх
10
11.574
20
-20.060
11
11.481
21
-20.060
0
LINE
8
медь верх
10
9.517
20
-20.060
11
9.129
21
-20.060
0
LINE
8
медь верх
10
8.191
20
-20.060
11
8.119
21
-20.060
0
LINE
8
медь верх
10
6.731
20
-20.060
11
6.661
21
-20.060
0
LINE
8
медь верх
10
5.829
20
-20.060
11
0.819
21
-20.061
0
LINE
8
медь верх
10
-0.117
20
-20.061
11
-0.189
21
-20.061
0
LINE
8
медь верх
10
-9.328
20
-20.061
11
-9.420
21
-20.061
0
LINE
8
медь верх
10
-11.379
20
-20.062
11
-11.471
21
-20.062
0
LINE
8
медь верх
10
11.613
20
-20.019
11
11.521
21
-20.019
0
LINE
8
медь верх
10
9.478
20
-20.019
11
9.088
21
-20.019
0
LINE
8
медь верх
10
8.151
20
-20.019
11
8.078
21
-20.019
0
LINE
8
медь верх
10
6.772
20
-20.019
11
6.670
21
-20.020
0
LINE
8
медь верх
10
5.869
20
-20.020
11
0.780
21
-20.020
0
LINE
8
медь верх
10
-0.157
20
-20.020
11
-0.226
21
-20.020
0
LINE
8
медь верх
10
-9.288
20
-20.022
11
-9.380
21
-20.022
0
LINE
8
медь верх
10
-11.419
20
-20.022
11
-11.511
21
-20.022
0
LINE
8
медь верх
10
11.654
20
-19.978
11
11.562
21
-19.978
0
LINE
8
медь верх
10
9.437
20
-19.980
11
9.047
21
-19.980
0
LINE
8
медь верх
10
8.110
20
-19.980
11
8.038
21
-19.980
0
LINE
8
медь верх
10
6.838
20
-19.980
11
6.670
21
-19.980
0
LINE
8
медь верх
10
5.909
20
-19.980
11
0.739
21
-19.980
0
LINE
8
медь верх
10
-0.197
20
-19.980
11
-0.253
21
-19.980
0
LINE
8
медь верх
10
-9.247
20
-19.981
11
-9.340
21
-19.981
0
LINE
8
медь верх
10
-11.459
20
-19.981
11
-11.551
21
-19.981
0
LINE
8
медь верх
10
11.680
20
-19.939
11
11.601
21
-19.939
0
LINE
8
медь верх
10
9.397
20
-19.939
11
9.008
21
-19.939
0
LINE
8
медь верх
10
8.070
20
-19.939
11
7.998
21
-19.939
0
LINE
8
медь верх
10
6.877
20
-19.939
11
6.670
21
-19.939
0
LINE
8
медь верх
10
5.950
20
-19.939
11
0.699
21
-19.940
0
LINE
8
медь верх
10
-0.225
20
-19.940
11
-0.281
21
-19.940
0
LINE
8
медь верх
10
-9.219
20
-19.940
11
-9.299
21
-19.940
0
LINE
8
медь верх
10
-11.500
20
-19.942
11
-11.580
21
-19.942
0
LINE
8
медь верх
10
11.680
20
-19.898
11
11.632
21
-19.898
0
LINE
8
медь верх
10
9.368
20
-19.898
11
8.967
21
-19.898
0
LINE
8
медь верх
10
8.030
20
-19.898
11
7.958
21
-19.898
0
LINE
8
медь верх
10
6.918
20
-19.898
11
6.825
21
-19.898
0
LINE
8
медь верх
10
5.853
20
-19.898
11
0.659
21
-19.900
0
LINE
8
медь верх
10
-0.253
20
-19.900
11
-0.307
21
-19.900
0
LINE
8
медь верх
10
-9.219
20
-19.901
11
-9.267
21
-19.901
0
LINE
8
медь верх
10
-11.532
20
-19.901
11
-11.580
21
-19.901
0
LINE
8
медь верх
10
11.680
20
-19.858
11
11.632
21
-19.858
0
LINE
8
медь верх
10
9.368
20
-19.859
11
8.927
21
-19.859
0
LINE
8
медь верх
10
7.990
20
-19.859
11
7.917
21
-19.859
0
LINE
8
медь верх
10
6.958
20
-19.859
11
6.866
21
-19.859
0
LINE
8
медь верх
10
5.813
20
-19.859
11
0.618
21
-19.859
0
LINE
8
медь верх
10
-0.274
20
-19.859
11
-0.321
21
-19.859
0
LINE
8
медь верх
10
-9.219
20
-19.860
11
-9.267
21
-19.860
0
LINE
8
медь верх
10
-11.532
20
-19.860
11
-11.580
21
-19.860
0
LINE
8
медь верх
10
11.680
20
-19.818
11
11.632
21
-19.818
0
LINE
8
медь верх
10
9.368
20
-19.818
11
8.887
21
-19.818
0
LINE
8
медь верх
10
7.949
20
-19.818
11
7.878
21
-19.818
0
LINE
8
медь верх
10
6.998
20
-19.818
11
6.906
21
-19.818
0
LINE
8
медь верх
10
5.772
20
-19.818
11
0.578
21
-19.820
0
LINE
8
медь верх
10
-0.282
20
-19.820
11
-0.329
21
-19.820
0
LINE
8
медь верх
10
-9.219
20
-19.820
11
-9.267
21
-19.820
0
LINE
8
медь верх
10
-11.532
20
-19.820
11
-11.580
21
-19.820
0
LINE
8
медь верх
10
11.680
20
-19.778
11
11.632
21
-19.778
0
LINE
8
медь верх
10
9.368
20
-19.778
11
8.847
21
-19.778
0
LINE
8
медь верх
10
7.910
20
-19.778
11
7.837
21
-19.778
0
LINE
8
медь верх
10
7.014
20
-19.778
11
6.947
21
-19.778
0
LINE
8
медь верх
10
5.733
20
-19.778
11
0.537
21
-19.779
0
LINE
8
медь верх
10
-0.291
20
-19.779
11
-0.337
21
-19.779
0
LINE
8
медь верх
10
-9.219
20
-19.780
11
-9.267
21
-19.780
0
LINE
8
медь верх
10
-11.532
20
-19.780
11
-11.580
21
-19.780
0
LINE
8
медь верх
10
11.680
20
-19.737
11
11.632
21
-19.737
0
LINE
8
медь верх
10
9.368
20
-19.737
11
8.806
21
-19.737
0
LINE
8
медь верх
10
7.869
20
-19.738
11
7.797
21
-19.738
0
LINE
8
медь верх
10
7.014
20
-19.738
11
6.966
21
-19.738
0
LINE
8
медь верх
10
5.712
20
-19.738
11
0.498
21
-19.738
0
LINE
8
медь верх
10
-0.298
20
-19.738
11
-0.345
21
-19.738
0
LINE
8
медь верх
10
-9.219
20
-19.740
11
-9.267
21
-19.740
0
LINE
8
медь верх
10
-11.532
20
-19.740
11
-11.580
21
-19.740
0
LINE
8
медь верх
10
11.680
20
-19.698
11
11.632
21
-19.698
0
LINE
8
медь верх
10
9.368
20
-19.698
11
8.767
21
-19.698
0
LINE
8
медь верх
10
7.828
20
-19.698
11
7.762
21
-19.698
0
LINE
8
медь верх
10
7.014
20
-19.698
11
6.966
21
-19.698
0
LINE
8
медь верх
10
5.712
20
-19.698
11
0.457
21
-19.698
0
LINE
8
медь верх
10
-0.298
20
-19.698
11
-0.349
21
-19.698
0
LINE
8
медь верх
10
-9.219
20
-19.699
11
-9.267
21
-19.699
0
LINE
8
медь верх
10
-11.532
20
-19.699
11
-11.580
21
-19.699
0
LINE
8
медь верх
10
11.680
20
-19.657
11
11.632
21
-19.657
0
LINE
8
медь верх
10
9.368
20
-19.657
11
8.726
21
-19.657
0
LINE
8
медь верх
10
7.790
20
-19.657
11
7.736
21
-19.657
0
LINE
8
медь верх
10
7.014
20
-19.657
11
6.966
21
-19.657
0
LINE
8
медь верх
10
5.712
20
-19.657
11
0.417
21
-19.658
0
LINE
8
медь верх
10
-0.298
20
-19.658
11
-0.349
21
-19.658
0
LINE
8
медь верх
10
-9.219
20
-19.658
11
-9.267
21
-19.658
0
LINE
8
медь верх
10
-11.532
20
-19.660
11
-11.580
21
-19.660
0
LINE
8
медь верх
10
11.680
20
-19.616
11
11.632
21
-19.616
0
LINE
8
медь верх
10
9.368
20
-19.616
11
8.686
21
-19.616
0
LINE
8
медь верх
10
7.764
20
-19.616
11
7.709
21
-19.616
0
LINE
8
медь верх
10
7.014
20
-19.618
11
6.966
21
-19.618
0
LINE
8
медь верх
10
5.712
20
-19.618
11
0.377
21
-19.618
0
LINE
8
медь верх
10
-0.298
20
-19.618
11
-0.349
21
-19.618
0
LINE
8
медь верх
10
-9.219
20
-19.619
11
-9.267
21
-19.619
0
LINE
8
медь верх
10
-11.532
20
-19.619
11
-11.580
21
-19.619
0
LINE
8
медь верх
10
11.680
20
-19.576
11
11.632
21
-19.576
0
LINE
8
медь верх
10
9.368
20
-19.577
11
8.645
21
-19.577
0
LINE
8
медь верх
10
7.737
20
-19.577
11
7.682
21
-19.577
0
LINE
8
медь верх
10
7.014
20
-19.577
11
6.966
21
-19.577
0
LINE
8
медь верх
10
5.712
20
-19.577
11
0.364
21
-19.577
0
LINE
8
медь верх
10
-0.298
20
-19.577
11
-0.349
21
-19.577
0
LINE
8
медь верх
10
-9.219
20
-19.578
11
-9.267
21
-19.578
0
LINE
8
медь верх
10
-11.532
20
-19.578
11
-11.580
21
-19.578
0
LINE
8
медь верх
10
11.680
20
-19.536
11
11.632
21
-19.536
0
LINE
8
медь верх
10
9.368
20
-19.536
11
8.606
21
-19.536
0
LINE
8
медь верх
10
7.719
20
-19.536
11
7.673
21
-19.536
0
LINE
8
медь верх
10
7.014
20
-19.536
11
6.966
21
-19.536
0
LINE
8
медь верх
10
5.712
20
-19.536
11
0.364
21
-19.538
0
LINE
8
медь верх
10
-0.297
20
-19.538
11
-0.349
21
-19.538
0
LINE
8
медь верх
10
-9.219
20
-19.538
11
-9.267
21
-19.538
0
LINE
8
медь верх
10
-11.532
20
-19.539
11
-11.580
21
-19.539
0
LINE
8
медь верх
10
11.680
20
-19.496
11
11.632
21
-19.496
0
LINE
8
медь верх
10
9.368
20
-19.496
11
8.565
21
-19.496
0
LINE
8
медь верх
10
7.711
20
-19.496
11
7.664
21
-19.496
0
LINE
8
медь верх
10
7.014
20
-19.496
11
6.966
21
-19.496
0
LINE
8
медь верх
10
5.712
20
-19.497
11
0.364
21
-19.497
0
LINE
8
медь верх
10
-0.297
20
-19.497
11
-0.349
21
-19.497
0
LINE
8
медь верх
10
-9.219
20
-19.498
11
-9.267
21
-19.498
0
LINE
8
медь верх
10
-11.532
20
-19.498
11
-11.580
21
-19.498
0
LINE
8
медь верх
10
11.680
20
-19.455
11
11.632
21
-19.455
0
LINE
8
медь верх
10
9.368
20
-19.456
11
8.524
21
-19.456
0
LINE
8
медь верх
10
7.704
20
-19.456
11
7.657
21
-19.456
0
LINE
8
медь верх
10
7.014
20
-19.456
11
6.966
21
-19.456
0
LINE
8
медь верх
10
5.712
20
-19.456
11
3.880
21
-19.456
0
LINE
8
медь верх
10
1.919
20
-19.456
11
0.364
21
-19.456
0
LINE
8
медь верх
10
-0.297
20
-19.456
11
-0.349
21
-19.456
0
LINE
8
медь верх
10
-9.219
20
-19.458
11
-9.267
21
-19.458
0
LINE
8
медь верх
10
-11.532
20
-19.458
11
-11.580
21
-19.458
0
LINE
8
медь верх
10
11.680
20
-19.416
11
11.632
21
-19.416
0
LINE
8
медь верх
10
9.368
20
-19.416
11
8.485
21
-19.416
0
LINE
8
медь верх
10
7.699
20
-19.416
11
7.649
21
-19.416
0
LINE
8
медь верх
10
7.014
20
-19.416
11
6.966
21
-19.416
0
LINE
8
медь верх
10
5.712
20
-19.416
11
3.920
21
-19.416
0
LINE
8
медь верх
10
1.878
20
-19.416
11
0.364
21
-19.417
0
LINE
8
медь верх
10
-0.297
20
-19.417
11
-0.349
21
-19.417
0
LINE
8
медь верх
10
-9.219
20
-19.417
11
-9.267
21
-19.417
0
LINE
8
медь верх
10
-11.532
20
-19.417
11
-11.580
21
-19.417
0
LINE
8
медь верх
10
11.680
20
-19.375
11
11.632
21
-19.375
0
LINE
8
медь верх
10
9.368
20
-19.375
11
8.444
21
-19.375
0
LINE
8
медь верх
10
7.699
20
-19.375
11
7.647
21
-19.375
0
LINE
8
медь верх
10
7.014
20
-19.375
11
6.966
21
-19.375
0
LINE
8
медь верх
10
5.712
20
-19.375
11
3.961
21
-19.376
0
LINE
8
медь верх
10
1.839
20
-19.376
11
0.364
21
-19.376
0
LINE
8
медь верх
10
-0.297
20
-19.376
11
-0.349
21
-19.376
0
LINE
8
медь верх
10
-9.219
20
-19.378
11
-9.267
21
-19.378
0
LINE
8
медь верх
10
-11.532
20
-19.378
11
-11.580
21
-19.378
0
LINE
8
медь верх
10
11.680
20
-19.334
11
11.632
21
-19.334
0
LINE
8
медь верх
10
9.368
20
-19.334
11
8.404
21
-19.336
0
LINE
8
медь верх
10
7.699
20
-19.336
11
7.647
21
-19.336
0
LINE
8
медь верх
10
7.014
20
-19.336
11
6.966
21
-19.336
0
LINE
8
медь верх
10
5.712
20
-19.336
11
4.000
21
-19.336
0
LINE
8
медь верх
10
1.798
20
-19.336
11
0.364
21
-19.336
0
LINE
8
медь верх
10
-0.297
20
-19.336
11
-0.349
21
-19.336
0
LINE
8
медь верх
10
-9.219
20
-19.337
11
-9.267
21
-19.337
0
LINE
8
медь верх
10
-11.532
20
-19.337
11
-11.580
21
-19.337
0
LINE
8
медь верх
10
11.680
20
-19.295
11
11.632
21
-19.295
0
LINE
8
медь верх
10
9.368
20
-19.295
11
8.364
21
-19.295
0
LINE
8
медь верх
10
7.699
20
-19.295
11
7.647
21
-19.295
0
LINE
8
медь верх
10
7.014
20
-19.295
11
6.966
21
-19.295
0
LINE
8
медь верх
10
5.712
20
-19.295
11
4.041
21
-19.295
0
LINE
8
медь верх
10
1.758
20
-19.295
11
0.364
21
-19.295
0
LINE
8
медь верх
10
-0.297
20
-19.296
11
-0.349
21
-19.296
0
LINE
8
медь верх
10
-9.219
20
-19.296
11
-9.267
21
-19.296
0
LINE
8
медь верх
10
-11.532
20
-19.296
11
-11.580
21
-19.296
0
LINE
8
медь верх
10
11.680
20
-19.254
11
11.632
21
-19.254
0
LINE
8
медь верх
10
9.368
20
-19.254
11
8.362
21
-19.254
0
LINE
8
медь верх
10
7.699
20
-19.254
11
7.647
21
-19.254
0
LINE
8
медь верх
10
7.014
20
-19.254
11
6.966
21
-19.254
0
LINE
8
медь верх
10
5.712
20
-19.254
11
4.082
21
-19.254
0
LINE
8
медь верх
10
1.717
20
-19.256
11
0.364
21
-19.256
0
LINE
8
медь верх
10
-0.297
20
-19.256
11
-0.349
21
-19.256
0
LINE
8
медь верх
10
-9.219
20
-19.257
11
-9.267
21
-19.257
0
LINE
8
медь верх
10
-11.532
20
-19.257
11
-11.580
21
-19.257
0
LINE
8
медь верх
10
11.680
20
-19.214
11
11.632
21
-19.214
0
LINE
8
медь верх
10
9.368
20
-19.214
11
8.362
21
-19.214
0
LINE
8
медь верх
10
7.699
20
-19.215
11
7.647
21
-19.215
0
LINE
8
медь верх
10
7.014
20
-19.215
11
6.966
21
-19.215
0
LINE
8
медь верх
10
5.712
20
-19.215
11
4.121
21
-19.215
0
LINE
8
медь верх
10
1.678
20
-19.215
11
0.364
21
-19.215
0
LINE
8
медь верх
10
-0.297
20
-19.215
11
-0.349
21
-19.215
0
LINE
8
медь верх
10
-9.219
20
-19.216
11
-9.267
21
-19.216
0
LINE
8
медь верх
10
-11.532
20
-19.216
11
-11.580
21
-19.216
0
LINE
8
медь верх
10
11.680
20
-19.173
11
11.632
21
-19.173
0
LINE
8
медь верх
10
9.368
20
-19.174
11
8.362
21
-19.174
0
LINE
8
медь верх
10
7.699
20
-19.174
11
7.647
21
-19.174
0
LINE
8
медь верх
10
7.014
20
-19.174
11
6.966
21
-19.174
0
LINE
8
медь верх
10
5.712
20
-19.174
11
4.127
21
-19.174
0
LINE
8
медь верх
10
1.671
20
-19.174
11
0.364
21
-19.174
0
LINE
8
медь верх
10
-0.297
20
-19.174
11
-0.349
21
-19.174
0
LINE
8
медь верх
10
-9.219
20
-19.176
11
-9.267
21
-19.176
0
LINE
8
медь верх
10
-11.532
20
-19.176
11
-11.580
21
-19.176
0
LINE
8
медь верх
10
11.680
20
-19.134
11
11.632
21
-19.134
0
LINE
8
медь верх
10
9.368
20
-19.134
11
8.362
21
-19.134
0
LINE
8
медь верх
10
7.699
20
-19.134
11
7.647
21
-19.134
0
LINE
8
медь верх
10
7.014
20
-19.134
11
6.966
21
-19.134
0
LINE
8
медь верх
10
5.712
20
-19.134
11
4.127
21
-19.134
0
LINE
8
медь верх
10
1.671
20
-19.135
11
0.364
21
-19.135
0
LINE
8
медь верх
10
-0.297
20
-19.135
11
-0.349
21
-19.135
0
LINE
8
медь верх
10
-9.219
20
-19.135
11
-9.267
21
-19.135
0
LINE
8
медь верх
10
-11.532
20
-19.136
11
-11.580
21
-19.136
0
LINE
8
медь верх
10
11.680
20
-19.093
11
11.632
21
-19.093
0
LINE
8
медь верх
10
9.368
20
-19.093
11
8.362
21
-19.093
0
LINE
8
медь верх
10
7.699
20
-19.093
11
7.647
21
-19.093
0
LINE
8
медь верх
10
7.014
20
-19.093
11
6.966
21
-19.093
0
LINE
8
медь верх
10
5.712
20
-19.094
11
4.127
21
-19.094
0
LINE
8
медь верх
10
1.671
20
-19.094
11
0.364
21
-19.094
0
LINE
8
медь верх
10
-0.297
20
-19.094
11
-0.349
21
-19.094
0
LINE
8
медь верх
10
-9.219
20
-19.096
11
-9.267
21
-19.096
0
LINE
8
медь верх
10
-11.532
20
-19.096
11
-11.580
21
-19.096
0
LINE
8
медь верх
10
11.680
20
-19.053
11
11.632
21
-19.053
0
LINE
8
медь верх
10
9.368
20
-19.054
11
8.362
21
-19.054
0
LINE
8
медь верх
10
7.699
20
-19.054
11
7.647
21
-19.054
0
LINE
8
медь верх
10
7.014
20
-19.054
11
6.966
21
-19.054
0
LINE
8
медь верх
10
5.712
20
-19.054
11
4.127
21
-19.054
0
LINE
8
медь верх
10
1.671
20
-19.054
11
0.364
21
-19.054
0
LINE
8
медь верх
10
-0.297
20
-19.054
11
-0.349
21
-19.054
0
LINE
8
медь верх
10
-9.219
20
-19.055
11
-9.267
21
-19.055
0
LINE
8
медь верх
10
-11.532
20
-19.055
11
-11.580
21
-19.055
0
LINE
8
медь верх
10
11.680
20
-19.013
11
11.632
21
-19.013
0
LINE
8
медь верх
10
9.368
20
-19.013
11
8.362
21
-19.013
0
LINE
8
медь верх
10
7.699
20
-19.013
11
7.647
21
-19.013
0
LINE
8
медь верх
10
7.014
20
-19.013
11
6.958
21
-19.013
0
LINE
8
медь верх
10
5.719
20
-19.013
11
4.127
21
-19.013
0
LINE
8
медь верх
10
1.671
20
-19.013
11
0.364
21
-19.014
0
LINE
8
медь верх
10
-0.297
20
-19.014
11
-0.349
21
-19.014
0
LINE
8
медь верх
10
-9.219
20
-19.014
11
-9.267
21
-19.014
0
LINE
8
медь верх
10
-11.532
20
-19.016
11
-11.580
21
-19.016
0
LINE
8
медь верх
10
11.680
20
-18.973
11
11.632
21
-18.973
0
LINE
8
медь верх
10
9.368
20
-18.973
11
8.362
21
-18.973
0
LINE
8
медь верх
10
7.699
20
-18.973
11
7.647
21
-18.973
0
LINE
8
медь верх
10
7.014
20
-18.973
11
6.919
21
-18.973
0
LINE
8
медь верх
10
5.759
20
-18.973
11
4.127
21
-18.974
0
LINE
8
медь верх
10
1.671
20
-18.974
11
0.364
21
-18.974
0
LINE
8
медь верх
10
-0.297
20
-18.974
11
-0.349
21
-18.974
0
LINE
8
медь верх
10
-9.219
20
-18.975
11
-9.267
21
-18.975
0
LINE
8
медь верх
10
-11.532
20
-18.975
11
-11.580
21
-18.975
0
LINE
8
медь верх
10
11.680
20
-18.932
11
11.632
21
-18.932
0
LINE
8
медь верх
10
9.368
20
-18.932
11
8.362
21
-18.933
0
LINE
8
медь верх
10
7.699
20
-18.933
11
7.647
21
-18.933
0
LINE
8
медь верх
10
7.014
20
-18.933
11
6.878
21
-18.933
0
LINE
8
медь верх
10
5.800
20
-18.933
11
4.127
21
-18.933
0
LINE
8
медь верх
10
1.671
20
-18.933
11
0.364
21
-18.933
0
LINE
8
медь верх
10
-0.297
20
-18.933
11
-0.349
21
-18.933
0
LINE
8
медь верх
10
-9.219
20
-18.934
11
-9.267
21
-18.934
0
LINE
8
медь верх
10
-11.532
20
-18.934
11
-11.580
21
-18.934
0
LINE
8
медь верх
10
11.680
20
-18.893
11
11.632
21
-18.893
0
LINE
8
медь верх
10
9.368
20
-18.893
11
8.362
21
-18.893
0
LINE
8
медь верх
10
7.699
20
-18.893
11
7.647
21
-18.893
0
LINE
8
медь верх
10
7.014
20
-18.893
11
6.838
21
-18.893
0
LINE
8
медь верх
10
5.839
20
-18.893
11
4.127
21
-18.893
0
LINE
8
медь верх
10
1.671
20
-18.893
11
0.364
21
-18.894
0
LINE
8
медь верх
10
-0.297
20
-18.894
11
-0.349
21
-18.894
0
LINE
8
медь верх
10
-9.219
20
-18.894
11
-9.267
21
-18.894
0
LINE
8
медь верх
10
-11.532
20
-18.894
11
-11.580
21
-18.894
0
LINE
8
медь верх
10
11.680
20
-18.852
11
11.594
21
-18.852
0
LINE
8
медь верх
10
9.406
20
-18.852
11
8.362
21
-18.852
0
LINE
8
медь верх
10
7.699
20
-18.852
11
7.647
21
-18.852
0
LINE
8
медь верх
10
7.017
20
-18.852
11
4.127
21
-18.853
0
LINE
8
медь верх
10
1.671
20
-18.853
11
0.364
21
-18.853
0
LINE
8
медь верх
10
-0.297
20
-18.853
11
-0.349
21
-18.853
0
LINE
8
медь верх
10
-9.219
20
-18.854
11
-9.303
21
-18.854
0
LINE
8
медь верх
10
-11.496
20
-18.854
11
-11.580
21
-18.854
0
LINE
8
медь верх
10
11.645
20
-18.811
11
11.553
21
-18.811
0
LINE
8
медь верх
10
9.442
20
-18.811
11
8.362
21
-18.811
0
LINE
8
медь верх
10
7.699
20
-18.813
11
7.647
21
-18.813
0
LINE
8
медь верх
10
7.017
20
-18.813
11
4.127
21
-18.813
0
LINE
8
медь верх
10
1.671
20
-18.813
11
0.364
21
-18.813
0
LINE
8
медь верх
10
-0.297
20
-18.813
11
-0.349
21
-18.813
0
LINE
8
медь верх
10
-9.252
20
-18.814
11
-9.343
21
-18.814
0
LINE
8
медь верх
10
-11.455
20
-18.814
11
-11.548
21
-18.814
0
LINE
8
медь верх
10
11.605
20
-18.772
11
11.513
21
-18.772
0
LINE
8
медь верх
10
9.403
20
-18.772
11
8.362
21
-18.772
0
LINE
8
медь верх
10
7.699
20
-18.772
11
7.647
21
-18.772
0
LINE
8
медь верх
10
7.017
20
-18.772
11
4.127
21
-18.772
0
LINE
8
медь верх
10
1.671
20
-18.772
11
0.364
21
-18.772
0
LINE
8
медь верх
10
-0.297
20
-18.772
11
-0.349
21
-18.772
0
LINE
8
медь верх
10
-9.291
20
-18.773
11
-9.384
21
-18.773
0
LINE
8
медь верх
10
-11.415
20
-18.773
11
-11.507
21
-18.773
0
LINE
8
медь верх
10
11.565
20
-18.731
11
11.473
21
-18.731
0
LINE
8
медь верх
10
9.362
20
-18.731
11
8.362
21
-18.731
0
LINE
8
медь верх
10
7.699
20
-18.731
11
7.647
21
-18.731
0
LINE
8
медь верх
10
7.017
20
-18.731
11
4.089
21
-18.731
0
LINE
8
медь верх
10
1.709
20
-18.732
11
0.364
21
-18.732
0
LINE
8
медь верх
10
-0.297
20
-18.732
11
-0.349
21
-18.732
0
LINE
8
медь верх
10
-9.332
20
-18.732
11
-9.423
21
-18.732
0
LINE
8
медь верх
10
-11.375
20
-18.734
11
-11.467
21
-18.734
0
LINE
8
медь верх
10
11.524
20
-18.691
11
11.433
21
-18.691
0
LINE
8
медь верх
10
9.322
20
-18.691
11
8.362
21
-18.691
0
LINE
8
медь верх
10
7.699
20
-18.691
11
7.647
21
-18.691
0
LINE
8
медь верх
10
7.017
20
-18.692
11
4.049
21
-18.692
0
LINE
8
медь верх
10
1.749
20
-18.692
11
0.364
21
-18.692
0
LINE
8
медь верх
10
-0.297
20
-18.692
11
-0.349
21
-18.692
0
LINE
8
медь верх
10
-9.373
20
-18.693
11
-9.464
21
-18.693
0
LINE
8
медь верх
10
-11.335
20
-18.693
11
-11.426
21
-18.693
0
LINE
8
медь верх
10
11.485
20
-18.650
11
11.392
21
-18.650
0
LINE
8
медь верх
10
9.282
20
-18.651
11
8.362
21
-18.651
0
LINE
8
медь верх
10
7.699
20
-18.651
11
7.647
21
-18.651
0
LINE
8
медь верх
10
7.017
20
-18.651
11
4.009
21
-18.651
0
LINE
8
медь верх
10
1.789
20
-18.651
11
0.364
21
-18.651
0
LINE
8
медь верх
10
-0.297
20
-18.651
11
-0.349
21
-18.651
0
LINE
8
медь верх
10
-1.717
20
-18.651
11
-1.789
21
-18.652
0
LINE
8
медь верх
10
-4.009
20
-18.652
11
-4.083
21
-18.652
0
LINE
8
медь верх
10
-9.412
20
-18.652
11
-9.505
21
-18.652
0
LINE
8
медь верх
10
-11.294
20
-18.652
11
-11.387
21
-18.652
0
LINE
8
медь верх
10
11.444
20
-18.611
11
11.353
21
-18.611
0
LINE
8
медь верх
10
9.242
20
-18.611
11
8.362
21
-18.611
0
LINE
8
медь верх
10
7.699
20
-18.611
11
7.638
21
-18.611
0
LINE
8
медь верх
10
7.017
20
-18.611
11
3.969
21
-18.611
0
LINE
8
медь верх
10
1.830
20
-18.612
11
0.364
21
-18.612
0
LINE
8
медь верх
10
-0.297
20
-18.612
11
-0.349
21
-18.612
0
LINE
8
медь верх
10
-1.756
20
-18.612
11
-1.830
21
-18.612
0
LINE
8
медь верх
10
-3.970
20
-18.612
11
-4.042
21
-18.612
0
LINE
8
медь верх
10
-9.453
20
-18.612
11
-9.545
21
-18.612
0
LINE
8
медь верх
10
-11.255
20
-18.613
11
-11.346
21
-18.613
0
LINE
8
медь верх
10
11.403
20
-18.570
11
11.312
21
-18.570
0
LINE
8
медь верх
10
9.201
20
-18.570
11
8.362
21
-18.570
0
LINE
8
медь верх
10
7.699
20
-18.570
11
7.630
21
-18.570
0
LINE
8
медь верх
10
7.017
20
-18.570
11
3.928
21
-18.571
0
LINE
8
медь верх
10
1.871
20
-18.571
11
0.364
21
-18.571
0
LINE
8
медь верх
10
-0.297
20
-18.571
11
-0.349
21
-18.571
0
LINE
8
медь верх
10
-1.797
20
-18.571
11
-1.869
21
-18.571
0
LINE
8
медь верх
10
-3.929
20
-18.571
11
-4.002
21
-18.571
0
LINE
8
медь верх
10
-9.493
20
-18.572
11
-9.585
21
-18.572
0
LINE
8
медь верх
10
-11.214
20
-18.572
11
-11.306
21
-18.572
0
LINE
8
медь верх
10
11.364
20
-18.529
11
11.271
21
-18.529
0
LINE
8
медь верх
10
9.162
20
-18.531
11
8.362
21
-18.531
0
LINE
8
медь верх
10
7.690
20
-18.531
11
7.605
21
-18.531
0
LINE
8
медь верх
10
7.017
20
-18.531
11
3.889
21
-18.531
0
LINE
8
медь верх
10
1.910
20
-18.531
11
0.364
21
-18.531
0
LINE
8
медь верх
10
-0.297
20
-18.531
11
-0.349
21
-18.531
0
LINE
8
медь верх
10
-1.835
20
-18.531
11
-1.910
21
-18.531
0
LINE
8
медь верх
10
-3.889
20
-18.532
11
-3.964
21
-18.532
0
LINE
8
медь верх
10
-9.533
20
-18.532
11
-9.625
21
-18.532
0
LINE
8
медь верх
10
-11.173
20
-18.532
11
-11.266
21
-18.532
0
LINE
8
медь верх
10
11.323
20
-18.490
11
11.231
21
-18.490
0
LINE
8
медь верх
10
9.121
20
-18.490
11
8.362
21
-18.490
0
LINE
8
медь верх
10
7.649
20
-18.490
11
7.577
21
-18.490
0
LINE
8
медь верх
10
7.017
20
-18.490
11
0.364
21
-18.491
0
LINE
8
медь верх
10
-0.297
20
-18.491
11
-0.349
21
-18.491
0
LINE
8
медь верх
10
-1.862
20
-18.491
11
-3.937
21
-18.491
0
LINE
8
медь верх
10
-9.573
20
-18.491
11
-9.666
21
-18.491
0
LINE
8
медь верх
10
-11.133
20
-18.491
11
-11.226
21
-18.491
0
LINE
8
медь верх
10
11.283
20
-18.449
11
11.191
21
-18.449
0
LINE
8
медь верх
10
9.080
20
-18.449
11
8.362
21
-18.449
0
LINE
8
медь верх
10
7.609
20
-18.449
11
7.537
21
-18.449
0
LINE
8
медь верх
10
7.023
20
-18.449
11
0.364
21
-18.451
0
LINE
8
медь верх
10
-0.297
20
-18.451
11
-0.349
21
-18.451
0
LINE
8
медь верх
10
-1.883
20
-18.451
11
-3.914
21
-18.451
0
LINE
8
медь верх
10
-9.614
20
-18.452
11
-9.705
21
-18.452
0
LINE
8
медь верх
10
-11.093
20
-18.452
11
-11.185
21
-18.452
0
LINE
8
медь верх
10
11.243
20
-18.409
11
11.151
21
-18.409
0
LINE
8
медь верх
10
9.040
20
-18.409
11
8.362
21
-18.410
0
LINE
8
медь верх
10
7.569
20
-18.410
11
7.497
21
-18.410
0
LINE
8
медь верх
10
7.032
20
-18.410
11
0.364
21
-18.410
0
LINE
8
медь верх
10
-0.297
20
-18.410
11
-0.349
21
-18.410
0
LINE
8
медь верх
10
-1.892
20
-18.410
11
-3.907
21
-18.410
0
LINE
8
медь верх
10
-9.655
20
-18.411
11
-9.746
21
-18.411
0
LINE
8
медь верх
10
-11.053
20
-18.411
11
-11.146
21
-18.411
0
LINE
8
медь верх
10
11.203
20
-18.369
11
11.110
21
-18.369
0
LINE
8
медь верх
10
9.000
20
-18.369
11
8.355
21
-18.369
0
LINE
8
медь верх
10
7.529
20
-18.369
11
7.456
21
-18.369
0
LINE
8
медь верх
10
7.052
20
-18.369
11
0.364
21
-18.369
0
LINE
8
медь верх
10
-0.297
20
-18.371
11
-0.349
21
-18.371
0
LINE
8
медь верх
10
-1.899
20
-18.371
11
-3.900
21
-18.371
0
LINE
8
медь верх
10
-9.694
20
-18.371
11
-9.787
21
-18.371
0
LINE
8
медь верх
10
-11.012
20
-18.371
11
-11.105
21
-18.371
0
LINE
8
медь верх
10
11.162
20
-18.329
11
11.071
21
-18.329
0
LINE
8
медь верх
10
9.929
20
-18.329
11
9.897
21
-18.329
0
LINE
8
медь верх
10
8.960
20
-18.329
11
8.346
21
-18.329
0
LINE
8
медь верх
10
7.488
20
-18.329
11
7.416
21
-18.329
0
LINE
8
медь верх
10
7.079
20
-18.329
11
0.364
21
-18.330
0
LINE
8
медь верх
10
-0.297
20
-18.330
11
-0.349
21
-18.330
0
LINE
8
медь верх
10
-1.891
20
-18.330
11
-3.908
21
-18.330
0
LINE
8
медь верх
10
-9.735
20
-18.331
11
-9.826
21
-18.331
0
LINE
8
медь верх
10
-10.973
20
-18.331
11
-11.064
21
-18.331
0
LINE
8
медь верх
10
11.121
20
-18.288
11
11.030
21
-18.288
0
LINE
8
медь верх
10
9.968
20
-18.288
11
9.858
21
-18.288
0
LINE
8
медь верх
10
8.919
20
-18.288
11
8.339
21
-18.288
0
LINE
8
медь верх
10
7.449
20
-18.289
11
7.360
21
-18.289
0
LINE
8
медь верх
10
7.134
20
-18.289
11
0.364
21
-18.289
0
LINE
8
медь верх
10
-0.297
20
-18.289
11
-0.349
21
-18.289
0
LINE
8
медь верх
10
-1.882
20
-18.289
11
-3.917
21
-18.289
0
LINE
8
медь верх
10
-9.775
20
-18.291
11
-9.867
21
-18.291
0
LINE
8
медь верх
10
-10.932
20
-18.291
11
-11.024
21
-18.291
0
LINE
8
медь верх
10
11.082
20
-18.249
11
9.817
21
-18.249
0
LINE
8
медь верх
10
8.880
20
-18.249
11
8.319
21
-18.249
0
LINE
8
медь верх
10
7.408
20
-18.249
11
6.826
21
-18.249
0
LINE
8
медь верх
10
5.852
20
-18.249
11
0.364
21
-18.249
0
LINE
8
медь верх
10
-0.297
20
-18.249
11
-0.348
21
-18.249
0
LINE
8
медь верх
10
-1.857
20
-18.250
11
-3.942
21
-18.250
0
LINE
8
медь верх
10
-9.815
20
-18.250
11
-10.067
21
-18.250
0
LINE
8
медь верх
10
-10.730
20
-18.250
11
-10.984
21
-18.250
0
LINE
8
медь верх
10
9.900
20
-18.208
11
9.776
21
-18.208
0
LINE
8
медь верх
10
8.839
20
-18.208
11
8.292
21
-18.208
0
LINE
8
медь верх
10
7.367
20
-18.208
11
6.867
21
-18.208
0
LINE
8
медь верх
10
5.813
20
-18.208
11
3.877
21
-18.208
0
LINE
8
медь верх
10
1.922
20
-18.209
11
0.364
21
-18.209
0
LINE
8
медь верх
10
-0.297
20
-18.209
11
-0.348
21
-18.209
0
LINE
8
медь верх
10
-1.829
20
-18.209
11
-1.922
21
-18.209
0
LINE
8
медь верх
10
-3.877
20
-18.209
11
-3.969
21
-18.209
0
LINE
8
медь верх
10
-9.855
20
-18.209
11
-10.067
21
-18.209
0
LINE
8
медь верх
10
-10.730
20
-18.211
11
-10.944
21
-18.211
0
LINE
8
медь верх
10
9.817
20
-18.167
11
9.737
21
-18.167
0
LINE
8
медь верх
10
8.799
20
-18.167
11
8.265
21
-18.167
0
LINE
8
медь верх
10
7.327
20
-18.167
11
6.906
21
-18.167
0
LINE
8
медь верх
10
5.772
20
-18.169
11
3.918
21
-18.169
0
LINE
8
медь верх
10
1.881
20
-18.169
11
0.364
21
-18.169
0
LINE
8
медь верх
10
-0.297
20
-18.169
11
-0.348
21
-18.169
0
LINE
8
медь верх
10
-1.789
20
-18.169
11
-1.881
21
-18.169
0
LINE
8
медь верх
10
-3.918
20
-18.169
11
-4.009
21
-18.169
0
LINE
8
медь верх
10
-9.923
20
-18.170
11
-10.067
21
-18.170
0
LINE
8
медь верх
10
-10.730
20
-18.170
11
-10.876
21
-18.170
0
LINE
8
медь верх
10
9.769
20
-18.128
11
9.696
21
-18.128
0
LINE
8
медь верх
10
8.759
20
-18.128
11
8.225
21
-18.128
0
LINE
8
медь верх
10
7.287
20
-18.128
11
6.947
21
-18.128
0
LINE
8
медь верх
10
5.732
20
-18.128
11
3.959
21
-18.128
0
LINE
8
медь верх
10
1.840
20
-18.128
11
0.364
21
-18.128
0
LINE
8
медь верх
10
-0.297
20
-18.128
11
-0.348
21
-18.128
0
LINE
8
медь верх
10
-1.749
20
-18.128
11
-1.841
21
-18.128
0
LINE
8
медь верх
10
-3.957
20
-18.129
11
-4.050
21
-18.129
0
LINE
8
медь верх
10
-9.964
20
-18.129
11
-10.067
21
-18.129
0
LINE
8
медь верх
10
-10.730
20
-18.129
11
-10.834
21
-18.129
0
LINE
8
медь верх
10
9.728
20
-18.087
11
9.656
21
-18.087
0
LINE
8
медь верх
10
8.719
20
-18.087
11
8.184
21
-18.087
0
LINE
8
медь верх
10
7.247
20
-18.087
11
6.967
21
-18.087
0
LINE
8
медь верх
10
5.712
20
-18.087
11
3.999
21
-18.087
0
LINE
8
медь верх
10
1.801
20
-18.087
11
0.364
21
-18.089
0
LINE
8
медь верх
10
-0.297
20
-18.089
11
-0.348
21
-18.089
0
LINE
8
медь верх
10
-1.708
20
-18.089
11
-1.801
21
-18.089
0
LINE
8
медь верх
10
-3.998
20
-18.089
11
-4.089
21
-18.089
0
LINE
8
медь верх
10
-9.991
20
-18.089
11
-10.067
21
-18.089
0
LINE
8
медь верх
10
-10.730
20
-18.089
11
-10.808
21
-18.089
0
LINE
8
медь верх
10
9.688
20
-18.047
11
9.615
21
-18.047
0
LINE
8
медь верх
10
8.678
20
-18.047
11
8.145
21
-18.047
0
LINE
8
медь верх
10
1.760
20
-18.048
11
0.364
21
-18.048
0
LINE
8
медь верх
10
-0.297
20
-18.048
11
-0.348
21
-18.048
0
LINE
8
медь верх
10
-1.669
20
-18.048
11
-1.760
21
-18.048
0
LINE
8
медь верх
10
-4.039
20
-18.048
11
-4.130
21
-18.048
0
LINE
8
медь верх
10
-10.005
20
-18.049
11
-10.067
21
-18.049
0
LINE
8
медь верх
10
-10.730
20
-18.049
11
-10.794
21
-18.049
0
LINE
8
медь верх
10
9.648
20
-18.006
11
9.576
21
-18.006
0
LINE
8
медь верх
10
8.639
20
-18.007
11
8.104
21
-18.007
0
LINE
8
медь верх
10
1.720
20
-18.007
11
0.364
21
-18.007
0
LINE
8
медь верх
10
-0.297
20
-18.007
11
-0.348
21
-18.007
0
LINE
8
медь верх
10
-1.628
20
-18.007
11
-1.720
21
-18.007
0
LINE
8
медь верх
10
-4.078
20
-18.009
11
-4.171
21
-18.009
0
LINE
8
медь верх
10
-10.013
20
-18.009
11
-10.067
21
-18.009
0
LINE
8
медь верх
10
-10.730
20
-18.009
11
-10.786
21
-18.009
0
LINE
8
медь верх
10
9.608
20
-17.967
11
9.535
21
-17.967
0
LINE
8
медь верх
10
8.598
20
-17.967
11
8.063
21
-17.967
0
LINE
8
медь верх
10
1.679
20
-17.967
11
0.364
21
-17.967
0
LINE
8
медь верх
10
-0.297
20
-17.968
11
-0.348
21
-17.968
0
LINE
8
медь верх
10
-1.623
20
-17.968
11
-1.680
21
-17.968
0
LINE
8
медь верх
10
-4.119
20
-17.968
11
-4.176
21
-17.968
0
LINE
8
медь верх
10
-10.016
20
-17.968
11
-10.067
21
-17.968
0
LINE
8
медь верх
10
-10.730
20
-17.968
11
-10.782
21
-17.968
0
LINE
8
медь верх
10
9.567
20
-17.926
11
9.495
21
-17.926
0
LINE
8
медь верх
10
8.557
20
-17.926
11
8.023
21
-17.926
0
LINE
8
медь верх
10
1.671
20
-17.927
11
0.364
21
-17.927
0
LINE
8
медь верх
10
-0.297
20
-17.927
11
-0.348
21
-17.927
0
LINE
8
медь верх
10
-1.623
20
-17.927
11
-1.671
21
-17.927
0
LINE
8
медь верх
10
-4.127
20
-17.927
11
-4.176
21
-17.927
0
LINE
8
медь верх
10
-10.016
20
-17.929
11
-10.067
21
-17.929
0
LINE
8
медь верх
10
-10.730
20
-17.929
11
-10.782
21
-17.929
0
LINE
8
медь верх
10
9.526
20
-17.885
11
9.455
21
-17.885
0
LINE
8
медь верх
10
8.517
20
-17.885
11
7.983
21
-17.887
0
LINE
8
медь верх
10
1.671
20
-17.887
11
0.364
21
-17.887
0
LINE
8
медь верх
10
-0.297
20
-17.887
11
-0.348
21
-17.887
0
LINE
8
медь верх
10
-1.623
20
-17.887
11
-1.671
21
-17.887
0
LINE
8
медь верх
10
-4.127
20
-17.887
11
-4.176
21
-17.887
0
LINE
8
медь верх
10
-10.016
20
-17.888
11
-10.067
21
-17.888
0
LINE
8
медь верх
10
-10.730
20
-17.888
11
-10.782
21
-17.888
0
LINE
8
медь верх
10
9.487
20
-17.846
11
9.415
21
-17.846
0
LINE
8
медь верх
10
8.477
20
-17.846
11
7.943
21
-17.846
0
LINE
8
медь верх
10
1.671
20
-17.846
11
0.364
21
-17.846
0
LINE
8
медь верх
10
-0.297
20
-17.846
11
-0.348
21
-17.846
0
LINE
8
медь верх
10
-1.623
20
-17.847
11
-1.671
21
-17.847
0
LINE
8
медь верх
10
-4.127
20
-17.847
11
-4.176
21
-17.847
0
LINE
8
медь верх
10
-10.016
20
-17.847
11
-10.067
21
-17.847
0
LINE
8
медь верх
10
-10.730
20
-17.847
11
-10.782
21
-17.847
0
LINE
8
медь верх
10
9.446
20
-17.805
11
9.374
21
-17.805
0
LINE
8
медь верх
10
8.437
20
-17.805
11
7.902
21
-17.805
0
LINE
8
медь верх
10
1.671
20
-17.807
11
0.364
21
-17.807
0
LINE
8
медь верх
10
-0.297
20
-17.807
11
-0.348
21
-17.807
0
LINE
8
медь верх
10
-1.623
20
-17.807
11
-1.671
21
-17.807
0
LINE
8
медь верх
10
-4.127
20
-17.807
11
-4.176
21
-17.807
0
LINE
8
медь верх
10
-10.016
20
-17.808
11
-10.067
21
-17.808
0
LINE
8
медь верх
10
-10.730
20
-17.808
11
-10.782
21
-17.808
0
LINE
8
медь верх
10
9.406
20
-17.765
11
9.335
21
-17.765
0
LINE
8
медь верх
10
8.396
20
-17.765
11
7.863
21
-17.765
0
LINE
8
медь верх
10
1.671
20
-17.766
11
0.364
21
-17.766
0
LINE
8
медь верх
10
-0.297
20
-17.766
11
-0.348
21
-17.766
0
LINE
8
медь верх
10
-1.623
20
-17.766
11
-1.671
21
-17.766
0
LINE
8
медь верх
10
-4.127
20
-17.766
11
-4.176
21
-17.766
0
LINE
8
медь верх
10
-10.016
20
-17.767
11
-10.067
21
-17.767
0
LINE
8
медь верх
10
-10.730
20
-17.767
11
-10.782
21
-17.767
0
LINE
8
медь верх
10
9.366
20
-17.725
11
9.294
21
-17.725
0
LINE
8
медь верх
10
8.357
20
-17.725
11
7.822
21
-17.725
0
LINE
8
медь верх
10
1.671
20
-17.725
11
0.364
21
-17.725
0
LINE
8
медь верх
10
-0.297
20
-17.725
11
-0.348
21
-17.725
0
LINE
8
медь верх
10
-1.623
20
-17.725
11
-1.671
21
-17.725
0
LINE
8
медь верх
10
-4.127
20
-17.727
11
-4.176
21
-17.727
0
LINE
8
медь верх
10
-10.016
20
-17.727
11
-10.067
21
-17.727
0
LINE
8
медь верх
10
-10.730
20
-17.727
11
-10.782
21
-17.727
0
LINE
8
медь верх
10
9.326
20
-17.685
11
9.253
21
-17.685
0
LINE
8
медь верх
10
8.316
20
-17.685
11
7.781
21
-17.685
0
LINE
8
медь верх
10
1.671
20
-17.686
11
0.364
21
-17.686
0
LINE
8
медь верх
10
-0.297
20
-17.686
11
-0.348
21
-17.686
0
LINE
8
медь верх
10
-1.623
20
-17.686
11
-1.671
21
-17.686
0
LINE
8
медь верх
10
-4.127
20
-17.686
11
-4.176
21
-17.686
0
LINE
8
медь верх
10
-10.016
20
-17.686
11
-10.067
21
-17.686
0
LINE
8
медь верх
10
-10.730
20
-17.687
11
-10.782
21
-17.687
0
LINE
8
медь верх
10
9.285
20
-17.644
11
9.214
21
-17.644
0
LINE
8
медь верх
10
8.275
20
-17.644
11
7.742
21
-17.644
0
LINE
8
медь верх
10
1.671
20
-17.645
11
0.364
21
-17.645
0
LINE
8
медь верх
10
-0.297
20
-17.645
11
-0.348
21
-17.645
0
LINE
8
медь верх
10
-1.623
20
-17.645
11
-1.671
21
-17.645
0
LINE
8
медь верх
10
-4.127
20
-17.645
11
-4.176
21
-17.645
0
LINE
8
медь верх
10
-5.989
20
-17.645
11
-6.032
21
-17.645
0
LINE
8
медь верх
10
-7.287
20
-17.647
11
-7.330
21
-17.647
0
LINE
8
медь верх
10
-10.016
20
-17.647
11
-10.067
21
-17.647
0
LINE
8
медь верх
10
-10.730
20
-17.647
11
-10.782
21
-17.647
0
LINE
8
медь верх
10
9.246
20
-17.605
11
9.173
21
-17.605
0
LINE
8
медь верх
10
8.236
20
-17.605
11
7.701
21
-17.605
0
LINE
8
медь верх
10
1.671
20
-17.605
11
0.364
21
-17.605
0
LINE
8
медь верх
10
-0.297
20
-17.605
11
-0.348
21
-17.605
0
LINE
8
медь верх
10
-1.623
20
-17.605
11
-1.671
21
-17.605
0
LINE
8
медь верх
10
-4.127
20
-17.606
11
-4.176
21
-17.606
0
LINE
8
медь верх
10
-5.989
20
-17.606
11
-6.032
21
-17.606
0
LINE
8
медь верх
10
-7.287
20
-17.606
11
-7.330
21
-17.606
0
LINE
8
медь верх
10
-10.016
20
-17.606
11
-10.067
21
-17.606
0
LINE
8
медь верх
10
-10.730
20
-17.606
11
-10.782
21
-17.606
0
LINE
8
медь верх
10
9.205
20
-17.564
11
9.133
21
-17.564
0
LINE
8
медь верх
10
8.195
20
-17.564
11
7.661
21
-17.564
0
LINE
8
медь верх
10
1.671
20
-17.564
11
0.364
21
-17.565
0
LINE
8
медь верх
10
-0.297
20
-17.565
11
-0.348
21
-17.565
0
LINE
8
медь верх
10
-1.623
20
-17.565
11
-1.671
21
-17.565
0
LINE
8
медь верх
10
-4.127
20
-17.565
11
-4.176
21
-17.565
0
LINE
8
медь верх
10
-5.989
20
-17.565
11
-6.038
21
-17.565
0
LINE
8
медь верх
10
-7.282
20
-17.565
11
-7.330
21
-17.565
0
LINE
8
медь верх
10
-10.009
20
-17.565
11
-10.067
21
-17.565
0
LINE
8
медь верх
10
-10.730
20
-17.565
11
-10.782
21
-17.565
0
LINE
8
медь верх
10
9.164
20
-17.523
11
9.092
21
-17.523
0
LINE
8
медь верх
10
8.155
20
-17.523
11
7.621
21
-17.523
0
LINE
8
медь верх
10
1.671
20
-17.525
11
0.364
21
-17.525
0
LINE
8
медь верх
10
-0.297
20
-17.525
11
-0.348
21
-17.525
0
LINE
8
медь верх
10
-1.623
20
-17.525
11
-1.671
21
-17.525
0
LINE
8
медь верх
10
-4.127
20
-17.525
11
-4.176
21
-17.525
0
LINE
8
медь верх
10
-5.998
20
-17.525
11
-6.078
21
-17.525
0
LINE
8
медь верх
10
-7.242
20
-17.525
11
-7.322
21
-17.525
0
LINE
8
медь верх
10
-10.000
20
-17.526
11
-10.067
21
-17.526
0
LINE
8
медь верх
10
-10.730
20
-17.526
11
-10.782
21
-17.526
0
LINE
8
медь верх
10
9.125
20
-17.483
11
9.053
21
-17.483
0
LINE
8
медь верх
10
8.115
20
-17.484
11
7.570
21
-17.484
0
LINE
8
медь верх
10
1.707
20
-17.484
11
0.364
21
-17.484
0
LINE
8
медь верх
10
-0.297
20
-17.484
11
-0.348
21
-17.484
0
LINE
8
медь верх
10
-1.623
20
-17.484
11
-1.707
21
-17.484
0
LINE
8
медь верх
10
-4.092
20
-17.484
11
-4.176
21
-17.485
0
LINE
8
медь верх
10
-6.039
20
-17.485
11
-6.118
21
-17.485
0
LINE
8
медь верх
10
-7.201
20
-17.485
11
-7.281
21
-17.485
0
LINE
8
медь верх
10
-9.976
20
-17.485
11
-10.061
21
-17.485
0
LINE
8
медь верх
10
-10.730
20
-17.485
11
-10.782
21
-17.485
0
LINE
8
медь верх
10
9.084
20
-17.443
11
9.012
21
-17.443
0
LINE
8
медь верх
10
8.075
20
-17.443
11
7.510
21
-17.443
0
LINE
8
медь верх
10
1.748
20
-17.443
11
0.364
21
-17.443
0
LINE
8
медь верх
10
-0.297
20
-17.445
11
-0.348
21
-17.445
0
LINE
8
медь верх
10
-1.655
20
-17.445
11
-1.746
21
-17.445
0
LINE
8
медь верх
10
-4.053
20
-17.445
11
-4.144
21
-17.445
0
LINE
8
медь верх
10
-6.078
20
-17.445
11
-6.158
21
-17.445
0
LINE
8
медь верх
10
-7.160
20
-17.445
11
-7.240
21
-17.445
0
LINE
8
медь верх
10
-9.948
20
-17.445
11
-10.020
21
-17.445
0
LINE
8
медь верх
10
-10.730
20
-17.445
11
-10.782
21
-17.445
0
LINE
8
медь верх
10
9.044
20
-17.403
11
8.971
21
-17.403
0
LINE
8
медь верх
10
8.034
20
-17.403
11
6.967
21
-17.403
0
LINE
8
медь верх
10
5.712
20
-17.403
11
4.011
21
-17.403
0
LINE
8
медь верх
10
1.787
20
-17.404
11
0.364
21
-17.404
0
LINE
8
медь верх
10
-0.297
20
-17.404
11
-0.348
21
-17.404
0
LINE
8
медь верх
10
-1.695
20
-17.404
11
-1.787
21
-17.404
0
LINE
8
медь верх
10
-4.012
20
-17.404
11
-4.103
21
-17.404
0
LINE
8
медь верх
10
-6.119
20
-17.404
11
-7.200
21
-17.404
0
LINE
8
медь верх
10
-9.909
20
-17.405
11
-9.981
21
-17.405
0
LINE
8
медь верх
10
-10.730
20
-17.405
11
-10.782
21
-17.405
0
LINE
8
медь верх
10
9.003
20
-17.362
11
8.932
21
-17.362
0
LINE
8
медь верх
10
7.993
20
-17.362
11
6.958
21
-17.363
0
LINE
8
медь верх
10
5.720
20
-17.363
11
3.971
21
-17.363
0
LINE
8
медь верх
10
1.828
20
-17.363
11
0.364
21
-17.363
0
LINE
8
медь верх
10
-0.297
20
-17.363
11
-0.348
21
-17.363
0
LINE
8
медь верх
10
-1.735
20
-17.363
11
-1.828
21
-17.363
0
LINE
8
медь верх
10
-3.971
20
-17.363
11
-4.064
21
-17.363
0
LINE
8
медь верх
10
-6.153
20
-17.365
11
-7.167
21
-17.365
0
LINE
8
медь верх
10
-9.868
20
-17.365
11
-9.940
21
-17.365
0
LINE
8
медь верх
10
-10.730
20
-17.365
11
-10.780
21
-17.365
0
LINE
8
медь верх
10
8.964
20
-17.323
11
8.891
21
-17.323
0
LINE
8
медь верх
10
7.954
20
-17.323
11
6.919
21
-17.323
0
LINE
8
медь верх
10
5.761
20
-17.323
11
3.931
21
-17.323
0
LINE
8
медь верх
10
1.868
20
-17.323
11
0.364
21
-17.323
0
LINE
8
медь верх
10
-0.297
20
-17.323
11
-0.348
21
-17.323
0
LINE
8
медь верх
10
-1.775
20
-17.324
11
-1.868
21
-17.324
0
LINE
8
медь верх
10
-3.932
20
-17.324
11
-4.023
21
-17.324
0
LINE
8
медь верх
10
-6.180
20
-17.324
11
-7.139
21
-17.324
0
LINE
8
медь верх
10
-9.827
20
-17.324
11
-9.900
21
-17.324
0
LINE
8
медь верх
10
-10.725
20
-17.324
11
-10.771
21
-17.324
0
LINE
8
медь верх
10
8.923
20
-17.282
11
8.851
21
-17.282
0
LINE
8
медь верх
10
7.913
20
-17.282
11
6.878
21
-17.282
0
LINE
8
медь верх
10
5.800
20
-17.282
11
3.890
21
-17.282
0
LINE
8
медь верх
10
1.909
20
-17.283
11
0.364
21
-17.283
0
LINE
8
медь верх
10
-0.297
20
-17.283
11
-0.348
21
-17.283
0
LINE
8
медь верх
10
-1.816
20
-17.283
11
-1.908
21
-17.283
0
LINE
8
медь верх
10
-3.891
20
-17.283
11
-3.983
21
-17.283
0
LINE
8
медь верх
10
-6.195
20
-17.283
11
-7.123
21
-17.283
0
LINE
8
медь верх
10
-9.788
20
-17.283
11
-9.859
21
-17.283
0
LINE
8
медь верх
10
-10.716
20
-17.285
11
-10.763
21
-17.285
0
LINE
8
медь верх
10
8.882
20
-17.242
11
8.811
21
-17.242
0
LINE
8
медь верх
10
7.873
20
-17.242
11
6.838
21
-17.242
0
LINE
8
медь верх
10
5.841
20
-17.243
11
0.364
21
-17.243
0
LINE
8
медь верх
10
-0.297
20
-17.243
11
-0.348
21
-17.243
0
LINE
8
медь верх
10
-1.853
20
-17.243
11
-3.946
21
-17.243
0
LINE
8
медь верх
10
-6.203
20
-17.243
11
-7.116
21
-17.244
0
LINE
8
медь верх
10
-9.747
20
-17.244
11
-9.820
21
-17.244
0
LINE
8
медь верх
10
-10.709
20
-17.244
11
-10.756
21
-17.244
0
LINE
8
медь верх
10
8.843
20
-17.202
11
8.771
21
-17.202
0
LINE
8
медь верх
10
7.833
20
-17.202
11
0.364
21
-17.202
0
LINE
8
медь верх
10
-0.297
20
-17.202
11
-0.348
21
-17.202
0
LINE
8
медь верх
10
-1.880
20
-17.202
11
-3.919
21
-17.203
0
LINE
8
медь верх
10
-6.204
20
-17.203
11
-7.115
21
-17.203
0
LINE
8
медь верх
10
-9.707
20
-17.203
11
-9.779
21
-17.203
0
LINE
8
медь верх
10
-10.690
20
-17.203
11
-10.744
21
-17.203
0
LINE
8
медь верх
10
8.802
20
-17.162
11
8.730
21
-17.162
0
LINE
8
медь верх
10
7.793
20
-17.162
11
0.364
21
-17.163
0
LINE
8
медь верх
10
-0.297
20
-17.163
11
-0.348
21
-17.163
0
LINE
8
медь верх
10
-1.900
20
-17.163
11
-3.899
21
-17.163
0
LINE
8
медь верх
10
-6.196
20
-17.163
11
-7.122
21
-17.163
0
LINE
8
медь верх
10
-9.667
20
-17.163
11
-9.738
21
-17.163
0
LINE
8
медь верх
10
-10.663
20
-17.163
11
-10.718
21
-17.163
0
LINE
8
медь верх
10
8.762
20
-17.121
11
8.689
21
-17.121
0
LINE
8
медь верх
10
7.752
20
-17.121
11
0.364
21
-17.122
0
LINE
8
медь верх
10
-0.297
20
-17.122
11
-0.348
21
-17.122
0
LINE
8
медь верх
10
-1.908
20
-17.122
11
-3.891
21
-17.122
0
LINE
8
медь верх
10
-6.184
20
-17.122
11
-7.135
21
-17.122
0
LINE
8
медь верх
10
-9.627
20
-17.123
11
-9.699
21
-17.123
0
LINE
8
медь верх
10
-10.635
20
-17.123
11
-10.691
21
-17.123
0
LINE
8
медь верх
10
8.722
20
-17.081
11
8.650
21
-17.081
0
LINE
8
медь верх
10
7.713
20
-17.081
11
0.364
21
-17.081
0
LINE
8
медь верх
10
-0.297
20
-17.081
11
-0.348
21
-17.081
0
LINE
8
медь верх
10
-1.913
20
-17.081
11
-3.886
21
-17.083
0
LINE
8
медь верх
10
-6.157
20
-17.083
11
-7.163
21
-17.083
0
LINE
8
медь верх
10
-9.586
20
-17.083
11
-9.658
21
-17.083
0
LINE
8
медь верх
10
-10.596
20
-17.083
11
-10.663
21
-17.083
0
LINE
8
медь верх
10
8.682
20
-17.041
11
8.609
21
-17.041
0
LINE
8
медь верх
10
7.672
20
-17.041
11
0.364
21
-17.041
0
LINE
8
медь верх
10
-0.297
20
-17.042
11
-0.348
21
-17.042
0
LINE
8
медь верх
10
-1.905
20
-17.042
11
-3.894
21
-17.042
0
LINE
8
медь верх
10
-6.124
20
-17.042
11
-7.195
21
-17.042
0
LINE
8
медь верх
10
-9.545
20
-17.042
11
-9.618
21
-17.042
0
LINE
8
медь верх
10
-10.556
20
-17.042
11
-10.627
21
-17.042
0
LINE
8
медь верх
10
8.641
20
-17.000
11
8.569
21
-17.000
0
LINE
8
медь верх
10
7.631
20
-17.000
11
0.364
21
-17.001
0
LINE
8
медь верх
10
-0.297
20
-17.001
11
-0.348
21
-17.001
0
LINE
8
медь верх
10
-1.897
20
-17.001
11
-3.901
21
-17.001
0
LINE
8
медь верх
10
-6.083
20
-17.001
11
-6.176
21
-17.001
0
LINE
8
медь верх
10
-7.142
20
-17.001
11
-7.235
21
-17.001
0
LINE
8
медь верх
10
-9.506
20
-17.003
11
-9.578
21
-17.003
0
LINE
8
медь верх
10
-10.516
20
-17.003
11
-10.588
21
-17.003
0
LINE
8
медь верх
10
8.602
20
-16.960
11
8.529
21
-16.960
0
LINE
8
медь верх
10
7.592
20
-16.961
11
6.814
21
-16.961
0
LINE
8
медь верх
10
5.864
20
-16.961
11
0.364
21
-16.961
0
LINE
8
медь верх
10
-0.297
20
-16.961
11
-0.348
21
-16.961
0
LINE
8
медь верх
10
-1.871
20
-16.961
11
-3.928
21
-16.961
0
LINE
8
медь верх
10
-6.044
20
-16.962
11
-6.135
21
-16.962
0
LINE
8
медь верх
10
-7.183
20
-16.962
11
-7.275
21
-16.962
0
LINE
8
медь верх
10
-9.465
20
-16.962
11
-9.538
21
-16.962
0
LINE
8
медь верх
10
-10.475
20
-16.962
11
-10.547
21
-16.962
0
LINE
8
медь верх
10
8.561
20
-16.920
11
8.489
21
-16.920
0
LINE
8
медь верх
10
7.551
20
-16.920
11
6.854
21
-16.920
0
LINE
8
медь верх
10
5.824
20
-16.920
11
0.364
21
-16.920
0
LINE
8
медь верх
10
-0.297
20
-16.920
11
-0.348
21
-16.920
0
LINE
8
медь верх
10
-1.841
20
-16.921
11
-3.957
21
-16.921
0
LINE
8
медь верх
10
-6.003
20
-16.921
11
-6.096
21
-16.921
0
LINE
8
медь верх
10
-7.222
20
-16.921
11
-7.315
21
-16.921
0
LINE
8
медь верх
10
-9.425
20
-16.921
11
-9.497
21
-16.921
0
LINE
8
медь верх
10
-10.436
20
-16.921
11
-10.507
21
-16.921
0
LINE
8
медь верх
10
8.520
20
-16.880
11
8.448
21
-16.880
0
LINE
8
медь верх
10
7.511
20
-16.880
11
6.895
21
-16.880
0
LINE
8
медь верх
10
5.784
20
-16.880
11
3.907
21
-16.880
0
LINE
8
медь верх
10
1.892
20
-16.881
11
0.364
21
-16.881
0
LINE
8
медь верх
10
-0.297
20
-16.881
11
-0.348
21
-16.881
0
LINE
8
медь верх
10
-1.801
20
-16.881
11
-1.894
21
-16.881
0
LINE
8
медь верх
10
-3.905
20
-16.881
11
-4.002
21
-16.881
0
LINE
8
медь верх
10
-5.959
20
-16.881
11
-6.055
21
-16.881
0
LINE
8
медь верх
10
-7.263
20
-16.881
11
-7.360
21
-16.881
0
LINE
8
медь верх
10
-9.381
20
-16.881
11
-9.456
21
-16.881
0
LINE
8
медь верх
10
-10.395
20
-16.882
11
-10.467
21
-16.882
0
LINE
8
медь верх
10
8.480
20
-16.839
11
8.409
21
-16.839
0
LINE
8
медь верх
10
7.470
20
-16.839
11
6.934
21
-16.839
0
LINE
8
медь верх
10
5.743
20
-16.840
11
3.947
21
-16.840
0
LINE
8
медь верх
10
1.853
20
-16.840
11
0.364
21
-16.840
0
LINE
8
медь верх
10
-0.297
20
-16.840
11
-0.348
21
-16.840
0
LINE
8
медь верх
10
-1.760
20
-16.840
11
-1.853
21
-16.840
0
LINE
8
медь верх
10
-3.946
20
-16.840
11
-4.061
21
-16.840
0
LINE
8
медь верх
10
-5.899
20
-16.841
11
-6.032
21
-16.841
0
LINE
8
медь верх
10
-7.286
20
-16.841
11
-7.419
21
-16.841
0
LINE
8
медь верх
10
-9.321
20
-16.841
11
-9.417
21
-16.841
0
LINE
8
медь верх
10
-10.354
20
-16.841
11
-10.427
21
-16.841
0
LINE
8
медь верх
10
8.440
20
-16.800
11
8.368
21
-16.800
0
LINE
8
медь верх
10
7.431
20
-16.800
11
6.966
21
-16.800
0
LINE
8
медь верх
10
5.711
20
-16.800
11
3.987
21
-16.800
0
LINE
8
медь верх
10
1.812
20
-16.800
11
0.364
21
-16.800
0
LINE
8
медь верх
10
-0.297
20
-16.800
11
-0.348
21
-16.800
0
LINE
8
медь верх
10
-1.721
20
-16.800
11
-1.812
21
-16.800
0
LINE
8
медь верх
10
-3.987
20
-16.801
11
-6.032
21
-16.801
0
LINE
8
медь верх
10
-7.286
20
-16.801
11
-9.376
21
-16.801
0
LINE
8
медь верх
10
-10.314
20
-16.801
11
-10.386
21
-16.801
0
LINE
8
медь верх
10
8.400
20
-16.759
11
8.327
21
-16.759
0
LINE
8
медь верх
10
1.772
20
-16.760
11
0.364
21
-16.760
0
LINE
8
медь верх
10
-0.297
20
-16.760
11
-0.348
21
-16.760
0
LINE
8
медь верх
10
-1.680
20
-16.760
11
-1.772
21
-16.760
0
LINE
8
медь верх
10
-10.274
20
-16.760
11
-10.347
21
-16.760
0
LINE
8
медь верх
10
8.359
20
-16.718
11
8.288
21
-16.718
0
LINE
8
медь верх
10
1.732
20
-16.720
11
0.364
21
-16.720
0
LINE
8
медь верх
10
-0.297
20
-16.720
11
-0.348
21
-16.720
0
LINE
8
медь верх
10
-1.640
20
-16.720
11
-1.732
21
-16.720
0
LINE
8
медь верх
10
-10.234
20
-16.721
11
-10.306
21
-16.721
0
LINE
8
медь верх
10
8.320
20
-16.679
11
8.247
21
-16.679
0
LINE
8
медь верх
10
1.692
20
-16.679
11
0.364
21
-16.679
0
LINE
8
медь верх
10
-0.297
20
-16.679
11
-0.348
21
-16.679
0
LINE
8
медь верх
10
-1.623
20
-16.679
11
-1.692
21
-16.679
0
LINE
8
медь верх
10
-10.193
20
-16.680
11
-10.265
21
-16.680
0
LINE
8
медь верх
10
8.279
20
-16.638
11
8.207
21
-16.638
0
LINE
8
медь верх
10
1.671
20
-16.638
11
0.364
21
-16.640
0
LINE
8
медь верх
10
-0.297
20
-16.640
11
-0.348
21
-16.640
0
LINE
8
медь верх
10
-1.623
20
-16.640
11
-1.671
21
-16.640
0
LINE
8
медь верх
10
-10.154
20
-16.640
11
-10.225
21
-16.640
0
LINE
8
медь верх
10
8.238
20
-16.598
11
8.166
21
-16.598
0
LINE
8
медь верх
10
1.671
20
-16.599
11
0.364
21
-16.599
0
LINE
8
медь верх
10
-0.297
20
-16.599
11
-0.348
21
-16.599
0
LINE
8
медь верх
10
-1.623
20
-16.599
11
-1.671
21
-16.599
0
LINE
8
медь верх
10
-10.113
20
-16.600
11
-10.185
21
-16.600
0
LINE
8
медь верх
10
8.199
20
-16.558
11
8.127
21
-16.558
0
LINE
8
медь верх
10
1.671
20
-16.558
11
0.364
21
-16.558
0
LINE
8
медь верх
10
-0.297
20
-16.558
11
-0.348
21
-16.558
0
LINE
8
медь верх
10
-1.623
20
-16.558
11
-1.671
21
-16.558
0
LINE
8
медь верх
10
-10.072
20
-16.560
11
-10.145
21
-16.560
0
LINE
8
медь верх
10
8.158
20
-16.518
11
8.086
21
-16.518
0
LINE
8
медь верх
10
1.671
20
-16.518
11
0.364
21
-16.518
0
LINE
8
медь верх
10
-0.297
20
-16.518
11
-0.348
21
-16.518
0
LINE
8
медь верх
10
-1.623
20
-16.519
11
-1.671
21
-16.519
0
LINE
8
медь верх
10
-10.033
20
-16.519
11
-10.104
21
-16.519
0
LINE
8
медь верх
10
8.118
20
-16.477
11
8.045
21
-16.477
0
LINE
8
медь верх
10
1.671
20
-16.478
11
0.364
21
-16.478
0
LINE
8
медь верх
10
-0.297
20
-16.478
11
-0.348
21
-16.478
0
LINE
8
медь верх
10
-1.623
20
-16.478
11
-1.671
21
-16.478
0
LINE
8
медь верх
10
-9.992
20
-16.480
11
-10.065
21
-16.480
0
LINE
8
медь верх
10
8.078
20
-16.436
11
8.006
21
-16.436
0
LINE
8
медь верх
10
1.671
20
-16.438
11
0.364
21
-16.438
0
LINE
8
медь верх
10
-0.297
20
-16.438
11
-0.348
21
-16.438
0
LINE
8
медь верх
10
-1.623
20
-16.438
11
-1.671
21
-16.438
0
LINE
8
медь верх
10
-9.952
20
-16.439
11
-10.024
21
-16.439
0
LINE
8
медь верх
10
8.038
20
-16.397
11
7.965
21
-16.397
0
LINE
8
медь верх
10
1.671
20
-16.397
11
0.364
21
-16.397
0
LINE
8
медь верх
10
-0.297
20
-16.397
11
-0.348
21
-16.397
0
LINE
8
медь верх
10
-1.623
20
-16.398
11
-1.671
21
-16.398
0
LINE
8
медь верх
10
-9.911
20
-16.398
11
-9.983
21
-16.398
0
LINE
8
медь верх
10
7.997
20
-16.356
11
7.925
21
-16.356
0
LINE
8
медь верх
10
1.671
20
-16.358
11
0.364
21
-16.358
0
LINE
8
медь верх
10
-0.297
20
-16.358
11
-0.348
21
-16.358
0
LINE
8
медь верх
10
-1.623
20
-16.358
11
-1.671
21
-16.358
0
LINE
8
медь верх
10
-9.872
20
-16.358
11
-9.944
21
-16.358
0
LINE
8
медь верх
10
7.957
20
-16.316
11
7.885
21
-16.316
0
LINE
8
медь верх
10
1.671
20
-16.317
11
0.364
21
-16.317
0
LINE
8
медь верх
10
-0.297
20
-16.317
11
-0.348
21
-16.317
0
LINE
8
медь верх
10
-1.623
20
-16.317
11
-1.671
21
-16.317
0
LINE
8
медь верх
10
-9.831
20
-16.318
11
-9.903
21
-16.318
0
LINE
8
медь верх
10
7.917
20
-16.276
11
7.845
21
-16.276
0
LINE
8
медь верх
10
1.671
20
-16.276
11
0.364
21
-16.276
0
LINE
8
медь верх
10
-0.297
20
-16.276
11
-0.348
21
-16.276
0
LINE
8
медь верх
10
-1.623
20
-16.276
11
-1.671
21
-16.276
0
LINE
8
медь верх
10
-9.790
20
-16.278
11
-9.863
21
-16.278
0
LINE
8
медь верх
10
7.877
20
-16.236
11
7.804
21
-16.236
0
LINE
8
медь верх
10
1.671
20
-16.236
11
0.364
21
-16.237
0
LINE
8
медь верх
10
-0.297
20
-16.237
11
-0.348
21
-16.237
0
LINE
8
медь верх
10
-1.623
20
-16.237
11
-1.671
21
-16.237
0
LINE
8
медь верх
10
-9.751
20
-16.237
11
-9.822
21
-16.237
0
LINE
8
медь верх
10
7.836
20
-16.195
11
7.760
21
-16.195
0
LINE
8
медь верх
10
1.695
20
-16.196
11
0.364
21
-16.196
0
LINE
8
медь верх
10
-0.297
20
-16.196
11
-0.348
21
-16.196
0
LINE
8
медь верх
10
-1.623
20
-16.196
11
-1.694
21
-16.196
0
LINE
8
медь верх
10
-9.707
20
-16.198
11
-9.783
21
-16.198
0
LINE
8
медь верх
10
7.781
20
-16.156
11
7.699
21
-16.156
0
LINE
8
медь верх
10
1.735
20
-16.156
11
0.364
21
-16.156
0
LINE
8
медь верх
10
-0.297
20
-16.156
11
-0.348
21
-16.156
0
LINE
8
медь верх
10
-1.643
20
-16.156
11
-1.735
21
-16.156
0
LINE
8
медь верх
10
-9.646
20
-16.157
11
-9.728
21
-16.157
0
LINE
8
медь верх
10
7.722
20
-16.115
11
7.574
21
-16.115
0
LINE
8
медь верх
10
1.775
20
-16.115
11
0.364
21
-16.115
0
LINE
8
медь верх
10
-0.297
20
-16.116
11
-0.348
21
-16.116
0
LINE
8
медь верх
10
-1.683
20
-16.116
11
-1.775
21
-16.116
0
LINE
8
медь верх
10
-9.528
20
-16.116
11
-9.669
21
-16.116
0
LINE
8
медь верх
10
7.606
20
-16.074
11
6.966
21
-16.074
0
LINE
8
медь верх
10
5.711
20
-16.074
11
3.983
21
-16.074
0
LINE
8
медь верх
10
1.816
20
-16.076
11
0.364
21
-16.076
0
LINE
8
медь верх
10
-0.297
20
-16.076
11
-0.348
21
-16.076
0
LINE
8
медь верх
10
-1.723
20
-16.076
11
-1.815
21
-16.076
0
LINE
8
медь верх
10
-3.984
20
-16.076
11
-6.032
21
-16.076
0
LINE
8
медь верх
10
-7.286
20
-16.076
11
-9.559
21
-16.077
0
LINE
8
медь верх
10
7.151
20
-16.035
11
6.930
21
-16.035
0
LINE
8
медь верх
10
5.748
20
-16.035
11
3.942
21
-16.035
0
LINE
8
медь верх
10
1.855
20
-16.035
11
0.364
21
-16.035
0
LINE
8
медь верх
10
-0.297
20
-16.035
11
-0.348
21
-16.035
0
LINE
8
медь верх
10
-1.751
20
-16.035
11
-1.855
21
-16.035
0
LINE
8
медь верх
10
-3.943
20
-16.035
11
-4.224
21
-16.035
0
LINE
8
медь верх
10
-5.902
20
-16.036
11
-6.032
21
-16.036
0
LINE
8
медь верх
10
-7.286
20
-16.036
11
-7.417
21
-16.036
0
LINE
8
медь верх
10
7.090
20
-15.994
11
6.890
21
-15.994
0
LINE
8
медь верх
10
5.789
20
-15.994
11
3.903
21
-15.994
0
LINE
8
медь верх
10
1.896
20
-15.994
11
0.364
21
-15.994
0
LINE
8
медь верх
10
-0.297
20
-15.994
11
-0.348
21
-15.994
0
LINE
8
медь верх
10
-1.777
20
-15.996
11
-1.896
21
-15.996
0
LINE
8
медь верх
10
-3.903
20
-15.996
11
-4.163
21
-15.996
0
LINE
8
медь верх
10
-5.963
20
-15.996
11
-6.058
21
-15.996
0
LINE
8
медь верх
10
-7.262
20
-15.996
11
-7.357
21
-15.996
0
LINE
8
медь верх
10
7.060
20
-15.954
11
6.849
21
-15.954
0
LINE
8
медь верх
10
5.828
20
-15.954
11
0.364
21
-15.955
0
LINE
8
медь верх
10
-0.297
20
-15.955
11
-0.348
21
-15.955
0
LINE
8
медь верх
10
-1.784
20
-15.955
11
-4.133
21
-15.955
0
LINE
8
медь верх
10
-6.006
20
-15.955
11
-6.097
21
-15.955
0
LINE
8
медь верх
10
-7.221
20
-15.955
11
-7.314
21
-15.955
0
LINE
8
медь верх
10
7.035
20
-15.913
11
6.810
21
-15.913
0
LINE
8
медь верх
10
5.869
20
-15.914
11
0.364
21
-15.914
0
LINE
8
медь верх
10
-0.297
20
-15.914
11
-0.348
21
-15.914
0
LINE
8
медь верх
10
-1.793
20
-15.914
11
-4.105
21
-15.914
0
LINE
8
медь верх
10
-6.045
20
-15.916
11
-6.138
21
-15.916
0
LINE
8
медь верх
10
-7.181
20
-15.916
11
-7.273
21
-15.916
0
LINE
8
медь верх
10
7.026
20
-15.874
11
0.364
21
-15.874
0
LINE
8
медь верх
10
-0.297
20
-15.874
11
-0.348
21
-15.874
0
LINE
8
медь верх
10
-1.787
20
-15.874
11
-4.097
21
-15.875
0
LINE
8
медь верх
10
-6.086
20
-15.875
11
-6.179
21
-15.875
0
LINE
8
медь верх
10
-7.141
20
-15.875
11
-7.233
21
-15.875
0
LINE
8
медь верх
10
7.018
20
-15.833
11
0.364
21
-15.834
0
LINE
8
медь верх
10
-0.297
20
-15.834
11
-0.348
21
-15.834
0
LINE
8
медь верх
10
-1.778
20
-15.834
11
-4.089
21
-15.834
0
LINE
8
медь верх
10
-6.126
20
-15.834
11
-6.328
21
-15.834
0
LINE
8
медь верх
10
-6.991
20
-15.834
11
-7.192
21
-15.834
0
LINE
8
медь верх
10
7.017
20
-15.792
11
0.364
21
-15.794
0
LINE
8
медь верх
10
-0.297
20
-15.794
11
-0.348
21
-15.794
0
LINE
8
медь верх
10
-1.758
20
-15.794
11
-4.094
21
-15.794
0
LINE
8
медь верх
10
-6.167
20
-15.794
11
-6.328
21
-15.794
0
LINE
8
медь верх
10
-6.991
20
-15.794
11
-7.153
21
-15.795
0
LINE
8
медь верх
10
7.017
20
-15.753
11
0.364
21
-15.753
0
LINE
8
медь верх
10
-0.297
20
-15.753
11
-0.348
21
-15.753
0
LINE
8
медь верх
10
-1.730
20
-15.753
11
-4.102
21
-15.754
0
LINE
8
медь верх
10
-6.206
20
-15.754
11
-6.328
21
-15.754
0
LINE
8
медь верх
10
-6.991
20
-15.754
11
-7.112
21
-15.754
0
LINE
8
медь верх
10
7.017
20
-15.712
11
0.364
21
-15.714
0
LINE
8
медь верх
10
-0.297
20
-15.714
11
-0.348
21
-15.714
0
LINE
8
медь верх
10
-1.692
20
-15.714
11
-4.122
21
-15.714
0
LINE
8
медь верх
10
-6.234
20
-15.714
11
-6.328
21
-15.714
0
LINE
8
медь верх
10
-6.991
20
-15.714
11
-7.084
21
-15.714
0
LINE
8
медь верх
10
7.017
20
-15.672
11
0.364
21
-15.673
0
LINE
8
медь верх
10
-0.297
20
-15.673
11
-0.348
21
-15.673
0
LINE
8
медь верх
10
-1.651
20
-15.673
11
-4.149
21
-15.673
0
LINE
8
медь верх
10
-6.260
20
-15.673
11
-6.328
21
-15.673
0
LINE
8
медь верх
10
-6.991
20
-15.673
11
-7.059
21
-15.673
0
LINE
8
медь верх
10
7.017
20
-15.632
11
3.904
21
-15.632
0
LINE
8
медь верх
10
1.895
20
-15.632
11
0.364
21
-15.632
0
LINE
8
медь верх
10
-0.297
20
-15.632
11
-0.348
21
-15.632
0
LINE
8
медь верх
10
-1.624
20
-15.632
11
-1.703
21
-15.632
0
LINE
8
медь верх
10
-4.094
20
-15.632
11
-4.174
21
-15.632
0
LINE
8
медь верх
10
-6.267
20
-15.634
11
-6.328
21
-15.634
0
LINE
8
медь верх
10
-6.991
20
-15.634
11
-7.051
21
-15.634
0
LINE
8
медь верх
10
7.017
20
-15.592
11
3.945
21
-15.592
0
LINE
8
медь верх
10
1.854
20
-15.592
11
0.364
21
-15.592
0
LINE
8
медь верх
10
-0.297
20
-15.592
11
-0.348
21
-15.592
0
LINE
8
медь верх
10
-1.624
20
-15.593
11
-1.673
21
-15.593
0
LINE
8
медь верх
10
-4.126
20
-15.593
11
-4.174
21
-15.593
0
LINE
8
медь верх
10
-6.276
20
-15.593
11
-6.328
21
-15.593
0
LINE
8
медь верх
10
-6.991
20
-15.593
11
-7.042
21
-15.593
0
LINE
8
медь верх
10
7.017
20
-15.551
11
3.985
21
-15.551
0
LINE
8
медь верх
10
1.815
20
-15.552
11
0.364
21
-15.552
0
LINE
8
медь верх
10
-0.297
20
-15.552
11
-0.348
21
-15.552
0
LINE
8
медь верх
10
-1.624
20
-15.552
11
-1.673
21
-15.552
0
LINE
8
медь верх
10
-4.126
20
-15.552
11
-4.174
21
-15.552
0
LINE
8
медь верх
10
-6.276
20
-15.552
11
-6.328
21
-15.552
0
LINE
8
медь верх
10
-6.991
20
-15.552
11
-7.042
21
-15.552
0
LINE
8
медь верх
10
7.017
20
-15.512
11
4.025
21
-15.512
0
LINE
8
медь верх
10
1.774
20
-15.512
11
0.364
21
-15.512
0
LINE
8
медь верх
10
-0.297
20
-15.512
11
-0.348
21
-15.512
0
LINE
8
медь верх
10
-1.624
20
-15.512
11
-1.673
21
-15.512
0
LINE
8
медь верх
10
-4.126
20
-15.512
11
-4.174
21
-15.512
0
LINE
8
медь верх
10
-6.276
20
-15.513
11
-6.328
21
-15.513
0
LINE
8
медь верх
10
-6.991
20
-15.513
11
-7.042
21
-15.513
0
LINE
8
медь верх
10
7.017
20
-15.471
11
4.065
21
-15.471
0
LINE
8
медь верх
10
1.734
20
-15.471
11
0.364
21
-15.471
0
LINE
8
медь верх
10
-0.297
20
-15.471
11
-0.348
21
-15.471
0
LINE
8
медь верх
10
-1.624
20
-15.472
11
-1.673
21
-15.472
0
LINE
8
медь верх
10
-4.126
20
-15.472
11
-4.174
21
-15.472
0
LINE
8
медь верх
10
-6.276
20
-15.472
11
-6.328
21
-15.472
0
LINE
8
медь верх
10
-6.991
20
-15.472
11
-7.042
21
-15.472
0
LINE
8
медь верх
10
7.017
20
-15.430
11
4.106
21
-15.430
0
LINE
8
медь верх
10
1.693
20
-15.432
11
0.364
21
-15.432
0
LINE
8
медь верх
10
-0.297
20
-15.432
11
-0.348
21
-15.432
0
LINE
8
медь верх
10
-1.624
20
-15.432
11
-1.673
21
-15.432
0
LINE
8
медь верх
10
-4.126
20
-15.432
11
-4.174
21
-15.432
0
LINE
8
медь верх
10
-6.276
20
-15.432
11
-6.328
21
-15.432
0
LINE
8
медь верх
10
-6.991
20
-15.432
11
-7.042
21
-15.432
0
LINE
8
медь верх
10
7.017
20
-15.390
11
4.127
21
-15.391
0
LINE
8
медь верх
10
1.671
20
-15.391
11
0.364
21
-15.391
0
LINE
8
медь верх
10
-0.297
20
-15.391
11
-0.348
21
-15.391
0
LINE
8
медь верх
10
-1.624
20
-15.391
11
-1.673
21
-15.391
0
LINE
8
медь верх
10
-4.126
20
-15.391
11
-4.174
21
-15.391
0
LINE
8
медь верх
10
-6.276
20
-15.391
11
-6.328
21
-15.391
0
LINE
8
медь верх
10
-6.991
20
-15.392
11
-7.042
21
-15.392
0
LINE
8
медь верх
10
7.017
20
-15.350
11
4.127
21
-15.350
0
LINE
8
медь верх
10
1.671
20
-15.350
11
0.364
21
-15.350
0
LINE
8
медь верх
10
-0.297
20
-15.350
11
-0.348
21
-15.350
0
LINE
8
медь верх
10
-1.624
20
-15.350
11
-1.673
21
-15.350
0
LINE
8
медь верх
10
-4.126
20
-15.352
11
-4.174
21
-15.352
0
LINE
8
медь верх
10
-6.276
20
-15.352
11
-6.328
21
-15.352
0
LINE
8
медь верх
10
-6.991
20
-15.352
11
-7.042
21
-15.352
0
LINE
8
медь верх
10
7.015
20
-15.310
11
6.815
21
-15.310
0
LINE
8
медь верх
10
5.864
20
-15.310
11
4.127
21
-15.310
0
LINE
8
медь верх
10
1.671
20
-15.310
11
0.364
21
-15.311
0
LINE
8
медь верх
10
-0.297
20
-15.311
11
-0.348
21
-15.311
0
LINE
8
медь верх
10
-1.624
20
-15.311
11
-1.673
21
-15.311
0
LINE
8
медь верх
10
-4.126
20
-15.311
11
-4.174
21
-15.311
0
LINE
8
медь верх
10
-6.276
20
-15.311
11
-6.328
21
-15.311
0
LINE
8
медь верх
10
-6.991
20
-15.311
11
-7.042
21
-15.311
0
LINE
8
медь верх
10
7.014
20
-15.269
11
6.854
21
-15.269
0
LINE
8
медь верх
10
5.824
20
-15.269
11
4.127
21
-15.270
0
LINE
8
медь верх
10
1.671
20
-15.270
11
0.364
21
-15.270
0
LINE
8
медь верх
10
-0.297
20
-15.270
11
-0.348
21
-15.270
0
LINE
8
медь верх
10
-1.624
20
-15.270
11
-1.673
21
-15.270
0
LINE
8
медь верх
10
-4.126
20
-15.270
11
-4.174
21
-15.270
0
LINE
8
медь верх
10
-6.276
20
-15.270
11
-6.328
21
-15.270
0
LINE
8
медь верх
10
-6.991
20
-15.270
11
-7.042
21
-15.270
0
LINE
8
медь верх
10
7.014
20
-15.230
11
6.895
21
-15.230
0
LINE
8
медь верх
10
5.784
20
-15.230
11
4.127
21
-15.230
0
LINE
8
медь верх
10
1.671
20
-15.230
11
0.364
21
-15.230
0
LINE
8
медь верх
10
-0.297
20
-15.230
11
-0.348
21
-15.230
0
LINE
8
медь верх
10
-1.624
20
-15.230
11
-1.673
21
-15.230
0
LINE
8
медь верх
10
-4.126
20
-15.231
11
-4.174
21
-15.231
0
LINE
8
медь верх
10
-6.276
20
-15.231
11
-6.328
21
-15.231
0
LINE
8
медь верх
10
-6.991
20
-15.231
11
-7.042
21
-15.231
0
LINE
8
медь верх
10
7.014
20
-15.189
11
6.935
21
-15.189
0
LINE
8
медь верх
10
5.743
20
-15.189
11
4.127
21
-15.189
0
LINE
8
медь верх
10
1.671
20
-15.189
11
0.364
21
-15.189
0
LINE
8
медь верх
10
-0.297
20
-15.190
11
-0.348
21
-15.190
0
LINE
8
медь верх
10
-1.624
20
-15.190
11
-1.673
21
-15.190
0
LINE
8
медь верх
10
-4.126
20
-15.190
11
-4.174
21
-15.190
0
LINE
8
медь верх
10
-6.276
20
-15.190
11
-6.328
21
-15.190
0
LINE
8
медь верх
10
-6.991
20
-15.190
11
-7.042
21
-15.190
0
LINE
8
медь верх
10
7.014
20
-15.149
11
6.966
21
-15.149
0
LINE
8
медь верх
10
5.712
20
-15.149
11
4.127
21
-15.149
0
LINE
8
медь верх
10
1.671
20
-15.150
11
0.364
21
-15.150
0
LINE
8
медь верх
10
-0.297
20
-15.150
11
-0.348
21
-15.150
0
LINE
8
медь верх
10
-1.624
20
-15.150
11
-1.673
21
-15.150
0
LINE
8
медь верх
10
-4.126
20
-15.150
11
-4.174
21
-15.150
0
LINE
8
медь верх
10
-6.276
20
-15.150
11
-6.328
21
-15.150
0
LINE
8
медь верх
10
-6.991
20
-15.150
11
-7.042
21
-15.150
0
LINE
8
медь верх
10
7.014
20
-15.109
11
6.966
21
-15.109
0
LINE
8
медь верх
10
5.712
20
-15.109
11
4.127
21
-15.109
0
LINE
8
медь верх
10
1.671
20
-15.109
11
0.364
21
-15.109
0
LINE
8
медь верх
10
-0.297
20
-15.109
11
-0.348
21
-15.109
0
LINE
8
медь верх
10
-1.624
20
-15.109
11
-1.673
21
-15.109
0
LINE
8
медь верх
10
-4.126
20
-15.109
11
-4.174
21
-15.109
0
LINE
8
медь верх
10
-6.276
20
-15.110
11
-6.327
21
-15.110
0
LINE
8
медь верх
10
-6.991
20
-15.110
11
-7.042
21
-15.110
0
LINE
8
медь верх
10
7.014
20
-15.069
11
6.966
21
-15.069
0
LINE
8
медь верх
10
5.712
20
-15.069
11
4.127
21
-15.069
0
LINE
8
медь верх
10
1.671
20
-15.069
11
0.364
21
-15.069
0
LINE
8
медь верх
10
-0.297
20
-15.069
11
-0.348
21
-15.069
0
LINE
8
медь верх
10
-1.624
20
-15.070
11
-1.673
21
-15.070
0
LINE
8
медь верх
10
-4.126
20
-15.070
11
-4.174
21
-15.070
0
LINE
8
медь верх
10
-6.276
20
-15.070
11
-6.327
21
-15.070
0
LINE
8
медь верх
10
-6.991
20
-15.070
11
-7.042
21
-15.070
0
LINE
8
медь верх
10
7.014
20
-15.028
11
6.966
21
-15.028
0
LINE
8
медь верх
10
5.712
20
-15.028
11
4.127
21
-15.028
0
LINE
8
медь верх
10
1.671
20
-15.029
11
0.364
21
-15.029
0
LINE
8
медь верх
10
-0.297
20
-15.029
11
-0.348
21
-15.029
0
LINE
8
медь верх
10
-1.624
20
-15.029
11
-1.673
21
-15.029
0
LINE
8
медь верх
10
-4.126
20
-15.029
11
-4.174
21
-15.029
0
LINE
8
медь верх
10
-6.276
20
-15.029
11
-6.327
21
-15.029
0
LINE
8
медь верх
10
-6.991
20
-15.029
11
-7.042
21
-15.029
0
LINE
8
медь верх
10
7.014
20
-14.987
11
6.966
21
-14.987
0
LINE
8
медь верх
10
5.712
20
-14.989
11
4.127
21
-14.989
0
LINE
8
медь верх
10
1.671
20
-14.989
11
0.364
21
-14.989
0
LINE
8
медь верх
10
-0.297
20
-14.989
11
-0.348
21
-14.989
0
LINE
8
медь верх
10
-1.624
20
-14.989
11
-1.673
21
-14.989
0
LINE
8
медь верх
10
-4.126
20
-14.989
11
-4.174
21
-14.989
0
LINE
8
медь верх
10
-6.276
20
-14.990
11
-6.327
21
-14.990
0
LINE
8
медь верх
10
-6.991
20
-14.990
11
-7.042
21
-14.990
0
LINE
8
медь верх
10
7.014
20
-14.948
11
6.966
21
-14.948
0
LINE
8
медь верх
10
5.712
20
-14.948
11
4.106
21
-14.948
0
LINE
8
медь верх
10
1.693
20
-14.948
11
0.364
21
-14.948
0
LINE
8
медь верх
10
-0.297
20
-14.948
11
-0.348
21
-14.948
0
LINE
8
медь верх
10
-1.624
20
-14.948
11
-1.673
21
-14.948
0
LINE
8
медь верх
10
-4.126
20
-14.949
11
-4.174
21
-14.949
0
LINE
8
медь верх
10
-6.276
20
-14.949
11
-6.327
21
-14.949
0
LINE
8
медь верх
10
-6.991
20
-14.949
11
-7.042
21
-14.949
0
LINE
8
медь верх
10
7.014
20
-14.907
11
6.966
21
-14.907
0
LINE
8
медь верх
10
5.712
20
-14.907
11
4.065
21
-14.907
0
LINE
8
медь верх
10
1.734
20
-14.907
11
0.364
21
-14.909
0
LINE
8
медь верх
10
-0.297
20
-14.909
11
-0.348
21
-14.909
0
LINE
8
медь верх
10
-1.624
20
-14.909
11
-1.673
21
-14.909
0
LINE
8
медь верх
10
-4.126
20
-14.909
11
-4.174
21
-14.909
0
LINE
8
медь верх
10
-6.276
20
-14.909
11
-6.327
21
-14.909
0
LINE
8
медь верх
10
-6.991
20
-14.909
11
-7.042
21
-14.909
0
LINE
8
медь верх
10
7.014
20
-14.867
11
6.966
21
-14.867
0
LINE
8
медь верх
10
5.712
20
-14.867
11
4.025
21
-14.868
0
LINE
8
медь верх
10
1.773
20
-14.868
11
0.364
21
-14.868
0
LINE
8
медь верх
10
-0.297
20
-14.868
11
-0.348
21
-14.868
0
LINE
8
медь верх
10
-1.624
20
-14.868
11
-1.673
21
-14.868
0
LINE
8
медь верх
10
-4.126
20
-14.868
11
-4.174
21
-14.868
0
LINE
8
медь верх
10
-6.270
20
-14.868
11
-6.327
21
-14.868
0
LINE
8
медь верх
10
-6.991
20
-14.868
11
-7.042
21
-14.868
0
LINE
8
медь верх
10
7.014
20
-14.827
11
6.966
21
-14.827
0
LINE
8
медь верх
10
5.712
20
-14.827
11
3.985
21
-14.827
0
LINE
8
медь верх
10
1.814
20
-14.827
11
0.364
21
-14.827
0
LINE
8
медь верх
10
-0.297
20
-14.827
11
-0.348
21
-14.827
0
LINE
8
медь верх
10
-1.624
20
-14.827
11
-1.673
21
-14.827
0
LINE
8
медь верх
10
-4.126
20
-14.829
11
-4.174
21
-14.829
0
LINE
8
медь верх
10
-6.262
20
-14.829
11
-6.327
21
-14.829
0
LINE
8
медь верх
10
-6.991
20
-14.829
11
-7.042
21
-14.829
0
LINE
8
медь верх
10
7.014
20
-14.787
11
6.966
21
-14.787
0
LINE
8
медь верх
10
5.712
20
-14.787
11
3.945
21
-14.787
0
LINE
8
медь верх
10
1.854
20
-14.787
11
0.364
21
-14.788
0
LINE
8
медь верх
10
-0.297
20
-14.788
11
-0.348
21
-14.788
0
LINE
8
медь верх
10
-1.624
20
-14.788
11
-1.673
21
-14.788
0
LINE
8
медь верх
10
-4.126
20
-14.788
11
-4.174
21
-14.788
0
LINE
8
медь верх
10
-6.242
20
-14.788
11
-6.327
21
-14.788
0
LINE
8
медь верх
10
-6.991
20
-14.788
11
-7.042
21
-14.788
0
LINE
8
медь верх
10
7.014
20
-14.746
11
6.966
21
-14.746
0
LINE
8
медь верх
10
5.712
20
-14.746
11
3.904
21
-14.747
0
LINE
8
медь верх
10
1.895
20
-14.747
11
0.364
21
-14.747
0
LINE
8
медь верх
10
-0.297
20
-14.747
11
-0.348
21
-14.747
0
LINE
8
медь верх
10
-1.624
20
-14.747
11
-1.702
21
-14.747
0
LINE
8
медь верх
10
-4.097
20
-14.747
11
-4.174
21
-14.747
0
LINE
8
медь верх
10
-6.215
20
-14.747
11
-6.290
21
-14.747
0
LINE
8
медь верх
10
-6.991
20
-14.747
11
-7.042
21
-14.747
0
LINE
8
медь верх
10
7.014
20
-14.707
11
6.966
21
-14.707
0
LINE
8
медь верх
10
5.712
20
-14.707
11
0.364
21
-14.707
0
LINE
8
медь верх
10
-0.297
20
-14.707
11
-0.348
21
-14.707
0
LINE
8
медь верх
10
-1.650
20
-14.707
11
-4.149
21
-14.707
0
LINE
8
медь верх
10
-6.177
20
-14.708
11
-6.250
21
-14.708
0
LINE
8
медь верх
10
-6.991
20
-14.708
11
-7.042
21
-14.708
0
LINE
8
медь верх
10
7.014
20
-14.666
11
6.966
21
-14.666
0
LINE
8
медь верх
10
5.712
20
-14.666
11
0.364
21
-14.666
0
LINE
8
медь верх
10
-0.297
20
-14.666
11
-0.348
21
-14.666
0
LINE
8
медь верх
10
-1.690
20
-14.667
11
-4.108
21
-14.667
0
LINE
8
медь верх
10
-6.137
20
-14.667
11
-6.209
21
-14.667
0
LINE
8
медь верх
10
-6.991
20
-14.667
11
-7.041
21
-14.667
0
LINE
8
медь верх
10
7.014
20
-14.625
11
6.966
21
-14.625
0
LINE
8
медь верх
10
5.712
20
-14.625
11
0.364
21
-14.627
0
LINE
8
медь верх
10
-0.297
20
-14.627
11
-0.348
21
-14.627
0
LINE
8
медь верх
10
-6.097
20
-14.627
11
-6.170
21
-14.627
0
LINE
8
медь верх
10
-6.986
20
-14.627
11
-7.033
21
-14.627
0
LINE
8
медь верх
10
7.014
20
-14.586
11
6.966
21
-14.586
0
LINE
8
медь верх
10
5.712
20
-14.586
11
0.364
21
-14.586
0
LINE
8
медь верх
10
-0.297
20
-14.586
11
-0.348
21
-14.586
0
LINE
8
медь верх
10
-6.057
20
-14.587
11
-6.129
21
-14.587
0
LINE
8
медь верх
10
-6.979
20
-14.587
11
-7.026
21
-14.587
0
LINE
8
медь верх
10
7.014
20
-14.545
11
6.966
21
-14.545
0
LINE
8
медь верх
10
5.712
20
-14.545
11
0.364
21
-14.545
0
LINE
8
медь верх
10
-0.297
20
-14.545
11
-0.348
21
-14.545
0
LINE
8
медь верх
10
-6.016
20
-14.547
11
-6.088
21
-14.547
0
LINE
8
медь верх
10
-6.971
20
-14.547
11
-7.017
21
-14.547
0
LINE
8
медь верх
10
7.014
20
-14.505
11
6.966
21
-14.505
0
LINE
8
медь верх
10
5.712
20
-14.505
11
0.364
21
-14.506
0
LINE
8
медь верх
10
-0.297
20
-14.506
11
-0.348
21
-14.506
0
LINE
8
медь верх
10
-5.977
20
-14.506
11
-6.048
21
-14.506
0
LINE
8
медь верх
10
-6.956
20
-14.506
11
-7.009
21
-14.506
0
LINE
8
медь верх
10
7.014
20
-14.464
11
6.966
21
-14.464
0
LINE
8
медь верх
10
5.712
20
-14.465
11
0.364
21
-14.465
0
LINE
8
медь верх
10
-0.297
20
-14.465
11
-0.348
21
-14.465
0
LINE
8
медь верх
10
-5.936
20
-14.465
11
-6.008
21
-14.465
0
LINE
8
медь верх
10
-6.929
20
-14.467
11
-6.984
21
-14.467
0
LINE
8
медь верх
10
7.014
20
-14.425
11
6.966
21
-14.425
0
LINE
8
медь верх
10
5.712
20
-14.425
11
0.364
21
-14.425
0
LINE
8
медь верх
10
-0.297
20
-14.425
11
-0.348
21
-14.425
0
LINE
8
медь верх
10
-5.895
20
-14.426
11
-5.968
21
-14.426
0
LINE
8
медь верх
10
-6.901
20
-14.426
11
-6.957
21
-14.426
0
LINE
8
медь верх
10
7.014
20
-14.384
11
6.929
21
-14.384
0
LINE
8
медь верх
10
5.748
20
-14.384
11
0.364
21
-14.385
0
LINE
8
медь верх
10
-0.297
20
-14.385
11
-0.349
21
-14.385
0
LINE
8
медь верх
10
-5.856
20
-14.385
11
-5.927
21
-14.385
0
LINE
8
медь верх
10
-6.866
20
-14.385
11
-6.929
21
-14.385
0
LINE
8
медь верх
10
6.981
20
-14.343
11
6.890
21
-14.343
0
LINE
8
медь верх
10
5.789
20
-14.343
11
0.364
21
-14.345
0
LINE
8
медь верх
10
-0.297
20
-14.345
11
-0.357
21
-14.345
0
LINE
8
медь верх
10
-5.815
20
-14.345
11
-5.888
21
-14.345
0
LINE
8
медь верх
10
-6.825
20
-14.345
11
-6.897
21
-14.345
0
LINE
8
медь верх
10
6.942
20
-14.304
11
6.849
21
-14.304
0
LINE
8
медь верх
10
5.829
20
-14.304
11
0.364
21
-14.304
0
LINE
8
медь верх
10
-0.297
20
-14.304
11
-0.364
21
-14.304
0
LINE
8
медь верх
10
-5.775
20
-14.305
11
-5.847
21
-14.305
0
LINE
8
медь верх
10
-6.784
20
-14.305
11
-6.857
21
-14.305
0
LINE
8
медь верх
10
6.901
20
-14.263
11
6.808
21
-14.263
0
LINE
8
медь верх
10
5.869
20
-14.263
11
0.364
21
-14.263
0
LINE
8
медь верх
10
-0.297
20
-14.265
11
-0.390
21
-14.265
0
LINE
8
медь верх
10
-5.734
20
-14.265
11
-5.806
21
-14.265
0
LINE
8
медь верх
10
-6.745
20
-14.265
11
-6.816
21
-14.265
0
LINE
8
медь верх
10
6.861
20
-14.223
11
6.670
21
-14.223
0
LINE
8
медь верх
10
5.884
20
-14.223
11
0.364
21
-14.224
0
LINE
8
медь верх
10
-0.297
20
-14.224
11
-0.419
21
-14.224
0
LINE
8
медь верх
10
-5.693
20
-14.224
11
-5.767
21
-14.224
0
LINE
8
медь верх
10
-6.704
20
-14.224
11
-6.777
21
-14.224
0
LINE
8
медь верх
10
6.796
20
-14.183
11
6.665
21
-14.183
0
LINE
8
медь верх
10
5.843
20
-14.183
11
0.364
21
-14.183
0
LINE
8
медь верх
10
-0.297
20
-14.183
11
-0.480
21
-14.183
0
LINE
8
медь верх
10
-5.632
20
-14.185
11
-5.726
21
-14.185
0
LINE
8
медь верх
10
-6.664
20
-14.185
11
-6.736
21
-14.185
0
LINE
8
медь верх
10
6.740
20
-14.143
11
6.656
21
-14.143
0
LINE
8
медь верх
10
5.803
20
-14.143
11
0.364
21
-14.143
0
LINE
8
медь верх
10
-0.297
20
-14.143
11
-5.686
21
-14.144
0
LINE
8
медь верх
10
-6.624
20
-14.144
11
-6.695
21
-14.144
0
LINE
8
медь верх
10
6.711
20
-14.102
11
6.648
21
-14.102
0
LINE
8
медь верх
10
-6.584
20
-14.103
11
-6.656
21
-14.103
0
LINE
8
медь верх
10
6.687
20
-14.061
11
6.631
21
-14.061
0
LINE
8
медь верх
10
-6.543
20
-14.064
11
-6.615
21
-14.064
0
LINE
8
медь верх
10
6.659
20
-14.022
11
6.604
21
-14.022
0
LINE
8
медь верх
10
-6.502
20
-14.023
11
-6.575
21
-14.023
0
LINE
8
медь верх
10
6.632
20
-13.981
11
6.577
21
-13.981
0
LINE
8
медь верх
10
-6.463
20
-13.983
11
-6.535
21
-13.983
0
LINE
8
медь верх
10
6.605
20
-13.941
11
6.539
21
-13.941
0
LINE
8
медь верх
10
-6.422
20
-13.942
11
-6.495
21
-13.942
0
LINE
8
медь верх
10
6.571
20
-13.901
11
6.499
21
-13.901
0
LINE
8
медь верх
10
-6.382
20
-13.903
11
-6.454
21
-13.903
0
LINE
8
медь верх
10
6.530
20
-13.861
11
6.459
21
-13.861
0
LINE
8
медь верх
10
-6.342
20
-13.862
11
-6.414
21
-13.862
0
LINE
8
медь верх
10
6.491
20
-13.820
11
6.419
21
-13.820
0
LINE
8
медь верх
10
-6.302
20
-13.821
11
-6.374
21
-13.821
0
LINE
8
медь верх
10
6.450
20
-13.781
11
6.378
21
-13.781
0
LINE
8
медь верх
10
-6.261
20
-13.782
11
-6.333
21
-13.782
0
LINE
8
медь верх
10
6.410
20
-13.740
11
6.339
21
-13.740
0
LINE
8
медь верх
10
-6.222
20
-13.741
11
-6.293
21
-13.741
0
LINE
8
медь верх
10
6.370
20
-13.699
11
6.298
21
-13.699
0
LINE
8
медь верх
10
-6.181
20
-13.701
11
-6.253
21
-13.701
0
LINE
8
медь верх
10
6.330
20
-13.660
11
6.257
21
-13.660
0
LINE
8
медь верх
10
-6.140
20
-13.661
11
-6.213
21
-13.661
0
LINE
8
медь верх
10
6.289
20
-13.619
11
6.217
21
-13.619
0
LINE
8
медь верх
10
-6.100
20
-13.621
11
-6.172
21
-13.621
0
LINE
8
медь верх
10
6.250
20
-13.579
11
6.177
21
-13.579
0
LINE
8
медь верх
10
-6.060
20
-13.580
11
-6.133
21
-13.580
0
LINE
8
медь верх
10
6.209
20
-13.538
11
6.135
21
-13.538
0
LINE
8
медь верх
10
-6.019
20
-13.539
11
-6.092
21
-13.539
0
LINE
8
медь верх
10
6.157
20
-13.499
11
6.074
21
-13.499
0
LINE
8
медь верх
10
-5.959
20
-13.500
11
-6.040
21
-13.500
0
LINE
8
медь верх
10
6.096
20
-13.458
11
5.972
21
-13.458
0
LINE
8
медь верх
10
-5.859
20
-13.459
11
-5.980
21
-13.459
0
LINE
8
медь верх
10
6.002
20
-13.418
11
-5.890
21
-13.419
0
LINE
8
медь верх
10
12.473
20
-23.972
11
-12.473
21
-23.972
0
LINE
8
медь верх
10
-12.473
20
-23.972
11
-12.473
21
-12.677
0
LINE
8
медь верх
10
-12.473
20
-12.677
11
12.473
21
-12.677
0
LINE
8
медь верх
10
12.473
20
-12.677
11
12.473
21
-23.972
0
LINE
8
медь верх
10
12.090
20
-12.679
11
-12.090
21
-12.679
0
LINE
8
медь верх
10
-12.090
20
-12.679
11
-12.178
21
-12.697
0
LINE
8
медь верх
10
-12.178
20
-12.697
11
-12.252
21
-12.746
0
LINE
8
медь верх
10
-12.252
20
-12.746
11
-12.302
21
-12.821
0
LINE
8
медь верх
10
-12.302
20
-12.821
11
-12.320
21
-12.909
0
LINE
8
медь верх
10
-12.320
20
-12.909
11
-12.320
21
-23.590
0
LINE
8
медь верх
10
-12.320
20
-23.590
11
-12.302
21
-23.678
0
LINE
8
медь верх
10
-12.302
20
-23.678
11
-12.252
21
-23.752
0
LINE
8
медь верх
10
-12.252
20
-23.752
11
-12.178
21
-23.802
0
LINE
8
медь верх
10
-12.178
20
-23.802
11
-12.090
21
-23.819
0
LINE
8
медь верх
10
-12.090
20
-23.819
11
12.090
21
-23.819
0
LINE
8
медь верх
10
12.090
20
-23.819
11
12.178
21
-23.802
0
LINE
8
медь верх
10
12.178
20
-23.802
11
12.252
21
-23.752
0
LINE
8
медь верх
10
12.252
20
-23.752
11
12.302
21
-23.678
0
LINE
8
медь верх
10
12.302
20
-23.678
11
12.320
21
-23.590
0
LINE
8
медь верх
10
12.320
20
-23.590
11
12.320
21
-12.909
0
LINE
8
медь верх
10
12.320
20
-12.909
11
12.302
21
-12.821
0
LINE
8
медь верх
10
12.302
20
-12.821
11
12.252
21
-12.746
0
LINE
8
медь верх
10
12.252
20
-12.746
11
12.178
21
-12.697
0
LINE
8
медь верх
10
12.178
20
-12.697
11
12.090
21
-12.679
0
LINE
8
медь верх
10
-12.471
20
-23.961
11
12.471
21
-23.959
0
LINE
8
медь верх
10
-12.471
20
-23.920
11
12.471
21
-23.918
0
LINE
8
медь верх
10
-12.471
20
-23.880
11
12.471
21
-23.877
0
LINE
8
медь верх
10
-12.471
20
-23.840
11
12.471
21
-23.838
0
LINE
8
медь верх
10
12.471
20
-23.797
11
12.183
21
-23.797
0
LINE
8
медь верх
10
-12.179
20
-23.800
11
-12.471
21
-23.800
0
LINE
8
медь верх
10
12.471
20
-23.757
11
12.244
21
-23.757
0
LINE
8
медь верх
10
-12.240
20
-23.759
11
-12.471
21
-23.759
0
LINE
8
медь верх
10
12.471
20
-23.716
11
12.275
21
-23.716
0
LINE
8
медь верх
10
-12.273
20
-23.719
11
-12.471
21
-23.719
0
LINE
8
медь верх
10
12.471
20
-23.677
11
12.301
21
-23.677
0
LINE
8
медь верх
10
-12.300
20
-23.679
11
-12.471
21
-23.679
0
LINE
8
медь верх
10
12.471
20
-23.636
11
12.310
21
-23.636
0
LINE
8
медь верх
10
-12.309
20
-23.639
11
-12.471
21
-23.639
0
LINE
8
медь верх
10
12.471
20
-23.595
11
12.318
21
-23.595
0
LINE
8
медь верх
10
-12.318
20
-23.598
11
-12.471
21
-23.598
0
LINE
8
медь верх
10
12.471
20
-23.556
11
12.319
21
-23.556
0
LINE
8
медь верх
10
-12.319
20
-23.558
11
-12.471
21
-23.558
0
LINE
8
медь верх
10
12.471
20
-23.515
11
12.319
21
-23.515
0
LINE
8
медь верх
10
-12.319
20
-23.518
11
-12.471
21
-23.518
0
LINE
8
медь верх
10
12.471
20
-23.475
11
12.319
21
-23.475
0
LINE
8
медь верх
10
-12.319
20
-23.477
11
-12.471
21
-23.477
0
LINE
8
медь верх
10
12.471
20
-23.435
11
12.319
21
-23.435
0
LINE
8
медь верх
10
-12.319
20
-23.438
11
-12.471
21
-23.438
0
LINE
8
медь верх
10
12.471
20
-23.395
11
12.319
21
-23.395
0
LINE
8
медь верх
10
-12.319
20
-23.397
11
-12.471
21
-23.397
0
LINE
8
медь верх
10
12.471
20
-23.354
11
12.319
21
-23.354
0
LINE
8
медь верх
10
-12.319
20
-23.357
11
-12.471
21
-23.357
0
LINE
8
медь верх
10
12.471
20
-23.315
11
12.319
21
-23.315
0
LINE
8
медь верх
10
-12.319
20
-23.316
11
-12.471
21
-23.316
0
LINE
8
медь верх
10
12.471
20
-23.274
11
12.319
21
-23.274
0
LINE
8
медь верх
10
-12.319
20
-23.277
11
-12.471
21
-23.277
0
LINE
8
медь верх
10
12.471
20
-23.233
11
12.319
21
-23.233
0
LINE
8
медь верх
10
-12.319
20
-23.236
11
-12.471
21
-23.236
0
LINE
8
медь верх
10
12.471
20
-23.193
11
12.319
21
-23.193
0
LINE
8
медь верх
10
-12.319
20
-23.195
11
-12.471
21
-23.195
0
LINE
8
медь верх
10
12.471
20
-23.153
11
12.319
21
-23.153
0
LINE
8
медь верх
10
-12.319
20
-23.156
11
-12.471
21
-23.156
0
LINE
8
медь верх
10
12.471
20
-23.113
11
12.319
21
-23.113
0
LINE
8
медь верх
10
-12.319
20
-23.115
11
-12.471
21
-23.115
0
LINE
8
медь верх
10
12.471
20
-23.072
11
12.319
21
-23.072
0
LINE
8
медь верх
10
-12.319
20
-23.075
11
-12.471
21
-23.075
0
LINE
8
медь верх
10
12.471
20
-23.033
11
12.319
21
-23.033
0
LINE
8
медь верх
10
-12.319
20
-23.035
11
-12.471
21
-23.035
0
LINE
8
медь верх
10
12.471
20
-22.992
11
12.319
21
-22.992
0
LINE
8
медь верх
10
-12.319
20
-22.995
11
-12.471
21
-22.995
0
LINE
8
медь верх
10
12.471
20
-22.951
11
12.319
21
-22.951
0
LINE
8
медь верх
10
-12.319
20
-22.954
11
-12.471
21
-22.954
0
LINE
8
медь верх
10
12.471
20
-22.912
11
12.319
21
-22.912
0
LINE
8
медь верх
10
-12.319
20
-22.915
11
-12.471
21
-22.915
0
LINE
8
медь верх
10
12.471
20
-22.871
11
12.319
21
-22.871
0
LINE
8
медь верх
10
-12.319
20
-22.874
11
-12.471
21
-22.874
0
LINE
8
медь верх
10
12.471
20
-22.831
11
12.319
21
-22.831
0
LINE
8
медь верх
10
-12.319
20
-22.833
11
-12.471
21
-22.833
0
LINE
8
медь верх
10
12.471
20
-22.790
11
12.319
21
-22.790
0
LINE
8
медь верх
10
-12.319
20
-22.793
11
-12.471
21
-22.793
0
LINE
8
медь верх
10
12.471
20
-22.751
11
12.319
21
-22.751
0
LINE
8
медь верх
10
-12.319
20
-22.753
11
-12.471
21
-22.753
0
LINE
8
медь верх
10
12.471
20
-22.710
11
12.319
21
-22.710
0
LINE
8
медь верх
10
-12.319
20
-22.713
11
-12.471
21
-22.713
0
LINE
8
медь верх
10
12.471
20
-22.669
11
12.319
21
-22.669
0
LINE
8
медь верх
10
-12.319
20
-22.672
11
-12.471
21
-22.672
0
LINE
8
медь верх
10
12.471
20
-22.630
11
12.319
21
-22.630
0
LINE
8
медь верх
10
-12.319
20
-22.633
11
-12.471
21
-22.633
0
LINE
8
медь верх
10
12.471
20
-22.589
11
12.319
21
-22.589
0
LINE
8
медь верх
10
-12.319
20
-22.592
11
-12.471
21
-22.592
0
LINE
8
медь верх
10
12.471
20
-22.549
11
12.319
21
-22.549
0
LINE
8
медь верх
10
-12.319
20
-22.551
11
-12.471
21
-22.551
0
LINE
8
медь верх
10
12.471
20
-22.509
11
12.319
21
-22.509
0
LINE
8
медь верх
10
-12.319
20
-22.512
11
-12.471
21
-22.512
0
LINE
8
медь верх
10
12.471
20
-22.469
11
12.319
21
-22.469
0
LINE
8
медь верх
10
-12.319
20
-22.471
11
-12.471
21
-22.471
0
LINE
8
медь верх
10
12.471
20
-22.428
11
12.319
21
-22.428
0
LINE
8
медь верх
10
-12.319
20
-22.431
11
-12.471
21
-22.431
0
LINE
8
медь верх
10
12.471
20
-22.389
11
12.319
21
-22.389
0
LINE
8
медь верх
10
-12.319
20
-22.390
11
-12.471
21
-22.390
0
LINE
8
медь верх
10
12.471
20
-22.348
11
12.319
21
-22.348
0
LINE
8
медь верх
10
-12.319
20
-22.351
11
-12.471
21
-22.351
0
LINE
8
медь верх
10
12.471
20
-22.308
11
12.319
21
-22.308
0
LINE
8
медь верх
10
-12.319
20
-22.310
11
-12.471
21
-22.310
0
LINE
8
медь верх
10
12.471
20
-22.267
11
12.319
21
-22.267
0
LINE
8
медь верх
10
-12.319
20
-22.269
11
-12.471
21
-22.269
0
LINE
8
медь верх
10
12.471
20
-22.228
11
12.319
21
-22.228
0
LINE
8
медь верх
10
-12.319
20
-22.230
11
-12.471
21
-22.230
0
LINE
8
медь верх
10
12.471
20
-22.187
11
12.319
21
-22.187
0
LINE
8
медь верх
10
-12.319
20
-22.189
11
-12.471
21
-22.189
0
LINE
8
медь верх
10
12.471
20
-22.146
11
12.319
21
-22.146
0
LINE
8
медь верх
10
-12.319
20
-22.149
11
-12.471
21
-22.149
0
LINE
8
медь верх
10
12.471
20
-22.107
11
12.319
21
-22.107
0
LINE
8
медь верх
10
-12.319
20
-22.109
11
-12.471
21
-22.109
0
LINE
8
медь верх
10
12.471
20
-22.066
11
12.319
21
-22.066
0
LINE
8
медь верх
10
-12.319
20
-22.069
11
-12.471
21
-22.069
0
LINE
8
медь верх
10
12.471
20
-22.026
11
12.319
21
-22.026
0
LINE
8
медь верх
10
-12.319
20
-22.028
11
-12.471
21
-22.028
0
LINE
8
медь верх
10
12.471
20
-21.986
11
12.319
21
-21.986
0
LINE
8
медь верх
10
-12.319
20
-21.989
11
-12.471
21
-21.989
0
LINE
8
медь верх
10
12.471
20
-21.946
11
12.319
21
-21.946
0
LINE
8
медь верх
10
-12.319
20
-21.948
11
-12.471
21
-21.948
0
LINE
8
медь верх
10
12.471
20
-21.905
11
12.319
21
-21.905
0
LINE
8
медь верх
10
-12.319
20
-21.907
11
-12.471
21
-21.907
0
LINE
8
медь верх
10
12.471
20
-21.864
11
12.319
21
-21.864
0
LINE
8
медь верх
10
-12.319
20
-21.867
11
-12.471
21
-21.867
0
LINE
8
медь верх
10
12.471
20
-21.825
11
12.319
21
-21.825
0
LINE
8
медь верх
10
-12.319
20
-21.827
11
-12.471
21
-21.827
0
LINE
8
медь верх
10
12.471
20
-21.784
11
12.319
21
-21.784
0
LINE
8
медь верх
10
-12.319
20
-21.787
11
-12.471
21
-21.787
0
LINE
8
медь верх
10
12.471
20
-21.744
11
12.319
21
-21.744
0
LINE
8
медь верх
10
-12.319
20
-21.746
11
-12.471
21
-21.746
0
LINE
8
медь верх
10
12.471
20
-21.704
11
12.319
21
-21.704
0
LINE
8
медь верх
10
-12.319
20
-21.707
11
-12.471
21
-21.707
0
LINE
8
медь верх
10
12.471
20
-21.664
11
12.319
21
-21.664
0
LINE
8
медь верх
10
-12.319
20
-21.666
11
-12.471
21
-21.666
0
LINE
8
медь верх
10
12.471
20
-21.623
11
12.319
21
-21.623
0
LINE
8
медь верх
10
-12.319
20
-21.626
11
-12.471
21
-21.626
0
LINE
8
медь верх
10
12.471
20
-21.584
11
12.319
21
-21.584
0
LINE
8
медь верх
10
-12.319
20
-21.586
11
-12.471
21
-21.586
0
LINE
8
медь верх
10
12.471
20
-21.543
11
12.319
21
-21.543
0
LINE
8
медь верх
10
-12.319
20
-21.546
11
-12.471
21
-21.546
0
LINE
8
медь верх
10
12.471
20
-21.502
11
12.319
21
-21.502
0
LINE
8
медь верх
10
-12.319
20
-21.505
11
-12.471
21
-21.505
0
LINE
8
медь верх
10
12.471
20
-21.463
11
12.319
21
-21.463
0
LINE
8
медь верх
10
-12.319
20
-21.464
11
-12.471
21
-21.464
0
LINE
8
медь верх
10
12.471
20
-21.422
11
12.319
21
-21.422
0
LINE
8
медь верх
10
-12.319
20
-21.425
11
-12.471
21
-21.425
0
LINE
8
медь верх
10
12.471
20
-21.382
11
12.319
21
-21.382
0
LINE
8
медь верх
10
-12.319
20
-21.384
11
-12.471
21
-21.384
0
LINE
8
медь верх
10
12.471
20
-21.341
11
12.319
21
-21.341
0
LINE
8
медь верх
10
-12.319
20
-21.344
11
-12.471
21
-21.344
0
LINE
8
медь верх
10
12.471
20
-21.302
11
12.319
21
-21.302
0
LINE
8
медь верх
10
-12.319
20
-21.304
11
-12.471
21
-21.304
0
LINE
8
медь верх
10
12.471
20
-21.261
11
12.319
21
-21.261
0
LINE
8
медь верх
10
-12.319
20
-21.264
11
-12.471
21
-21.264
0
LINE
8
медь верх
10
12.471
20
-21.220
11
12.319
21
-21.220
0
LINE
8
медь верх
10
-12.319
20
-21.223
11
-12.471
21
-21.223
0
LINE
8
медь верх
10
12.471
20
-21.181
11
12.319
21
-21.181
0
LINE
8
медь верх
10
-12.319
20
-21.184
11
-12.471
21
-21.184
0
LINE
8
медь верх
10
12.471
20
-21.140
11
12.319
21
-21.140
0
LINE
8
медь верх
10
-12.319
20
-21.143
11
-12.471
21
-21.143
0
LINE
8
медь верх
10
12.471
20
-21.100
11
12.319
21
-21.100
0
LINE
8
медь верх
10
-12.319
20
-21.102
11
-12.471
21
-21.102
0
LINE
8
медь верх
10
12.471
20
-21.060
11
12.319
21
-21.060
0
LINE
8
медь верх
10
-12.319
20
-21.062
11
-12.471
21
-21.063
0
LINE
8
медь верх
10
12.471
20
-21.020
11
12.319
21
-21.020
0
LINE
8
медь верх
10
-12.319
20
-21.022
11
-12.471
21
-21.022
0
LINE
8
медь верх
10
12.471
20
-20.979
11
12.319
21
-20.979
0
LINE
8
медь верх
10
-12.319
20
-20.982
11
-12.471
21
-20.982
0
LINE
8
медь верх
10
12.471
20
-20.938
11
12.319
21
-20.938
0
LINE
8
медь верх
10
-12.319
20
-20.941
11
-12.471
21
-20.941
0
LINE
8
медь верх
10
12.471
20
-20.899
11
12.319
21
-20.899
0
LINE
8
медь верх
10
-12.319
20
-20.902
11
-12.471
21
-20.902
0
LINE
8
медь верх
10
12.471
20
-20.858
11
12.319
21
-20.858
0
LINE
8
медь верх
10
-12.319
20
-20.861
11
-12.471
21
-20.861
0
LINE
8
медь верх
10
12.471
20
-20.818
11
12.319
21
-20.818
0
LINE
8
медь верх
10
-12.319
20
-20.820
11
-12.471
21
-20.820
0
LINE
8
медь верх
10
12.471
20
-20.778
11
12.319
21
-20.778
0
LINE
8
медь верх
10
-12.319
20
-20.781
11
-12.471
21
-20.781
0
LINE
8
медь верх
10
12.471
20
-20.738
11
12.319
21
-20.738
0
LINE
8
медь верх
10
-12.319
20
-20.740
11
-12.471
21
-20.740
0
LINE
8
медь верх
10
12.471
20
-20.697
11
12.319
21
-20.697
0
LINE
8
медь верх
10
-12.319
20
-20.700
11
-12.471
21
-20.700
0
LINE
8
медь верх
10
12.471
20
-20.658
11
12.319
21
-20.658
0
LINE
8
медь верх
10
-12.319
20
-20.660
11
-12.471
21
-20.660
0
LINE
8
медь верх
10
12.471
20
-20.617
11
12.319
21
-20.617
0
LINE
8
медь верх
10
-12.319
20
-20.620
11
-12.471
21
-20.620
0
LINE
8
медь верх
10
12.471
20
-20.577
11
12.319
21
-20.577
0
LINE
8
медь верх
10
-12.319
20
-20.579
11
-12.471
21
-20.579
0
LINE
8
медь верх
10
12.471
20
-20.536
11
12.319
21
-20.537
0
LINE
8
медь верх
10
-12.319
20
-20.538
11
-12.471
21
-20.538
0
LINE
8
медь верх
10
12.471
20
-20.497
11
12.319
21
-20.497
0
LINE
8
медь верх
10
-12.319
20
-20.499
11
-12.471
21
-20.499
0
LINE
8
медь верх
10
12.471
20
-20.456
11
12.319
21
-20.456
0
LINE
8
медь верх
10
-12.319
20
-20.458
11
-12.471
21
-20.458
0
LINE
8
медь верх
10
12.471
20
-20.415
11
12.319
21
-20.415
0
LINE
8
медь верх
10
-12.319
20
-20.418
11
-12.471
21
-20.418
0
LINE
8
медь верх
10
12.471
20
-20.376
11
12.319
21
-20.376
0
LINE
8
медь верх
10
-12.319
20
-20.378
11
-12.471
21
-20.378
0
LINE
8
медь верх
10
12.471
20
-20.335
11
12.319
21
-20.335
0
LINE
8
медь верх
10
-12.319
20
-20.338
11
-12.471
21
-20.338
0
LINE
8
медь верх
10
12.471
20
-20.295
11
12.319
21
-20.295
0
LINE
8
медь верх
10
-12.319
20
-20.297
11
-12.471
21
-20.297
0
LINE
8
медь верх
10
12.471
20
-20.255
11
12.319
21
-20.255
0
LINE
8
медь верх
10
-12.319
20
-20.258
11
-12.471
21
-20.258
0
LINE
8
медь верх
10
12.471
20
-20.215
11
12.319
21
-20.215
0
LINE
8
медь верх
10
-12.319
20
-20.217
11
-12.471
21
-20.217
0
LINE
8
медь верх
10
12.471
20
-20.174
11
12.319
21
-20.174
0
LINE
8
медь верх
10
-12.319
20
-20.176
11
-12.471
21
-20.176
0
LINE
8
медь верх
10
12.471
20
-20.135
11
12.319
21
-20.135
0
LINE
8
медь верх
10
-12.319
20
-20.136
11
-12.471
21
-20.136
0
LINE
8
медь верх
10
12.471
20
-20.094
11
12.319
21
-20.094
0
LINE
8
медь верх
10
-12.319
20
-20.096
11
-12.471
21
-20.096
0
LINE
8
медь верх
10
12.471
20
-20.053
11
12.319
21
-20.053
0
LINE
8
медь верх
10
-12.319
20
-20.056
11
-12.471
21
-20.056
0
LINE
8
медь верх
10
12.471
20
-20.013
11
12.319
21
-20.013
0
LINE
8
медь верх
10
-12.319
20
-20.015
11
-12.471
21
-20.015
0
LINE
8
медь верх
10
12.471
20
-19.973
11
12.319
21
-19.973
0
LINE
8
медь верх
10
-12.319
20
-19.976
11
-12.471
21
-19.976
0
LINE
8
медь верх
10
12.471
20
-19.933
11
12.319
21
-19.933
0
LINE
8
медь верх
10
-12.319
20
-19.935
11
-12.471
21
-19.935
0
LINE
8
медь верх
10
12.471
20
-19.892
11
12.319
21
-19.892
0
LINE
8
медь верх
10
-12.319
20
-19.895
11
-12.471
21
-19.895
0
LINE
8
медь верх
10
12.471
20
-19.853
11
12.319
21
-19.853
0
LINE
8
медь верх
10
-12.319
20
-19.855
11
-12.471
21
-19.855
0
LINE
8
медь верх
10
12.471
20
-19.812
11
12.319
21
-19.812
0
LINE
8
медь верх
10
-12.319
20
-19.815
11
-12.471
21
-19.815
0
LINE
8
медь верх
10
12.471
20
-19.771
11
12.319
21
-19.771
0
LINE
8
медь верх
10
-12.319
20
-19.774
11
-12.471
21
-19.774
0
LINE
8
медь верх
10
12.471
20
-19.732
11
12.319
21
-19.732
0
LINE
8
медь верх
10
-12.319
20
-19.735
11
-12.471
21
-19.735
0
LINE
8
медь верх
10
12.471
20
-19.691
11
12.319
21
-19.691
0
LINE
8
медь верх
10
-12.319
20
-19.694
11
-12.471
21
-19.694
0
LINE
8
медь верх
10
12.471
20
-19.651
11
12.319
21
-19.651
0
LINE
8
медь верх
10
-12.319
20
-19.653
11
-12.471
21
-19.653
0
LINE
8
медь верх
10
12.471
20
-19.610
11
12.319
21
-19.610
0
LINE
8
медь верх
10
-12.319
20
-19.613
11
-12.471
21
-19.613
0
LINE
8
медь верх
10
12.471
20
-19.571
11
12.319
21
-19.571
0
LINE
8
медь верх
10
-12.319
20
-19.573
11
-12.471
21
-19.573
0
LINE
8
медь верх
10
12.471
20
-19.530
11
12.319
21
-19.530
0
LINE
8
медь верх
10
-12.319
20
-19.533
11
-12.471
21
-19.533
0
LINE
8
медь верх
10
12.471
20
-19.489
11
12.319
21
-19.489
0
LINE
8
медь верх
10
-12.319
20
-19.492
11
-12.471
21
-19.492
0
LINE
8
медь верх
10
12.471
20
-19.450
11
12.319
21
-19.450
0
LINE
8
медь верх
10
-12.319
20
-19.453
11
-12.471
21
-19.453
0
LINE
8
медь верх
10
12.471
20
-19.409
11
12.319
21
-19.409
0
LINE
8
медь верх
10
-12.319
20
-19.412
11
-12.471
21
-19.412
0
LINE
8
медь верх
10
12.471
20
-19.369
11
12.319
21
-19.369
0
LINE
8
медь верх
10
-12.319
20
-19.371
11
-12.471
21
-19.371
0
LINE
8
медь верх
10
12.471
20
-19.329
11
12.319
21
-19.329
0
LINE
8
медь верх
10
-12.319
20
-19.332
11
-12.471
21
-19.332
0
LINE
8
медь верх
10
12.471
20
-19.289
11
12.319
21
-19.289
0
LINE
8
медь верх
10
-12.319
20
-19.291
11
-12.471
21
-19.291
0
LINE
8
медь верх
10
12.471
20
-19.248
11
12.319
21
-19.248
0
LINE
8
медь верх
10
-12.319
20
-19.251
11
-12.471
21
-19.251
0
LINE
8
медь верх
10
12.471
20
-19.209
11
12.319
21
-19.209
0
LINE
8
медь верх
10
-12.319
20
-19.210
11
-12.471
21
-19.210
0
LINE
8
медь верх
10
12.471
20
-19.168
11
12.319
21
-19.168
0
LINE
8
медь верх
10
-12.319
20
-19.171
11
-12.471
21
-19.171
0
LINE
8
медь верх
10
12.471
20
-19.127
11
12.319
21
-19.127
0
LINE
8
медь верх
10
-12.319
20
-19.130
11
-12.471
21
-19.130
0
LINE
8
медь верх
10
12.471
20
-19.087
11
12.319
21
-19.087
0
LINE
8
медь верх
10
-12.319
20
-19.089
11
-12.471
21
-19.089
0
LINE
8
медь верх
10
12.471
20
-19.047
11
12.319
21
-19.047
0
LINE
8
медь верх
10
-12.319
20
-19.050
11
-12.471
21
-19.050
0
LINE
8
медь верх
10
12.471
20
-19.007
11
12.319
21
-19.007
0
LINE
8
медь верх
10
-12.319
20
-19.009
11
-12.471
21
-19.009
0
LINE
8
медь верх
10
12.471
20
-18.966
11
12.319
21
-18.966
0
LINE
8
медь верх
10
-12.319
20
-18.969
11
-12.471
21
-18.969
0
LINE
8
медь верх
10
12.471
20
-18.927
11
12.319
21
-18.927
0
LINE
8
медь верх
10
-12.319
20
-18.929
11
-12.471
21
-18.929
0
LINE
8
медь верх
10
12.471
20
-18.886
11
12.319
21
-18.886
0
LINE
8
медь верх
10
-12.319
20
-18.889
11
-12.471
21
-18.889
0
LINE
8
медь верх
10
12.471
20
-18.846
11
12.319
21
-18.846
0
LINE
8
медь верх
10
-12.319
20
-18.848
11
-12.471
21
-18.848
0
LINE
8
медь верх
10
12.471
20
-18.806
11
12.319
21
-18.806
0
LINE
8
медь верх
10
-12.319
20
-18.809
11
-12.471
21
-18.809
0
LINE
8
медь верх
10
12.471
20
-18.766
11
12.319
21
-18.766
0
LINE
8
медь верх
10
-12.319
20
-18.768
11
-12.471
21
-18.768
0
LINE
8
медь верх
10
12.471
20
-18.725
11
12.319
21
-18.725
0
LINE
8
медь верх
10
-12.319
20
-18.727
11
-12.471
21
-18.727
0
LINE
8
медь верх
10
12.471
20
-18.684
11
12.319
21
-18.684
0
LINE
8
медь верх
10
-12.319
20
-18.687
11
-12.471
21
-18.687
0
LINE
8
медь верх
10
12.471
20
-18.645
11
12.319
21
-18.645
0
LINE
8
медь верх
10
-12.319
20
-18.647
11
-12.471
21
-18.647
0
LINE
8
медь верх
10
12.471
20
-18.604
11
12.319
21
-18.604
0
LINE
8
медь верх
10
-12.319
20
-18.607
11
-12.471
21
-18.607
0
LINE
8
медь верх
10
12.471
20
-18.564
11
12.319
21
-18.564
0
LINE
8
медь верх
10
-12.319
20
-18.566
11
-12.471
21
-18.566
0
LINE
8
медь верх
10
12.471
20
-18.524
11
12.319
21
-18.524
0
LINE
8
медь верх
10
-12.319
20
-18.527
11
-12.471
21
-18.527
0
LINE
8
медь верх
10
12.471
20
-18.484
11
12.319
21
-18.484
0
LINE
8
медь верх
10
-12.319
20
-18.486
11
-12.471
21
-18.486
0
LINE
8
медь верх
10
12.471
20
-18.443
11
12.319
21
-18.443
0
LINE
8
медь верх
10
-12.319
20
-18.445
11
-12.471
21
-18.445
0
LINE
8
медь верх
10
12.471
20
-18.404
11
12.319
21
-18.404
0
LINE
8
медь верх
10
-12.319
20
-18.406
11
-12.471
21
-18.406
0
LINE
8
медь верх
10
12.471
20
-18.363
11
12.319
21
-18.363
0
LINE
8
медь верх
10
-12.319
20
-18.365
11
-12.471
21
-18.365
0
LINE
8
медь верх
10
12.471
20
-18.322
11
12.319
21
-18.322
0
LINE
8
медь верх
10
-12.319
20
-18.325
11
-12.471
21
-18.325
0
LINE
8
медь верх
10
12.471
20
-18.283
11
12.319
21
-18.283
0
LINE
8
медь верх
10
-12.319
20
-18.284
11
-12.471
21
-18.284
0
LINE
8
медь верх
10
12.471
20
-18.242
11
12.319
21
-18.242
0
LINE
8
медь верх
10
-12.319
20
-18.245
11
-12.471
21
-18.245
0
LINE
8
медь верх
10
12.471
20
-18.202
11
12.319
21
-18.202
0
LINE
8
медь верх
10
-12.319
20
-18.204
11
-12.471
21
-18.204
0
LINE
8
медь верх
10
12.471
20
-18.161
11
12.319
21
-18.161
0
LINE
8
медь верх
10
-12.319
20
-18.164
11
-12.471
21
-18.164
0
LINE
8
медь верх
10
12.471
20
-18.122
11
12.319
21
-18.122
0
LINE
8
медь верх
10
-12.319
20
-18.124
11
-12.471
21
-18.124
0
LINE
8
медь верх
10
12.471
20
-18.081
11
12.319
21
-18.081
0
LINE
8
медь верх
10
-12.319
20
-18.084
11
-12.471
21
-18.084
0
LINE
8
медь верх
10
12.471
20
-18.040
11
12.319
21
-18.040
0
LINE
8
медь верх
10
-12.319
20
-18.043
11
-12.471
21
-18.043
0
LINE
8
медь верх
10
12.471
20
-18.001
11
12.319
21
-18.001
0
LINE
8
медь верх
10
-12.319
20
-18.004
11
-12.471
21
-18.004
0
LINE
8
медь верх
10
12.471
20
-17.960
11
12.319
21
-17.960
0
LINE
8
медь верх
10
-12.319
20
-17.963
11
-12.471
21
-17.963
0
LINE
8
медь верх
10
12.471
20
-17.920
11
12.319
21
-17.920
0
LINE
8
медь верх
10
-12.319
20
-17.922
11
-12.471
21
-17.922
0
LINE
8
медь верх
10
12.471
20
-17.880
11
12.319
21
-17.880
0
LINE
8
медь верх
10
-12.319
20
-17.883
11
-12.471
21
-17.883
0
LINE
8
медь верх
10
12.471
20
-17.840
11
12.319
21
-17.840
0
LINE
8
медь верх
10
-12.319
20
-17.842
11
-12.471
21
-17.842
0
LINE
8
медь верх
10
12.471
20
-17.799
11
12.319
21
-17.799
0
LINE
8
медь верх
10
-12.319
20
-17.802
11
-12.471
21
-17.802
0
LINE
8
медь верх
10
12.471
20
-17.758
11
12.319
21
-17.758
0
LINE
8
медь верх
10
-12.319
20
-17.761
11
-12.471
21
-17.761
0
LINE
8
медь верх
10
12.471
20
-17.719
11
12.319
21
-17.719
0
LINE
8
медь верх
10
-12.319
20
-17.722
11
-12.471
21
-17.722
0
LINE
8
медь верх
10
12.471
20
-17.678
11
12.319
21
-17.678
0
LINE
8
медь верх
10
-12.319
20
-17.681
11
-12.471
21
-17.681
0
LINE
8
медь верх
10
12.471
20
-17.638
11
12.319
21
-17.638
0
LINE
8
медь верх
10
-12.319
20
-17.640
11
-12.471
21
-17.640
0
LINE
8
медь верх
10
12.471
20
-17.598
11
12.319
21
-17.598
0
LINE
8
медь верх
10
-12.319
20
-17.601
11
-12.471
21
-17.601
0
LINE
8
медь верх
10
12.471
20
-17.558
11
12.319
21
-17.558
0
LINE
8
медь верх
10
-12.319
20
-17.560
11
-12.471
21
-17.560
0
LINE
8
медь верх
10
12.471
20
-17.517
11
12.319
21
-17.517
0
LINE
8
медь верх
10
-12.319
20
-17.520
11
-12.471
21
-17.520
0
LINE
8
медь верх
10
12.471
20
-17.478
11
12.319
21
-17.478
0
LINE
8
медь верх
10
-12.319
20
-17.480
11
-12.471
21
-17.480
0
LINE
8
медь верх
10
12.471
20
-17.437
11
12.319
21
-17.437
0
LINE
8
медь верх
10
-12.319
20
-17.440
11
-12.471
21
-17.440
0
LINE
8
медь верх
10
12.471
20
-17.396
11
12.319
21
-17.396
0
LINE
8
медь верх
10
-12.319
20
-17.399
11
-12.471
21
-17.399
0
LINE
8
медь верх
10
12.471
20
-17.357
11
12.319
21
-17.357
0
LINE
8
медь верх
10
-12.319
20
-17.358
11
-12.471
21
-17.358
0
LINE
8
медь верх
10
12.471
20
-17.316
11
12.319
21
-17.316
0
LINE
8
медь верх
10
-12.319
20
-17.319
11
-12.471
21
-17.319
0
LINE
8
медь верх
10
12.471
20
-17.276
11
12.319
21
-17.276
0
LINE
8
медь верх
10
-12.319
20
-17.278
11
-12.471
21
-17.278
0
LINE
8
медь верх
10
12.471
20
-17.235
11
12.319
21
-17.235
0
LINE
8
медь верх
10
-12.319
20
-17.238
11
-12.471
21
-17.238
0
LINE
8
медь верх
10
12.471
20
-17.196
11
12.319
21
-17.196
0
LINE
8
медь верх
10
-12.319
20
-17.198
11
-12.471
21
-17.198
0
LINE
8
медь верх
10
12.471
20
-17.155
11
12.319
21
-17.155
0
LINE
8
медь верх
10
-12.319
20
-17.158
11
-12.471
21
-17.158
0
LINE
8
медь верх
10
12.471
20
-17.115
11
12.319
21
-17.115
0
LINE
8
медь верх
10
-12.319
20
-17.117
11
-12.471
21
-17.117
0
LINE
8
медь верх
10
12.471
20
-17.075
11
12.319
21
-17.075
0
LINE
8
медь верх
10
-12.319
20
-17.078
11
-12.471
21
-17.078
0
LINE
8
медь верх
10
12.471
20
-17.035
11
12.319
21
-17.035
0
LINE
8
медь верх
10
-12.319
20
-17.037
11
-12.471
21
-17.037
0
LINE
8
медь верх
10
12.471
20
-16.994
11
12.319
21
-16.994
0
LINE
8
медь верх
10
-12.319
20
-16.996
11
-12.471
21
-16.996
0
LINE
8
медь верх
10
12.471
20
-16.954
11
12.319
21
-16.954
0
LINE
8
медь верх
10
-12.319
20
-16.956
11
-12.471
21
-16.957
0
LINE
8
медь верх
10
12.471
20
-16.914
11
12.319
21
-16.914
0
LINE
8
медь верх
10
-12.319
20
-16.916
11
-12.471
21
-16.916
0
LINE
8
медь верх
10
12.471
20
-16.873
11
12.319
21
-16.873
0
LINE
8
медь верх
10
-12.319
20
-16.876
11
-12.471
21
-16.876
0
LINE
8
медь верх
10
12.471
20
-16.833
11
12.319
21
-16.833
0
LINE
8
медь верх
10
-12.319
20
-16.835
11
-12.471
21
-16.835
0
LINE
8
медь верх
10
12.471
20
-16.793
11
12.319
21
-16.793
0
LINE
8
медь верх
10
-12.319
20
-16.796
11
-12.471
21
-16.796
0
LINE
8
медь верх
10
12.471
20
-16.753
11
12.319
21
-16.753
0
LINE
8
медь верх
10
-12.319
20
-16.755
11
-12.471
21
-16.755
0
LINE
8
медь верх
10
12.471
20
-16.712
11
12.319
21
-16.712
0
LINE
8
медь верх
10
-12.319
20
-16.714
11
-12.471
21
-16.714
0
LINE
8
медь верх
10
12.471
20
-16.673
11
12.319
21
-16.673
0
LINE
8
медь верх
10
-12.319
20
-16.675
11
-12.471
21
-16.675
0
LINE
8
медь верх
10
12.471
20
-16.632
11
12.319
21
-16.632
0
LINE
8
медь верх
10
-12.319
20
-16.634
11
-12.471
21
-16.634
0
LINE
8
медь верх
10
12.471
20
-16.591
11
12.319
21
-16.591
0
LINE
8
медь верх
10
-12.319
20
-16.594
11
-12.471
21
-16.594
0
LINE
8
медь верх
10
12.471
20
-16.552
11
12.319
21
-16.552
0
LINE
8
медь верх
10
-12.319
20
-16.554
11
-12.471
21
-16.554
0
LINE
8
медь верх
10
12.471
20
-16.511
11
12.319
21
-16.511
0
LINE
8
медь верх
10
-12.319
20
-16.514
11
-12.471
21
-16.514
0
LINE
8
медь верх
10
12.471
20
-16.471
11
12.319
21
-16.471
0
LINE
8
медь верх
10
-12.319
20
-16.473
11
-12.471
21
-16.473
0
LINE
8
медь верх
10
12.471
20
-16.430
11
12.319
21
-16.431
0
LINE
8
медь верх
10
-12.319
20
-16.433
11
-12.471
21
-16.433
0
LINE
8
медь верх
10
12.471
20
-16.391
11
12.319
21
-16.391
0
LINE
8
медь верх
10
-12.319
20
-16.393
11
-12.471
21
-16.393
0
LINE
8
медь верх
10
12.471
20
-16.350
11
12.319
21
-16.350
0
LINE
8
медь верх
10
-12.319
20
-16.353
11
-12.471
21
-16.353
0
LINE
8
медь верх
10
12.471
20
-16.309
11
12.319
21
-16.309
0
LINE
8
медь верх
10
-12.319
20
-16.312
11
-12.471
21
-16.312
0
LINE
8
медь верх
10
12.471
20
-16.270
11
12.319
21
-16.270
0
LINE
8
медь верх
10
-12.319
20
-16.273
11
-12.471
21
-16.273
0
LINE
8
медь верх
10
12.471
20
-16.229
11
12.319
21
-16.229
0
LINE
8
медь верх
10
-12.319
20
-16.232
11
-12.471
21
-16.232
0
LINE
8
медь верх
10
12.471
20
-16.189
11
12.319
21
-16.189
0
LINE
8
медь верх
10
-12.319
20
-16.191
11
-12.471
21
-16.191
0
LINE
8
медь верх
10
12.471
20
-16.149
11
12.319
21
-16.149
0
LINE
8
медь верх
10
-12.319
20
-16.152
11
-12.471
21
-16.152
0
LINE
8
медь верх
10
12.471
20
-16.109
11
12.319
21
-16.109
0
LINE
8
медь верх
10
-12.319
20
-16.111
11
-12.471
21
-16.111
0
LINE
8
медь верх
10
12.471
20
-16.068
11
12.319
21
-16.068
0
LINE
8
медь верх
10
-12.319
20
-16.071
11
-12.471
21
-16.071
0
LINE
8
медь верх
10
12.471
20
-16.029
11
12.319
21
-16.029
0
LINE
8
медь верх
10
-12.319
20
-16.030
11
-12.471
21
-16.030
0
LINE
8
медь верх
10
12.471
20
-15.988
11
12.319
21
-15.988
0
LINE
8
медь верх
10
-12.319
20
-15.991
11
-12.471
21
-15.991
0
LINE
8
медь верх
10
12.471
20
-15.947
11
12.319
21
-15.947
0
LINE
8
медь верх
10
-12.319
20
-15.950
11
-12.471
21
-15.950
0
LINE
8
медь верх
10
12.471
20
-15.907
11
12.319
21
-15.907
0
LINE
8
медь верх
10
-12.319
20
-15.909
11
-12.471
21
-15.909
0
LINE
8
медь верх
10
12.471
20
-15.867
11
12.319
21
-15.867
0
LINE
8
медь верх
10
-12.319
20
-15.870
11
-12.471
21
-15.870
0
LINE
8
медь верх
10
12.471
20
-15.827
11
12.319
21
-15.827
0
LINE
8
медь верх
10
-12.319
20
-15.829
11
-12.471
21
-15.829
0
LINE
8
медь верх
10
12.471
20
-15.786
11
12.319
21
-15.786
0
LINE
8
медь верх
10
-12.319
20
-15.789
11
-12.471
21
-15.789
0
LINE
8
медь верх
10
12.471
20
-15.747
11
12.319
21
-15.747
0
LINE
8
медь верх
10
-12.319
20
-15.749
11
-12.471
21
-15.749
0
LINE
8
медь верх
10
12.471
20
-15.706
11
12.319
21
-15.706
0
LINE
8
медь верх
10
-12.319
20
-15.709
11
-12.471
21
-15.709
0
LINE
8
медь верх
10
12.471
20
-15.665
11
12.319
21
-15.665
0
LINE
8
медь верх
10
-12.319
20
-15.668
11
-12.471
21
-15.668
0
LINE
8
медь верх
10
12.471
20
-15.626
11
12.319
21
-15.626
0
LINE
8
медь верх
10
-12.319
20
-15.629
11
-12.471
21
-15.629
0
LINE
8
медь верх
10
12.471
20
-15.585
11
12.319
21
-15.585
0
LINE
8
медь верх
10
-12.319
20
-15.588
11
-12.471
21
-15.588
0
LINE
8
медь верх
10
12.471
20
-15.545
11
12.319
21
-15.545
0
LINE
8
медь верх
10
-12.319
20
-15.547
11
-12.471
21
-15.547
0
LINE
8
медь верх
10
12.471
20
-15.504
11
12.319
21
-15.504
0
LINE
8
медь верх
10
-12.319
20
-15.507
11
-12.471
21
-15.507
0
LINE
8
медь верх
10
12.471
20
-15.465
11
12.319
21
-15.465
0
LINE
8
медь верх
10
-12.319
20
-15.467
11
-12.471
21
-15.467
0
LINE
8
медь верх
10
12.471
20
-15.424
11
12.319
21
-15.424
0
LINE
8
медь верх
10
-12.319
20
-15.427
11
-12.471
21
-15.427
0
LINE
8
медь верх
10
12.471
20
-15.384
11
12.319
21
-15.384
0
LINE
8
медь верх
10
-12.319
20
-15.386
11
-12.471
21
-15.386
0
LINE
8
медь верх
10
12.471
20
-15.344
11
12.319
21
-15.344
0
LINE
8
медь верх
10
-12.319
20
-15.347
11
-12.471
21
-15.347
0
LINE
8
медь верх
10
12.471
20
-15.304
11
12.319
21
-15.304
0
LINE
8
медь верх
10
-12.319
20
-15.306
11
-12.471
21
-15.306
0
LINE
8
медь верх
10
12.471
20
-15.263
11
12.319
21
-15.263
0
LINE
8
медь верх
10
-12.319
20
-15.265
11
-12.471
21
-15.265
0
LINE
8
медь верх
10
12.471
20
-15.223
11
12.319
21
-15.223
0
LINE
8
медь верх
10
-12.319
20
-15.226
11
-12.471
21
-15.226
0
LINE
8
медь верх
10
12.471
20
-15.183
11
12.319
21
-15.183
0
LINE
8
медь верх
10
-12.319
20
-15.185
11
-12.471
21
-15.185
0
LINE
8
медь верх
10
12.471
20
-15.142
11
12.319
21
-15.142
0
LINE
8
медь верх
10
-12.319
20
-15.145
11
-12.471
21
-15.145
0
LINE
8
медь верх
10
12.471
20
-15.103
11
12.319
21
-15.103
0
LINE
8
медь верх
10
-12.319
20
-15.104
11
-12.471
21
-15.104
0
LINE
8
медь верх
10
12.471
20
-15.062
11
12.319
21
-15.062
0
LINE
8
медь верх
10
-12.319
20
-15.065
11
-12.471
21
-15.065
0
LINE
8
медь верх
10
12.471
20
-15.022
11
12.319
21
-15.022
0
LINE
8
медь верх
10
-12.319
20
-15.024
11
-12.471
21
-15.024
0
LINE
8
медь верх
10
12.471
20
-14.981
11
12.319
21
-14.981
0
LINE
8
медь верх
10
-12.319
20
-14.983
11
-12.471
21
-14.983
0
LINE
8
медь верх
10
12.471
20
-14.942
11
12.319
21
-14.942
0
LINE
8
медь верх
10
-12.319
20
-14.944
11
-12.471
21
-14.944
0
LINE
8
медь верх
10
12.471
20
-14.901
11
12.319
21
-14.901
0
LINE
8
медь верх
10
-12.319
20
-14.903
11
-12.471
21
-14.903
0
LINE
8
медь верх
10
12.471
20
-14.860
11
12.319
21
-14.860
0
LINE
8
медь верх
10
-12.319
20
-14.863
11
-12.471
21
-14.863
0
LINE
8
медь верх
10
12.471
20
-14.821
11
12.319
21
-14.821
0
LINE
8
медь верх
10
-12.319
20
-14.823
11
-12.471
21
-14.823
0
LINE
8
медь верх
10
12.471
20
-14.780
11
12.319
21
-14.780
0
LINE
8
медь верх
10
-12.319
20
-14.783
11
-12.471
21
-14.783
0
LINE
8
медь верх
10
12.471
20
-14.740
11
12.319
21
-14.740
0
LINE
8
медь верх
10
-12.319
20
-14.742
11
-12.471
21
-14.742
0
LINE
8
медь верх
10
12.471
20
-14.700
11
12.319
21
-14.700
0
LINE
8
медь верх
10
-12.319
20
-14.703
11
-12.471
21
-14.703
0
LINE
8
медь верх
10
12.471
20
-14.660
11
12.319
21
-14.660
0
LINE
8
медь верх
10
-12.319
20
-14.662
11
-12.471
21
-14.662
0
LINE
8
медь верх
10
12.471
20
-14.619
11
12.319
21
-14.619
0
LINE
8
медь верх
10
-12.319
20
-14.622
11
-12.471
21
-14.622
0
LINE
8
медь верх
10
12.471
20
-14.578
11
12.319
21
-14.578
0
LINE
8
медь верх
10
-12.319
20
-14.581
11
-12.471
21
-14.581
0
LINE
8
медь верх
10
12.471
20
-14.539
11
12.319
21
-14.539
0
LINE
8
медь верх
10
-12.319
20
-14.541
11
-12.471
21
-14.541
0
LINE
8
медь верх
10
12.471
20
-14.498
11
12.319
21
-14.498
0
LINE
8
медь верх
10
-12.319
20
-14.501
11
-12.471
21
-14.501
0
LINE
8
медь верх
10
12.471
20
-14.458
11
12.319
21
-14.458
0
LINE
8
медь верх
10
-12.319
20
-14.460
11
-12.471
21
-14.460
0
LINE
8
медь верх
10
12.471
20
-14.418
11
12.319
21
-14.418
0
LINE
8
медь верх
10
-12.319
20
-14.421
11
-12.471
21
-14.421
0
LINE
8
медь верх
10
12.471
20
-14.378
11
12.319
21
-14.378
0
LINE
8
медь верх
10
-12.319
20
-14.380
11
-12.471
21
-14.380
0
LINE
8
медь верх
10
12.471
20
-14.337
11
12.319
21
-14.337
0
LINE
8
медь верх
10
-12.319
20
-14.340
11
-12.471
21
-14.340
0
LINE
8
медь верх
10
12.471
20
-14.298
11
12.319
21
-14.298
0
LINE
8
медь верх
10
-12.319
20
-14.300
11
-12.471
21
-14.300
0
LINE
8
медь верх
10
12.471
20
-14.257
11
12.319
21
-14.257
0
LINE
8
медь верх
10
-12.319
20
-14.260
11
-12.471
21
-14.260
0
LINE
8
медь верх
10
12.471
20
-14.216
11
12.319
21
-14.216
0
LINE
8
медь верх
10
-12.319
20
-14.219
11
-12.471
21
-14.219
0
LINE
8
медь верх
10
12.471
20
-14.177
11
12.319
21
-14.177
0
LINE
8
медь верх
10
-12.319
20
-14.178
11
-12.471
21
-14.178
0
LINE
8
медь верх
10
12.471
20
-14.136
11
12.319
21
-14.136
0
LINE
8
медь верх
10
-12.319
20
-14.139
11
-12.471
21
-14.139
0
LINE
8
медь верх
10
12.471
20
-14.096
11
12.319
21
-14.096
0
LINE
8
медь верх
10
-12.319
20
-14.098
11
-12.471
21
-14.098
0
LINE
8
медь верх
10
12.471
20
-14.055
11
12.319
21
-14.055
0
LINE
8
медь верх
10
-12.319
20
-14.058
11
-12.471
21
-14.058
0
LINE
8
медь верх
10
12.471
20
-14.016
11
12.319
21
-14.016
0
LINE
8
медь верх
10
-12.319
20
-14.018
11
-12.471
21
-14.018
0
LINE
8
медь верх
10
12.471
20
-13.975
11
12.319
21
-13.975
0
LINE
8
медь верх
10
-12.319
20
-13.978
11
-12.471
21
-13.978
0
LINE
8
медь верх
10
12.471
20
-13.934
11
12.319
21
-13.934
0
LINE
8
медь верх
10
-12.319
20
-13.937
11
-12.471
21
-13.937
0
LINE
8
медь верх
10
12.471
20
-13.895
11
12.319
21
-13.895
0
LINE
8
медь верх
10
-12.319
20
-13.898
11
-12.471
21
-13.898
0
LINE
8
медь верх
10
12.471
20
-13.854
11
12.319
21
-13.854
0
LINE
8
медь верх
10
-12.319
20
-13.857
11
-12.471
21
-13.857
0
LINE
8
медь верх
10
12.471
20
-13.814
11
12.319
21
-13.814
0
LINE
8
медь верх
10
-12.319
20
-13.816
11
-12.471
21
-13.816
0
LINE
8
медь верх
10
12.471
20
-13.774
11
12.319
21
-13.774
0
LINE
8
медь верх
10
-12.319
20
-13.777
11
-12.471
21
-13.777
0
LINE
8
медь верх
10
12.471
20
-13.734
11
12.319
21
-13.734
0
LINE
8
медь верх
10
-12.319
20
-13.736
11
-12.471
21
-13.736
0
LINE
8
медь верх
10
12.471
20
-13.693
11
12.319
21
-13.693
0
LINE
8
медь верх
10
-12.319
20
-13.696
11
-12.471
21
-13.696
0
LINE
8
медь верх
10
12.471
20
-13.653
11
12.319
21
-13.653
0
LINE
8
медь верх
10
-12.319
20
-13.655
11
-12.471
21
-13.655
0
LINE
8
медь верх
10
12.471
20
-13.613
11
12.319
21
-13.613
0
LINE
8
медь верх
10
-12.319
20
-13.616
11
-12.471
21
-13.616
0
LINE
8
медь верх
10
12.471
20
-13.572
11
12.319
21
-13.572
0
LINE
8
медь верх
10
-12.319
20
-13.575
11
-12.471
21
-13.575
0
LINE
8
медь верх
10
12.471
20
-13.532
11
12.319
21
-13.532
0
LINE
8
медь верх
10
-12.319
20
-13.534
11
-12.471
21
-13.534
0
LINE
8
медь верх
10
12.471
20
-13.492
11
12.319
21
-13.492
0
LINE
8
медь верх
10
-12.319
20
-13.495
11
-12.471
21
-13.495
0
LINE
8
медь верх
10
12.471
20
-13.452
11
12.319
21
-13.452
0
LINE
8
медь верх
10
-12.319
20
-13.454
11
-12.471
21
-13.454
0
LINE
8
медь верх
10
12.471
20
-13.411
11
12.319
21
-13.411
0
LINE
8
медь верх
10
-12.319
20
-13.414
11
-12.471
21
-13.414
0
LINE
8
медь верх
10
12.471
20
-13.372
11
12.319
21
-13.372
0
LINE
8
медь верх
10
-12.319
20
-13.374
11
-12.471
21
-13.374
0
LINE
8
медь верх
10
12.471
20
-13.331
11
12.319
21
-13.331
0
LINE
8
медь верх
10
-12.319
20
-13.334
11
-12.471
21
-13.334
0
LINE
8
медь верх
10
12.471
20
-13.291
11
12.319
21
-13.291
0
LINE
8
медь верх
10
-12.319
20
-13.293
11
-12.471
21
-13.293
0
LINE
8
медь верх
10
12.471
20
-13.251
11
12.319
21
-13.251
0
LINE
8
медь верх
10
-12.319
20
-13.252
11
-12.471
21
-13.252
0
LINE
8
медь верх
10
12.471
20
-13.211
11
12.319
21
-13.211
0
LINE
8
медь верх
10
-12.319
20
-13.213
11
-12.471
21
-13.213
0
LINE
8
медь верх
10
12.471
20
-13.170
11
12.319
21
-13.170
0
LINE
8
медь верх
10
-12.319
20
-13.172
11
-12.471
21
-13.172
0
LINE
8
медь верх
10
12.471
20
-13.129
11
12.319
21
-13.129
0
LINE
8
медь верх
10
-12.319
20
-13.132
11
-12.471
21
-13.132
0
LINE
8
медь верх
10
12.471
20
-13.090
11
12.319
21
-13.090
0
LINE
8
медь верх
10
-12.319
20
-13.092
11
-12.471
21
-13.092
0
LINE
8
медь верх
10
12.471
20
-13.049
11
12.319
21
-13.049
0
LINE
8
медь верх
10
-12.319
20
-13.052
11
-12.471
21
-13.052
0
LINE
8
медь верх
10
12.471
20
-13.009
11
12.319
21
-13.009
0
LINE
8
медь верх
10
-12.319
20
-13.011
11
-12.471
21
-13.011
0
LINE
8
медь верх
10
12.471
20
-12.969
11
12.319
21
-12.969
0
LINE
8
медь верх
10
-12.319
20
-12.972
11
-12.471
21
-12.972
0
LINE
8
медь верх
10
12.471
20
-12.929
11
12.319
21
-12.929
0
LINE
8
медь верх
10
-12.319
20
-12.931
11
-12.471
21
-12.931
0
LINE
8
медь верх
10
12.471
20
-12.888
11
12.315
21
-12.888
0
LINE
8
медь верх
10
-12.315
20
-12.890
11
-12.471
21
-12.890
0
LINE
8
медь верх
10
12.471
20
-12.849
11
12.308
21
-12.849
0
LINE
8
медь верх
10
-12.308
20
-12.850
11
-12.471
21
-12.851
0
LINE
8
медь верх
10
12.471
20
-12.808
11
12.294
21
-12.808
0
LINE
8
медь верх
10
-12.295
20
-12.810
11
-12.471
21
-12.810
0
LINE
8
медь верх
10
12.471
20
-12.767
11
12.266
21
-12.767
0
LINE
8
медь верх
10
-12.268
20
-12.770
11
-12.471
21
-12.770
0
LINE
8
медь верх
10
12.471
20
-12.727
11
12.224
21
-12.727
0
LINE
8
медь верх
10
-12.228
20
-12.729
11
-12.471
21
-12.729
0
LINE
8
медь верх
10
12.471
20
-12.687
11
12.132
21
-12.687
0
LINE
8
медь верх
10
-12.145
20
-12.690
11
-12.471
21
-12.690
0
LINE
8
медь верх
10
10.000
20
-19.400
11
10.008
21
-19.313
0
LINE
8
медь верх
10
10.008
20
-19.313
11
10.030
21
-19.229
0
LINE
8
медь верх
10
10.030
20
-19.229
11
10.067
21
-19.150
0
LINE
8
медь верх
10
10.067
20
-19.150
11
10.117
21
-19.079
0
LINE
8
медь верх
10
10.117
20
-19.079
11
10.179
21
-19.017
0
LINE
8
медь верх
10
10.179
20
-19.017
11
10.250
21
-18.967
0
LINE
8
медь верх
10
10.250
20
-18.967
11
10.329
21
-18.930
0
LINE
8
медь верх
10
10.329
20
-18.930
11
10.413
21
-18.908
0
LINE
8
медь верх
10
10.413
20
-18.908
11
10.500
21
-18.900
0
LINE
8
медь верх
10
10.500
20
-18.900
11
10.587
21
-18.908
0
LINE
8
медь верх
10
10.587
20
-18.908
11
10.671
21
-18.930
0
LINE
8
медь верх
10
10.671
20
-18.930
11
10.750
21
-18.967
0
LINE
8
медь верх
10
10.750
20
-18.967
11
10.821
21
-19.017
0
LINE
8
медь верх
10
10.821
20
-19.017
11
10.883
21
-19.079
0
LINE
8
медь верх
10
10.883
20
-19.079
11
10.933
21
-19.150
0
LINE
8
медь верх
10
10.933
20
-19.150
11
10.970
21
-19.229
0
LINE
8
медь верх
10
10.970
20
-19.229
11
10.992
21
-19.313
0
LINE
8
медь верх
10
10.992
20
-19.313
11
11.000
21
-19.400
0
LINE
8
медь верх
10
11.000
20
-19.400
11
10.992
21
-19.487
0
LINE
8
медь верх
10
10.992
20
-19.487
11
10.970
21
-19.571
0
LINE
8
медь верх
10
10.970
20
-19.571
11
10.933
21
-19.650
0
LINE
8
медь верх
10
10.933
20
-19.650
11
10.883
21
-19.721
0
LINE
8
медь верх
10
10.883
20
-19.721
11
10.821
21
-19.783
0
LINE
8
медь верх
10
10.821
20
-19.783
11
10.750
21
-19.833
0
LINE
8
медь верх
10
10.750
20
-19.833
11
10.671
21
-19.870
0
LINE
8
медь верх
10
10.671
20
-19.870
11
10.587
21
-19.892
0
LINE
8
медь верх
10
10.587
20
-19.892
11
10.500
21
-19.900
0
LINE
8
медь верх
10
10.500
20
-19.900
11
10.413
21
-19.892
0
LINE
8
медь верх
10
10.413
20
-19.892
11
10.329
21
-19.870
0
LINE
8
медь верх
10
10.329
20
-19.870
11
10.250
21
-19.833
0
LINE
8
медь верх
10
10.250
20
-19.833
11
10.179
21
-19.783
0
LINE
8
медь верх
10
10.179
20
-19.783
11
10.117
21
-19.721
0
LINE
8
медь верх
10
10.117
20
-19.721
11
10.067
21
-19.650
0
LINE
8
медь верх
10
10.067
20
-19.650
11
10.030
21
-19.571
0
LINE
8
медь верх
10
10.030
20
-19.571
11
10.008
21
-19.487
0
LINE
8
медь верх
10
10.008
20
-19.487
11
10.000
21
-19.400
0
LINE
8
медь верх
10
10.643
20
-19.878
11
10.356
21
-19.878
0
LINE
8
медь верх
10
10.739
20
-19.839
11
10.259
21
-19.839
0
LINE
8
медь верх
10
10.801
20
-19.798
11
10.197
21
-19.798
0
LINE
8
медь верх
10
10.848
20
-19.757
11
10.151
21
-19.757
0
LINE
8
медь верх
10
10.885
20
-19.717
11
10.113
21
-19.717
0
LINE
8
медь верх
10
10.916
20
-19.677
11
10.084
21
-19.677
0
LINE
8
медь верх
10
10.940
20
-19.637
11
10.060
21
-19.637
0
LINE
8
медь верх
10
10.959
20
-19.596
11
10.039
21
-19.596
0
LINE
8
медь верх
10
10.974
20
-19.557
11
10.024
21
-19.557
0
LINE
8
медь верх
10
10.986
20
-19.516
11
10.013
21
-19.516
0
LINE
8
медь верх
10
10.993
20
-19.475
11
10.005
21
-19.475
0
LINE
8
медь верх
10
10.998
20
-19.436
11
10.001
21
-19.436
0
LINE
8
медь верх
10
10.000
20
-19.395
11
10.999
21
-19.395
0
LINE
8
медь верх
10
10.001
20
-19.355
11
10.997
21
-19.355
0
LINE
8
медь верх
10
10.006
20
-19.315
11
10.992
21
-19.314
0
LINE
8
медь верх
10
10.015
20
-19.275
11
10.983
21
-19.275
0
LINE
8
медь верх
10
10.028
20
-19.234
11
10.972
21
-19.234
0
LINE
8
медь верх
10
10.043
20
-19.194
11
10.955
21
-19.194
0
LINE
8
медь верх
10
10.063
20
-19.154
11
10.935
21
-19.154
0
LINE
8
медь верх
10
10.089
20
-19.113
11
10.909
21
-19.113
0
LINE
8
медь верх
10
10.121
20
-19.073
11
10.879
21
-19.073
0
LINE
8
медь верх
10
10.159
20
-19.033
11
10.839
21
-19.033
0
LINE
8
медь верх
10
10.208
20
-18.993
11
10.790
21
-18.993
0
LINE
8
медь верх
10
10.276
20
-18.952
11
10.724
21
-18.952
0
LINE
8
медь верх
10
10.386
20
-18.913
11
10.612
21
-18.913
0
LINE
8
медь верх
10
10.000
20
-21.900
11
10.008
21
-21.813
0
LINE
8
медь верх
10
10.008
20
-21.813
11
10.030
21
-21.729
0
LINE
8
медь верх
10
10.030
20
-21.729
11
10.067
21
-21.650
0
LINE
8
медь верх
10
10.067
20
-21.650
11
10.117
21
-21.579
0
LINE
8
медь верх
10
10.117
20
-21.579
11
10.179
21
-21.517
0
LINE
8
медь верх
10
10.179
20
-21.517
11
10.250
21
-21.467
0
LINE
8
медь верх
10
10.250
20
-21.467
11
10.329
21
-21.430
0
LINE
8
медь верх
10
10.329
20
-21.430
11
10.413
21
-21.408
0
LINE
8
медь верх
10
10.413
20
-21.408
11
10.500
21
-21.400
0
LINE
8
медь верх
10
10.500
20
-21.400
11
10.587
21
-21.408
0
LINE
8
медь верх
10
10.587
20
-21.408
11
10.671
21
-21.430
0
LINE
8
медь верх
10
10.671
20
-21.430
11
10.750
21
-21.467
0
LINE
8
медь верх
10
10.750
20
-21.467
11
10.821
21
-21.517
0
LINE
8
медь верх
10
10.821
20
-21.517
11
10.883
21
-21.579
0
LINE
8
медь верх
10
10.883
20
-21.579
11
10.933
21
-21.650
0
LINE
8
медь верх
10
10.933
20
-21.650
11
10.970
21
-21.729
0
LINE
8
медь верх
10
10.970
20
-21.729
11
10.992
21
-21.813
0
LINE
8
медь верх
10
10.992
20
-21.813
11
11.000
21
-21.900
0
LINE
8
медь верх
10
11.000
20
-21.900
11
10.992
21
-21.987
0
LINE
8
медь верх
10
10.992
20
-21.987
11
10.970
21
-22.071
0
LINE
8
медь верх
10
10.970
20
-22.071
11
10.933
21
-22.150
0
LINE
8
медь верх
10
10.933
20
-22.150
11
10.883
21
-22.221
0
LINE
8
медь верх
10
10.883
20
-22.221
11
10.821
21
-22.283
0
LINE
8
медь верх
10
10.821
20
-22.283
11
10.750
21
-22.333
0
LINE
8
медь верх
10
10.750
20
-22.333
11
10.671
21
-22.370
0
LINE
8
медь верх
10
10.671
20
-22.370
11
10.587
21
-22.392
0
LINE
8
медь верх
10
10.587
20
-22.392
11
10.500
21
-22.400
0
LINE
8
медь верх
10
10.500
20
-22.400
11
10.413
21
-22.392
0
LINE
8
медь верх
10
10.413
20
-22.392
11
10.329
21
-22.370
0
LINE
8
медь верх
10
10.329
20
-22.370
11
10.250
21
-22.333
0
LINE
8
медь верх
10
10.250
20
-22.333
11
10.179
21
-22.283
0
LINE
8
медь верх
10
10.179
20
-22.283
11
10.117
21
-22.221
0
LINE
8
медь верх
10
10.117
20
-22.221
11
10.067
21
-22.150
0
LINE
8
медь верх
10
10.067
20
-22.150
11
10.030
21
-22.071
0
LINE
8
медь верх
10
10.030
20
-22.071
11
10.008
21
-21.987
0
LINE
8
медь верх
10
10.008
20
-21.987
11
10.000
21
-21.900
0
LINE
8
медь верх
10
10.532
20
-22.398
11
10.467
21
-22.398
0
LINE
8
медь верх
10
10.698
20
-22.358
11
10.301
21
-22.358
0
LINE
8
медь верх
10
10.773
20
-22.318
11
10.226
21
-22.318
0
LINE
8
медь верх
10
10.827
20
-22.277
11
10.173
21
-22.277
0
LINE
8
медь верх
10
10.867
20
-22.238
11
10.131
21
-22.238
0
LINE
8
медь верх
10
10.902
20
-22.197
11
10.098
21
-22.197
0
LINE
8
медь верх
10
10.928
20
-22.156
11
10.071
21
-22.156
0
LINE
8
медь верх
10
10.950
20
-22.117
11
10.050
21
-22.117
0
LINE
8
медь верх
10
10.966
20
-22.076
11
10.032
21
-22.076
0
LINE
8
медь верх
10
10.980
20
-22.036
11
10.019
21
-22.036
0
LINE
8
медь верх
10
10.991
20
-21.995
11
10.009
21
-21.996
0
LINE
8
медь верх
10
10.996
20
-21.956
11
10.003
21
-21.956
0
LINE
8
медь верх
10
10.999
20
-21.915
11
10.000
21
-21.915
0
LINE
8
медь верх
10
10.000
20
-21.874
11
10.998
21
-21.874
0
LINE
8
медь верх
10
10.004
20
-21.835
11
10.996
21
-21.835
0
LINE
8
медь верх
10
10.010
20
-21.794
11
10.988
21
-21.794
0
LINE
8
медь верх
10
10.020
20
-21.754
11
10.978
21
-21.754
0
LINE
8
медь верх
10
10.036
20
-21.714
11
10.964
21
-21.714
0
LINE
8
медь верх
10
10.053
20
-21.674
11
10.946
21
-21.674
0
LINE
8
медь верх
10
10.076
20
-21.633
11
10.923
21
-21.633
0
LINE
8
медь верх
10
10.104
20
-21.594
11
10.894
21
-21.594
0
LINE
8
медь верх
10
10.138
20
-21.553
11
10.860
21
-21.553
0
LINE
8
медь верх
10
10.183
20
-21.513
11
10.817
21
-21.513
0
LINE
8
медь верх
10
10.239
20
-21.472
11
10.759
21
-21.472
0
LINE
8
медь верх
10
10.321
20
-21.433
11
10.678
21
-21.433
0
LINE
8
медь верх
10
-10.900
20
-19.400
11
-10.892
21
-19.313
0
LINE
8
медь верх
10
-10.892
20
-19.313
11
-10.870
21
-19.229
0
LINE
8
медь верх
10
-10.870
20
-19.229
11
-10.833
21
-19.150
0
LINE
8
медь верх
10
-10.833
20
-19.150
11
-10.783
21
-19.079
0
LINE
8
медь верх
10
-10.783
20
-19.079
11
-10.721
21
-19.017
0
LINE
8
медь верх
10
-10.721
20
-19.017
11
-10.650
21
-18.967
0
LINE
8
медь верх
10
-10.650
20
-18.967
11
-10.571
21
-18.930
0
LINE
8
медь верх
10
-10.571
20
-18.930
11
-10.487
21
-18.908
0
LINE
8
медь верх
10
-10.487
20
-18.908
11
-10.400
21
-18.900
0
LINE
8
медь верх
10
-10.400
20
-18.900
11
-10.313
21
-18.908
0
LINE
8
медь верх
10
-10.313
20
-18.908
11
-10.229
21
-18.930
0
LINE
8
медь верх
10
-10.229
20
-18.930
11
-10.150
21
-18.967
0
LINE
8
медь верх
10
-10.150
20
-18.967
11
-10.079
21
-19.017
0
LINE
8
медь верх
10
-10.079
20
-19.017
11
-10.017
21
-19.079
0
LINE
8
медь верх
10
-10.017
20
-19.079
11
-9.967
21
-19.150
0
LINE
8
медь верх
10
-9.967
20
-19.150
11
-9.930
21
-19.229
0
LINE
8
медь верх
10
-9.930
20
-19.229
11
-9.908
21
-19.313
0
LINE
8
медь верх
10
-9.908
20
-19.313
11
-9.900
21
-19.400
0
LINE
8
медь верх
10
-9.900
20
-19.400
11
-9.908
21
-19.487
0
LINE
8
медь верх
10
-9.908
20
-19.487
11
-9.930
21
-19.571
0
LINE
8
медь верх
10
-9.930
20
-19.571
11
-9.967
21
-19.650
0
LINE
8
медь верх
10
-9.967
20
-19.650
11
-10.017
21
-19.721
0
LINE
8
медь верх
10
-10.017
20
-19.721
11
-10.079
21
-19.783
0
LINE
8
медь верх
10
-10.079
20
-19.783
11
-10.150
21
-19.833
0
LINE
8
медь верх
10
-10.150
20
-19.833
11
-10.229
21
-19.870
0
LINE
8
медь верх
10
-10.229
20
-19.870
11
-10.313
21
-19.892
0
LINE
8
медь верх
10
-10.313
20
-19.892
11
-10.400
21
-19.900
0
LINE
8
медь верх
10
-10.400
20
-19.900
11
-10.487
21
-19.892
0
LINE
8
медь верх
10
-10.487
20
-19.892
11
-10.571
21
-19.870
0
LINE
8
медь верх
10
-10.571
20
-19.870
11
-10.650
21
-19.833
0
LINE
8
медь верх
10
-10.650
20
-19.833
11
-10.721
21
-19.783
0
LINE
8
медь верх
10
-10.721
20
-19.783
11
-10.783
21
-19.721
0
LINE
8
медь верх
10
-10.783
20
-19.721
11
-10.833
21
-19.650
0
LINE
8
медь верх
10
-10.833
20
-19.650
11
-10.870
21
-19.571
0
LINE
8
медь верх
10
-10.870
20
-19.571
11
-10.892
21
-19.487
0
LINE
8
медь верх
10
-10.892
20
-19.487
11
-10.900
21
-19.400
0
LINE
8
медь верх
10
-10.263
20
-19.881
11
-10.536
21
-19.881
0
LINE
8
медь верх
10
-10.164
20
-19.840
11
-10.635
21
-19.840
0
LINE
8
медь верх
10
-10.100
20
-19.799
11
-10.698
21
-19.799
0
LINE
8
медь верх
10
-10.052
20
-19.760
11
-10.745
21
-19.760
0
LINE
8
медь верх
10
-10.015
20
-19.719
11
-10.784
21
-19.719
0
LINE
8
медь верх
10
-9.985
20
-19.679
11
-10.814
21
-19.679
0
LINE
8
медь верх
10
-9.961
20
-19.639
11
-10.838
21
-19.639
0
LINE
8
медь верх
10
-9.940
20
-19.599
11
-10.858
21
-19.599
0
LINE
8
медь верх
10
-9.925
20
-19.558
11
-10.874
21
-19.558
0
LINE
8
медь верх
10
-9.914
20
-19.519
11
-10.885
21
-19.519
0
LINE
8
медь верх
10
-9.906
20
-19.478
11
-10.893
21
-19.478
0
LINE
8
медь верх
10
-9.901
20
-19.437
11
-10.898
21
-19.437
0
LINE
8
медь верх
10
-10.899
20
-19.398
11
-9.900
21
-19.397
0
LINE
8
медь верх
10
-10.898
20
-19.357
11
-9.901
21
-19.357
0
LINE
8
медь верх
10
-10.893
20
-19.317
11
-9.906
21
-19.317
0
LINE
8
медь верх
10
-10.884
20
-19.276
11
-9.915
21
-19.276
0
LINE
8
медь верх
10
-10.872
20
-19.237
11
-9.926
21
-19.237
0
LINE
8
медь верх
10
-10.856
20
-19.196
11
-9.943
21
-19.196
0
LINE
8
медь верх
10
-10.836
20
-19.155
11
-9.963
21
-19.155
0
LINE
8
медь верх
10
-10.812
20
-19.116
11
-9.987
21
-19.116
0
LINE
8
медь верх
10
-10.780
20
-19.075
11
-10.019
21
-19.075
0
LINE
8
медь верх
10
-10.742
20
-19.035
11
-10.057
21
-19.035
0
LINE
8
медь верх
10
-10.693
20
-18.995
11
-10.105
21
-18.995
0
LINE
8
медь верх
10
-10.627
20
-18.955
11
-10.171
21
-18.955
0
LINE
8
медь верх
10
-10.521
20
-18.914
11
-10.278
21
-18.914
0
LINE
8
медь верх
10
-10.900
20
-21.900
11
-10.892
21
-21.813
0
LINE
8
медь верх
10
-10.892
20
-21.813
11
-10.870
21
-21.729
0
LINE
8
медь верх
10
-10.870
20
-21.729
11
-10.833
21
-21.650
0
LINE
8
медь верх
10
-10.833
20
-21.650
11
-10.783
21
-21.579
0
LINE
8
медь верх
10
-10.783
20
-21.579
11
-10.721
21
-21.517
0
LINE
8
медь верх
10
-10.721
20
-21.517
11
-10.650
21
-21.467
0
LINE
8
медь верх
10
-10.650
20
-21.467
11
-10.571
21
-21.430
0
LINE
8
медь верх
10
-10.571
20
-21.430
11
-10.487
21
-21.408
0
LINE
8
медь верх
10
-10.487
20
-21.408
11
-10.400
21
-21.400
0
LINE
8
медь верх
10
-10.400
20
-21.400
11
-10.313
21
-21.408
0
LINE
8
медь верх
10
-10.313
20
-21.408
11
-10.229
21
-21.430
0
LINE
8
медь верх
10
-10.229
20
-21.430
11
-10.150
21
-21.467
0
LINE
8
медь верх
10
-10.150
20
-21.467
11
-10.079
21
-21.517
0
LINE
8
медь верх
10
-10.079
20
-21.517
11
-10.017
21
-21.579
0
LINE
8
медь верх
10
-10.017
20
-21.579
11
-9.967
21
-21.650
0
LINE
8
медь верх
10
-9.967
20
-21.650
11
-9.930
21
-21.729
0
LINE
8
медь верх
10
-9.930
20
-21.729
11
-9.908
21
-21.813
0
LINE
8
медь верх
10
-9.908
20
-21.813
11
-9.900
21
-21.900
0
LINE
8
медь верх
10
-9.900
20
-21.900
11
-9.908
21
-21.987
0
LINE
8
медь верх
10
-9.908
20
-21.987
11
-9.930
21
-22.071
0
LINE
8
медь верх
10
-9.930
20
-22.071
11
-9.967
21
-22.150
0
LINE
8
медь верх
10
-9.967
20
-22.150
11
-10.017
21
-22.221
0
LINE
8
медь верх
10
-10.017
20
-22.221
11
-10.079
21
-22.283
0
LINE
8
медь верх
10
-10.079
20
-22.283
11
-10.150
21
-22.333
0
LINE
8
медь верх
10
-10.150
20
-22.333
11
-10.229
21
-22.370
0
LINE
8
медь верх
10
-10.229
20
-22.370
11
-10.313
21
-22.392
0
LINE
8
медь верх
10
-10.313
20
-22.392
11
-10.400
21
-22.400
0
LINE
8
медь верх
10
-10.400
20
-22.400
11
-10.487
21
-22.392
0
LINE
8
медь верх
10
-10.487
20
-22.392
11
-10.571
21
-22.370
0
LINE
8
медь верх
10
-10.571
20
-22.370
11
-10.650
21
-22.333
0
LINE
8
медь верх
10
-10.650
20
-22.333
11
-10.721
21
-22.283
0
LINE
8
медь верх
10
-10.721
20
-22.283
11
-10.783
21
-22.221
0
LINE
8
медь верх
10
-10.783
20
-22.221
11
-10.833
21
-22.150
0
LINE
8
медь верх
10
-10.833
20
-22.150
11
-10.870
21
-22.071
0
LINE
8
медь верх
10
-10.870
20
-22.071
11
-10.892
21
-21.987
0
LINE
8
медь верх
10
-10.892
20
-21.987
11
-10.900
21
-21.900
0
LINE
8
медь верх
10
-10.206
20
-22.361
11
-10.593
21
-22.361
0
LINE
8
медь верх
10
-10.130
20
-22.320
11
-10.669
21
-22.320
0
LINE
8
медь верх
10
-10.075
20
-22.280
11
-10.724
21
-22.280
0
LINE
8
медь верх
10
-10.033
20
-22.240
11
-10.766
21
-22.240
0
LINE
8
медь верх
10
-10.000
20
-22.200
11
-10.799
21
-22.200
0
LINE
8
медь верх
10
-9.972
20
-22.159
11
-10.827
21
-22.159
0
LINE
8
медь верх
10
-9.950
20
-22.118
11
-10.848
21
-22.118
0
LINE
8
медь верх
10
-9.933
20
-22.079
11
-10.866
21
-22.079
0
LINE
8
медь верх
10
-9.919
20
-22.038
11
-10.880
21
-22.038
0
LINE
8
медь верх
10
-9.910
20
-21.998
11
-10.889
21
-21.998
0
LINE
8
медь верх
10
-9.902
20
-21.958
11
-10.895
21
-21.958
0
LINE
8
медь верх
10
-9.900
20
-21.918
11
-10.899
21
-21.918
0
LINE
8
медь верх
10
-10.899
20
-21.877
11
-9.900
21
-21.877
0
LINE
8
медь верх
10
-10.895
20
-21.838
11
-9.903
21
-21.838
0
LINE
8
медь верх
10
-10.889
20
-21.797
11
-9.910
21
-21.797
0
LINE
8
медь верх
10
-10.879
20
-21.756
11
-9.920
21
-21.756
0
LINE
8
медь верх
10
-10.865
20
-21.717
11
-9.934
21
-21.716
0
LINE
8
медь верх
10
-10.847
20
-21.676
11
-9.952
21
-21.676
0
LINE
8
медь верх
10
-10.824
20
-21.636
11
-9.975
21
-21.636
0
LINE
8
медь верх
10
-10.796
20
-21.595
11
-10.003
21
-21.595
0
LINE
8
медь верх
10
-10.762
20
-21.556
11
-10.037
21
-21.556
0
LINE
8
медь верх
10
-10.719
20
-21.515
11
-10.080
21
-21.515
0
LINE
8
медь верх
10
-10.663
20
-21.474
11
-10.136
21
-21.474
0
LINE
8
медь верх
10
-10.584
20
-21.435
11
-10.215
21
-21.435
0
LINE
8
медь верх
10
-6.980
20
-21.900
11
-6.976
21
-21.857
0
LINE
8
медь верх
10
-6.976
20
-21.857
11
-6.965
21
-21.814
0
LINE
8
медь верх
10
-6.965
20
-21.814
11
-6.946
21
-21.775
0
LINE
8
медь верх
10
-6.946
20
-21.775
11
-6.921
21
-21.739
0
LINE
8
медь верх
10
-6.921
20
-21.739
11
-6.891
21
-21.708
0
LINE
8
медь верх
10
-6.891
20
-21.708
11
-6.855
21
-21.683
0
LINE
8
медь верх
10
-6.855
20
-21.683
11
-6.815
21
-21.665
0
LINE
8
медь верх
10
-6.815
20
-21.665
11
-6.773
21
-21.654
0
LINE
8
медь верх
10
-6.773
20
-21.654
11
-6.730
21
-21.650
0
LINE
8
медь верх
10
-6.730
20
-21.650
11
-6.686
21
-21.654
0
LINE
8
медь верх
10
-6.686
20
-21.654
11
-6.644
21
-21.665
0
LINE
8
медь верх
10
-6.644
20
-21.665
11
-6.605
21
-21.683
0
LINE
8
медь верх
10
-6.605
20
-21.683
11
-6.569
21
-21.708
0
LINE
8
медь верх
10
-6.569
20
-21.708
11
-6.538
21
-21.739
0
LINE
8
медь верх
10
-6.538
20
-21.739
11
-6.513
21
-21.775
0
LINE
8
медь верх
10
-6.513
20
-21.775
11
-6.495
21
-21.814
0
LINE
8
медь верх
10
-6.495
20
-21.814
11
-6.484
21
-21.857
0
LINE
8
медь верх
10
-6.484
20
-21.857
11
-6.480
21
-21.900
0
LINE
8
медь верх
10
-6.480
20
-21.900
11
-6.484
21
-21.943
0
LINE
8
медь верх
10
-6.484
20
-21.943
11
-6.495
21
-21.986
0
LINE
8
медь верх
10
-6.495
20
-21.986
11
-6.513
21
-22.025
0
LINE
8
медь верх
10
-6.513
20
-22.025
11
-6.538
21
-22.061
0
LINE
8
медь верх
10
-6.538
20
-22.061
11
-6.569
21
-22.092
0
LINE
8
медь верх
10
-6.569
20
-22.092
11
-6.605
21
-22.117
0
LINE
8
медь верх
10
-6.605
20
-22.117
11
-6.644
21
-22.135
0
LINE
8
медь верх
10
-6.644
20
-22.135
11
-6.686
21
-22.146
0
LINE
8
медь верх
10
-6.686
20
-22.146
11
-6.730
21
-22.150
0
LINE
8
медь верх
10
-6.730
20
-22.150
11
-6.773
21
-22.146
0
LINE
8
медь верх
10
-6.773
20
-22.146
11
-6.815
21
-22.135
0
LINE
8
медь верх
10
-6.815
20
-22.135
11
-6.855
21
-22.117
0
LINE
8
медь верх
10
-6.855
20
-22.117
11
-6.891
21
-22.092
0
LINE
8
медь верх
10
-6.891
20
-22.092
11
-6.921
21
-22.061
0
LINE
8
медь верх
10
-6.921
20
-22.061
11
-6.946
21
-22.025
0
LINE
8
медь верх
10
-6.946
20
-22.025
11
-6.965
21
-21.986
0
LINE
8
медь верх
10
-6.965
20
-21.986
11
-6.976
21
-21.943
0
LINE
8
медь верх
10
-6.976
20
-21.943
11
-6.980
21
-21.900
0
LINE
8
медь верх
10
-6.612
20
-22.120
11
-6.847
21
-22.120
0
LINE
8
медь верх
10
-6.556
20
-22.080
11
-6.902
21
-22.080
0
LINE
8
медь верх
10
-6.523
20
-22.040
11
-6.937
21
-22.040
0
LINE
8
медь верх
10
-6.500
20
-21.999
11
-6.958
21
-21.999
0
LINE
8
медь верх
10
-6.486
20
-21.960
11
-6.972
21
-21.960
0
LINE
8
медь верх
10
-6.480
20
-21.919
11
-6.979
21
-21.919
0
LINE
8
медь верх
10
-6.979
20
-21.878
11
-6.480
21
-21.878
0
LINE
8
медь верх
10
-6.971
20
-21.838
11
-6.487
21
-21.838
0
LINE
8
медь верх
10
-6.958
20
-21.798
11
-6.501
21
-21.798
0
LINE
8
медь верх
10
-6.935
20
-21.758
11
-6.523
21
-21.758
0
LINE
8
медь верх
10
-6.901
20
-21.717
11
-6.558
21
-21.717
0
LINE
8
медь верх
10
-6.844
20
-21.678
11
-6.614
21
-21.678
0
LINE
8
медь верх
10
-10.496
20
-15.049
11
-10.492
21
-15.005
0
LINE
8
медь верх
10
-10.492
20
-15.005
11
-10.481
21
-14.963
0
LINE
8
медь верх
10
-10.481
20
-14.963
11
-10.462
21
-14.924
0
LINE
8
медь верх
10
-10.462
20
-14.924
11
-10.437
21
-14.888
0
LINE
8
медь верх
10
-10.437
20
-14.888
11
-10.407
21
-14.857
0
LINE
8
медь верх
10
-10.407
20
-14.857
11
-10.371
21
-14.832
0
LINE
8
медь верх
10
-10.371
20
-14.832
11
-10.331
21
-14.814
0
LINE
8
медь верх
10
-10.331
20
-14.814
11
-10.289
21
-14.803
0
LINE
8
медь верх
10
-10.289
20
-14.803
11
-10.246
21
-14.799
0
LINE
8
медь верх
10
-10.246
20
-14.799
11
-10.202
21
-14.803
0
LINE
8
медь верх
10
-10.202
20
-14.803
11
-10.160
21
-14.814
0
LINE
8
медь верх
10
-10.160
20
-14.814
11
-10.121
21
-14.832
0
LINE
8
медь верх
10
-10.121
20
-14.832
11
-10.085
21
-14.857
0
LINE
8
медь верх
10
-10.085
20
-14.857
11
-10.054
21
-14.888
0
LINE
8
медь верх
10
-10.054
20
-14.888
11
-10.029
21
-14.924
0
LINE
8
медь верх
10
-10.029
20
-14.924
11
-10.011
21
-14.963
0
LINE
8
медь верх
10
-10.011
20
-14.963
11
-10.000
21
-15.005
0
LINE
8
медь верх
10
-10.000
20
-15.005
11
-9.996
21
-15.049
0
LINE
8
медь верх
10
-9.996
20
-15.049
11
-10.000
21
-15.092
0
LINE
8
медь верх
10
-10.000
20
-15.092
11
-10.011
21
-15.134
0
LINE
8
медь верх
10
-10.011
20
-15.134
11
-10.029
21
-15.174
0
LINE
8
медь верх
10
-10.029
20
-15.174
11
-10.054
21
-15.210
0
LINE
8
медь верх
10
-10.054
20
-15.210
11
-10.085
21
-15.240
0
LINE
8
медь верх
10
-10.085
20
-15.240
11
-10.121
21
-15.265
0
LINE
8
медь верх
10
-10.121
20
-15.265
11
-10.160
21
-15.284
0
LINE
8
медь верх
10
-10.160
20
-15.284
11
-10.202
21
-15.295
0
LINE
8
медь верх
10
-10.202
20
-15.295
11
-10.246
21
-15.299
0
LINE
8
медь верх
10
-10.246
20
-15.299
11
-10.289
21
-15.295
0
LINE
8
медь верх
10
-10.289
20
-15.295
11
-10.331
21
-15.284
0
LINE
8
медь верх
10
-10.331
20
-15.284
11
-10.371
21
-15.265
0
LINE
8
медь верх
10
-10.371
20
-15.265
11
-10.407
21
-15.240
0
LINE
8
медь верх
10
-10.407
20
-15.240
11
-10.437
21
-15.210
0
LINE
8
медь верх
10
-10.437
20
-15.210
11
-10.462
21
-15.174
0
LINE
8
медь верх
10
-10.462
20
-15.174
11
-10.481
21
-15.134
0
LINE
8
медь верх
10
-10.481
20
-15.134
11
-10.492
21
-15.092
0
LINE
8
медь верх
10
-10.492
20
-15.092
11
-10.496
21
-15.049
0
LINE
8
медь верх
10
-10.152
20
-15.281
11
-10.338
21
-15.281
0
LINE
8
медь верх
10
-10.085
20
-15.240
11
-10.405
21
-15.240
0
LINE
8
медь верх
10
-10.047
20
-15.199
11
-10.444
21
-15.199
0
LINE
8
медь верх
10
-10.022
20
-15.160
11
-10.469
21
-15.160
0
LINE
8
медь верх
10
-10.005
20
-15.119
11
-10.485
21
-15.119
0
LINE
8
медь верх
10
-9.997
20
-15.079
11
-10.493
21
-15.079
0
LINE
8
медь верх
10
-10.495
20
-15.039
11
-9.995
21
-15.039
0
LINE
8
медь верх
10
-10.490
20
-14.999
11
-10.000
21
-14.999
0
LINE
8
медь верх
10
-10.479
20
-14.958
11
-10.011
21
-14.958
0
LINE
8
медь верх
10
-10.458
20
-14.919
11
-10.032
21
-14.919
0
LINE
8
медь верх
10
-10.428
20
-14.878
11
-10.062
21
-14.878
0
LINE
8
медь верх
10
-10.380
20
-14.837
11
-10.110
21
-14.837
0
LINE
8
медь верх
10
9.589
20
-15.049
11
9.592
21
-15.005
0
LINE
8
медь верх
10
9.592
20
-15.005
11
9.604
21
-14.963
0
LINE
8
медь верх
10
9.604
20
-14.963
11
9.622
21
-14.924
0
LINE
8
медь верх
10
9.622
20
-14.924
11
9.647
21
-14.888
0
LINE
8
медь верх
10
9.647
20
-14.888
11
9.678
21
-14.857
0
LINE
8
медь верх
10
9.678
20
-14.857
11
9.714
21
-14.832
0
LINE
8
медь верх
10
9.714
20
-14.832
11
9.753
21
-14.814
0
LINE
8
медь верх
10
9.753
20
-14.814
11
9.795
21
-14.803
0
LINE
8
медь верх
10
9.795
20
-14.803
11
9.839
21
-14.799
0
LINE
8
медь верх
10
9.839
20
-14.799
11
9.882
21
-14.803
0
LINE
8
медь верх
10
9.882
20
-14.803
11
9.924
21
-14.814
0
LINE
8
медь верх
10
9.924
20
-14.814
11
9.964
21
-14.832
0
LINE
8
медь верх
10
9.964
20
-14.832
11
9.999
21
-14.857
0
LINE
8
медь верх
10
9.999
20
-14.857
11
10.030
21
-14.888
0
LINE
8
медь верх
10
10.030
20
-14.888
11
10.055
21
-14.924
0
LINE
8
медь верх
10
10.055
20
-14.924
11
10.073
21
-14.963
0
LINE
8
медь верх
10
10.073
20
-14.963
11
10.085
21
-15.005
0
LINE
8
медь верх
10
10.085
20
-15.005
11
10.089
21
-15.049
0
LINE
8
медь верх
10
10.089
20
-15.049
11
10.085
21
-15.092
0
LINE
8
медь верх
10
10.085
20
-15.092
11
10.073
21
-15.134
0
LINE
8
медь верх
10
10.073
20
-15.134
11
10.055
21
-15.174
0
LINE
8
медь верх
10
10.055
20
-15.174
11
10.030
21
-15.210
0
LINE
8
медь верх
10
10.030
20
-15.210
11
9.999
21
-15.240
0
LINE
8
медь верх
10
9.999
20
-15.240
11
9.964
21
-15.265
0
LINE
8
медь верх
10
9.964
20
-15.265
11
9.924
21
-15.284
0
LINE
8
медь верх
10
9.924
20
-15.284
11
9.882
21
-15.295
0
LINE
8
медь верх
10
9.882
20
-15.295
11
9.839
21
-15.299
0
LINE
8
медь верх
10
9.839
20
-15.299
11
9.795
21
-15.295
0
LINE
8
медь верх
10
9.795
20
-15.295
11
9.753
21
-15.284
0
LINE
8
медь верх
10
9.753
20
-15.284
11
9.714
21
-15.265
0
LINE
8
медь верх
10
9.714
20
-15.265
11
9.678
21
-15.240
0
LINE
8
медь верх
10
9.678
20
-15.240
11
9.647
21
-15.210
0
LINE
8
медь верх
10
9.647
20
-15.210
11
9.622
21
-15.174
0
LINE
8
медь верх
10
9.622
20
-15.174
11
9.604
21
-15.134
0
LINE
8
медь верх
10
9.604
20
-15.134
11
9.592
21
-15.092
0
LINE
8
медь верх
10
9.592
20
-15.092
11
9.589
21
-15.049
0
LINE
8
медь верх
10
9.935
20
-15.278
11
9.740
21
-15.278
0
LINE
8
медь верх
10
10.000
20
-15.239
11
9.675
21
-15.239
0
LINE
8
медь верх
10
10.038
20
-15.198
11
9.638
21
-15.198
0
LINE
8
медь верх
10
10.062
20
-15.157
11
9.613
21
-15.157
0
LINE
8
медь верх
10
10.079
20
-15.117
11
9.597
21
-15.117
0
LINE
8
медь верх
10
10.086
20
-15.077
11
9.590
21
-15.077
0
LINE
8
медь верх
10
9.588
20
-15.037
11
10.088
21
-15.037
0
LINE
8
медь верх
10
9.594
20
-14.996
11
10.083
21
-14.996
0
LINE
8
медь верх
10
9.605
20
-14.957
11
10.070
21
-14.957
0
LINE
8
медь верх
10
9.625
20
-14.916
11
10.050
21
-14.916
0
LINE
8
медь верх
10
9.657
20
-14.876
11
10.019
21
-14.876
0
LINE
8
медь верх
10
9.707
20
-14.836
11
9.970
21
-14.836
0
ENDSEC
0
EOF
