0
SECTION
2
ENTITIES
0
LINE
8
контур платы
10
-1.000
20
-11.500
11
-25.000
21
-11.500
0
LINE
8
контур платы
10
-25.000
20
-11.500
11
-25.000
21
-1.000
0
LINE
8
контур платы
10
-25.000
20
-1.000
11
-1.000
21
-1.000
0
LINE
8
контур платы
10
-1.000
20
-1.000
11
-1.000
21
-11.500
0
LINE
8
контур платы
10
-0.999
20
-11.500
11
-25.000
21
-11.500
0
LINE
8
контур платы
10
-25.000
20
-0.999
11
-0.999
21
-0.999
0
LINE
8
вид верх
10
-23.900
20
-5.500
11
-23.900
21
-6.000
0
LINE
8
вид верх
10
-23.900
20
-6.000
11
-22.100
21
-6.000
0
LINE
8
вид верх
10
-22.100
20
-6.000
11
-22.100
21
-5.500
0
LINE
8
вид верх
10
-22.100
20
-5.500
11
-23.900
21
-5.500
0
LINE
8
вид верх
10
-23.899
20
-5.894
11
-22.099
21
-5.894
0
LINE
8
вид верх
10
-23.899
20
-5.691
11
-22.099
21
-5.691
0
LINE
8
медь верх
10
-24.501
20
-5.987
11
-24.501
21
-2.000
0
LINE
8
медь верх
10
-24.501
20
-2.000
11
-15.284
21
-2.000
0
LINE
8
медь верх
10
-15.284
20
-2.000
11
-15.284
21
-5.987
0
LINE
8
медь верх
10
-15.284
20
-5.987
11
-24.501
21
-5.987
0
LINE
8
медь верх
10
-15.284
20
-5.987
11
-18.895
21
-5.987
0
LINE
8
медь верх
10
-18.895
20
-5.987
11
-18.895
21
-5.613
0
LINE
8
медь верх
10
-18.895
20
-5.613
11
-19.123
21
-5.386
0
LINE
8
медь верх
10
-19.123
20
-5.386
11
-20.877
21
-5.386
0
LINE
8
медь верх
10
-20.877
20
-5.386
11
-21.104
21
-5.613
0
LINE
8
медь верх
10
-21.104
20
-5.613
11
-21.104
21
-5.987
0
LINE
8
медь верх
10
-21.104
20
-5.987
11
-24.411
21
-5.987
0
LINE
8
медь верх
10
-24.411
20
-5.987
11
-24.411
21
-2.000
0
LINE
8
медь верх
10
-24.411
20
-2.000
11
-15.284
21
-2.000
0
LINE
8
медь верх
10
-15.284
20
-2.000
11
-15.284
21
-5.987
0
LINE
8
медь верх
10
-15.283
20
-5.761
11
-18.895
21
-5.761
0
LINE
8
медь верх
10
-21.104
20
-5.762
11
-24.411
21
-5.762
0
LINE
8
медь верх
10
-15.283
20
-5.521
11
-18.986
21
-5.521
0
LINE
8
медь верх
10
-21.013
20
-5.521
11
-24.411
21
-5.522
0
LINE
8
медь верх
10
-24.411
20
-5.282
11
-15.283
21
-5.281
0
LINE
8
медь верх
10
-24.411
20
-5.041
11
-15.283
21
-5.041
0
LINE
8
медь верх
10
-24.411
20
-4.801
11
-15.283
21
-4.799
0
LINE
8
медь верх
10
-24.411
20
-4.561
11
-15.283
21
-4.559
0
LINE
8
медь верх
10
-24.411
20
-4.321
11
-15.283
21
-4.319
0
LINE
8
медь верх
10
-24.411
20
-4.081
11
-15.283
21
-4.079
0
LINE
8
медь верх
10
-24.411
20
-3.839
11
-15.283
21
-3.839
0
LINE
8
медь верх
10
-24.411
20
-3.599
11
-15.283
21
-3.599
0
LINE
8
медь верх
10
-24.411
20
-3.359
11
-15.283
21
-3.358
0
LINE
8
медь верх
10
-24.411
20
-3.119
11
-15.283
21
-3.118
0
LINE
8
медь верх
10
-24.411
20
-2.879
11
-15.283
21
-2.878
0
LINE
8
медь верх
10
-24.411
20
-2.639
11
-15.283
21
-2.638
0
LINE
8
медь верх
10
-24.411
20
-2.398
11
-15.283
21
-2.398
0
LINE
8
медь верх
10
-24.411
20
-2.158
11
-15.283
21
-2.156
0
LINE
8
медь верх
10
-7.400
20
-6.221
11
-7.400
21
-2.000
0
LINE
8
медь верх
10
-7.400
20
-2.000
11
-1.501
21
-2.000
0
LINE
8
медь верх
10
-1.501
20
-2.000
11
-1.501
21
-6.221
0
LINE
8
медь верх
10
-1.501
20
-6.221
11
-7.400
21
-6.221
0
LINE
8
медь верх
10
-1.589
20
-6.221
11
-7.400
21
-6.221
0
LINE
8
медь верх
10
-7.400
20
-6.221
11
-7.400
21
-2.000
0
LINE
8
медь верх
10
-7.400
20
-2.000
11
-1.589
21
-2.000
0
LINE
8
медь верх
10
-1.589
20
-2.000
11
-1.589
21
-6.221
0
LINE
8
медь верх
10
-7.400
20
-5.999
11
-1.589
21
-5.999
0
LINE
8
медь верх
10
-7.400
20
-5.759
11
-1.589
21
-5.759
0
LINE
8
медь верх
10
-7.400
20
-5.519
11
-1.589
21
-5.519
0
LINE
8
медь верх
10
-7.400
20
-5.279
11
-1.589
21
-5.279
0
LINE
8
медь верх
10
-7.400
20
-5.039
11
-1.589
21
-5.038
0
LINE
8
медь верх
10
-7.400
20
-4.799
11
-1.589
21
-4.798
0
LINE
8
медь верх
10
-7.400
20
-4.558
11
-1.589
21
-4.558
0
LINE
8
медь верх
10
-7.400
20
-4.318
11
-1.589
21
-4.318
0
LINE
8
медь верх
10
-7.400
20
-4.078
11
-1.589
21
-4.078
0
LINE
8
медь верх
10
-7.400
20
-3.838
11
-1.589
21
-3.837
0
LINE
8
медь верх
10
-7.400
20
-3.598
11
-1.589
21
-3.597
0
LINE
8
медь верх
10
-7.400
20
-3.358
11
-1.589
21
-3.357
0
LINE
8
медь верх
10
-7.400
20
-3.117
11
-1.589
21
-3.117
0
LINE
8
медь верх
10
-7.400
20
-2.877
11
-1.589
21
-2.877
0
LINE
8
медь верх
10
-7.400
20
-2.637
11
-1.589
21
-2.637
0
LINE
8
медь верх
10
-7.400
20
-2.396
11
-1.589
21
-2.395
0
LINE
8
медь верх
10
-7.400
20
-2.156
11
-1.589
21
-2.155
0
LINE
8
медь верх
10
-8.623
20
-2.000
11
-8.623
21
-4.455
0
LINE
8
медь верх
10
-8.623
20
-4.455
11
-10.510
21
-6.342
0
LINE
8
медь верх
10
-10.510
20
-6.342
11
-10.510
21
-7.991
0
LINE
8
медь верх
10
-10.510
20
-7.991
11
-12.709
21
-7.991
0
LINE
8
медь верх
10
-12.709
20
-7.991
11
-14.351
21
-6.349
0
LINE
8
медь верх
10
-14.351
20
-6.349
11
-14.351
21
-2.000
0
LINE
8
медь верх
10
-14.351
20
-2.000
11
-8.623
21
-2.000
0
LINE
8
медь верх
10
-8.623
20
-4.455
11
-10.510
21
-6.342
0
LINE
8
медь верх
10
-10.510
20
-6.342
11
-10.510
21
-7.761
0
LINE
8
медь верх
10
-10.510
20
-7.761
11
-12.204
21
-7.761
0
LINE
8
медь верх
10
-12.204
20
-7.761
11
-12.204
21
-7.288
0
LINE
8
медь верх
10
-12.204
20
-7.288
11
-12.432
21
-7.061
0
LINE
8
медь верх
10
-12.432
20
-7.061
11
-13.639
21
-7.061
0
LINE
8
медь верх
10
-13.639
20
-7.061
11
-14.351
21
-6.349
0
LINE
8
медь верх
10
-14.351
20
-6.349
11
-14.351
21
-2.000
0
LINE
8
медь верх
10
-14.351
20
-2.000
11
-8.623
21
-2.000
0
LINE
8
медь верх
10
-8.623
20
-2.000
11
-8.623
21
-4.455
0
LINE
8
медь верх
10
-10.509
20
-7.681
11
-12.203
21
-7.681
0
LINE
8
медь верх
10
-10.509
20
-7.440
11
-12.203
21
-7.441
0
LINE
8
медь верх
10
-10.509
20
-7.200
11
-12.291
21
-7.200
0
LINE
8
медь верх
10
-10.509
20
-6.960
11
-13.739
21
-6.960
0
LINE
8
медь верх
10
-10.509
20
-6.720
11
-13.979
21
-6.720
0
LINE
8
медь верх
10
-10.509
20
-6.480
11
-14.219
21
-6.480
0
LINE
8
медь верх
10
-10.408
20
-6.240
11
-14.351
21
-6.240
0
LINE
8
медь верх
10
-10.168
20
-5.998
11
-14.351
21
-5.999
0
LINE
8
медь верх
10
-9.928
20
-5.758
11
-14.351
21
-5.758
0
LINE
8
медь верх
10
-9.686
20
-5.518
11
-14.351
21
-5.518
0
LINE
8
медь верх
10
-9.446
20
-5.278
11
-14.351
21
-5.278
0
LINE
8
медь верх
10
-9.206
20
-5.038
11
-14.351
21
-5.038
0
LINE
8
медь верх
10
-8.966
20
-4.797
11
-14.351
21
-4.798
0
LINE
8
медь верх
10
-8.726
20
-4.557
11
-14.351
21
-4.558
0
LINE
8
медь верх
10
-14.351
20
-4.317
11
-8.623
21
-4.317
0
LINE
8
медь верх
10
-14.351
20
-4.077
11
-8.623
21
-4.077
0
LINE
8
медь верх
10
-14.351
20
-3.837
11
-8.623
21
-3.837
0
LINE
8
медь верх
10
-14.351
20
-3.597
11
-8.623
21
-3.595
0
LINE
8
медь верх
10
-14.351
20
-3.357
11
-8.623
21
-3.355
0
LINE
8
медь верх
10
-14.351
20
-3.117
11
-8.623
21
-3.115
0
LINE
8
медь верх
10
-14.351
20
-2.875
11
-8.623
21
-2.875
0
LINE
8
медь верх
10
-14.351
20
-2.635
11
-8.623
21
-2.635
0
LINE
8
медь верх
10
-14.351
20
-2.395
11
-8.623
21
-2.395
0
LINE
8
медь верх
10
-14.351
20
-2.155
11
-8.623
21
-2.154
0
ENDSEC
0
EOF
