0
SECTION
2
ENTITIES
0
LINE
8
медь верх
10
-2.737
20
-1.290
11
-3.030
21
-1.290
0
LINE
8
медь верх
10
-3.030
20
-1.290
11
-2.883
21
-1.143
0
LINE
8
медь верх
10
-2.883
20
-1.143
11
-2.737
21
-1.290
0
LINE
8
медь верх
10
11.972
20
-5.222
11
-11.972
21
-5.222
0
LINE
8
медь верх
10
-11.972
20
-5.222
11
-11.972
21
0.000
0
LINE
8
медь верх
10
-11.972
20
0.000
11
-11.972
21
5.222
0
LINE
8
медь верх
10
-11.972
20
5.222
11
11.972
21
5.222
0
LINE
8
медь верх
10
11.972
20
5.222
11
11.972
21
-5.222
0
LINE
8
медь верх
10
-2.212
20
-0.300
11
-2.656
21
-0.300
0
LINE
8
медь верх
10
-2.656
20
-0.300
11
-2.883
21
-0.527
0
LINE
8
медь верх
10
-2.883
20
-0.527
11
-3.111
21
-0.300
0
LINE
8
медь верх
10
-3.111
20
-0.300
11
-3.555
21
-0.300
0
LINE
8
медь верх
10
-3.555
20
-0.300
11
-3.869
21
-0.614
0
LINE
8
медь верх
10
-3.869
20
-0.614
11
-3.869
21
-1.057
0
LINE
8
медь верх
10
-3.869
20
-1.057
11
-3.636
21
-1.290
0
LINE
8
медь верх
10
-3.636
20
-1.290
11
-3.709
21
-1.290
0
LINE
8
медь верх
10
-3.709
20
-1.290
11
-3.709
21
-1.791
0
LINE
8
медь верх
10
-3.709
20
-1.791
11
-2.059
21
-1.791
0
LINE
8
медь верх
10
-2.059
20
-1.791
11
-2.059
21
-1.290
0
LINE
8
медь верх
10
-2.059
20
-1.290
11
-2.131
21
-1.290
0
LINE
8
медь верх
10
-2.131
20
-1.290
11
-1.898
21
-1.057
0
LINE
8
медь верх
10
-1.898
20
-1.057
11
-1.898
21
-0.614
0
LINE
8
медь верх
10
-1.898
20
-0.614
11
-2.212
21
-0.300
0
LINE
8
медь верх
10
11.411
20
4.428
11
5.600
21
4.428
0
LINE
8
медь верх
10
5.600
20
4.428
11
5.531
21
4.415
0
LINE
8
медь верх
10
5.531
20
4.415
11
5.473
21
4.376
0
LINE
8
медь верх
10
5.473
20
4.376
11
5.435
21
4.318
0
LINE
8
медь верх
10
5.435
20
4.318
11
5.421
21
4.250
0
LINE
8
медь верх
10
5.421
20
4.250
11
5.421
21
0.029
0
LINE
8
медь верх
10
5.421
20
0.029
11
5.435
21
-0.039
0
LINE
8
медь верх
10
5.435
20
-0.039
11
5.473
21
-0.097
0
LINE
8
медь верх
10
5.473
20
-0.097
11
5.531
21
-0.136
0
LINE
8
медь верх
10
5.531
20
-0.136
11
5.600
21
-0.149
0
LINE
8
медь верх
10
5.600
20
-0.149
11
7.070
21
-0.149
0
LINE
8
медь верх
10
7.070
20
-0.149
11
7.070
21
-1.995
0
LINE
8
медь верх
10
7.070
20
-1.995
11
6.825
21
-1.995
0
LINE
8
медь верх
10
6.825
20
-1.995
11
6.825
21
-2.846
0
LINE
8
медь верх
10
6.825
20
-2.846
11
7.775
21
-2.846
0
LINE
8
медь верх
10
7.775
20
-2.846
11
7.775
21
-1.995
0
LINE
8
медь верх
10
7.775
20
-1.995
11
7.530
21
-1.995
0
LINE
8
медь верх
10
7.530
20
-1.995
11
7.530
21
-0.149
0
LINE
8
медь верх
10
7.530
20
-0.149
11
8.469
21
-0.149
0
LINE
8
медь верх
10
8.469
20
-0.149
11
8.469
21
-0.709
0
LINE
8
медь верх
10
8.469
20
-0.709
11
9.041
21
-1.281
0
LINE
8
медь верх
10
9.041
20
-1.281
11
10.959
21
-1.281
0
LINE
8
медь верх
10
10.959
20
-1.281
11
11.531
21
-0.709
0
LINE
8
медь верх
10
11.531
20
-0.709
11
11.531
21
-0.101
0
LINE
8
медь верх
10
11.531
20
-0.101
11
11.537
21
-0.097
0
LINE
8
медь верх
10
11.537
20
-0.097
11
11.576
21
-0.039
0
LINE
8
медь верх
10
11.576
20
-0.039
11
11.589
21
0.029
0
LINE
8
медь верх
10
11.589
20
0.029
11
11.589
21
4.250
0
LINE
8
медь верх
10
11.589
20
4.250
11
11.576
21
4.318
0
LINE
8
медь верх
10
11.576
20
4.318
11
11.537
21
4.376
0
LINE
8
медь верх
10
11.537
20
4.376
11
11.479
21
4.415
0
LINE
8
медь верх
10
11.479
20
4.415
11
11.411
21
4.428
0
LINE
8
медь верх
10
4.377
20
4.428
11
-1.351
21
4.428
0
LINE
8
медь верх
10
-1.351
20
4.428
11
-1.419
21
4.415
0
LINE
8
медь верх
10
-1.419
20
4.415
11
-1.477
21
4.376
0
LINE
8
медь верх
10
-1.477
20
4.376
11
-1.516
21
4.318
0
LINE
8
медь верх
10
-1.516
20
4.318
11
-1.530
21
4.250
0
LINE
8
медь верх
10
-1.530
20
4.250
11
-1.530
21
4.250
0
LINE
8
медь верх
10
-1.530
20
4.250
11
-1.530
21
-0.099
0
LINE
8
медь верх
10
-1.530
20
-0.099
11
-1.530
21
-0.099
0
LINE
8
медь верх
10
-1.530
20
-0.099
11
-1.516
21
-0.167
0
LINE
8
медь верх
10
-1.516
20
-0.167
11
-1.477
21
-0.225
0
LINE
8
медь верх
10
-1.477
20
-0.225
11
-0.766
21
-0.937
0
LINE
8
медь верх
10
-0.766
20
-0.937
11
-0.708
21
-0.976
0
LINE
8
медь верх
10
-0.708
20
-0.976
11
-0.639
21
-0.989
0
LINE
8
медь верх
10
-0.639
20
-0.989
11
0.494
21
-0.989
0
LINE
8
медь верх
10
0.494
20
-0.989
11
0.617
21
-1.112
0
LINE
8
медь верх
10
0.617
20
-1.112
11
0.617
21
-1.511
0
LINE
8
медь верх
10
0.617
20
-1.511
11
0.631
21
-1.579
0
LINE
8
медь верх
10
0.631
20
-1.579
11
0.669
21
-1.637
0
LINE
8
медь верх
10
0.669
20
-1.637
11
0.727
21
-1.676
0
LINE
8
медь верх
10
0.727
20
-1.676
11
0.796
21
-1.689
0
LINE
8
медь верх
10
0.796
20
-1.689
11
0.891
21
-1.689
0
LINE
8
медь верх
10
0.891
20
-1.689
11
0.891
21
-1.791
0
LINE
8
медь верх
10
0.891
20
-1.791
11
2.541
21
-1.791
0
LINE
8
медь верх
10
2.541
20
-1.791
11
2.541
21
-1.679
0
LINE
8
медь верх
10
2.541
20
-1.679
11
2.558
21
-1.676
0
LINE
8
медь верх
10
2.558
20
-1.676
11
2.616
21
-1.637
0
LINE
8
медь верх
10
2.616
20
-1.637
11
2.655
21
-1.579
0
LINE
8
медь верх
10
2.655
20
-1.579
11
2.668
21
-1.511
0
LINE
8
медь верх
10
2.668
20
-1.511
11
2.668
21
-0.166
0
LINE
8
медь верх
10
2.668
20
-0.166
11
4.350
21
1.517
0
LINE
8
медь верх
10
4.350
20
1.517
11
4.359
21
1.517
0
LINE
8
медь верх
10
4.359
20
1.517
11
4.517
21
1.675
0
LINE
8
медь верх
10
4.517
20
1.675
11
4.517
21
1.691
0
LINE
8
медь верх
10
4.517
20
1.691
11
4.542
21
1.727
0
LINE
8
медь верх
10
4.542
20
1.727
11
4.555
21
1.795
0
LINE
8
медь верх
10
4.555
20
1.795
11
4.555
21
4.250
0
LINE
8
медь верх
10
4.555
20
4.250
11
4.542
21
4.318
0
LINE
8
медь верх
10
4.542
20
4.318
11
4.503
21
4.376
0
LINE
8
медь верх
10
4.503
20
4.376
11
4.445
21
4.415
0
LINE
8
медь верх
10
4.445
20
4.415
11
4.377
21
4.428
0
LINE
8
медь верх
10
-2.284
20
4.428
11
-11.411
21
4.428
0
LINE
8
медь верх
10
-11.411
20
4.428
11
-11.480
21
4.415
0
LINE
8
медь верх
10
-11.480
20
4.415
11
-11.538
21
4.376
0
LINE
8
медь верх
10
-11.538
20
4.376
11
-11.576
21
4.318
0
LINE
8
медь верх
10
-11.576
20
4.318
11
-11.590
21
4.250
0
LINE
8
медь верх
10
-11.590
20
4.250
11
-11.590
21
0.263
0
LINE
8
медь верх
10
-11.590
20
0.263
11
-11.576
21
0.195
0
LINE
8
медь верх
10
-11.576
20
0.195
11
-11.538
21
0.137
0
LINE
8
медь верх
10
-11.538
20
0.137
11
-11.480
21
0.098
0
LINE
8
медь верх
10
-11.480
20
0.098
11
-11.411
21
0.085
0
LINE
8
медь верх
10
-11.411
20
0.085
11
-8.104
21
0.085
0
LINE
8
медь верх
10
-8.104
20
0.085
11
-8.036
21
0.098
0
LINE
8
медь верх
10
-8.036
20
0.098
11
-7.978
21
0.137
0
LINE
8
медь верх
10
-7.978
20
0.137
11
-7.939
21
0.195
0
LINE
8
медь верх
10
-7.939
20
0.195
11
-7.926
21
0.263
0
LINE
8
медь верх
10
-7.926
20
0.263
11
-7.926
21
0.563
0
LINE
8
медь верх
10
-7.926
20
0.563
11
-7.803
21
0.686
0
LINE
8
медь верх
10
-7.803
20
0.686
11
-6.197
21
0.686
0
LINE
8
медь верх
10
-6.197
20
0.686
11
-6.074
21
0.563
0
LINE
8
медь верх
10
-6.074
20
0.563
11
-6.074
21
0.263
0
LINE
8
медь верх
10
-6.074
20
0.263
11
-6.061
21
0.195
0
LINE
8
медь верх
10
-6.061
20
0.195
11
-6.022
21
0.137
0
LINE
8
медь верх
10
-6.022
20
0.137
11
-5.964
21
0.098
0
LINE
8
медь верх
10
-5.964
20
0.098
11
-5.930
21
0.092
0
LINE
8
медь верх
10
-5.930
20
0.092
11
-5.930
21
-1.265
0
LINE
8
медь верх
10
-5.930
20
-1.265
11
-6.175
21
-1.265
0
LINE
8
медь верх
10
-6.175
20
-1.265
11
-6.175
21
-2.116
0
LINE
8
медь верх
10
-6.175
20
-2.116
11
-5.225
21
-2.116
0
LINE
8
медь верх
10
-5.225
20
-2.116
11
-5.225
21
-1.920
0
LINE
8
медь верх
10
-5.225
20
-1.920
11
-4.772
21
-1.920
0
LINE
8
медь верх
10
-4.772
20
-1.920
11
-4.339
21
-2.353
0
LINE
8
медь верх
10
-4.339
20
-2.353
11
-4.265
21
-2.402
0
LINE
8
медь верх
10
-4.265
20
-2.402
11
-4.177
21
-2.420
0
LINE
8
медь верх
10
-4.177
20
-2.420
11
-4.177
21
-2.420
0
LINE
8
медь верх
10
-4.177
20
-2.420
11
-3.709
21
-2.420
0
LINE
8
медь верх
10
-3.709
20
-2.420
11
-3.709
21
-2.441
0
LINE
8
медь верх
10
-3.709
20
-2.441
11
-2.059
21
-2.441
0
LINE
8
медь верх
10
-2.059
20
-2.441
11
-2.059
21
-1.940
0
LINE
8
медь верх
10
-2.059
20
-1.940
11
-3.709
21
-1.940
0
LINE
8
медь верх
10
-3.709
20
-1.940
11
-3.709
21
-1.961
0
LINE
8
медь верх
10
-3.709
20
-1.961
11
-4.082
21
-1.961
0
LINE
8
медь верх
10
-4.082
20
-1.961
11
-4.514
21
-1.528
0
LINE
8
медь верх
10
-4.514
20
-1.528
11
-4.589
21
-1.478
0
LINE
8
медь верх
10
-4.589
20
-1.478
11
-4.677
21
-1.461
0
LINE
8
медь верх
10
-4.677
20
-1.461
11
-5.225
21
-1.461
0
LINE
8
медь верх
10
-5.225
20
-1.461
11
-5.225
21
-1.265
0
LINE
8
медь верх
10
-5.225
20
-1.265
11
-5.470
21
-1.265
0
LINE
8
медь верх
10
-5.470
20
-1.265
11
-5.470
21
0.085
0
LINE
8
медь верх
10
-5.470
20
0.085
11
-2.284
21
0.085
0
LINE
8
медь верх
10
-2.284
20
0.085
11
-2.216
21
0.098
0
LINE
8
медь верх
10
-2.216
20
0.098
11
-2.158
21
0.137
0
LINE
8
медь верх
10
-2.158
20
0.137
11
-2.119
21
0.195
0
LINE
8
медь верх
10
-2.119
20
0.195
11
-2.106
21
0.263
0
LINE
8
медь верх
10
-2.106
20
0.263
11
-2.106
21
4.250
0
LINE
8
медь верх
10
-2.106
20
4.250
11
-2.119
21
4.318
0
LINE
8
медь верх
10
-2.119
20
4.318
11
-2.158
21
4.376
0
LINE
8
медь верх
10
-2.158
20
4.376
11
-2.216
21
4.415
0
LINE
8
медь верх
10
-2.216
20
4.415
11
-2.284
21
4.428
0
LINE
8
медь верх
10
2.541
20
-2.611
11
3.110
21
-2.611
0
LINE
8
медь верх
10
3.110
20
-2.611
11
3.198
21
-2.628
0
LINE
8
медь верх
10
3.198
20
-2.628
11
3.228
21
-2.648
0
LINE
8
медь верх
10
3.228
20
-2.648
11
3.272
21
-2.678
0
LINE
8
медь верх
10
3.272
20
-2.678
11
3.620
21
-3.025
0
LINE
8
медь верх
10
3.620
20
-3.025
11
5.407
21
-3.025
0
LINE
8
медь верх
10
5.407
20
-3.025
11
5.407
21
-3.025
0
LINE
8
медь верх
10
5.407
20
-3.025
11
5.407
21
-3.025
0
LINE
8
медь верх
10
5.407
20
-3.025
11
5.451
21
-3.034
0
LINE
8
медь верх
10
5.451
20
-3.034
11
5.495
21
-3.043
0
LINE
8
медь верх
10
5.495
20
-3.043
11
5.495
21
-3.043
0
LINE
8
медь верх
10
5.495
20
-3.043
11
5.495
21
-3.043
0
LINE
8
медь верх
10
5.495
20
-3.043
11
5.532
21
-3.068
0
LINE
8
медь верх
10
5.532
20
-3.068
11
5.569
21
-3.092
0
LINE
8
медь верх
10
5.569
20
-3.092
11
5.569
21
-3.093
0
LINE
8
медь верх
10
5.569
20
-3.093
11
5.569
21
-3.093
0
LINE
8
медь верх
10
5.569
20
-3.093
11
5.962
21
-3.486
0
LINE
8
медь верх
10
5.962
20
-3.486
11
5.986
21
-3.523
0
LINE
8
медь верх
10
5.986
20
-3.523
11
6.011
21
-3.560
0
LINE
8
медь верх
10
6.011
20
-3.560
11
6.011
21
-3.561
0
LINE
8
медь верх
10
6.011
20
-3.561
11
6.011
21
-3.561
0
LINE
8
медь верх
10
6.011
20
-3.561
11
6.020
21
-3.605
0
LINE
8
медь верх
10
6.020
20
-3.605
11
6.029
21
-3.648
0
LINE
8
медь верх
10
6.029
20
-3.648
11
6.029
21
-3.825
0
LINE
8
медь верх
10
6.029
20
-3.825
11
6.275
21
-3.825
0
LINE
8
медь верх
10
6.275
20
-3.825
11
6.275
21
-4.021
0
LINE
8
медь верх
10
6.275
20
-4.021
11
7.120
21
-4.021
0
LINE
8
медь верх
10
7.120
20
-4.021
11
7.553
21
-3.588
0
LINE
8
медь верх
10
7.553
20
-3.588
11
7.596
21
-3.559
0
LINE
8
медь верх
10
7.596
20
-3.559
11
7.628
21
-3.538
0
LINE
8
медь верх
10
7.628
20
-3.538
11
7.628
21
-3.538
0
LINE
8
медь верх
10
7.628
20
-3.538
11
7.628
21
-3.538
0
LINE
8
медь верх
10
7.628
20
-3.538
11
7.672
21
-3.529
0
LINE
8
медь верх
10
7.672
20
-3.529
11
7.715
21
-3.521
0
LINE
8
медь верх
10
7.715
20
-3.521
11
8.469
21
-3.520
0
LINE
8
медь верх
10
8.469
20
-3.520
11
8.469
21
-3.291
0
LINE
8
медь верх
10
8.469
20
-3.291
11
9.041
21
-2.719
0
LINE
8
медь верх
10
9.041
20
-2.719
11
10.959
21
-2.719
0
LINE
8
медь верх
10
10.959
20
-2.719
11
11.531
21
-3.291
0
LINE
8
медь верх
10
11.531
20
-3.291
11
11.531
21
-4.209
0
LINE
8
медь верх
10
11.531
20
-4.209
11
10.959
21
-4.781
0
LINE
8
медь верх
10
10.959
20
-4.781
11
9.041
21
-4.781
0
LINE
8
медь верх
10
9.041
20
-4.781
11
8.469
21
-4.209
0
LINE
8
медь верх
10
8.469
20
-4.209
11
8.469
21
-3.980
0
LINE
8
медь верх
10
8.469
20
-3.980
11
7.811
21
-3.980
0
LINE
8
медь верх
10
7.811
20
-3.980
11
7.377
21
-4.413
0
LINE
8
медь верх
10
7.377
20
-4.413
11
7.377
21
-4.413
0
LINE
8
медь верх
10
7.377
20
-4.413
11
7.377
21
-4.413
0
LINE
8
медь верх
10
7.377
20
-4.413
11
7.340
21
-4.438
0
LINE
8
медь верх
10
7.340
20
-4.438
11
7.303
21
-4.463
0
LINE
8
медь верх
10
7.303
20
-4.463
11
7.303
21
-4.463
0
LINE
8
медь верх
10
7.303
20
-4.463
11
7.303
21
-4.463
0
LINE
8
медь верх
10
7.303
20
-4.463
11
7.260
21
-4.471
0
LINE
8
медь верх
10
7.260
20
-4.471
11
7.215
21
-4.480
0
LINE
8
медь верх
10
7.215
20
-4.480
11
7.215
21
-4.480
0
LINE
8
медь верх
10
7.215
20
-4.480
11
7.215
21
-4.480
0
LINE
8
медь верх
10
7.215
20
-4.480
11
6.275
21
-4.480
0
LINE
8
медь верх
10
6.275
20
-4.480
11
6.275
21
-4.675
0
LINE
8
медь верх
10
6.275
20
-4.675
11
5.325
21
-4.675
0
LINE
8
медь верх
10
5.325
20
-4.675
11
5.325
21
-3.825
0
LINE
8
медь верх
10
5.325
20
-3.825
11
5.570
21
-3.825
0
LINE
8
медь верх
10
5.570
20
-3.825
11
5.570
21
-3.744
0
LINE
8
медь верх
10
5.570
20
-3.744
11
5.311
21
-3.484
0
LINE
8
медь верх
10
5.311
20
-3.484
11
3.524
21
-3.484
0
LINE
8
медь верх
10
3.524
20
-3.484
11
3.524
21
-3.484
0
LINE
8
медь верх
10
3.524
20
-3.484
11
3.524
21
-3.484
0
LINE
8
медь верх
10
3.524
20
-3.484
11
3.524
21
-3.484
0
LINE
8
медь верх
10
3.524
20
-3.484
11
3.483
21
-3.476
0
LINE
8
медь верх
10
3.483
20
-3.476
11
3.437
21
-3.467
0
LINE
8
медь верх
10
3.437
20
-3.467
11
3.437
21
-3.467
0
LINE
8
медь верх
10
3.437
20
-3.467
11
3.437
21
-3.467
0
LINE
8
медь верх
10
3.437
20
-3.467
11
3.399
21
-3.442
0
LINE
8
медь верх
10
3.399
20
-3.442
11
3.362
21
-3.417
0
LINE
8
медь верх
10
3.362
20
-3.417
11
3.015
21
-3.070
0
LINE
8
медь верх
10
3.015
20
-3.070
11
2.541
21
-3.070
0
LINE
8
медь верх
10
2.541
20
-3.070
11
2.541
21
-3.091
0
LINE
8
медь верх
10
2.541
20
-3.091
11
0.891
21
-3.091
0
LINE
8
медь верх
10
0.891
20
-3.091
11
0.891
21
-2.590
0
LINE
8
медь верх
10
0.891
20
-2.590
11
2.541
21
-2.590
0
LINE
8
медь верх
10
2.541
20
-2.590
11
2.541
21
-2.611
0
LINE
8
медь верх
10
-8.469
20
-0.681
11
-8.469
21
-0.989
0
LINE
8
медь верх
10
-8.469
20
-0.989
11
-8.138
21
-1.318
0
LINE
8
медь верх
10
-8.138
20
-1.318
11
-8.138
21
-1.318
0
LINE
8
медь верх
10
-8.138
20
-1.318
11
-8.138
21
-1.318
0
LINE
8
медь верх
10
-8.138
20
-1.318
11
-8.113
21
-1.355
0
LINE
8
медь верх
10
-8.113
20
-1.355
11
-8.089
21
-1.392
0
LINE
8
медь верх
10
-8.089
20
-1.392
11
-8.088
21
-1.393
0
LINE
8
медь верх
10
-8.088
20
-1.393
11
-8.088
21
-1.393
0
LINE
8
медь верх
10
-8.088
20
-1.393
11
-8.080
21
-1.437
0
LINE
8
медь верх
10
-8.080
20
-1.437
11
-8.071
21
-1.480
0
LINE
8
медь верх
10
-8.071
20
-1.480
11
-8.071
21
-1.480
0
LINE
8
медь верх
10
-8.071
20
-1.480
11
-8.071
21
-1.481
0
LINE
8
медь верх
10
-8.071
20
-1.481
11
-8.071
21
-2.406
0
LINE
8
медь верх
10
-8.071
20
-2.406
11
-7.865
21
-2.611
0
LINE
8
медь верх
10
-7.865
20
-2.611
11
-3.709
21
-2.611
0
LINE
8
медь верх
10
-3.709
20
-2.611
11
-3.709
21
-2.590
0
LINE
8
медь верх
10
-3.709
20
-2.590
11
-2.059
21
-2.590
0
LINE
8
медь верх
10
-2.059
20
-2.590
11
-2.059
21
-3.091
0
LINE
8
медь верх
10
-2.059
20
-3.091
11
-3.709
21
-3.091
0
LINE
8
медь верх
10
-3.709
20
-3.091
11
-3.709
21
-3.070
0
LINE
8
медь верх
10
-3.709
20
-3.070
11
-7.960
21
-3.070
0
LINE
8
медь верх
10
-7.960
20
-3.070
11
-8.003
21
-3.061
0
LINE
8
медь верх
10
-8.003
20
-3.061
11
-8.048
21
-3.052
0
LINE
8
медь верх
10
-8.048
20
-3.052
11
-8.048
21
-3.052
0
LINE
8
медь верх
10
-8.048
20
-3.052
11
-8.048
21
-3.052
0
LINE
8
медь верх
10
-8.048
20
-3.052
11
-8.084
21
-3.029
0
LINE
8
медь верх
10
-8.084
20
-3.029
11
-8.123
21
-3.003
0
LINE
8
медь верх
10
-8.123
20
-3.003
11
-8.462
21
-2.663
0
LINE
8
медь верх
10
-8.462
20
-2.663
11
-8.487
21
-2.626
0
LINE
8
медь верх
10
-8.487
20
-2.626
11
-8.512
21
-2.589
0
LINE
8
медь верх
10
-8.512
20
-2.589
11
-8.512
21
-2.589
0
LINE
8
медь верх
10
-8.512
20
-2.589
11
-8.512
21
-2.589
0
LINE
8
медь верх
10
-8.512
20
-2.589
11
-8.521
21
-2.547
0
LINE
8
медь верх
10
-8.521
20
-2.547
11
-8.530
21
-2.501
0
LINE
8
медь верх
10
-8.530
20
-2.501
11
-8.530
21
-1.661
0
LINE
8
медь верх
10
-8.530
20
-1.661
11
-9.041
21
-2.172
0
LINE
8
медь верх
10
-9.041
20
-2.172
11
-10.959
21
-2.172
0
LINE
8
медь верх
10
-10.959
20
-2.172
11
-11.531
21
-1.599
0
LINE
8
медь верх
10
-11.531
20
-1.599
11
-11.531
21
-0.681
0
LINE
8
медь верх
10
-11.531
20
-0.681
11
-10.959
21
-0.109
0
LINE
8
медь верх
10
-10.959
20
-0.109
11
-9.041
21
-0.109
0
LINE
8
медь верх
10
-9.041
20
-0.109
11
-8.469
21
-0.681
0
LINE
8
медь верх
10
-7.475
20
-3.649
11
-7.475
21
-3.565
0
LINE
8
медь верх
10
-7.475
20
-3.565
11
-6.525
21
-3.565
0
LINE
8
медь верх
10
-6.525
20
-3.565
11
-6.525
21
-4.416
0
LINE
8
медь верх
10
-6.525
20
-4.416
11
-7.475
21
-4.416
0
LINE
8
медь верх
10
-7.475
20
-4.416
11
-7.475
21
-4.331
0
LINE
8
медь верх
10
-7.475
20
-4.331
11
-7.670
21
-4.526
0
LINE
8
медь верх
10
-7.670
20
-4.526
11
-8.114
21
-4.526
0
LINE
8
медь верх
10
-8.114
20
-4.526
11
-8.427
21
-4.212
0
LINE
8
медь верх
10
-8.427
20
-4.212
11
-8.427
21
-3.768
0
LINE
8
медь верх
10
-8.427
20
-3.768
11
-8.114
21
-3.455
0
LINE
8
медь верх
10
-8.114
20
-3.455
11
-7.670
21
-3.455
0
LINE
8
медь верх
10
-7.670
20
-3.455
11
-7.475
21
-3.649
0
LINE
8
медь верх
10
5.467
20
-0.457
11
5.575
21
-0.457
0
LINE
8
медь верх
10
5.575
20
-0.457
11
5.575
21
-0.415
0
LINE
8
медь верх
10
5.575
20
-0.415
11
6.425
21
-0.415
0
LINE
8
медь верх
10
6.425
20
-0.415
11
6.425
21
-0.849
0
LINE
8
медь верх
10
6.425
20
-0.849
11
6.434
21
-0.890
0
LINE
8
медь верх
10
6.434
20
-0.890
11
6.425
21
-0.932
0
LINE
8
медь верх
10
6.425
20
-0.932
11
6.425
21
-1.366
0
LINE
8
медь верх
10
6.425
20
-1.366
11
5.575
21
-1.366
0
LINE
8
медь верх
10
5.575
20
-1.366
11
5.575
21
-1.324
0
LINE
8
медь верх
10
5.575
20
-1.324
11
5.467
21
-1.324
0
LINE
8
медь верх
10
5.467
20
-1.324
11
5.365
21
-1.426
0
LINE
8
медь верх
10
5.365
20
-1.426
11
4.921
21
-1.426
0
LINE
8
медь верх
10
4.921
20
-1.426
11
4.819
21
-1.324
0
LINE
8
медь верх
10
4.819
20
-1.324
11
4.735
21
-1.324
0
LINE
8
медь верх
10
4.735
20
-1.324
11
4.735
21
-1.366
0
LINE
8
медь верх
10
4.735
20
-1.366
11
3.885
21
-1.366
0
LINE
8
медь верх
10
3.885
20
-1.366
11
3.885
21
-0.932
0
LINE
8
медь верх
10
3.885
20
-0.932
11
3.876
21
-0.890
0
LINE
8
медь верх
10
3.876
20
-0.890
11
3.885
21
-0.849
0
LINE
8
медь верх
10
3.885
20
-0.849
11
3.885
21
-0.415
0
LINE
8
медь верх
10
3.885
20
-0.415
11
4.735
21
-0.415
0
LINE
8
медь верх
10
4.735
20
-0.415
11
4.735
21
-0.457
0
LINE
8
медь верх
10
4.735
20
-0.457
11
4.819
21
-0.457
0
LINE
8
медь верх
10
4.819
20
-0.457
11
4.921
21
-0.355
0
LINE
8
медь верх
10
4.921
20
-0.355
11
5.365
21
-0.355
0
LINE
8
медь верх
10
5.365
20
-0.355
11
5.467
21
-0.457
0
LINE
8
медь верх
10
0.366
20
-3.261
11
0.891
21
-3.261
0
LINE
8
медь верх
10
0.891
20
-3.261
11
0.891
21
-3.240
0
LINE
8
медь верх
10
0.891
20
-3.240
11
2.541
21
-3.240
0
LINE
8
медь верх
10
2.541
20
-3.240
11
2.541
21
-3.261
0
LINE
8
медь верх
10
2.541
20
-3.261
11
2.767
21
-3.261
0
LINE
8
медь верх
10
2.767
20
-3.261
11
2.854
21
-3.278
0
LINE
8
медь верх
10
2.854
20
-3.278
11
2.884
21
-3.298
0
LINE
8
медь верх
10
2.884
20
-3.298
11
2.929
21
-3.328
0
LINE
8
медь верх
10
2.929
20
-3.328
11
3.621
21
-4.020
0
LINE
8
медь верх
10
3.621
20
-4.020
11
4.025
21
-4.020
0
LINE
8
медь верх
10
4.025
20
-4.020
11
4.025
21
-3.825
0
LINE
8
медь верх
10
4.025
20
-3.825
11
4.975
21
-3.825
0
LINE
8
медь верх
10
4.975
20
-3.825
11
4.975
21
-4.675
0
LINE
8
медь верх
10
4.975
20
-4.675
11
4.025
21
-4.675
0
LINE
8
медь верх
10
4.025
20
-4.675
11
4.025
21
-4.480
0
LINE
8
медь верх
10
4.025
20
-4.480
11
3.526
21
-4.480
0
LINE
8
медь верх
10
3.526
20
-4.480
11
3.438
21
-4.462
0
LINE
8
медь верх
10
3.438
20
-4.462
11
3.364
21
-4.412
0
LINE
8
медь верх
10
3.364
20
-4.412
11
2.671
21
-3.720
0
LINE
8
медь верх
10
2.671
20
-3.720
11
2.541
21
-3.720
0
LINE
8
медь верх
10
2.541
20
-3.720
11
2.541
21
-3.741
0
LINE
8
медь верх
10
2.541
20
-3.741
11
0.891
21
-3.741
0
LINE
8
медь верх
10
0.891
20
-3.741
11
0.891
21
-3.720
0
LINE
8
медь верх
10
0.891
20
-3.720
11
0.366
21
-3.720
0
LINE
8
медь верх
10
0.366
20
-3.720
11
0.366
21
-3.791
0
LINE
8
медь верх
10
0.366
20
-3.791
11
-1.534
21
-3.791
0
LINE
8
медь верх
10
-1.534
20
-3.791
11
-1.534
21
-1.240
0
LINE
8
медь верх
10
-1.534
20
-1.240
11
0.366
21
-1.240
0
LINE
8
медь верх
10
0.366
20
-1.240
11
0.366
21
-3.261
0
LINE
8
медь верх
10
-6.325
20
-0.615
11
-6.546
21
-0.615
0
LINE
8
медь верх
10
-6.546
20
-0.615
11
-6.464
21
-0.697
0
LINE
8
медь верх
10
-6.464
20
-0.697
11
-6.464
21
-1.140
0
LINE
8
медь верх
10
-6.464
20
-1.140
11
-6.589
21
-1.265
0
LINE
8
медь верх
10
-6.589
20
-1.265
11
-6.525
21
-1.265
0
LINE
8
медь верх
10
-6.525
20
-1.265
11
-6.525
21
-2.116
0
LINE
8
медь верх
10
-6.525
20
-2.116
11
-7.475
21
-2.116
0
LINE
8
медь верх
10
-7.475
20
-2.116
11
-7.475
21
-1.265
0
LINE
8
медь верх
10
-7.475
20
-1.265
11
-7.411
21
-1.265
0
LINE
8
медь верх
10
-7.411
20
-1.265
11
-7.536
21
-1.140
0
LINE
8
медь верх
10
-7.536
20
-1.140
11
-7.536
21
-0.697
0
LINE
8
медь верх
10
-7.536
20
-0.697
11
-7.454
21
-0.615
0
LINE
8
медь верх
10
-7.454
20
-0.615
11
-7.675
21
-0.615
0
LINE
8
медь верх
10
-7.675
20
-0.615
11
-7.675
21
0.435
0
LINE
8
медь верх
10
-7.675
20
0.435
11
-6.325
21
0.435
0
LINE
8
медь верх
10
-6.325
20
0.435
11
-6.325
21
-0.615
0
LINE
8
медь верх
10
4.735
20
-2.191
11
5.525
21
-2.191
0
LINE
8
медь верх
10
5.525
20
-2.191
11
5.525
21
-1.995
0
LINE
8
медь верх
10
5.525
20
-1.995
11
6.475
21
-1.995
0
LINE
8
медь верх
10
6.475
20
-1.995
11
6.475
21
-2.846
0
LINE
8
медь верх
10
6.475
20
-2.846
11
5.525
21
-2.846
0
LINE
8
медь верх
10
5.525
20
-2.846
11
5.525
21
-2.650
0
LINE
8
медь верх
10
5.525
20
-2.650
11
4.735
21
-2.650
0
LINE
8
медь верх
10
4.735
20
-2.650
11
4.735
21
-2.666
0
LINE
8
медь верх
10
4.735
20
-2.666
11
3.885
21
-2.666
0
LINE
8
медь верх
10
3.885
20
-2.666
11
3.885
21
-2.420
0
LINE
8
медь верх
10
3.885
20
-2.420
11
2.541
21
-2.420
0
LINE
8
медь верх
10
2.541
20
-2.420
11
2.541
21
-2.441
0
LINE
8
медь верх
10
2.541
20
-2.441
11
0.891
21
-2.441
0
LINE
8
медь верх
10
0.891
20
-2.441
11
0.891
21
-1.940
0
LINE
8
медь верх
10
0.891
20
-1.940
11
2.541
21
-1.940
0
LINE
8
медь верх
10
2.541
20
-1.940
11
2.541
21
-1.961
0
LINE
8
медь верх
10
2.541
20
-1.961
11
3.885
21
-1.961
0
LINE
8
медь верх
10
3.885
20
-1.961
11
3.885
21
-1.715
0
LINE
8
медь верх
10
3.885
20
-1.715
11
4.735
21
-1.715
0
LINE
8
медь верх
10
4.735
20
-1.715
11
4.735
21
-2.191
0
LINE
8
медь верх
10
-2.059
20
-3.741
11
-3.709
21
-3.741
0
LINE
8
медь верх
10
-3.709
20
-3.741
11
-3.709
21
-3.720
0
LINE
8
медь верх
10
-3.709
20
-3.720
11
-4.302
21
-3.720
0
LINE
8
медь верх
10
-4.302
20
-3.720
11
-4.735
21
-4.153
0
LINE
8
медь верх
10
-4.735
20
-4.153
11
-4.809
21
-4.202
0
LINE
8
медь верх
10
-4.809
20
-4.202
11
-4.897
21
-4.220
0
LINE
8
медь верх
10
-4.897
20
-4.220
11
-4.897
21
-4.220
0
LINE
8
медь верх
10
-4.897
20
-4.220
11
-4.897
21
-4.220
0
LINE
8
медь верх
10
-4.897
20
-4.220
11
-5.225
21
-4.220
0
LINE
8
медь верх
10
-5.225
20
-4.220
11
-5.225
21
-4.416
0
LINE
8
медь верх
10
-5.225
20
-4.416
11
-6.175
21
-4.416
0
LINE
8
медь верх
10
-6.175
20
-4.416
11
-6.175
21
-3.565
0
LINE
8
медь верх
10
-6.175
20
-3.565
11
-5.225
21
-3.565
0
LINE
8
медь верх
10
-5.225
20
-3.565
11
-5.225
21
-3.761
0
LINE
8
медь верх
10
-5.225
20
-3.761
11
-4.992
21
-3.761
0
LINE
8
медь верх
10
-4.992
20
-3.761
11
-4.560
21
-3.328
0
LINE
8
медь верх
10
-4.560
20
-3.328
11
-4.515
21
-3.298
0
LINE
8
медь верх
10
-4.515
20
-3.298
11
-4.485
21
-3.278
0
LINE
8
медь верх
10
-4.485
20
-3.278
11
-4.397
21
-3.261
0
LINE
8
медь верх
10
-4.397
20
-3.261
11
-3.709
21
-3.261
0
LINE
8
медь верх
10
-3.709
20
-3.261
11
-3.709
21
-3.240
0
LINE
8
медь верх
10
-3.709
20
-3.240
11
-2.059
21
-3.240
0
LINE
8
медь верх
10
-2.059
20
-3.240
11
-2.059
21
-3.741
0
LINE
8
медь верх
10
-10.500
20
-1.140
11
-10.492
21
-1.054
0
LINE
8
медь верх
10
-10.492
20
-1.054
11
-10.470
21
-0.969
0
LINE
8
медь верх
10
-10.470
20
-0.969
11
-10.433
21
-0.890
0
LINE
8
медь верх
10
-10.433
20
-0.890
11
-10.383
21
-0.819
0
LINE
8
медь верх
10
-10.383
20
-0.819
11
-10.321
21
-0.757
0
LINE
8
медь верх
10
-10.321
20
-0.757
11
-10.250
21
-0.707
0
LINE
8
медь верх
10
-10.250
20
-0.707
11
-10.171
21
-0.670
0
LINE
8
медь верх
10
-10.171
20
-0.670
11
-10.087
21
-0.648
0
LINE
8
медь верх
10
-10.087
20
-0.648
11
-10.000
21
-0.640
0
LINE
8
медь верх
10
-10.000
20
-0.640
11
-9.913
21
-0.648
0
LINE
8
медь верх
10
-9.913
20
-0.648
11
-9.829
21
-0.670
0
LINE
8
медь верх
10
-9.829
20
-0.670
11
-9.750
21
-0.707
0
LINE
8
медь верх
10
-9.750
20
-0.707
11
-9.679
21
-0.757
0
LINE
8
медь верх
10
-9.679
20
-0.757
11
-9.617
21
-0.819
0
LINE
8
медь верх
10
-9.617
20
-0.819
11
-9.567
21
-0.890
0
LINE
8
медь верх
10
-9.567
20
-0.890
11
-9.530
21
-0.969
0
LINE
8
медь верх
10
-9.530
20
-0.969
11
-9.508
21
-1.054
0
LINE
8
медь верх
10
-9.508
20
-1.054
11
-9.500
21
-1.140
0
LINE
8
медь верх
10
-9.500
20
-1.140
11
-9.508
21
-1.227
0
LINE
8
медь верх
10
-9.508
20
-1.227
11
-9.530
21
-1.311
0
LINE
8
медь верх
10
-9.530
20
-1.311
11
-9.567
21
-1.390
0
LINE
8
медь верх
10
-9.567
20
-1.390
11
-9.617
21
-1.462
0
LINE
8
медь верх
10
-9.617
20
-1.462
11
-9.679
21
-1.523
0
LINE
8
медь верх
10
-9.679
20
-1.523
11
-9.750
21
-1.573
0
LINE
8
медь верх
10
-9.750
20
-1.573
11
-9.829
21
-1.610
0
LINE
8
медь верх
10
-9.829
20
-1.610
11
-9.913
21
-1.633
0
LINE
8
медь верх
10
-9.913
20
-1.633
11
-10.000
21
-1.640
0
LINE
8
медь верх
10
-10.000
20
-1.640
11
-10.087
21
-1.633
0
LINE
8
медь верх
10
-10.087
20
-1.633
11
-10.171
21
-1.610
0
LINE
8
медь верх
10
-10.171
20
-1.610
11
-10.250
21
-1.573
0
LINE
8
медь верх
10
-10.250
20
-1.573
11
-10.321
21
-1.523
0
LINE
8
медь верх
10
-10.321
20
-1.523
11
-10.383
21
-1.462
0
LINE
8
медь верх
10
-10.383
20
-1.462
11
-10.433
21
-1.390
0
LINE
8
медь верх
10
-10.433
20
-1.390
11
-10.470
21
-1.311
0
LINE
8
медь верх
10
-10.470
20
-1.311
11
-10.492
21
-1.227
0
LINE
8
медь верх
10
-10.492
20
-1.227
11
-10.500
21
-1.140
0
LINE
8
медь верх
10
9.500
20
-3.750
11
9.508
21
-3.663
0
LINE
8
медь верх
10
9.508
20
-3.663
11
9.530
21
-3.579
0
LINE
8
медь верх
10
9.530
20
-3.579
11
9.567
21
-3.500
0
LINE
8
медь верх
10
9.567
20
-3.500
11
9.617
21
-3.429
0
LINE
8
медь верх
10
9.617
20
-3.429
11
9.679
21
-3.367
0
LINE
8
медь верх
10
9.679
20
-3.367
11
9.750
21
-3.317
0
LINE
8
медь верх
10
9.750
20
-3.317
11
9.829
21
-3.280
0
LINE
8
медь верх
10
9.829
20
-3.280
11
9.913
21
-3.258
0
LINE
8
медь верх
10
9.913
20
-3.258
11
10.000
21
-3.250
0
LINE
8
медь верх
10
10.000
20
-3.250
11
10.087
21
-3.258
0
LINE
8
медь верх
10
10.087
20
-3.258
11
10.171
21
-3.280
0
LINE
8
медь верх
10
10.171
20
-3.280
11
10.250
21
-3.317
0
LINE
8
медь верх
10
10.250
20
-3.317
11
10.321
21
-3.367
0
LINE
8
медь верх
10
10.321
20
-3.367
11
10.383
21
-3.429
0
LINE
8
медь верх
10
10.383
20
-3.429
11
10.433
21
-3.500
0
LINE
8
медь верх
10
10.433
20
-3.500
11
10.470
21
-3.579
0
LINE
8
медь верх
10
10.470
20
-3.579
11
10.492
21
-3.663
0
LINE
8
медь верх
10
10.492
20
-3.663
11
10.500
21
-3.750
0
LINE
8
медь верх
10
10.500
20
-3.750
11
10.492
21
-3.837
0
LINE
8
медь верх
10
10.492
20
-3.837
11
10.470
21
-3.921
0
LINE
8
медь верх
10
10.470
20
-3.921
11
10.433
21
-4.000
0
LINE
8
медь верх
10
10.433
20
-4.000
11
10.383
21
-4.071
0
LINE
8
медь верх
10
10.383
20
-4.071
11
10.321
21
-4.133
0
LINE
8
медь верх
10
10.321
20
-4.133
11
10.250
21
-4.183
0
LINE
8
медь верх
10
10.250
20
-4.183
11
10.171
21
-4.220
0
LINE
8
медь верх
10
10.171
20
-4.220
11
10.087
21
-4.242
0
LINE
8
медь верх
10
10.087
20
-4.242
11
10.000
21
-4.250
0
LINE
8
медь верх
10
10.000
20
-4.250
11
9.913
21
-4.242
0
LINE
8
медь верх
10
9.913
20
-4.242
11
9.829
21
-4.220
0
LINE
8
медь верх
10
9.829
20
-4.220
11
9.750
21
-4.183
0
LINE
8
медь верх
10
9.750
20
-4.183
11
9.679
21
-4.133
0
LINE
8
медь верх
10
9.679
20
-4.133
11
9.617
21
-4.071
0
LINE
8
медь верх
10
9.617
20
-4.071
11
9.567
21
-4.000
0
LINE
8
медь верх
10
9.567
20
-4.000
11
9.530
21
-3.921
0
LINE
8
медь верх
10
9.530
20
-3.921
11
9.508
21
-3.837
0
LINE
8
медь верх
10
9.508
20
-3.837
11
9.500
21
-3.750
0
LINE
8
медь верх
10
9.500
20
-0.250
11
9.508
21
-0.163
0
LINE
8
медь верх
10
9.508
20
-0.163
11
9.530
21
-0.079
0
LINE
8
медь верх
10
9.530
20
-0.079
11
9.567
21
0.000
0
LINE
8
медь верх
10
9.567
20
0.000
11
9.617
21
0.071
0
LINE
8
медь верх
10
9.617
20
0.071
11
9.679
21
0.133
0
LINE
8
медь верх
10
9.679
20
0.133
11
9.750
21
0.183
0
LINE
8
медь верх
10
9.750
20
0.183
11
9.829
21
0.220
0
LINE
8
медь верх
10
9.829
20
0.220
11
9.913
21
0.242
0
LINE
8
медь верх
10
9.913
20
0.242
11
10.000
21
0.250
0
LINE
8
медь верх
10
10.000
20
0.250
11
10.087
21
0.242
0
LINE
8
медь верх
10
10.087
20
0.242
11
10.171
21
0.220
0
LINE
8
медь верх
10
10.171
20
0.220
11
10.250
21
0.183
0
LINE
8
медь верх
10
10.250
20
0.183
11
10.321
21
0.133
0
LINE
8
медь верх
10
10.321
20
0.133
11
10.383
21
0.071
0
LINE
8
медь верх
10
10.383
20
0.071
11
10.433
21
0.000
0
LINE
8
медь верх
10
10.433
20
0.000
11
10.470
21
-0.079
0
LINE
8
медь верх
10
10.470
20
-0.079
11
10.492
21
-0.163
0
LINE
8
медь верх
10
10.492
20
-0.163
11
10.500
21
-0.250
0
LINE
8
медь верх
10
10.500
20
-0.250
11
10.492
21
-0.337
0
LINE
8
медь верх
10
10.492
20
-0.337
11
10.470
21
-0.421
0
LINE
8
медь верх
10
10.470
20
-0.421
11
10.433
21
-0.500
0
LINE
8
медь верх
10
10.433
20
-0.500
11
10.383
21
-0.571
0
LINE
8
медь верх
10
10.383
20
-0.571
11
10.321
21
-0.633
0
LINE
8
медь верх
10
10.321
20
-0.633
11
10.250
21
-0.683
0
LINE
8
медь верх
10
10.250
20
-0.683
11
10.171
21
-0.720
0
LINE
8
медь верх
10
10.171
20
-0.720
11
10.087
21
-0.742
0
LINE
8
медь верх
10
10.087
20
-0.742
11
10.000
21
-0.750
0
LINE
8
медь верх
10
10.000
20
-0.750
11
9.913
21
-0.742
0
LINE
8
медь верх
10
9.913
20
-0.742
11
9.829
21
-0.720
0
LINE
8
медь верх
10
9.829
20
-0.720
11
9.750
21
-0.683
0
LINE
8
медь верх
10
9.750
20
-0.683
11
9.679
21
-0.633
0
LINE
8
медь верх
10
9.679
20
-0.633
11
9.617
21
-0.571
0
LINE
8
медь верх
10
9.617
20
-0.571
11
9.567
21
-0.500
0
LINE
8
медь верх
10
9.567
20
-0.500
11
9.530
21
-0.421
0
LINE
8
медь верх
10
9.530
20
-0.421
11
9.508
21
-0.337
0
LINE
8
медь верх
10
9.508
20
-0.337
11
9.500
21
-0.250
0
LINE
8
медь верх
10
-0.834
20
-2.515
11
-0.830
21
-2.472
0
LINE
8
медь верх
10
-0.830
20
-2.472
11
-0.819
21
-2.430
0
LINE
8
медь верх
10
-0.819
20
-2.430
11
-0.800
21
-2.390
0
LINE
8
медь верх
10
-0.800
20
-2.390
11
-0.775
21
-2.355
0
LINE
8
медь верх
10
-0.775
20
-2.355
11
-0.745
21
-2.324
0
LINE
8
медь верх
10
-0.745
20
-2.324
11
-0.709
21
-2.299
0
LINE
8
медь верх
10
-0.709
20
-2.299
11
-0.669
21
-2.280
0
LINE
8
медь верх
10
-0.669
20
-2.280
11
-0.627
21
-2.269
0
LINE
8
медь верх
10
-0.627
20
-2.269
11
-0.584
21
-2.265
0
LINE
8
медь верх
10
-0.584
20
-2.265
11
-0.540
21
-2.269
0
LINE
8
медь верх
10
-0.540
20
-2.269
11
-0.498
21
-2.280
0
LINE
8
медь верх
10
-0.498
20
-2.280
11
-0.459
21
-2.299
0
LINE
8
медь верх
10
-0.459
20
-2.299
11
-0.423
21
-2.324
0
LINE
8
медь верх
10
-0.423
20
-2.324
11
-0.392
21
-2.355
0
LINE
8
медь верх
10
-0.392
20
-2.355
11
-0.367
21
-2.390
0
LINE
8
медь верх
10
-0.367
20
-2.390
11
-0.349
21
-2.430
0
LINE
8
медь верх
10
-0.349
20
-2.430
11
-0.338
21
-2.472
0
LINE
8
медь верх
10
-0.338
20
-2.472
11
-0.334
21
-2.515
0
LINE
8
медь верх
10
-0.334
20
-2.515
11
-0.338
21
-2.559
0
LINE
8
медь верх
10
-0.338
20
-2.559
11
-0.349
21
-2.601
0
LINE
8
медь верх
10
-0.349
20
-2.601
11
-0.367
21
-2.640
0
LINE
8
медь верх
10
-0.367
20
-2.640
11
-0.392
21
-2.676
0
LINE
8
медь верх
10
-0.392
20
-2.676
11
-0.423
21
-2.707
0
LINE
8
медь верх
10
-0.423
20
-2.707
11
-0.459
21
-2.732
0
LINE
8
медь верх
10
-0.459
20
-2.732
11
-0.498
21
-2.750
0
LINE
8
медь верх
10
-0.498
20
-2.750
11
-0.540
21
-2.762
0
LINE
8
медь верх
10
-0.540
20
-2.762
11
-0.584
21
-2.765
0
LINE
8
медь верх
10
-0.584
20
-2.765
11
-0.627
21
-2.762
0
LINE
8
медь верх
10
-0.627
20
-2.762
11
-0.669
21
-2.750
0
LINE
8
медь верх
10
-0.669
20
-2.750
11
-0.709
21
-2.732
0
LINE
8
медь верх
10
-0.709
20
-2.732
11
-0.745
21
-2.707
0
LINE
8
медь верх
10
-0.745
20
-2.707
11
-0.775
21
-2.676
0
LINE
8
медь верх
10
-0.775
20
-2.676
11
-0.800
21
-2.640
0
LINE
8
медь верх
10
-0.800
20
-2.640
11
-0.819
21
-2.601
0
LINE
8
медь верх
10
-0.819
20
-2.601
11
-0.830
21
-2.559
0
LINE
8
медь верх
10
-0.830
20
-2.559
11
-0.834
21
-2.515
0
LINE
8
медь верх
10
-1.334
20
-1.765
11
-1.330
21
-1.722
0
LINE
8
медь верх
10
-1.330
20
-1.722
11
-1.319
21
-1.680
0
LINE
8
медь верх
10
-1.319
20
-1.680
11
-1.300
21
-1.640
0
LINE
8
медь верх
10
-1.300
20
-1.640
11
-1.275
21
-1.605
0
LINE
8
медь верх
10
-1.275
20
-1.605
11
-1.245
21
-1.574
0
LINE
8
медь верх
10
-1.245
20
-1.574
11
-1.209
21
-1.549
0
LINE
8
медь верх
10
-1.209
20
-1.549
11
-1.169
21
-1.530
0
LINE
8
медь верх
10
-1.169
20
-1.530
11
-1.127
21
-1.519
0
LINE
8
медь верх
10
-1.127
20
-1.519
11
-1.084
21
-1.515
0
LINE
8
медь верх
10
-1.084
20
-1.515
11
-1.040
21
-1.519
0
LINE
8
медь верх
10
-1.040
20
-1.519
11
-0.998
21
-1.530
0
LINE
8
медь верх
10
-0.998
20
-1.530
11
-0.959
21
-1.549
0
LINE
8
медь верх
10
-0.959
20
-1.549
11
-0.923
21
-1.574
0
LINE
8
медь верх
10
-0.923
20
-1.574
11
-0.892
21
-1.605
0
LINE
8
медь верх
10
-0.892
20
-1.605
11
-0.867
21
-1.640
0
LINE
8
медь верх
10
-0.867
20
-1.640
11
-0.849
21
-1.680
0
LINE
8
медь верх
10
-0.849
20
-1.680
11
-0.838
21
-1.722
0
LINE
8
медь верх
10
-0.838
20
-1.722
11
-0.834
21
-1.765
0
LINE
8
медь верх
10
-0.834
20
-1.765
11
-0.838
21
-1.809
0
LINE
8
медь верх
10
-0.838
20
-1.809
11
-0.849
21
-1.851
0
LINE
8
медь верх
10
-0.849
20
-1.851
11
-0.867
21
-1.890
0
LINE
8
медь верх
10
-0.867
20
-1.890
11
-0.892
21
-1.926
0
LINE
8
медь верх
10
-0.892
20
-1.926
11
-0.923
21
-1.957
0
LINE
8
медь верх
10
-0.923
20
-1.957
11
-0.959
21
-1.982
0
LINE
8
медь верх
10
-0.959
20
-1.982
11
-0.998
21
-2.000
0
LINE
8
медь верх
10
-0.998
20
-2.000
11
-1.040
21
-2.012
0
LINE
8
медь верх
10
-1.040
20
-2.012
11
-1.084
21
-2.015
0
LINE
8
медь верх
10
-1.084
20
-2.015
11
-1.127
21
-2.012
0
LINE
8
медь верх
10
-1.127
20
-2.012
11
-1.169
21
-2.000
0
LINE
8
медь верх
10
-1.169
20
-2.000
11
-1.209
21
-1.982
0
LINE
8
медь верх
10
-1.209
20
-1.982
11
-1.245
21
-1.957
0
LINE
8
медь верх
10
-1.245
20
-1.957
11
-1.275
21
-1.926
0
LINE
8
медь верх
10
-1.275
20
-1.926
11
-1.300
21
-1.890
0
LINE
8
медь верх
10
-1.300
20
-1.890
11
-1.319
21
-1.851
0
LINE
8
медь верх
10
-1.319
20
-1.851
11
-1.330
21
-1.809
0
LINE
8
медь верх
10
-1.330
20
-1.809
11
-1.334
21
-1.765
0
LINE
8
медь верх
10
-0.334
20
-1.765
11
-0.330
21
-1.722
0
LINE
8
медь верх
10
-0.330
20
-1.722
11
-0.319
21
-1.680
0
LINE
8
медь верх
10
-0.319
20
-1.680
11
-0.300
21
-1.640
0
LINE
8
медь верх
10
-0.300
20
-1.640
11
-0.275
21
-1.605
0
LINE
8
медь верх
10
-0.275
20
-1.605
11
-0.245
21
-1.574
0
LINE
8
медь верх
10
-0.245
20
-1.574
11
-0.209
21
-1.549
0
LINE
8
медь верх
10
-0.209
20
-1.549
11
-0.169
21
-1.530
0
LINE
8
медь верх
10
-0.169
20
-1.530
11
-0.127
21
-1.519
0
LINE
8
медь верх
10
-0.127
20
-1.519
11
-0.084
21
-1.515
0
LINE
8
медь верх
10
-0.084
20
-1.515
11
-0.040
21
-1.519
0
LINE
8
медь верх
10
-0.040
20
-1.519
11
0.002
21
-1.530
0
LINE
8
медь верх
10
0.002
20
-1.530
11
0.041
21
-1.549
0
LINE
8
медь верх
10
0.041
20
-1.549
11
0.077
21
-1.574
0
LINE
8
медь верх
10
0.077
20
-1.574
11
0.108
21
-1.605
0
LINE
8
медь верх
10
0.108
20
-1.605
11
0.133
21
-1.640
0
LINE
8
медь верх
10
0.133
20
-1.640
11
0.151
21
-1.680
0
LINE
8
медь верх
10
0.151
20
-1.680
11
0.162
21
-1.722
0
LINE
8
медь верх
10
0.162
20
-1.722
11
0.166
21
-1.765
0
LINE
8
медь верх
10
0.166
20
-1.765
11
0.162
21
-1.809
0
LINE
8
медь верх
10
0.162
20
-1.809
11
0.151
21
-1.851
0
LINE
8
медь верх
10
0.151
20
-1.851
11
0.133
21
-1.890
0
LINE
8
медь верх
10
0.133
20
-1.890
11
0.108
21
-1.926
0
LINE
8
медь верх
10
0.108
20
-1.926
11
0.077
21
-1.957
0
LINE
8
медь верх
10
0.077
20
-1.957
11
0.041
21
-1.982
0
LINE
8
медь верх
10
0.041
20
-1.982
11
0.002
21
-2.000
0
LINE
8
медь верх
10
0.002
20
-2.000
11
-0.040
21
-2.012
0
LINE
8
медь верх
10
-0.040
20
-2.012
11
-0.084
21
-2.015
0
LINE
8
медь верх
10
-0.084
20
-2.015
11
-0.127
21
-2.012
0
LINE
8
медь верх
10
-0.127
20
-2.012
11
-0.169
21
-2.000
0
LINE
8
медь верх
10
-0.169
20
-2.000
11
-0.209
21
-1.982
0
LINE
8
медь верх
10
-0.209
20
-1.982
11
-0.245
21
-1.957
0
LINE
8
медь верх
10
-0.245
20
-1.957
11
-0.275
21
-1.926
0
LINE
8
медь верх
10
-0.275
20
-1.926
11
-0.300
21
-1.890
0
LINE
8
медь верх
10
-0.300
20
-1.890
11
-0.319
21
-1.851
0
LINE
8
медь верх
10
-0.319
20
-1.851
11
-0.330
21
-1.809
0
LINE
8
медь верх
10
-0.330
20
-1.809
11
-0.334
21
-1.765
0
LINE
8
медь верх
10
-0.334
20
-3.265
11
-0.330
21
-3.222
0
LINE
8
медь верх
10
-0.330
20
-3.222
11
-0.319
21
-3.180
0
LINE
8
медь верх
10
-0.319
20
-3.180
11
-0.300
21
-3.140
0
LINE
8
медь верх
10
-0.300
20
-3.140
11
-0.275
21
-3.105
0
LINE
8
медь верх
10
-0.275
20
-3.105
11
-0.245
21
-3.074
0
LINE
8
медь верх
10
-0.245
20
-3.074
11
-0.209
21
-3.049
0
LINE
8
медь верх
10
-0.209
20
-3.049
11
-0.169
21
-3.030
0
LINE
8
медь верх
10
-0.169
20
-3.030
11
-0.127
21
-3.019
0
LINE
8
медь верх
10
-0.127
20
-3.019
11
-0.084
21
-3.015
0
LINE
8
медь верх
10
-0.084
20
-3.015
11
-0.040
21
-3.019
0
LINE
8
медь верх
10
-0.040
20
-3.019
11
0.002
21
-3.030
0
LINE
8
медь верх
10
0.002
20
-3.030
11
0.041
21
-3.049
0
LINE
8
медь верх
10
0.041
20
-3.049
11
0.077
21
-3.074
0
LINE
8
медь верх
10
0.077
20
-3.074
11
0.108
21
-3.105
0
LINE
8
медь верх
10
0.108
20
-3.105
11
0.133
21
-3.140
0
LINE
8
медь верх
10
0.133
20
-3.140
11
0.151
21
-3.180
0
LINE
8
медь верх
10
0.151
20
-3.180
11
0.162
21
-3.222
0
LINE
8
медь верх
10
0.162
20
-3.222
11
0.166
21
-3.265
0
LINE
8
медь верх
10
0.166
20
-3.265
11
0.162
21
-3.309
0
LINE
8
медь верх
10
0.162
20
-3.309
11
0.151
21
-3.351
0
LINE
8
медь верх
10
0.151
20
-3.351
11
0.133
21
-3.390
0
LINE
8
медь верх
10
0.133
20
-3.390
11
0.108
21
-3.426
0
LINE
8
медь верх
10
0.108
20
-3.426
11
0.077
21
-3.457
0
LINE
8
медь верх
10
0.077
20
-3.457
11
0.041
21
-3.482
0
LINE
8
медь верх
10
0.041
20
-3.482
11
0.002
21
-3.500
0
LINE
8
медь верх
10
0.002
20
-3.500
11
-0.040
21
-3.512
0
LINE
8
медь верх
10
-0.040
20
-3.512
11
-0.084
21
-3.515
0
LINE
8
медь верх
10
-0.084
20
-3.515
11
-0.127
21
-3.512
0
LINE
8
медь верх
10
-0.127
20
-3.512
11
-0.169
21
-3.500
0
LINE
8
медь верх
10
-0.169
20
-3.500
11
-0.209
21
-3.482
0
LINE
8
медь верх
10
-0.209
20
-3.482
11
-0.245
21
-3.457
0
LINE
8
медь верх
10
-0.245
20
-3.457
11
-0.275
21
-3.426
0
LINE
8
медь верх
10
-0.275
20
-3.426
11
-0.300
21
-3.390
0
LINE
8
медь верх
10
-0.300
20
-3.390
11
-0.319
21
-3.351
0
LINE
8
медь верх
10
-0.319
20
-3.351
11
-0.330
21
-3.309
0
LINE
8
медь верх
10
-0.330
20
-3.309
11
-0.334
21
-3.265
0
LINE
8
медь верх
10
-1.334
20
-3.265
11
-1.330
21
-3.222
0
LINE
8
медь верх
10
-1.330
20
-3.222
11
-1.319
21
-3.180
0
LINE
8
медь верх
10
-1.319
20
-3.180
11
-1.300
21
-3.140
0
LINE
8
медь верх
10
-1.300
20
-3.140
11
-1.275
21
-3.105
0
LINE
8
медь верх
10
-1.275
20
-3.105
11
-1.245
21
-3.074
0
LINE
8
медь верх
10
-1.245
20
-3.074
11
-1.209
21
-3.049
0
LINE
8
медь верх
10
-1.209
20
-3.049
11
-1.169
21
-3.030
0
LINE
8
медь верх
10
-1.169
20
-3.030
11
-1.127
21
-3.019
0
LINE
8
медь верх
10
-1.127
20
-3.019
11
-1.084
21
-3.015
0
LINE
8
медь верх
10
-1.084
20
-3.015
11
-1.040
21
-3.019
0
LINE
8
медь верх
10
-1.040
20
-3.019
11
-0.998
21
-3.030
0
LINE
8
медь верх
10
-0.998
20
-3.030
11
-0.959
21
-3.049
0
LINE
8
медь верх
10
-0.959
20
-3.049
11
-0.923
21
-3.074
0
LINE
8
медь верх
10
-0.923
20
-3.074
11
-0.892
21
-3.105
0
LINE
8
медь верх
10
-0.892
20
-3.105
11
-0.867
21
-3.140
0
LINE
8
медь верх
10
-0.867
20
-3.140
11
-0.849
21
-3.180
0
LINE
8
медь верх
10
-0.849
20
-3.180
11
-0.838
21
-3.222
0
LINE
8
медь верх
10
-0.838
20
-3.222
11
-0.834
21
-3.265
0
LINE
8
медь верх
10
-0.834
20
-3.265
11
-0.838
21
-3.309
0
LINE
8
медь верх
10
-0.838
20
-3.309
11
-0.849
21
-3.351
0
LINE
8
медь верх
10
-0.849
20
-3.351
11
-0.867
21
-3.390
0
LINE
8
медь верх
10
-0.867
20
-3.390
11
-0.892
21
-3.426
0
LINE
8
медь верх
10
-0.892
20
-3.426
11
-0.923
21
-3.457
0
LINE
8
медь верх
10
-0.923
20
-3.457
11
-0.959
21
-3.482
0
LINE
8
медь верх
10
-0.959
20
-3.482
11
-0.998
21
-3.500
0
LINE
8
медь верх
10
-0.998
20
-3.500
11
-1.040
21
-3.512
0
LINE
8
медь верх
10
-1.040
20
-3.512
11
-1.084
21
-3.515
0
LINE
8
медь верх
10
-1.084
20
-3.515
11
-1.127
21
-3.512
0
LINE
8
медь верх
10
-1.127
20
-3.512
11
-1.169
21
-3.500
0
LINE
8
медь верх
10
-1.169
20
-3.500
11
-1.209
21
-3.482
0
LINE
8
медь верх
10
-1.209
20
-3.482
11
-1.245
21
-3.457
0
LINE
8
медь верх
10
-1.245
20
-3.457
11
-1.275
21
-3.426
0
LINE
8
медь верх
10
-1.275
20
-3.426
11
-1.300
21
-3.390
0
LINE
8
медь верх
10
-1.300
20
-3.390
11
-1.319
21
-3.351
0
LINE
8
медь верх
10
-1.319
20
-3.351
11
-1.330
21
-3.309
0
LINE
8
медь верх
10
-1.330
20
-3.309
11
-1.334
21
-3.265
0
LINE
8
медь верх
10
-10.500
20
3.250
11
-10.492
21
3.337
0
LINE
8
медь верх
10
-10.492
20
3.337
11
-10.470
21
3.421
0
LINE
8
медь верх
10
-10.470
20
3.421
11
-10.433
21
3.500
0
LINE
8
медь верх
10
-10.433
20
3.500
11
-10.383
21
3.571
0
LINE
8
медь верх
10
-10.383
20
3.571
11
-10.321
21
3.633
0
LINE
8
медь верх
10
-10.321
20
3.633
11
-10.250
21
3.683
0
LINE
8
медь верх
10
-10.250
20
3.683
11
-10.171
21
3.720
0
LINE
8
медь верх
10
-10.171
20
3.720
11
-10.087
21
3.742
0
LINE
8
медь верх
10
-10.087
20
3.742
11
-10.000
21
3.750
0
LINE
8
медь верх
10
-10.000
20
3.750
11
-9.913
21
3.742
0
LINE
8
медь верх
10
-9.913
20
3.742
11
-9.829
21
3.720
0
LINE
8
медь верх
10
-9.829
20
3.720
11
-9.750
21
3.683
0
LINE
8
медь верх
10
-9.750
20
3.683
11
-9.679
21
3.633
0
LINE
8
медь верх
10
-9.679
20
3.633
11
-9.617
21
3.571
0
LINE
8
медь верх
10
-9.617
20
3.571
11
-9.567
21
3.500
0
LINE
8
медь верх
10
-9.567
20
3.500
11
-9.530
21
3.421
0
LINE
8
медь верх
10
-9.530
20
3.421
11
-9.508
21
3.337
0
LINE
8
медь верх
10
-9.508
20
3.337
11
-9.500
21
3.250
0
LINE
8
медь верх
10
-9.500
20
3.250
11
-9.508
21
3.163
0
LINE
8
медь верх
10
-9.508
20
3.163
11
-9.530
21
3.079
0
LINE
8
медь верх
10
-9.530
20
3.079
11
-9.567
21
3.000
0
LINE
8
медь верх
10
-9.567
20
3.000
11
-9.617
21
2.929
0
LINE
8
медь верх
10
-9.617
20
2.929
11
-9.679
21
2.867
0
LINE
8
медь верх
10
-9.679
20
2.867
11
-9.750
21
2.817
0
LINE
8
медь верх
10
-9.750
20
2.817
11
-9.829
21
2.780
0
LINE
8
медь верх
10
-9.829
20
2.780
11
-9.913
21
2.758
0
LINE
8
медь верх
10
-9.913
20
2.758
11
-10.000
21
2.750
0
LINE
8
медь верх
10
-10.000
20
2.750
11
-10.087
21
2.758
0
LINE
8
медь верх
10
-10.087
20
2.758
11
-10.171
21
2.780
0
LINE
8
медь верх
10
-10.171
20
2.780
11
-10.250
21
2.817
0
LINE
8
медь верх
10
-10.250
20
2.817
11
-10.321
21
2.867
0
LINE
8
медь верх
10
-10.321
20
2.867
11
-10.383
21
2.929
0
LINE
8
медь верх
10
-10.383
20
2.929
11
-10.433
21
3.000
0
LINE
8
медь верх
10
-10.433
20
3.000
11
-10.470
21
3.079
0
LINE
8
медь верх
10
-10.470
20
3.079
11
-10.492
21
3.163
0
LINE
8
медь верх
10
-10.492
20
3.163
11
-10.500
21
3.250
0
LINE
8
медь верх
10
-8.142
20
-3.990
11
-8.138
21
-3.947
0
LINE
8
медь верх
10
-8.138
20
-3.947
11
-8.127
21
-3.905
0
LINE
8
медь верх
10
-8.127
20
-3.905
11
-8.108
21
-3.865
0
LINE
8
медь верх
10
-8.108
20
-3.865
11
-8.083
21
-3.830
0
LINE
8
медь верх
10
-8.083
20
-3.830
11
-8.052
21
-3.799
0
LINE
8
медь верх
10
-8.052
20
-3.799
11
-8.017
21
-3.774
0
LINE
8
медь верх
10
-8.017
20
-3.774
11
-7.977
21
-3.755
0
LINE
8
медь верх
10
-7.977
20
-3.755
11
-7.935
21
-3.744
0
LINE
8
медь верх
10
-7.935
20
-3.744
11
-7.892
21
-3.740
0
LINE
8
медь верх
10
-7.892
20
-3.740
11
-7.848
21
-3.744
0
LINE
8
медь верх
10
-7.848
20
-3.744
11
-7.806
21
-3.755
0
LINE
8
медь верх
10
-7.806
20
-3.755
11
-7.767
21
-3.774
0
LINE
8
медь верх
10
-7.767
20
-3.774
11
-7.731
21
-3.799
0
LINE
8
медь верх
10
-7.731
20
-3.799
11
-7.700
21
-3.830
0
LINE
8
медь верх
10
-7.700
20
-3.830
11
-7.675
21
-3.865
0
LINE
8
медь верх
10
-7.675
20
-3.865
11
-7.657
21
-3.905
0
LINE
8
медь верх
10
-7.657
20
-3.905
11
-7.646
21
-3.947
0
LINE
8
медь верх
10
-7.646
20
-3.947
11
-7.642
21
-3.990
0
LINE
8
медь верх
10
-7.642
20
-3.990
11
-7.646
21
-4.034
0
LINE
8
медь верх
10
-7.646
20
-4.034
11
-7.657
21
-4.076
0
LINE
8
медь верх
10
-7.657
20
-4.076
11
-7.675
21
-4.115
0
LINE
8
медь верх
10
-7.675
20
-4.115
11
-7.700
21
-4.151
0
LINE
8
медь верх
10
-7.700
20
-4.151
11
-7.731
21
-4.182
0
LINE
8
медь верх
10
-7.731
20
-4.182
11
-7.767
21
-4.207
0
LINE
8
медь верх
10
-7.767
20
-4.207
11
-7.806
21
-4.225
0
LINE
8
медь верх
10
-7.806
20
-4.225
11
-7.848
21
-4.237
0
LINE
8
медь верх
10
-7.848
20
-4.237
11
-7.892
21
-4.240
0
LINE
8
медь верх
10
-7.892
20
-4.240
11
-7.935
21
-4.237
0
LINE
8
медь верх
10
-7.935
20
-4.237
11
-7.977
21
-4.225
0
LINE
8
медь верх
10
-7.977
20
-4.225
11
-8.017
21
-4.207
0
LINE
8
медь верх
10
-8.017
20
-4.207
11
-8.052
21
-4.182
0
LINE
8
медь верх
10
-8.052
20
-4.182
11
-8.083
21
-4.151
0
LINE
8
медь верх
10
-8.083
20
-4.151
11
-8.108
21
-4.115
0
LINE
8
медь верх
10
-8.108
20
-4.115
11
-8.127
21
-4.076
0
LINE
8
медь верх
10
-8.127
20
-4.076
11
-8.138
21
-4.034
0
LINE
8
медь верх
10
-8.138
20
-4.034
11
-8.142
21
-3.990
0
LINE
8
медь верх
10
4.893
20
-0.890
11
4.897
21
-0.847
0
LINE
8
медь верх
10
4.897
20
-0.847
11
4.908
21
-0.805
0
LINE
8
медь верх
10
4.908
20
-0.805
11
4.927
21
-0.765
0
LINE
8
медь верх
10
4.927
20
-0.765
11
4.952
21
-0.730
0
LINE
8
медь верх
10
4.952
20
-0.730
11
4.982
21
-0.699
0
LINE
8
медь верх
10
4.982
20
-0.699
11
5.018
21
-0.674
0
LINE
8
медь верх
10
5.018
20
-0.674
11
5.058
21
-0.655
0
LINE
8
медь верх
10
5.058
20
-0.655
11
5.100
21
-0.644
0
LINE
8
медь верх
10
5.100
20
-0.644
11
5.143
21
-0.640
0
LINE
8
медь верх
10
5.143
20
-0.640
11
5.187
21
-0.644
0
LINE
8
медь верх
10
5.187
20
-0.644
11
5.229
21
-0.655
0
LINE
8
медь верх
10
5.229
20
-0.655
11
5.268
21
-0.674
0
LINE
8
медь верх
10
5.268
20
-0.674
11
5.304
21
-0.699
0
LINE
8
медь верх
10
5.304
20
-0.699
11
5.335
21
-0.730
0
LINE
8
медь верх
10
5.335
20
-0.730
11
5.360
21
-0.765
0
LINE
8
медь верх
10
5.360
20
-0.765
11
5.378
21
-0.805
0
LINE
8
медь верх
10
5.378
20
-0.805
11
5.389
21
-0.847
0
LINE
8
медь верх
10
5.389
20
-0.847
11
5.393
21
-0.890
0
LINE
8
медь верх
10
5.393
20
-0.890
11
5.389
21
-0.934
0
LINE
8
медь верх
10
5.389
20
-0.934
11
5.378
21
-0.976
0
LINE
8
медь верх
10
5.378
20
-0.976
11
5.360
21
-1.015
0
LINE
8
медь верх
10
5.360
20
-1.015
11
5.335
21
-1.051
0
LINE
8
медь верх
10
5.335
20
-1.051
11
5.304
21
-1.082
0
LINE
8
медь верх
10
5.304
20
-1.082
11
5.268
21
-1.107
0
LINE
8
медь верх
10
5.268
20
-1.107
11
5.229
21
-1.125
0
LINE
8
медь верх
10
5.229
20
-1.125
11
5.187
21
-1.137
0
LINE
8
медь верх
10
5.187
20
-1.137
11
5.143
21
-1.140
0
LINE
8
медь верх
10
5.143
20
-1.140
11
5.100
21
-1.137
0
LINE
8
медь верх
10
5.100
20
-1.137
11
5.058
21
-1.125
0
LINE
8
медь верх
10
5.058
20
-1.125
11
5.018
21
-1.107
0
LINE
8
медь верх
10
5.018
20
-1.107
11
4.982
21
-1.082
0
LINE
8
медь верх
10
4.982
20
-1.082
11
4.952
21
-1.051
0
LINE
8
медь верх
10
4.952
20
-1.051
11
4.927
21
-1.015
0
LINE
8
медь верх
10
4.927
20
-1.015
11
4.908
21
-0.976
0
LINE
8
медь верх
10
4.908
20
-0.976
11
4.897
21
-0.934
0
LINE
8
медь верх
10
4.897
20
-0.934
11
4.893
21
-0.890
0
LINE
8
медь верх
10
-3.583
20
-0.835
11
-3.579
21
-0.792
0
LINE
8
медь верх
10
-3.579
20
-0.792
11
-3.568
21
-0.750
0
LINE
8
медь верх
10
-3.568
20
-0.750
11
-3.550
21
-0.710
0
LINE
8
медь верх
10
-3.550
20
-0.710
11
-3.525
21
-0.675
0
LINE
8
медь верх
10
-3.525
20
-0.675
11
-3.494
21
-0.644
0
LINE
8
медь верх
10
-3.494
20
-0.644
11
-3.458
21
-0.619
0
LINE
8
медь верх
10
-3.458
20
-0.619
11
-3.419
21
-0.600
0
LINE
8
медь верх
10
-3.419
20
-0.600
11
-3.376
21
-0.589
0
LINE
8
медь верх
10
-3.376
20
-0.589
11
-3.333
21
-0.585
0
LINE
8
медь верх
10
-3.333
20
-0.585
11
-3.290
21
-0.589
0
LINE
8
медь верх
10
-3.290
20
-0.589
11
-3.248
21
-0.600
0
LINE
8
медь верх
10
-3.248
20
-0.600
11
-3.208
21
-0.619
0
LINE
8
медь верх
10
-3.208
20
-0.619
11
-3.172
21
-0.644
0
LINE
8
медь верх
10
-3.172
20
-0.644
11
-3.141
21
-0.675
0
LINE
8
медь верх
10
-3.141
20
-0.675
11
-3.117
21
-0.710
0
LINE
8
медь верх
10
-3.117
20
-0.710
11
-3.098
21
-0.750
0
LINE
8
медь верх
10
-3.098
20
-0.750
11
-3.087
21
-0.792
0
LINE
8
медь верх
10
-3.087
20
-0.792
11
-3.083
21
-0.835
0
LINE
8
медь верх
10
-3.083
20
-0.835
11
-3.087
21
-0.879
0
LINE
8
медь верх
10
-3.087
20
-0.879
11
-3.098
21
-0.921
0
LINE
8
медь верх
10
-3.098
20
-0.921
11
-3.117
21
-0.960
0
LINE
8
медь верх
10
-3.117
20
-0.960
11
-3.141
21
-0.996
0
LINE
8
медь верх
10
-3.141
20
-0.996
11
-3.172
21
-1.027
0
LINE
8
медь верх
10
-3.172
20
-1.027
11
-3.208
21
-1.052
0
LINE
8
медь верх
10
-3.208
20
-1.052
11
-3.248
21
-1.070
0
LINE
8
медь верх
10
-3.248
20
-1.070
11
-3.290
21
-1.082
0
LINE
8
медь верх
10
-3.290
20
-1.082
11
-3.333
21
-1.085
0
LINE
8
медь верх
10
-3.333
20
-1.085
11
-3.376
21
-1.082
0
LINE
8
медь верх
10
-3.376
20
-1.082
11
-3.419
21
-1.070
0
LINE
8
медь верх
10
-3.419
20
-1.070
11
-3.458
21
-1.052
0
LINE
8
медь верх
10
-3.458
20
-1.052
11
-3.494
21
-1.027
0
LINE
8
медь верх
10
-3.494
20
-1.027
11
-3.525
21
-0.996
0
LINE
8
медь верх
10
-3.525
20
-0.996
11
-3.550
21
-0.960
0
LINE
8
медь верх
10
-3.550
20
-0.960
11
-3.568
21
-0.921
0
LINE
8
медь верх
10
-3.568
20
-0.921
11
-3.579
21
-0.879
0
LINE
8
медь верх
10
-3.579
20
-0.879
11
-3.583
21
-0.835
0
LINE
8
медь верх
10
-2.684
20
-0.835
11
-2.680
21
-0.792
0
LINE
8
медь верх
10
-2.680
20
-0.792
11
-2.669
21
-0.750
0
LINE
8
медь верх
10
-2.669
20
-0.750
11
-2.650
21
-0.710
0
LINE
8
медь верх
10
-2.650
20
-0.710
11
-2.625
21
-0.675
0
LINE
8
медь верх
10
-2.625
20
-0.675
11
-2.595
21
-0.644
0
LINE
8
медь верх
10
-2.595
20
-0.644
11
-2.559
21
-0.619
0
LINE
8
медь верх
10
-2.559
20
-0.619
11
-2.519
21
-0.600
0
LINE
8
медь верх
10
-2.519
20
-0.600
11
-2.477
21
-0.589
0
LINE
8
медь верх
10
-2.477
20
-0.589
11
-2.434
21
-0.585
0
LINE
8
медь верх
10
-2.434
20
-0.585
11
-2.390
21
-0.589
0
LINE
8
медь верх
10
-2.390
20
-0.589
11
-2.348
21
-0.600
0
LINE
8
медь верх
10
-2.348
20
-0.600
11
-2.309
21
-0.619
0
LINE
8
медь верх
10
-2.309
20
-0.619
11
-2.273
21
-0.644
0
LINE
8
медь верх
10
-2.273
20
-0.644
11
-2.242
21
-0.675
0
LINE
8
медь верх
10
-2.242
20
-0.675
11
-2.217
21
-0.710
0
LINE
8
медь верх
10
-2.217
20
-0.710
11
-2.199
21
-0.750
0
LINE
8
медь верх
10
-2.199
20
-0.750
11
-2.188
21
-0.792
0
LINE
8
медь верх
10
-2.188
20
-0.792
11
-2.184
21
-0.835
0
LINE
8
медь верх
10
-2.184
20
-0.835
11
-2.188
21
-0.879
0
LINE
8
медь верх
10
-2.188
20
-0.879
11
-2.199
21
-0.921
0
LINE
8
медь верх
10
-2.199
20
-0.921
11
-2.217
21
-0.960
0
LINE
8
медь верх
10
-2.217
20
-0.960
11
-2.242
21
-0.996
0
LINE
8
медь верх
10
-2.242
20
-0.996
11
-2.273
21
-1.027
0
LINE
8
медь верх
10
-2.273
20
-1.027
11
-2.309
21
-1.052
0
LINE
8
медь верх
10
-2.309
20
-1.052
11
-2.348
21
-1.070
0
LINE
8
медь верх
10
-2.348
20
-1.070
11
-2.390
21
-1.082
0
LINE
8
медь верх
10
-2.390
20
-1.082
11
-2.434
21
-1.085
0
LINE
8
медь верх
10
-2.434
20
-1.085
11
-2.477
21
-1.082
0
LINE
8
медь верх
10
-2.477
20
-1.082
11
-2.519
21
-1.070
0
LINE
8
медь верх
10
-2.519
20
-1.070
11
-2.559
21
-1.052
0
LINE
8
медь верх
10
-2.559
20
-1.052
11
-2.595
21
-1.027
0
LINE
8
медь верх
10
-2.595
20
-1.027
11
-2.625
21
-0.996
0
LINE
8
медь верх
10
-2.625
20
-0.996
11
-2.650
21
-0.960
0
LINE
8
медь верх
10
-2.650
20
-0.960
11
-2.669
21
-0.921
0
LINE
8
медь верх
10
-2.669
20
-0.921
11
-2.680
21
-0.879
0
LINE
8
медь верх
10
-2.680
20
-0.879
11
-2.684
21
-0.835
0
LINE
8
медь верх
10
-7.250
20
-0.919
11
-7.246
21
-0.875
0
LINE
8
медь верх
10
-7.246
20
-0.875
11
-7.235
21
-0.833
0
LINE
8
медь верх
10
-7.235
20
-0.833
11
-7.217
21
-0.794
0
LINE
8
медь верх
10
-7.217
20
-0.794
11
-7.192
21
-0.758
0
LINE
8
медь верх
10
-7.192
20
-0.758
11
-7.161
21
-0.727
0
LINE
8
медь верх
10
-7.161
20
-0.727
11
-7.125
21
-0.702
0
LINE
8
медь верх
10
-7.125
20
-0.702
11
-7.086
21
-0.684
0
LINE
8
медь верх
10
-7.086
20
-0.684
11
-7.043
21
-0.672
0
LINE
8
медь верх
10
-7.043
20
-0.672
11
-7.000
21
-0.669
0
LINE
8
медь верх
10
-7.000
20
-0.669
11
-6.957
21
-0.672
0
LINE
8
медь верх
10
-6.957
20
-0.672
11
-6.914
21
-0.684
0
LINE
8
медь верх
10
-6.914
20
-0.684
11
-6.875
21
-0.702
0
LINE
8
медь верх
10
-6.875
20
-0.702
11
-6.839
21
-0.727
0
LINE
8
медь верх
10
-6.839
20
-0.727
11
-6.808
21
-0.758
0
LINE
8
медь верх
10
-6.808
20
-0.758
11
-6.783
21
-0.794
0
LINE
8
медь верх
10
-6.783
20
-0.794
11
-6.765
21
-0.833
0
LINE
8
медь верх
10
-6.765
20
-0.833
11
-6.754
21
-0.875
0
LINE
8
медь верх
10
-6.754
20
-0.875
11
-6.750
21
-0.919
0
LINE
8
медь верх
10
-6.750
20
-0.919
11
-6.754
21
-0.962
0
LINE
8
медь верх
10
-6.754
20
-0.962
11
-6.765
21
-1.004
0
LINE
8
медь верх
10
-6.765
20
-1.004
11
-6.783
21
-1.044
0
LINE
8
медь верх
10
-6.783
20
-1.044
11
-6.808
21
-1.079
0
LINE
8
медь верх
10
-6.808
20
-1.079
11
-6.839
21
-1.110
0
LINE
8
медь верх
10
-6.839
20
-1.110
11
-6.875
21
-1.135
0
LINE
8
медь верх
10
-6.875
20
-1.135
11
-6.914
21
-1.154
0
LINE
8
медь верх
10
-6.914
20
-1.154
11
-6.957
21
-1.165
0
LINE
8
медь верх
10
-6.957
20
-1.165
11
-7.000
21
-1.169
0
LINE
8
медь верх
10
-7.000
20
-1.169
11
-7.043
21
-1.165
0
LINE
8
медь верх
10
-7.043
20
-1.165
11
-7.086
21
-1.154
0
LINE
8
медь верх
10
-7.086
20
-1.154
11
-7.125
21
-1.135
0
LINE
8
медь верх
10
-7.125
20
-1.135
11
-7.161
21
-1.110
0
LINE
8
медь верх
10
-7.161
20
-1.110
11
-7.192
21
-1.079
0
LINE
8
медь верх
10
-7.192
20
-1.079
11
-7.217
21
-1.044
0
LINE
8
медь верх
10
-7.217
20
-1.044
11
-7.235
21
-1.004
0
LINE
8
медь верх
10
-7.235
20
-1.004
11
-7.246
21
-0.962
0
LINE
8
медь верх
10
-7.246
20
-0.962
11
-7.250
21
-0.919
0
ENDSEC
0
EOF
