0
SECTION
2
ENTITIES
0
LINE
8
медь верх
10
10.000
20
-19.400
11
10.008
21
-19.313
0
LINE
8
медь верх
10
10.008
20
-19.313
11
10.030
21
-19.229
0
LINE
8
медь верх
10
10.030
20
-19.229
11
10.067
21
-19.150
0
LINE
8
медь верх
10
10.067
20
-19.150
11
10.117
21
-19.079
0
LINE
8
медь верх
10
10.117
20
-19.079
11
10.179
21
-19.017
0
LINE
8
медь верх
10
10.179
20
-19.017
11
10.250
21
-18.967
0
LINE
8
медь верх
10
10.250
20
-18.967
11
10.329
21
-18.930
0
LINE
8
медь верх
10
10.329
20
-18.930
11
10.413
21
-18.908
0
LINE
8
медь верх
10
10.413
20
-18.908
11
10.500
21
-18.900
0
LINE
8
медь верх
10
10.500
20
-18.900
11
10.587
21
-18.908
0
LINE
8
медь верх
10
10.587
20
-18.908
11
10.671
21
-18.930
0
LINE
8
медь верх
10
10.671
20
-18.930
11
10.750
21
-18.967
0
LINE
8
медь верх
10
10.750
20
-18.967
11
10.821
21
-19.017
0
LINE
8
медь верх
10
10.821
20
-19.017
11
10.883
21
-19.079
0
LINE
8
медь верх
10
10.883
20
-19.079
11
10.933
21
-19.150
0
LINE
8
медь верх
10
10.933
20
-19.150
11
10.970
21
-19.229
0
LINE
8
медь верх
10
10.970
20
-19.229
11
10.992
21
-19.313
0
LINE
8
медь верх
10
10.992
20
-19.313
11
11.000
21
-19.400
0
LINE
8
медь верх
10
11.000
20
-19.400
11
10.992
21
-19.487
0
LINE
8
медь верх
10
10.992
20
-19.487
11
10.970
21
-19.571
0
LINE
8
медь верх
10
10.970
20
-19.571
11
10.933
21
-19.650
0
LINE
8
медь верх
10
10.933
20
-19.650
11
10.883
21
-19.721
0
LINE
8
медь верх
10
10.883
20
-19.721
11
10.821
21
-19.783
0
LINE
8
медь верх
10
10.821
20
-19.783
11
10.750
21
-19.833
0
LINE
8
медь верх
10
10.750
20
-19.833
11
10.671
21
-19.870
0
LINE
8
медь верх
10
10.671
20
-19.870
11
10.587
21
-19.892
0
LINE
8
медь верх
10
10.587
20
-19.892
11
10.500
21
-19.900
0
LINE
8
медь верх
10
10.500
20
-19.900
11
10.413
21
-19.892
0
LINE
8
медь верх
10
10.413
20
-19.892
11
10.329
21
-19.870
0
LINE
8
медь верх
10
10.329
20
-19.870
11
10.250
21
-19.833
0
LINE
8
медь верх
10
10.250
20
-19.833
11
10.179
21
-19.783
0
LINE
8
медь верх
10
10.179
20
-19.783
11
10.117
21
-19.721
0
LINE
8
медь верх
10
10.117
20
-19.721
11
10.067
21
-19.650
0
LINE
8
медь верх
10
10.067
20
-19.650
11
10.030
21
-19.571
0
LINE
8
медь верх
10
10.030
20
-19.571
11
10.008
21
-19.487
0
LINE
8
медь верх
10
10.008
20
-19.487
11
10.000
21
-19.400
0
LINE
8
медь верх
10
10.643
20
-19.878
11
10.356
21
-19.878
0
LINE
8
медь верх
10
10.739
20
-19.839
11
10.259
21
-19.839
0
LINE
8
медь верх
10
10.801
20
-19.798
11
10.197
21
-19.798
0
LINE
8
медь верх
10
10.848
20
-19.757
11
10.151
21
-19.757
0
LINE
8
медь верх
10
10.885
20
-19.717
11
10.113
21
-19.717
0
LINE
8
медь верх
10
10.916
20
-19.677
11
10.084
21
-19.677
0
LINE
8
медь верх
10
10.940
20
-19.637
11
10.060
21
-19.637
0
LINE
8
медь верх
10
10.959
20
-19.596
11
10.039
21
-19.596
0
LINE
8
медь верх
10
10.974
20
-19.557
11
10.024
21
-19.557
0
LINE
8
медь верх
10
10.986
20
-19.516
11
10.013
21
-19.516
0
LINE
8
медь верх
10
10.993
20
-19.475
11
10.005
21
-19.475
0
LINE
8
медь верх
10
10.998
20
-19.436
11
10.001
21
-19.436
0
LINE
8
медь верх
10
10.000
20
-19.395
11
10.999
21
-19.395
0
LINE
8
медь верх
10
10.001
20
-19.355
11
10.997
21
-19.355
0
LINE
8
медь верх
10
10.006
20
-19.315
11
10.992
21
-19.314
0
LINE
8
медь верх
10
10.015
20
-19.275
11
10.983
21
-19.275
0
LINE
8
медь верх
10
10.028
20
-19.234
11
10.972
21
-19.234
0
LINE
8
медь верх
10
10.043
20
-19.194
11
10.955
21
-19.194
0
LINE
8
медь верх
10
10.063
20
-19.154
11
10.935
21
-19.154
0
LINE
8
медь верх
10
10.089
20
-19.113
11
10.909
21
-19.113
0
LINE
8
медь верх
10
10.121
20
-19.073
11
10.879
21
-19.073
0
LINE
8
медь верх
10
10.159
20
-19.033
11
10.839
21
-19.033
0
LINE
8
медь верх
10
10.208
20
-18.993
11
10.790
21
-18.993
0
LINE
8
медь верх
10
10.276
20
-18.952
11
10.724
21
-18.952
0
LINE
8
медь верх
10
10.386
20
-18.913
11
10.612
21
-18.913
0
LINE
8
медь верх
10
10.000
20
-21.900
11
10.008
21
-21.813
0
LINE
8
медь верх
10
10.008
20
-21.813
11
10.030
21
-21.729
0
LINE
8
медь верх
10
10.030
20
-21.729
11
10.067
21
-21.650
0
LINE
8
медь верх
10
10.067
20
-21.650
11
10.117
21
-21.579
0
LINE
8
медь верх
10
10.117
20
-21.579
11
10.179
21
-21.517
0
LINE
8
медь верх
10
10.179
20
-21.517
11
10.250
21
-21.467
0
LINE
8
медь верх
10
10.250
20
-21.467
11
10.329
21
-21.430
0
LINE
8
медь верх
10
10.329
20
-21.430
11
10.413
21
-21.408
0
LINE
8
медь верх
10
10.413
20
-21.408
11
10.500
21
-21.400
0
LINE
8
медь верх
10
10.500
20
-21.400
11
10.587
21
-21.408
0
LINE
8
медь верх
10
10.587
20
-21.408
11
10.671
21
-21.430
0
LINE
8
медь верх
10
10.671
20
-21.430
11
10.750
21
-21.467
0
LINE
8
медь верх
10
10.750
20
-21.467
11
10.821
21
-21.517
0
LINE
8
медь верх
10
10.821
20
-21.517
11
10.883
21
-21.579
0
LINE
8
медь верх
10
10.883
20
-21.579
11
10.933
21
-21.650
0
LINE
8
медь верх
10
10.933
20
-21.650
11
10.970
21
-21.729
0
LINE
8
медь верх
10
10.970
20
-21.729
11
10.992
21
-21.813
0
LINE
8
медь верх
10
10.992
20
-21.813
11
11.000
21
-21.900
0
LINE
8
медь верх
10
11.000
20
-21.900
11
10.992
21
-21.987
0
LINE
8
медь верх
10
10.992
20
-21.987
11
10.970
21
-22.071
0
LINE
8
медь верх
10
10.970
20
-22.071
11
10.933
21
-22.150
0
LINE
8
медь верх
10
10.933
20
-22.150
11
10.883
21
-22.221
0
LINE
8
медь верх
10
10.883
20
-22.221
11
10.821
21
-22.283
0
LINE
8
медь верх
10
10.821
20
-22.283
11
10.750
21
-22.333
0
LINE
8
медь верх
10
10.750
20
-22.333
11
10.671
21
-22.370
0
LINE
8
медь верх
10
10.671
20
-22.370
11
10.587
21
-22.392
0
LINE
8
медь верх
10
10.587
20
-22.392
11
10.500
21
-22.400
0
LINE
8
медь верх
10
10.500
20
-22.400
11
10.413
21
-22.392
0
LINE
8
медь верх
10
10.413
20
-22.392
11
10.329
21
-22.370
0
LINE
8
медь верх
10
10.329
20
-22.370
11
10.250
21
-22.333
0
LINE
8
медь верх
10
10.250
20
-22.333
11
10.179
21
-22.283
0
LINE
8
медь верх
10
10.179
20
-22.283
11
10.117
21
-22.221
0
LINE
8
медь верх
10
10.117
20
-22.221
11
10.067
21
-22.150
0
LINE
8
медь верх
10
10.067
20
-22.150
11
10.030
21
-22.071
0
LINE
8
медь верх
10
10.030
20
-22.071
11
10.008
21
-21.987
0
LINE
8
медь верх
10
10.008
20
-21.987
11
10.000
21
-21.900
0
LINE
8
медь верх
10
10.532
20
-22.398
11
10.467
21
-22.398
0
LINE
8
медь верх
10
10.698
20
-22.358
11
10.301
21
-22.358
0
LINE
8
медь верх
10
10.773
20
-22.318
11
10.226
21
-22.318
0
LINE
8
медь верх
10
10.827
20
-22.277
11
10.173
21
-22.277
0
LINE
8
медь верх
10
10.867
20
-22.238
11
10.131
21
-22.238
0
LINE
8
медь верх
10
10.902
20
-22.197
11
10.098
21
-22.197
0
LINE
8
медь верх
10
10.928
20
-22.156
11
10.071
21
-22.156
0
LINE
8
медь верх
10
10.950
20
-22.117
11
10.050
21
-22.117
0
LINE
8
медь верх
10
10.966
20
-22.076
11
10.032
21
-22.076
0
LINE
8
медь верх
10
10.980
20
-22.036
11
10.019
21
-22.036
0
LINE
8
медь верх
10
10.991
20
-21.995
11
10.009
21
-21.996
0
LINE
8
медь верх
10
10.996
20
-21.956
11
10.003
21
-21.956
0
LINE
8
медь верх
10
10.999
20
-21.915
11
10.000
21
-21.915
0
LINE
8
медь верх
10
10.000
20
-21.874
11
10.998
21
-21.874
0
LINE
8
медь верх
10
10.004
20
-21.835
11
10.996
21
-21.835
0
LINE
8
медь верх
10
10.010
20
-21.794
11
10.988
21
-21.794
0
LINE
8
медь верх
10
10.020
20
-21.754
11
10.978
21
-21.754
0
LINE
8
медь верх
10
10.036
20
-21.714
11
10.964
21
-21.714
0
LINE
8
медь верх
10
10.053
20
-21.674
11
10.946
21
-21.674
0
LINE
8
медь верх
10
10.076
20
-21.633
11
10.923
21
-21.633
0
LINE
8
медь верх
10
10.104
20
-21.594
11
10.894
21
-21.594
0
LINE
8
медь верх
10
10.138
20
-21.553
11
10.860
21
-21.553
0
LINE
8
медь верх
10
10.183
20
-21.513
11
10.817
21
-21.513
0
LINE
8
медь верх
10
10.239
20
-21.472
11
10.759
21
-21.472
0
LINE
8
медь верх
10
10.321
20
-21.433
11
10.678
21
-21.433
0
LINE
8
медь верх
10
-10.900
20
-19.400
11
-10.892
21
-19.313
0
LINE
8
медь верх
10
-10.892
20
-19.313
11
-10.870
21
-19.229
0
LINE
8
медь верх
10
-10.870
20
-19.229
11
-10.833
21
-19.150
0
LINE
8
медь верх
10
-10.833
20
-19.150
11
-10.783
21
-19.079
0
LINE
8
медь верх
10
-10.783
20
-19.079
11
-10.721
21
-19.017
0
LINE
8
медь верх
10
-10.721
20
-19.017
11
-10.650
21
-18.967
0
LINE
8
медь верх
10
-10.650
20
-18.967
11
-10.571
21
-18.930
0
LINE
8
медь верх
10
-10.571
20
-18.930
11
-10.487
21
-18.908
0
LINE
8
медь верх
10
-10.487
20
-18.908
11
-10.400
21
-18.900
0
LINE
8
медь верх
10
-10.400
20
-18.900
11
-10.313
21
-18.908
0
LINE
8
медь верх
10
-10.313
20
-18.908
11
-10.229
21
-18.930
0
LINE
8
медь верх
10
-10.229
20
-18.930
11
-10.150
21
-18.967
0
LINE
8
медь верх
10
-10.150
20
-18.967
11
-10.079
21
-19.017
0
LINE
8
медь верх
10
-10.079
20
-19.017
11
-10.017
21
-19.079
0
LINE
8
медь верх
10
-10.017
20
-19.079
11
-9.967
21
-19.150
0
LINE
8
медь верх
10
-9.967
20
-19.150
11
-9.930
21
-19.229
0
LINE
8
медь верх
10
-9.930
20
-19.229
11
-9.908
21
-19.313
0
LINE
8
медь верх
10
-9.908
20
-19.313
11
-9.900
21
-19.400
0
LINE
8
медь верх
10
-9.900
20
-19.400
11
-9.908
21
-19.487
0
LINE
8
медь верх
10
-9.908
20
-19.487
11
-9.930
21
-19.571
0
LINE
8
медь верх
10
-9.930
20
-19.571
11
-9.967
21
-19.650
0
LINE
8
медь верх
10
-9.967
20
-19.650
11
-10.017
21
-19.721
0
LINE
8
медь верх
10
-10.017
20
-19.721
11
-10.079
21
-19.783
0
LINE
8
медь верх
10
-10.079
20
-19.783
11
-10.150
21
-19.833
0
LINE
8
медь верх
10
-10.150
20
-19.833
11
-10.229
21
-19.870
0
LINE
8
медь верх
10
-10.229
20
-19.870
11
-10.313
21
-19.892
0
LINE
8
медь верх
10
-10.313
20
-19.892
11
-10.400
21
-19.900
0
LINE
8
медь верх
10
-10.400
20
-19.900
11
-10.487
21
-19.892
0
LINE
8
медь верх
10
-10.487
20
-19.892
11
-10.571
21
-19.870
0
LINE
8
медь верх
10
-10.571
20
-19.870
11
-10.650
21
-19.833
0
LINE
8
медь верх
10
-10.650
20
-19.833
11
-10.721
21
-19.783
0
LINE
8
медь верх
10
-10.721
20
-19.783
11
-10.783
21
-19.721
0
LINE
8
медь верх
10
-10.783
20
-19.721
11
-10.833
21
-19.650
0
LINE
8
медь верх
10
-10.833
20
-19.650
11
-10.870
21
-19.571
0
LINE
8
медь верх
10
-10.870
20
-19.571
11
-10.892
21
-19.487
0
LINE
8
медь верх
10
-10.892
20
-19.487
11
-10.900
21
-19.400
0
LINE
8
медь верх
10
-10.263
20
-19.881
11
-10.536
21
-19.881
0
LINE
8
медь верх
10
-10.164
20
-19.840
11
-10.635
21
-19.840
0
LINE
8
медь верх
10
-10.100
20
-19.799
11
-10.698
21
-19.799
0
LINE
8
медь верх
10
-10.052
20
-19.760
11
-10.745
21
-19.760
0
LINE
8
медь верх
10
-10.015
20
-19.719
11
-10.784
21
-19.719
0
LINE
8
медь верх
10
-9.985
20
-19.679
11
-10.814
21
-19.679
0
LINE
8
медь верх
10
-9.961
20
-19.639
11
-10.838
21
-19.639
0
LINE
8
медь верх
10
-9.940
20
-19.599
11
-10.858
21
-19.599
0
LINE
8
медь верх
10
-9.925
20
-19.558
11
-10.874
21
-19.558
0
LINE
8
медь верх
10
-9.914
20
-19.519
11
-10.885
21
-19.519
0
LINE
8
медь верх
10
-9.906
20
-19.478
11
-10.893
21
-19.478
0
LINE
8
медь верх
10
-9.901
20
-19.437
11
-10.898
21
-19.437
0
LINE
8
медь верх
10
-10.899
20
-19.398
11
-9.900
21
-19.397
0
LINE
8
медь верх
10
-10.898
20
-19.357
11
-9.901
21
-19.357
0
LINE
8
медь верх
10
-10.893
20
-19.317
11
-9.906
21
-19.317
0
LINE
8
медь верх
10
-10.884
20
-19.276
11
-9.915
21
-19.276
0
LINE
8
медь верх
10
-10.872
20
-19.237
11
-9.926
21
-19.237
0
LINE
8
медь верх
10
-10.856
20
-19.196
11
-9.943
21
-19.196
0
LINE
8
медь верх
10
-10.836
20
-19.155
11
-9.963
21
-19.155
0
LINE
8
медь верх
10
-10.812
20
-19.116
11
-9.987
21
-19.116
0
LINE
8
медь верх
10
-10.780
20
-19.075
11
-10.019
21
-19.075
0
LINE
8
медь верх
10
-10.742
20
-19.035
11
-10.057
21
-19.035
0
LINE
8
медь верх
10
-10.693
20
-18.995
11
-10.105
21
-18.995
0
LINE
8
медь верх
10
-10.627
20
-18.955
11
-10.171
21
-18.955
0
LINE
8
медь верх
10
-10.521
20
-18.914
11
-10.278
21
-18.914
0
LINE
8
медь верх
10
-10.900
20
-21.900
11
-10.892
21
-21.813
0
LINE
8
медь верх
10
-10.892
20
-21.813
11
-10.870
21
-21.729
0
LINE
8
медь верх
10
-10.870
20
-21.729
11
-10.833
21
-21.650
0
LINE
8
медь верх
10
-10.833
20
-21.650
11
-10.783
21
-21.579
0
LINE
8
медь верх
10
-10.783
20
-21.579
11
-10.721
21
-21.517
0
LINE
8
медь верх
10
-10.721
20
-21.517
11
-10.650
21
-21.467
0
LINE
8
медь верх
10
-10.650
20
-21.467
11
-10.571
21
-21.430
0
LINE
8
медь верх
10
-10.571
20
-21.430
11
-10.487
21
-21.408
0
LINE
8
медь верх
10
-10.487
20
-21.408
11
-10.400
21
-21.400
0
LINE
8
медь верх
10
-10.400
20
-21.400
11
-10.313
21
-21.408
0
LINE
8
медь верх
10
-10.313
20
-21.408
11
-10.229
21
-21.430
0
LINE
8
медь верх
10
-10.229
20
-21.430
11
-10.150
21
-21.467
0
LINE
8
медь верх
10
-10.150
20
-21.467
11
-10.079
21
-21.517
0
LINE
8
медь верх
10
-10.079
20
-21.517
11
-10.017
21
-21.579
0
LINE
8
медь верх
10
-10.017
20
-21.579
11
-9.967
21
-21.650
0
LINE
8
медь верх
10
-9.967
20
-21.650
11
-9.930
21
-21.729
0
LINE
8
медь верх
10
-9.930
20
-21.729
11
-9.908
21
-21.813
0
LINE
8
медь верх
10
-9.908
20
-21.813
11
-9.900
21
-21.900
0
LINE
8
медь верх
10
-9.900
20
-21.900
11
-9.908
21
-21.987
0
LINE
8
медь верх
10
-9.908
20
-21.987
11
-9.930
21
-22.071
0
LINE
8
медь верх
10
-9.930
20
-22.071
11
-9.967
21
-22.150
0
LINE
8
медь верх
10
-9.967
20
-22.150
11
-10.017
21
-22.221
0
LINE
8
медь верх
10
-10.017
20
-22.221
11
-10.079
21
-22.283
0
LINE
8
медь верх
10
-10.079
20
-22.283
11
-10.150
21
-22.333
0
LINE
8
медь верх
10
-10.150
20
-22.333
11
-10.229
21
-22.370
0
LINE
8
медь верх
10
-10.229
20
-22.370
11
-10.313
21
-22.392
0
LINE
8
медь верх
10
-10.313
20
-22.392
11
-10.400
21
-22.400
0
LINE
8
медь верх
10
-10.400
20
-22.400
11
-10.487
21
-22.392
0
LINE
8
медь верх
10
-10.487
20
-22.392
11
-10.571
21
-22.370
0
LINE
8
медь верх
10
-10.571
20
-22.370
11
-10.650
21
-22.333
0
LINE
8
медь верх
10
-10.650
20
-22.333
11
-10.721
21
-22.283
0
LINE
8
медь верх
10
-10.721
20
-22.283
11
-10.783
21
-22.221
0
LINE
8
медь верх
10
-10.783
20
-22.221
11
-10.833
21
-22.150
0
LINE
8
медь верх
10
-10.833
20
-22.150
11
-10.870
21
-22.071
0
LINE
8
медь верх
10
-10.870
20
-22.071
11
-10.892
21
-21.987
0
LINE
8
медь верх
10
-10.892
20
-21.987
11
-10.900
21
-21.900
0
LINE
8
медь верх
10
-10.206
20
-22.361
11
-10.593
21
-22.361
0
LINE
8
медь верх
10
-10.130
20
-22.320
11
-10.669
21
-22.320
0
LINE
8
медь верх
10
-10.075
20
-22.280
11
-10.724
21
-22.280
0
LINE
8
медь верх
10
-10.033
20
-22.240
11
-10.766
21
-22.240
0
LINE
8
медь верх
10
-10.000
20
-22.200
11
-10.799
21
-22.200
0
LINE
8
медь верх
10
-9.972
20
-22.159
11
-10.827
21
-22.159
0
LINE
8
медь верх
10
-9.950
20
-22.118
11
-10.848
21
-22.118
0
LINE
8
медь верх
10
-9.933
20
-22.079
11
-10.866
21
-22.079
0
LINE
8
медь верх
10
-9.919
20
-22.038
11
-10.880
21
-22.038
0
LINE
8
медь верх
10
-9.910
20
-21.998
11
-10.889
21
-21.998
0
LINE
8
медь верх
10
-9.902
20
-21.958
11
-10.895
21
-21.958
0
LINE
8
медь верх
10
-9.900
20
-21.918
11
-10.899
21
-21.918
0
LINE
8
медь верх
10
-10.899
20
-21.877
11
-9.900
21
-21.877
0
LINE
8
медь верх
10
-10.895
20
-21.838
11
-9.903
21
-21.838
0
LINE
8
медь верх
10
-10.889
20
-21.797
11
-9.910
21
-21.797
0
LINE
8
медь верх
10
-10.879
20
-21.756
11
-9.920
21
-21.756
0
LINE
8
медь верх
10
-10.865
20
-21.717
11
-9.934
21
-21.716
0
LINE
8
медь верх
10
-10.847
20
-21.676
11
-9.952
21
-21.676
0
LINE
8
медь верх
10
-10.824
20
-21.636
11
-9.975
21
-21.636
0
LINE
8
медь верх
10
-10.796
20
-21.595
11
-10.003
21
-21.595
0
LINE
8
медь верх
10
-10.762
20
-21.556
11
-10.037
21
-21.556
0
LINE
8
медь верх
10
-10.719
20
-21.515
11
-10.080
21
-21.515
0
LINE
8
медь верх
10
-10.663
20
-21.474
11
-10.136
21
-21.474
0
LINE
8
медь верх
10
-10.584
20
-21.435
11
-10.215
21
-21.435
0
LINE
8
медь верх
10
-6.980
20
-21.900
11
-6.976
21
-21.857
0
LINE
8
медь верх
10
-6.976
20
-21.857
11
-6.965
21
-21.814
0
LINE
8
медь верх
10
-6.965
20
-21.814
11
-6.946
21
-21.775
0
LINE
8
медь верх
10
-6.946
20
-21.775
11
-6.921
21
-21.739
0
LINE
8
медь верх
10
-6.921
20
-21.739
11
-6.891
21
-21.708
0
LINE
8
медь верх
10
-6.891
20
-21.708
11
-6.855
21
-21.683
0
LINE
8
медь верх
10
-6.855
20
-21.683
11
-6.815
21
-21.665
0
LINE
8
медь верх
10
-6.815
20
-21.665
11
-6.773
21
-21.654
0
LINE
8
медь верх
10
-6.773
20
-21.654
11
-6.730
21
-21.650
0
LINE
8
медь верх
10
-6.730
20
-21.650
11
-6.686
21
-21.654
0
LINE
8
медь верх
10
-6.686
20
-21.654
11
-6.644
21
-21.665
0
LINE
8
медь верх
10
-6.644
20
-21.665
11
-6.605
21
-21.683
0
LINE
8
медь верх
10
-6.605
20
-21.683
11
-6.569
21
-21.708
0
LINE
8
медь верх
10
-6.569
20
-21.708
11
-6.538
21
-21.739
0
LINE
8
медь верх
10
-6.538
20
-21.739
11
-6.513
21
-21.775
0
LINE
8
медь верх
10
-6.513
20
-21.775
11
-6.495
21
-21.814
0
LINE
8
медь верх
10
-6.495
20
-21.814
11
-6.484
21
-21.857
0
LINE
8
медь верх
10
-6.484
20
-21.857
11
-6.480
21
-21.900
0
LINE
8
медь верх
10
-6.480
20
-21.900
11
-6.484
21
-21.943
0
LINE
8
медь верх
10
-6.484
20
-21.943
11
-6.495
21
-21.986
0
LINE
8
медь верх
10
-6.495
20
-21.986
11
-6.513
21
-22.025
0
LINE
8
медь верх
10
-6.513
20
-22.025
11
-6.538
21
-22.061
0
LINE
8
медь верх
10
-6.538
20
-22.061
11
-6.569
21
-22.092
0
LINE
8
медь верх
10
-6.569
20
-22.092
11
-6.605
21
-22.117
0
LINE
8
медь верх
10
-6.605
20
-22.117
11
-6.644
21
-22.135
0
LINE
8
медь верх
10
-6.644
20
-22.135
11
-6.686
21
-22.146
0
LINE
8
медь верх
10
-6.686
20
-22.146
11
-6.730
21
-22.150
0
LINE
8
медь верх
10
-6.730
20
-22.150
11
-6.773
21
-22.146
0
LINE
8
медь верх
10
-6.773
20
-22.146
11
-6.815
21
-22.135
0
LINE
8
медь верх
10
-6.815
20
-22.135
11
-6.855
21
-22.117
0
LINE
8
медь верх
10
-6.855
20
-22.117
11
-6.891
21
-22.092
0
LINE
8
медь верх
10
-6.891
20
-22.092
11
-6.921
21
-22.061
0
LINE
8
медь верх
10
-6.921
20
-22.061
11
-6.946
21
-22.025
0
LINE
8
медь верх
10
-6.946
20
-22.025
11
-6.965
21
-21.986
0
LINE
8
медь верх
10
-6.965
20
-21.986
11
-6.976
21
-21.943
0
LINE
8
медь верх
10
-6.976
20
-21.943
11
-6.980
21
-21.900
0
LINE
8
медь верх
10
-6.612
20
-22.120
11
-6.847
21
-22.120
0
LINE
8
медь верх
10
-6.556
20
-22.080
11
-6.902
21
-22.080
0
LINE
8
медь верх
10
-6.523
20
-22.040
11
-6.937
21
-22.040
0
LINE
8
медь верх
10
-6.500
20
-21.999
11
-6.958
21
-21.999
0
LINE
8
медь верх
10
-6.486
20
-21.960
11
-6.972
21
-21.960
0
LINE
8
медь верх
10
-6.480
20
-21.919
11
-6.979
21
-21.919
0
LINE
8
медь верх
10
-6.979
20
-21.878
11
-6.480
21
-21.878
0
LINE
8
медь верх
10
-6.971
20
-21.838
11
-6.487
21
-21.838
0
LINE
8
медь верх
10
-6.958
20
-21.798
11
-6.501
21
-21.798
0
LINE
8
медь верх
10
-6.935
20
-21.758
11
-6.523
21
-21.758
0
LINE
8
медь верх
10
-6.901
20
-21.717
11
-6.558
21
-21.717
0
LINE
8
медь верх
10
-6.844
20
-21.678
11
-6.614
21
-21.678
0
LINE
8
медь верх
10
-10.496
20
-15.049
11
-10.492
21
-15.005
0
LINE
8
медь верх
10
-10.492
20
-15.005
11
-10.481
21
-14.963
0
LINE
8
медь верх
10
-10.481
20
-14.963
11
-10.462
21
-14.924
0
LINE
8
медь верх
10
-10.462
20
-14.924
11
-10.437
21
-14.888
0
LINE
8
медь верх
10
-10.437
20
-14.888
11
-10.407
21
-14.857
0
LINE
8
медь верх
10
-10.407
20
-14.857
11
-10.371
21
-14.832
0
LINE
8
медь верх
10
-10.371
20
-14.832
11
-10.331
21
-14.814
0
LINE
8
медь верх
10
-10.331
20
-14.814
11
-10.289
21
-14.803
0
LINE
8
медь верх
10
-10.289
20
-14.803
11
-10.246
21
-14.799
0
LINE
8
медь верх
10
-10.246
20
-14.799
11
-10.202
21
-14.803
0
LINE
8
медь верх
10
-10.202
20
-14.803
11
-10.160
21
-14.814
0
LINE
8
медь верх
10
-10.160
20
-14.814
11
-10.121
21
-14.832
0
LINE
8
медь верх
10
-10.121
20
-14.832
11
-10.085
21
-14.857
0
LINE
8
медь верх
10
-10.085
20
-14.857
11
-10.054
21
-14.888
0
LINE
8
медь верх
10
-10.054
20
-14.888
11
-10.029
21
-14.924
0
LINE
8
медь верх
10
-10.029
20
-14.924
11
-10.011
21
-14.963
0
LINE
8
медь верх
10
-10.011
20
-14.963
11
-10.000
21
-15.005
0
LINE
8
медь верх
10
-10.000
20
-15.005
11
-9.996
21
-15.049
0
LINE
8
медь верх
10
-9.996
20
-15.049
11
-10.000
21
-15.092
0
LINE
8
медь верх
10
-10.000
20
-15.092
11
-10.011
21
-15.134
0
LINE
8
медь верх
10
-10.011
20
-15.134
11
-10.029
21
-15.174
0
LINE
8
медь верх
10
-10.029
20
-15.174
11
-10.054
21
-15.210
0
LINE
8
медь верх
10
-10.054
20
-15.210
11
-10.085
21
-15.240
0
LINE
8
медь верх
10
-10.085
20
-15.240
11
-10.121
21
-15.265
0
LINE
8
медь верх
10
-10.121
20
-15.265
11
-10.160
21
-15.284
0
LINE
8
медь верх
10
-10.160
20
-15.284
11
-10.202
21
-15.295
0
LINE
8
медь верх
10
-10.202
20
-15.295
11
-10.246
21
-15.299
0
LINE
8
медь верх
10
-10.246
20
-15.299
11
-10.289
21
-15.295
0
LINE
8
медь верх
10
-10.289
20
-15.295
11
-10.331
21
-15.284
0
LINE
8
медь верх
10
-10.331
20
-15.284
11
-10.371
21
-15.265
0
LINE
8
медь верх
10
-10.371
20
-15.265
11
-10.407
21
-15.240
0
LINE
8
медь верх
10
-10.407
20
-15.240
11
-10.437
21
-15.210
0
LINE
8
медь верх
10
-10.437
20
-15.210
11
-10.462
21
-15.174
0
LINE
8
медь верх
10
-10.462
20
-15.174
11
-10.481
21
-15.134
0
LINE
8
медь верх
10
-10.481
20
-15.134
11
-10.492
21
-15.092
0
LINE
8
медь верх
10
-10.492
20
-15.092
11
-10.496
21
-15.049
0
LINE
8
медь верх
10
-10.152
20
-15.281
11
-10.338
21
-15.281
0
LINE
8
медь верх
10
-10.085
20
-15.240
11
-10.405
21
-15.240
0
LINE
8
медь верх
10
-10.047
20
-15.199
11
-10.444
21
-15.199
0
LINE
8
медь верх
10
-10.022
20
-15.160
11
-10.469
21
-15.160
0
LINE
8
медь верх
10
-10.005
20
-15.119
11
-10.485
21
-15.119
0
LINE
8
медь верх
10
-9.997
20
-15.079
11
-10.493
21
-15.079
0
LINE
8
медь верх
10
-10.495
20
-15.039
11
-9.995
21
-15.039
0
LINE
8
медь верх
10
-10.490
20
-14.999
11
-10.000
21
-14.999
0
LINE
8
медь верх
10
-10.479
20
-14.958
11
-10.011
21
-14.958
0
LINE
8
медь верх
10
-10.458
20
-14.919
11
-10.032
21
-14.919
0
LINE
8
медь верх
10
-10.428
20
-14.878
11
-10.062
21
-14.878
0
LINE
8
медь верх
10
-10.380
20
-14.837
11
-10.110
21
-14.837
0
LINE
8
медь верх
10
9.589
20
-15.049
11
9.592
21
-15.005
0
LINE
8
медь верх
10
9.592
20
-15.005
11
9.604
21
-14.963
0
LINE
8
медь верх
10
9.604
20
-14.963
11
9.622
21
-14.924
0
LINE
8
медь верх
10
9.622
20
-14.924
11
9.647
21
-14.888
0
LINE
8
медь верх
10
9.647
20
-14.888
11
9.678
21
-14.857
0
LINE
8
медь верх
10
9.678
20
-14.857
11
9.714
21
-14.832
0
LINE
8
медь верх
10
9.714
20
-14.832
11
9.753
21
-14.814
0
LINE
8
медь верх
10
9.753
20
-14.814
11
9.795
21
-14.803
0
LINE
8
медь верх
10
9.795
20
-14.803
11
9.839
21
-14.799
0
LINE
8
медь верх
10
9.839
20
-14.799
11
9.882
21
-14.803
0
LINE
8
медь верх
10
9.882
20
-14.803
11
9.924
21
-14.814
0
LINE
8
медь верх
10
9.924
20
-14.814
11
9.964
21
-14.832
0
LINE
8
медь верх
10
9.964
20
-14.832
11
9.999
21
-14.857
0
LINE
8
медь верх
10
9.999
20
-14.857
11
10.030
21
-14.888
0
LINE
8
медь верх
10
10.030
20
-14.888
11
10.055
21
-14.924
0
LINE
8
медь верх
10
10.055
20
-14.924
11
10.073
21
-14.963
0
LINE
8
медь верх
10
10.073
20
-14.963
11
10.085
21
-15.005
0
LINE
8
медь верх
10
10.085
20
-15.005
11
10.089
21
-15.049
0
LINE
8
медь верх
10
10.089
20
-15.049
11
10.085
21
-15.092
0
LINE
8
медь верх
10
10.085
20
-15.092
11
10.073
21
-15.134
0
LINE
8
медь верх
10
10.073
20
-15.134
11
10.055
21
-15.174
0
LINE
8
медь верх
10
10.055
20
-15.174
11
10.030
21
-15.210
0
LINE
8
медь верх
10
10.030
20
-15.210
11
9.999
21
-15.240
0
LINE
8
медь верх
10
9.999
20
-15.240
11
9.964
21
-15.265
0
LINE
8
медь верх
10
9.964
20
-15.265
11
9.924
21
-15.284
0
LINE
8
медь верх
10
9.924
20
-15.284
11
9.882
21
-15.295
0
LINE
8
медь верх
10
9.882
20
-15.295
11
9.839
21
-15.299
0
LINE
8
медь верх
10
9.839
20
-15.299
11
9.795
21
-15.295
0
LINE
8
медь верх
10
9.795
20
-15.295
11
9.753
21
-15.284
0
LINE
8
медь верх
10
9.753
20
-15.284
11
9.714
21
-15.265
0
LINE
8
медь верх
10
9.714
20
-15.265
11
9.678
21
-15.240
0
LINE
8
медь верх
10
9.678
20
-15.240
11
9.647
21
-15.210
0
LINE
8
медь верх
10
9.647
20
-15.210
11
9.622
21
-15.174
0
LINE
8
медь верх
10
9.622
20
-15.174
11
9.604
21
-15.134
0
LINE
8
медь верх
10
9.604
20
-15.134
11
9.592
21
-15.092
0
LINE
8
медь верх
10
9.592
20
-15.092
11
9.589
21
-15.049
0
LINE
8
медь верх
10
9.935
20
-15.278
11
9.740
21
-15.278
0
LINE
8
медь верх
10
10.000
20
-15.239
11
9.675
21
-15.239
0
LINE
8
медь верх
10
10.038
20
-15.198
11
9.638
21
-15.198
0
LINE
8
медь верх
10
10.062
20
-15.157
11
9.613
21
-15.157
0
LINE
8
медь верх
10
10.079
20
-15.117
11
9.597
21
-15.117
0
LINE
8
медь верх
10
10.086
20
-15.077
11
9.590
21
-15.077
0
LINE
8
медь верх
10
9.588
20
-15.037
11
10.088
21
-15.037
0
LINE
8
медь верх
10
9.594
20
-14.996
11
10.083
21
-14.996
0
LINE
8
медь верх
10
9.605
20
-14.957
11
10.070
21
-14.957
0
LINE
8
медь верх
10
9.625
20
-14.916
11
10.050
21
-14.916
0
LINE
8
медь верх
10
9.657
20
-14.876
11
10.019
21
-14.876
0
LINE
8
медь верх
10
9.707
20
-14.836
11
9.970
21
-14.836
0
ENDSEC
0
EOF
